M48
;DRILL file {KiCad 4.0.5+dfsg1-4} date Mon Mar  6 16:23:19 2017
;FORMAT={-:-/ absolute / inch / decimal}
FMAT,2
INCH,TZ
T1C0.015
T2C0.022
T3C0.040
%
G90
G05
M72
T1
X7.21Y-2.74
X7.79Y-1.87
X7.85Y-2.81
X7.91Y-2.43
X7.93Y-1.78
X8.02Y-2.87
X8.15Y-2.22
X8.2792Y-2.1846
T2
X7.64Y-1.93
X7.83Y-2.43
T3
X7.5315Y-3.0197
X7.5315Y-3.1378
X7.6693Y-3.0197
X7.6693Y-3.1378
X7.8811Y-3.139
X8.0189Y-3.139
X8.2315Y-3.139
X8.3693Y-3.139
X8.5815Y-3.0197
X8.5815Y-3.1378
X8.7193Y-3.0197
X8.7193Y-3.1378
X8.9315Y-3.0197
X8.9315Y-3.1378
X9.0693Y-3.0197
X9.0693Y-3.1378
X9.2815Y-3.0197
X9.2815Y-3.1378
X9.4193Y-3.0197
X9.4193Y-3.1378
X9.889Y-2.1311
X9.889Y-2.2689
X9.889Y-2.5311
X9.889Y-2.6689
T0
M30
