G04 #@! TF.FileFunction,Copper,L2,Bot,Signal*
%FSLAX46Y46*%
G04 Gerber Fmt 4.6, Leading zero omitted, Abs format (unit mm)*
G04 Created by KiCad (PCBNEW 4.0.5+dfsg1-4) date Mon Mar  6 16:22:21 2017*
%MOMM*%
%LPD*%
G01*
G04 APERTURE LIST*
%ADD10C,0.090000*%
%ADD11R,5.080000X1.524000*%
%ADD12C,1.700000*%
%ADD13C,1.320800*%
%ADD14C,0.762000*%
%ADD15C,1.270000*%
%ADD16C,0.635000*%
%ADD17C,0.508000*%
G04 APERTURE END LIST*
D10*
D11*
X178181000Y-69977000D03*
X178181000Y-67310000D03*
X178181000Y-64516000D03*
X178181000Y-61722000D03*
X178181000Y-59055000D03*
X178181000Y-56261000D03*
X178181000Y-53594000D03*
X178181000Y-50800000D03*
X178181000Y-48006000D03*
X178181000Y-45339000D03*
X178181000Y-42545000D03*
X178181000Y-39878000D03*
D12*
X194800000Y-76700000D03*
X191300000Y-79700000D03*
X194800000Y-79700000D03*
X191300000Y-76700000D03*
X239250000Y-76700000D03*
X235750000Y-79700000D03*
X239250000Y-79700000D03*
X235750000Y-76700000D03*
X209080000Y-79730000D03*
X212580000Y-79730000D03*
X200180000Y-79730000D03*
X203680000Y-79730000D03*
X230360000Y-76700000D03*
X226860000Y-79700000D03*
X230360000Y-79700000D03*
X226860000Y-76700000D03*
X221470000Y-76700000D03*
X217970000Y-79700000D03*
X221470000Y-79700000D03*
X217970000Y-76700000D03*
X251180000Y-67790000D03*
X251180000Y-64290000D03*
X251180000Y-57630000D03*
X251180000Y-54130000D03*
D13*
X198882000Y-61722000D03*
X194056000Y-49022000D03*
D14*
X201422000Y-45211996D03*
X197866000Y-47498000D03*
X183134000Y-69595990D03*
X203708000Y-72898000D03*
X207010000Y-56388000D03*
X210292626Y-55489490D03*
X199390000Y-71374000D03*
X200913992Y-61722000D03*
D15*
X200180000Y-79730000D02*
X200180000Y-79530000D01*
X200180000Y-79530000D02*
X197350000Y-76700000D01*
X197350000Y-76700000D02*
X194800000Y-76700000D01*
X194800000Y-79700000D02*
X199428000Y-84328000D01*
X199428000Y-84328000D02*
X216842000Y-84328000D01*
X216842000Y-84328000D02*
X220620001Y-80549999D01*
X220620001Y-80549999D02*
X221470000Y-79700000D01*
X192532000Y-48006000D02*
X193040000Y-48006000D01*
X193040000Y-48006000D02*
X194056000Y-49022000D01*
X178181000Y-48006000D02*
X192532000Y-48006000D01*
X212580000Y-79730000D02*
X212580000Y-75420000D01*
X212580000Y-75420000D02*
X198882000Y-61722000D01*
X198882000Y-61722000D02*
X181991000Y-61722000D01*
X181991000Y-61722000D02*
X178181000Y-61722000D01*
D16*
X178435000Y-48260000D02*
X178181000Y-48006000D01*
X201041001Y-45592995D02*
X201422000Y-45211996D01*
X199135996Y-47498000D02*
X201041001Y-45592995D01*
X197866000Y-47498000D02*
X199135996Y-47498000D01*
X183672815Y-69595990D02*
X183134000Y-69595990D01*
X200405990Y-69595990D02*
X183672815Y-69595990D01*
X203708000Y-72898000D02*
X200405990Y-69595990D01*
D15*
X178181000Y-39878000D02*
X202438000Y-39878000D01*
X202438000Y-39878000D02*
X232918000Y-70358000D01*
X232918000Y-70358000D02*
X232918000Y-78486000D01*
X232918000Y-78486000D02*
X234132000Y-79700000D01*
X234132000Y-79700000D02*
X235750000Y-79700000D01*
D16*
X226860000Y-79700000D02*
X225044000Y-77884000D01*
X225044000Y-77884000D02*
X225044000Y-66294000D01*
X225044000Y-66294000D02*
X209550000Y-50800000D01*
X209550000Y-50800000D02*
X181356000Y-50800000D01*
X181356000Y-50800000D02*
X178181000Y-50800000D01*
X207010000Y-56388000D02*
X178308000Y-56388000D01*
X178308000Y-56388000D02*
X178181000Y-56261000D01*
X209911627Y-55870489D02*
X210292626Y-55489490D01*
X206727116Y-59055000D02*
X209911627Y-55870489D01*
X178181000Y-59055000D02*
X206727116Y-59055000D01*
D15*
X178181000Y-67310000D02*
X200660000Y-67310000D01*
X200660000Y-67310000D02*
X206248000Y-72898000D01*
X206248000Y-72898000D02*
X206248000Y-81280000D01*
X206248000Y-81280000D02*
X207010000Y-82042000D01*
X207010000Y-82042000D02*
X215628000Y-82042000D01*
X215628000Y-82042000D02*
X217120001Y-80549999D01*
X217120001Y-80549999D02*
X217970000Y-79700000D01*
D16*
X178181000Y-69977000D02*
X180975000Y-69977000D01*
X180975000Y-69977000D02*
X182372000Y-71374000D01*
X182372000Y-71374000D02*
X199136000Y-71374000D01*
X199136000Y-71374000D02*
X199390000Y-71374000D01*
X230360000Y-79700000D02*
X228018000Y-82042000D01*
X228018000Y-82042000D02*
X225806000Y-82042000D01*
X225806000Y-82042000D02*
X223520000Y-79756000D01*
X223520000Y-79756000D02*
X223520000Y-75184000D01*
X223520000Y-75184000D02*
X222758000Y-74422000D01*
X222758000Y-74422000D02*
X214152807Y-74422000D01*
X214152807Y-74422000D02*
X201452807Y-61722000D01*
X201452807Y-61722000D02*
X200913992Y-61722000D01*
D17*
G36*
X181429073Y-72316927D02*
X181861691Y-72605993D01*
X182372000Y-72707500D01*
X198958560Y-72707500D01*
X199110900Y-72770757D01*
X199666661Y-72771242D01*
X200180303Y-72559010D01*
X200573629Y-72166370D01*
X200725286Y-71801140D01*
X202459999Y-73535853D01*
X202522990Y-73688303D01*
X202915630Y-74081629D01*
X203428900Y-74294757D01*
X203984661Y-74295242D01*
X204498303Y-74083010D01*
X204597000Y-73984485D01*
X204597000Y-78090297D01*
X204052799Y-77864325D01*
X203310458Y-77863677D01*
X202624377Y-78147160D01*
X202099005Y-78671616D01*
X201929767Y-79079186D01*
X201768114Y-78682328D01*
X201755668Y-78663701D01*
X201389742Y-78610060D01*
X200269803Y-79730000D01*
X201389742Y-80849940D01*
X201755668Y-80796299D01*
X201930265Y-80381706D01*
X202097160Y-80785623D01*
X202621616Y-81310995D01*
X203307201Y-81595675D01*
X204049542Y-81596323D01*
X204613564Y-81363274D01*
X204722675Y-81911811D01*
X205080567Y-82447433D01*
X205310134Y-82677000D01*
X200111867Y-82677000D01*
X198374609Y-80939742D01*
X199060060Y-80939742D01*
X199113701Y-81305668D01*
X199797850Y-81593782D01*
X200540178Y-81598153D01*
X201227672Y-81318114D01*
X201246299Y-81305668D01*
X201299940Y-80939742D01*
X200180000Y-79819803D01*
X199060060Y-80939742D01*
X198374609Y-80939742D01*
X197525045Y-80090178D01*
X198311847Y-80090178D01*
X198591886Y-80777672D01*
X198604332Y-80796299D01*
X198970258Y-80849940D01*
X200090197Y-79730000D01*
X198970258Y-78610060D01*
X198604332Y-78663701D01*
X198316218Y-79347850D01*
X198311847Y-80090178D01*
X197525045Y-80090178D01*
X196596613Y-79161747D01*
X196382840Y-78644377D01*
X196258938Y-78520258D01*
X199060060Y-78520258D01*
X200180000Y-79640197D01*
X201299940Y-78520258D01*
X201246299Y-78154332D01*
X200562150Y-77866218D01*
X199819822Y-77861847D01*
X199132328Y-78141886D01*
X199113701Y-78154332D01*
X199060060Y-78520258D01*
X196258938Y-78520258D01*
X195885310Y-78145978D01*
X195919940Y-77909742D01*
X194800000Y-76789803D01*
X193680060Y-77909742D01*
X193714794Y-78146691D01*
X193219005Y-78641616D01*
X193049936Y-79048780D01*
X192882840Y-78644377D01*
X192385310Y-78145978D01*
X192419940Y-77909742D01*
X191300000Y-76789803D01*
X190180060Y-77909742D01*
X190214794Y-78146691D01*
X189719005Y-78641616D01*
X189434325Y-79327201D01*
X189433677Y-80069542D01*
X189717160Y-80755623D01*
X190241616Y-81280995D01*
X190927201Y-81565675D01*
X191669542Y-81566323D01*
X192355623Y-81282840D01*
X192880995Y-80758384D01*
X193050064Y-80351220D01*
X193217160Y-80755623D01*
X193741616Y-81280995D01*
X194262361Y-81497228D01*
X198260566Y-85495433D01*
X198796189Y-85853325D01*
X198901013Y-85874176D01*
X199428000Y-85979000D01*
X199907105Y-85979000D01*
X199767101Y-86118760D01*
X199379442Y-87052346D01*
X199378560Y-88063219D01*
X199764589Y-88997480D01*
X200106511Y-89340000D01*
X194923669Y-89340000D01*
X195192899Y-89071240D01*
X195580558Y-88137654D01*
X195581440Y-87126781D01*
X195195411Y-86192520D01*
X194481240Y-85477101D01*
X193547654Y-85089442D01*
X192536781Y-85088560D01*
X191602520Y-85474589D01*
X190887101Y-86188760D01*
X190499442Y-87122346D01*
X190498560Y-88133219D01*
X190884589Y-89067480D01*
X191156634Y-89340000D01*
X185351000Y-89340000D01*
X185351000Y-82931000D01*
X185267953Y-82513492D01*
X185031453Y-82159547D01*
X184677508Y-81923047D01*
X184260000Y-81840000D01*
X176351000Y-81840000D01*
X176351000Y-76924288D01*
X177831478Y-76924288D01*
X178289669Y-78033195D01*
X179137343Y-78882350D01*
X180245449Y-79342475D01*
X181445288Y-79343522D01*
X182554195Y-78885331D01*
X183403350Y-78037657D01*
X183809234Y-77060178D01*
X189431847Y-77060178D01*
X189711886Y-77747672D01*
X189724332Y-77766299D01*
X190090258Y-77819940D01*
X191210197Y-76700000D01*
X191389803Y-76700000D01*
X192509742Y-77819940D01*
X192875668Y-77766299D01*
X193050433Y-77351306D01*
X193211886Y-77747672D01*
X193224332Y-77766299D01*
X193590258Y-77819940D01*
X194710197Y-76700000D01*
X194889803Y-76700000D01*
X196009742Y-77819940D01*
X196375668Y-77766299D01*
X196663782Y-77082150D01*
X196668153Y-76339822D01*
X196388114Y-75652328D01*
X196375668Y-75633701D01*
X196009742Y-75580060D01*
X194889803Y-76700000D01*
X194710197Y-76700000D01*
X193590258Y-75580060D01*
X193224332Y-75633701D01*
X193049567Y-76048694D01*
X192888114Y-75652328D01*
X192875668Y-75633701D01*
X192509742Y-75580060D01*
X191389803Y-76700000D01*
X191210197Y-76700000D01*
X190090258Y-75580060D01*
X189724332Y-75633701D01*
X189436218Y-76317850D01*
X189431847Y-77060178D01*
X183809234Y-77060178D01*
X183863475Y-76929551D01*
X183864522Y-75729712D01*
X183765582Y-75490258D01*
X190180060Y-75490258D01*
X191300000Y-76610197D01*
X192419940Y-75490258D01*
X193680060Y-75490258D01*
X194800000Y-76610197D01*
X195919940Y-75490258D01*
X195866299Y-75124332D01*
X195182150Y-74836218D01*
X194439822Y-74831847D01*
X193752328Y-75111886D01*
X193733701Y-75124332D01*
X193680060Y-75490258D01*
X192419940Y-75490258D01*
X192366299Y-75124332D01*
X191682150Y-74836218D01*
X190939822Y-74831847D01*
X190252328Y-75111886D01*
X190233701Y-75124332D01*
X190180060Y-75490258D01*
X183765582Y-75490258D01*
X183406331Y-74620805D01*
X182558657Y-73771650D01*
X181450551Y-73311525D01*
X180250712Y-73310478D01*
X179141805Y-73768669D01*
X178292650Y-74616343D01*
X177832525Y-75724449D01*
X177831478Y-76924288D01*
X176351000Y-76924288D01*
X176351000Y-71774904D01*
X180721000Y-71774904D01*
X180860753Y-71748607D01*
X181429073Y-72316927D01*
X181429073Y-72316927D01*
G37*
X181429073Y-72316927D02*
X181861691Y-72605993D01*
X182372000Y-72707500D01*
X198958560Y-72707500D01*
X199110900Y-72770757D01*
X199666661Y-72771242D01*
X200180303Y-72559010D01*
X200573629Y-72166370D01*
X200725286Y-71801140D01*
X202459999Y-73535853D01*
X202522990Y-73688303D01*
X202915630Y-74081629D01*
X203428900Y-74294757D01*
X203984661Y-74295242D01*
X204498303Y-74083010D01*
X204597000Y-73984485D01*
X204597000Y-78090297D01*
X204052799Y-77864325D01*
X203310458Y-77863677D01*
X202624377Y-78147160D01*
X202099005Y-78671616D01*
X201929767Y-79079186D01*
X201768114Y-78682328D01*
X201755668Y-78663701D01*
X201389742Y-78610060D01*
X200269803Y-79730000D01*
X201389742Y-80849940D01*
X201755668Y-80796299D01*
X201930265Y-80381706D01*
X202097160Y-80785623D01*
X202621616Y-81310995D01*
X203307201Y-81595675D01*
X204049542Y-81596323D01*
X204613564Y-81363274D01*
X204722675Y-81911811D01*
X205080567Y-82447433D01*
X205310134Y-82677000D01*
X200111867Y-82677000D01*
X198374609Y-80939742D01*
X199060060Y-80939742D01*
X199113701Y-81305668D01*
X199797850Y-81593782D01*
X200540178Y-81598153D01*
X201227672Y-81318114D01*
X201246299Y-81305668D01*
X201299940Y-80939742D01*
X200180000Y-79819803D01*
X199060060Y-80939742D01*
X198374609Y-80939742D01*
X197525045Y-80090178D01*
X198311847Y-80090178D01*
X198591886Y-80777672D01*
X198604332Y-80796299D01*
X198970258Y-80849940D01*
X200090197Y-79730000D01*
X198970258Y-78610060D01*
X198604332Y-78663701D01*
X198316218Y-79347850D01*
X198311847Y-80090178D01*
X197525045Y-80090178D01*
X196596613Y-79161747D01*
X196382840Y-78644377D01*
X196258938Y-78520258D01*
X199060060Y-78520258D01*
X200180000Y-79640197D01*
X201299940Y-78520258D01*
X201246299Y-78154332D01*
X200562150Y-77866218D01*
X199819822Y-77861847D01*
X199132328Y-78141886D01*
X199113701Y-78154332D01*
X199060060Y-78520258D01*
X196258938Y-78520258D01*
X195885310Y-78145978D01*
X195919940Y-77909742D01*
X194800000Y-76789803D01*
X193680060Y-77909742D01*
X193714794Y-78146691D01*
X193219005Y-78641616D01*
X193049936Y-79048780D01*
X192882840Y-78644377D01*
X192385310Y-78145978D01*
X192419940Y-77909742D01*
X191300000Y-76789803D01*
X190180060Y-77909742D01*
X190214794Y-78146691D01*
X189719005Y-78641616D01*
X189434325Y-79327201D01*
X189433677Y-80069542D01*
X189717160Y-80755623D01*
X190241616Y-81280995D01*
X190927201Y-81565675D01*
X191669542Y-81566323D01*
X192355623Y-81282840D01*
X192880995Y-80758384D01*
X193050064Y-80351220D01*
X193217160Y-80755623D01*
X193741616Y-81280995D01*
X194262361Y-81497228D01*
X198260566Y-85495433D01*
X198796189Y-85853325D01*
X198901013Y-85874176D01*
X199428000Y-85979000D01*
X199907105Y-85979000D01*
X199767101Y-86118760D01*
X199379442Y-87052346D01*
X199378560Y-88063219D01*
X199764589Y-88997480D01*
X200106511Y-89340000D01*
X194923669Y-89340000D01*
X195192899Y-89071240D01*
X195580558Y-88137654D01*
X195581440Y-87126781D01*
X195195411Y-86192520D01*
X194481240Y-85477101D01*
X193547654Y-85089442D01*
X192536781Y-85088560D01*
X191602520Y-85474589D01*
X190887101Y-86188760D01*
X190499442Y-87122346D01*
X190498560Y-88133219D01*
X190884589Y-89067480D01*
X191156634Y-89340000D01*
X185351000Y-89340000D01*
X185351000Y-82931000D01*
X185267953Y-82513492D01*
X185031453Y-82159547D01*
X184677508Y-81923047D01*
X184260000Y-81840000D01*
X176351000Y-81840000D01*
X176351000Y-76924288D01*
X177831478Y-76924288D01*
X178289669Y-78033195D01*
X179137343Y-78882350D01*
X180245449Y-79342475D01*
X181445288Y-79343522D01*
X182554195Y-78885331D01*
X183403350Y-78037657D01*
X183809234Y-77060178D01*
X189431847Y-77060178D01*
X189711886Y-77747672D01*
X189724332Y-77766299D01*
X190090258Y-77819940D01*
X191210197Y-76700000D01*
X191389803Y-76700000D01*
X192509742Y-77819940D01*
X192875668Y-77766299D01*
X193050433Y-77351306D01*
X193211886Y-77747672D01*
X193224332Y-77766299D01*
X193590258Y-77819940D01*
X194710197Y-76700000D01*
X194889803Y-76700000D01*
X196009742Y-77819940D01*
X196375668Y-77766299D01*
X196663782Y-77082150D01*
X196668153Y-76339822D01*
X196388114Y-75652328D01*
X196375668Y-75633701D01*
X196009742Y-75580060D01*
X194889803Y-76700000D01*
X194710197Y-76700000D01*
X193590258Y-75580060D01*
X193224332Y-75633701D01*
X193049567Y-76048694D01*
X192888114Y-75652328D01*
X192875668Y-75633701D01*
X192509742Y-75580060D01*
X191389803Y-76700000D01*
X191210197Y-76700000D01*
X190090258Y-75580060D01*
X189724332Y-75633701D01*
X189436218Y-76317850D01*
X189431847Y-77060178D01*
X183809234Y-77060178D01*
X183863475Y-76929551D01*
X183864522Y-75729712D01*
X183765582Y-75490258D01*
X190180060Y-75490258D01*
X191300000Y-76610197D01*
X192419940Y-75490258D01*
X193680060Y-75490258D01*
X194800000Y-76610197D01*
X195919940Y-75490258D01*
X195866299Y-75124332D01*
X195182150Y-74836218D01*
X194439822Y-74831847D01*
X193752328Y-75111886D01*
X193733701Y-75124332D01*
X193680060Y-75490258D01*
X192419940Y-75490258D01*
X192366299Y-75124332D01*
X191682150Y-74836218D01*
X190939822Y-74831847D01*
X190252328Y-75111886D01*
X190233701Y-75124332D01*
X190180060Y-75490258D01*
X183765582Y-75490258D01*
X183406331Y-74620805D01*
X182558657Y-73771650D01*
X181450551Y-73311525D01*
X180250712Y-73310478D01*
X179141805Y-73768669D01*
X178292650Y-74616343D01*
X177832525Y-75724449D01*
X177831478Y-76924288D01*
X176351000Y-76924288D01*
X176351000Y-71774904D01*
X180721000Y-71774904D01*
X180860753Y-71748607D01*
X181429073Y-72316927D01*
G36*
X251169000Y-27931000D02*
X251206000Y-28117013D01*
X251206000Y-28448000D01*
X251226012Y-28546820D01*
X251282893Y-28630069D01*
X251367682Y-28684629D01*
X251460000Y-28702000D01*
X251488244Y-28702000D01*
X251488547Y-28702453D01*
X251842492Y-28938953D01*
X252260000Y-29022000D01*
X260169000Y-29022000D01*
X260169000Y-53619905D01*
X259517654Y-53349442D01*
X258506781Y-53348560D01*
X257572520Y-53734589D01*
X256857101Y-54448760D01*
X256469442Y-55382346D01*
X256468560Y-56393219D01*
X256854589Y-57327480D01*
X257568760Y-58042899D01*
X258502346Y-58430558D01*
X259513219Y-58431440D01*
X260169000Y-58160477D01*
X260169000Y-63779905D01*
X259517654Y-63509442D01*
X258506781Y-63508560D01*
X257572520Y-63894589D01*
X256857101Y-64608760D01*
X256469442Y-65542346D01*
X256468560Y-66553219D01*
X256854589Y-67487480D01*
X257568760Y-68202899D01*
X258502346Y-68590558D01*
X259513219Y-68591440D01*
X260169000Y-68320477D01*
X260169000Y-81840000D01*
X252260000Y-81840000D01*
X251842492Y-81923047D01*
X251664467Y-82042000D01*
X251460000Y-82042000D01*
X251361180Y-82062012D01*
X251277931Y-82118893D01*
X251223371Y-82203682D01*
X251206000Y-82296000D01*
X251206000Y-82744987D01*
X251169000Y-82931000D01*
X251169000Y-89340000D01*
X239373669Y-89340000D01*
X239642899Y-89071240D01*
X240030558Y-88137654D01*
X240031440Y-87126781D01*
X239645411Y-86192520D01*
X238931240Y-85477101D01*
X237997654Y-85089442D01*
X236986781Y-85088560D01*
X236052520Y-85474589D01*
X235337101Y-86188760D01*
X234949442Y-87122346D01*
X234948560Y-88133219D01*
X235334589Y-89067480D01*
X235606634Y-89340000D01*
X230483669Y-89340000D01*
X230752899Y-89071240D01*
X231140558Y-88137654D01*
X231141440Y-87126781D01*
X230755411Y-86192520D01*
X230041240Y-85477101D01*
X229107654Y-85089442D01*
X228096781Y-85088560D01*
X227162520Y-85474589D01*
X226447101Y-86188760D01*
X226059442Y-87122346D01*
X226058560Y-88133219D01*
X226444589Y-89067480D01*
X226716634Y-89340000D01*
X221593669Y-89340000D01*
X221862899Y-89071240D01*
X222250558Y-88137654D01*
X222251440Y-87126781D01*
X221865411Y-86192520D01*
X221151240Y-85477101D01*
X220217654Y-85089442D01*
X219206781Y-85088560D01*
X218272520Y-85474589D01*
X217557101Y-86188760D01*
X217169442Y-87122346D01*
X217168560Y-88133219D01*
X217554589Y-89067480D01*
X217826634Y-89340000D01*
X212633547Y-89340000D01*
X212972899Y-89001240D01*
X213360558Y-88067654D01*
X213361440Y-87056781D01*
X212975411Y-86122520D01*
X212832141Y-85979000D01*
X216842000Y-85979000D01*
X217473811Y-85853325D01*
X218009433Y-85495433D01*
X222008253Y-81496613D01*
X222525623Y-81282840D01*
X222843582Y-80965436D01*
X224863073Y-82984927D01*
X225295691Y-83273993D01*
X225806000Y-83375500D01*
X228018000Y-83375500D01*
X228528308Y-83273993D01*
X228960927Y-82984927D01*
X230379836Y-81566018D01*
X230729542Y-81566323D01*
X231415623Y-81282840D01*
X231940995Y-80758384D01*
X232209320Y-80112186D01*
X232964567Y-80867433D01*
X233500189Y-81225325D01*
X233605013Y-81246176D01*
X234132000Y-81351000D01*
X234860207Y-81351000D01*
X235377201Y-81565675D01*
X236119542Y-81566323D01*
X236805623Y-81282840D01*
X237330995Y-80758384D01*
X237500064Y-80351220D01*
X237667160Y-80755623D01*
X238191616Y-81280995D01*
X238877201Y-81565675D01*
X239619542Y-81566323D01*
X240305623Y-81282840D01*
X240830995Y-80758384D01*
X241115675Y-80072799D01*
X241116323Y-79330458D01*
X240832840Y-78644377D01*
X240388923Y-78199685D01*
X240830995Y-77758384D01*
X241115675Y-77072799D01*
X241115804Y-76924288D01*
X243871478Y-76924288D01*
X244329669Y-78033195D01*
X245177343Y-78882350D01*
X246285449Y-79342475D01*
X247485288Y-79343522D01*
X248594195Y-78885331D01*
X249443350Y-78037657D01*
X249903475Y-76929551D01*
X249904522Y-75729712D01*
X249446331Y-74620805D01*
X248598657Y-73771650D01*
X247490551Y-73311525D01*
X246290712Y-73310478D01*
X245181805Y-73768669D01*
X244332650Y-74616343D01*
X243872525Y-75724449D01*
X243871478Y-76924288D01*
X241115804Y-76924288D01*
X241116323Y-76330458D01*
X240832840Y-75644377D01*
X240308384Y-75119005D01*
X239622799Y-74834325D01*
X238880458Y-74833677D01*
X238194377Y-75117160D01*
X237669005Y-75641616D01*
X237499767Y-76049186D01*
X237338114Y-75652328D01*
X237325668Y-75633701D01*
X236959742Y-75580060D01*
X235839803Y-76700000D01*
X236959742Y-77819940D01*
X237325668Y-77766299D01*
X237500265Y-77351706D01*
X237667160Y-77755623D01*
X238111077Y-78200315D01*
X237669005Y-78641616D01*
X237499936Y-79048780D01*
X237332840Y-78644377D01*
X236835310Y-78145978D01*
X236869940Y-77909742D01*
X235750000Y-76789803D01*
X235735858Y-76803945D01*
X235646055Y-76714142D01*
X235660197Y-76700000D01*
X235646055Y-76685858D01*
X235735858Y-76596055D01*
X235750000Y-76610197D01*
X236869940Y-75490258D01*
X236816299Y-75124332D01*
X236132150Y-74836218D01*
X235389822Y-74831847D01*
X234702328Y-75111886D01*
X234683701Y-75124332D01*
X234630060Y-75490255D01*
X234569000Y-75429195D01*
X234569000Y-70358000D01*
X234443325Y-69726190D01*
X234443325Y-69726189D01*
X234085433Y-69190566D01*
X229554409Y-64659542D01*
X249313677Y-64659542D01*
X249597160Y-65345623D01*
X250121616Y-65870995D01*
X250528780Y-66040064D01*
X250124377Y-66207160D01*
X249599005Y-66731616D01*
X249314325Y-67417201D01*
X249313677Y-68159542D01*
X249597160Y-68845623D01*
X250121616Y-69370995D01*
X250807201Y-69655675D01*
X251549542Y-69656323D01*
X252235623Y-69372840D01*
X252760995Y-68848384D01*
X253045675Y-68162799D01*
X253046323Y-67420458D01*
X252762840Y-66734377D01*
X252238384Y-66209005D01*
X251831220Y-66039936D01*
X252235623Y-65872840D01*
X252760995Y-65348384D01*
X253045675Y-64662799D01*
X253046323Y-63920458D01*
X252762840Y-63234377D01*
X252238384Y-62709005D01*
X251552799Y-62424325D01*
X250810458Y-62423677D01*
X250124377Y-62707160D01*
X249599005Y-63231616D01*
X249314325Y-63917201D01*
X249313677Y-64659542D01*
X229554409Y-64659542D01*
X219394409Y-54499542D01*
X249313677Y-54499542D01*
X249597160Y-55185623D01*
X250121616Y-55710995D01*
X250528780Y-55880064D01*
X250124377Y-56047160D01*
X249599005Y-56571616D01*
X249314325Y-57257201D01*
X249313677Y-57999542D01*
X249597160Y-58685623D01*
X250121616Y-59210995D01*
X250807201Y-59495675D01*
X251549542Y-59496323D01*
X252235623Y-59212840D01*
X252760995Y-58688384D01*
X253045675Y-58002799D01*
X253046323Y-57260458D01*
X252762840Y-56574377D01*
X252238384Y-56049005D01*
X251831220Y-55879936D01*
X252235623Y-55712840D01*
X252760995Y-55188384D01*
X253045675Y-54502799D01*
X253046323Y-53760458D01*
X252762840Y-53074377D01*
X252238384Y-52549005D01*
X251552799Y-52264325D01*
X250810458Y-52263677D01*
X250124377Y-52547160D01*
X249599005Y-53071616D01*
X249314325Y-53757201D01*
X249313677Y-54499542D01*
X219394409Y-54499542D01*
X203605433Y-38710567D01*
X203069811Y-38352675D01*
X202438000Y-38227000D01*
X181219579Y-38227000D01*
X181124025Y-38161711D01*
X180721000Y-38080096D01*
X176351000Y-38080096D01*
X176351000Y-35014288D01*
X177831478Y-35014288D01*
X178289669Y-36123195D01*
X179137343Y-36972350D01*
X180245449Y-37432475D01*
X181445288Y-37433522D01*
X182554195Y-36975331D01*
X183403350Y-36127657D01*
X183863475Y-35019551D01*
X183863479Y-35014288D01*
X243871478Y-35014288D01*
X244329669Y-36123195D01*
X245177343Y-36972350D01*
X246285449Y-37432475D01*
X247485288Y-37433522D01*
X248594195Y-36975331D01*
X249443350Y-36127657D01*
X249903475Y-35019551D01*
X249904522Y-33819712D01*
X249446331Y-32710805D01*
X248598657Y-31861650D01*
X247490551Y-31401525D01*
X246290712Y-31400478D01*
X245181805Y-31858669D01*
X244332650Y-32706343D01*
X243872525Y-33814449D01*
X243871478Y-35014288D01*
X183863479Y-35014288D01*
X183864522Y-33819712D01*
X183406331Y-32710805D01*
X182558657Y-31861650D01*
X181450551Y-31401525D01*
X180250712Y-31400478D01*
X179141805Y-31858669D01*
X178292650Y-32706343D01*
X177832525Y-33814449D01*
X177831478Y-35014288D01*
X176351000Y-35014288D01*
X176351000Y-29022000D01*
X184260000Y-29022000D01*
X184677508Y-28938953D01*
X185031453Y-28702453D01*
X185267953Y-28348508D01*
X185351000Y-27931000D01*
X185351000Y-21522000D01*
X251169000Y-21522000D01*
X251169000Y-27931000D01*
X251169000Y-27931000D01*
G37*
X251169000Y-27931000D02*
X251206000Y-28117013D01*
X251206000Y-28448000D01*
X251226012Y-28546820D01*
X251282893Y-28630069D01*
X251367682Y-28684629D01*
X251460000Y-28702000D01*
X251488244Y-28702000D01*
X251488547Y-28702453D01*
X251842492Y-28938953D01*
X252260000Y-29022000D01*
X260169000Y-29022000D01*
X260169000Y-53619905D01*
X259517654Y-53349442D01*
X258506781Y-53348560D01*
X257572520Y-53734589D01*
X256857101Y-54448760D01*
X256469442Y-55382346D01*
X256468560Y-56393219D01*
X256854589Y-57327480D01*
X257568760Y-58042899D01*
X258502346Y-58430558D01*
X259513219Y-58431440D01*
X260169000Y-58160477D01*
X260169000Y-63779905D01*
X259517654Y-63509442D01*
X258506781Y-63508560D01*
X257572520Y-63894589D01*
X256857101Y-64608760D01*
X256469442Y-65542346D01*
X256468560Y-66553219D01*
X256854589Y-67487480D01*
X257568760Y-68202899D01*
X258502346Y-68590558D01*
X259513219Y-68591440D01*
X260169000Y-68320477D01*
X260169000Y-81840000D01*
X252260000Y-81840000D01*
X251842492Y-81923047D01*
X251664467Y-82042000D01*
X251460000Y-82042000D01*
X251361180Y-82062012D01*
X251277931Y-82118893D01*
X251223371Y-82203682D01*
X251206000Y-82296000D01*
X251206000Y-82744987D01*
X251169000Y-82931000D01*
X251169000Y-89340000D01*
X239373669Y-89340000D01*
X239642899Y-89071240D01*
X240030558Y-88137654D01*
X240031440Y-87126781D01*
X239645411Y-86192520D01*
X238931240Y-85477101D01*
X237997654Y-85089442D01*
X236986781Y-85088560D01*
X236052520Y-85474589D01*
X235337101Y-86188760D01*
X234949442Y-87122346D01*
X234948560Y-88133219D01*
X235334589Y-89067480D01*
X235606634Y-89340000D01*
X230483669Y-89340000D01*
X230752899Y-89071240D01*
X231140558Y-88137654D01*
X231141440Y-87126781D01*
X230755411Y-86192520D01*
X230041240Y-85477101D01*
X229107654Y-85089442D01*
X228096781Y-85088560D01*
X227162520Y-85474589D01*
X226447101Y-86188760D01*
X226059442Y-87122346D01*
X226058560Y-88133219D01*
X226444589Y-89067480D01*
X226716634Y-89340000D01*
X221593669Y-89340000D01*
X221862899Y-89071240D01*
X222250558Y-88137654D01*
X222251440Y-87126781D01*
X221865411Y-86192520D01*
X221151240Y-85477101D01*
X220217654Y-85089442D01*
X219206781Y-85088560D01*
X218272520Y-85474589D01*
X217557101Y-86188760D01*
X217169442Y-87122346D01*
X217168560Y-88133219D01*
X217554589Y-89067480D01*
X217826634Y-89340000D01*
X212633547Y-89340000D01*
X212972899Y-89001240D01*
X213360558Y-88067654D01*
X213361440Y-87056781D01*
X212975411Y-86122520D01*
X212832141Y-85979000D01*
X216842000Y-85979000D01*
X217473811Y-85853325D01*
X218009433Y-85495433D01*
X222008253Y-81496613D01*
X222525623Y-81282840D01*
X222843582Y-80965436D01*
X224863073Y-82984927D01*
X225295691Y-83273993D01*
X225806000Y-83375500D01*
X228018000Y-83375500D01*
X228528308Y-83273993D01*
X228960927Y-82984927D01*
X230379836Y-81566018D01*
X230729542Y-81566323D01*
X231415623Y-81282840D01*
X231940995Y-80758384D01*
X232209320Y-80112186D01*
X232964567Y-80867433D01*
X233500189Y-81225325D01*
X233605013Y-81246176D01*
X234132000Y-81351000D01*
X234860207Y-81351000D01*
X235377201Y-81565675D01*
X236119542Y-81566323D01*
X236805623Y-81282840D01*
X237330995Y-80758384D01*
X237500064Y-80351220D01*
X237667160Y-80755623D01*
X238191616Y-81280995D01*
X238877201Y-81565675D01*
X239619542Y-81566323D01*
X240305623Y-81282840D01*
X240830995Y-80758384D01*
X241115675Y-80072799D01*
X241116323Y-79330458D01*
X240832840Y-78644377D01*
X240388923Y-78199685D01*
X240830995Y-77758384D01*
X241115675Y-77072799D01*
X241115804Y-76924288D01*
X243871478Y-76924288D01*
X244329669Y-78033195D01*
X245177343Y-78882350D01*
X246285449Y-79342475D01*
X247485288Y-79343522D01*
X248594195Y-78885331D01*
X249443350Y-78037657D01*
X249903475Y-76929551D01*
X249904522Y-75729712D01*
X249446331Y-74620805D01*
X248598657Y-73771650D01*
X247490551Y-73311525D01*
X246290712Y-73310478D01*
X245181805Y-73768669D01*
X244332650Y-74616343D01*
X243872525Y-75724449D01*
X243871478Y-76924288D01*
X241115804Y-76924288D01*
X241116323Y-76330458D01*
X240832840Y-75644377D01*
X240308384Y-75119005D01*
X239622799Y-74834325D01*
X238880458Y-74833677D01*
X238194377Y-75117160D01*
X237669005Y-75641616D01*
X237499767Y-76049186D01*
X237338114Y-75652328D01*
X237325668Y-75633701D01*
X236959742Y-75580060D01*
X235839803Y-76700000D01*
X236959742Y-77819940D01*
X237325668Y-77766299D01*
X237500265Y-77351706D01*
X237667160Y-77755623D01*
X238111077Y-78200315D01*
X237669005Y-78641616D01*
X237499936Y-79048780D01*
X237332840Y-78644377D01*
X236835310Y-78145978D01*
X236869940Y-77909742D01*
X235750000Y-76789803D01*
X235735858Y-76803945D01*
X235646055Y-76714142D01*
X235660197Y-76700000D01*
X235646055Y-76685858D01*
X235735858Y-76596055D01*
X235750000Y-76610197D01*
X236869940Y-75490258D01*
X236816299Y-75124332D01*
X236132150Y-74836218D01*
X235389822Y-74831847D01*
X234702328Y-75111886D01*
X234683701Y-75124332D01*
X234630060Y-75490255D01*
X234569000Y-75429195D01*
X234569000Y-70358000D01*
X234443325Y-69726190D01*
X234443325Y-69726189D01*
X234085433Y-69190566D01*
X229554409Y-64659542D01*
X249313677Y-64659542D01*
X249597160Y-65345623D01*
X250121616Y-65870995D01*
X250528780Y-66040064D01*
X250124377Y-66207160D01*
X249599005Y-66731616D01*
X249314325Y-67417201D01*
X249313677Y-68159542D01*
X249597160Y-68845623D01*
X250121616Y-69370995D01*
X250807201Y-69655675D01*
X251549542Y-69656323D01*
X252235623Y-69372840D01*
X252760995Y-68848384D01*
X253045675Y-68162799D01*
X253046323Y-67420458D01*
X252762840Y-66734377D01*
X252238384Y-66209005D01*
X251831220Y-66039936D01*
X252235623Y-65872840D01*
X252760995Y-65348384D01*
X253045675Y-64662799D01*
X253046323Y-63920458D01*
X252762840Y-63234377D01*
X252238384Y-62709005D01*
X251552799Y-62424325D01*
X250810458Y-62423677D01*
X250124377Y-62707160D01*
X249599005Y-63231616D01*
X249314325Y-63917201D01*
X249313677Y-64659542D01*
X229554409Y-64659542D01*
X219394409Y-54499542D01*
X249313677Y-54499542D01*
X249597160Y-55185623D01*
X250121616Y-55710995D01*
X250528780Y-55880064D01*
X250124377Y-56047160D01*
X249599005Y-56571616D01*
X249314325Y-57257201D01*
X249313677Y-57999542D01*
X249597160Y-58685623D01*
X250121616Y-59210995D01*
X250807201Y-59495675D01*
X251549542Y-59496323D01*
X252235623Y-59212840D01*
X252760995Y-58688384D01*
X253045675Y-58002799D01*
X253046323Y-57260458D01*
X252762840Y-56574377D01*
X252238384Y-56049005D01*
X251831220Y-55879936D01*
X252235623Y-55712840D01*
X252760995Y-55188384D01*
X253045675Y-54502799D01*
X253046323Y-53760458D01*
X252762840Y-53074377D01*
X252238384Y-52549005D01*
X251552799Y-52264325D01*
X250810458Y-52263677D01*
X250124377Y-52547160D01*
X249599005Y-53071616D01*
X249314325Y-53757201D01*
X249313677Y-54499542D01*
X219394409Y-54499542D01*
X203605433Y-38710567D01*
X203069811Y-38352675D01*
X202438000Y-38227000D01*
X181219579Y-38227000D01*
X181124025Y-38161711D01*
X180721000Y-38080096D01*
X176351000Y-38080096D01*
X176351000Y-35014288D01*
X177831478Y-35014288D01*
X178289669Y-36123195D01*
X179137343Y-36972350D01*
X180245449Y-37432475D01*
X181445288Y-37433522D01*
X182554195Y-36975331D01*
X183403350Y-36127657D01*
X183863475Y-35019551D01*
X183863479Y-35014288D01*
X243871478Y-35014288D01*
X244329669Y-36123195D01*
X245177343Y-36972350D01*
X246285449Y-37432475D01*
X247485288Y-37433522D01*
X248594195Y-36975331D01*
X249443350Y-36127657D01*
X249903475Y-35019551D01*
X249904522Y-33819712D01*
X249446331Y-32710805D01*
X248598657Y-31861650D01*
X247490551Y-31401525D01*
X246290712Y-31400478D01*
X245181805Y-31858669D01*
X244332650Y-32706343D01*
X243872525Y-33814449D01*
X243871478Y-35014288D01*
X183863479Y-35014288D01*
X183864522Y-33819712D01*
X183406331Y-32710805D01*
X182558657Y-31861650D01*
X181450551Y-31401525D01*
X180250712Y-31400478D01*
X179141805Y-31858669D01*
X178292650Y-32706343D01*
X177832525Y-33814449D01*
X177831478Y-35014288D01*
X176351000Y-35014288D01*
X176351000Y-29022000D01*
X184260000Y-29022000D01*
X184677508Y-28938953D01*
X185031453Y-28702453D01*
X185267953Y-28348508D01*
X185351000Y-27931000D01*
X185351000Y-21522000D01*
X251169000Y-21522000D01*
X251169000Y-27931000D01*
G36*
X216106218Y-76317850D02*
X216101847Y-77060178D01*
X216381886Y-77747672D01*
X216394332Y-77766299D01*
X216760258Y-77819940D01*
X217880197Y-76700000D01*
X217866055Y-76685858D01*
X217955858Y-76596055D01*
X217970000Y-76610197D01*
X217984142Y-76596055D01*
X218073945Y-76685858D01*
X218059803Y-76700000D01*
X219179742Y-77819940D01*
X219545668Y-77766299D01*
X219720433Y-77351306D01*
X219881886Y-77747672D01*
X219894332Y-77766299D01*
X220260258Y-77819940D01*
X221380197Y-76700000D01*
X221366055Y-76685858D01*
X221455858Y-76596055D01*
X221470000Y-76610197D01*
X221484142Y-76596055D01*
X221573945Y-76685858D01*
X221559803Y-76700000D01*
X221573945Y-76714142D01*
X221484142Y-76803945D01*
X221470000Y-76789803D01*
X220350060Y-77909742D01*
X220384794Y-78146691D01*
X219889005Y-78641616D01*
X219719936Y-79048780D01*
X219552840Y-78644377D01*
X219055310Y-78145978D01*
X219089940Y-77909742D01*
X217970000Y-76789803D01*
X216850060Y-77909742D01*
X216884794Y-78146691D01*
X216389005Y-78641616D01*
X216172772Y-79162362D01*
X214944134Y-80391000D01*
X214326003Y-80391000D01*
X214445675Y-80102799D01*
X214446323Y-79360458D01*
X214231000Y-78839337D01*
X214231000Y-75755500D01*
X216343039Y-75755500D01*
X216106218Y-76317850D01*
X216106218Y-76317850D01*
G37*
X216106218Y-76317850D02*
X216101847Y-77060178D01*
X216381886Y-77747672D01*
X216394332Y-77766299D01*
X216760258Y-77819940D01*
X217880197Y-76700000D01*
X217866055Y-76685858D01*
X217955858Y-76596055D01*
X217970000Y-76610197D01*
X217984142Y-76596055D01*
X218073945Y-76685858D01*
X218059803Y-76700000D01*
X219179742Y-77819940D01*
X219545668Y-77766299D01*
X219720433Y-77351306D01*
X219881886Y-77747672D01*
X219894332Y-77766299D01*
X220260258Y-77819940D01*
X221380197Y-76700000D01*
X221366055Y-76685858D01*
X221455858Y-76596055D01*
X221470000Y-76610197D01*
X221484142Y-76596055D01*
X221573945Y-76685858D01*
X221559803Y-76700000D01*
X221573945Y-76714142D01*
X221484142Y-76803945D01*
X221470000Y-76789803D01*
X220350060Y-77909742D01*
X220384794Y-78146691D01*
X219889005Y-78641616D01*
X219719936Y-79048780D01*
X219552840Y-78644377D01*
X219055310Y-78145978D01*
X219089940Y-77909742D01*
X217970000Y-76789803D01*
X216850060Y-77909742D01*
X216884794Y-78146691D01*
X216389005Y-78641616D01*
X216172772Y-79162362D01*
X214944134Y-80391000D01*
X214326003Y-80391000D01*
X214445675Y-80102799D01*
X214446323Y-79360458D01*
X214231000Y-78839337D01*
X214231000Y-75755500D01*
X216343039Y-75755500D01*
X216106218Y-76317850D01*
G36*
X210929000Y-76103867D02*
X210929000Y-78840207D01*
X210829767Y-79079186D01*
X210668114Y-78682328D01*
X210655668Y-78663701D01*
X210289742Y-78610060D01*
X209169803Y-79730000D01*
X209183945Y-79744142D01*
X209094142Y-79833945D01*
X209080000Y-79819803D01*
X209065858Y-79833945D01*
X208976055Y-79744142D01*
X208990197Y-79730000D01*
X208976055Y-79715858D01*
X209065858Y-79626055D01*
X209080000Y-79640197D01*
X210199940Y-78520258D01*
X210146299Y-78154332D01*
X209462150Y-77866218D01*
X208719822Y-77861847D01*
X208032328Y-78141886D01*
X208013701Y-78154332D01*
X207960060Y-78520255D01*
X207899000Y-78459195D01*
X207899000Y-73073867D01*
X210929000Y-76103867D01*
X210929000Y-76103867D01*
G37*
X210929000Y-76103867D02*
X210929000Y-78840207D01*
X210829767Y-79079186D01*
X210668114Y-78682328D01*
X210655668Y-78663701D01*
X210289742Y-78610060D01*
X209169803Y-79730000D01*
X209183945Y-79744142D01*
X209094142Y-79833945D01*
X209080000Y-79819803D01*
X209065858Y-79833945D01*
X208976055Y-79744142D01*
X208990197Y-79730000D01*
X208976055Y-79715858D01*
X209065858Y-79626055D01*
X209080000Y-79640197D01*
X210199940Y-78520258D01*
X210146299Y-78154332D01*
X209462150Y-77866218D01*
X208719822Y-77861847D01*
X208032328Y-78141886D01*
X208013701Y-78154332D01*
X207960060Y-78520255D01*
X207899000Y-78459195D01*
X207899000Y-73073867D01*
X210929000Y-76103867D01*
M02*
