G04 #@! TF.FileFunction,Copper,L1,Top,Signal*
%FSLAX46Y46*%
G04 Gerber Fmt 4.6, Leading zero omitted, Abs format (unit mm)*
G04 Created by KiCad (PCBNEW 4.0.5+dfsg1-4) date Mon Mar  6 16:22:21 2017*
%MOMM*%
%LPD*%
G01*
G04 APERTURE LIST*
%ADD10C,0.090000*%
%ADD11R,5.080000X1.524000*%
%ADD12R,3.200400X1.206500*%
%ADD13R,5.299964X1.700022*%
%ADD14C,1.700000*%
%ADD15C,1.320800*%
%ADD16C,0.762000*%
%ADD17C,1.270000*%
%ADD18C,0.635000*%
%ADD19C,0.381000*%
G04 APERTURE END LIST*
D10*
D11*
X178181000Y-71374000D03*
X178181000Y-68580000D03*
X178181000Y-65913000D03*
X178181000Y-63119000D03*
X178181000Y-60452000D03*
X178181000Y-57658000D03*
X178181000Y-54864000D03*
X178181000Y-52197000D03*
X178181000Y-49403000D03*
X178181000Y-46736000D03*
X178181000Y-43942000D03*
X178181000Y-41148000D03*
X178181000Y-38481000D03*
D12*
X251894340Y-46829980D03*
X251894340Y-44829984D03*
X251894340Y-42829988D03*
X251894340Y-40829992D03*
D13*
X258064000Y-49530000D03*
X258064000Y-38129972D03*
D14*
X194800000Y-76700000D03*
X191300000Y-79700000D03*
X194800000Y-79700000D03*
X191300000Y-76700000D03*
X239250000Y-76700000D03*
X235750000Y-79700000D03*
X239250000Y-79700000D03*
X235750000Y-76700000D03*
X209080000Y-79730000D03*
X212580000Y-79730000D03*
X200180000Y-79730000D03*
X203680000Y-79730000D03*
X230360000Y-76700000D03*
X226860000Y-79700000D03*
X230360000Y-79700000D03*
X226860000Y-76700000D03*
X221470000Y-76700000D03*
X217970000Y-79700000D03*
X221470000Y-79700000D03*
X217970000Y-76700000D03*
X251180000Y-67790000D03*
X251180000Y-64290000D03*
X251180000Y-57630000D03*
X251180000Y-54130000D03*
D15*
X198882000Y-61722000D03*
X194056000Y-49022000D03*
D16*
X201422000Y-45211996D03*
X197866000Y-47498000D03*
X183134000Y-69595990D03*
X203708000Y-72898000D03*
X207010000Y-56388000D03*
X210292626Y-55489490D03*
X199390000Y-71374000D03*
X200913992Y-61722000D03*
D17*
X191300000Y-76700000D02*
X193040000Y-76700000D01*
X193040000Y-76700000D02*
X194800000Y-76700000D01*
D18*
X194564000Y-82042000D02*
X193040000Y-80518000D01*
X193040000Y-80518000D02*
X193040000Y-76700000D01*
X196665919Y-82042000D02*
X194564000Y-82042000D01*
X200180000Y-79730000D02*
X198977919Y-79730000D01*
X198977919Y-79730000D02*
X196665919Y-82042000D01*
X251894340Y-46829980D02*
X254160020Y-46829980D01*
X254160020Y-46829980D02*
X255016000Y-45974000D01*
X253619000Y-38481000D02*
X178181000Y-38481000D01*
X255016000Y-45974000D02*
X255016000Y-39878000D01*
X255016000Y-39878000D02*
X253619000Y-38481000D01*
D17*
X235750000Y-76700000D02*
X239552000Y-72898000D01*
X239552000Y-72898000D02*
X254000000Y-72898000D01*
X254000000Y-72898000D02*
X255778000Y-71120000D01*
X255778000Y-71120000D02*
X255778000Y-53848000D01*
X255778000Y-53848000D02*
X251894340Y-49964340D01*
X251894340Y-49964340D02*
X251894340Y-46829980D01*
X200180000Y-79730000D02*
X201029999Y-80579999D01*
X201029999Y-80579999D02*
X201029999Y-81395999D01*
X201029999Y-81395999D02*
X201930000Y-82296000D01*
X201930000Y-82296000D02*
X208788000Y-82296000D01*
X208788000Y-82296000D02*
X209080000Y-82004000D01*
X209080000Y-82004000D02*
X209080000Y-79730000D01*
X209080000Y-79730000D02*
X209042000Y-79768000D01*
X209042000Y-79768000D02*
X209042000Y-82296000D01*
X209042000Y-82296000D02*
X226060000Y-82296000D01*
X226060000Y-82296000D02*
X224282000Y-82296000D01*
X224282000Y-82296000D02*
X224282000Y-77724000D01*
X224282000Y-77724000D02*
X223258000Y-76700000D01*
X223258000Y-76700000D02*
X221470000Y-76700000D01*
X186055000Y-65913000D02*
X187176081Y-67034081D01*
X187176081Y-67034081D02*
X187176081Y-71374000D01*
X178181000Y-65913000D02*
X186055000Y-65913000D01*
X191300000Y-76700000D02*
X191300000Y-75497919D01*
X191300000Y-75497919D02*
X187176081Y-71374000D01*
X187176081Y-71374000D02*
X181991000Y-71374000D01*
X181991000Y-71374000D02*
X178181000Y-71374000D01*
X231394000Y-82296000D02*
X226060000Y-82296000D01*
X233426000Y-80264000D02*
X231394000Y-82296000D01*
X233426000Y-77821919D02*
X233426000Y-80264000D01*
X235750000Y-76700000D02*
X234547919Y-76700000D01*
X234547919Y-76700000D02*
X233426000Y-77821919D01*
X217970000Y-76700000D02*
X221470000Y-76700000D01*
X194800000Y-79700000D02*
X194998000Y-79502000D01*
X194998000Y-79502000D02*
X196088000Y-79502000D01*
X196088000Y-79502000D02*
X196850000Y-78740000D01*
X196850000Y-78740000D02*
X196850000Y-65024000D01*
X196850000Y-65024000D02*
X189484000Y-57658000D01*
X189484000Y-57658000D02*
X178181000Y-57658000D01*
X194056000Y-49022000D02*
X198882000Y-53848000D01*
X198882000Y-53848000D02*
X198882000Y-61722000D01*
D18*
X251894340Y-42829988D02*
X249585988Y-42829988D01*
X249585988Y-42829988D02*
X247904000Y-41148000D01*
X247904000Y-41148000D02*
X181356000Y-41148000D01*
X181356000Y-41148000D02*
X178181000Y-41148000D01*
D17*
X203680000Y-79730000D02*
X201676000Y-77726000D01*
X201676000Y-77726000D02*
X201676000Y-72390000D01*
X201676000Y-72390000D02*
X203680000Y-70386000D01*
X197104000Y-43942000D02*
X181991000Y-43942000D01*
X203680000Y-70386000D02*
X203680000Y-50518000D01*
X203680000Y-50518000D02*
X197104000Y-43942000D01*
X181991000Y-43942000D02*
X178181000Y-43942000D01*
D18*
X251894340Y-44829984D02*
X251514356Y-44450000D01*
X249428000Y-44450000D02*
X247650000Y-42672000D01*
X201802999Y-44830997D02*
X201422000Y-45211996D01*
X251514356Y-44450000D02*
X249428000Y-44450000D01*
X247650000Y-42672000D02*
X202438000Y-42672000D01*
X202438000Y-42672000D02*
X201802999Y-43307001D01*
X201802999Y-43307001D02*
X201802999Y-44830997D01*
X197866000Y-47498000D02*
X196596000Y-46228000D01*
X196596000Y-46228000D02*
X178689000Y-46228000D01*
X178689000Y-46228000D02*
X178181000Y-46736000D01*
D17*
X251180000Y-64290000D02*
X253464000Y-64290000D01*
X253464000Y-64290000D02*
X253746000Y-64008000D01*
X253746000Y-64008000D02*
X253746000Y-55118000D01*
X253746000Y-55118000D02*
X252758000Y-54130000D01*
X252758000Y-54130000D02*
X251180000Y-54130000D01*
X251180000Y-64290000D02*
X253520000Y-64290000D01*
X253520000Y-64290000D02*
X253746000Y-64516000D01*
X253746000Y-64516000D02*
X253746000Y-69850000D01*
X253746000Y-69850000D02*
X252984000Y-70612000D01*
X252984000Y-70612000D02*
X233934000Y-70612000D01*
X233934000Y-70612000D02*
X230360000Y-74186000D01*
X230360000Y-74186000D02*
X230360000Y-76700000D01*
D18*
X182753001Y-69214991D02*
X183134000Y-69595990D01*
X182118010Y-68580000D02*
X182753001Y-69214991D01*
X178181000Y-68580000D02*
X182118010Y-68580000D01*
X224260081Y-72898000D02*
X203708000Y-72898000D01*
X226860000Y-75497919D02*
X224260081Y-72898000D01*
D17*
X226860000Y-76700000D02*
X230360000Y-76700000D01*
D18*
X226860000Y-76700000D02*
X226860000Y-75497919D01*
X251180000Y-67790000D02*
X251152000Y-67818000D01*
X251152000Y-67818000D02*
X250698000Y-67818000D01*
X250698000Y-67818000D02*
X249428000Y-66548000D01*
X249428000Y-66548000D02*
X249428000Y-59690000D01*
X246634000Y-56896000D02*
X207518000Y-56896000D01*
X249428000Y-59690000D02*
X246634000Y-56896000D01*
X207518000Y-56896000D02*
X207010000Y-56388000D01*
X210831441Y-55489490D02*
X210292626Y-55489490D01*
X249039490Y-55489490D02*
X210831441Y-55489490D01*
X251180000Y-57630000D02*
X249039490Y-55489490D01*
X199770999Y-70993001D02*
X199390000Y-71374000D01*
X200904491Y-69859509D02*
X199770999Y-70993001D01*
X200904491Y-69694196D02*
X200904491Y-69859509D01*
X200913992Y-69684695D02*
X200904491Y-69694196D01*
X200913992Y-61722000D02*
X200913992Y-69684695D01*
X200914000Y-61722000D02*
X200914000Y-69684687D01*
X200914000Y-69684687D02*
X200904491Y-69694196D01*
D17*
X237236000Y-84328000D02*
X239250000Y-82314000D01*
X239250000Y-82314000D02*
X239250000Y-79700000D01*
X193548000Y-84328000D02*
X237236000Y-84328000D01*
X191300000Y-82080000D02*
X193548000Y-84328000D01*
X191300000Y-79700000D02*
X191300000Y-82080000D01*
D19*
G36*
X195262500Y-65681564D02*
X195262500Y-74947565D01*
X195104513Y-74887591D01*
X194387754Y-74909020D01*
X193825088Y-75142084D01*
X193762223Y-75482617D01*
X194800000Y-76520395D01*
X194814143Y-76506253D01*
X194993748Y-76685858D01*
X194979605Y-76700000D01*
X194993748Y-76714143D01*
X194814143Y-76893748D01*
X194800000Y-76879605D01*
X193762223Y-77917383D01*
X193807010Y-78159988D01*
X193780300Y-78171024D01*
X193272806Y-78677633D01*
X193049791Y-79214713D01*
X192828976Y-78680300D01*
X192322367Y-78172806D01*
X192292884Y-78160564D01*
X192337777Y-77917383D01*
X191300000Y-76879605D01*
X190262223Y-77917383D01*
X190307010Y-78159988D01*
X190280300Y-78171024D01*
X189772806Y-78677633D01*
X189497814Y-79339888D01*
X189497188Y-80056966D01*
X189712500Y-80578061D01*
X189712500Y-82080000D01*
X189833341Y-82687510D01*
X190177468Y-83202532D01*
X192250494Y-85275558D01*
X191638442Y-85528453D01*
X190940902Y-86224777D01*
X190562931Y-87135033D01*
X190562071Y-88120643D01*
X190938453Y-89031558D01*
X191309747Y-89403500D01*
X185287500Y-89403500D01*
X185287500Y-82931000D01*
X185209286Y-82537793D01*
X184986552Y-82204448D01*
X184653207Y-81981714D01*
X184260000Y-81903500D01*
X176287500Y-81903500D01*
X176287500Y-76911712D01*
X177894989Y-76911712D01*
X178343533Y-77997272D01*
X179173359Y-78828548D01*
X180258135Y-79278986D01*
X181432712Y-79280011D01*
X182518272Y-78831467D01*
X183349548Y-78001641D01*
X183799986Y-76916865D01*
X183800440Y-76395487D01*
X189487591Y-76395487D01*
X189509020Y-77112246D01*
X189742084Y-77674912D01*
X190082617Y-77737777D01*
X191120395Y-76700000D01*
X191479605Y-76700000D01*
X192517383Y-77737777D01*
X192857916Y-77674912D01*
X193041628Y-77190968D01*
X193242084Y-77674912D01*
X193582617Y-77737777D01*
X194620395Y-76700000D01*
X193582617Y-75662223D01*
X193242084Y-75725088D01*
X193058372Y-76209032D01*
X192857916Y-75725088D01*
X192517383Y-75662223D01*
X191479605Y-76700000D01*
X191120395Y-76700000D01*
X190082617Y-75662223D01*
X189742084Y-75725088D01*
X189487591Y-76395487D01*
X183800440Y-76395487D01*
X183801011Y-75742288D01*
X183693718Y-75482617D01*
X190262223Y-75482617D01*
X191300000Y-76520395D01*
X192337777Y-75482617D01*
X192274912Y-75142084D01*
X191604513Y-74887591D01*
X190887754Y-74909020D01*
X190325088Y-75142084D01*
X190262223Y-75482617D01*
X183693718Y-75482617D01*
X183352467Y-74656728D01*
X182522641Y-73825452D01*
X181437865Y-73375014D01*
X180263288Y-73373989D01*
X179177728Y-73822533D01*
X178346452Y-74652359D01*
X177896014Y-75737135D01*
X177894989Y-76911712D01*
X176287500Y-76911712D01*
X176287500Y-73088500D01*
X177815875Y-73088500D01*
X178054000Y-72850375D01*
X178054000Y-71501000D01*
X178308000Y-71501000D01*
X178308000Y-72850375D01*
X178546125Y-73088500D01*
X180910464Y-73088500D01*
X181260548Y-72943491D01*
X181528490Y-72675548D01*
X181673500Y-72325464D01*
X181673500Y-71739125D01*
X181435375Y-71501000D01*
X178308000Y-71501000D01*
X178054000Y-71501000D01*
X178034000Y-71501000D01*
X178034000Y-71247000D01*
X178054000Y-71247000D01*
X178054000Y-71227000D01*
X178308000Y-71227000D01*
X178308000Y-71247000D01*
X181435375Y-71247000D01*
X181673500Y-71008875D01*
X181673500Y-70422536D01*
X181528490Y-70072452D01*
X181437135Y-69981096D01*
X181526709Y-69850000D01*
X181591958Y-69850000D01*
X181939853Y-70197895D01*
X182002854Y-70350370D01*
X182377647Y-70725817D01*
X182867587Y-70929258D01*
X183398086Y-70929721D01*
X183888380Y-70727136D01*
X184263827Y-70352343D01*
X184467268Y-69862403D01*
X184467731Y-69331904D01*
X184265146Y-68841610D01*
X183890353Y-68466163D01*
X183736226Y-68402164D01*
X183016036Y-67681974D01*
X182604018Y-67406673D01*
X182118010Y-67309999D01*
X182118005Y-67310000D01*
X181525987Y-67310000D01*
X181489595Y-67253444D01*
X181528490Y-67214548D01*
X181673500Y-66864464D01*
X181673500Y-66278125D01*
X181435375Y-66040000D01*
X178308000Y-66040000D01*
X178308000Y-66060000D01*
X178054000Y-66060000D01*
X178054000Y-66040000D01*
X178034000Y-66040000D01*
X178034000Y-65786000D01*
X178054000Y-65786000D01*
X178054000Y-65766000D01*
X178308000Y-65766000D01*
X178308000Y-65786000D01*
X181435375Y-65786000D01*
X181673500Y-65547875D01*
X181673500Y-64961536D01*
X181528490Y-64611452D01*
X181437135Y-64520096D01*
X181615646Y-64258836D01*
X181692160Y-63881000D01*
X181692160Y-62357000D01*
X181625743Y-62004025D01*
X181484251Y-61784139D01*
X181615646Y-61591836D01*
X181692160Y-61214000D01*
X181692160Y-59690000D01*
X181625743Y-59337025D01*
X181566848Y-59245500D01*
X188826436Y-59245500D01*
X195262500Y-65681564D01*
X195262500Y-65681564D01*
G37*
X195262500Y-65681564D02*
X195262500Y-74947565D01*
X195104513Y-74887591D01*
X194387754Y-74909020D01*
X193825088Y-75142084D01*
X193762223Y-75482617D01*
X194800000Y-76520395D01*
X194814143Y-76506253D01*
X194993748Y-76685858D01*
X194979605Y-76700000D01*
X194993748Y-76714143D01*
X194814143Y-76893748D01*
X194800000Y-76879605D01*
X193762223Y-77917383D01*
X193807010Y-78159988D01*
X193780300Y-78171024D01*
X193272806Y-78677633D01*
X193049791Y-79214713D01*
X192828976Y-78680300D01*
X192322367Y-78172806D01*
X192292884Y-78160564D01*
X192337777Y-77917383D01*
X191300000Y-76879605D01*
X190262223Y-77917383D01*
X190307010Y-78159988D01*
X190280300Y-78171024D01*
X189772806Y-78677633D01*
X189497814Y-79339888D01*
X189497188Y-80056966D01*
X189712500Y-80578061D01*
X189712500Y-82080000D01*
X189833341Y-82687510D01*
X190177468Y-83202532D01*
X192250494Y-85275558D01*
X191638442Y-85528453D01*
X190940902Y-86224777D01*
X190562931Y-87135033D01*
X190562071Y-88120643D01*
X190938453Y-89031558D01*
X191309747Y-89403500D01*
X185287500Y-89403500D01*
X185287500Y-82931000D01*
X185209286Y-82537793D01*
X184986552Y-82204448D01*
X184653207Y-81981714D01*
X184260000Y-81903500D01*
X176287500Y-81903500D01*
X176287500Y-76911712D01*
X177894989Y-76911712D01*
X178343533Y-77997272D01*
X179173359Y-78828548D01*
X180258135Y-79278986D01*
X181432712Y-79280011D01*
X182518272Y-78831467D01*
X183349548Y-78001641D01*
X183799986Y-76916865D01*
X183800440Y-76395487D01*
X189487591Y-76395487D01*
X189509020Y-77112246D01*
X189742084Y-77674912D01*
X190082617Y-77737777D01*
X191120395Y-76700000D01*
X191479605Y-76700000D01*
X192517383Y-77737777D01*
X192857916Y-77674912D01*
X193041628Y-77190968D01*
X193242084Y-77674912D01*
X193582617Y-77737777D01*
X194620395Y-76700000D01*
X193582617Y-75662223D01*
X193242084Y-75725088D01*
X193058372Y-76209032D01*
X192857916Y-75725088D01*
X192517383Y-75662223D01*
X191479605Y-76700000D01*
X191120395Y-76700000D01*
X190082617Y-75662223D01*
X189742084Y-75725088D01*
X189487591Y-76395487D01*
X183800440Y-76395487D01*
X183801011Y-75742288D01*
X183693718Y-75482617D01*
X190262223Y-75482617D01*
X191300000Y-76520395D01*
X192337777Y-75482617D01*
X192274912Y-75142084D01*
X191604513Y-74887591D01*
X190887754Y-74909020D01*
X190325088Y-75142084D01*
X190262223Y-75482617D01*
X183693718Y-75482617D01*
X183352467Y-74656728D01*
X182522641Y-73825452D01*
X181437865Y-73375014D01*
X180263288Y-73373989D01*
X179177728Y-73822533D01*
X178346452Y-74652359D01*
X177896014Y-75737135D01*
X177894989Y-76911712D01*
X176287500Y-76911712D01*
X176287500Y-73088500D01*
X177815875Y-73088500D01*
X178054000Y-72850375D01*
X178054000Y-71501000D01*
X178308000Y-71501000D01*
X178308000Y-72850375D01*
X178546125Y-73088500D01*
X180910464Y-73088500D01*
X181260548Y-72943491D01*
X181528490Y-72675548D01*
X181673500Y-72325464D01*
X181673500Y-71739125D01*
X181435375Y-71501000D01*
X178308000Y-71501000D01*
X178054000Y-71501000D01*
X178034000Y-71501000D01*
X178034000Y-71247000D01*
X178054000Y-71247000D01*
X178054000Y-71227000D01*
X178308000Y-71227000D01*
X178308000Y-71247000D01*
X181435375Y-71247000D01*
X181673500Y-71008875D01*
X181673500Y-70422536D01*
X181528490Y-70072452D01*
X181437135Y-69981096D01*
X181526709Y-69850000D01*
X181591958Y-69850000D01*
X181939853Y-70197895D01*
X182002854Y-70350370D01*
X182377647Y-70725817D01*
X182867587Y-70929258D01*
X183398086Y-70929721D01*
X183888380Y-70727136D01*
X184263827Y-70352343D01*
X184467268Y-69862403D01*
X184467731Y-69331904D01*
X184265146Y-68841610D01*
X183890353Y-68466163D01*
X183736226Y-68402164D01*
X183016036Y-67681974D01*
X182604018Y-67406673D01*
X182118010Y-67309999D01*
X182118005Y-67310000D01*
X181525987Y-67310000D01*
X181489595Y-67253444D01*
X181528490Y-67214548D01*
X181673500Y-66864464D01*
X181673500Y-66278125D01*
X181435375Y-66040000D01*
X178308000Y-66040000D01*
X178308000Y-66060000D01*
X178054000Y-66060000D01*
X178054000Y-66040000D01*
X178034000Y-66040000D01*
X178034000Y-65786000D01*
X178054000Y-65786000D01*
X178054000Y-65766000D01*
X178308000Y-65766000D01*
X178308000Y-65786000D01*
X181435375Y-65786000D01*
X181673500Y-65547875D01*
X181673500Y-64961536D01*
X181528490Y-64611452D01*
X181437135Y-64520096D01*
X181615646Y-64258836D01*
X181692160Y-63881000D01*
X181692160Y-62357000D01*
X181625743Y-62004025D01*
X181484251Y-61784139D01*
X181615646Y-61591836D01*
X181692160Y-61214000D01*
X181692160Y-59690000D01*
X181625743Y-59337025D01*
X181566848Y-59245500D01*
X188826436Y-59245500D01*
X195262500Y-65681564D01*
G36*
X251232500Y-27931000D02*
X251269500Y-28117011D01*
X251269500Y-28448000D01*
X251284509Y-28522115D01*
X251327170Y-28584552D01*
X251390761Y-28625472D01*
X251460000Y-28638500D01*
X251520718Y-28638500D01*
X251533448Y-28657552D01*
X251866793Y-28880286D01*
X252260000Y-28958500D01*
X260232500Y-28958500D01*
X260232500Y-36308801D01*
X255414018Y-36308801D01*
X255061043Y-36375218D01*
X254736856Y-36583826D01*
X254519372Y-36902125D01*
X254442858Y-37279961D01*
X254442858Y-38979983D01*
X254509275Y-39332958D01*
X254717883Y-39657145D01*
X255036182Y-39874629D01*
X255414018Y-39951143D01*
X260232500Y-39951143D01*
X260232500Y-47708829D01*
X255414018Y-47708829D01*
X255061043Y-47775246D01*
X254736856Y-47983854D01*
X254519372Y-48302153D01*
X254442858Y-48679989D01*
X254442858Y-50380011D01*
X254509275Y-50732986D01*
X254717883Y-51057173D01*
X255036182Y-51274657D01*
X255414018Y-51351171D01*
X260232500Y-51351171D01*
X260232500Y-53715029D01*
X259504967Y-53412931D01*
X258519357Y-53412071D01*
X257608442Y-53788453D01*
X256910902Y-54484777D01*
X256532931Y-55395033D01*
X256532071Y-56380643D01*
X256908453Y-57291558D01*
X257604777Y-57989098D01*
X258515033Y-58367069D01*
X259500643Y-58367929D01*
X260232500Y-58065532D01*
X260232500Y-63875029D01*
X259504967Y-63572931D01*
X258519357Y-63572071D01*
X257608442Y-63948453D01*
X256910902Y-64644777D01*
X256532931Y-65555033D01*
X256532071Y-66540643D01*
X256908453Y-67451558D01*
X257604777Y-68149098D01*
X258515033Y-68527069D01*
X259500643Y-68527929D01*
X260232500Y-68225532D01*
X260232500Y-81903500D01*
X252260000Y-81903500D01*
X251866793Y-81981714D01*
X251681534Y-82105500D01*
X251460000Y-82105500D01*
X251385885Y-82120509D01*
X251323448Y-82163170D01*
X251282528Y-82226761D01*
X251269500Y-82296000D01*
X251269500Y-82744989D01*
X251232500Y-82931000D01*
X251232500Y-89403500D01*
X239220178Y-89403500D01*
X239589098Y-89035223D01*
X239967069Y-88124967D01*
X239967929Y-87139357D01*
X239591547Y-86228442D01*
X238895223Y-85530902D01*
X238459210Y-85349854D01*
X240372532Y-83436532D01*
X240716659Y-82921510D01*
X240837500Y-82314000D01*
X240837500Y-80577134D01*
X241052186Y-80060112D01*
X241052812Y-79343034D01*
X240778976Y-78680300D01*
X240299121Y-78199607D01*
X240777194Y-77722367D01*
X241052186Y-77060112D01*
X241052315Y-76911712D01*
X243934989Y-76911712D01*
X244383533Y-77997272D01*
X245213359Y-78828548D01*
X246298135Y-79278986D01*
X247472712Y-79280011D01*
X248558272Y-78831467D01*
X249389548Y-78001641D01*
X249839986Y-76916865D01*
X249841011Y-75742288D01*
X249392467Y-74656728D01*
X248562641Y-73825452D01*
X247477865Y-73375014D01*
X246303288Y-73373989D01*
X245217728Y-73822533D01*
X244386452Y-74652359D01*
X243936014Y-75737135D01*
X243934989Y-76911712D01*
X241052315Y-76911712D01*
X241052812Y-76343034D01*
X240778976Y-75680300D01*
X240272367Y-75172806D01*
X239610112Y-74897814D01*
X238893034Y-74897188D01*
X238230300Y-75171024D01*
X237722806Y-75677633D01*
X237505265Y-76201530D01*
X237307916Y-75725088D01*
X236967383Y-75662223D01*
X235929605Y-76700000D01*
X236967383Y-77737777D01*
X237307916Y-77674912D01*
X237496861Y-77177183D01*
X237721024Y-77719700D01*
X238200879Y-78200393D01*
X237722806Y-78677633D01*
X237499791Y-79214713D01*
X237278976Y-78680300D01*
X236772367Y-78172806D01*
X236742884Y-78160564D01*
X236787777Y-77917383D01*
X235750000Y-76879605D01*
X234712223Y-77917383D01*
X234757010Y-78159988D01*
X234730300Y-78171024D01*
X234222806Y-78677633D01*
X233947814Y-79339888D01*
X233947188Y-80056966D01*
X234221024Y-80719700D01*
X234727633Y-81227194D01*
X235389888Y-81502186D01*
X236106966Y-81502812D01*
X236769700Y-81228976D01*
X237277194Y-80722367D01*
X237500209Y-80185287D01*
X237662500Y-80578061D01*
X237662500Y-81656436D01*
X236578436Y-82740500D01*
X194205564Y-82740500D01*
X192887500Y-81422436D01*
X192887500Y-80577134D01*
X193050209Y-80185287D01*
X193271024Y-80719700D01*
X193777633Y-81227194D01*
X194439888Y-81502186D01*
X195156966Y-81502812D01*
X195819700Y-81228976D01*
X195959420Y-81089500D01*
X196088000Y-81089500D01*
X196695510Y-80968659D01*
X196727351Y-80947383D01*
X199142223Y-80947383D01*
X199205088Y-81287916D01*
X199875487Y-81542409D01*
X200592246Y-81520980D01*
X201154912Y-81287916D01*
X201217777Y-80947383D01*
X200180000Y-79909605D01*
X199142223Y-80947383D01*
X196727351Y-80947383D01*
X197210532Y-80624532D01*
X197972532Y-79862532D01*
X198264556Y-79425487D01*
X198367591Y-79425487D01*
X198389020Y-80142246D01*
X198622084Y-80704912D01*
X198962617Y-80767777D01*
X200000395Y-79730000D01*
X198962617Y-78692223D01*
X198622084Y-78755088D01*
X198367591Y-79425487D01*
X198264556Y-79425487D01*
X198316659Y-79347510D01*
X198437500Y-78740000D01*
X198437500Y-72307338D01*
X198633647Y-72503827D01*
X199123587Y-72707268D01*
X199654086Y-72707731D01*
X200088500Y-72528235D01*
X200088500Y-77726000D01*
X200128726Y-77928228D01*
X199767754Y-77939020D01*
X199205088Y-78172084D01*
X199142223Y-78512617D01*
X200180000Y-79550395D01*
X200194142Y-79536252D01*
X200373748Y-79715858D01*
X200359605Y-79730000D01*
X201397383Y-80767777D01*
X201737916Y-80704912D01*
X201922805Y-80217869D01*
X201937241Y-80232305D01*
X202151024Y-80749700D01*
X202657633Y-81257194D01*
X203319888Y-81532186D01*
X204036966Y-81532812D01*
X204699700Y-81258976D01*
X205011837Y-80947383D01*
X208042223Y-80947383D01*
X208105088Y-81287916D01*
X208775487Y-81542409D01*
X209492246Y-81520980D01*
X210054912Y-81287916D01*
X210117777Y-80947383D01*
X209080000Y-79909605D01*
X208042223Y-80947383D01*
X205011837Y-80947383D01*
X205207194Y-80752367D01*
X205482186Y-80090112D01*
X205482766Y-79425487D01*
X207267591Y-79425487D01*
X207289020Y-80142246D01*
X207522084Y-80704912D01*
X207862617Y-80767777D01*
X208900395Y-79730000D01*
X209259605Y-79730000D01*
X210297383Y-80767777D01*
X210637916Y-80704912D01*
X210826861Y-80207183D01*
X211051024Y-80749700D01*
X211557633Y-81257194D01*
X212219888Y-81532186D01*
X212936966Y-81532812D01*
X213599700Y-81258976D01*
X214107194Y-80752367D01*
X214382186Y-80090112D01*
X214382214Y-80056966D01*
X216167188Y-80056966D01*
X216441024Y-80719700D01*
X216947633Y-81227194D01*
X217609888Y-81502186D01*
X218326966Y-81502812D01*
X218989700Y-81228976D01*
X219497194Y-80722367D01*
X219720209Y-80185287D01*
X219941024Y-80719700D01*
X220447633Y-81227194D01*
X221109888Y-81502186D01*
X221826966Y-81502812D01*
X222489700Y-81228976D01*
X222997194Y-80722367D01*
X223272186Y-80060112D01*
X223272812Y-79343034D01*
X222998976Y-78680300D01*
X222492367Y-78172806D01*
X222462884Y-78160564D01*
X222507777Y-77917383D01*
X221470000Y-76879605D01*
X220432223Y-77917383D01*
X220477010Y-78159988D01*
X220450300Y-78171024D01*
X219942806Y-78677633D01*
X219719791Y-79214713D01*
X219498976Y-78680300D01*
X218992367Y-78172806D01*
X218962884Y-78160564D01*
X219007777Y-77917383D01*
X217970000Y-76879605D01*
X216932223Y-77917383D01*
X216977010Y-78159988D01*
X216950300Y-78171024D01*
X216442806Y-78677633D01*
X216167814Y-79339888D01*
X216167188Y-80056966D01*
X214382214Y-80056966D01*
X214382812Y-79373034D01*
X214108976Y-78710300D01*
X213602367Y-78202806D01*
X212940112Y-77927814D01*
X212223034Y-77927188D01*
X211560300Y-78201024D01*
X211052806Y-78707633D01*
X210835265Y-79231530D01*
X210637916Y-78755088D01*
X210297383Y-78692223D01*
X209259605Y-79730000D01*
X208900395Y-79730000D01*
X207862617Y-78692223D01*
X207522084Y-78755088D01*
X207267591Y-79425487D01*
X205482766Y-79425487D01*
X205482812Y-79373034D01*
X205208976Y-78710300D01*
X205011638Y-78512617D01*
X208042223Y-78512617D01*
X209080000Y-79550395D01*
X210117777Y-78512617D01*
X210054912Y-78172084D01*
X209384513Y-77917591D01*
X208667754Y-77939020D01*
X208105088Y-78172084D01*
X208042223Y-78512617D01*
X205011638Y-78512617D01*
X204702367Y-78202806D01*
X204181649Y-77986585D01*
X203263500Y-77068436D01*
X203263500Y-76395487D01*
X216157591Y-76395487D01*
X216179020Y-77112246D01*
X216412084Y-77674912D01*
X216752617Y-77737777D01*
X217790395Y-76700000D01*
X218149605Y-76700000D01*
X219187383Y-77737777D01*
X219527916Y-77674912D01*
X219711628Y-77190968D01*
X219912084Y-77674912D01*
X220252617Y-77737777D01*
X221290395Y-76700000D01*
X221649605Y-76700000D01*
X222687383Y-77737777D01*
X223027916Y-77674912D01*
X223282409Y-77004513D01*
X223260980Y-76287754D01*
X223027916Y-75725088D01*
X222687383Y-75662223D01*
X221649605Y-76700000D01*
X221290395Y-76700000D01*
X220252617Y-75662223D01*
X219912084Y-75725088D01*
X219728372Y-76209032D01*
X219527916Y-75725088D01*
X219187383Y-75662223D01*
X218149605Y-76700000D01*
X217790395Y-76700000D01*
X216752617Y-75662223D01*
X216412084Y-75725088D01*
X216157591Y-76395487D01*
X203263500Y-76395487D01*
X203263500Y-75482617D01*
X216932223Y-75482617D01*
X217970000Y-76520395D01*
X219007777Y-75482617D01*
X220432223Y-75482617D01*
X221470000Y-76520395D01*
X222507777Y-75482617D01*
X222444912Y-75142084D01*
X221774513Y-74887591D01*
X221057754Y-74909020D01*
X220495088Y-75142084D01*
X220432223Y-75482617D01*
X219007777Y-75482617D01*
X218944912Y-75142084D01*
X218274513Y-74887591D01*
X217557754Y-74909020D01*
X216995088Y-75142084D01*
X216932223Y-75482617D01*
X203263500Y-75482617D01*
X203263500Y-74157320D01*
X203441587Y-74231268D01*
X203972086Y-74231731D01*
X204126327Y-74168000D01*
X223734029Y-74168000D01*
X225306651Y-75740621D01*
X225057814Y-76339888D01*
X225057188Y-77056966D01*
X225331024Y-77719700D01*
X225810879Y-78200393D01*
X225332806Y-78677633D01*
X225057814Y-79339888D01*
X225057188Y-80056966D01*
X225331024Y-80719700D01*
X225837633Y-81227194D01*
X226499888Y-81502186D01*
X227216966Y-81502812D01*
X227879700Y-81228976D01*
X228387194Y-80722367D01*
X228610209Y-80185287D01*
X228831024Y-80719700D01*
X229337633Y-81227194D01*
X229999888Y-81502186D01*
X230716966Y-81502812D01*
X231379700Y-81228976D01*
X231887194Y-80722367D01*
X232162186Y-80060112D01*
X232162812Y-79343034D01*
X231888976Y-78680300D01*
X231409121Y-78199607D01*
X231887194Y-77722367D01*
X232162186Y-77060112D01*
X232162766Y-76395487D01*
X233937591Y-76395487D01*
X233959020Y-77112246D01*
X234192084Y-77674912D01*
X234532617Y-77737777D01*
X235570395Y-76700000D01*
X234532617Y-75662223D01*
X234192084Y-75725088D01*
X233937591Y-76395487D01*
X232162766Y-76395487D01*
X232162812Y-76343034D01*
X231947500Y-75821939D01*
X231947500Y-75482617D01*
X234712223Y-75482617D01*
X235750000Y-76520395D01*
X236787777Y-75482617D01*
X236724912Y-75142084D01*
X236054513Y-74887591D01*
X235337754Y-74909020D01*
X234775088Y-75142084D01*
X234712223Y-75482617D01*
X231947500Y-75482617D01*
X231947500Y-74843564D01*
X234591564Y-72199500D01*
X252984000Y-72199500D01*
X253591510Y-72078659D01*
X254106532Y-71734532D01*
X254868532Y-70972532D01*
X255212659Y-70457510D01*
X255333500Y-69850000D01*
X255333500Y-64516000D01*
X255282976Y-64262000D01*
X255333500Y-64008000D01*
X255333500Y-55118000D01*
X255212659Y-54510490D01*
X254868532Y-53995468D01*
X253880532Y-53007468D01*
X253365510Y-52663341D01*
X252758000Y-52542500D01*
X252057134Y-52542500D01*
X251540112Y-52327814D01*
X250823034Y-52327188D01*
X250160300Y-52601024D01*
X249652806Y-53107633D01*
X249377814Y-53769888D01*
X249377363Y-54286697D01*
X249039490Y-54219489D01*
X249039485Y-54219490D01*
X210711405Y-54219490D01*
X210559039Y-54156222D01*
X210028540Y-54155759D01*
X209538246Y-54358344D01*
X209162799Y-54733137D01*
X208959358Y-55223077D01*
X208959006Y-55626000D01*
X208133539Y-55626000D01*
X207766353Y-55258173D01*
X207276413Y-55054732D01*
X206745914Y-55054269D01*
X206255620Y-55256854D01*
X205880173Y-55631647D01*
X205676732Y-56121587D01*
X205676269Y-56652086D01*
X205878854Y-57142380D01*
X206253647Y-57517827D01*
X206407775Y-57581827D01*
X206619972Y-57794023D01*
X206619974Y-57794026D01*
X207031992Y-58069327D01*
X207518000Y-58166000D01*
X246107948Y-58166000D01*
X248158000Y-60216051D01*
X248158000Y-66547995D01*
X248157999Y-66548000D01*
X248254673Y-67034008D01*
X248529974Y-67446026D01*
X249480184Y-68396235D01*
X249651024Y-68809700D01*
X249865449Y-69024500D01*
X233934000Y-69024500D01*
X233326490Y-69145341D01*
X232811468Y-69489468D01*
X229237468Y-73063468D01*
X228893341Y-73578490D01*
X228772500Y-74186000D01*
X228772500Y-75112500D01*
X228053336Y-75112500D01*
X228033327Y-75011911D01*
X227758026Y-74599893D01*
X227758023Y-74599891D01*
X225158107Y-71999974D01*
X224746089Y-71724673D01*
X224260081Y-71627999D01*
X224260076Y-71628000D01*
X204683064Y-71628000D01*
X204802532Y-71508532D01*
X205146659Y-70993510D01*
X205267500Y-70386000D01*
X205267500Y-50518000D01*
X205146659Y-49910490D01*
X204802532Y-49395468D01*
X202602169Y-47195105D01*
X249341640Y-47195105D01*
X249341640Y-47622694D01*
X249486649Y-47972778D01*
X249754592Y-48240720D01*
X250104676Y-48385730D01*
X251529215Y-48385730D01*
X251767340Y-48147605D01*
X251767340Y-46956980D01*
X252021340Y-46956980D01*
X252021340Y-48147605D01*
X252259465Y-48385730D01*
X253684004Y-48385730D01*
X254034088Y-48240720D01*
X254302031Y-47972778D01*
X254447040Y-47622694D01*
X254447040Y-47195105D01*
X254208915Y-46956980D01*
X252021340Y-46956980D01*
X251767340Y-46956980D01*
X249579765Y-46956980D01*
X249341640Y-47195105D01*
X202602169Y-47195105D01*
X201874811Y-46467747D01*
X202176380Y-46343142D01*
X202551827Y-45968349D01*
X202615826Y-45814222D01*
X202701025Y-45729023D01*
X202976326Y-45317005D01*
X203073000Y-44830997D01*
X203072999Y-44830992D01*
X203072999Y-43942000D01*
X247123948Y-43942000D01*
X248529972Y-45348023D01*
X248529974Y-45348026D01*
X248938547Y-45621025D01*
X248941992Y-45623327D01*
X249374954Y-45709449D01*
X249389397Y-45786209D01*
X249423609Y-45839376D01*
X249341640Y-46037266D01*
X249341640Y-46464855D01*
X249579765Y-46702980D01*
X251767340Y-46702980D01*
X251767340Y-46682980D01*
X252021340Y-46682980D01*
X252021340Y-46702980D01*
X254208915Y-46702980D01*
X254447040Y-46464855D01*
X254447040Y-46037266D01*
X254366873Y-45843726D01*
X254389186Y-45811070D01*
X254465700Y-45433234D01*
X254465700Y-44226734D01*
X254399283Y-43873759D01*
X254373613Y-43833866D01*
X254389186Y-43811074D01*
X254465700Y-43433238D01*
X254465700Y-42226738D01*
X254399283Y-41873763D01*
X254373613Y-41833870D01*
X254389186Y-41811078D01*
X254465700Y-41433242D01*
X254465700Y-40226742D01*
X254399283Y-39873767D01*
X254190675Y-39549580D01*
X253872376Y-39332096D01*
X253494540Y-39255582D01*
X250294140Y-39255582D01*
X249941165Y-39321999D01*
X249616978Y-39530607D01*
X249399494Y-39848906D01*
X249322980Y-40226742D01*
X249322980Y-40770928D01*
X248802026Y-40249974D01*
X248390008Y-39974673D01*
X247904000Y-39877999D01*
X247903995Y-39878000D01*
X181525987Y-39878000D01*
X181489595Y-39821444D01*
X181528490Y-39782548D01*
X181673500Y-39432464D01*
X181673500Y-38846125D01*
X181435375Y-38608000D01*
X178308000Y-38608000D01*
X178308000Y-38628000D01*
X178054000Y-38628000D01*
X178054000Y-38608000D01*
X178034000Y-38608000D01*
X178034000Y-38354000D01*
X178054000Y-38354000D01*
X178054000Y-37004625D01*
X177815875Y-36766500D01*
X176287500Y-36766500D01*
X176287500Y-35001712D01*
X177894989Y-35001712D01*
X178343533Y-36087272D01*
X179021576Y-36766500D01*
X178546125Y-36766500D01*
X178308000Y-37004625D01*
X178308000Y-38354000D01*
X181435375Y-38354000D01*
X181673500Y-38115875D01*
X181673500Y-37529536D01*
X181581890Y-37308372D01*
X182518272Y-36921467D01*
X183349548Y-36091641D01*
X183799986Y-35006865D01*
X183799990Y-35001712D01*
X243934989Y-35001712D01*
X244383533Y-36087272D01*
X245213359Y-36918548D01*
X246298135Y-37368986D01*
X247472712Y-37370011D01*
X248558272Y-36921467D01*
X249389548Y-36091641D01*
X249839986Y-35006865D01*
X249841011Y-33832288D01*
X249392467Y-32746728D01*
X248562641Y-31915452D01*
X247477865Y-31465014D01*
X246303288Y-31463989D01*
X245217728Y-31912533D01*
X244386452Y-32742359D01*
X243936014Y-33827135D01*
X243934989Y-35001712D01*
X183799990Y-35001712D01*
X183801011Y-33832288D01*
X183352467Y-32746728D01*
X182522641Y-31915452D01*
X181437865Y-31465014D01*
X180263288Y-31463989D01*
X179177728Y-31912533D01*
X178346452Y-32742359D01*
X177896014Y-33827135D01*
X177894989Y-35001712D01*
X176287500Y-35001712D01*
X176287500Y-28958500D01*
X184260000Y-28958500D01*
X184653207Y-28880286D01*
X184986552Y-28657552D01*
X185209286Y-28324207D01*
X185287500Y-27931000D01*
X185287500Y-21458500D01*
X251232500Y-21458500D01*
X251232500Y-27931000D01*
X251232500Y-27931000D01*
G37*
X251232500Y-27931000D02*
X251269500Y-28117011D01*
X251269500Y-28448000D01*
X251284509Y-28522115D01*
X251327170Y-28584552D01*
X251390761Y-28625472D01*
X251460000Y-28638500D01*
X251520718Y-28638500D01*
X251533448Y-28657552D01*
X251866793Y-28880286D01*
X252260000Y-28958500D01*
X260232500Y-28958500D01*
X260232500Y-36308801D01*
X255414018Y-36308801D01*
X255061043Y-36375218D01*
X254736856Y-36583826D01*
X254519372Y-36902125D01*
X254442858Y-37279961D01*
X254442858Y-38979983D01*
X254509275Y-39332958D01*
X254717883Y-39657145D01*
X255036182Y-39874629D01*
X255414018Y-39951143D01*
X260232500Y-39951143D01*
X260232500Y-47708829D01*
X255414018Y-47708829D01*
X255061043Y-47775246D01*
X254736856Y-47983854D01*
X254519372Y-48302153D01*
X254442858Y-48679989D01*
X254442858Y-50380011D01*
X254509275Y-50732986D01*
X254717883Y-51057173D01*
X255036182Y-51274657D01*
X255414018Y-51351171D01*
X260232500Y-51351171D01*
X260232500Y-53715029D01*
X259504967Y-53412931D01*
X258519357Y-53412071D01*
X257608442Y-53788453D01*
X256910902Y-54484777D01*
X256532931Y-55395033D01*
X256532071Y-56380643D01*
X256908453Y-57291558D01*
X257604777Y-57989098D01*
X258515033Y-58367069D01*
X259500643Y-58367929D01*
X260232500Y-58065532D01*
X260232500Y-63875029D01*
X259504967Y-63572931D01*
X258519357Y-63572071D01*
X257608442Y-63948453D01*
X256910902Y-64644777D01*
X256532931Y-65555033D01*
X256532071Y-66540643D01*
X256908453Y-67451558D01*
X257604777Y-68149098D01*
X258515033Y-68527069D01*
X259500643Y-68527929D01*
X260232500Y-68225532D01*
X260232500Y-81903500D01*
X252260000Y-81903500D01*
X251866793Y-81981714D01*
X251681534Y-82105500D01*
X251460000Y-82105500D01*
X251385885Y-82120509D01*
X251323448Y-82163170D01*
X251282528Y-82226761D01*
X251269500Y-82296000D01*
X251269500Y-82744989D01*
X251232500Y-82931000D01*
X251232500Y-89403500D01*
X239220178Y-89403500D01*
X239589098Y-89035223D01*
X239967069Y-88124967D01*
X239967929Y-87139357D01*
X239591547Y-86228442D01*
X238895223Y-85530902D01*
X238459210Y-85349854D01*
X240372532Y-83436532D01*
X240716659Y-82921510D01*
X240837500Y-82314000D01*
X240837500Y-80577134D01*
X241052186Y-80060112D01*
X241052812Y-79343034D01*
X240778976Y-78680300D01*
X240299121Y-78199607D01*
X240777194Y-77722367D01*
X241052186Y-77060112D01*
X241052315Y-76911712D01*
X243934989Y-76911712D01*
X244383533Y-77997272D01*
X245213359Y-78828548D01*
X246298135Y-79278986D01*
X247472712Y-79280011D01*
X248558272Y-78831467D01*
X249389548Y-78001641D01*
X249839986Y-76916865D01*
X249841011Y-75742288D01*
X249392467Y-74656728D01*
X248562641Y-73825452D01*
X247477865Y-73375014D01*
X246303288Y-73373989D01*
X245217728Y-73822533D01*
X244386452Y-74652359D01*
X243936014Y-75737135D01*
X243934989Y-76911712D01*
X241052315Y-76911712D01*
X241052812Y-76343034D01*
X240778976Y-75680300D01*
X240272367Y-75172806D01*
X239610112Y-74897814D01*
X238893034Y-74897188D01*
X238230300Y-75171024D01*
X237722806Y-75677633D01*
X237505265Y-76201530D01*
X237307916Y-75725088D01*
X236967383Y-75662223D01*
X235929605Y-76700000D01*
X236967383Y-77737777D01*
X237307916Y-77674912D01*
X237496861Y-77177183D01*
X237721024Y-77719700D01*
X238200879Y-78200393D01*
X237722806Y-78677633D01*
X237499791Y-79214713D01*
X237278976Y-78680300D01*
X236772367Y-78172806D01*
X236742884Y-78160564D01*
X236787777Y-77917383D01*
X235750000Y-76879605D01*
X234712223Y-77917383D01*
X234757010Y-78159988D01*
X234730300Y-78171024D01*
X234222806Y-78677633D01*
X233947814Y-79339888D01*
X233947188Y-80056966D01*
X234221024Y-80719700D01*
X234727633Y-81227194D01*
X235389888Y-81502186D01*
X236106966Y-81502812D01*
X236769700Y-81228976D01*
X237277194Y-80722367D01*
X237500209Y-80185287D01*
X237662500Y-80578061D01*
X237662500Y-81656436D01*
X236578436Y-82740500D01*
X194205564Y-82740500D01*
X192887500Y-81422436D01*
X192887500Y-80577134D01*
X193050209Y-80185287D01*
X193271024Y-80719700D01*
X193777633Y-81227194D01*
X194439888Y-81502186D01*
X195156966Y-81502812D01*
X195819700Y-81228976D01*
X195959420Y-81089500D01*
X196088000Y-81089500D01*
X196695510Y-80968659D01*
X196727351Y-80947383D01*
X199142223Y-80947383D01*
X199205088Y-81287916D01*
X199875487Y-81542409D01*
X200592246Y-81520980D01*
X201154912Y-81287916D01*
X201217777Y-80947383D01*
X200180000Y-79909605D01*
X199142223Y-80947383D01*
X196727351Y-80947383D01*
X197210532Y-80624532D01*
X197972532Y-79862532D01*
X198264556Y-79425487D01*
X198367591Y-79425487D01*
X198389020Y-80142246D01*
X198622084Y-80704912D01*
X198962617Y-80767777D01*
X200000395Y-79730000D01*
X198962617Y-78692223D01*
X198622084Y-78755088D01*
X198367591Y-79425487D01*
X198264556Y-79425487D01*
X198316659Y-79347510D01*
X198437500Y-78740000D01*
X198437500Y-72307338D01*
X198633647Y-72503827D01*
X199123587Y-72707268D01*
X199654086Y-72707731D01*
X200088500Y-72528235D01*
X200088500Y-77726000D01*
X200128726Y-77928228D01*
X199767754Y-77939020D01*
X199205088Y-78172084D01*
X199142223Y-78512617D01*
X200180000Y-79550395D01*
X200194142Y-79536252D01*
X200373748Y-79715858D01*
X200359605Y-79730000D01*
X201397383Y-80767777D01*
X201737916Y-80704912D01*
X201922805Y-80217869D01*
X201937241Y-80232305D01*
X202151024Y-80749700D01*
X202657633Y-81257194D01*
X203319888Y-81532186D01*
X204036966Y-81532812D01*
X204699700Y-81258976D01*
X205011837Y-80947383D01*
X208042223Y-80947383D01*
X208105088Y-81287916D01*
X208775487Y-81542409D01*
X209492246Y-81520980D01*
X210054912Y-81287916D01*
X210117777Y-80947383D01*
X209080000Y-79909605D01*
X208042223Y-80947383D01*
X205011837Y-80947383D01*
X205207194Y-80752367D01*
X205482186Y-80090112D01*
X205482766Y-79425487D01*
X207267591Y-79425487D01*
X207289020Y-80142246D01*
X207522084Y-80704912D01*
X207862617Y-80767777D01*
X208900395Y-79730000D01*
X209259605Y-79730000D01*
X210297383Y-80767777D01*
X210637916Y-80704912D01*
X210826861Y-80207183D01*
X211051024Y-80749700D01*
X211557633Y-81257194D01*
X212219888Y-81532186D01*
X212936966Y-81532812D01*
X213599700Y-81258976D01*
X214107194Y-80752367D01*
X214382186Y-80090112D01*
X214382214Y-80056966D01*
X216167188Y-80056966D01*
X216441024Y-80719700D01*
X216947633Y-81227194D01*
X217609888Y-81502186D01*
X218326966Y-81502812D01*
X218989700Y-81228976D01*
X219497194Y-80722367D01*
X219720209Y-80185287D01*
X219941024Y-80719700D01*
X220447633Y-81227194D01*
X221109888Y-81502186D01*
X221826966Y-81502812D01*
X222489700Y-81228976D01*
X222997194Y-80722367D01*
X223272186Y-80060112D01*
X223272812Y-79343034D01*
X222998976Y-78680300D01*
X222492367Y-78172806D01*
X222462884Y-78160564D01*
X222507777Y-77917383D01*
X221470000Y-76879605D01*
X220432223Y-77917383D01*
X220477010Y-78159988D01*
X220450300Y-78171024D01*
X219942806Y-78677633D01*
X219719791Y-79214713D01*
X219498976Y-78680300D01*
X218992367Y-78172806D01*
X218962884Y-78160564D01*
X219007777Y-77917383D01*
X217970000Y-76879605D01*
X216932223Y-77917383D01*
X216977010Y-78159988D01*
X216950300Y-78171024D01*
X216442806Y-78677633D01*
X216167814Y-79339888D01*
X216167188Y-80056966D01*
X214382214Y-80056966D01*
X214382812Y-79373034D01*
X214108976Y-78710300D01*
X213602367Y-78202806D01*
X212940112Y-77927814D01*
X212223034Y-77927188D01*
X211560300Y-78201024D01*
X211052806Y-78707633D01*
X210835265Y-79231530D01*
X210637916Y-78755088D01*
X210297383Y-78692223D01*
X209259605Y-79730000D01*
X208900395Y-79730000D01*
X207862617Y-78692223D01*
X207522084Y-78755088D01*
X207267591Y-79425487D01*
X205482766Y-79425487D01*
X205482812Y-79373034D01*
X205208976Y-78710300D01*
X205011638Y-78512617D01*
X208042223Y-78512617D01*
X209080000Y-79550395D01*
X210117777Y-78512617D01*
X210054912Y-78172084D01*
X209384513Y-77917591D01*
X208667754Y-77939020D01*
X208105088Y-78172084D01*
X208042223Y-78512617D01*
X205011638Y-78512617D01*
X204702367Y-78202806D01*
X204181649Y-77986585D01*
X203263500Y-77068436D01*
X203263500Y-76395487D01*
X216157591Y-76395487D01*
X216179020Y-77112246D01*
X216412084Y-77674912D01*
X216752617Y-77737777D01*
X217790395Y-76700000D01*
X218149605Y-76700000D01*
X219187383Y-77737777D01*
X219527916Y-77674912D01*
X219711628Y-77190968D01*
X219912084Y-77674912D01*
X220252617Y-77737777D01*
X221290395Y-76700000D01*
X221649605Y-76700000D01*
X222687383Y-77737777D01*
X223027916Y-77674912D01*
X223282409Y-77004513D01*
X223260980Y-76287754D01*
X223027916Y-75725088D01*
X222687383Y-75662223D01*
X221649605Y-76700000D01*
X221290395Y-76700000D01*
X220252617Y-75662223D01*
X219912084Y-75725088D01*
X219728372Y-76209032D01*
X219527916Y-75725088D01*
X219187383Y-75662223D01*
X218149605Y-76700000D01*
X217790395Y-76700000D01*
X216752617Y-75662223D01*
X216412084Y-75725088D01*
X216157591Y-76395487D01*
X203263500Y-76395487D01*
X203263500Y-75482617D01*
X216932223Y-75482617D01*
X217970000Y-76520395D01*
X219007777Y-75482617D01*
X220432223Y-75482617D01*
X221470000Y-76520395D01*
X222507777Y-75482617D01*
X222444912Y-75142084D01*
X221774513Y-74887591D01*
X221057754Y-74909020D01*
X220495088Y-75142084D01*
X220432223Y-75482617D01*
X219007777Y-75482617D01*
X218944912Y-75142084D01*
X218274513Y-74887591D01*
X217557754Y-74909020D01*
X216995088Y-75142084D01*
X216932223Y-75482617D01*
X203263500Y-75482617D01*
X203263500Y-74157320D01*
X203441587Y-74231268D01*
X203972086Y-74231731D01*
X204126327Y-74168000D01*
X223734029Y-74168000D01*
X225306651Y-75740621D01*
X225057814Y-76339888D01*
X225057188Y-77056966D01*
X225331024Y-77719700D01*
X225810879Y-78200393D01*
X225332806Y-78677633D01*
X225057814Y-79339888D01*
X225057188Y-80056966D01*
X225331024Y-80719700D01*
X225837633Y-81227194D01*
X226499888Y-81502186D01*
X227216966Y-81502812D01*
X227879700Y-81228976D01*
X228387194Y-80722367D01*
X228610209Y-80185287D01*
X228831024Y-80719700D01*
X229337633Y-81227194D01*
X229999888Y-81502186D01*
X230716966Y-81502812D01*
X231379700Y-81228976D01*
X231887194Y-80722367D01*
X232162186Y-80060112D01*
X232162812Y-79343034D01*
X231888976Y-78680300D01*
X231409121Y-78199607D01*
X231887194Y-77722367D01*
X232162186Y-77060112D01*
X232162766Y-76395487D01*
X233937591Y-76395487D01*
X233959020Y-77112246D01*
X234192084Y-77674912D01*
X234532617Y-77737777D01*
X235570395Y-76700000D01*
X234532617Y-75662223D01*
X234192084Y-75725088D01*
X233937591Y-76395487D01*
X232162766Y-76395487D01*
X232162812Y-76343034D01*
X231947500Y-75821939D01*
X231947500Y-75482617D01*
X234712223Y-75482617D01*
X235750000Y-76520395D01*
X236787777Y-75482617D01*
X236724912Y-75142084D01*
X236054513Y-74887591D01*
X235337754Y-74909020D01*
X234775088Y-75142084D01*
X234712223Y-75482617D01*
X231947500Y-75482617D01*
X231947500Y-74843564D01*
X234591564Y-72199500D01*
X252984000Y-72199500D01*
X253591510Y-72078659D01*
X254106532Y-71734532D01*
X254868532Y-70972532D01*
X255212659Y-70457510D01*
X255333500Y-69850000D01*
X255333500Y-64516000D01*
X255282976Y-64262000D01*
X255333500Y-64008000D01*
X255333500Y-55118000D01*
X255212659Y-54510490D01*
X254868532Y-53995468D01*
X253880532Y-53007468D01*
X253365510Y-52663341D01*
X252758000Y-52542500D01*
X252057134Y-52542500D01*
X251540112Y-52327814D01*
X250823034Y-52327188D01*
X250160300Y-52601024D01*
X249652806Y-53107633D01*
X249377814Y-53769888D01*
X249377363Y-54286697D01*
X249039490Y-54219489D01*
X249039485Y-54219490D01*
X210711405Y-54219490D01*
X210559039Y-54156222D01*
X210028540Y-54155759D01*
X209538246Y-54358344D01*
X209162799Y-54733137D01*
X208959358Y-55223077D01*
X208959006Y-55626000D01*
X208133539Y-55626000D01*
X207766353Y-55258173D01*
X207276413Y-55054732D01*
X206745914Y-55054269D01*
X206255620Y-55256854D01*
X205880173Y-55631647D01*
X205676732Y-56121587D01*
X205676269Y-56652086D01*
X205878854Y-57142380D01*
X206253647Y-57517827D01*
X206407775Y-57581827D01*
X206619972Y-57794023D01*
X206619974Y-57794026D01*
X207031992Y-58069327D01*
X207518000Y-58166000D01*
X246107948Y-58166000D01*
X248158000Y-60216051D01*
X248158000Y-66547995D01*
X248157999Y-66548000D01*
X248254673Y-67034008D01*
X248529974Y-67446026D01*
X249480184Y-68396235D01*
X249651024Y-68809700D01*
X249865449Y-69024500D01*
X233934000Y-69024500D01*
X233326490Y-69145341D01*
X232811468Y-69489468D01*
X229237468Y-73063468D01*
X228893341Y-73578490D01*
X228772500Y-74186000D01*
X228772500Y-75112500D01*
X228053336Y-75112500D01*
X228033327Y-75011911D01*
X227758026Y-74599893D01*
X227758023Y-74599891D01*
X225158107Y-71999974D01*
X224746089Y-71724673D01*
X224260081Y-71627999D01*
X224260076Y-71628000D01*
X204683064Y-71628000D01*
X204802532Y-71508532D01*
X205146659Y-70993510D01*
X205267500Y-70386000D01*
X205267500Y-50518000D01*
X205146659Y-49910490D01*
X204802532Y-49395468D01*
X202602169Y-47195105D01*
X249341640Y-47195105D01*
X249341640Y-47622694D01*
X249486649Y-47972778D01*
X249754592Y-48240720D01*
X250104676Y-48385730D01*
X251529215Y-48385730D01*
X251767340Y-48147605D01*
X251767340Y-46956980D01*
X252021340Y-46956980D01*
X252021340Y-48147605D01*
X252259465Y-48385730D01*
X253684004Y-48385730D01*
X254034088Y-48240720D01*
X254302031Y-47972778D01*
X254447040Y-47622694D01*
X254447040Y-47195105D01*
X254208915Y-46956980D01*
X252021340Y-46956980D01*
X251767340Y-46956980D01*
X249579765Y-46956980D01*
X249341640Y-47195105D01*
X202602169Y-47195105D01*
X201874811Y-46467747D01*
X202176380Y-46343142D01*
X202551827Y-45968349D01*
X202615826Y-45814222D01*
X202701025Y-45729023D01*
X202976326Y-45317005D01*
X203073000Y-44830997D01*
X203072999Y-44830992D01*
X203072999Y-43942000D01*
X247123948Y-43942000D01*
X248529972Y-45348023D01*
X248529974Y-45348026D01*
X248938547Y-45621025D01*
X248941992Y-45623327D01*
X249374954Y-45709449D01*
X249389397Y-45786209D01*
X249423609Y-45839376D01*
X249341640Y-46037266D01*
X249341640Y-46464855D01*
X249579765Y-46702980D01*
X251767340Y-46702980D01*
X251767340Y-46682980D01*
X252021340Y-46682980D01*
X252021340Y-46702980D01*
X254208915Y-46702980D01*
X254447040Y-46464855D01*
X254447040Y-46037266D01*
X254366873Y-45843726D01*
X254389186Y-45811070D01*
X254465700Y-45433234D01*
X254465700Y-44226734D01*
X254399283Y-43873759D01*
X254373613Y-43833866D01*
X254389186Y-43811074D01*
X254465700Y-43433238D01*
X254465700Y-42226738D01*
X254399283Y-41873763D01*
X254373613Y-41833870D01*
X254389186Y-41811078D01*
X254465700Y-41433242D01*
X254465700Y-40226742D01*
X254399283Y-39873767D01*
X254190675Y-39549580D01*
X253872376Y-39332096D01*
X253494540Y-39255582D01*
X250294140Y-39255582D01*
X249941165Y-39321999D01*
X249616978Y-39530607D01*
X249399494Y-39848906D01*
X249322980Y-40226742D01*
X249322980Y-40770928D01*
X248802026Y-40249974D01*
X248390008Y-39974673D01*
X247904000Y-39877999D01*
X247903995Y-39878000D01*
X181525987Y-39878000D01*
X181489595Y-39821444D01*
X181528490Y-39782548D01*
X181673500Y-39432464D01*
X181673500Y-38846125D01*
X181435375Y-38608000D01*
X178308000Y-38608000D01*
X178308000Y-38628000D01*
X178054000Y-38628000D01*
X178054000Y-38608000D01*
X178034000Y-38608000D01*
X178034000Y-38354000D01*
X178054000Y-38354000D01*
X178054000Y-37004625D01*
X177815875Y-36766500D01*
X176287500Y-36766500D01*
X176287500Y-35001712D01*
X177894989Y-35001712D01*
X178343533Y-36087272D01*
X179021576Y-36766500D01*
X178546125Y-36766500D01*
X178308000Y-37004625D01*
X178308000Y-38354000D01*
X181435375Y-38354000D01*
X181673500Y-38115875D01*
X181673500Y-37529536D01*
X181581890Y-37308372D01*
X182518272Y-36921467D01*
X183349548Y-36091641D01*
X183799986Y-35006865D01*
X183799990Y-35001712D01*
X243934989Y-35001712D01*
X244383533Y-36087272D01*
X245213359Y-36918548D01*
X246298135Y-37368986D01*
X247472712Y-37370011D01*
X248558272Y-36921467D01*
X249389548Y-36091641D01*
X249839986Y-35006865D01*
X249841011Y-33832288D01*
X249392467Y-32746728D01*
X248562641Y-31915452D01*
X247477865Y-31465014D01*
X246303288Y-31463989D01*
X245217728Y-31912533D01*
X244386452Y-32742359D01*
X243936014Y-33827135D01*
X243934989Y-35001712D01*
X183799990Y-35001712D01*
X183801011Y-33832288D01*
X183352467Y-32746728D01*
X182522641Y-31915452D01*
X181437865Y-31465014D01*
X180263288Y-31463989D01*
X179177728Y-31912533D01*
X178346452Y-32742359D01*
X177896014Y-33827135D01*
X177894989Y-35001712D01*
X176287500Y-35001712D01*
X176287500Y-28958500D01*
X184260000Y-28958500D01*
X184653207Y-28880286D01*
X184986552Y-28657552D01*
X185209286Y-28324207D01*
X185287500Y-27931000D01*
X185287500Y-21458500D01*
X251232500Y-21458500D01*
X251232500Y-27931000D01*
M02*
