G04 #@! TF.FileFunction,Copper,L2,Bot,Signal*
%FSLAX46Y46*%
G04 Gerber Fmt 4.6, Leading zero omitted, Abs format (unit mm)*
G04 Created by KiCad (PCBNEW 4.0.2+dfsg1-stable) date Sat 29 Oct 2016 09:34:00 PM EDT*
%MOMM*%
G01*
G04 APERTURE LIST*
%ADD10C,0.090000*%
%ADD11R,1.200000X0.750000*%
%ADD12R,1.206500X3.200400*%
%ADD13R,1.700022X5.299964*%
%ADD14R,0.750000X1.200000*%
%ADD15R,0.800100X1.800860*%
%ADD16R,1.200000X0.900000*%
%ADD17O,2.000000X1.200000*%
%ADD18R,2.032000X1.727200*%
%ADD19O,2.032000X1.727200*%
%ADD20C,1.422400*%
%ADD21C,0.685800*%
%ADD22C,0.304800*%
%ADD23C,0.254000*%
G04 APERTURE END LIST*
D10*
D11*
X132969000Y-96393000D03*
X134869000Y-96393000D03*
X132969000Y-97917000D03*
X134869000Y-97917000D03*
D12*
X130335020Y-85290660D03*
X132335016Y-85290660D03*
X134335012Y-85290660D03*
X136335008Y-85290660D03*
D13*
X127635000Y-79121000D03*
X139035028Y-79121000D03*
D14*
X136271000Y-90165000D03*
X136271000Y-88265000D03*
D15*
X134808000Y-93934280D03*
X132908000Y-93934280D03*
X133858000Y-90932000D03*
D16*
X142199000Y-85090000D03*
X144399000Y-85090000D03*
X144399000Y-83058000D03*
X142199000Y-83058000D03*
D17*
X141605000Y-87884000D03*
X124968000Y-87884000D03*
X141605000Y-90424000D03*
X124968000Y-90424000D03*
X141605000Y-92964000D03*
X124968000Y-92964000D03*
X141605000Y-95504000D03*
X124968000Y-95504000D03*
D18*
X144399000Y-87884000D03*
D19*
X144399000Y-90424000D03*
X144399000Y-92964000D03*
D20*
X124968000Y-95504000D03*
X138430000Y-95504000D03*
X124968000Y-92964000D03*
X138430000Y-92964000D03*
X124968000Y-90424000D03*
X138430000Y-90424000D03*
X124968000Y-87884000D03*
X138430000Y-87884000D03*
D18*
X128003300Y-88849200D03*
D19*
X128003300Y-91389200D03*
X128003300Y-93929200D03*
X128003300Y-96469200D03*
D21*
X132345064Y-88088099D03*
X131445000Y-81915000D03*
X134988300Y-90284300D03*
D22*
X132969000Y-96393000D02*
X132969000Y-93995280D01*
X138430000Y-92964000D02*
X137424212Y-92964000D01*
X133885900Y-92456000D02*
X132908000Y-93433900D01*
X136916212Y-92456000D02*
X133885900Y-92456000D01*
X137424212Y-92964000D02*
X136916212Y-92456000D01*
X132908000Y-93433900D02*
X132908000Y-93934280D01*
X132969000Y-93995280D02*
X132908000Y-93934280D01*
X132969000Y-97917000D02*
X132969000Y-96393000D01*
X130335020Y-85290660D02*
X130335020Y-91376500D01*
X130335020Y-91376500D02*
X130335020Y-97442020D01*
X128003300Y-91389200D02*
X129324100Y-91389200D01*
X129324100Y-91389200D02*
X129336800Y-91376500D01*
X129336800Y-91376500D02*
X130335020Y-91376500D01*
X134869000Y-98430000D02*
X134869000Y-97917000D01*
X134366000Y-98933000D02*
X134869000Y-98430000D01*
X131826000Y-98933000D02*
X134366000Y-98933000D01*
X130335020Y-97442020D02*
X131826000Y-98933000D01*
X134869000Y-96393000D02*
X134869000Y-93995280D01*
X134808000Y-93934280D02*
X135512850Y-93934280D01*
X140300200Y-92964000D02*
X141605000Y-92964000D01*
X139030200Y-94234000D02*
X140300200Y-92964000D01*
X135812570Y-94234000D02*
X139030200Y-94234000D01*
X135512850Y-93934280D02*
X135812570Y-94234000D01*
X134808000Y-93934280D02*
X134808000Y-93433900D01*
X134869000Y-93995280D02*
X134808000Y-93934280D01*
X134869000Y-97917000D02*
X134869000Y-96393000D01*
X136271000Y-88265000D02*
X138049000Y-88265000D01*
X138049000Y-88265000D02*
X138430000Y-87884000D01*
X142199000Y-85090000D02*
X142199000Y-83058000D01*
X138430000Y-90424000D02*
X139435788Y-90424000D01*
X143001999Y-86647799D02*
X142199000Y-85844800D01*
X139435788Y-90424000D02*
X140994778Y-88865010D01*
X140994778Y-88865010D02*
X142411347Y-88865010D01*
X142411347Y-88865010D02*
X143001999Y-88274358D01*
X143001999Y-88274358D02*
X143001999Y-86647799D01*
X142199000Y-85844800D02*
X142199000Y-85090000D01*
X132335016Y-85290660D02*
X132335016Y-88078051D01*
X132335016Y-88078051D02*
X132345064Y-88088099D01*
X138430000Y-90424000D02*
X139700000Y-91694000D01*
X139700000Y-91694000D02*
X142976600Y-91694000D01*
X142976600Y-91694000D02*
X144246600Y-92964000D01*
X144246600Y-92964000D02*
X144399000Y-92964000D01*
X131445000Y-81915000D02*
X133956298Y-81915000D01*
X133956298Y-81915000D02*
X136335008Y-84293710D01*
X136335008Y-84293710D02*
X136335008Y-85290660D01*
X134366000Y-89218770D02*
X134335012Y-89187782D01*
X133858000Y-89726770D02*
X134366000Y-89218770D01*
X133858000Y-90932000D02*
X133858000Y-89726770D01*
X134335012Y-89187782D02*
X134335012Y-85290660D01*
X136271000Y-90165000D02*
X136950800Y-90165000D01*
X137961800Y-89154000D02*
X138963400Y-89154000D01*
X136950800Y-90165000D02*
X137961800Y-89154000D01*
X138963400Y-89154000D02*
X140119100Y-87998300D01*
X141490700Y-87998300D02*
X141605000Y-87884000D01*
X140119100Y-87998300D02*
X141490700Y-87998300D01*
X134988300Y-90284300D02*
X136151700Y-90284300D01*
X136151700Y-90284300D02*
X136271000Y-90165000D01*
X141285000Y-88204000D02*
X141605000Y-87884000D01*
X144399000Y-85090000D02*
X144399000Y-87884000D01*
X141605000Y-90424000D02*
X144399000Y-90424000D01*
D23*
G36*
X126137549Y-81770982D02*
X126181827Y-82006299D01*
X126320899Y-82222423D01*
X126533099Y-82367413D01*
X126784989Y-82418422D01*
X128485011Y-82418422D01*
X128720328Y-82374144D01*
X128936452Y-82235072D01*
X129081442Y-82022872D01*
X129132451Y-81770982D01*
X129132451Y-76962000D01*
X137537577Y-76962000D01*
X137537577Y-81770982D01*
X137581855Y-82006299D01*
X137720927Y-82222423D01*
X137933127Y-82367413D01*
X138185017Y-82418422D01*
X139885039Y-82418422D01*
X140120356Y-82374144D01*
X140336480Y-82235072D01*
X140481470Y-82022872D01*
X140532479Y-81770982D01*
X140532479Y-79718599D01*
X141139699Y-79718599D01*
X141403281Y-80356515D01*
X141890918Y-80845004D01*
X142528373Y-81109699D01*
X143218599Y-81110301D01*
X143856515Y-80846719D01*
X144345004Y-80359082D01*
X144609699Y-79721627D01*
X144610301Y-79031401D01*
X144346719Y-78393485D01*
X143859082Y-77904996D01*
X143221627Y-77640301D01*
X142531401Y-77639699D01*
X141893485Y-77903281D01*
X141404996Y-78390918D01*
X141140301Y-79028373D01*
X141139699Y-79718599D01*
X140532479Y-79718599D01*
X140532479Y-76962000D01*
X142431491Y-76962000D01*
X143420995Y-77158824D01*
X144123850Y-77628456D01*
X144621543Y-78126149D01*
X145091175Y-78829005D01*
X145288000Y-79818510D01*
X145288000Y-82040389D01*
X145125309Y-81973000D01*
X144684750Y-81973000D01*
X144526000Y-82131750D01*
X144526000Y-82931000D01*
X144546000Y-82931000D01*
X144546000Y-83185000D01*
X144526000Y-83185000D01*
X144526000Y-83205000D01*
X144272000Y-83205000D01*
X144272000Y-83185000D01*
X144252000Y-83185000D01*
X144252000Y-82931000D01*
X144272000Y-82931000D01*
X144272000Y-82131750D01*
X144113250Y-81973000D01*
X143672691Y-81973000D01*
X143439302Y-82069673D01*
X143298064Y-82210910D01*
X143263090Y-82156559D01*
X143050890Y-82011569D01*
X142799000Y-81960560D01*
X141599000Y-81960560D01*
X141363683Y-82004838D01*
X141147559Y-82143910D01*
X141002569Y-82356110D01*
X140951560Y-82608000D01*
X140951560Y-83508000D01*
X140995838Y-83743317D01*
X141134910Y-83959441D01*
X141304202Y-84075113D01*
X141147559Y-84175910D01*
X141002569Y-84388110D01*
X140951560Y-84640000D01*
X140951560Y-85540000D01*
X140995838Y-85775317D01*
X141134910Y-85991441D01*
X141347110Y-86136431D01*
X141483517Y-86164054D01*
X141642224Y-86401576D01*
X141889648Y-86649000D01*
X141172968Y-86649000D01*
X140700354Y-86743009D01*
X140299691Y-87010723D01*
X140165937Y-87210900D01*
X140119100Y-87210900D01*
X139817775Y-87270837D01*
X139683649Y-87360457D01*
X139610321Y-87183427D01*
X139373395Y-87120210D01*
X138609605Y-87884000D01*
X138623748Y-87898143D01*
X138444143Y-88077748D01*
X138430000Y-88063605D01*
X138415858Y-88077748D01*
X138236253Y-87898143D01*
X138250395Y-87884000D01*
X138236253Y-87869858D01*
X138415858Y-87690253D01*
X138430000Y-87704395D01*
X139193790Y-86940605D01*
X139130573Y-86703679D01*
X138625555Y-86525428D01*
X138090767Y-86554007D01*
X137729427Y-86703679D01*
X137666211Y-86940603D01*
X137585698Y-86860090D01*
X137585698Y-83690460D01*
X137541420Y-83455143D01*
X137402348Y-83239019D01*
X137190148Y-83094029D01*
X136938258Y-83043020D01*
X136197870Y-83043020D01*
X134513074Y-81358224D01*
X134257623Y-81187537D01*
X133956298Y-81127600D01*
X132040727Y-81127600D01*
X131999659Y-81086460D01*
X131640370Y-80937270D01*
X131251337Y-80936931D01*
X130891788Y-81085493D01*
X130616460Y-81360341D01*
X130467270Y-81719630D01*
X130466931Y-82108663D01*
X130615493Y-82468212D01*
X130890341Y-82743540D01*
X131249630Y-82892730D01*
X131638663Y-82893069D01*
X131998212Y-82744507D01*
X132040393Y-82702400D01*
X133630146Y-82702400D01*
X133970766Y-83043020D01*
X133731762Y-83043020D01*
X133496445Y-83087298D01*
X133333635Y-83192064D01*
X133190156Y-83094029D01*
X132938266Y-83043020D01*
X131731766Y-83043020D01*
X131496449Y-83087298D01*
X131336231Y-83190396D01*
X131297968Y-83152133D01*
X131064579Y-83055460D01*
X130620770Y-83055460D01*
X130462020Y-83214210D01*
X130462020Y-85163660D01*
X130482020Y-85163660D01*
X130482020Y-85417660D01*
X130462020Y-85417660D01*
X130462020Y-87367110D01*
X130620770Y-87525860D01*
X131064579Y-87525860D01*
X131297968Y-87429187D01*
X131337289Y-87389866D01*
X131479876Y-87487291D01*
X131547616Y-87501009D01*
X131547616Y-87502402D01*
X131516524Y-87533440D01*
X131367334Y-87892729D01*
X131366995Y-88281762D01*
X131515557Y-88641311D01*
X131790405Y-88916639D01*
X132149694Y-89065829D01*
X132538727Y-89066168D01*
X132898276Y-88917606D01*
X133173604Y-88642758D01*
X133322794Y-88283469D01*
X133323133Y-87894436D01*
X133174571Y-87534887D01*
X133140072Y-87500328D01*
X133173583Y-87494022D01*
X133336393Y-87389256D01*
X133479872Y-87487291D01*
X133547612Y-87501009D01*
X133547612Y-88923606D01*
X133301224Y-89169994D01*
X133130537Y-89425445D01*
X133116343Y-89496804D01*
X133006509Y-89567480D01*
X132861519Y-89779680D01*
X132810510Y-90031570D01*
X132810510Y-91832430D01*
X132854788Y-92067747D01*
X132974525Y-92253823D01*
X132841938Y-92386410D01*
X132507950Y-92386410D01*
X132272633Y-92430688D01*
X132056509Y-92569760D01*
X131911519Y-92781960D01*
X131860510Y-93033850D01*
X131860510Y-94834710D01*
X131904788Y-95070027D01*
X132043860Y-95286151D01*
X132181600Y-95380265D01*
X132181600Y-95405822D01*
X132133683Y-95414838D01*
X131917559Y-95553910D01*
X131772569Y-95766110D01*
X131721560Y-96018000D01*
X131721560Y-96768000D01*
X131765838Y-97003317D01*
X131864143Y-97156087D01*
X131772569Y-97290110D01*
X131721560Y-97542000D01*
X131721560Y-98292000D01*
X131765838Y-98527317D01*
X131904910Y-98743441D01*
X132117110Y-98888431D01*
X132369000Y-98939440D01*
X133569000Y-98939440D01*
X133804317Y-98895162D01*
X133907646Y-98828671D01*
X133909302Y-98830327D01*
X134142691Y-98927000D01*
X134583250Y-98927000D01*
X134742000Y-98768250D01*
X134742000Y-98044000D01*
X134996000Y-98044000D01*
X134996000Y-98768250D01*
X135154750Y-98927000D01*
X135595309Y-98927000D01*
X135828698Y-98830327D01*
X135890426Y-98768599D01*
X141139699Y-98768599D01*
X141403281Y-99406515D01*
X141890918Y-99895004D01*
X142528373Y-100159699D01*
X143218599Y-100160301D01*
X143856515Y-99896719D01*
X144345004Y-99409082D01*
X144609699Y-98771627D01*
X144610301Y-98081401D01*
X144346719Y-97443485D01*
X143859082Y-96954996D01*
X143221627Y-96690301D01*
X142531401Y-96689699D01*
X141893485Y-96953281D01*
X141404996Y-97440918D01*
X141140301Y-98078373D01*
X141139699Y-98768599D01*
X135890426Y-98768599D01*
X136007327Y-98651699D01*
X136104000Y-98418310D01*
X136104000Y-98202750D01*
X135945250Y-98044000D01*
X134996000Y-98044000D01*
X134742000Y-98044000D01*
X134722000Y-98044000D01*
X134722000Y-97790000D01*
X134742000Y-97790000D01*
X134742000Y-96520000D01*
X134996000Y-96520000D01*
X134996000Y-97790000D01*
X135945250Y-97790000D01*
X136104000Y-97631250D01*
X136104000Y-97415690D01*
X136007327Y-97182301D01*
X135980026Y-97155000D01*
X136007327Y-97127699D01*
X136104000Y-96894310D01*
X136104000Y-96678750D01*
X135945250Y-96520000D01*
X134996000Y-96520000D01*
X134742000Y-96520000D01*
X134722000Y-96520000D01*
X134722000Y-96266000D01*
X134742000Y-96266000D01*
X134742000Y-95541750D01*
X134596105Y-95395855D01*
X134681000Y-95310960D01*
X134681000Y-94061280D01*
X134935000Y-94061280D01*
X134935000Y-95310960D01*
X135080895Y-95456855D01*
X134996000Y-95541750D01*
X134996000Y-96266000D01*
X135945250Y-96266000D01*
X136104000Y-96107250D01*
X136104000Y-95891690D01*
X136007327Y-95658301D01*
X135828698Y-95479673D01*
X135595309Y-95383000D01*
X135543695Y-95383000D01*
X135567748Y-95373037D01*
X135746377Y-95194409D01*
X135843050Y-94961020D01*
X135843050Y-94220030D01*
X135684300Y-94061280D01*
X134935000Y-94061280D01*
X134681000Y-94061280D01*
X134661000Y-94061280D01*
X134661000Y-93807280D01*
X134681000Y-93807280D01*
X134681000Y-93787280D01*
X134935000Y-93787280D01*
X134935000Y-93807280D01*
X135684300Y-93807280D01*
X135843050Y-93648530D01*
X135843050Y-93243400D01*
X136590060Y-93243400D01*
X136867436Y-93520776D01*
X137122887Y-93691463D01*
X137287521Y-93724211D01*
X137288081Y-93725565D01*
X137666443Y-94104588D01*
X137978258Y-94234065D01*
X137668435Y-94362081D01*
X137289412Y-94740443D01*
X137084034Y-95235049D01*
X137083566Y-95770601D01*
X137288081Y-96265565D01*
X137666443Y-96644588D01*
X138161049Y-96849966D01*
X138696601Y-96850434D01*
X139191565Y-96645919D01*
X139570588Y-96267557D01*
X139775966Y-95772951D01*
X139776201Y-95504000D01*
X139937968Y-95504000D01*
X140031977Y-95976614D01*
X140299691Y-96377277D01*
X140700354Y-96644991D01*
X141172968Y-96739000D01*
X142037032Y-96739000D01*
X142509646Y-96644991D01*
X142910309Y-96377277D01*
X143178023Y-95976614D01*
X143272032Y-95504000D01*
X143178023Y-95031386D01*
X142910309Y-94630723D01*
X142509646Y-94363009D01*
X142037032Y-94269000D01*
X141172968Y-94269000D01*
X140700354Y-94363009D01*
X140299691Y-94630723D01*
X140031977Y-95031386D01*
X139937968Y-95504000D01*
X139776201Y-95504000D01*
X139776434Y-95237399D01*
X139571919Y-94742435D01*
X139193557Y-94363412D01*
X138881742Y-94233935D01*
X139191565Y-94105919D01*
X139570588Y-93727557D01*
X139755761Y-93281609D01*
X140011538Y-93281609D01*
X140015408Y-93319281D01*
X140241920Y-93747474D01*
X140615053Y-94056390D01*
X141078000Y-94199000D01*
X141478000Y-94199000D01*
X141478000Y-93091000D01*
X140136269Y-93091000D01*
X140011538Y-93281609D01*
X139755761Y-93281609D01*
X139775966Y-93232951D01*
X139776434Y-92697399D01*
X139686037Y-92478623D01*
X139700000Y-92481400D01*
X140082759Y-92481400D01*
X140015408Y-92608719D01*
X140011538Y-92646391D01*
X140136269Y-92837000D01*
X141478000Y-92837000D01*
X141478000Y-92817000D01*
X141732000Y-92817000D01*
X141732000Y-92837000D01*
X141752000Y-92837000D01*
X141752000Y-93091000D01*
X141732000Y-93091000D01*
X141732000Y-94199000D01*
X142132000Y-94199000D01*
X142594947Y-94056390D01*
X142968080Y-93747474D01*
X142968945Y-93745840D01*
X143154585Y-94023670D01*
X143640766Y-94348526D01*
X144214255Y-94462600D01*
X144583745Y-94462600D01*
X145157234Y-94348526D01*
X145288000Y-94261151D01*
X145288000Y-98616491D01*
X145190938Y-99104456D01*
X143554456Y-100740938D01*
X143066491Y-100838000D01*
X123633509Y-100838000D01*
X123145544Y-100740938D01*
X121509062Y-99104456D01*
X121442257Y-98768599D01*
X122089699Y-98768599D01*
X122353281Y-99406515D01*
X122840918Y-99895004D01*
X123478373Y-100159699D01*
X124168599Y-100160301D01*
X124806515Y-99896719D01*
X125295004Y-99409082D01*
X125559699Y-98771627D01*
X125560301Y-98081401D01*
X125296719Y-97443485D01*
X124809082Y-96954996D01*
X124171627Y-96690301D01*
X123481401Y-96689699D01*
X122843485Y-96953281D01*
X122354996Y-97440918D01*
X122090301Y-98078373D01*
X122089699Y-98768599D01*
X121442257Y-98768599D01*
X121412000Y-98616491D01*
X121412000Y-87884000D01*
X123300968Y-87884000D01*
X123394977Y-88356614D01*
X123662691Y-88757277D01*
X124063354Y-89024991D01*
X124336040Y-89079232D01*
X124516258Y-89154065D01*
X124334925Y-89228990D01*
X124063354Y-89283009D01*
X123662691Y-89550723D01*
X123394977Y-89951386D01*
X123300968Y-90424000D01*
X123394977Y-90896614D01*
X123662691Y-91297277D01*
X124063354Y-91564991D01*
X124336040Y-91619232D01*
X124516258Y-91694065D01*
X124334925Y-91768990D01*
X124063354Y-91823009D01*
X123662691Y-92090723D01*
X123394977Y-92491386D01*
X123300968Y-92964000D01*
X123394977Y-93436614D01*
X123662691Y-93837277D01*
X124063354Y-94104991D01*
X124336040Y-94159232D01*
X124516258Y-94234065D01*
X124334925Y-94308990D01*
X124063354Y-94363009D01*
X123662691Y-94630723D01*
X123394977Y-95031386D01*
X123300968Y-95504000D01*
X123394977Y-95976614D01*
X123662691Y-96377277D01*
X124063354Y-96644991D01*
X124336040Y-96699232D01*
X124699049Y-96849966D01*
X125234601Y-96850434D01*
X125601075Y-96699010D01*
X125872646Y-96644991D01*
X126273309Y-96377277D01*
X126365762Y-96238910D01*
X126319955Y-96469200D01*
X126434029Y-97042689D01*
X126758885Y-97528870D01*
X127245066Y-97853726D01*
X127818555Y-97967800D01*
X128188045Y-97967800D01*
X128761534Y-97853726D01*
X129247715Y-97528870D01*
X129572571Y-97042689D01*
X129686645Y-96469200D01*
X129572571Y-95895711D01*
X129247715Y-95409530D01*
X128932934Y-95199200D01*
X129247715Y-94988870D01*
X129572571Y-94502689D01*
X129686645Y-93929200D01*
X129572571Y-93355711D01*
X129247715Y-92869530D01*
X128938231Y-92662739D01*
X129354032Y-92291236D01*
X129608009Y-91763991D01*
X129610658Y-91748226D01*
X129489517Y-91516200D01*
X128130300Y-91516200D01*
X128130300Y-91536200D01*
X127876300Y-91536200D01*
X127876300Y-91516200D01*
X126517083Y-91516200D01*
X126395942Y-91748226D01*
X126398591Y-91763991D01*
X126652568Y-92291236D01*
X127068369Y-92662739D01*
X126758885Y-92869530D01*
X126609290Y-93093415D01*
X126635032Y-92964000D01*
X126541023Y-92491386D01*
X126273309Y-92090723D01*
X125872646Y-91823009D01*
X125599960Y-91768768D01*
X125419742Y-91693935D01*
X125601075Y-91619010D01*
X125872646Y-91564991D01*
X126273309Y-91297277D01*
X126420435Y-91077087D01*
X126517083Y-91262200D01*
X127876300Y-91262200D01*
X127876300Y-91242200D01*
X128130300Y-91242200D01*
X128130300Y-91262200D01*
X129489517Y-91262200D01*
X129610658Y-91030174D01*
X129608009Y-91014409D01*
X129354032Y-90487164D01*
X129178455Y-90330293D01*
X129254617Y-90315962D01*
X129470741Y-90176890D01*
X129615731Y-89964690D01*
X129666740Y-89712800D01*
X129666740Y-87985600D01*
X129622462Y-87750283D01*
X129483390Y-87534159D01*
X129271190Y-87389169D01*
X129019300Y-87338160D01*
X126987300Y-87338160D01*
X126751983Y-87382438D01*
X126559856Y-87506068D01*
X126541023Y-87411386D01*
X126273309Y-87010723D01*
X125872646Y-86743009D01*
X125599960Y-86688768D01*
X125236951Y-86538034D01*
X124701399Y-86537566D01*
X124334925Y-86688990D01*
X124063354Y-86743009D01*
X123662691Y-87010723D01*
X123394977Y-87411386D01*
X123300968Y-87884000D01*
X121412000Y-87884000D01*
X121412000Y-85576410D01*
X129096770Y-85576410D01*
X129096770Y-87017170D01*
X129193443Y-87250559D01*
X129372072Y-87429187D01*
X129605461Y-87525860D01*
X130049270Y-87525860D01*
X130208020Y-87367110D01*
X130208020Y-85417660D01*
X129255520Y-85417660D01*
X129096770Y-85576410D01*
X121412000Y-85576410D01*
X121412000Y-83564150D01*
X129096770Y-83564150D01*
X129096770Y-85004910D01*
X129255520Y-85163660D01*
X130208020Y-85163660D01*
X130208020Y-83214210D01*
X130049270Y-83055460D01*
X129605461Y-83055460D01*
X129372072Y-83152133D01*
X129193443Y-83330761D01*
X129096770Y-83564150D01*
X121412000Y-83564150D01*
X121412000Y-79818509D01*
X121431873Y-79718599D01*
X122089699Y-79718599D01*
X122353281Y-80356515D01*
X122840918Y-80845004D01*
X123478373Y-81109699D01*
X124168599Y-81110301D01*
X124806515Y-80846719D01*
X125295004Y-80359082D01*
X125559699Y-79721627D01*
X125560301Y-79031401D01*
X125296719Y-78393485D01*
X124809082Y-77904996D01*
X124171627Y-77640301D01*
X123481401Y-77639699D01*
X122843485Y-77903281D01*
X122354996Y-78390918D01*
X122090301Y-79028373D01*
X122089699Y-79718599D01*
X121431873Y-79718599D01*
X121608824Y-78829005D01*
X122078456Y-78126150D01*
X122576149Y-77628457D01*
X123279005Y-77158825D01*
X124268510Y-76962000D01*
X126137549Y-76962000D01*
X126137549Y-81770982D01*
X126137549Y-81770982D01*
G37*
X126137549Y-81770982D02*
X126181827Y-82006299D01*
X126320899Y-82222423D01*
X126533099Y-82367413D01*
X126784989Y-82418422D01*
X128485011Y-82418422D01*
X128720328Y-82374144D01*
X128936452Y-82235072D01*
X129081442Y-82022872D01*
X129132451Y-81770982D01*
X129132451Y-76962000D01*
X137537577Y-76962000D01*
X137537577Y-81770982D01*
X137581855Y-82006299D01*
X137720927Y-82222423D01*
X137933127Y-82367413D01*
X138185017Y-82418422D01*
X139885039Y-82418422D01*
X140120356Y-82374144D01*
X140336480Y-82235072D01*
X140481470Y-82022872D01*
X140532479Y-81770982D01*
X140532479Y-79718599D01*
X141139699Y-79718599D01*
X141403281Y-80356515D01*
X141890918Y-80845004D01*
X142528373Y-81109699D01*
X143218599Y-81110301D01*
X143856515Y-80846719D01*
X144345004Y-80359082D01*
X144609699Y-79721627D01*
X144610301Y-79031401D01*
X144346719Y-78393485D01*
X143859082Y-77904996D01*
X143221627Y-77640301D01*
X142531401Y-77639699D01*
X141893485Y-77903281D01*
X141404996Y-78390918D01*
X141140301Y-79028373D01*
X141139699Y-79718599D01*
X140532479Y-79718599D01*
X140532479Y-76962000D01*
X142431491Y-76962000D01*
X143420995Y-77158824D01*
X144123850Y-77628456D01*
X144621543Y-78126149D01*
X145091175Y-78829005D01*
X145288000Y-79818510D01*
X145288000Y-82040389D01*
X145125309Y-81973000D01*
X144684750Y-81973000D01*
X144526000Y-82131750D01*
X144526000Y-82931000D01*
X144546000Y-82931000D01*
X144546000Y-83185000D01*
X144526000Y-83185000D01*
X144526000Y-83205000D01*
X144272000Y-83205000D01*
X144272000Y-83185000D01*
X144252000Y-83185000D01*
X144252000Y-82931000D01*
X144272000Y-82931000D01*
X144272000Y-82131750D01*
X144113250Y-81973000D01*
X143672691Y-81973000D01*
X143439302Y-82069673D01*
X143298064Y-82210910D01*
X143263090Y-82156559D01*
X143050890Y-82011569D01*
X142799000Y-81960560D01*
X141599000Y-81960560D01*
X141363683Y-82004838D01*
X141147559Y-82143910D01*
X141002569Y-82356110D01*
X140951560Y-82608000D01*
X140951560Y-83508000D01*
X140995838Y-83743317D01*
X141134910Y-83959441D01*
X141304202Y-84075113D01*
X141147559Y-84175910D01*
X141002569Y-84388110D01*
X140951560Y-84640000D01*
X140951560Y-85540000D01*
X140995838Y-85775317D01*
X141134910Y-85991441D01*
X141347110Y-86136431D01*
X141483517Y-86164054D01*
X141642224Y-86401576D01*
X141889648Y-86649000D01*
X141172968Y-86649000D01*
X140700354Y-86743009D01*
X140299691Y-87010723D01*
X140165937Y-87210900D01*
X140119100Y-87210900D01*
X139817775Y-87270837D01*
X139683649Y-87360457D01*
X139610321Y-87183427D01*
X139373395Y-87120210D01*
X138609605Y-87884000D01*
X138623748Y-87898143D01*
X138444143Y-88077748D01*
X138430000Y-88063605D01*
X138415858Y-88077748D01*
X138236253Y-87898143D01*
X138250395Y-87884000D01*
X138236253Y-87869858D01*
X138415858Y-87690253D01*
X138430000Y-87704395D01*
X139193790Y-86940605D01*
X139130573Y-86703679D01*
X138625555Y-86525428D01*
X138090767Y-86554007D01*
X137729427Y-86703679D01*
X137666211Y-86940603D01*
X137585698Y-86860090D01*
X137585698Y-83690460D01*
X137541420Y-83455143D01*
X137402348Y-83239019D01*
X137190148Y-83094029D01*
X136938258Y-83043020D01*
X136197870Y-83043020D01*
X134513074Y-81358224D01*
X134257623Y-81187537D01*
X133956298Y-81127600D01*
X132040727Y-81127600D01*
X131999659Y-81086460D01*
X131640370Y-80937270D01*
X131251337Y-80936931D01*
X130891788Y-81085493D01*
X130616460Y-81360341D01*
X130467270Y-81719630D01*
X130466931Y-82108663D01*
X130615493Y-82468212D01*
X130890341Y-82743540D01*
X131249630Y-82892730D01*
X131638663Y-82893069D01*
X131998212Y-82744507D01*
X132040393Y-82702400D01*
X133630146Y-82702400D01*
X133970766Y-83043020D01*
X133731762Y-83043020D01*
X133496445Y-83087298D01*
X133333635Y-83192064D01*
X133190156Y-83094029D01*
X132938266Y-83043020D01*
X131731766Y-83043020D01*
X131496449Y-83087298D01*
X131336231Y-83190396D01*
X131297968Y-83152133D01*
X131064579Y-83055460D01*
X130620770Y-83055460D01*
X130462020Y-83214210D01*
X130462020Y-85163660D01*
X130482020Y-85163660D01*
X130482020Y-85417660D01*
X130462020Y-85417660D01*
X130462020Y-87367110D01*
X130620770Y-87525860D01*
X131064579Y-87525860D01*
X131297968Y-87429187D01*
X131337289Y-87389866D01*
X131479876Y-87487291D01*
X131547616Y-87501009D01*
X131547616Y-87502402D01*
X131516524Y-87533440D01*
X131367334Y-87892729D01*
X131366995Y-88281762D01*
X131515557Y-88641311D01*
X131790405Y-88916639D01*
X132149694Y-89065829D01*
X132538727Y-89066168D01*
X132898276Y-88917606D01*
X133173604Y-88642758D01*
X133322794Y-88283469D01*
X133323133Y-87894436D01*
X133174571Y-87534887D01*
X133140072Y-87500328D01*
X133173583Y-87494022D01*
X133336393Y-87389256D01*
X133479872Y-87487291D01*
X133547612Y-87501009D01*
X133547612Y-88923606D01*
X133301224Y-89169994D01*
X133130537Y-89425445D01*
X133116343Y-89496804D01*
X133006509Y-89567480D01*
X132861519Y-89779680D01*
X132810510Y-90031570D01*
X132810510Y-91832430D01*
X132854788Y-92067747D01*
X132974525Y-92253823D01*
X132841938Y-92386410D01*
X132507950Y-92386410D01*
X132272633Y-92430688D01*
X132056509Y-92569760D01*
X131911519Y-92781960D01*
X131860510Y-93033850D01*
X131860510Y-94834710D01*
X131904788Y-95070027D01*
X132043860Y-95286151D01*
X132181600Y-95380265D01*
X132181600Y-95405822D01*
X132133683Y-95414838D01*
X131917559Y-95553910D01*
X131772569Y-95766110D01*
X131721560Y-96018000D01*
X131721560Y-96768000D01*
X131765838Y-97003317D01*
X131864143Y-97156087D01*
X131772569Y-97290110D01*
X131721560Y-97542000D01*
X131721560Y-98292000D01*
X131765838Y-98527317D01*
X131904910Y-98743441D01*
X132117110Y-98888431D01*
X132369000Y-98939440D01*
X133569000Y-98939440D01*
X133804317Y-98895162D01*
X133907646Y-98828671D01*
X133909302Y-98830327D01*
X134142691Y-98927000D01*
X134583250Y-98927000D01*
X134742000Y-98768250D01*
X134742000Y-98044000D01*
X134996000Y-98044000D01*
X134996000Y-98768250D01*
X135154750Y-98927000D01*
X135595309Y-98927000D01*
X135828698Y-98830327D01*
X135890426Y-98768599D01*
X141139699Y-98768599D01*
X141403281Y-99406515D01*
X141890918Y-99895004D01*
X142528373Y-100159699D01*
X143218599Y-100160301D01*
X143856515Y-99896719D01*
X144345004Y-99409082D01*
X144609699Y-98771627D01*
X144610301Y-98081401D01*
X144346719Y-97443485D01*
X143859082Y-96954996D01*
X143221627Y-96690301D01*
X142531401Y-96689699D01*
X141893485Y-96953281D01*
X141404996Y-97440918D01*
X141140301Y-98078373D01*
X141139699Y-98768599D01*
X135890426Y-98768599D01*
X136007327Y-98651699D01*
X136104000Y-98418310D01*
X136104000Y-98202750D01*
X135945250Y-98044000D01*
X134996000Y-98044000D01*
X134742000Y-98044000D01*
X134722000Y-98044000D01*
X134722000Y-97790000D01*
X134742000Y-97790000D01*
X134742000Y-96520000D01*
X134996000Y-96520000D01*
X134996000Y-97790000D01*
X135945250Y-97790000D01*
X136104000Y-97631250D01*
X136104000Y-97415690D01*
X136007327Y-97182301D01*
X135980026Y-97155000D01*
X136007327Y-97127699D01*
X136104000Y-96894310D01*
X136104000Y-96678750D01*
X135945250Y-96520000D01*
X134996000Y-96520000D01*
X134742000Y-96520000D01*
X134722000Y-96520000D01*
X134722000Y-96266000D01*
X134742000Y-96266000D01*
X134742000Y-95541750D01*
X134596105Y-95395855D01*
X134681000Y-95310960D01*
X134681000Y-94061280D01*
X134935000Y-94061280D01*
X134935000Y-95310960D01*
X135080895Y-95456855D01*
X134996000Y-95541750D01*
X134996000Y-96266000D01*
X135945250Y-96266000D01*
X136104000Y-96107250D01*
X136104000Y-95891690D01*
X136007327Y-95658301D01*
X135828698Y-95479673D01*
X135595309Y-95383000D01*
X135543695Y-95383000D01*
X135567748Y-95373037D01*
X135746377Y-95194409D01*
X135843050Y-94961020D01*
X135843050Y-94220030D01*
X135684300Y-94061280D01*
X134935000Y-94061280D01*
X134681000Y-94061280D01*
X134661000Y-94061280D01*
X134661000Y-93807280D01*
X134681000Y-93807280D01*
X134681000Y-93787280D01*
X134935000Y-93787280D01*
X134935000Y-93807280D01*
X135684300Y-93807280D01*
X135843050Y-93648530D01*
X135843050Y-93243400D01*
X136590060Y-93243400D01*
X136867436Y-93520776D01*
X137122887Y-93691463D01*
X137287521Y-93724211D01*
X137288081Y-93725565D01*
X137666443Y-94104588D01*
X137978258Y-94234065D01*
X137668435Y-94362081D01*
X137289412Y-94740443D01*
X137084034Y-95235049D01*
X137083566Y-95770601D01*
X137288081Y-96265565D01*
X137666443Y-96644588D01*
X138161049Y-96849966D01*
X138696601Y-96850434D01*
X139191565Y-96645919D01*
X139570588Y-96267557D01*
X139775966Y-95772951D01*
X139776201Y-95504000D01*
X139937968Y-95504000D01*
X140031977Y-95976614D01*
X140299691Y-96377277D01*
X140700354Y-96644991D01*
X141172968Y-96739000D01*
X142037032Y-96739000D01*
X142509646Y-96644991D01*
X142910309Y-96377277D01*
X143178023Y-95976614D01*
X143272032Y-95504000D01*
X143178023Y-95031386D01*
X142910309Y-94630723D01*
X142509646Y-94363009D01*
X142037032Y-94269000D01*
X141172968Y-94269000D01*
X140700354Y-94363009D01*
X140299691Y-94630723D01*
X140031977Y-95031386D01*
X139937968Y-95504000D01*
X139776201Y-95504000D01*
X139776434Y-95237399D01*
X139571919Y-94742435D01*
X139193557Y-94363412D01*
X138881742Y-94233935D01*
X139191565Y-94105919D01*
X139570588Y-93727557D01*
X139755761Y-93281609D01*
X140011538Y-93281609D01*
X140015408Y-93319281D01*
X140241920Y-93747474D01*
X140615053Y-94056390D01*
X141078000Y-94199000D01*
X141478000Y-94199000D01*
X141478000Y-93091000D01*
X140136269Y-93091000D01*
X140011538Y-93281609D01*
X139755761Y-93281609D01*
X139775966Y-93232951D01*
X139776434Y-92697399D01*
X139686037Y-92478623D01*
X139700000Y-92481400D01*
X140082759Y-92481400D01*
X140015408Y-92608719D01*
X140011538Y-92646391D01*
X140136269Y-92837000D01*
X141478000Y-92837000D01*
X141478000Y-92817000D01*
X141732000Y-92817000D01*
X141732000Y-92837000D01*
X141752000Y-92837000D01*
X141752000Y-93091000D01*
X141732000Y-93091000D01*
X141732000Y-94199000D01*
X142132000Y-94199000D01*
X142594947Y-94056390D01*
X142968080Y-93747474D01*
X142968945Y-93745840D01*
X143154585Y-94023670D01*
X143640766Y-94348526D01*
X144214255Y-94462600D01*
X144583745Y-94462600D01*
X145157234Y-94348526D01*
X145288000Y-94261151D01*
X145288000Y-98616491D01*
X145190938Y-99104456D01*
X143554456Y-100740938D01*
X143066491Y-100838000D01*
X123633509Y-100838000D01*
X123145544Y-100740938D01*
X121509062Y-99104456D01*
X121442257Y-98768599D01*
X122089699Y-98768599D01*
X122353281Y-99406515D01*
X122840918Y-99895004D01*
X123478373Y-100159699D01*
X124168599Y-100160301D01*
X124806515Y-99896719D01*
X125295004Y-99409082D01*
X125559699Y-98771627D01*
X125560301Y-98081401D01*
X125296719Y-97443485D01*
X124809082Y-96954996D01*
X124171627Y-96690301D01*
X123481401Y-96689699D01*
X122843485Y-96953281D01*
X122354996Y-97440918D01*
X122090301Y-98078373D01*
X122089699Y-98768599D01*
X121442257Y-98768599D01*
X121412000Y-98616491D01*
X121412000Y-87884000D01*
X123300968Y-87884000D01*
X123394977Y-88356614D01*
X123662691Y-88757277D01*
X124063354Y-89024991D01*
X124336040Y-89079232D01*
X124516258Y-89154065D01*
X124334925Y-89228990D01*
X124063354Y-89283009D01*
X123662691Y-89550723D01*
X123394977Y-89951386D01*
X123300968Y-90424000D01*
X123394977Y-90896614D01*
X123662691Y-91297277D01*
X124063354Y-91564991D01*
X124336040Y-91619232D01*
X124516258Y-91694065D01*
X124334925Y-91768990D01*
X124063354Y-91823009D01*
X123662691Y-92090723D01*
X123394977Y-92491386D01*
X123300968Y-92964000D01*
X123394977Y-93436614D01*
X123662691Y-93837277D01*
X124063354Y-94104991D01*
X124336040Y-94159232D01*
X124516258Y-94234065D01*
X124334925Y-94308990D01*
X124063354Y-94363009D01*
X123662691Y-94630723D01*
X123394977Y-95031386D01*
X123300968Y-95504000D01*
X123394977Y-95976614D01*
X123662691Y-96377277D01*
X124063354Y-96644991D01*
X124336040Y-96699232D01*
X124699049Y-96849966D01*
X125234601Y-96850434D01*
X125601075Y-96699010D01*
X125872646Y-96644991D01*
X126273309Y-96377277D01*
X126365762Y-96238910D01*
X126319955Y-96469200D01*
X126434029Y-97042689D01*
X126758885Y-97528870D01*
X127245066Y-97853726D01*
X127818555Y-97967800D01*
X128188045Y-97967800D01*
X128761534Y-97853726D01*
X129247715Y-97528870D01*
X129572571Y-97042689D01*
X129686645Y-96469200D01*
X129572571Y-95895711D01*
X129247715Y-95409530D01*
X128932934Y-95199200D01*
X129247715Y-94988870D01*
X129572571Y-94502689D01*
X129686645Y-93929200D01*
X129572571Y-93355711D01*
X129247715Y-92869530D01*
X128938231Y-92662739D01*
X129354032Y-92291236D01*
X129608009Y-91763991D01*
X129610658Y-91748226D01*
X129489517Y-91516200D01*
X128130300Y-91516200D01*
X128130300Y-91536200D01*
X127876300Y-91536200D01*
X127876300Y-91516200D01*
X126517083Y-91516200D01*
X126395942Y-91748226D01*
X126398591Y-91763991D01*
X126652568Y-92291236D01*
X127068369Y-92662739D01*
X126758885Y-92869530D01*
X126609290Y-93093415D01*
X126635032Y-92964000D01*
X126541023Y-92491386D01*
X126273309Y-92090723D01*
X125872646Y-91823009D01*
X125599960Y-91768768D01*
X125419742Y-91693935D01*
X125601075Y-91619010D01*
X125872646Y-91564991D01*
X126273309Y-91297277D01*
X126420435Y-91077087D01*
X126517083Y-91262200D01*
X127876300Y-91262200D01*
X127876300Y-91242200D01*
X128130300Y-91242200D01*
X128130300Y-91262200D01*
X129489517Y-91262200D01*
X129610658Y-91030174D01*
X129608009Y-91014409D01*
X129354032Y-90487164D01*
X129178455Y-90330293D01*
X129254617Y-90315962D01*
X129470741Y-90176890D01*
X129615731Y-89964690D01*
X129666740Y-89712800D01*
X129666740Y-87985600D01*
X129622462Y-87750283D01*
X129483390Y-87534159D01*
X129271190Y-87389169D01*
X129019300Y-87338160D01*
X126987300Y-87338160D01*
X126751983Y-87382438D01*
X126559856Y-87506068D01*
X126541023Y-87411386D01*
X126273309Y-87010723D01*
X125872646Y-86743009D01*
X125599960Y-86688768D01*
X125236951Y-86538034D01*
X124701399Y-86537566D01*
X124334925Y-86688990D01*
X124063354Y-86743009D01*
X123662691Y-87010723D01*
X123394977Y-87411386D01*
X123300968Y-87884000D01*
X121412000Y-87884000D01*
X121412000Y-85576410D01*
X129096770Y-85576410D01*
X129096770Y-87017170D01*
X129193443Y-87250559D01*
X129372072Y-87429187D01*
X129605461Y-87525860D01*
X130049270Y-87525860D01*
X130208020Y-87367110D01*
X130208020Y-85417660D01*
X129255520Y-85417660D01*
X129096770Y-85576410D01*
X121412000Y-85576410D01*
X121412000Y-83564150D01*
X129096770Y-83564150D01*
X129096770Y-85004910D01*
X129255520Y-85163660D01*
X130208020Y-85163660D01*
X130208020Y-83214210D01*
X130049270Y-83055460D01*
X129605461Y-83055460D01*
X129372072Y-83152133D01*
X129193443Y-83330761D01*
X129096770Y-83564150D01*
X121412000Y-83564150D01*
X121412000Y-79818509D01*
X121431873Y-79718599D01*
X122089699Y-79718599D01*
X122353281Y-80356515D01*
X122840918Y-80845004D01*
X123478373Y-81109699D01*
X124168599Y-81110301D01*
X124806515Y-80846719D01*
X125295004Y-80359082D01*
X125559699Y-79721627D01*
X125560301Y-79031401D01*
X125296719Y-78393485D01*
X124809082Y-77904996D01*
X124171627Y-77640301D01*
X123481401Y-77639699D01*
X122843485Y-77903281D01*
X122354996Y-78390918D01*
X122090301Y-79028373D01*
X122089699Y-79718599D01*
X121431873Y-79718599D01*
X121608824Y-78829005D01*
X122078456Y-78126150D01*
X122576149Y-77628457D01*
X123279005Y-77158825D01*
X124268510Y-76962000D01*
X126137549Y-76962000D01*
X126137549Y-81770982D01*
G36*
X135261000Y-87538691D02*
X135261000Y-87979250D01*
X135419750Y-88138000D01*
X136144000Y-88138000D01*
X136144000Y-88118000D01*
X136398000Y-88118000D01*
X136398000Y-88138000D01*
X136418000Y-88138000D01*
X136418000Y-88392000D01*
X136398000Y-88392000D01*
X136398000Y-88412000D01*
X136144000Y-88412000D01*
X136144000Y-88392000D01*
X135419750Y-88392000D01*
X135261000Y-88550750D01*
X135261000Y-88991309D01*
X135357673Y-89224698D01*
X135359043Y-89226068D01*
X135299569Y-89313110D01*
X135291801Y-89351470D01*
X135183670Y-89306570D01*
X135135944Y-89306528D01*
X135153400Y-89218770D01*
X135122412Y-89062982D01*
X135122412Y-87503650D01*
X135173579Y-87494022D01*
X135317995Y-87401093D01*
X135261000Y-87538691D01*
X135261000Y-87538691D01*
G37*
X135261000Y-87538691D02*
X135261000Y-87979250D01*
X135419750Y-88138000D01*
X136144000Y-88138000D01*
X136144000Y-88118000D01*
X136398000Y-88118000D01*
X136398000Y-88138000D01*
X136418000Y-88138000D01*
X136418000Y-88392000D01*
X136398000Y-88392000D01*
X136398000Y-88412000D01*
X136144000Y-88412000D01*
X136144000Y-88392000D01*
X135419750Y-88392000D01*
X135261000Y-88550750D01*
X135261000Y-88991309D01*
X135357673Y-89224698D01*
X135359043Y-89226068D01*
X135299569Y-89313110D01*
X135291801Y-89351470D01*
X135183670Y-89306570D01*
X135135944Y-89306528D01*
X135153400Y-89218770D01*
X135122412Y-89062982D01*
X135122412Y-87503650D01*
X135173579Y-87494022D01*
X135317995Y-87401093D01*
X135261000Y-87538691D01*
M02*
