M48
;DRILL file {KiCad 4.0.2+dfsg1-stable} date Sat 29 Oct 2016 09:34:11 PM EDT
;FORMAT={-:-/ absolute / inch / decimal}
FMAT,2
INCH,TZ
T1C0.013
T2C0.031
T3C0.040
%
G90
G05
M72
T1
X5.175Y-3.225
X5.2104Y-3.468
X5.3145Y-3.5545
T2
X4.92Y-3.46
X4.92Y-3.46
X4.92Y-3.56
X4.92Y-3.56
X4.92Y-3.66
X4.92Y-3.66
X4.92Y-3.76
X4.92Y-3.76
X5.45Y-3.46
X5.45Y-3.56
X5.45Y-3.66
X5.45Y-3.76
X5.575Y-3.46
X5.575Y-3.56
X5.575Y-3.66
X5.575Y-3.76
T3
X5.0395Y-3.498
X5.0395Y-3.598
X5.0395Y-3.698
X5.0395Y-3.798
X5.685Y-3.46
X5.685Y-3.56
X5.685Y-3.66
T0
M30
