G04 #@! TF.FileFunction,Copper,L1,Top,Signal*
%FSLAX46Y46*%
G04 Gerber Fmt 4.6, Leading zero omitted, Abs format (unit mm)*
G04 Created by KiCad (PCBNEW 4.0.2+dfsg1-stable) date Sat 29 Oct 2016 09:34:00 PM EDT*
%MOMM*%
G01*
G04 APERTURE LIST*
%ADD10C,0.090000*%
%ADD11R,0.750000X1.200000*%
%ADD12R,1.200000X0.750000*%
%ADD13R,0.800100X1.800860*%
%ADD14R,1.060000X0.650000*%
%ADD15O,2.000000X1.200000*%
%ADD16R,2.032000X1.727200*%
%ADD17O,2.032000X1.727200*%
%ADD18C,1.422400*%
%ADD19C,0.685800*%
%ADD20C,0.304800*%
%ADD21C,0.254000*%
G04 APERTURE END LIST*
D10*
D11*
X134366000Y-77470000D03*
X134366000Y-79370000D03*
D12*
X136266000Y-81026000D03*
X134366000Y-81026000D03*
X140076000Y-81026000D03*
X138176000Y-81026000D03*
X143886000Y-82931000D03*
X141986000Y-82931000D03*
X143891000Y-84455000D03*
X141991000Y-84455000D03*
D13*
X130937000Y-77978000D03*
X129037000Y-77978000D03*
X129987000Y-80980280D03*
D14*
X136484000Y-77470000D03*
X136484000Y-78420000D03*
X136484000Y-79370000D03*
X138684000Y-79370000D03*
X138684000Y-77470000D03*
D15*
X141605000Y-87884000D03*
X124968000Y-87884000D03*
X141605000Y-90424000D03*
X124968000Y-90424000D03*
X141605000Y-92964000D03*
X124968000Y-92964000D03*
X141605000Y-95504000D03*
X124968000Y-95504000D03*
D16*
X144399000Y-87884000D03*
D17*
X144399000Y-90424000D03*
X144399000Y-92964000D03*
D18*
X124968000Y-95504000D03*
X138430000Y-95504000D03*
X124968000Y-92964000D03*
X138430000Y-92964000D03*
X124968000Y-90424000D03*
X138430000Y-90424000D03*
X124968000Y-87884000D03*
X138430000Y-87884000D03*
D16*
X128003300Y-88849200D03*
D17*
X128003300Y-91389200D03*
X128003300Y-93929200D03*
X128003300Y-96469200D03*
D19*
X132345064Y-88088099D03*
X131445000Y-81915000D03*
X134988300Y-90284300D03*
D20*
X141991000Y-84455000D02*
X141991000Y-82936000D01*
X141991000Y-82936000D02*
X141986000Y-82931000D01*
X141991000Y-84455000D02*
X141766000Y-84455000D01*
X141766000Y-84455000D02*
X138430000Y-87791000D01*
X138430000Y-87791000D02*
X138430000Y-87884000D01*
X130937000Y-77978000D02*
X130937000Y-78478380D01*
X133686200Y-79370000D02*
X134366000Y-79370000D01*
X130937000Y-78478380D02*
X131828620Y-79370000D01*
X131828620Y-79370000D02*
X133686200Y-79370000D01*
X138176000Y-81026000D02*
X138176000Y-80346200D01*
X138176000Y-80346200D02*
X137541000Y-79711200D01*
X137541000Y-79711200D02*
X137541000Y-78642200D01*
X137541000Y-78642200D02*
X137318800Y-78420000D01*
X137318800Y-78420000D02*
X136484000Y-78420000D01*
X134366000Y-81026000D02*
X134366000Y-79370000D01*
X134366000Y-79370000D02*
X135316000Y-78420000D01*
X135316000Y-78420000D02*
X136484000Y-78420000D01*
X132829997Y-88088099D02*
X132345064Y-88088099D01*
X138430000Y-90424000D02*
X136094099Y-88088099D01*
X136094099Y-88088099D02*
X132829997Y-88088099D01*
X129987000Y-80980280D02*
X130510280Y-80980280D01*
X130510280Y-80980280D02*
X131445000Y-81915000D01*
X136484000Y-77470000D02*
X138684000Y-77470000D01*
X134366000Y-77470000D02*
X136484000Y-77470000D01*
X129228770Y-76581000D02*
X132797200Y-76581000D01*
X132797200Y-76581000D02*
X133686200Y-77470000D01*
X133686200Y-77470000D02*
X134366000Y-77470000D01*
X129037000Y-77978000D02*
X129037000Y-76772770D01*
X129037000Y-76772770D02*
X129228770Y-76581000D01*
X136266000Y-81026000D02*
X136266000Y-79588000D01*
X136266000Y-79588000D02*
X136484000Y-79370000D01*
X143891000Y-84455000D02*
X143891000Y-82936000D01*
X143891000Y-82936000D02*
X143886000Y-82931000D01*
X130759200Y-90284300D02*
X134988300Y-90284300D01*
X128003300Y-88849200D02*
X129324100Y-88849200D01*
X129324100Y-88849200D02*
X130759200Y-90284300D01*
X141605000Y-87884000D02*
X141605000Y-87122000D01*
X141605000Y-87122000D02*
X143891000Y-84836000D01*
X143891000Y-84836000D02*
X143891000Y-84455000D01*
X141605000Y-87884000D02*
X141605000Y-87503000D01*
X143886000Y-82931000D02*
X143886000Y-82251200D01*
X143886000Y-82251200D02*
X142660800Y-81026000D01*
X142660800Y-81026000D02*
X140980800Y-81026000D01*
X140980800Y-81026000D02*
X140076000Y-81026000D01*
X138684000Y-79370000D02*
X138684000Y-79634000D01*
X138684000Y-79634000D02*
X140076000Y-81026000D01*
X128003300Y-93929200D02*
X128155700Y-93929200D01*
X128155700Y-93929200D02*
X130568699Y-91516201D01*
X130568699Y-91516201D02*
X139207999Y-91516201D01*
X139207999Y-91516201D02*
X140300200Y-90424000D01*
X140300200Y-90424000D02*
X141605000Y-90424000D01*
D21*
G36*
X127989510Y-77077570D02*
X127989510Y-78878430D01*
X128033788Y-79113747D01*
X128172860Y-79329871D01*
X128385060Y-79474861D01*
X128636950Y-79525870D01*
X129275202Y-79525870D01*
X129135509Y-79615760D01*
X128990519Y-79827960D01*
X128939510Y-80079850D01*
X128939510Y-81880710D01*
X128983788Y-82116027D01*
X129122860Y-82332151D01*
X129335060Y-82477141D01*
X129586950Y-82528150D01*
X130387050Y-82528150D01*
X130622367Y-82483872D01*
X130627700Y-82480440D01*
X130890341Y-82743540D01*
X131249630Y-82892730D01*
X131638663Y-82893069D01*
X131998212Y-82744507D01*
X132273540Y-82469659D01*
X132290136Y-82429690D01*
X140751000Y-82429690D01*
X140751000Y-82645250D01*
X140909750Y-82804000D01*
X141859000Y-82804000D01*
X141859000Y-82079750D01*
X141700250Y-81921000D01*
X141259691Y-81921000D01*
X141026302Y-82017673D01*
X140847673Y-82196301D01*
X140751000Y-82429690D01*
X132290136Y-82429690D01*
X132422730Y-82110370D01*
X132423069Y-81721337D01*
X132274507Y-81361788D01*
X132224557Y-81311750D01*
X133131000Y-81311750D01*
X133131000Y-81527310D01*
X133227673Y-81760699D01*
X133406302Y-81939327D01*
X133639691Y-82036000D01*
X134080250Y-82036000D01*
X134239000Y-81877250D01*
X134239000Y-81153000D01*
X133289750Y-81153000D01*
X133131000Y-81311750D01*
X132224557Y-81311750D01*
X131999659Y-81086460D01*
X131640370Y-80937270D01*
X131580770Y-80937218D01*
X131168242Y-80524690D01*
X133131000Y-80524690D01*
X133131000Y-80740250D01*
X133289750Y-80899000D01*
X134239000Y-80899000D01*
X134239000Y-79497000D01*
X133514750Y-79497000D01*
X133356000Y-79655750D01*
X133356000Y-80096309D01*
X133375526Y-80143449D01*
X133227673Y-80291301D01*
X133131000Y-80524690D01*
X131168242Y-80524690D01*
X131067056Y-80423504D01*
X131034490Y-80401744D01*
X131034490Y-80079850D01*
X130990212Y-79844533D01*
X130851140Y-79628409D01*
X130664082Y-79500598D01*
X130810000Y-79354680D01*
X130810000Y-78105000D01*
X131064000Y-78105000D01*
X131064000Y-79354680D01*
X131222750Y-79513430D01*
X131463359Y-79513430D01*
X131696748Y-79416757D01*
X131875377Y-79238129D01*
X131972050Y-79004740D01*
X131972050Y-78263750D01*
X131813300Y-78105000D01*
X131064000Y-78105000D01*
X130810000Y-78105000D01*
X130790000Y-78105000D01*
X130790000Y-77851000D01*
X130810000Y-77851000D01*
X130810000Y-77831000D01*
X131064000Y-77831000D01*
X131064000Y-77851000D01*
X131813300Y-77851000D01*
X131972050Y-77692250D01*
X131972050Y-77368400D01*
X132471048Y-77368400D01*
X133129424Y-78026776D01*
X133365052Y-78184217D01*
X133387838Y-78305317D01*
X133454329Y-78408646D01*
X133452673Y-78410302D01*
X133356000Y-78643691D01*
X133356000Y-79084250D01*
X133514750Y-79243000D01*
X134239000Y-79243000D01*
X134239000Y-79223000D01*
X134493000Y-79223000D01*
X134493000Y-79243000D01*
X134513000Y-79243000D01*
X134513000Y-79497000D01*
X134493000Y-79497000D01*
X134493000Y-80899000D01*
X134513000Y-80899000D01*
X134513000Y-81153000D01*
X134493000Y-81153000D01*
X134493000Y-81877250D01*
X134651750Y-82036000D01*
X135092309Y-82036000D01*
X135325698Y-81939327D01*
X135327068Y-81937957D01*
X135414110Y-81997431D01*
X135666000Y-82048440D01*
X136866000Y-82048440D01*
X137101317Y-82004162D01*
X137210731Y-81933756D01*
X137216302Y-81939327D01*
X137449691Y-82036000D01*
X137890250Y-82036000D01*
X138049000Y-81877250D01*
X138049000Y-81153000D01*
X138029000Y-81153000D01*
X138029000Y-80899000D01*
X138049000Y-80899000D01*
X138049000Y-80879000D01*
X138303000Y-80879000D01*
X138303000Y-80899000D01*
X138323000Y-80899000D01*
X138323000Y-81153000D01*
X138303000Y-81153000D01*
X138303000Y-81877250D01*
X138461750Y-82036000D01*
X138902309Y-82036000D01*
X139135698Y-81939327D01*
X139137068Y-81937957D01*
X139224110Y-81997431D01*
X139476000Y-82048440D01*
X140676000Y-82048440D01*
X140911317Y-82004162D01*
X141127441Y-81865090D01*
X141162759Y-81813400D01*
X142334648Y-81813400D01*
X142442248Y-81921000D01*
X142271750Y-81921000D01*
X142113000Y-82079750D01*
X142113000Y-82804000D01*
X142133000Y-82804000D01*
X142133000Y-83058000D01*
X142113000Y-83058000D01*
X142113000Y-83782250D01*
X142118000Y-83787250D01*
X142118000Y-84328000D01*
X142138000Y-84328000D01*
X142138000Y-84582000D01*
X142118000Y-84582000D01*
X142118000Y-85306250D01*
X142212599Y-85400849D01*
X141048224Y-86565224D01*
X140964545Y-86690458D01*
X140700354Y-86743009D01*
X140299691Y-87010723D01*
X140031977Y-87411386D01*
X139937968Y-87884000D01*
X140031977Y-88356614D01*
X140299691Y-88757277D01*
X140700354Y-89024991D01*
X141172968Y-89119000D01*
X142037032Y-89119000D01*
X142509646Y-89024991D01*
X142756694Y-88859919D01*
X142779838Y-88982917D01*
X142918910Y-89199041D01*
X143131110Y-89344031D01*
X143172439Y-89352400D01*
X143154585Y-89364330D01*
X142970175Y-89640319D01*
X142910309Y-89550723D01*
X142509646Y-89283009D01*
X142037032Y-89189000D01*
X141172968Y-89189000D01*
X140700354Y-89283009D01*
X140299691Y-89550723D01*
X140233437Y-89649880D01*
X139998875Y-89696537D01*
X139743424Y-89867224D01*
X139681941Y-89928707D01*
X139571919Y-89662435D01*
X139193557Y-89283412D01*
X138897963Y-89160671D01*
X139130573Y-89064321D01*
X139193790Y-88827395D01*
X138430000Y-88063605D01*
X138415858Y-88077748D01*
X138236253Y-87898143D01*
X138250395Y-87884000D01*
X138609605Y-87884000D01*
X139373395Y-88647790D01*
X139610321Y-88584573D01*
X139788572Y-88079555D01*
X139759993Y-87544767D01*
X139610321Y-87183427D01*
X139373395Y-87120210D01*
X138609605Y-87884000D01*
X138250395Y-87884000D01*
X137486605Y-87120210D01*
X137249679Y-87183427D01*
X137071428Y-87688445D01*
X137086301Y-87966749D01*
X136650875Y-87531323D01*
X136395424Y-87360636D01*
X136094099Y-87300699D01*
X132940791Y-87300699D01*
X132899723Y-87259559D01*
X132540434Y-87110369D01*
X132151401Y-87110030D01*
X131791852Y-87258592D01*
X131516524Y-87533440D01*
X131367334Y-87892729D01*
X131366995Y-88281762D01*
X131515557Y-88641311D01*
X131790405Y-88916639D01*
X132149694Y-89065829D01*
X132538727Y-89066168D01*
X132898276Y-88917606D01*
X132940457Y-88875499D01*
X135767947Y-88875499D01*
X137084002Y-90191554D01*
X137083566Y-90690601D01*
X137099350Y-90728801D01*
X135862582Y-90728801D01*
X135966030Y-90479670D01*
X135966369Y-90090637D01*
X135817807Y-89731088D01*
X135542959Y-89455760D01*
X135183670Y-89306570D01*
X134794637Y-89306231D01*
X134435088Y-89454793D01*
X134392907Y-89496900D01*
X131085352Y-89496900D01*
X129880876Y-88292424D01*
X129666740Y-88149343D01*
X129666740Y-87985600D01*
X129622462Y-87750283D01*
X129483390Y-87534159D01*
X129271190Y-87389169D01*
X129019300Y-87338160D01*
X126987300Y-87338160D01*
X126751983Y-87382438D01*
X126559856Y-87506068D01*
X126541023Y-87411386D01*
X126273309Y-87010723D01*
X126168370Y-86940605D01*
X137666210Y-86940605D01*
X138430000Y-87704395D01*
X139193790Y-86940605D01*
X139130573Y-86703679D01*
X138625555Y-86525428D01*
X138090767Y-86554007D01*
X137729427Y-86703679D01*
X137666210Y-86940605D01*
X126168370Y-86940605D01*
X125872646Y-86743009D01*
X125599960Y-86688768D01*
X125236951Y-86538034D01*
X124701399Y-86537566D01*
X124334925Y-86688990D01*
X124063354Y-86743009D01*
X123662691Y-87010723D01*
X123394977Y-87411386D01*
X123300968Y-87884000D01*
X123394977Y-88356614D01*
X123662691Y-88757277D01*
X124063354Y-89024991D01*
X124336040Y-89079232D01*
X124516258Y-89154065D01*
X124334925Y-89228990D01*
X124063354Y-89283009D01*
X123662691Y-89550723D01*
X123394977Y-89951386D01*
X123300968Y-90424000D01*
X123394977Y-90896614D01*
X123662691Y-91297277D01*
X124063354Y-91564991D01*
X124336040Y-91619232D01*
X124516258Y-91694065D01*
X124334925Y-91768990D01*
X124063354Y-91823009D01*
X123662691Y-92090723D01*
X123394977Y-92491386D01*
X123300968Y-92964000D01*
X123394977Y-93436614D01*
X123662691Y-93837277D01*
X124063354Y-94104991D01*
X124336040Y-94159232D01*
X124516258Y-94234065D01*
X124334925Y-94308990D01*
X124063354Y-94363009D01*
X123662691Y-94630723D01*
X123394977Y-95031386D01*
X123300968Y-95504000D01*
X123394977Y-95976614D01*
X123662691Y-96377277D01*
X124063354Y-96644991D01*
X124336040Y-96699232D01*
X124699049Y-96849966D01*
X125234601Y-96850434D01*
X125601075Y-96699010D01*
X125872646Y-96644991D01*
X126273309Y-96377277D01*
X126365762Y-96238910D01*
X126319955Y-96469200D01*
X126434029Y-97042689D01*
X126758885Y-97528870D01*
X127245066Y-97853726D01*
X127818555Y-97967800D01*
X128188045Y-97967800D01*
X128761534Y-97853726D01*
X129247715Y-97528870D01*
X129572571Y-97042689D01*
X129686645Y-96469200D01*
X129572571Y-95895711D01*
X129247715Y-95409530D01*
X128932934Y-95199200D01*
X129247715Y-94988870D01*
X129572571Y-94502689D01*
X129686645Y-93929200D01*
X129617395Y-93581057D01*
X130894851Y-92303601D01*
X137246577Y-92303601D01*
X137084034Y-92695049D01*
X137083566Y-93230601D01*
X137288081Y-93725565D01*
X137666443Y-94104588D01*
X137978258Y-94234065D01*
X137668435Y-94362081D01*
X137289412Y-94740443D01*
X137084034Y-95235049D01*
X137083566Y-95770601D01*
X137288081Y-96265565D01*
X137666443Y-96644588D01*
X138161049Y-96849966D01*
X138696601Y-96850434D01*
X139191565Y-96645919D01*
X139570588Y-96267557D01*
X139775966Y-95772951D01*
X139776201Y-95504000D01*
X139937968Y-95504000D01*
X140031977Y-95976614D01*
X140299691Y-96377277D01*
X140700354Y-96644991D01*
X141172968Y-96739000D01*
X142037032Y-96739000D01*
X142509646Y-96644991D01*
X142910309Y-96377277D01*
X143178023Y-95976614D01*
X143272032Y-95504000D01*
X143178023Y-95031386D01*
X142910309Y-94630723D01*
X142509646Y-94363009D01*
X142037032Y-94269000D01*
X141172968Y-94269000D01*
X140700354Y-94363009D01*
X140299691Y-94630723D01*
X140031977Y-95031386D01*
X139937968Y-95504000D01*
X139776201Y-95504000D01*
X139776434Y-95237399D01*
X139571919Y-94742435D01*
X139193557Y-94363412D01*
X138881742Y-94233935D01*
X139191565Y-94105919D01*
X139570588Y-93727557D01*
X139755761Y-93281609D01*
X140011538Y-93281609D01*
X140015408Y-93319281D01*
X140241920Y-93747474D01*
X140615053Y-94056390D01*
X141078000Y-94199000D01*
X141478000Y-94199000D01*
X141478000Y-93091000D01*
X140136269Y-93091000D01*
X140011538Y-93281609D01*
X139755761Y-93281609D01*
X139775966Y-93232951D01*
X139776434Y-92697399D01*
X139755358Y-92646391D01*
X140011538Y-92646391D01*
X140136269Y-92837000D01*
X141478000Y-92837000D01*
X141478000Y-91729000D01*
X141078000Y-91729000D01*
X140615053Y-91871610D01*
X140241920Y-92180526D01*
X140015408Y-92608719D01*
X140011538Y-92646391D01*
X139755358Y-92646391D01*
X139571919Y-92202435D01*
X139571562Y-92202078D01*
X139764775Y-92072977D01*
X140444031Y-91393721D01*
X140700354Y-91564991D01*
X141172968Y-91659000D01*
X142037032Y-91659000D01*
X142509646Y-91564991D01*
X142910309Y-91297277D01*
X142970175Y-91207681D01*
X143154585Y-91483670D01*
X143469366Y-91694000D01*
X143154585Y-91904330D01*
X142968945Y-92182160D01*
X142968080Y-92180526D01*
X142594947Y-91871610D01*
X142132000Y-91729000D01*
X141732000Y-91729000D01*
X141732000Y-92837000D01*
X141752000Y-92837000D01*
X141752000Y-93091000D01*
X141732000Y-93091000D01*
X141732000Y-94199000D01*
X142132000Y-94199000D01*
X142594947Y-94056390D01*
X142968080Y-93747474D01*
X142968945Y-93745840D01*
X143154585Y-94023670D01*
X143640766Y-94348526D01*
X144214255Y-94462600D01*
X144583745Y-94462600D01*
X145157234Y-94348526D01*
X145288000Y-94261151D01*
X145288000Y-98616491D01*
X145190938Y-99104456D01*
X143554456Y-100740938D01*
X143066491Y-100838000D01*
X123633509Y-100838000D01*
X123145544Y-100740938D01*
X121509062Y-99104456D01*
X121442257Y-98768599D01*
X122089699Y-98768599D01*
X122353281Y-99406515D01*
X122840918Y-99895004D01*
X123478373Y-100159699D01*
X124168599Y-100160301D01*
X124806515Y-99896719D01*
X125295004Y-99409082D01*
X125559699Y-98771627D01*
X125559701Y-98768599D01*
X141139699Y-98768599D01*
X141403281Y-99406515D01*
X141890918Y-99895004D01*
X142528373Y-100159699D01*
X143218599Y-100160301D01*
X143856515Y-99896719D01*
X144345004Y-99409082D01*
X144609699Y-98771627D01*
X144610301Y-98081401D01*
X144346719Y-97443485D01*
X143859082Y-96954996D01*
X143221627Y-96690301D01*
X142531401Y-96689699D01*
X141893485Y-96953281D01*
X141404996Y-97440918D01*
X141140301Y-98078373D01*
X141139699Y-98768599D01*
X125559701Y-98768599D01*
X125560301Y-98081401D01*
X125296719Y-97443485D01*
X124809082Y-96954996D01*
X124171627Y-96690301D01*
X123481401Y-96689699D01*
X122843485Y-96953281D01*
X122354996Y-97440918D01*
X122090301Y-98078373D01*
X122089699Y-98768599D01*
X121442257Y-98768599D01*
X121412000Y-98616491D01*
X121412000Y-84740750D01*
X140756000Y-84740750D01*
X140756000Y-84956310D01*
X140852673Y-85189699D01*
X141031302Y-85368327D01*
X141264691Y-85465000D01*
X141705250Y-85465000D01*
X141864000Y-85306250D01*
X141864000Y-84582000D01*
X140914750Y-84582000D01*
X140756000Y-84740750D01*
X121412000Y-84740750D01*
X121412000Y-83216750D01*
X140751000Y-83216750D01*
X140751000Y-83432310D01*
X140847673Y-83665699D01*
X140877474Y-83695500D01*
X140852673Y-83720301D01*
X140756000Y-83953690D01*
X140756000Y-84169250D01*
X140914750Y-84328000D01*
X141864000Y-84328000D01*
X141864000Y-83603750D01*
X141859000Y-83598750D01*
X141859000Y-83058000D01*
X140909750Y-83058000D01*
X140751000Y-83216750D01*
X121412000Y-83216750D01*
X121412000Y-79818509D01*
X121431873Y-79718599D01*
X122089699Y-79718599D01*
X122353281Y-80356515D01*
X122840918Y-80845004D01*
X123478373Y-81109699D01*
X124168599Y-81110301D01*
X124806515Y-80846719D01*
X125295004Y-80359082D01*
X125559699Y-79721627D01*
X125560301Y-79031401D01*
X125296719Y-78393485D01*
X124809082Y-77904996D01*
X124171627Y-77640301D01*
X123481401Y-77639699D01*
X122843485Y-77903281D01*
X122354996Y-78390918D01*
X122090301Y-79028373D01*
X122089699Y-79718599D01*
X121431873Y-79718599D01*
X121608824Y-78829005D01*
X122078456Y-78126150D01*
X122576149Y-77628457D01*
X123279005Y-77158825D01*
X124268510Y-76962000D01*
X128012914Y-76962000D01*
X127989510Y-77077570D01*
X127989510Y-77077570D01*
G37*
X127989510Y-77077570D02*
X127989510Y-78878430D01*
X128033788Y-79113747D01*
X128172860Y-79329871D01*
X128385060Y-79474861D01*
X128636950Y-79525870D01*
X129275202Y-79525870D01*
X129135509Y-79615760D01*
X128990519Y-79827960D01*
X128939510Y-80079850D01*
X128939510Y-81880710D01*
X128983788Y-82116027D01*
X129122860Y-82332151D01*
X129335060Y-82477141D01*
X129586950Y-82528150D01*
X130387050Y-82528150D01*
X130622367Y-82483872D01*
X130627700Y-82480440D01*
X130890341Y-82743540D01*
X131249630Y-82892730D01*
X131638663Y-82893069D01*
X131998212Y-82744507D01*
X132273540Y-82469659D01*
X132290136Y-82429690D01*
X140751000Y-82429690D01*
X140751000Y-82645250D01*
X140909750Y-82804000D01*
X141859000Y-82804000D01*
X141859000Y-82079750D01*
X141700250Y-81921000D01*
X141259691Y-81921000D01*
X141026302Y-82017673D01*
X140847673Y-82196301D01*
X140751000Y-82429690D01*
X132290136Y-82429690D01*
X132422730Y-82110370D01*
X132423069Y-81721337D01*
X132274507Y-81361788D01*
X132224557Y-81311750D01*
X133131000Y-81311750D01*
X133131000Y-81527310D01*
X133227673Y-81760699D01*
X133406302Y-81939327D01*
X133639691Y-82036000D01*
X134080250Y-82036000D01*
X134239000Y-81877250D01*
X134239000Y-81153000D01*
X133289750Y-81153000D01*
X133131000Y-81311750D01*
X132224557Y-81311750D01*
X131999659Y-81086460D01*
X131640370Y-80937270D01*
X131580770Y-80937218D01*
X131168242Y-80524690D01*
X133131000Y-80524690D01*
X133131000Y-80740250D01*
X133289750Y-80899000D01*
X134239000Y-80899000D01*
X134239000Y-79497000D01*
X133514750Y-79497000D01*
X133356000Y-79655750D01*
X133356000Y-80096309D01*
X133375526Y-80143449D01*
X133227673Y-80291301D01*
X133131000Y-80524690D01*
X131168242Y-80524690D01*
X131067056Y-80423504D01*
X131034490Y-80401744D01*
X131034490Y-80079850D01*
X130990212Y-79844533D01*
X130851140Y-79628409D01*
X130664082Y-79500598D01*
X130810000Y-79354680D01*
X130810000Y-78105000D01*
X131064000Y-78105000D01*
X131064000Y-79354680D01*
X131222750Y-79513430D01*
X131463359Y-79513430D01*
X131696748Y-79416757D01*
X131875377Y-79238129D01*
X131972050Y-79004740D01*
X131972050Y-78263750D01*
X131813300Y-78105000D01*
X131064000Y-78105000D01*
X130810000Y-78105000D01*
X130790000Y-78105000D01*
X130790000Y-77851000D01*
X130810000Y-77851000D01*
X130810000Y-77831000D01*
X131064000Y-77831000D01*
X131064000Y-77851000D01*
X131813300Y-77851000D01*
X131972050Y-77692250D01*
X131972050Y-77368400D01*
X132471048Y-77368400D01*
X133129424Y-78026776D01*
X133365052Y-78184217D01*
X133387838Y-78305317D01*
X133454329Y-78408646D01*
X133452673Y-78410302D01*
X133356000Y-78643691D01*
X133356000Y-79084250D01*
X133514750Y-79243000D01*
X134239000Y-79243000D01*
X134239000Y-79223000D01*
X134493000Y-79223000D01*
X134493000Y-79243000D01*
X134513000Y-79243000D01*
X134513000Y-79497000D01*
X134493000Y-79497000D01*
X134493000Y-80899000D01*
X134513000Y-80899000D01*
X134513000Y-81153000D01*
X134493000Y-81153000D01*
X134493000Y-81877250D01*
X134651750Y-82036000D01*
X135092309Y-82036000D01*
X135325698Y-81939327D01*
X135327068Y-81937957D01*
X135414110Y-81997431D01*
X135666000Y-82048440D01*
X136866000Y-82048440D01*
X137101317Y-82004162D01*
X137210731Y-81933756D01*
X137216302Y-81939327D01*
X137449691Y-82036000D01*
X137890250Y-82036000D01*
X138049000Y-81877250D01*
X138049000Y-81153000D01*
X138029000Y-81153000D01*
X138029000Y-80899000D01*
X138049000Y-80899000D01*
X138049000Y-80879000D01*
X138303000Y-80879000D01*
X138303000Y-80899000D01*
X138323000Y-80899000D01*
X138323000Y-81153000D01*
X138303000Y-81153000D01*
X138303000Y-81877250D01*
X138461750Y-82036000D01*
X138902309Y-82036000D01*
X139135698Y-81939327D01*
X139137068Y-81937957D01*
X139224110Y-81997431D01*
X139476000Y-82048440D01*
X140676000Y-82048440D01*
X140911317Y-82004162D01*
X141127441Y-81865090D01*
X141162759Y-81813400D01*
X142334648Y-81813400D01*
X142442248Y-81921000D01*
X142271750Y-81921000D01*
X142113000Y-82079750D01*
X142113000Y-82804000D01*
X142133000Y-82804000D01*
X142133000Y-83058000D01*
X142113000Y-83058000D01*
X142113000Y-83782250D01*
X142118000Y-83787250D01*
X142118000Y-84328000D01*
X142138000Y-84328000D01*
X142138000Y-84582000D01*
X142118000Y-84582000D01*
X142118000Y-85306250D01*
X142212599Y-85400849D01*
X141048224Y-86565224D01*
X140964545Y-86690458D01*
X140700354Y-86743009D01*
X140299691Y-87010723D01*
X140031977Y-87411386D01*
X139937968Y-87884000D01*
X140031977Y-88356614D01*
X140299691Y-88757277D01*
X140700354Y-89024991D01*
X141172968Y-89119000D01*
X142037032Y-89119000D01*
X142509646Y-89024991D01*
X142756694Y-88859919D01*
X142779838Y-88982917D01*
X142918910Y-89199041D01*
X143131110Y-89344031D01*
X143172439Y-89352400D01*
X143154585Y-89364330D01*
X142970175Y-89640319D01*
X142910309Y-89550723D01*
X142509646Y-89283009D01*
X142037032Y-89189000D01*
X141172968Y-89189000D01*
X140700354Y-89283009D01*
X140299691Y-89550723D01*
X140233437Y-89649880D01*
X139998875Y-89696537D01*
X139743424Y-89867224D01*
X139681941Y-89928707D01*
X139571919Y-89662435D01*
X139193557Y-89283412D01*
X138897963Y-89160671D01*
X139130573Y-89064321D01*
X139193790Y-88827395D01*
X138430000Y-88063605D01*
X138415858Y-88077748D01*
X138236253Y-87898143D01*
X138250395Y-87884000D01*
X138609605Y-87884000D01*
X139373395Y-88647790D01*
X139610321Y-88584573D01*
X139788572Y-88079555D01*
X139759993Y-87544767D01*
X139610321Y-87183427D01*
X139373395Y-87120210D01*
X138609605Y-87884000D01*
X138250395Y-87884000D01*
X137486605Y-87120210D01*
X137249679Y-87183427D01*
X137071428Y-87688445D01*
X137086301Y-87966749D01*
X136650875Y-87531323D01*
X136395424Y-87360636D01*
X136094099Y-87300699D01*
X132940791Y-87300699D01*
X132899723Y-87259559D01*
X132540434Y-87110369D01*
X132151401Y-87110030D01*
X131791852Y-87258592D01*
X131516524Y-87533440D01*
X131367334Y-87892729D01*
X131366995Y-88281762D01*
X131515557Y-88641311D01*
X131790405Y-88916639D01*
X132149694Y-89065829D01*
X132538727Y-89066168D01*
X132898276Y-88917606D01*
X132940457Y-88875499D01*
X135767947Y-88875499D01*
X137084002Y-90191554D01*
X137083566Y-90690601D01*
X137099350Y-90728801D01*
X135862582Y-90728801D01*
X135966030Y-90479670D01*
X135966369Y-90090637D01*
X135817807Y-89731088D01*
X135542959Y-89455760D01*
X135183670Y-89306570D01*
X134794637Y-89306231D01*
X134435088Y-89454793D01*
X134392907Y-89496900D01*
X131085352Y-89496900D01*
X129880876Y-88292424D01*
X129666740Y-88149343D01*
X129666740Y-87985600D01*
X129622462Y-87750283D01*
X129483390Y-87534159D01*
X129271190Y-87389169D01*
X129019300Y-87338160D01*
X126987300Y-87338160D01*
X126751983Y-87382438D01*
X126559856Y-87506068D01*
X126541023Y-87411386D01*
X126273309Y-87010723D01*
X126168370Y-86940605D01*
X137666210Y-86940605D01*
X138430000Y-87704395D01*
X139193790Y-86940605D01*
X139130573Y-86703679D01*
X138625555Y-86525428D01*
X138090767Y-86554007D01*
X137729427Y-86703679D01*
X137666210Y-86940605D01*
X126168370Y-86940605D01*
X125872646Y-86743009D01*
X125599960Y-86688768D01*
X125236951Y-86538034D01*
X124701399Y-86537566D01*
X124334925Y-86688990D01*
X124063354Y-86743009D01*
X123662691Y-87010723D01*
X123394977Y-87411386D01*
X123300968Y-87884000D01*
X123394977Y-88356614D01*
X123662691Y-88757277D01*
X124063354Y-89024991D01*
X124336040Y-89079232D01*
X124516258Y-89154065D01*
X124334925Y-89228990D01*
X124063354Y-89283009D01*
X123662691Y-89550723D01*
X123394977Y-89951386D01*
X123300968Y-90424000D01*
X123394977Y-90896614D01*
X123662691Y-91297277D01*
X124063354Y-91564991D01*
X124336040Y-91619232D01*
X124516258Y-91694065D01*
X124334925Y-91768990D01*
X124063354Y-91823009D01*
X123662691Y-92090723D01*
X123394977Y-92491386D01*
X123300968Y-92964000D01*
X123394977Y-93436614D01*
X123662691Y-93837277D01*
X124063354Y-94104991D01*
X124336040Y-94159232D01*
X124516258Y-94234065D01*
X124334925Y-94308990D01*
X124063354Y-94363009D01*
X123662691Y-94630723D01*
X123394977Y-95031386D01*
X123300968Y-95504000D01*
X123394977Y-95976614D01*
X123662691Y-96377277D01*
X124063354Y-96644991D01*
X124336040Y-96699232D01*
X124699049Y-96849966D01*
X125234601Y-96850434D01*
X125601075Y-96699010D01*
X125872646Y-96644991D01*
X126273309Y-96377277D01*
X126365762Y-96238910D01*
X126319955Y-96469200D01*
X126434029Y-97042689D01*
X126758885Y-97528870D01*
X127245066Y-97853726D01*
X127818555Y-97967800D01*
X128188045Y-97967800D01*
X128761534Y-97853726D01*
X129247715Y-97528870D01*
X129572571Y-97042689D01*
X129686645Y-96469200D01*
X129572571Y-95895711D01*
X129247715Y-95409530D01*
X128932934Y-95199200D01*
X129247715Y-94988870D01*
X129572571Y-94502689D01*
X129686645Y-93929200D01*
X129617395Y-93581057D01*
X130894851Y-92303601D01*
X137246577Y-92303601D01*
X137084034Y-92695049D01*
X137083566Y-93230601D01*
X137288081Y-93725565D01*
X137666443Y-94104588D01*
X137978258Y-94234065D01*
X137668435Y-94362081D01*
X137289412Y-94740443D01*
X137084034Y-95235049D01*
X137083566Y-95770601D01*
X137288081Y-96265565D01*
X137666443Y-96644588D01*
X138161049Y-96849966D01*
X138696601Y-96850434D01*
X139191565Y-96645919D01*
X139570588Y-96267557D01*
X139775966Y-95772951D01*
X139776201Y-95504000D01*
X139937968Y-95504000D01*
X140031977Y-95976614D01*
X140299691Y-96377277D01*
X140700354Y-96644991D01*
X141172968Y-96739000D01*
X142037032Y-96739000D01*
X142509646Y-96644991D01*
X142910309Y-96377277D01*
X143178023Y-95976614D01*
X143272032Y-95504000D01*
X143178023Y-95031386D01*
X142910309Y-94630723D01*
X142509646Y-94363009D01*
X142037032Y-94269000D01*
X141172968Y-94269000D01*
X140700354Y-94363009D01*
X140299691Y-94630723D01*
X140031977Y-95031386D01*
X139937968Y-95504000D01*
X139776201Y-95504000D01*
X139776434Y-95237399D01*
X139571919Y-94742435D01*
X139193557Y-94363412D01*
X138881742Y-94233935D01*
X139191565Y-94105919D01*
X139570588Y-93727557D01*
X139755761Y-93281609D01*
X140011538Y-93281609D01*
X140015408Y-93319281D01*
X140241920Y-93747474D01*
X140615053Y-94056390D01*
X141078000Y-94199000D01*
X141478000Y-94199000D01*
X141478000Y-93091000D01*
X140136269Y-93091000D01*
X140011538Y-93281609D01*
X139755761Y-93281609D01*
X139775966Y-93232951D01*
X139776434Y-92697399D01*
X139755358Y-92646391D01*
X140011538Y-92646391D01*
X140136269Y-92837000D01*
X141478000Y-92837000D01*
X141478000Y-91729000D01*
X141078000Y-91729000D01*
X140615053Y-91871610D01*
X140241920Y-92180526D01*
X140015408Y-92608719D01*
X140011538Y-92646391D01*
X139755358Y-92646391D01*
X139571919Y-92202435D01*
X139571562Y-92202078D01*
X139764775Y-92072977D01*
X140444031Y-91393721D01*
X140700354Y-91564991D01*
X141172968Y-91659000D01*
X142037032Y-91659000D01*
X142509646Y-91564991D01*
X142910309Y-91297277D01*
X142970175Y-91207681D01*
X143154585Y-91483670D01*
X143469366Y-91694000D01*
X143154585Y-91904330D01*
X142968945Y-92182160D01*
X142968080Y-92180526D01*
X142594947Y-91871610D01*
X142132000Y-91729000D01*
X141732000Y-91729000D01*
X141732000Y-92837000D01*
X141752000Y-92837000D01*
X141752000Y-93091000D01*
X141732000Y-93091000D01*
X141732000Y-94199000D01*
X142132000Y-94199000D01*
X142594947Y-94056390D01*
X142968080Y-93747474D01*
X142968945Y-93745840D01*
X143154585Y-94023670D01*
X143640766Y-94348526D01*
X144214255Y-94462600D01*
X144583745Y-94462600D01*
X145157234Y-94348526D01*
X145288000Y-94261151D01*
X145288000Y-98616491D01*
X145190938Y-99104456D01*
X143554456Y-100740938D01*
X143066491Y-100838000D01*
X123633509Y-100838000D01*
X123145544Y-100740938D01*
X121509062Y-99104456D01*
X121442257Y-98768599D01*
X122089699Y-98768599D01*
X122353281Y-99406515D01*
X122840918Y-99895004D01*
X123478373Y-100159699D01*
X124168599Y-100160301D01*
X124806515Y-99896719D01*
X125295004Y-99409082D01*
X125559699Y-98771627D01*
X125559701Y-98768599D01*
X141139699Y-98768599D01*
X141403281Y-99406515D01*
X141890918Y-99895004D01*
X142528373Y-100159699D01*
X143218599Y-100160301D01*
X143856515Y-99896719D01*
X144345004Y-99409082D01*
X144609699Y-98771627D01*
X144610301Y-98081401D01*
X144346719Y-97443485D01*
X143859082Y-96954996D01*
X143221627Y-96690301D01*
X142531401Y-96689699D01*
X141893485Y-96953281D01*
X141404996Y-97440918D01*
X141140301Y-98078373D01*
X141139699Y-98768599D01*
X125559701Y-98768599D01*
X125560301Y-98081401D01*
X125296719Y-97443485D01*
X124809082Y-96954996D01*
X124171627Y-96690301D01*
X123481401Y-96689699D01*
X122843485Y-96953281D01*
X122354996Y-97440918D01*
X122090301Y-98078373D01*
X122089699Y-98768599D01*
X121442257Y-98768599D01*
X121412000Y-98616491D01*
X121412000Y-84740750D01*
X140756000Y-84740750D01*
X140756000Y-84956310D01*
X140852673Y-85189699D01*
X141031302Y-85368327D01*
X141264691Y-85465000D01*
X141705250Y-85465000D01*
X141864000Y-85306250D01*
X141864000Y-84582000D01*
X140914750Y-84582000D01*
X140756000Y-84740750D01*
X121412000Y-84740750D01*
X121412000Y-83216750D01*
X140751000Y-83216750D01*
X140751000Y-83432310D01*
X140847673Y-83665699D01*
X140877474Y-83695500D01*
X140852673Y-83720301D01*
X140756000Y-83953690D01*
X140756000Y-84169250D01*
X140914750Y-84328000D01*
X141864000Y-84328000D01*
X141864000Y-83603750D01*
X141859000Y-83598750D01*
X141859000Y-83058000D01*
X140909750Y-83058000D01*
X140751000Y-83216750D01*
X121412000Y-83216750D01*
X121412000Y-79818509D01*
X121431873Y-79718599D01*
X122089699Y-79718599D01*
X122353281Y-80356515D01*
X122840918Y-80845004D01*
X123478373Y-81109699D01*
X124168599Y-81110301D01*
X124806515Y-80846719D01*
X125295004Y-80359082D01*
X125559699Y-79721627D01*
X125560301Y-79031401D01*
X125296719Y-78393485D01*
X124809082Y-77904996D01*
X124171627Y-77640301D01*
X123481401Y-77639699D01*
X122843485Y-77903281D01*
X122354996Y-78390918D01*
X122090301Y-79028373D01*
X122089699Y-79718599D01*
X121431873Y-79718599D01*
X121608824Y-78829005D01*
X122078456Y-78126150D01*
X122576149Y-77628457D01*
X123279005Y-77158825D01*
X124268510Y-76962000D01*
X128012914Y-76962000D01*
X127989510Y-77077570D01*
G36*
X126517083Y-91262200D02*
X127876300Y-91262200D01*
X127876300Y-91242200D01*
X128130300Y-91242200D01*
X128130300Y-91262200D01*
X128150300Y-91262200D01*
X128150300Y-91516200D01*
X128130300Y-91516200D01*
X128130300Y-91536200D01*
X127876300Y-91536200D01*
X127876300Y-91516200D01*
X126517083Y-91516200D01*
X126395942Y-91748226D01*
X126398591Y-91763991D01*
X126652568Y-92291236D01*
X127068369Y-92662739D01*
X126758885Y-92869530D01*
X126609290Y-93093415D01*
X126635032Y-92964000D01*
X126541023Y-92491386D01*
X126273309Y-92090723D01*
X125872646Y-91823009D01*
X125599960Y-91768768D01*
X125419742Y-91693935D01*
X125601075Y-91619010D01*
X125872646Y-91564991D01*
X126273309Y-91297277D01*
X126420435Y-91077087D01*
X126517083Y-91262200D01*
X126517083Y-91262200D01*
G37*
X126517083Y-91262200D02*
X127876300Y-91262200D01*
X127876300Y-91242200D01*
X128130300Y-91242200D01*
X128130300Y-91262200D01*
X128150300Y-91262200D01*
X128150300Y-91516200D01*
X128130300Y-91516200D01*
X128130300Y-91536200D01*
X127876300Y-91536200D01*
X127876300Y-91516200D01*
X126517083Y-91516200D01*
X126395942Y-91748226D01*
X126398591Y-91763991D01*
X126652568Y-92291236D01*
X127068369Y-92662739D01*
X126758885Y-92869530D01*
X126609290Y-93093415D01*
X126635032Y-92964000D01*
X126541023Y-92491386D01*
X126273309Y-92090723D01*
X125872646Y-91823009D01*
X125599960Y-91768768D01*
X125419742Y-91693935D01*
X125601075Y-91619010D01*
X125872646Y-91564991D01*
X126273309Y-91297277D01*
X126420435Y-91077087D01*
X126517083Y-91262200D01*
G36*
X137902110Y-78391431D02*
X138039120Y-78419176D01*
X137918683Y-78441838D01*
X137702559Y-78580910D01*
X137630144Y-78686894D01*
X137490250Y-78547000D01*
X137409949Y-78547000D01*
X137265890Y-78448569D01*
X137128880Y-78420824D01*
X137249317Y-78398162D01*
X137412743Y-78293000D01*
X137490250Y-78293000D01*
X137525850Y-78257400D01*
X137705949Y-78257400D01*
X137902110Y-78391431D01*
X137902110Y-78391431D01*
G37*
X137902110Y-78391431D02*
X138039120Y-78419176D01*
X137918683Y-78441838D01*
X137702559Y-78580910D01*
X137630144Y-78686894D01*
X137490250Y-78547000D01*
X137409949Y-78547000D01*
X137265890Y-78448569D01*
X137128880Y-78420824D01*
X137249317Y-78398162D01*
X137412743Y-78293000D01*
X137490250Y-78293000D01*
X137525850Y-78257400D01*
X137705949Y-78257400D01*
X137902110Y-78391431D01*
G36*
X135477750Y-78293000D02*
X135558051Y-78293000D01*
X135702110Y-78391431D01*
X135839120Y-78419176D01*
X135718683Y-78441838D01*
X135555257Y-78547000D01*
X135477750Y-78547000D01*
X135376000Y-78648750D01*
X135376000Y-78643691D01*
X135279327Y-78410302D01*
X135277957Y-78408932D01*
X135337431Y-78321890D01*
X135350491Y-78257400D01*
X135442150Y-78257400D01*
X135477750Y-78293000D01*
X135477750Y-78293000D01*
G37*
X135477750Y-78293000D02*
X135558051Y-78293000D01*
X135702110Y-78391431D01*
X135839120Y-78419176D01*
X135718683Y-78441838D01*
X135555257Y-78547000D01*
X135477750Y-78547000D01*
X135376000Y-78648750D01*
X135376000Y-78643691D01*
X135279327Y-78410302D01*
X135277957Y-78408932D01*
X135337431Y-78321890D01*
X135350491Y-78257400D01*
X135442150Y-78257400D01*
X135477750Y-78293000D01*
M02*
