G04 #@! TF.FileFunction,Copper,L1,Top,Signal*
%FSLAX46Y46*%
G04 Gerber Fmt 4.6, Leading zero omitted, Abs format (unit mm)*
G04 Created by KiCad (PCBNEW 4.0.7) date Fri Feb 23 12:26:53 2018*
%MOMM*%
%LPD*%
G01*
G04 APERTURE LIST*
%ADD10C,0.100000*%
%ADD11C,1.524000*%
%ADD12R,1.800000X1.800000*%
%ADD13C,1.800000*%
%ADD14R,2.200000X2.200000*%
%ADD15O,2.200000X2.200000*%
%ADD16R,1.206500X3.200400*%
%ADD17R,1.700022X5.299964*%
%ADD18R,1.700000X1.700000*%
%ADD19O,1.700000X1.700000*%
%ADD20C,1.600000*%
%ADD21O,1.600000X1.600000*%
%ADD22C,6.400000*%
%ADD23C,1.520000*%
%ADD24R,1.520000X1.520000*%
%ADD25C,1.700000*%
%ADD26C,3.556000*%
%ADD27C,0.762000*%
%ADD28C,0.635000*%
%ADD29C,1.016000*%
%ADD30C,1.905000*%
%ADD31C,0.381000*%
%ADD32C,0.254000*%
G04 APERTURE END LIST*
D10*
D11*
X127855000Y-49370000D03*
X122775000Y-49370000D03*
X120235000Y-49370000D03*
X117695000Y-49370000D03*
X117695000Y-54450000D03*
X120235000Y-54450000D03*
X122775000Y-54450000D03*
X127855000Y-54450000D03*
D12*
X174625000Y-54610000D03*
D13*
X172085000Y-54610000D03*
D14*
X139700000Y-48260000D03*
D15*
X139700000Y-55880000D03*
D16*
X122379994Y-33020000D03*
X120379998Y-33020000D03*
X118380002Y-33020000D03*
X116380006Y-33020000D03*
D17*
X125080014Y-26850340D03*
X113679986Y-26850340D03*
D16*
X137619994Y-33020000D03*
X135619998Y-33020000D03*
X133620002Y-33020000D03*
X131620006Y-33020000D03*
D17*
X140320014Y-26850340D03*
X128919986Y-26850340D03*
D16*
X152859994Y-33020000D03*
X150859998Y-33020000D03*
X148860002Y-33020000D03*
X146860006Y-33020000D03*
D17*
X155560014Y-26850340D03*
X144159986Y-26850340D03*
D16*
X168099994Y-33020000D03*
X166099998Y-33020000D03*
X164100002Y-33020000D03*
X162100006Y-33020000D03*
D17*
X170800014Y-26850340D03*
X159399986Y-26850340D03*
D16*
X183339994Y-33020000D03*
X181339998Y-33020000D03*
X179340002Y-33020000D03*
X177340006Y-33020000D03*
D17*
X186040014Y-26850340D03*
X174639986Y-26850340D03*
D18*
X116205000Y-41275000D03*
D19*
X118745000Y-41275000D03*
X116205000Y-43815000D03*
X118745000Y-43815000D03*
D18*
X131445000Y-41275000D03*
D19*
X133985000Y-41275000D03*
X131445000Y-43815000D03*
X133985000Y-43815000D03*
D18*
X146685000Y-41275000D03*
D19*
X149225000Y-41275000D03*
X146685000Y-43815000D03*
X149225000Y-43815000D03*
D18*
X161925000Y-41275000D03*
D19*
X164465000Y-41275000D03*
X161925000Y-43815000D03*
X164465000Y-43815000D03*
D18*
X175260000Y-41275000D03*
D19*
X177800000Y-41275000D03*
X175260000Y-43815000D03*
X177800000Y-43815000D03*
D18*
X122555000Y-41275000D03*
D19*
X125095000Y-41275000D03*
X122555000Y-43815000D03*
X125095000Y-43815000D03*
D18*
X137795000Y-41275000D03*
D19*
X140335000Y-41275000D03*
X137795000Y-43815000D03*
X140335000Y-43815000D03*
D18*
X153035000Y-41275000D03*
D19*
X155575000Y-41275000D03*
X153035000Y-43815000D03*
X155575000Y-43815000D03*
D18*
X168275000Y-41275000D03*
D19*
X170815000Y-41275000D03*
X168275000Y-43815000D03*
X170815000Y-43815000D03*
D20*
X167005000Y-48260000D03*
D21*
X167005000Y-55880000D03*
D20*
X146685000Y-48260000D03*
D21*
X146685000Y-55880000D03*
D20*
X160655000Y-55880000D03*
D21*
X160655000Y-48260000D03*
D20*
X153670000Y-55880000D03*
D21*
X153670000Y-48260000D03*
D11*
X191770000Y-41275000D03*
X189230000Y-41275000D03*
X186690000Y-41275000D03*
X184150000Y-41275000D03*
X181610000Y-41275000D03*
D22*
X107315000Y-35560000D03*
X191770000Y-35560000D03*
X107315000Y-74930000D03*
X191770000Y-74930000D03*
D23*
X133350000Y-53340000D03*
X133350000Y-55880000D03*
D24*
X133350000Y-50800000D03*
D25*
X153952000Y-67030000D03*
X157452000Y-67030000D03*
D26*
X155692000Y-74860000D03*
D25*
X173002000Y-67030000D03*
X176502000Y-67030000D03*
D26*
X174742000Y-74860000D03*
D25*
X115852000Y-67030000D03*
X119352000Y-67030000D03*
D26*
X117592000Y-74860000D03*
D25*
X125377000Y-67030000D03*
X128877000Y-67030000D03*
D26*
X127117000Y-74860000D03*
D25*
X134902000Y-67030000D03*
X138402000Y-67030000D03*
D26*
X136642000Y-74860000D03*
D25*
X163477000Y-67030000D03*
X166977000Y-67030000D03*
D26*
X165217000Y-74860000D03*
D25*
X182527000Y-67030000D03*
X186027000Y-67030000D03*
D26*
X184267000Y-74860000D03*
D25*
X148117000Y-64230000D03*
X144617000Y-67230000D03*
X148117000Y-67230000D03*
X144617000Y-64230000D03*
D26*
X146357000Y-75160000D03*
D27*
X170180000Y-38353990D03*
X169862500Y-32385000D03*
X154432000Y-33274000D03*
X154432000Y-38353990D03*
X186817010Y-38353990D03*
X139319000Y-38227000D03*
X124460000Y-38354006D03*
X139065000Y-33274000D03*
X150876000Y-29972000D03*
X135382006Y-36195000D03*
X120396000Y-35433000D03*
X150876000Y-36449000D03*
X166243000Y-36322000D03*
X181356000Y-36195000D03*
X148907500Y-35433000D03*
X148832924Y-37465011D03*
X133604000Y-37338000D03*
X164211000Y-37338000D03*
X119761000Y-37338000D03*
X135635996Y-30607000D03*
X165989000Y-30353000D03*
X179832000Y-37211000D03*
X120379998Y-30496002D03*
X123444000Y-35242500D03*
X136461500Y-35623502D03*
X153034579Y-35496490D03*
X169100500Y-35242502D03*
D28*
X183339994Y-33020000D02*
X183339994Y-34016950D01*
X183339994Y-34016950D02*
X186817010Y-37493966D01*
X186817010Y-37493966D02*
X186817010Y-37815175D01*
X186817010Y-37815175D02*
X186817010Y-38353990D01*
X170180010Y-38353990D02*
X170180000Y-38353990D01*
X170434000Y-38100000D02*
X170180010Y-38353990D01*
X170434000Y-34544000D02*
X170434000Y-38100000D01*
X169862500Y-33972500D02*
X170434000Y-34544000D01*
X169862500Y-32385000D02*
X169862500Y-33972500D01*
X168099994Y-33020000D02*
X169227500Y-33020000D01*
X169227500Y-33020000D02*
X169862500Y-32385000D01*
X154432000Y-33274000D02*
X154432000Y-38353990D01*
X154432000Y-33274000D02*
X153113994Y-33274000D01*
X153113994Y-33274000D02*
X152859994Y-33020000D01*
D29*
X189230000Y-69342000D02*
X189230000Y-41275000D01*
X187706000Y-70866000D02*
X189230000Y-69342000D01*
X182527000Y-67030000D02*
X186363000Y-70866000D01*
X186363000Y-70866000D02*
X187706000Y-70866000D01*
D28*
X139700002Y-37845998D02*
X139699999Y-37846001D01*
X139700002Y-34290002D02*
X139700002Y-37845998D01*
X139065000Y-33655000D02*
X139700002Y-34290002D01*
X139699999Y-37846001D02*
X139319000Y-38227000D01*
D29*
X189230000Y-41275000D02*
X189230000Y-40766980D01*
X189230000Y-40766980D02*
X186817010Y-38353990D01*
X133350000Y-50800000D02*
X135217762Y-50800000D01*
X135217762Y-50800000D02*
X135882001Y-51464239D01*
X135882001Y-51464239D02*
X135882001Y-58158001D01*
X135882001Y-58158001D02*
X142045001Y-58158001D01*
X142045001Y-58158001D02*
X148117000Y-64230000D01*
D28*
X122379994Y-33020000D02*
X123618244Y-33020000D01*
X124460000Y-33861756D02*
X124460000Y-37815191D01*
X123618244Y-33020000D02*
X124460000Y-33861756D01*
X124460000Y-37815191D02*
X124460000Y-38354006D01*
X139065000Y-33226756D02*
X139065000Y-33655000D01*
X139065000Y-33274000D02*
X139065000Y-33655000D01*
X137619994Y-33020000D02*
X138858244Y-33020000D01*
X138858244Y-33020000D02*
X139065000Y-33226756D01*
D29*
X135620398Y-47752000D02*
X129473000Y-47752000D01*
X129473000Y-47752000D02*
X127855000Y-49370000D01*
X146685000Y-55880000D02*
X143748398Y-55880000D01*
X143748398Y-55880000D02*
X135620398Y-47752000D01*
X134902000Y-67030000D02*
X132244500Y-67030000D01*
X132244500Y-67030000D02*
X123825000Y-58610500D01*
X123825000Y-58610500D02*
X117602000Y-58610500D01*
X117602000Y-58610500D02*
X114871500Y-55880000D01*
X114871500Y-55880000D02*
X114871500Y-48196500D01*
X118618000Y-46863000D02*
X120235000Y-48480000D01*
X114871500Y-48196500D02*
X116205000Y-46863000D01*
X116205000Y-46863000D02*
X118618000Y-46863000D01*
X120235000Y-48480000D02*
X120235000Y-49370000D01*
X144617000Y-64230000D02*
X143414919Y-64230000D01*
X143414919Y-64230000D02*
X140525919Y-61341000D01*
X140525919Y-61341000D02*
X130048000Y-61341000D01*
X123571000Y-52006500D02*
X119126000Y-52006500D01*
X119126000Y-52006500D02*
X117695000Y-50575500D01*
X130048000Y-61341000D02*
X125222000Y-56515000D01*
X125222000Y-56515000D02*
X125222000Y-53657500D01*
X125222000Y-53657500D02*
X123571000Y-52006500D01*
X117695000Y-50575500D02*
X117695000Y-49370000D01*
X174625000Y-54610000D02*
X176541000Y-54610000D01*
X176541000Y-54610000D02*
X181610000Y-49541000D01*
X181610000Y-49541000D02*
X181610000Y-42352630D01*
X181610000Y-42352630D02*
X181610000Y-41275000D01*
X167005000Y-55880000D02*
X170815000Y-55880000D01*
X170815000Y-55880000D02*
X172085000Y-54610000D01*
X146685000Y-48260000D02*
X146685000Y-47942500D01*
X146685000Y-47942500D02*
X149225000Y-45402500D01*
X149225000Y-45402500D02*
X149225000Y-43815000D01*
D30*
X186027000Y-67030000D02*
X186690000Y-66367000D01*
X186690000Y-66367000D02*
X186690000Y-41275000D01*
D29*
X153952000Y-67030000D02*
X153952000Y-65827919D01*
X153952000Y-65827919D02*
X149380000Y-61255919D01*
X149380000Y-61255919D02*
X149380000Y-50955000D01*
X146685000Y-48260000D02*
X139700000Y-48260000D01*
X149380000Y-50955000D02*
X146685000Y-48260000D01*
D28*
X135619998Y-33020000D02*
X135445500Y-33194498D01*
X135445500Y-33194498D02*
X135445500Y-36131506D01*
X135445500Y-36131506D02*
X135382006Y-36195000D01*
X150876000Y-29972000D02*
X150876000Y-33003998D01*
X150876000Y-33003998D02*
X150859998Y-33020000D01*
X120379998Y-35416998D02*
X120396000Y-35433000D01*
X120379998Y-33020000D02*
X120379998Y-35416998D01*
X150859998Y-33020000D02*
X150859998Y-36432998D01*
X150859998Y-36432998D02*
X150876000Y-36449000D01*
X166099998Y-36178998D02*
X166243000Y-36322000D01*
X166099998Y-33020000D02*
X166099998Y-36178998D01*
D31*
X181356000Y-35017202D02*
X181356000Y-36195000D01*
X181339998Y-33020000D02*
X181339998Y-35001200D01*
X181339998Y-35001200D02*
X181356000Y-35017202D01*
D28*
X148832924Y-35507576D02*
X148907500Y-35433000D01*
X148878797Y-35404297D02*
X148907500Y-35433000D01*
X148745702Y-35369500D02*
X148780499Y-35404297D01*
X148780499Y-35404297D02*
X148878797Y-35404297D01*
X148844000Y-35271202D02*
X148745702Y-35369500D01*
X148860002Y-33020000D02*
X148860002Y-35255200D01*
X148860002Y-35255200D02*
X148745702Y-35369500D01*
X148832924Y-37465011D02*
X148832924Y-35507576D01*
D31*
X133620002Y-37321998D02*
X133604000Y-37338000D01*
X133620002Y-33020000D02*
X133620002Y-37321998D01*
D28*
X164100002Y-37227002D02*
X164211000Y-37338000D01*
X164100002Y-33020000D02*
X164100002Y-37227002D01*
D31*
X118380002Y-33020000D02*
X118380002Y-36622817D01*
X119095185Y-37338000D02*
X119222185Y-37338000D01*
X118380002Y-36622817D02*
X119095185Y-37338000D01*
X119222185Y-37338000D02*
X119761000Y-37338000D01*
X135097181Y-30607000D02*
X135635996Y-30607000D01*
X135036052Y-30607000D02*
X135097181Y-30607000D01*
X133620002Y-32023050D02*
X135036052Y-30607000D01*
X133620002Y-33020000D02*
X133620002Y-32023050D01*
D28*
X164531802Y-30353000D02*
X165989000Y-30353000D01*
X164100002Y-33020000D02*
X164100002Y-30784800D01*
X164100002Y-30784800D02*
X164531802Y-30353000D01*
D31*
X179832000Y-37211000D02*
X179832000Y-33511998D01*
X179832000Y-33511998D02*
X179340002Y-33020000D01*
D28*
X120379998Y-30496002D02*
X118668800Y-30496002D01*
X118668800Y-30496002D02*
X118380002Y-30784800D01*
X118380002Y-30784800D02*
X118380002Y-33020000D01*
X116205000Y-41275000D02*
X116205000Y-43815000D01*
X116205000Y-41275000D02*
X116205000Y-33195006D01*
X116205000Y-33195006D02*
X116380006Y-33020000D01*
X131445000Y-41275000D02*
X131445000Y-39790000D01*
X131445000Y-39790000D02*
X130403600Y-38748600D01*
X130403600Y-38748600D02*
X130403600Y-35233356D01*
X130403600Y-35233356D02*
X131620006Y-34016950D01*
X131620006Y-34016950D02*
X131620006Y-33020000D01*
X131445000Y-41275000D02*
X131445000Y-43815000D01*
X146685000Y-41275000D02*
X146685000Y-43815000D01*
X146685000Y-41275000D02*
X146685000Y-33195006D01*
X146685000Y-33195006D02*
X146860006Y-33020000D01*
X161925000Y-41275000D02*
X161925000Y-43815000D01*
X161925000Y-41275000D02*
X161925000Y-33195006D01*
X161925000Y-33195006D02*
X162100006Y-33020000D01*
X176387504Y-33972502D02*
X177340006Y-33020000D01*
X175260000Y-35100006D02*
X176387504Y-33972502D01*
X175260000Y-41275000D02*
X175260000Y-35100006D01*
X175260000Y-41275000D02*
X175260000Y-43815000D01*
X123063001Y-35623499D02*
X123444000Y-35242500D01*
X122555000Y-41275000D02*
X122555000Y-36131500D01*
X122555000Y-36131500D02*
X123063001Y-35623499D01*
X122555000Y-41275000D02*
X122555000Y-43815000D01*
X137795000Y-36957002D02*
X136842499Y-36004501D01*
X136842499Y-36004501D02*
X136461500Y-35623502D01*
X137795000Y-41275000D02*
X137795000Y-36957002D01*
X153035000Y-35496911D02*
X153034579Y-35496490D01*
X153035000Y-41275000D02*
X153035000Y-35496911D01*
X153035000Y-41275000D02*
X153035000Y-43815000D01*
X168719501Y-35623501D02*
X169100500Y-35242502D01*
X168275000Y-41275000D02*
X168275000Y-36068002D01*
X168275000Y-36068002D02*
X168719501Y-35623501D01*
X168275000Y-41275000D02*
X168275000Y-43815000D01*
D29*
X145780919Y-69596000D02*
X164411000Y-69596000D01*
X164411000Y-69596000D02*
X166977000Y-67030000D01*
X144617000Y-67230000D02*
X144617000Y-68432081D01*
X144617000Y-68432081D02*
X145780919Y-69596000D01*
X125377000Y-67030000D02*
X127562000Y-69215000D01*
X127562000Y-69215000D02*
X136217000Y-69215000D01*
X136217000Y-69215000D02*
X137552001Y-67879999D01*
X137552001Y-67879999D02*
X138402000Y-67030000D01*
X115852000Y-67030000D02*
X119763000Y-63119000D01*
X119763000Y-63119000D02*
X124966000Y-63119000D01*
X124966000Y-63119000D02*
X128027001Y-66180001D01*
X128027001Y-66180001D02*
X128877000Y-67030000D01*
X174889999Y-61859999D02*
X166634999Y-61859999D01*
X166634999Y-61859999D02*
X160655000Y-55880000D01*
X176502000Y-67030000D02*
X174889999Y-65417999D01*
X174889999Y-65417999D02*
X174889999Y-61859999D01*
X160780000Y-55880000D02*
X160655000Y-55880000D01*
X157452000Y-67030000D02*
X157452000Y-59662000D01*
X157452000Y-59662000D02*
X153670000Y-55880000D01*
D32*
G36*
X111664583Y-24278137D02*
X111664583Y-29500322D01*
X111744283Y-29923892D01*
X111994613Y-30312916D01*
X112376572Y-30573898D01*
X112829975Y-30665714D01*
X114529997Y-30665714D01*
X114953567Y-30586014D01*
X115342591Y-30335684D01*
X115603573Y-29953725D01*
X115695389Y-29500322D01*
X115695389Y-24289459D01*
X123064611Y-24310159D01*
X123064611Y-29500322D01*
X123144311Y-29923892D01*
X123207957Y-30022800D01*
X122856244Y-30022800D01*
X122506994Y-30372050D01*
X122506994Y-32893000D01*
X124030994Y-32893000D01*
X124380244Y-32543750D01*
X124380244Y-31141920D01*
X124178690Y-30655323D01*
X124230003Y-30665714D01*
X125930025Y-30665714D01*
X126353595Y-30586014D01*
X126742619Y-30335684D01*
X127003539Y-29953816D01*
X127234613Y-30312916D01*
X127616572Y-30573898D01*
X128069975Y-30665714D01*
X129769997Y-30665714D01*
X130193567Y-30586014D01*
X130582591Y-30335684D01*
X130843573Y-29953725D01*
X130935389Y-29500322D01*
X130935389Y-24332268D01*
X138304611Y-24352968D01*
X138304611Y-29500322D01*
X138384311Y-29923892D01*
X138447957Y-30022800D01*
X138096244Y-30022800D01*
X137746994Y-30372050D01*
X137746994Y-32893000D01*
X139270994Y-32893000D01*
X139620244Y-32543750D01*
X139620244Y-31141920D01*
X139418690Y-30655323D01*
X139470003Y-30665714D01*
X141170025Y-30665714D01*
X141593595Y-30586014D01*
X141982619Y-30335684D01*
X142243539Y-29953816D01*
X142474613Y-30312916D01*
X142856572Y-30573898D01*
X143309975Y-30665714D01*
X145009997Y-30665714D01*
X145433567Y-30586014D01*
X145822591Y-30335684D01*
X146083573Y-29953725D01*
X146175389Y-29500322D01*
X146175389Y-24375077D01*
X153544611Y-24395777D01*
X153544611Y-29500322D01*
X153624311Y-29923892D01*
X153687957Y-30022800D01*
X153336244Y-30022800D01*
X152986994Y-30372050D01*
X152986994Y-32893000D01*
X154510994Y-32893000D01*
X154860244Y-32543750D01*
X154860244Y-31141920D01*
X154658690Y-30655323D01*
X154710003Y-30665714D01*
X156410025Y-30665714D01*
X156833595Y-30586014D01*
X157222619Y-30335684D01*
X157483539Y-29953816D01*
X157714613Y-30312916D01*
X158096572Y-30573898D01*
X158549975Y-30665714D01*
X160249997Y-30665714D01*
X160673567Y-30586014D01*
X161062591Y-30335684D01*
X161323573Y-29953725D01*
X161415389Y-29500322D01*
X161415389Y-24417886D01*
X168784611Y-24438586D01*
X168784611Y-29500322D01*
X168864311Y-29923892D01*
X168927957Y-30022800D01*
X168576244Y-30022800D01*
X168226994Y-30372050D01*
X168226994Y-32893000D01*
X169750994Y-32893000D01*
X170100244Y-32543750D01*
X170100244Y-31141920D01*
X169898690Y-30655323D01*
X169950003Y-30665714D01*
X171650025Y-30665714D01*
X172073595Y-30586014D01*
X172462619Y-30335684D01*
X172723539Y-29953816D01*
X172954613Y-30312916D01*
X173336572Y-30573898D01*
X173789975Y-30665714D01*
X175489997Y-30665714D01*
X175913567Y-30586014D01*
X176302591Y-30335684D01*
X176563573Y-29953725D01*
X176655389Y-29500322D01*
X176655389Y-24460695D01*
X184024611Y-24481395D01*
X184024611Y-29500322D01*
X184104311Y-29923892D01*
X184167957Y-30022800D01*
X183816244Y-30022800D01*
X183466994Y-30372050D01*
X183466994Y-32893000D01*
X184990994Y-32893000D01*
X185340244Y-32543750D01*
X185340244Y-31141920D01*
X185138690Y-30655323D01*
X185190003Y-30665714D01*
X186890025Y-30665714D01*
X187313595Y-30586014D01*
X187702619Y-30335684D01*
X187963601Y-29953725D01*
X188055417Y-29500322D01*
X188055417Y-24492717D01*
X193854000Y-24509005D01*
X193854000Y-31722822D01*
X192637666Y-31217756D01*
X190909914Y-31216248D01*
X189313102Y-31876037D01*
X188090331Y-33096676D01*
X187427756Y-34692334D01*
X187426248Y-36420086D01*
X188086037Y-38016898D01*
X189183710Y-39116488D01*
X188760779Y-39124294D01*
X188041011Y-39422432D01*
X188024460Y-39694847D01*
X187491913Y-39339010D01*
X186690000Y-39179500D01*
X185888087Y-39339010D01*
X185300827Y-39731406D01*
X185230505Y-39660961D01*
X184530590Y-39370332D01*
X183772735Y-39369670D01*
X183072314Y-39659078D01*
X182880135Y-39850922D01*
X182690505Y-39660961D01*
X181990590Y-39370332D01*
X181232735Y-39369670D01*
X180532314Y-39659078D01*
X179995961Y-40194495D01*
X179739820Y-40811353D01*
X179680337Y-40512312D01*
X179248309Y-39865736D01*
X178601733Y-39433708D01*
X177839045Y-39282000D01*
X177760955Y-39282000D01*
X176998267Y-39433708D01*
X176839292Y-39539931D01*
X176720500Y-39458764D01*
X176720500Y-35782300D01*
X176736756Y-35785592D01*
X177943256Y-35785592D01*
X178354569Y-35708198D01*
X178498500Y-35737345D01*
X178498500Y-36448391D01*
X178308265Y-36906528D01*
X178307736Y-37512812D01*
X178539262Y-38073149D01*
X178967596Y-38502231D01*
X179527528Y-38734735D01*
X180133812Y-38735264D01*
X180694149Y-38503738D01*
X181123231Y-38075404D01*
X181271253Y-37718927D01*
X181657812Y-37719264D01*
X182218149Y-37487738D01*
X182647231Y-37059404D01*
X182879735Y-36499472D01*
X182880170Y-36000774D01*
X183212994Y-35667950D01*
X183212994Y-33147000D01*
X183466994Y-33147000D01*
X183466994Y-35667950D01*
X183816244Y-36017200D01*
X184221125Y-36017200D01*
X184734581Y-35804519D01*
X185127564Y-35411537D01*
X185340244Y-34898080D01*
X185340244Y-33496250D01*
X184990994Y-33147000D01*
X183466994Y-33147000D01*
X183212994Y-33147000D01*
X183192994Y-33147000D01*
X183192994Y-32893000D01*
X183212994Y-32893000D01*
X183212994Y-30372050D01*
X182863744Y-30022800D01*
X182458863Y-30022800D01*
X181945407Y-30235481D01*
X181926480Y-30254408D01*
X180736748Y-30254408D01*
X180325435Y-30331802D01*
X179943252Y-30254408D01*
X178736752Y-30254408D01*
X178325439Y-30331802D01*
X177943256Y-30254408D01*
X176736756Y-30254408D01*
X176313186Y-30334108D01*
X175924162Y-30584438D01*
X175663180Y-30966397D01*
X175571364Y-31419800D01*
X175571364Y-32723184D01*
X175354777Y-32939771D01*
X175354774Y-32939773D01*
X174227271Y-34067277D01*
X173910674Y-34541097D01*
X173799500Y-35100006D01*
X173799500Y-39459594D01*
X173597406Y-39589638D01*
X173336424Y-39971597D01*
X173244608Y-40425000D01*
X173244608Y-42125000D01*
X173324308Y-42548570D01*
X173516590Y-42847385D01*
X173379663Y-43052312D01*
X173227955Y-43815000D01*
X173379663Y-44577688D01*
X173811691Y-45224264D01*
X174458267Y-45656292D01*
X175220955Y-45808000D01*
X175299045Y-45808000D01*
X176061733Y-45656292D01*
X176530000Y-45343406D01*
X176998267Y-45656292D01*
X177760955Y-45808000D01*
X177839045Y-45808000D01*
X178601733Y-45656292D01*
X179248309Y-45224264D01*
X179680337Y-44577688D01*
X179832045Y-43815000D01*
X179680337Y-43052312D01*
X179341362Y-42545000D01*
X179680337Y-42037688D01*
X179739996Y-41737761D01*
X179959000Y-42267791D01*
X179959000Y-48857133D01*
X176097996Y-52718138D01*
X175978403Y-52636424D01*
X175525000Y-52544608D01*
X173725000Y-52544608D01*
X173301430Y-52624308D01*
X173038216Y-52793682D01*
X172493161Y-52567355D01*
X171680405Y-52566646D01*
X170929245Y-52877019D01*
X170354039Y-53451222D01*
X170042355Y-54201839D01*
X170042331Y-54229000D01*
X168021181Y-54229000D01*
X167748554Y-54046836D01*
X167005000Y-53898934D01*
X166261446Y-54046836D01*
X165631092Y-54468026D01*
X165209902Y-55098380D01*
X165062000Y-55841934D01*
X165062000Y-55918066D01*
X165209902Y-56661620D01*
X165631092Y-57291974D01*
X166261446Y-57713164D01*
X167005000Y-57861066D01*
X167748554Y-57713164D01*
X168021181Y-57531000D01*
X170815000Y-57531000D01*
X171446811Y-57405325D01*
X171982433Y-57047433D01*
X172376611Y-56653255D01*
X172489595Y-56653354D01*
X173040546Y-56425706D01*
X173271597Y-56583576D01*
X173725000Y-56675392D01*
X175525000Y-56675392D01*
X175948570Y-56595692D01*
X176337594Y-56345362D01*
X176395236Y-56261000D01*
X176541000Y-56261000D01*
X177172811Y-56135325D01*
X177708433Y-55777433D01*
X182777434Y-50708433D01*
X183135325Y-50172810D01*
X183261000Y-49541000D01*
X183261000Y-42968559D01*
X183769410Y-43179668D01*
X184527265Y-43180330D01*
X184594500Y-43152549D01*
X184594500Y-65499016D01*
X184545258Y-65548258D01*
X184388467Y-65782911D01*
X183986902Y-65749703D01*
X182706605Y-67030000D01*
X183986902Y-68310297D01*
X184388467Y-68277089D01*
X184545258Y-68511742D01*
X185225086Y-68965990D01*
X186027000Y-69125500D01*
X186828914Y-68965990D01*
X187508742Y-68511742D01*
X188171743Y-67848742D01*
X188625990Y-67168913D01*
X188785500Y-66367000D01*
X188785500Y-43419969D01*
X188840464Y-43441556D01*
X189699221Y-43425706D01*
X190418989Y-43127568D01*
X190446709Y-42671317D01*
X190694989Y-42919597D01*
X190714969Y-42899617D01*
X191389410Y-43179668D01*
X192147265Y-43180330D01*
X192847686Y-42890922D01*
X193384039Y-42355505D01*
X193674668Y-41655590D01*
X193675330Y-40897735D01*
X193385922Y-40197314D01*
X192957729Y-39768373D01*
X193854000Y-39398041D01*
X193854000Y-71092822D01*
X192637666Y-70587756D01*
X190909914Y-70586248D01*
X189313102Y-71246037D01*
X188090331Y-72466676D01*
X187427756Y-74062334D01*
X187426248Y-75790086D01*
X188086037Y-77386898D01*
X189306676Y-78609669D01*
X189745778Y-78792000D01*
X167864038Y-78792000D01*
X109736184Y-78628720D01*
X109771898Y-78613963D01*
X110994669Y-77393324D01*
X111657244Y-75797666D01*
X111657557Y-75438474D01*
X114670494Y-75438474D01*
X115114253Y-76512452D01*
X115935226Y-77334860D01*
X117008428Y-77780492D01*
X118170474Y-77781506D01*
X119244452Y-77337747D01*
X120066860Y-76516774D01*
X120512492Y-75443572D01*
X120512496Y-75438474D01*
X124195494Y-75438474D01*
X124639253Y-76512452D01*
X125460226Y-77334860D01*
X126533428Y-77780492D01*
X127695474Y-77781506D01*
X128769452Y-77337747D01*
X129591860Y-76516774D01*
X130037492Y-75443572D01*
X130037496Y-75438474D01*
X133720494Y-75438474D01*
X134164253Y-76512452D01*
X134985226Y-77334860D01*
X136058428Y-77780492D01*
X137220474Y-77781506D01*
X138294452Y-77337747D01*
X139116860Y-76516774D01*
X139440038Y-75738474D01*
X143435494Y-75738474D01*
X143879253Y-76812452D01*
X144700226Y-77634860D01*
X145773428Y-78080492D01*
X146935474Y-78081506D01*
X148009452Y-77637747D01*
X148831860Y-76816774D01*
X149277492Y-75743572D01*
X149277758Y-75438474D01*
X152770494Y-75438474D01*
X153214253Y-76512452D01*
X154035226Y-77334860D01*
X155108428Y-77780492D01*
X156270474Y-77781506D01*
X157344452Y-77337747D01*
X158166860Y-76516774D01*
X158612492Y-75443572D01*
X158612496Y-75438474D01*
X162295494Y-75438474D01*
X162739253Y-76512452D01*
X163560226Y-77334860D01*
X164633428Y-77780492D01*
X165795474Y-77781506D01*
X166869452Y-77337747D01*
X167691860Y-76516774D01*
X168137492Y-75443572D01*
X168137496Y-75438474D01*
X171820494Y-75438474D01*
X172264253Y-76512452D01*
X173085226Y-77334860D01*
X174158428Y-77780492D01*
X175320474Y-77781506D01*
X176394452Y-77337747D01*
X177216860Y-76516774D01*
X177662492Y-75443572D01*
X177662496Y-75438474D01*
X181345494Y-75438474D01*
X181789253Y-76512452D01*
X182610226Y-77334860D01*
X183683428Y-77780492D01*
X184845474Y-77781506D01*
X185919452Y-77337747D01*
X186741860Y-76516774D01*
X187187492Y-75443572D01*
X187188506Y-74281526D01*
X186744747Y-73207548D01*
X185923774Y-72385140D01*
X184850572Y-71939508D01*
X183688526Y-71938494D01*
X182614548Y-72382253D01*
X181792140Y-73203226D01*
X181346508Y-74276428D01*
X181345494Y-75438474D01*
X177662496Y-75438474D01*
X177663506Y-74281526D01*
X177219747Y-73207548D01*
X176398774Y-72385140D01*
X175325572Y-71939508D01*
X174163526Y-71938494D01*
X173089548Y-72382253D01*
X172267140Y-73203226D01*
X171821508Y-74276428D01*
X171820494Y-75438474D01*
X168137496Y-75438474D01*
X168138506Y-74281526D01*
X167694747Y-73207548D01*
X166873774Y-72385140D01*
X165800572Y-71939508D01*
X164638526Y-71938494D01*
X163564548Y-72382253D01*
X162742140Y-73203226D01*
X162296508Y-74276428D01*
X162295494Y-75438474D01*
X158612496Y-75438474D01*
X158613506Y-74281526D01*
X158169747Y-73207548D01*
X157348774Y-72385140D01*
X156275572Y-71939508D01*
X155113526Y-71938494D01*
X154039548Y-72382253D01*
X153217140Y-73203226D01*
X152771508Y-74276428D01*
X152770494Y-75438474D01*
X149277758Y-75438474D01*
X149278506Y-74581526D01*
X148834747Y-73507548D01*
X148013774Y-72685140D01*
X146940572Y-72239508D01*
X145778526Y-72238494D01*
X144704548Y-72682253D01*
X143882140Y-73503226D01*
X143436508Y-74576428D01*
X143435494Y-75738474D01*
X139440038Y-75738474D01*
X139562492Y-75443572D01*
X139563506Y-74281526D01*
X139119747Y-73207548D01*
X138298774Y-72385140D01*
X137225572Y-71939508D01*
X136063526Y-71938494D01*
X134989548Y-72382253D01*
X134167140Y-73203226D01*
X133721508Y-74276428D01*
X133720494Y-75438474D01*
X130037496Y-75438474D01*
X130038506Y-74281526D01*
X129594747Y-73207548D01*
X128773774Y-72385140D01*
X127700572Y-71939508D01*
X126538526Y-71938494D01*
X125464548Y-72382253D01*
X124642140Y-73203226D01*
X124196508Y-74276428D01*
X124195494Y-75438474D01*
X120512496Y-75438474D01*
X120513506Y-74281526D01*
X120069747Y-73207548D01*
X119248774Y-72385140D01*
X118175572Y-71939508D01*
X117013526Y-71938494D01*
X115939548Y-72382253D01*
X115117140Y-73203226D01*
X114671508Y-74276428D01*
X114670494Y-75438474D01*
X111657557Y-75438474D01*
X111658752Y-74069914D01*
X110998963Y-72473102D01*
X109778324Y-71250331D01*
X108182666Y-70587756D01*
X106454914Y-70586248D01*
X104858102Y-71246037D01*
X104850000Y-71254125D01*
X104850000Y-48196500D01*
X113220500Y-48196500D01*
X113220500Y-55880000D01*
X113346175Y-56511811D01*
X113704067Y-57047433D01*
X116434567Y-59777933D01*
X116970189Y-60135825D01*
X117075013Y-60156676D01*
X117602000Y-60261500D01*
X123141134Y-60261500D01*
X124347634Y-61468000D01*
X119763000Y-61468000D01*
X119236013Y-61572824D01*
X119131189Y-61593675D01*
X118595567Y-61951567D01*
X115510433Y-65036701D01*
X115457307Y-65036655D01*
X114724531Y-65339432D01*
X114163402Y-65899582D01*
X113859347Y-66631829D01*
X113858655Y-67424693D01*
X114161432Y-68157469D01*
X114721582Y-68718598D01*
X115453829Y-69022653D01*
X116246693Y-69023345D01*
X116979469Y-68720568D01*
X117540598Y-68160418D01*
X117601775Y-68013088D01*
X117661432Y-68157469D01*
X118221582Y-68718598D01*
X118953829Y-69022653D01*
X119746693Y-69023345D01*
X120479469Y-68720568D01*
X121040598Y-68160418D01*
X121344653Y-67428171D01*
X121345345Y-66635307D01*
X121042568Y-65902531D01*
X120482418Y-65341402D01*
X120053547Y-65163319D01*
X120446866Y-64770000D01*
X124282134Y-64770000D01*
X124675542Y-65163408D01*
X124249531Y-65339432D01*
X123688402Y-65899582D01*
X123384347Y-66631829D01*
X123383655Y-67424693D01*
X123686432Y-68157469D01*
X124246582Y-68718598D01*
X124978829Y-69022653D01*
X125034836Y-69022702D01*
X126394567Y-70382434D01*
X126930190Y-70740325D01*
X127562000Y-70866000D01*
X136217000Y-70866000D01*
X136848811Y-70740325D01*
X137384433Y-70382433D01*
X138719435Y-69047432D01*
X138719437Y-69047429D01*
X138743567Y-69023299D01*
X138796693Y-69023345D01*
X139529469Y-68720568D01*
X140090598Y-68160418D01*
X140394653Y-67428171D01*
X140395345Y-66635307D01*
X140092568Y-65902531D01*
X139532418Y-65341402D01*
X138800171Y-65037347D01*
X138007307Y-65036655D01*
X137274531Y-65339432D01*
X136713402Y-65899582D01*
X136652225Y-66046912D01*
X136592568Y-65902531D01*
X136032418Y-65341402D01*
X135300171Y-65037347D01*
X134507307Y-65036655D01*
X133774531Y-65339432D01*
X133734894Y-65379000D01*
X132928366Y-65379000D01*
X130541366Y-62992000D01*
X139842053Y-62992000D01*
X142247486Y-65397433D01*
X142783108Y-65755325D01*
X143191821Y-65836623D01*
X142928402Y-66099582D01*
X142624347Y-66831829D01*
X142623655Y-67624693D01*
X142926432Y-68357469D01*
X142966000Y-68397106D01*
X142966000Y-68432081D01*
X143091675Y-69063892D01*
X143449567Y-69599514D01*
X144613486Y-70763433D01*
X145149108Y-71121325D01*
X145780919Y-71247000D01*
X164411000Y-71247000D01*
X165042811Y-71121325D01*
X165578433Y-70763433D01*
X167318567Y-69023299D01*
X167371693Y-69023345D01*
X168104469Y-68720568D01*
X168335538Y-68489902D01*
X171721703Y-68489902D01*
X171760188Y-68955274D01*
X172591486Y-69283942D01*
X173485281Y-69269468D01*
X174243812Y-68955274D01*
X174282297Y-68489902D01*
X173002000Y-67209605D01*
X171721703Y-68489902D01*
X168335538Y-68489902D01*
X168665598Y-68160418D01*
X168969653Y-67428171D01*
X168970345Y-66635307D01*
X168963808Y-66619486D01*
X170748058Y-66619486D01*
X170762532Y-67513281D01*
X171076726Y-68271812D01*
X171542098Y-68310297D01*
X172822395Y-67030000D01*
X171542098Y-65749703D01*
X171076726Y-65788188D01*
X170748058Y-66619486D01*
X168963808Y-66619486D01*
X168667568Y-65902531D01*
X168107418Y-65341402D01*
X167375171Y-65037347D01*
X166582307Y-65036655D01*
X165849531Y-65339432D01*
X165400165Y-65788014D01*
X164936902Y-65749703D01*
X163656605Y-67030000D01*
X163670748Y-67044143D01*
X163491143Y-67223748D01*
X163477000Y-67209605D01*
X163462858Y-67223748D01*
X163283253Y-67044143D01*
X163297395Y-67030000D01*
X162017098Y-65749703D01*
X161551726Y-65788188D01*
X161223058Y-66619486D01*
X161237532Y-67513281D01*
X161416356Y-67945000D01*
X159230047Y-67945000D01*
X159444653Y-67428171D01*
X159445345Y-66635307D01*
X159142568Y-65902531D01*
X159103000Y-65862894D01*
X159103000Y-65570098D01*
X162196703Y-65570098D01*
X163477000Y-66850395D01*
X164757297Y-65570098D01*
X164718812Y-65104726D01*
X163887514Y-64776058D01*
X162993719Y-64790532D01*
X162235188Y-65104726D01*
X162196703Y-65570098D01*
X159103000Y-65570098D01*
X159103000Y-59662000D01*
X158977325Y-59030190D01*
X158619434Y-58494567D01*
X156389658Y-56264791D01*
X158711663Y-56264791D01*
X159006844Y-56979183D01*
X159552942Y-57526235D01*
X160259940Y-57819806D01*
X165467566Y-63027433D01*
X166003189Y-63385324D01*
X166634999Y-63510999D01*
X173238999Y-63510999D01*
X173238999Y-64778868D01*
X172518719Y-64790532D01*
X171760188Y-65104726D01*
X171721703Y-65570098D01*
X173002000Y-66850395D01*
X173016143Y-66836253D01*
X173195748Y-67015858D01*
X173181605Y-67030000D01*
X174461902Y-68310297D01*
X174925705Y-68271942D01*
X175371582Y-68718598D01*
X176103829Y-69022653D01*
X176896693Y-69023345D01*
X177629469Y-68720568D01*
X177860538Y-68489902D01*
X181246703Y-68489902D01*
X181285188Y-68955274D01*
X182116486Y-69283942D01*
X183010281Y-69269468D01*
X183768812Y-68955274D01*
X183807297Y-68489902D01*
X182527000Y-67209605D01*
X181246703Y-68489902D01*
X177860538Y-68489902D01*
X178190598Y-68160418D01*
X178494653Y-67428171D01*
X178495345Y-66635307D01*
X178488808Y-66619486D01*
X180273058Y-66619486D01*
X180287532Y-67513281D01*
X180601726Y-68271812D01*
X181067098Y-68310297D01*
X182347395Y-67030000D01*
X181067098Y-65749703D01*
X180601726Y-65788188D01*
X180273058Y-66619486D01*
X178488808Y-66619486D01*
X178192568Y-65902531D01*
X177860715Y-65570098D01*
X181246703Y-65570098D01*
X182527000Y-66850395D01*
X183807297Y-65570098D01*
X183768812Y-65104726D01*
X182937514Y-64776058D01*
X182043719Y-64790532D01*
X181285188Y-65104726D01*
X181246703Y-65570098D01*
X177860715Y-65570098D01*
X177632418Y-65341402D01*
X176900171Y-65037347D01*
X176844165Y-65037298D01*
X176540999Y-64734133D01*
X176540999Y-61859999D01*
X176415324Y-61228189D01*
X176057432Y-60692566D01*
X175521809Y-60334674D01*
X174889999Y-60208999D01*
X167318866Y-60208999D01*
X162593592Y-55483726D01*
X162303156Y-54780817D01*
X161757058Y-54233765D01*
X161043182Y-53937338D01*
X160270209Y-53936663D01*
X159555817Y-54231844D01*
X159008765Y-54777942D01*
X158712338Y-55491818D01*
X158711663Y-56264791D01*
X156389658Y-56264791D01*
X155608592Y-55483726D01*
X155318156Y-54780817D01*
X154772058Y-54233765D01*
X154058182Y-53937338D01*
X153285209Y-53936663D01*
X152570817Y-54231844D01*
X152023765Y-54777942D01*
X151727338Y-55491818D01*
X151726663Y-56264791D01*
X152021844Y-56979183D01*
X152567942Y-57526235D01*
X153274940Y-57819806D01*
X155801000Y-60345867D01*
X155801000Y-65862050D01*
X155763402Y-65899582D01*
X155702225Y-66046912D01*
X155642568Y-65902531D01*
X155603000Y-65862894D01*
X155603000Y-65827919D01*
X155477325Y-65196109D01*
X155253954Y-64861811D01*
X155119433Y-64660485D01*
X151031000Y-60572053D01*
X151031000Y-50955000D01*
X150905325Y-50323190D01*
X150547434Y-49787567D01*
X148981801Y-48221934D01*
X151727000Y-48221934D01*
X151727000Y-48298066D01*
X151874902Y-49041620D01*
X152296092Y-49671974D01*
X152926446Y-50093164D01*
X153670000Y-50241066D01*
X154413554Y-50093164D01*
X155043908Y-49671974D01*
X155465098Y-49041620D01*
X155613000Y-48298066D01*
X155613000Y-48221934D01*
X158712000Y-48221934D01*
X158712000Y-48298066D01*
X158859902Y-49041620D01*
X159281092Y-49671974D01*
X159911446Y-50093164D01*
X160655000Y-50241066D01*
X161398554Y-50093164D01*
X162028908Y-49671974D01*
X162450098Y-49041620D01*
X162529032Y-48644791D01*
X165061663Y-48644791D01*
X165356844Y-49359183D01*
X165902942Y-49906235D01*
X166616818Y-50202662D01*
X167389791Y-50203337D01*
X168104183Y-49908156D01*
X168651235Y-49362058D01*
X168947662Y-48648182D01*
X168948337Y-47875209D01*
X168653156Y-47160817D01*
X168107058Y-46613765D01*
X167393182Y-46317338D01*
X166620209Y-46316663D01*
X165905817Y-46611844D01*
X165358765Y-47157942D01*
X165062338Y-47871818D01*
X165061663Y-48644791D01*
X162529032Y-48644791D01*
X162598000Y-48298066D01*
X162598000Y-48221934D01*
X162450098Y-47478380D01*
X162028908Y-46848026D01*
X161398554Y-46426836D01*
X160655000Y-46278934D01*
X159911446Y-46426836D01*
X159281092Y-46848026D01*
X158859902Y-47478380D01*
X158712000Y-48221934D01*
X155613000Y-48221934D01*
X155465098Y-47478380D01*
X155043908Y-46848026D01*
X154413554Y-46426836D01*
X153670000Y-46278934D01*
X152926446Y-46426836D01*
X152296092Y-46848026D01*
X151874902Y-47478380D01*
X151727000Y-48221934D01*
X148981801Y-48221934D01*
X148623592Y-47863726D01*
X148336000Y-47167700D01*
X148336000Y-47038866D01*
X149642058Y-45732809D01*
X150026733Y-45656292D01*
X150673309Y-45224264D01*
X151105337Y-44577688D01*
X151130000Y-44453699D01*
X151154663Y-44577688D01*
X151586691Y-45224264D01*
X152233267Y-45656292D01*
X152995955Y-45808000D01*
X153074045Y-45808000D01*
X153836733Y-45656292D01*
X154305000Y-45343406D01*
X154773267Y-45656292D01*
X155535955Y-45808000D01*
X155614045Y-45808000D01*
X156376733Y-45656292D01*
X157023309Y-45224264D01*
X157455337Y-44577688D01*
X157607045Y-43815000D01*
X159892955Y-43815000D01*
X160044663Y-44577688D01*
X160476691Y-45224264D01*
X161123267Y-45656292D01*
X161885955Y-45808000D01*
X161964045Y-45808000D01*
X162726733Y-45656292D01*
X163195000Y-45343406D01*
X163663267Y-45656292D01*
X164425955Y-45808000D01*
X164504045Y-45808000D01*
X165266733Y-45656292D01*
X165913309Y-45224264D01*
X166345337Y-44577688D01*
X166370000Y-44453699D01*
X166394663Y-44577688D01*
X166826691Y-45224264D01*
X167473267Y-45656292D01*
X168235955Y-45808000D01*
X168314045Y-45808000D01*
X169076733Y-45656292D01*
X169545000Y-45343406D01*
X170013267Y-45656292D01*
X170775955Y-45808000D01*
X170854045Y-45808000D01*
X171616733Y-45656292D01*
X172263309Y-45224264D01*
X172695337Y-44577688D01*
X172847045Y-43815000D01*
X172695337Y-43052312D01*
X172356362Y-42545000D01*
X172695337Y-42037688D01*
X172847045Y-41275000D01*
X172695337Y-40512312D01*
X172263309Y-39865736D01*
X171616733Y-39433708D01*
X170854045Y-39282000D01*
X170775955Y-39282000D01*
X170013267Y-39433708D01*
X169854292Y-39539931D01*
X169735500Y-39458764D01*
X169735500Y-36672961D01*
X169752230Y-36656231D01*
X169752232Y-36656228D01*
X169810250Y-36598210D01*
X169962649Y-36535240D01*
X170391731Y-36106906D01*
X170624235Y-35546974D01*
X170624764Y-34940690D01*
X170393238Y-34380353D01*
X170100244Y-34086847D01*
X170100244Y-33496250D01*
X169750994Y-33147000D01*
X168226994Y-33147000D01*
X168226994Y-33167000D01*
X167972994Y-33167000D01*
X167972994Y-33147000D01*
X167952994Y-33147000D01*
X167952994Y-32893000D01*
X167972994Y-32893000D01*
X167972994Y-30372050D01*
X167623744Y-30022800D01*
X167501534Y-30022800D01*
X167281738Y-29490851D01*
X166853404Y-29061769D01*
X166293472Y-28829265D01*
X165687188Y-28828736D01*
X165532867Y-28892500D01*
X164531802Y-28892500D01*
X164130787Y-28972267D01*
X163972892Y-29003674D01*
X163499072Y-29320271D01*
X163067273Y-29752071D01*
X162750676Y-30225891D01*
X162743387Y-30262535D01*
X162703256Y-30254408D01*
X161496756Y-30254408D01*
X161073186Y-30334108D01*
X160684162Y-30584438D01*
X160423180Y-30966397D01*
X160331364Y-31419800D01*
X160331364Y-34620200D01*
X160411064Y-35043770D01*
X160464500Y-35126812D01*
X160464500Y-39459594D01*
X160262406Y-39589638D01*
X160001424Y-39971597D01*
X159909608Y-40425000D01*
X159909608Y-42125000D01*
X159989308Y-42548570D01*
X160181590Y-42847385D01*
X160044663Y-43052312D01*
X159892955Y-43815000D01*
X157607045Y-43815000D01*
X157455337Y-43052312D01*
X157116362Y-42545000D01*
X157455337Y-42037688D01*
X157607045Y-41275000D01*
X157455337Y-40512312D01*
X157023309Y-39865736D01*
X156376733Y-39433708D01*
X155614045Y-39282000D01*
X155535955Y-39282000D01*
X154773267Y-39433708D01*
X154614292Y-39539931D01*
X154495500Y-39458764D01*
X154495500Y-35952235D01*
X154558314Y-35800962D01*
X154558576Y-35500525D01*
X154647564Y-35411537D01*
X154860244Y-34898080D01*
X154860244Y-33496250D01*
X154510994Y-33147000D01*
X152986994Y-33147000D01*
X152986994Y-33167000D01*
X152732994Y-33167000D01*
X152732994Y-33147000D01*
X152712994Y-33147000D01*
X152712994Y-32893000D01*
X152732994Y-32893000D01*
X152732994Y-30372050D01*
X152399942Y-30038998D01*
X152400264Y-29670188D01*
X152168738Y-29109851D01*
X151740404Y-28680769D01*
X151180472Y-28448265D01*
X150574188Y-28447736D01*
X150013851Y-28679262D01*
X149584769Y-29107596D01*
X149352265Y-29667528D01*
X149351753Y-30254408D01*
X148256752Y-30254408D01*
X147845439Y-30331802D01*
X147463256Y-30254408D01*
X146256756Y-30254408D01*
X145833186Y-30334108D01*
X145444162Y-30584438D01*
X145183180Y-30966397D01*
X145091364Y-31419800D01*
X145091364Y-34620200D01*
X145171064Y-35043770D01*
X145224500Y-35126812D01*
X145224500Y-39459594D01*
X145022406Y-39589638D01*
X144761424Y-39971597D01*
X144669608Y-40425000D01*
X144669608Y-42125000D01*
X144749308Y-42548570D01*
X144941590Y-42847385D01*
X144804663Y-43052312D01*
X144652955Y-43815000D01*
X144804663Y-44577688D01*
X145236691Y-45224264D01*
X145413920Y-45342685D01*
X145159675Y-45723189D01*
X145089833Y-46074308D01*
X145034000Y-46355000D01*
X145034000Y-46609000D01*
X141803693Y-46609000D01*
X141635362Y-46347406D01*
X141253403Y-46086424D01*
X140800000Y-45994608D01*
X138600000Y-45994608D01*
X138176430Y-46074308D01*
X137787406Y-46324638D01*
X137526424Y-46706597D01*
X137434608Y-47160000D01*
X137434608Y-47231344D01*
X136787831Y-46584567D01*
X136252209Y-46226675D01*
X135620398Y-46101000D01*
X129473000Y-46101000D01*
X128841190Y-46226675D01*
X128305567Y-46584566D01*
X127388658Y-47501476D01*
X126777314Y-47754078D01*
X126240961Y-48289495D01*
X125950332Y-48989410D01*
X125949670Y-49747265D01*
X126239078Y-50447686D01*
X126774495Y-50984039D01*
X127474410Y-51274668D01*
X128232265Y-51275330D01*
X128932686Y-50985922D01*
X129469039Y-50450505D01*
X129724442Y-49835425D01*
X130156867Y-49403000D01*
X131341752Y-49403000D01*
X131193000Y-49762120D01*
X131193000Y-50323750D01*
X131542250Y-50673000D01*
X133223000Y-50673000D01*
X133223000Y-50653000D01*
X133477000Y-50653000D01*
X133477000Y-50673000D01*
X135157750Y-50673000D01*
X135507000Y-50323750D01*
X135507000Y-49973468D01*
X139221724Y-53688192D01*
X138841641Y-53763795D01*
X138113959Y-54250016D01*
X137627738Y-54977698D01*
X137457000Y-55836057D01*
X137457000Y-55923943D01*
X137627738Y-56782302D01*
X138113959Y-57509984D01*
X138841641Y-57996205D01*
X139700000Y-58166943D01*
X140558359Y-57996205D01*
X141286041Y-57509984D01*
X141772262Y-56782302D01*
X141862446Y-56328914D01*
X142580965Y-57047433D01*
X143116588Y-57405325D01*
X143748398Y-57531000D01*
X145668819Y-57531000D01*
X145941446Y-57713164D01*
X146685000Y-57861066D01*
X147428554Y-57713164D01*
X147729000Y-57512412D01*
X147729000Y-61255919D01*
X147854675Y-61887730D01*
X147920265Y-61985892D01*
X147633719Y-61990532D01*
X146875188Y-62304726D01*
X146836703Y-62770098D01*
X148117000Y-64050395D01*
X148131143Y-64036253D01*
X148310748Y-64215858D01*
X148296605Y-64230000D01*
X149576902Y-65510297D01*
X150042274Y-65471812D01*
X150370942Y-64640514D01*
X150369974Y-64580760D01*
X152094810Y-66305596D01*
X151959347Y-66631829D01*
X151958655Y-67424693D01*
X152173642Y-67945000D01*
X150250558Y-67945000D01*
X150370942Y-67640514D01*
X150356468Y-66746719D01*
X150042274Y-65988188D01*
X149576902Y-65949703D01*
X148296605Y-67230000D01*
X148310748Y-67244143D01*
X148131143Y-67423748D01*
X148117000Y-67409605D01*
X148102858Y-67423748D01*
X147923253Y-67244143D01*
X147937395Y-67230000D01*
X146657098Y-65949703D01*
X146193295Y-65988058D01*
X145935529Y-65729842D01*
X145975538Y-65689902D01*
X146836703Y-65689902D01*
X146840019Y-65730000D01*
X146836703Y-65770098D01*
X146843933Y-65777328D01*
X146875188Y-66155274D01*
X147448579Y-66381974D01*
X148117000Y-67050395D01*
X148766973Y-66400422D01*
X149358812Y-66155274D01*
X149390067Y-65777328D01*
X149397297Y-65770098D01*
X149393981Y-65730000D01*
X149397297Y-65689902D01*
X149390067Y-65682672D01*
X149358812Y-65304726D01*
X148785421Y-65078026D01*
X148117000Y-64409605D01*
X147467027Y-65059578D01*
X146875188Y-65304726D01*
X146843933Y-65682672D01*
X146836703Y-65689902D01*
X145975538Y-65689902D01*
X146193835Y-65471986D01*
X146657098Y-65510297D01*
X147937395Y-64230000D01*
X146657098Y-62949703D01*
X146193295Y-62988058D01*
X145747418Y-62541402D01*
X145015171Y-62237347D01*
X144222307Y-62236655D01*
X143892651Y-62372866D01*
X141693352Y-60173567D01*
X141157730Y-59815675D01*
X140525919Y-59690000D01*
X130731867Y-59690000D01*
X127341236Y-56299369D01*
X127474410Y-56354668D01*
X128232265Y-56355330D01*
X128932686Y-56065922D01*
X129469039Y-55530505D01*
X129759668Y-54830590D01*
X129760330Y-54072735D01*
X129470922Y-53372314D01*
X128935505Y-52835961D01*
X128235590Y-52545332D01*
X127477735Y-52544670D01*
X126777314Y-52834078D01*
X126682522Y-52928705D01*
X126389434Y-52490067D01*
X125175617Y-51276250D01*
X131193000Y-51276250D01*
X131193000Y-51837880D01*
X131405680Y-52351337D01*
X131613639Y-52559296D01*
X131447331Y-52959809D01*
X131446670Y-53716869D01*
X131735774Y-54416555D01*
X131928751Y-54609868D01*
X131737656Y-54800630D01*
X131447331Y-55499809D01*
X131446670Y-56256869D01*
X131735774Y-56956555D01*
X132270630Y-57492344D01*
X132969809Y-57782669D01*
X133726869Y-57783330D01*
X134426555Y-57494226D01*
X134962344Y-56959370D01*
X135252669Y-56260191D01*
X135253330Y-55503131D01*
X134964226Y-54803445D01*
X134771249Y-54610132D01*
X134962344Y-54419370D01*
X135252669Y-53720191D01*
X135253330Y-52963131D01*
X135086437Y-52559219D01*
X135294320Y-52351337D01*
X135507000Y-51837880D01*
X135507000Y-51276250D01*
X135157750Y-50927000D01*
X133477000Y-50927000D01*
X133477000Y-50947000D01*
X133223000Y-50947000D01*
X133223000Y-50927000D01*
X131542250Y-50927000D01*
X131193000Y-51276250D01*
X125175617Y-51276250D01*
X124738433Y-50839067D01*
X124295964Y-50543418D01*
X124389039Y-50450505D01*
X124679668Y-49750590D01*
X124680330Y-48992735D01*
X124390922Y-48292314D01*
X123855505Y-47755961D01*
X123155590Y-47465332D01*
X122397735Y-47464670D01*
X121697414Y-47754037D01*
X121402433Y-47312566D01*
X119785433Y-45695567D01*
X119636694Y-45596182D01*
X120193309Y-45224264D01*
X120625337Y-44577688D01*
X120650000Y-44453699D01*
X120674663Y-44577688D01*
X121106691Y-45224264D01*
X121753267Y-45656292D01*
X122515955Y-45808000D01*
X122594045Y-45808000D01*
X123356733Y-45656292D01*
X123825000Y-45343406D01*
X124293267Y-45656292D01*
X125055955Y-45808000D01*
X125134045Y-45808000D01*
X125896733Y-45656292D01*
X126543309Y-45224264D01*
X126975337Y-44577688D01*
X127127045Y-43815000D01*
X126975337Y-43052312D01*
X126636362Y-42545000D01*
X126975337Y-42037688D01*
X127127045Y-41275000D01*
X126975337Y-40512312D01*
X126543309Y-39865736D01*
X125896733Y-39433708D01*
X125134045Y-39282000D01*
X125055955Y-39282000D01*
X124293267Y-39433708D01*
X124134292Y-39539931D01*
X124015500Y-39458764D01*
X124015500Y-36736459D01*
X124095731Y-36656228D01*
X124095733Y-36656225D01*
X124153750Y-36598208D01*
X124306149Y-36535238D01*
X124735231Y-36106904D01*
X124967735Y-35546972D01*
X124968008Y-35233356D01*
X128943100Y-35233356D01*
X128943100Y-38748600D01*
X129039074Y-39231091D01*
X129054274Y-39307509D01*
X129370871Y-39781329D01*
X129537545Y-39948003D01*
X129521424Y-39971597D01*
X129429608Y-40425000D01*
X129429608Y-42125000D01*
X129509308Y-42548570D01*
X129701590Y-42847385D01*
X129564663Y-43052312D01*
X129412955Y-43815000D01*
X129564663Y-44577688D01*
X129996691Y-45224264D01*
X130643267Y-45656292D01*
X131405955Y-45808000D01*
X131484045Y-45808000D01*
X132246733Y-45656292D01*
X132715000Y-45343406D01*
X133183267Y-45656292D01*
X133945955Y-45808000D01*
X134024045Y-45808000D01*
X134786733Y-45656292D01*
X135433309Y-45224264D01*
X135865337Y-44577688D01*
X135890000Y-44453699D01*
X135914663Y-44577688D01*
X136346691Y-45224264D01*
X136993267Y-45656292D01*
X137755955Y-45808000D01*
X137834045Y-45808000D01*
X138596733Y-45656292D01*
X139065000Y-45343406D01*
X139533267Y-45656292D01*
X140295955Y-45808000D01*
X140374045Y-45808000D01*
X141136733Y-45656292D01*
X141783309Y-45224264D01*
X142215337Y-44577688D01*
X142367045Y-43815000D01*
X142215337Y-43052312D01*
X141876362Y-42545000D01*
X142215337Y-42037688D01*
X142367045Y-41275000D01*
X142215337Y-40512312D01*
X141783309Y-39865736D01*
X141136733Y-39433708D01*
X140374045Y-39282000D01*
X140295955Y-39282000D01*
X139533267Y-39433708D01*
X139374292Y-39539931D01*
X139255500Y-39458764D01*
X139255500Y-36449006D01*
X139144326Y-35890097D01*
X139085068Y-35801411D01*
X139058080Y-35761020D01*
X139407564Y-35411537D01*
X139620244Y-34898080D01*
X139620244Y-33496250D01*
X139270994Y-33147000D01*
X137746994Y-33147000D01*
X137746994Y-33167000D01*
X137492994Y-33167000D01*
X137492994Y-33147000D01*
X137472994Y-33147000D01*
X137472994Y-32893000D01*
X137492994Y-32893000D01*
X137492994Y-30372050D01*
X137143744Y-30022800D01*
X137043580Y-30022800D01*
X136928734Y-29744851D01*
X136500400Y-29315769D01*
X135940468Y-29083265D01*
X135334184Y-29082736D01*
X134773847Y-29314262D01*
X134759593Y-29328491D01*
X134525744Y-29375007D01*
X134093125Y-29664073D01*
X133502790Y-30254408D01*
X133016752Y-30254408D01*
X132605439Y-30331802D01*
X132223256Y-30254408D01*
X131016756Y-30254408D01*
X130593186Y-30334108D01*
X130204162Y-30584438D01*
X129943180Y-30966397D01*
X129851364Y-31419800D01*
X129851364Y-33720134D01*
X129370871Y-34200627D01*
X129054274Y-34674447D01*
X128943100Y-35233356D01*
X124968008Y-35233356D01*
X124968264Y-34940688D01*
X124736738Y-34380351D01*
X124380244Y-34023234D01*
X124380244Y-33496250D01*
X124030994Y-33147000D01*
X122506994Y-33147000D01*
X122506994Y-33167000D01*
X122252994Y-33167000D01*
X122252994Y-33147000D01*
X122232994Y-33147000D01*
X122232994Y-32893000D01*
X122252994Y-32893000D01*
X122252994Y-30372050D01*
X121903744Y-30022800D01*
X121833445Y-30022800D01*
X121672736Y-29633853D01*
X121244402Y-29204771D01*
X120684470Y-28972267D01*
X120078186Y-28971738D01*
X119923865Y-29035502D01*
X118668800Y-29035502D01*
X118109891Y-29146676D01*
X117636071Y-29463273D01*
X117347273Y-29752071D01*
X117030676Y-30225891D01*
X117023387Y-30262535D01*
X116983256Y-30254408D01*
X115776756Y-30254408D01*
X115353186Y-30334108D01*
X114964162Y-30584438D01*
X114703180Y-30966397D01*
X114611364Y-31419800D01*
X114611364Y-34620200D01*
X114691064Y-35043770D01*
X114744500Y-35126812D01*
X114744500Y-39459594D01*
X114542406Y-39589638D01*
X114281424Y-39971597D01*
X114189608Y-40425000D01*
X114189608Y-42125000D01*
X114269308Y-42548570D01*
X114461590Y-42847385D01*
X114324663Y-43052312D01*
X114172955Y-43815000D01*
X114324663Y-44577688D01*
X114756691Y-45224264D01*
X115249807Y-45553753D01*
X115037567Y-45695567D01*
X113704067Y-47029067D01*
X113346175Y-47564689D01*
X113346175Y-47564690D01*
X113220500Y-48196500D01*
X104850000Y-48196500D01*
X104850000Y-39237990D01*
X104851676Y-39239669D01*
X106447334Y-39902244D01*
X108175086Y-39903752D01*
X109771898Y-39243963D01*
X110994669Y-38023324D01*
X111657244Y-36427666D01*
X111658752Y-34699914D01*
X110998963Y-33103102D01*
X109778324Y-31880331D01*
X108182666Y-31217756D01*
X106454914Y-31216248D01*
X104858102Y-31876037D01*
X104850000Y-31884125D01*
X104850000Y-24258995D01*
X111664583Y-24278137D01*
X111664583Y-24278137D01*
G37*
X111664583Y-24278137D02*
X111664583Y-29500322D01*
X111744283Y-29923892D01*
X111994613Y-30312916D01*
X112376572Y-30573898D01*
X112829975Y-30665714D01*
X114529997Y-30665714D01*
X114953567Y-30586014D01*
X115342591Y-30335684D01*
X115603573Y-29953725D01*
X115695389Y-29500322D01*
X115695389Y-24289459D01*
X123064611Y-24310159D01*
X123064611Y-29500322D01*
X123144311Y-29923892D01*
X123207957Y-30022800D01*
X122856244Y-30022800D01*
X122506994Y-30372050D01*
X122506994Y-32893000D01*
X124030994Y-32893000D01*
X124380244Y-32543750D01*
X124380244Y-31141920D01*
X124178690Y-30655323D01*
X124230003Y-30665714D01*
X125930025Y-30665714D01*
X126353595Y-30586014D01*
X126742619Y-30335684D01*
X127003539Y-29953816D01*
X127234613Y-30312916D01*
X127616572Y-30573898D01*
X128069975Y-30665714D01*
X129769997Y-30665714D01*
X130193567Y-30586014D01*
X130582591Y-30335684D01*
X130843573Y-29953725D01*
X130935389Y-29500322D01*
X130935389Y-24332268D01*
X138304611Y-24352968D01*
X138304611Y-29500322D01*
X138384311Y-29923892D01*
X138447957Y-30022800D01*
X138096244Y-30022800D01*
X137746994Y-30372050D01*
X137746994Y-32893000D01*
X139270994Y-32893000D01*
X139620244Y-32543750D01*
X139620244Y-31141920D01*
X139418690Y-30655323D01*
X139470003Y-30665714D01*
X141170025Y-30665714D01*
X141593595Y-30586014D01*
X141982619Y-30335684D01*
X142243539Y-29953816D01*
X142474613Y-30312916D01*
X142856572Y-30573898D01*
X143309975Y-30665714D01*
X145009997Y-30665714D01*
X145433567Y-30586014D01*
X145822591Y-30335684D01*
X146083573Y-29953725D01*
X146175389Y-29500322D01*
X146175389Y-24375077D01*
X153544611Y-24395777D01*
X153544611Y-29500322D01*
X153624311Y-29923892D01*
X153687957Y-30022800D01*
X153336244Y-30022800D01*
X152986994Y-30372050D01*
X152986994Y-32893000D01*
X154510994Y-32893000D01*
X154860244Y-32543750D01*
X154860244Y-31141920D01*
X154658690Y-30655323D01*
X154710003Y-30665714D01*
X156410025Y-30665714D01*
X156833595Y-30586014D01*
X157222619Y-30335684D01*
X157483539Y-29953816D01*
X157714613Y-30312916D01*
X158096572Y-30573898D01*
X158549975Y-30665714D01*
X160249997Y-30665714D01*
X160673567Y-30586014D01*
X161062591Y-30335684D01*
X161323573Y-29953725D01*
X161415389Y-29500322D01*
X161415389Y-24417886D01*
X168784611Y-24438586D01*
X168784611Y-29500322D01*
X168864311Y-29923892D01*
X168927957Y-30022800D01*
X168576244Y-30022800D01*
X168226994Y-30372050D01*
X168226994Y-32893000D01*
X169750994Y-32893000D01*
X170100244Y-32543750D01*
X170100244Y-31141920D01*
X169898690Y-30655323D01*
X169950003Y-30665714D01*
X171650025Y-30665714D01*
X172073595Y-30586014D01*
X172462619Y-30335684D01*
X172723539Y-29953816D01*
X172954613Y-30312916D01*
X173336572Y-30573898D01*
X173789975Y-30665714D01*
X175489997Y-30665714D01*
X175913567Y-30586014D01*
X176302591Y-30335684D01*
X176563573Y-29953725D01*
X176655389Y-29500322D01*
X176655389Y-24460695D01*
X184024611Y-24481395D01*
X184024611Y-29500322D01*
X184104311Y-29923892D01*
X184167957Y-30022800D01*
X183816244Y-30022800D01*
X183466994Y-30372050D01*
X183466994Y-32893000D01*
X184990994Y-32893000D01*
X185340244Y-32543750D01*
X185340244Y-31141920D01*
X185138690Y-30655323D01*
X185190003Y-30665714D01*
X186890025Y-30665714D01*
X187313595Y-30586014D01*
X187702619Y-30335684D01*
X187963601Y-29953725D01*
X188055417Y-29500322D01*
X188055417Y-24492717D01*
X193854000Y-24509005D01*
X193854000Y-31722822D01*
X192637666Y-31217756D01*
X190909914Y-31216248D01*
X189313102Y-31876037D01*
X188090331Y-33096676D01*
X187427756Y-34692334D01*
X187426248Y-36420086D01*
X188086037Y-38016898D01*
X189183710Y-39116488D01*
X188760779Y-39124294D01*
X188041011Y-39422432D01*
X188024460Y-39694847D01*
X187491913Y-39339010D01*
X186690000Y-39179500D01*
X185888087Y-39339010D01*
X185300827Y-39731406D01*
X185230505Y-39660961D01*
X184530590Y-39370332D01*
X183772735Y-39369670D01*
X183072314Y-39659078D01*
X182880135Y-39850922D01*
X182690505Y-39660961D01*
X181990590Y-39370332D01*
X181232735Y-39369670D01*
X180532314Y-39659078D01*
X179995961Y-40194495D01*
X179739820Y-40811353D01*
X179680337Y-40512312D01*
X179248309Y-39865736D01*
X178601733Y-39433708D01*
X177839045Y-39282000D01*
X177760955Y-39282000D01*
X176998267Y-39433708D01*
X176839292Y-39539931D01*
X176720500Y-39458764D01*
X176720500Y-35782300D01*
X176736756Y-35785592D01*
X177943256Y-35785592D01*
X178354569Y-35708198D01*
X178498500Y-35737345D01*
X178498500Y-36448391D01*
X178308265Y-36906528D01*
X178307736Y-37512812D01*
X178539262Y-38073149D01*
X178967596Y-38502231D01*
X179527528Y-38734735D01*
X180133812Y-38735264D01*
X180694149Y-38503738D01*
X181123231Y-38075404D01*
X181271253Y-37718927D01*
X181657812Y-37719264D01*
X182218149Y-37487738D01*
X182647231Y-37059404D01*
X182879735Y-36499472D01*
X182880170Y-36000774D01*
X183212994Y-35667950D01*
X183212994Y-33147000D01*
X183466994Y-33147000D01*
X183466994Y-35667950D01*
X183816244Y-36017200D01*
X184221125Y-36017200D01*
X184734581Y-35804519D01*
X185127564Y-35411537D01*
X185340244Y-34898080D01*
X185340244Y-33496250D01*
X184990994Y-33147000D01*
X183466994Y-33147000D01*
X183212994Y-33147000D01*
X183192994Y-33147000D01*
X183192994Y-32893000D01*
X183212994Y-32893000D01*
X183212994Y-30372050D01*
X182863744Y-30022800D01*
X182458863Y-30022800D01*
X181945407Y-30235481D01*
X181926480Y-30254408D01*
X180736748Y-30254408D01*
X180325435Y-30331802D01*
X179943252Y-30254408D01*
X178736752Y-30254408D01*
X178325439Y-30331802D01*
X177943256Y-30254408D01*
X176736756Y-30254408D01*
X176313186Y-30334108D01*
X175924162Y-30584438D01*
X175663180Y-30966397D01*
X175571364Y-31419800D01*
X175571364Y-32723184D01*
X175354777Y-32939771D01*
X175354774Y-32939773D01*
X174227271Y-34067277D01*
X173910674Y-34541097D01*
X173799500Y-35100006D01*
X173799500Y-39459594D01*
X173597406Y-39589638D01*
X173336424Y-39971597D01*
X173244608Y-40425000D01*
X173244608Y-42125000D01*
X173324308Y-42548570D01*
X173516590Y-42847385D01*
X173379663Y-43052312D01*
X173227955Y-43815000D01*
X173379663Y-44577688D01*
X173811691Y-45224264D01*
X174458267Y-45656292D01*
X175220955Y-45808000D01*
X175299045Y-45808000D01*
X176061733Y-45656292D01*
X176530000Y-45343406D01*
X176998267Y-45656292D01*
X177760955Y-45808000D01*
X177839045Y-45808000D01*
X178601733Y-45656292D01*
X179248309Y-45224264D01*
X179680337Y-44577688D01*
X179832045Y-43815000D01*
X179680337Y-43052312D01*
X179341362Y-42545000D01*
X179680337Y-42037688D01*
X179739996Y-41737761D01*
X179959000Y-42267791D01*
X179959000Y-48857133D01*
X176097996Y-52718138D01*
X175978403Y-52636424D01*
X175525000Y-52544608D01*
X173725000Y-52544608D01*
X173301430Y-52624308D01*
X173038216Y-52793682D01*
X172493161Y-52567355D01*
X171680405Y-52566646D01*
X170929245Y-52877019D01*
X170354039Y-53451222D01*
X170042355Y-54201839D01*
X170042331Y-54229000D01*
X168021181Y-54229000D01*
X167748554Y-54046836D01*
X167005000Y-53898934D01*
X166261446Y-54046836D01*
X165631092Y-54468026D01*
X165209902Y-55098380D01*
X165062000Y-55841934D01*
X165062000Y-55918066D01*
X165209902Y-56661620D01*
X165631092Y-57291974D01*
X166261446Y-57713164D01*
X167005000Y-57861066D01*
X167748554Y-57713164D01*
X168021181Y-57531000D01*
X170815000Y-57531000D01*
X171446811Y-57405325D01*
X171982433Y-57047433D01*
X172376611Y-56653255D01*
X172489595Y-56653354D01*
X173040546Y-56425706D01*
X173271597Y-56583576D01*
X173725000Y-56675392D01*
X175525000Y-56675392D01*
X175948570Y-56595692D01*
X176337594Y-56345362D01*
X176395236Y-56261000D01*
X176541000Y-56261000D01*
X177172811Y-56135325D01*
X177708433Y-55777433D01*
X182777434Y-50708433D01*
X183135325Y-50172810D01*
X183261000Y-49541000D01*
X183261000Y-42968559D01*
X183769410Y-43179668D01*
X184527265Y-43180330D01*
X184594500Y-43152549D01*
X184594500Y-65499016D01*
X184545258Y-65548258D01*
X184388467Y-65782911D01*
X183986902Y-65749703D01*
X182706605Y-67030000D01*
X183986902Y-68310297D01*
X184388467Y-68277089D01*
X184545258Y-68511742D01*
X185225086Y-68965990D01*
X186027000Y-69125500D01*
X186828914Y-68965990D01*
X187508742Y-68511742D01*
X188171743Y-67848742D01*
X188625990Y-67168913D01*
X188785500Y-66367000D01*
X188785500Y-43419969D01*
X188840464Y-43441556D01*
X189699221Y-43425706D01*
X190418989Y-43127568D01*
X190446709Y-42671317D01*
X190694989Y-42919597D01*
X190714969Y-42899617D01*
X191389410Y-43179668D01*
X192147265Y-43180330D01*
X192847686Y-42890922D01*
X193384039Y-42355505D01*
X193674668Y-41655590D01*
X193675330Y-40897735D01*
X193385922Y-40197314D01*
X192957729Y-39768373D01*
X193854000Y-39398041D01*
X193854000Y-71092822D01*
X192637666Y-70587756D01*
X190909914Y-70586248D01*
X189313102Y-71246037D01*
X188090331Y-72466676D01*
X187427756Y-74062334D01*
X187426248Y-75790086D01*
X188086037Y-77386898D01*
X189306676Y-78609669D01*
X189745778Y-78792000D01*
X167864038Y-78792000D01*
X109736184Y-78628720D01*
X109771898Y-78613963D01*
X110994669Y-77393324D01*
X111657244Y-75797666D01*
X111657557Y-75438474D01*
X114670494Y-75438474D01*
X115114253Y-76512452D01*
X115935226Y-77334860D01*
X117008428Y-77780492D01*
X118170474Y-77781506D01*
X119244452Y-77337747D01*
X120066860Y-76516774D01*
X120512492Y-75443572D01*
X120512496Y-75438474D01*
X124195494Y-75438474D01*
X124639253Y-76512452D01*
X125460226Y-77334860D01*
X126533428Y-77780492D01*
X127695474Y-77781506D01*
X128769452Y-77337747D01*
X129591860Y-76516774D01*
X130037492Y-75443572D01*
X130037496Y-75438474D01*
X133720494Y-75438474D01*
X134164253Y-76512452D01*
X134985226Y-77334860D01*
X136058428Y-77780492D01*
X137220474Y-77781506D01*
X138294452Y-77337747D01*
X139116860Y-76516774D01*
X139440038Y-75738474D01*
X143435494Y-75738474D01*
X143879253Y-76812452D01*
X144700226Y-77634860D01*
X145773428Y-78080492D01*
X146935474Y-78081506D01*
X148009452Y-77637747D01*
X148831860Y-76816774D01*
X149277492Y-75743572D01*
X149277758Y-75438474D01*
X152770494Y-75438474D01*
X153214253Y-76512452D01*
X154035226Y-77334860D01*
X155108428Y-77780492D01*
X156270474Y-77781506D01*
X157344452Y-77337747D01*
X158166860Y-76516774D01*
X158612492Y-75443572D01*
X158612496Y-75438474D01*
X162295494Y-75438474D01*
X162739253Y-76512452D01*
X163560226Y-77334860D01*
X164633428Y-77780492D01*
X165795474Y-77781506D01*
X166869452Y-77337747D01*
X167691860Y-76516774D01*
X168137492Y-75443572D01*
X168137496Y-75438474D01*
X171820494Y-75438474D01*
X172264253Y-76512452D01*
X173085226Y-77334860D01*
X174158428Y-77780492D01*
X175320474Y-77781506D01*
X176394452Y-77337747D01*
X177216860Y-76516774D01*
X177662492Y-75443572D01*
X177662496Y-75438474D01*
X181345494Y-75438474D01*
X181789253Y-76512452D01*
X182610226Y-77334860D01*
X183683428Y-77780492D01*
X184845474Y-77781506D01*
X185919452Y-77337747D01*
X186741860Y-76516774D01*
X187187492Y-75443572D01*
X187188506Y-74281526D01*
X186744747Y-73207548D01*
X185923774Y-72385140D01*
X184850572Y-71939508D01*
X183688526Y-71938494D01*
X182614548Y-72382253D01*
X181792140Y-73203226D01*
X181346508Y-74276428D01*
X181345494Y-75438474D01*
X177662496Y-75438474D01*
X177663506Y-74281526D01*
X177219747Y-73207548D01*
X176398774Y-72385140D01*
X175325572Y-71939508D01*
X174163526Y-71938494D01*
X173089548Y-72382253D01*
X172267140Y-73203226D01*
X171821508Y-74276428D01*
X171820494Y-75438474D01*
X168137496Y-75438474D01*
X168138506Y-74281526D01*
X167694747Y-73207548D01*
X166873774Y-72385140D01*
X165800572Y-71939508D01*
X164638526Y-71938494D01*
X163564548Y-72382253D01*
X162742140Y-73203226D01*
X162296508Y-74276428D01*
X162295494Y-75438474D01*
X158612496Y-75438474D01*
X158613506Y-74281526D01*
X158169747Y-73207548D01*
X157348774Y-72385140D01*
X156275572Y-71939508D01*
X155113526Y-71938494D01*
X154039548Y-72382253D01*
X153217140Y-73203226D01*
X152771508Y-74276428D01*
X152770494Y-75438474D01*
X149277758Y-75438474D01*
X149278506Y-74581526D01*
X148834747Y-73507548D01*
X148013774Y-72685140D01*
X146940572Y-72239508D01*
X145778526Y-72238494D01*
X144704548Y-72682253D01*
X143882140Y-73503226D01*
X143436508Y-74576428D01*
X143435494Y-75738474D01*
X139440038Y-75738474D01*
X139562492Y-75443572D01*
X139563506Y-74281526D01*
X139119747Y-73207548D01*
X138298774Y-72385140D01*
X137225572Y-71939508D01*
X136063526Y-71938494D01*
X134989548Y-72382253D01*
X134167140Y-73203226D01*
X133721508Y-74276428D01*
X133720494Y-75438474D01*
X130037496Y-75438474D01*
X130038506Y-74281526D01*
X129594747Y-73207548D01*
X128773774Y-72385140D01*
X127700572Y-71939508D01*
X126538526Y-71938494D01*
X125464548Y-72382253D01*
X124642140Y-73203226D01*
X124196508Y-74276428D01*
X124195494Y-75438474D01*
X120512496Y-75438474D01*
X120513506Y-74281526D01*
X120069747Y-73207548D01*
X119248774Y-72385140D01*
X118175572Y-71939508D01*
X117013526Y-71938494D01*
X115939548Y-72382253D01*
X115117140Y-73203226D01*
X114671508Y-74276428D01*
X114670494Y-75438474D01*
X111657557Y-75438474D01*
X111658752Y-74069914D01*
X110998963Y-72473102D01*
X109778324Y-71250331D01*
X108182666Y-70587756D01*
X106454914Y-70586248D01*
X104858102Y-71246037D01*
X104850000Y-71254125D01*
X104850000Y-48196500D01*
X113220500Y-48196500D01*
X113220500Y-55880000D01*
X113346175Y-56511811D01*
X113704067Y-57047433D01*
X116434567Y-59777933D01*
X116970189Y-60135825D01*
X117075013Y-60156676D01*
X117602000Y-60261500D01*
X123141134Y-60261500D01*
X124347634Y-61468000D01*
X119763000Y-61468000D01*
X119236013Y-61572824D01*
X119131189Y-61593675D01*
X118595567Y-61951567D01*
X115510433Y-65036701D01*
X115457307Y-65036655D01*
X114724531Y-65339432D01*
X114163402Y-65899582D01*
X113859347Y-66631829D01*
X113858655Y-67424693D01*
X114161432Y-68157469D01*
X114721582Y-68718598D01*
X115453829Y-69022653D01*
X116246693Y-69023345D01*
X116979469Y-68720568D01*
X117540598Y-68160418D01*
X117601775Y-68013088D01*
X117661432Y-68157469D01*
X118221582Y-68718598D01*
X118953829Y-69022653D01*
X119746693Y-69023345D01*
X120479469Y-68720568D01*
X121040598Y-68160418D01*
X121344653Y-67428171D01*
X121345345Y-66635307D01*
X121042568Y-65902531D01*
X120482418Y-65341402D01*
X120053547Y-65163319D01*
X120446866Y-64770000D01*
X124282134Y-64770000D01*
X124675542Y-65163408D01*
X124249531Y-65339432D01*
X123688402Y-65899582D01*
X123384347Y-66631829D01*
X123383655Y-67424693D01*
X123686432Y-68157469D01*
X124246582Y-68718598D01*
X124978829Y-69022653D01*
X125034836Y-69022702D01*
X126394567Y-70382434D01*
X126930190Y-70740325D01*
X127562000Y-70866000D01*
X136217000Y-70866000D01*
X136848811Y-70740325D01*
X137384433Y-70382433D01*
X138719435Y-69047432D01*
X138719437Y-69047429D01*
X138743567Y-69023299D01*
X138796693Y-69023345D01*
X139529469Y-68720568D01*
X140090598Y-68160418D01*
X140394653Y-67428171D01*
X140395345Y-66635307D01*
X140092568Y-65902531D01*
X139532418Y-65341402D01*
X138800171Y-65037347D01*
X138007307Y-65036655D01*
X137274531Y-65339432D01*
X136713402Y-65899582D01*
X136652225Y-66046912D01*
X136592568Y-65902531D01*
X136032418Y-65341402D01*
X135300171Y-65037347D01*
X134507307Y-65036655D01*
X133774531Y-65339432D01*
X133734894Y-65379000D01*
X132928366Y-65379000D01*
X130541366Y-62992000D01*
X139842053Y-62992000D01*
X142247486Y-65397433D01*
X142783108Y-65755325D01*
X143191821Y-65836623D01*
X142928402Y-66099582D01*
X142624347Y-66831829D01*
X142623655Y-67624693D01*
X142926432Y-68357469D01*
X142966000Y-68397106D01*
X142966000Y-68432081D01*
X143091675Y-69063892D01*
X143449567Y-69599514D01*
X144613486Y-70763433D01*
X145149108Y-71121325D01*
X145780919Y-71247000D01*
X164411000Y-71247000D01*
X165042811Y-71121325D01*
X165578433Y-70763433D01*
X167318567Y-69023299D01*
X167371693Y-69023345D01*
X168104469Y-68720568D01*
X168335538Y-68489902D01*
X171721703Y-68489902D01*
X171760188Y-68955274D01*
X172591486Y-69283942D01*
X173485281Y-69269468D01*
X174243812Y-68955274D01*
X174282297Y-68489902D01*
X173002000Y-67209605D01*
X171721703Y-68489902D01*
X168335538Y-68489902D01*
X168665598Y-68160418D01*
X168969653Y-67428171D01*
X168970345Y-66635307D01*
X168963808Y-66619486D01*
X170748058Y-66619486D01*
X170762532Y-67513281D01*
X171076726Y-68271812D01*
X171542098Y-68310297D01*
X172822395Y-67030000D01*
X171542098Y-65749703D01*
X171076726Y-65788188D01*
X170748058Y-66619486D01*
X168963808Y-66619486D01*
X168667568Y-65902531D01*
X168107418Y-65341402D01*
X167375171Y-65037347D01*
X166582307Y-65036655D01*
X165849531Y-65339432D01*
X165400165Y-65788014D01*
X164936902Y-65749703D01*
X163656605Y-67030000D01*
X163670748Y-67044143D01*
X163491143Y-67223748D01*
X163477000Y-67209605D01*
X163462858Y-67223748D01*
X163283253Y-67044143D01*
X163297395Y-67030000D01*
X162017098Y-65749703D01*
X161551726Y-65788188D01*
X161223058Y-66619486D01*
X161237532Y-67513281D01*
X161416356Y-67945000D01*
X159230047Y-67945000D01*
X159444653Y-67428171D01*
X159445345Y-66635307D01*
X159142568Y-65902531D01*
X159103000Y-65862894D01*
X159103000Y-65570098D01*
X162196703Y-65570098D01*
X163477000Y-66850395D01*
X164757297Y-65570098D01*
X164718812Y-65104726D01*
X163887514Y-64776058D01*
X162993719Y-64790532D01*
X162235188Y-65104726D01*
X162196703Y-65570098D01*
X159103000Y-65570098D01*
X159103000Y-59662000D01*
X158977325Y-59030190D01*
X158619434Y-58494567D01*
X156389658Y-56264791D01*
X158711663Y-56264791D01*
X159006844Y-56979183D01*
X159552942Y-57526235D01*
X160259940Y-57819806D01*
X165467566Y-63027433D01*
X166003189Y-63385324D01*
X166634999Y-63510999D01*
X173238999Y-63510999D01*
X173238999Y-64778868D01*
X172518719Y-64790532D01*
X171760188Y-65104726D01*
X171721703Y-65570098D01*
X173002000Y-66850395D01*
X173016143Y-66836253D01*
X173195748Y-67015858D01*
X173181605Y-67030000D01*
X174461902Y-68310297D01*
X174925705Y-68271942D01*
X175371582Y-68718598D01*
X176103829Y-69022653D01*
X176896693Y-69023345D01*
X177629469Y-68720568D01*
X177860538Y-68489902D01*
X181246703Y-68489902D01*
X181285188Y-68955274D01*
X182116486Y-69283942D01*
X183010281Y-69269468D01*
X183768812Y-68955274D01*
X183807297Y-68489902D01*
X182527000Y-67209605D01*
X181246703Y-68489902D01*
X177860538Y-68489902D01*
X178190598Y-68160418D01*
X178494653Y-67428171D01*
X178495345Y-66635307D01*
X178488808Y-66619486D01*
X180273058Y-66619486D01*
X180287532Y-67513281D01*
X180601726Y-68271812D01*
X181067098Y-68310297D01*
X182347395Y-67030000D01*
X181067098Y-65749703D01*
X180601726Y-65788188D01*
X180273058Y-66619486D01*
X178488808Y-66619486D01*
X178192568Y-65902531D01*
X177860715Y-65570098D01*
X181246703Y-65570098D01*
X182527000Y-66850395D01*
X183807297Y-65570098D01*
X183768812Y-65104726D01*
X182937514Y-64776058D01*
X182043719Y-64790532D01*
X181285188Y-65104726D01*
X181246703Y-65570098D01*
X177860715Y-65570098D01*
X177632418Y-65341402D01*
X176900171Y-65037347D01*
X176844165Y-65037298D01*
X176540999Y-64734133D01*
X176540999Y-61859999D01*
X176415324Y-61228189D01*
X176057432Y-60692566D01*
X175521809Y-60334674D01*
X174889999Y-60208999D01*
X167318866Y-60208999D01*
X162593592Y-55483726D01*
X162303156Y-54780817D01*
X161757058Y-54233765D01*
X161043182Y-53937338D01*
X160270209Y-53936663D01*
X159555817Y-54231844D01*
X159008765Y-54777942D01*
X158712338Y-55491818D01*
X158711663Y-56264791D01*
X156389658Y-56264791D01*
X155608592Y-55483726D01*
X155318156Y-54780817D01*
X154772058Y-54233765D01*
X154058182Y-53937338D01*
X153285209Y-53936663D01*
X152570817Y-54231844D01*
X152023765Y-54777942D01*
X151727338Y-55491818D01*
X151726663Y-56264791D01*
X152021844Y-56979183D01*
X152567942Y-57526235D01*
X153274940Y-57819806D01*
X155801000Y-60345867D01*
X155801000Y-65862050D01*
X155763402Y-65899582D01*
X155702225Y-66046912D01*
X155642568Y-65902531D01*
X155603000Y-65862894D01*
X155603000Y-65827919D01*
X155477325Y-65196109D01*
X155253954Y-64861811D01*
X155119433Y-64660485D01*
X151031000Y-60572053D01*
X151031000Y-50955000D01*
X150905325Y-50323190D01*
X150547434Y-49787567D01*
X148981801Y-48221934D01*
X151727000Y-48221934D01*
X151727000Y-48298066D01*
X151874902Y-49041620D01*
X152296092Y-49671974D01*
X152926446Y-50093164D01*
X153670000Y-50241066D01*
X154413554Y-50093164D01*
X155043908Y-49671974D01*
X155465098Y-49041620D01*
X155613000Y-48298066D01*
X155613000Y-48221934D01*
X158712000Y-48221934D01*
X158712000Y-48298066D01*
X158859902Y-49041620D01*
X159281092Y-49671974D01*
X159911446Y-50093164D01*
X160655000Y-50241066D01*
X161398554Y-50093164D01*
X162028908Y-49671974D01*
X162450098Y-49041620D01*
X162529032Y-48644791D01*
X165061663Y-48644791D01*
X165356844Y-49359183D01*
X165902942Y-49906235D01*
X166616818Y-50202662D01*
X167389791Y-50203337D01*
X168104183Y-49908156D01*
X168651235Y-49362058D01*
X168947662Y-48648182D01*
X168948337Y-47875209D01*
X168653156Y-47160817D01*
X168107058Y-46613765D01*
X167393182Y-46317338D01*
X166620209Y-46316663D01*
X165905817Y-46611844D01*
X165358765Y-47157942D01*
X165062338Y-47871818D01*
X165061663Y-48644791D01*
X162529032Y-48644791D01*
X162598000Y-48298066D01*
X162598000Y-48221934D01*
X162450098Y-47478380D01*
X162028908Y-46848026D01*
X161398554Y-46426836D01*
X160655000Y-46278934D01*
X159911446Y-46426836D01*
X159281092Y-46848026D01*
X158859902Y-47478380D01*
X158712000Y-48221934D01*
X155613000Y-48221934D01*
X155465098Y-47478380D01*
X155043908Y-46848026D01*
X154413554Y-46426836D01*
X153670000Y-46278934D01*
X152926446Y-46426836D01*
X152296092Y-46848026D01*
X151874902Y-47478380D01*
X151727000Y-48221934D01*
X148981801Y-48221934D01*
X148623592Y-47863726D01*
X148336000Y-47167700D01*
X148336000Y-47038866D01*
X149642058Y-45732809D01*
X150026733Y-45656292D01*
X150673309Y-45224264D01*
X151105337Y-44577688D01*
X151130000Y-44453699D01*
X151154663Y-44577688D01*
X151586691Y-45224264D01*
X152233267Y-45656292D01*
X152995955Y-45808000D01*
X153074045Y-45808000D01*
X153836733Y-45656292D01*
X154305000Y-45343406D01*
X154773267Y-45656292D01*
X155535955Y-45808000D01*
X155614045Y-45808000D01*
X156376733Y-45656292D01*
X157023309Y-45224264D01*
X157455337Y-44577688D01*
X157607045Y-43815000D01*
X159892955Y-43815000D01*
X160044663Y-44577688D01*
X160476691Y-45224264D01*
X161123267Y-45656292D01*
X161885955Y-45808000D01*
X161964045Y-45808000D01*
X162726733Y-45656292D01*
X163195000Y-45343406D01*
X163663267Y-45656292D01*
X164425955Y-45808000D01*
X164504045Y-45808000D01*
X165266733Y-45656292D01*
X165913309Y-45224264D01*
X166345337Y-44577688D01*
X166370000Y-44453699D01*
X166394663Y-44577688D01*
X166826691Y-45224264D01*
X167473267Y-45656292D01*
X168235955Y-45808000D01*
X168314045Y-45808000D01*
X169076733Y-45656292D01*
X169545000Y-45343406D01*
X170013267Y-45656292D01*
X170775955Y-45808000D01*
X170854045Y-45808000D01*
X171616733Y-45656292D01*
X172263309Y-45224264D01*
X172695337Y-44577688D01*
X172847045Y-43815000D01*
X172695337Y-43052312D01*
X172356362Y-42545000D01*
X172695337Y-42037688D01*
X172847045Y-41275000D01*
X172695337Y-40512312D01*
X172263309Y-39865736D01*
X171616733Y-39433708D01*
X170854045Y-39282000D01*
X170775955Y-39282000D01*
X170013267Y-39433708D01*
X169854292Y-39539931D01*
X169735500Y-39458764D01*
X169735500Y-36672961D01*
X169752230Y-36656231D01*
X169752232Y-36656228D01*
X169810250Y-36598210D01*
X169962649Y-36535240D01*
X170391731Y-36106906D01*
X170624235Y-35546974D01*
X170624764Y-34940690D01*
X170393238Y-34380353D01*
X170100244Y-34086847D01*
X170100244Y-33496250D01*
X169750994Y-33147000D01*
X168226994Y-33147000D01*
X168226994Y-33167000D01*
X167972994Y-33167000D01*
X167972994Y-33147000D01*
X167952994Y-33147000D01*
X167952994Y-32893000D01*
X167972994Y-32893000D01*
X167972994Y-30372050D01*
X167623744Y-30022800D01*
X167501534Y-30022800D01*
X167281738Y-29490851D01*
X166853404Y-29061769D01*
X166293472Y-28829265D01*
X165687188Y-28828736D01*
X165532867Y-28892500D01*
X164531802Y-28892500D01*
X164130787Y-28972267D01*
X163972892Y-29003674D01*
X163499072Y-29320271D01*
X163067273Y-29752071D01*
X162750676Y-30225891D01*
X162743387Y-30262535D01*
X162703256Y-30254408D01*
X161496756Y-30254408D01*
X161073186Y-30334108D01*
X160684162Y-30584438D01*
X160423180Y-30966397D01*
X160331364Y-31419800D01*
X160331364Y-34620200D01*
X160411064Y-35043770D01*
X160464500Y-35126812D01*
X160464500Y-39459594D01*
X160262406Y-39589638D01*
X160001424Y-39971597D01*
X159909608Y-40425000D01*
X159909608Y-42125000D01*
X159989308Y-42548570D01*
X160181590Y-42847385D01*
X160044663Y-43052312D01*
X159892955Y-43815000D01*
X157607045Y-43815000D01*
X157455337Y-43052312D01*
X157116362Y-42545000D01*
X157455337Y-42037688D01*
X157607045Y-41275000D01*
X157455337Y-40512312D01*
X157023309Y-39865736D01*
X156376733Y-39433708D01*
X155614045Y-39282000D01*
X155535955Y-39282000D01*
X154773267Y-39433708D01*
X154614292Y-39539931D01*
X154495500Y-39458764D01*
X154495500Y-35952235D01*
X154558314Y-35800962D01*
X154558576Y-35500525D01*
X154647564Y-35411537D01*
X154860244Y-34898080D01*
X154860244Y-33496250D01*
X154510994Y-33147000D01*
X152986994Y-33147000D01*
X152986994Y-33167000D01*
X152732994Y-33167000D01*
X152732994Y-33147000D01*
X152712994Y-33147000D01*
X152712994Y-32893000D01*
X152732994Y-32893000D01*
X152732994Y-30372050D01*
X152399942Y-30038998D01*
X152400264Y-29670188D01*
X152168738Y-29109851D01*
X151740404Y-28680769D01*
X151180472Y-28448265D01*
X150574188Y-28447736D01*
X150013851Y-28679262D01*
X149584769Y-29107596D01*
X149352265Y-29667528D01*
X149351753Y-30254408D01*
X148256752Y-30254408D01*
X147845439Y-30331802D01*
X147463256Y-30254408D01*
X146256756Y-30254408D01*
X145833186Y-30334108D01*
X145444162Y-30584438D01*
X145183180Y-30966397D01*
X145091364Y-31419800D01*
X145091364Y-34620200D01*
X145171064Y-35043770D01*
X145224500Y-35126812D01*
X145224500Y-39459594D01*
X145022406Y-39589638D01*
X144761424Y-39971597D01*
X144669608Y-40425000D01*
X144669608Y-42125000D01*
X144749308Y-42548570D01*
X144941590Y-42847385D01*
X144804663Y-43052312D01*
X144652955Y-43815000D01*
X144804663Y-44577688D01*
X145236691Y-45224264D01*
X145413920Y-45342685D01*
X145159675Y-45723189D01*
X145089833Y-46074308D01*
X145034000Y-46355000D01*
X145034000Y-46609000D01*
X141803693Y-46609000D01*
X141635362Y-46347406D01*
X141253403Y-46086424D01*
X140800000Y-45994608D01*
X138600000Y-45994608D01*
X138176430Y-46074308D01*
X137787406Y-46324638D01*
X137526424Y-46706597D01*
X137434608Y-47160000D01*
X137434608Y-47231344D01*
X136787831Y-46584567D01*
X136252209Y-46226675D01*
X135620398Y-46101000D01*
X129473000Y-46101000D01*
X128841190Y-46226675D01*
X128305567Y-46584566D01*
X127388658Y-47501476D01*
X126777314Y-47754078D01*
X126240961Y-48289495D01*
X125950332Y-48989410D01*
X125949670Y-49747265D01*
X126239078Y-50447686D01*
X126774495Y-50984039D01*
X127474410Y-51274668D01*
X128232265Y-51275330D01*
X128932686Y-50985922D01*
X129469039Y-50450505D01*
X129724442Y-49835425D01*
X130156867Y-49403000D01*
X131341752Y-49403000D01*
X131193000Y-49762120D01*
X131193000Y-50323750D01*
X131542250Y-50673000D01*
X133223000Y-50673000D01*
X133223000Y-50653000D01*
X133477000Y-50653000D01*
X133477000Y-50673000D01*
X135157750Y-50673000D01*
X135507000Y-50323750D01*
X135507000Y-49973468D01*
X139221724Y-53688192D01*
X138841641Y-53763795D01*
X138113959Y-54250016D01*
X137627738Y-54977698D01*
X137457000Y-55836057D01*
X137457000Y-55923943D01*
X137627738Y-56782302D01*
X138113959Y-57509984D01*
X138841641Y-57996205D01*
X139700000Y-58166943D01*
X140558359Y-57996205D01*
X141286041Y-57509984D01*
X141772262Y-56782302D01*
X141862446Y-56328914D01*
X142580965Y-57047433D01*
X143116588Y-57405325D01*
X143748398Y-57531000D01*
X145668819Y-57531000D01*
X145941446Y-57713164D01*
X146685000Y-57861066D01*
X147428554Y-57713164D01*
X147729000Y-57512412D01*
X147729000Y-61255919D01*
X147854675Y-61887730D01*
X147920265Y-61985892D01*
X147633719Y-61990532D01*
X146875188Y-62304726D01*
X146836703Y-62770098D01*
X148117000Y-64050395D01*
X148131143Y-64036253D01*
X148310748Y-64215858D01*
X148296605Y-64230000D01*
X149576902Y-65510297D01*
X150042274Y-65471812D01*
X150370942Y-64640514D01*
X150369974Y-64580760D01*
X152094810Y-66305596D01*
X151959347Y-66631829D01*
X151958655Y-67424693D01*
X152173642Y-67945000D01*
X150250558Y-67945000D01*
X150370942Y-67640514D01*
X150356468Y-66746719D01*
X150042274Y-65988188D01*
X149576902Y-65949703D01*
X148296605Y-67230000D01*
X148310748Y-67244143D01*
X148131143Y-67423748D01*
X148117000Y-67409605D01*
X148102858Y-67423748D01*
X147923253Y-67244143D01*
X147937395Y-67230000D01*
X146657098Y-65949703D01*
X146193295Y-65988058D01*
X145935529Y-65729842D01*
X145975538Y-65689902D01*
X146836703Y-65689902D01*
X146840019Y-65730000D01*
X146836703Y-65770098D01*
X146843933Y-65777328D01*
X146875188Y-66155274D01*
X147448579Y-66381974D01*
X148117000Y-67050395D01*
X148766973Y-66400422D01*
X149358812Y-66155274D01*
X149390067Y-65777328D01*
X149397297Y-65770098D01*
X149393981Y-65730000D01*
X149397297Y-65689902D01*
X149390067Y-65682672D01*
X149358812Y-65304726D01*
X148785421Y-65078026D01*
X148117000Y-64409605D01*
X147467027Y-65059578D01*
X146875188Y-65304726D01*
X146843933Y-65682672D01*
X146836703Y-65689902D01*
X145975538Y-65689902D01*
X146193835Y-65471986D01*
X146657098Y-65510297D01*
X147937395Y-64230000D01*
X146657098Y-62949703D01*
X146193295Y-62988058D01*
X145747418Y-62541402D01*
X145015171Y-62237347D01*
X144222307Y-62236655D01*
X143892651Y-62372866D01*
X141693352Y-60173567D01*
X141157730Y-59815675D01*
X140525919Y-59690000D01*
X130731867Y-59690000D01*
X127341236Y-56299369D01*
X127474410Y-56354668D01*
X128232265Y-56355330D01*
X128932686Y-56065922D01*
X129469039Y-55530505D01*
X129759668Y-54830590D01*
X129760330Y-54072735D01*
X129470922Y-53372314D01*
X128935505Y-52835961D01*
X128235590Y-52545332D01*
X127477735Y-52544670D01*
X126777314Y-52834078D01*
X126682522Y-52928705D01*
X126389434Y-52490067D01*
X125175617Y-51276250D01*
X131193000Y-51276250D01*
X131193000Y-51837880D01*
X131405680Y-52351337D01*
X131613639Y-52559296D01*
X131447331Y-52959809D01*
X131446670Y-53716869D01*
X131735774Y-54416555D01*
X131928751Y-54609868D01*
X131737656Y-54800630D01*
X131447331Y-55499809D01*
X131446670Y-56256869D01*
X131735774Y-56956555D01*
X132270630Y-57492344D01*
X132969809Y-57782669D01*
X133726869Y-57783330D01*
X134426555Y-57494226D01*
X134962344Y-56959370D01*
X135252669Y-56260191D01*
X135253330Y-55503131D01*
X134964226Y-54803445D01*
X134771249Y-54610132D01*
X134962344Y-54419370D01*
X135252669Y-53720191D01*
X135253330Y-52963131D01*
X135086437Y-52559219D01*
X135294320Y-52351337D01*
X135507000Y-51837880D01*
X135507000Y-51276250D01*
X135157750Y-50927000D01*
X133477000Y-50927000D01*
X133477000Y-50947000D01*
X133223000Y-50947000D01*
X133223000Y-50927000D01*
X131542250Y-50927000D01*
X131193000Y-51276250D01*
X125175617Y-51276250D01*
X124738433Y-50839067D01*
X124295964Y-50543418D01*
X124389039Y-50450505D01*
X124679668Y-49750590D01*
X124680330Y-48992735D01*
X124390922Y-48292314D01*
X123855505Y-47755961D01*
X123155590Y-47465332D01*
X122397735Y-47464670D01*
X121697414Y-47754037D01*
X121402433Y-47312566D01*
X119785433Y-45695567D01*
X119636694Y-45596182D01*
X120193309Y-45224264D01*
X120625337Y-44577688D01*
X120650000Y-44453699D01*
X120674663Y-44577688D01*
X121106691Y-45224264D01*
X121753267Y-45656292D01*
X122515955Y-45808000D01*
X122594045Y-45808000D01*
X123356733Y-45656292D01*
X123825000Y-45343406D01*
X124293267Y-45656292D01*
X125055955Y-45808000D01*
X125134045Y-45808000D01*
X125896733Y-45656292D01*
X126543309Y-45224264D01*
X126975337Y-44577688D01*
X127127045Y-43815000D01*
X126975337Y-43052312D01*
X126636362Y-42545000D01*
X126975337Y-42037688D01*
X127127045Y-41275000D01*
X126975337Y-40512312D01*
X126543309Y-39865736D01*
X125896733Y-39433708D01*
X125134045Y-39282000D01*
X125055955Y-39282000D01*
X124293267Y-39433708D01*
X124134292Y-39539931D01*
X124015500Y-39458764D01*
X124015500Y-36736459D01*
X124095731Y-36656228D01*
X124095733Y-36656225D01*
X124153750Y-36598208D01*
X124306149Y-36535238D01*
X124735231Y-36106904D01*
X124967735Y-35546972D01*
X124968008Y-35233356D01*
X128943100Y-35233356D01*
X128943100Y-38748600D01*
X129039074Y-39231091D01*
X129054274Y-39307509D01*
X129370871Y-39781329D01*
X129537545Y-39948003D01*
X129521424Y-39971597D01*
X129429608Y-40425000D01*
X129429608Y-42125000D01*
X129509308Y-42548570D01*
X129701590Y-42847385D01*
X129564663Y-43052312D01*
X129412955Y-43815000D01*
X129564663Y-44577688D01*
X129996691Y-45224264D01*
X130643267Y-45656292D01*
X131405955Y-45808000D01*
X131484045Y-45808000D01*
X132246733Y-45656292D01*
X132715000Y-45343406D01*
X133183267Y-45656292D01*
X133945955Y-45808000D01*
X134024045Y-45808000D01*
X134786733Y-45656292D01*
X135433309Y-45224264D01*
X135865337Y-44577688D01*
X135890000Y-44453699D01*
X135914663Y-44577688D01*
X136346691Y-45224264D01*
X136993267Y-45656292D01*
X137755955Y-45808000D01*
X137834045Y-45808000D01*
X138596733Y-45656292D01*
X139065000Y-45343406D01*
X139533267Y-45656292D01*
X140295955Y-45808000D01*
X140374045Y-45808000D01*
X141136733Y-45656292D01*
X141783309Y-45224264D01*
X142215337Y-44577688D01*
X142367045Y-43815000D01*
X142215337Y-43052312D01*
X141876362Y-42545000D01*
X142215337Y-42037688D01*
X142367045Y-41275000D01*
X142215337Y-40512312D01*
X141783309Y-39865736D01*
X141136733Y-39433708D01*
X140374045Y-39282000D01*
X140295955Y-39282000D01*
X139533267Y-39433708D01*
X139374292Y-39539931D01*
X139255500Y-39458764D01*
X139255500Y-36449006D01*
X139144326Y-35890097D01*
X139085068Y-35801411D01*
X139058080Y-35761020D01*
X139407564Y-35411537D01*
X139620244Y-34898080D01*
X139620244Y-33496250D01*
X139270994Y-33147000D01*
X137746994Y-33147000D01*
X137746994Y-33167000D01*
X137492994Y-33167000D01*
X137492994Y-33147000D01*
X137472994Y-33147000D01*
X137472994Y-32893000D01*
X137492994Y-32893000D01*
X137492994Y-30372050D01*
X137143744Y-30022800D01*
X137043580Y-30022800D01*
X136928734Y-29744851D01*
X136500400Y-29315769D01*
X135940468Y-29083265D01*
X135334184Y-29082736D01*
X134773847Y-29314262D01*
X134759593Y-29328491D01*
X134525744Y-29375007D01*
X134093125Y-29664073D01*
X133502790Y-30254408D01*
X133016752Y-30254408D01*
X132605439Y-30331802D01*
X132223256Y-30254408D01*
X131016756Y-30254408D01*
X130593186Y-30334108D01*
X130204162Y-30584438D01*
X129943180Y-30966397D01*
X129851364Y-31419800D01*
X129851364Y-33720134D01*
X129370871Y-34200627D01*
X129054274Y-34674447D01*
X128943100Y-35233356D01*
X124968008Y-35233356D01*
X124968264Y-34940688D01*
X124736738Y-34380351D01*
X124380244Y-34023234D01*
X124380244Y-33496250D01*
X124030994Y-33147000D01*
X122506994Y-33147000D01*
X122506994Y-33167000D01*
X122252994Y-33167000D01*
X122252994Y-33147000D01*
X122232994Y-33147000D01*
X122232994Y-32893000D01*
X122252994Y-32893000D01*
X122252994Y-30372050D01*
X121903744Y-30022800D01*
X121833445Y-30022800D01*
X121672736Y-29633853D01*
X121244402Y-29204771D01*
X120684470Y-28972267D01*
X120078186Y-28971738D01*
X119923865Y-29035502D01*
X118668800Y-29035502D01*
X118109891Y-29146676D01*
X117636071Y-29463273D01*
X117347273Y-29752071D01*
X117030676Y-30225891D01*
X117023387Y-30262535D01*
X116983256Y-30254408D01*
X115776756Y-30254408D01*
X115353186Y-30334108D01*
X114964162Y-30584438D01*
X114703180Y-30966397D01*
X114611364Y-31419800D01*
X114611364Y-34620200D01*
X114691064Y-35043770D01*
X114744500Y-35126812D01*
X114744500Y-39459594D01*
X114542406Y-39589638D01*
X114281424Y-39971597D01*
X114189608Y-40425000D01*
X114189608Y-42125000D01*
X114269308Y-42548570D01*
X114461590Y-42847385D01*
X114324663Y-43052312D01*
X114172955Y-43815000D01*
X114324663Y-44577688D01*
X114756691Y-45224264D01*
X115249807Y-45553753D01*
X115037567Y-45695567D01*
X113704067Y-47029067D01*
X113346175Y-47564689D01*
X113346175Y-47564690D01*
X113220500Y-48196500D01*
X104850000Y-48196500D01*
X104850000Y-39237990D01*
X104851676Y-39239669D01*
X106447334Y-39902244D01*
X108175086Y-39903752D01*
X109771898Y-39243963D01*
X110994669Y-38023324D01*
X111657244Y-36427666D01*
X111658752Y-34699914D01*
X110998963Y-33103102D01*
X109778324Y-31880331D01*
X108182666Y-31217756D01*
X106454914Y-31216248D01*
X104858102Y-31876037D01*
X104850000Y-31884125D01*
X104850000Y-24258995D01*
X111664583Y-24278137D01*
G36*
X189423748Y-41260858D02*
X189409605Y-41275000D01*
X189423748Y-41289143D01*
X189244142Y-41468748D01*
X189230000Y-41454605D01*
X189215858Y-41468748D01*
X189036253Y-41289143D01*
X189050395Y-41275000D01*
X189036253Y-41260858D01*
X189215858Y-41081253D01*
X189230000Y-41095395D01*
X189244142Y-41081252D01*
X189423748Y-41260858D01*
X189423748Y-41260858D01*
G37*
X189423748Y-41260858D02*
X189409605Y-41275000D01*
X189423748Y-41289143D01*
X189244142Y-41468748D01*
X189230000Y-41454605D01*
X189215858Y-41468748D01*
X189036253Y-41289143D01*
X189050395Y-41275000D01*
X189036253Y-41260858D01*
X189215858Y-41081253D01*
X189230000Y-41095395D01*
X189244142Y-41081252D01*
X189423748Y-41260858D01*
M02*
