G04 #@! TF.FileFunction,Copper,L1,Top,Signal*
%FSLAX46Y46*%
G04 Gerber Fmt 4.6, Leading zero omitted, Abs format (unit mm)*
G04 Created by KiCad (PCBNEW 4.0.6) date Saturday, February 03, 2018 'PMt' 12:02:10 PM*
%MOMM*%
%LPD*%
G01*
G04 APERTURE LIST*
%ADD10C,0.100000*%
%ADD11C,1.524000*%
%ADD12R,1.800000X1.800000*%
%ADD13C,1.800000*%
%ADD14R,2.200000X2.200000*%
%ADD15O,2.200000X2.200000*%
%ADD16R,1.206500X3.200400*%
%ADD17R,1.700022X5.299964*%
%ADD18R,1.700000X1.700000*%
%ADD19O,1.700000X1.700000*%
%ADD20C,1.600000*%
%ADD21O,1.600000X1.600000*%
%ADD22C,6.400000*%
%ADD23C,1.520000*%
%ADD24R,1.520000X1.520000*%
%ADD25C,1.700000*%
%ADD26C,3.556000*%
%ADD27C,0.762000*%
%ADD28C,1.016000*%
%ADD29C,0.635000*%
%ADD30C,0.381000*%
%ADD31C,1.905000*%
%ADD32C,0.254000*%
G04 APERTURE END LIST*
D10*
D11*
X127855000Y-49370000D03*
X122775000Y-49370000D03*
X120235000Y-49370000D03*
X117695000Y-49370000D03*
X117695000Y-54450000D03*
X120235000Y-54450000D03*
X122775000Y-54450000D03*
X127855000Y-54450000D03*
D12*
X174625000Y-54610000D03*
D13*
X172085000Y-54610000D03*
D14*
X139700000Y-48260000D03*
D15*
X139700000Y-55880000D03*
D16*
X122379994Y-33020000D03*
X120379998Y-33020000D03*
X118380002Y-33020000D03*
X116380006Y-33020000D03*
D17*
X125080014Y-26850340D03*
X113679986Y-26850340D03*
D16*
X137619994Y-33020000D03*
X135619998Y-33020000D03*
X133620002Y-33020000D03*
X131620006Y-33020000D03*
D17*
X140320014Y-26850340D03*
X128919986Y-26850340D03*
D16*
X152859994Y-33020000D03*
X150859998Y-33020000D03*
X148860002Y-33020000D03*
X146860006Y-33020000D03*
D17*
X155560014Y-26850340D03*
X144159986Y-26850340D03*
D16*
X168099994Y-33020000D03*
X166099998Y-33020000D03*
X164100002Y-33020000D03*
X162100006Y-33020000D03*
D17*
X170800014Y-26850340D03*
X159399986Y-26850340D03*
D16*
X183339994Y-33020000D03*
X181339998Y-33020000D03*
X179340002Y-33020000D03*
X177340006Y-33020000D03*
D17*
X186040014Y-26850340D03*
X174639986Y-26850340D03*
D18*
X116205000Y-41275000D03*
D19*
X118745000Y-41275000D03*
X116205000Y-43815000D03*
X118745000Y-43815000D03*
D18*
X131445000Y-41275000D03*
D19*
X133985000Y-41275000D03*
X131445000Y-43815000D03*
X133985000Y-43815000D03*
D18*
X146685000Y-41275000D03*
D19*
X149225000Y-41275000D03*
X146685000Y-43815000D03*
X149225000Y-43815000D03*
D18*
X161925000Y-41275000D03*
D19*
X164465000Y-41275000D03*
X161925000Y-43815000D03*
X164465000Y-43815000D03*
D18*
X175260000Y-41275000D03*
D19*
X177800000Y-41275000D03*
X175260000Y-43815000D03*
X177800000Y-43815000D03*
D18*
X122555000Y-41275000D03*
D19*
X125095000Y-41275000D03*
X122555000Y-43815000D03*
X125095000Y-43815000D03*
D18*
X137795000Y-41275000D03*
D19*
X140335000Y-41275000D03*
X137795000Y-43815000D03*
X140335000Y-43815000D03*
D18*
X153035000Y-41275000D03*
D19*
X155575000Y-41275000D03*
X153035000Y-43815000D03*
X155575000Y-43815000D03*
D18*
X168275000Y-41275000D03*
D19*
X170815000Y-41275000D03*
X168275000Y-43815000D03*
X170815000Y-43815000D03*
D20*
X167005000Y-48260000D03*
D21*
X167005000Y-55880000D03*
D20*
X146685000Y-48260000D03*
D21*
X146685000Y-55880000D03*
D20*
X160655000Y-55880000D03*
D21*
X160655000Y-48260000D03*
D20*
X153670000Y-55880000D03*
D21*
X153670000Y-48260000D03*
D11*
X191770000Y-41275000D03*
X189230000Y-41275000D03*
X186690000Y-41275000D03*
X184150000Y-41275000D03*
X181610000Y-41275000D03*
D22*
X100965000Y-27305000D03*
X193040000Y-27305000D03*
X100965000Y-74930000D03*
X193040000Y-74930000D03*
D23*
X133350000Y-53340000D03*
X133350000Y-55880000D03*
D24*
X133350000Y-50800000D03*
D25*
X149380000Y-67030000D03*
X152880000Y-67030000D03*
D26*
X151120000Y-74860000D03*
D25*
X168430000Y-67030000D03*
X171930000Y-67030000D03*
D26*
X170170000Y-74860000D03*
D25*
X111280000Y-67030000D03*
X114780000Y-67030000D03*
D26*
X113020000Y-74860000D03*
D25*
X120805000Y-67030000D03*
X124305000Y-67030000D03*
D26*
X122545000Y-74860000D03*
D25*
X130330000Y-67030000D03*
X133830000Y-67030000D03*
D26*
X132070000Y-74860000D03*
D25*
X158905000Y-67030000D03*
X162405000Y-67030000D03*
D26*
X160645000Y-74860000D03*
D25*
X177955000Y-67030000D03*
X181455000Y-67030000D03*
D26*
X179695000Y-74860000D03*
D25*
X143545000Y-64230000D03*
X140045000Y-67230000D03*
X143545000Y-67230000D03*
X140045000Y-64230000D03*
D26*
X141785000Y-75160000D03*
D27*
X169799000Y-38354002D03*
X139319000Y-38227000D03*
X124460000Y-38354006D03*
X169799000Y-33401000D03*
X154432000Y-33274000D03*
X154432000Y-38354000D03*
X139065000Y-33274000D03*
X150876000Y-29972000D03*
X135382006Y-36195000D03*
X120396000Y-35433000D03*
X150876000Y-36449000D03*
X166243000Y-36322000D03*
X181356000Y-36195000D03*
X148844000Y-35814000D03*
X148832924Y-37465011D03*
X133604000Y-37338000D03*
X164211000Y-37338000D03*
X119761000Y-37338000D03*
X135635996Y-30607000D03*
X165989000Y-30353000D03*
X179832000Y-37211000D03*
X120379998Y-30496002D03*
X122428000Y-35255214D03*
X137608881Y-35418370D03*
X153034579Y-35496490D03*
X168098889Y-35369490D03*
D28*
X143545000Y-64230000D02*
X135882001Y-56567001D01*
X135882001Y-56567001D02*
X135882001Y-51464239D01*
X135882001Y-51464239D02*
X135217762Y-50800000D01*
X135217762Y-50800000D02*
X134866000Y-50800000D01*
X134866000Y-50800000D02*
X133350000Y-50800000D01*
D29*
X169799000Y-34290000D02*
X169799000Y-38354002D01*
X122379994Y-33020000D02*
X123618244Y-33020000D01*
X124460000Y-33861756D02*
X124460000Y-37815191D01*
X123618244Y-33020000D02*
X124460000Y-33861756D01*
X124460000Y-37815191D02*
X124460000Y-38354006D01*
X139319000Y-37688185D02*
X139319000Y-38227000D01*
X139319000Y-33909000D02*
X139319000Y-37688185D01*
X139065000Y-33655000D02*
X139319000Y-33909000D01*
D30*
X169799000Y-33939815D02*
X169799000Y-33401000D01*
X169799000Y-34290000D02*
X169799000Y-33939815D01*
X154432000Y-33909000D02*
X154432000Y-33274000D01*
D29*
X169799000Y-33480756D02*
X169799000Y-34290000D01*
X154432000Y-33353756D02*
X154432000Y-33909000D01*
X154432000Y-33909000D02*
X154432000Y-38354000D01*
X183339994Y-33020000D02*
X184578244Y-33020000D01*
X184578244Y-33020000D02*
X189230000Y-37671756D01*
X189230000Y-37671756D02*
X189230000Y-40197370D01*
X189230000Y-40197370D02*
X189230000Y-41275000D01*
X152859994Y-33020000D02*
X154098244Y-33020000D01*
X154098244Y-33020000D02*
X154432000Y-33353756D01*
X168099994Y-33020000D02*
X169338244Y-33020000D01*
X169338244Y-33020000D02*
X169799000Y-33480756D01*
X139065000Y-33226756D02*
X139065000Y-33655000D01*
X139065000Y-33274000D02*
X139065000Y-33655000D01*
X137619994Y-33020000D02*
X138858244Y-33020000D01*
X138858244Y-33020000D02*
X139065000Y-33226756D01*
D28*
X135620398Y-47752000D02*
X129473000Y-47752000D01*
X129473000Y-47752000D02*
X127855000Y-49370000D01*
X146685000Y-55880000D02*
X143748398Y-55880000D01*
X143748398Y-55880000D02*
X135620398Y-47752000D01*
X130330000Y-67030000D02*
X130330000Y-59465000D01*
X130330000Y-59465000D02*
X120235000Y-49370000D01*
X129971800Y-55714900D02*
X129971800Y-54311278D01*
X129971800Y-54311278D02*
X123660999Y-48000477D01*
X123660999Y-48000477D02*
X123660999Y-47845999D01*
X137636901Y-63380001D02*
X129971800Y-55714900D01*
X140045000Y-64230000D02*
X139195001Y-63380001D01*
X139195001Y-63380001D02*
X137636901Y-63380001D01*
X123660999Y-47845999D02*
X119219001Y-47845999D01*
X119219001Y-47845999D02*
X118456999Y-48608001D01*
X118456999Y-48608001D02*
X117695000Y-49370000D01*
X174625000Y-54610000D02*
X176541000Y-54610000D01*
X176541000Y-54610000D02*
X181610000Y-49541000D01*
X181610000Y-49541000D02*
X181610000Y-42352630D01*
X181610000Y-42352630D02*
X181610000Y-41275000D01*
X167005000Y-55880000D02*
X170815000Y-55880000D01*
X170815000Y-55880000D02*
X172085000Y-54610000D01*
X146685000Y-48260000D02*
X139700000Y-48260000D01*
X146685000Y-48260000D02*
X146685000Y-46355000D01*
X146685000Y-46355000D02*
X149225000Y-43815000D01*
X149380000Y-67030000D02*
X149380000Y-50955000D01*
X149380000Y-50955000D02*
X146685000Y-48260000D01*
D31*
X185065000Y-67030000D02*
X186690000Y-65405000D01*
X186690000Y-65405000D02*
X186690000Y-41275000D01*
X181455000Y-67030000D02*
X185065000Y-67030000D01*
D29*
X150876000Y-29972000D02*
X150876000Y-33003998D01*
X150876000Y-33003998D02*
X150859998Y-33020000D01*
X135619998Y-35957008D02*
X135382006Y-36195000D01*
X135619998Y-33020000D02*
X135619998Y-35957008D01*
X120379998Y-35416998D02*
X120396000Y-35433000D01*
X120379998Y-33020000D02*
X120379998Y-35416998D01*
X150859998Y-33020000D02*
X150859998Y-36432998D01*
X150859998Y-36432998D02*
X150876000Y-36449000D01*
X166099998Y-36178998D02*
X166243000Y-36322000D01*
X166099998Y-33020000D02*
X166099998Y-36178998D01*
D30*
X181356000Y-35017202D02*
X181356000Y-36195000D01*
X181339998Y-33020000D02*
X181339998Y-35001200D01*
X181339998Y-35001200D02*
X181356000Y-35017202D01*
D29*
X148832924Y-35825076D02*
X148844000Y-35814000D01*
X148832924Y-37465011D02*
X148832924Y-35825076D01*
X148860002Y-35797998D02*
X148844000Y-35814000D01*
X148860002Y-33020000D02*
X148860002Y-35797998D01*
X148844000Y-35271202D02*
X148844000Y-35814000D01*
D30*
X133620002Y-37321998D02*
X133604000Y-37338000D01*
X133620002Y-33020000D02*
X133620002Y-37321998D01*
D29*
X164100002Y-37227002D02*
X164211000Y-37338000D01*
X164100002Y-33020000D02*
X164100002Y-37227002D01*
D30*
X118380002Y-33020000D02*
X118380002Y-36622817D01*
X119095185Y-37338000D02*
X119222185Y-37338000D01*
X118380002Y-36622817D02*
X119095185Y-37338000D01*
X119222185Y-37338000D02*
X119761000Y-37338000D01*
X135097181Y-30607000D02*
X135635996Y-30607000D01*
X135036052Y-30607000D02*
X135097181Y-30607000D01*
X133620002Y-32023050D02*
X135036052Y-30607000D01*
X133620002Y-33020000D02*
X133620002Y-32023050D01*
D29*
X164531802Y-30353000D02*
X165989000Y-30353000D01*
X164100002Y-33020000D02*
X164100002Y-30784800D01*
X164100002Y-30784800D02*
X164531802Y-30353000D01*
D30*
X179832000Y-37211000D02*
X179832000Y-33511998D01*
X179832000Y-33511998D02*
X179340002Y-33020000D01*
D29*
X120379998Y-30496002D02*
X118668800Y-30496002D01*
X118668800Y-30496002D02*
X118380002Y-30784800D01*
X118380002Y-30784800D02*
X118380002Y-33020000D01*
X116205000Y-41275000D02*
X116205000Y-43815000D01*
X116205000Y-41275000D02*
X116205000Y-33195006D01*
X116205000Y-33195006D02*
X116380006Y-33020000D01*
X131445000Y-41275000D02*
X131445000Y-39790000D01*
X131445000Y-39790000D02*
X130403600Y-38748600D01*
X130403600Y-38748600D02*
X130403600Y-35233356D01*
X130403600Y-35233356D02*
X131620006Y-34016950D01*
X131620006Y-34016950D02*
X131620006Y-33020000D01*
X131445000Y-41275000D02*
X131445000Y-43815000D01*
X146685000Y-41275000D02*
X146685000Y-43815000D01*
X146685000Y-41275000D02*
X146685000Y-33195006D01*
X146685000Y-33195006D02*
X146860006Y-33020000D01*
X161925000Y-41275000D02*
X161925000Y-43815000D01*
X161925000Y-41275000D02*
X161925000Y-33195006D01*
X161925000Y-33195006D02*
X162100006Y-33020000D01*
X176387504Y-33972502D02*
X177340006Y-33020000D01*
X175260000Y-35100006D02*
X176387504Y-33972502D01*
X175260000Y-41275000D02*
X175260000Y-35100006D01*
X175260000Y-41275000D02*
X175260000Y-43815000D01*
X122555000Y-41275000D02*
X122555000Y-35382214D01*
X122555000Y-35382214D02*
X122428000Y-35255214D01*
X122555000Y-41275000D02*
X122555000Y-43815000D01*
X137608881Y-35957185D02*
X137608881Y-35418370D01*
X137608881Y-39603881D02*
X137608881Y-35957185D01*
X137795000Y-39790000D02*
X137608881Y-39603881D01*
X137795000Y-41275000D02*
X137795000Y-39790000D01*
X153035000Y-35496911D02*
X153034579Y-35496490D01*
X153035000Y-41275000D02*
X153035000Y-35496911D01*
X153035000Y-41275000D02*
X153035000Y-43815000D01*
X168275000Y-35545601D02*
X168098889Y-35369490D01*
X168275000Y-41275000D02*
X168275000Y-35545601D01*
X168275000Y-41275000D02*
X168275000Y-43815000D01*
D28*
X120805000Y-67030000D02*
X122417001Y-68642001D01*
X122417001Y-68642001D02*
X132217999Y-68642001D01*
X132217999Y-68642001D02*
X132980001Y-67879999D01*
X132980001Y-67879999D02*
X133830000Y-67030000D01*
X111280000Y-67030000D02*
X115191000Y-63119000D01*
X115191000Y-63119000D02*
X120394000Y-63119000D01*
X120394000Y-63119000D02*
X123455001Y-66180001D01*
X123455001Y-66180001D02*
X124305000Y-67030000D01*
X171930000Y-67030000D02*
X160780000Y-55880000D01*
X160780000Y-55880000D02*
X160655000Y-55880000D01*
X152880000Y-67030000D02*
X152880000Y-56670000D01*
X152880000Y-56670000D02*
X153670000Y-55880000D01*
D32*
G36*
X112182535Y-29500322D02*
X112226813Y-29735639D01*
X112365885Y-29951763D01*
X112578085Y-30096753D01*
X112829975Y-30147762D01*
X114529997Y-30147762D01*
X114765314Y-30103484D01*
X114981438Y-29964412D01*
X115126428Y-29752212D01*
X115177437Y-29500322D01*
X115177437Y-24257000D01*
X123582563Y-24257000D01*
X123582563Y-29500322D01*
X123626841Y-29735639D01*
X123765913Y-29951763D01*
X123978113Y-30096753D01*
X124230003Y-30147762D01*
X125930025Y-30147762D01*
X126165342Y-30103484D01*
X126381466Y-29964412D01*
X126526456Y-29752212D01*
X126577465Y-29500322D01*
X126577465Y-24257000D01*
X127422535Y-24257000D01*
X127422535Y-29500322D01*
X127466813Y-29735639D01*
X127605885Y-29951763D01*
X127818085Y-30096753D01*
X128069975Y-30147762D01*
X129769997Y-30147762D01*
X130005314Y-30103484D01*
X130221438Y-29964412D01*
X130366428Y-29752212D01*
X130417437Y-29500322D01*
X130417437Y-24257000D01*
X138822563Y-24257000D01*
X138822563Y-29500322D01*
X138866841Y-29735639D01*
X139005913Y-29951763D01*
X139218113Y-30096753D01*
X139470003Y-30147762D01*
X141170025Y-30147762D01*
X141405342Y-30103484D01*
X141621466Y-29964412D01*
X141766456Y-29752212D01*
X141817465Y-29500322D01*
X141817465Y-24257000D01*
X142662535Y-24257000D01*
X142662535Y-29500322D01*
X142706813Y-29735639D01*
X142845885Y-29951763D01*
X143058085Y-30096753D01*
X143309975Y-30147762D01*
X145009997Y-30147762D01*
X145245314Y-30103484D01*
X145461438Y-29964412D01*
X145606428Y-29752212D01*
X145657437Y-29500322D01*
X145657437Y-24257000D01*
X154062563Y-24257000D01*
X154062563Y-29500322D01*
X154106841Y-29735639D01*
X154245913Y-29951763D01*
X154458113Y-30096753D01*
X154710003Y-30147762D01*
X156410025Y-30147762D01*
X156645342Y-30103484D01*
X156861466Y-29964412D01*
X157006456Y-29752212D01*
X157057465Y-29500322D01*
X157057465Y-24257000D01*
X157902535Y-24257000D01*
X157902535Y-29500322D01*
X157946813Y-29735639D01*
X158085885Y-29951763D01*
X158298085Y-30096753D01*
X158549975Y-30147762D01*
X160249997Y-30147762D01*
X160485314Y-30103484D01*
X160701438Y-29964412D01*
X160846428Y-29752212D01*
X160897437Y-29500322D01*
X160897437Y-24257000D01*
X169302563Y-24257000D01*
X169302563Y-29500322D01*
X169346841Y-29735639D01*
X169485913Y-29951763D01*
X169698113Y-30096753D01*
X169950003Y-30147762D01*
X171650025Y-30147762D01*
X171885342Y-30103484D01*
X172101466Y-29964412D01*
X172246456Y-29752212D01*
X172297465Y-29500322D01*
X172297465Y-24257000D01*
X173142535Y-24257000D01*
X173142535Y-29500322D01*
X173186813Y-29735639D01*
X173325885Y-29951763D01*
X173538085Y-30096753D01*
X173789975Y-30147762D01*
X175489997Y-30147762D01*
X175725314Y-30103484D01*
X175941438Y-29964412D01*
X176086428Y-29752212D01*
X176137437Y-29500322D01*
X176137437Y-24257000D01*
X184542563Y-24257000D01*
X184542563Y-29500322D01*
X184586841Y-29735639D01*
X184725913Y-29951763D01*
X184938113Y-30096753D01*
X185190003Y-30147762D01*
X186890025Y-30147762D01*
X187125342Y-30103484D01*
X187341466Y-29964412D01*
X187486456Y-29752212D01*
X187537465Y-29500322D01*
X187537465Y-24257000D01*
X190665077Y-24257000D01*
X189790741Y-25129811D01*
X189205667Y-26538825D01*
X189204336Y-28064482D01*
X189786950Y-29474515D01*
X190864811Y-30554259D01*
X192273825Y-31139333D01*
X193799482Y-31140664D01*
X195209515Y-30558050D01*
X196289259Y-29480189D01*
X196723000Y-28435625D01*
X196723000Y-73801043D01*
X196293050Y-72760485D01*
X195215189Y-71680741D01*
X193806175Y-71095667D01*
X192280518Y-71094336D01*
X190870485Y-71676950D01*
X189790741Y-72754811D01*
X189205667Y-74163825D01*
X189204336Y-75689482D01*
X189786950Y-77099515D01*
X190864811Y-78179259D01*
X191909375Y-78613000D01*
X102093957Y-78613000D01*
X103134515Y-78183050D01*
X104214259Y-77105189D01*
X104799333Y-75696175D01*
X104799689Y-75287766D01*
X110859626Y-75287766D01*
X111187773Y-76081943D01*
X111794861Y-76690091D01*
X112588464Y-77019624D01*
X113447766Y-77020374D01*
X114241943Y-76692227D01*
X114850091Y-76085139D01*
X115179624Y-75291536D01*
X115179627Y-75287766D01*
X120384626Y-75287766D01*
X120712773Y-76081943D01*
X121319861Y-76690091D01*
X122113464Y-77019624D01*
X122972766Y-77020374D01*
X123766943Y-76692227D01*
X124375091Y-76085139D01*
X124704624Y-75291536D01*
X124704627Y-75287766D01*
X129909626Y-75287766D01*
X130237773Y-76081943D01*
X130844861Y-76690091D01*
X131638464Y-77019624D01*
X132497766Y-77020374D01*
X133291943Y-76692227D01*
X133900091Y-76085139D01*
X134106618Y-75587766D01*
X139624626Y-75587766D01*
X139952773Y-76381943D01*
X140559861Y-76990091D01*
X141353464Y-77319624D01*
X142212766Y-77320374D01*
X143006943Y-76992227D01*
X143615091Y-76385139D01*
X143944624Y-75591536D01*
X143944889Y-75287766D01*
X148959626Y-75287766D01*
X149287773Y-76081943D01*
X149894861Y-76690091D01*
X150688464Y-77019624D01*
X151547766Y-77020374D01*
X152341943Y-76692227D01*
X152950091Y-76085139D01*
X153279624Y-75291536D01*
X153279627Y-75287766D01*
X158484626Y-75287766D01*
X158812773Y-76081943D01*
X159419861Y-76690091D01*
X160213464Y-77019624D01*
X161072766Y-77020374D01*
X161866943Y-76692227D01*
X162475091Y-76085139D01*
X162804624Y-75291536D01*
X162804627Y-75287766D01*
X168009626Y-75287766D01*
X168337773Y-76081943D01*
X168944861Y-76690091D01*
X169738464Y-77019624D01*
X170597766Y-77020374D01*
X171391943Y-76692227D01*
X172000091Y-76085139D01*
X172329624Y-75291536D01*
X172329627Y-75287766D01*
X177534626Y-75287766D01*
X177862773Y-76081943D01*
X178469861Y-76690091D01*
X179263464Y-77019624D01*
X180122766Y-77020374D01*
X180916943Y-76692227D01*
X181525091Y-76085139D01*
X181854624Y-75291536D01*
X181855374Y-74432234D01*
X181527227Y-73638057D01*
X180920139Y-73029909D01*
X180126536Y-72700376D01*
X179267234Y-72699626D01*
X178473057Y-73027773D01*
X177864909Y-73634861D01*
X177535376Y-74428464D01*
X177534626Y-75287766D01*
X172329627Y-75287766D01*
X172330374Y-74432234D01*
X172002227Y-73638057D01*
X171395139Y-73029909D01*
X170601536Y-72700376D01*
X169742234Y-72699626D01*
X168948057Y-73027773D01*
X168339909Y-73634861D01*
X168010376Y-74428464D01*
X168009626Y-75287766D01*
X162804627Y-75287766D01*
X162805374Y-74432234D01*
X162477227Y-73638057D01*
X161870139Y-73029909D01*
X161076536Y-72700376D01*
X160217234Y-72699626D01*
X159423057Y-73027773D01*
X158814909Y-73634861D01*
X158485376Y-74428464D01*
X158484626Y-75287766D01*
X153279627Y-75287766D01*
X153280374Y-74432234D01*
X152952227Y-73638057D01*
X152345139Y-73029909D01*
X151551536Y-72700376D01*
X150692234Y-72699626D01*
X149898057Y-73027773D01*
X149289909Y-73634861D01*
X148960376Y-74428464D01*
X148959626Y-75287766D01*
X143944889Y-75287766D01*
X143945374Y-74732234D01*
X143617227Y-73938057D01*
X143010139Y-73329909D01*
X142216536Y-73000376D01*
X141357234Y-72999626D01*
X140563057Y-73327773D01*
X139954909Y-73934861D01*
X139625376Y-74728464D01*
X139624626Y-75587766D01*
X134106618Y-75587766D01*
X134229624Y-75291536D01*
X134230374Y-74432234D01*
X133902227Y-73638057D01*
X133295139Y-73029909D01*
X132501536Y-72700376D01*
X131642234Y-72699626D01*
X130848057Y-73027773D01*
X130239909Y-73634861D01*
X129910376Y-74428464D01*
X129909626Y-75287766D01*
X124704627Y-75287766D01*
X124705374Y-74432234D01*
X124377227Y-73638057D01*
X123770139Y-73029909D01*
X122976536Y-72700376D01*
X122117234Y-72699626D01*
X121323057Y-73027773D01*
X120714909Y-73634861D01*
X120385376Y-74428464D01*
X120384626Y-75287766D01*
X115179627Y-75287766D01*
X115180374Y-74432234D01*
X114852227Y-73638057D01*
X114245139Y-73029909D01*
X113451536Y-72700376D01*
X112592234Y-72699626D01*
X111798057Y-73027773D01*
X111189909Y-73634861D01*
X110860376Y-74428464D01*
X110859626Y-75287766D01*
X104799689Y-75287766D01*
X104800664Y-74170518D01*
X104218050Y-72760485D01*
X103140189Y-71680741D01*
X101731175Y-71095667D01*
X100205518Y-71094336D01*
X98795485Y-71676950D01*
X97917000Y-72553903D01*
X97917000Y-67324089D01*
X109794743Y-67324089D01*
X110020344Y-67870086D01*
X110437717Y-68288188D01*
X110983319Y-68514742D01*
X111574089Y-68515257D01*
X112120086Y-68289656D01*
X112538188Y-67872283D01*
X112764742Y-67326681D01*
X112764886Y-67161560D01*
X113367781Y-66558665D01*
X113295258Y-66733319D01*
X113294743Y-67324089D01*
X113520344Y-67870086D01*
X113937717Y-68288188D01*
X114483319Y-68514742D01*
X115074089Y-68515257D01*
X115620086Y-68289656D01*
X116038188Y-67872283D01*
X116264742Y-67326681D01*
X116265257Y-66735911D01*
X116039656Y-66189914D01*
X115622283Y-65771812D01*
X115076681Y-65545258D01*
X114485911Y-65544743D01*
X114308327Y-65618119D01*
X115664446Y-64262000D01*
X119920554Y-64262000D01*
X121276335Y-65617781D01*
X121101681Y-65545258D01*
X120510911Y-65544743D01*
X119964914Y-65770344D01*
X119546812Y-66187717D01*
X119320258Y-66733319D01*
X119319743Y-67324089D01*
X119545344Y-67870086D01*
X119962717Y-68288188D01*
X120508319Y-68514742D01*
X120673440Y-68514886D01*
X121608778Y-69450224D01*
X121979594Y-69697995D01*
X122417001Y-69785001D01*
X132217999Y-69785001D01*
X132655406Y-69697995D01*
X133026222Y-69450224D01*
X133961331Y-68515115D01*
X134124089Y-68515257D01*
X134670086Y-68289656D01*
X135088188Y-67872283D01*
X135232770Y-67524089D01*
X138559743Y-67524089D01*
X138785344Y-68070086D01*
X139202717Y-68488188D01*
X139748319Y-68714742D01*
X140339089Y-68715257D01*
X140885086Y-68489656D01*
X141101160Y-68273958D01*
X142680647Y-68273958D01*
X142760920Y-68525259D01*
X143316279Y-68726718D01*
X143906458Y-68700315D01*
X144329080Y-68525259D01*
X144409353Y-68273958D01*
X143545000Y-67409605D01*
X142680647Y-68273958D01*
X141101160Y-68273958D01*
X141303188Y-68072283D01*
X141529742Y-67526681D01*
X141530200Y-67001279D01*
X142048282Y-67001279D01*
X142074685Y-67591458D01*
X142249741Y-68014080D01*
X142501042Y-68094353D01*
X143365395Y-67230000D01*
X143724605Y-67230000D01*
X144588958Y-68094353D01*
X144840259Y-68014080D01*
X145041718Y-67458721D01*
X145015315Y-66868542D01*
X144840259Y-66445920D01*
X144588958Y-66365647D01*
X143724605Y-67230000D01*
X143365395Y-67230000D01*
X142501042Y-66365647D01*
X142249741Y-66445920D01*
X142048282Y-67001279D01*
X141530200Y-67001279D01*
X141530257Y-66935911D01*
X141304656Y-66389914D01*
X141101140Y-66186042D01*
X142680647Y-66186042D01*
X143545000Y-67050395D01*
X144409353Y-66186042D01*
X144329080Y-65934741D01*
X143773721Y-65733282D01*
X143183542Y-65759685D01*
X142760920Y-65934741D01*
X142680647Y-66186042D01*
X141101140Y-66186042D01*
X140887283Y-65971812D01*
X140341681Y-65745258D01*
X139750911Y-65744743D01*
X139204914Y-65970344D01*
X138786812Y-66387717D01*
X138560258Y-66933319D01*
X138559743Y-67524089D01*
X135232770Y-67524089D01*
X135314742Y-67326681D01*
X135315257Y-66735911D01*
X135089656Y-66189914D01*
X134672283Y-65771812D01*
X134126681Y-65545258D01*
X133535911Y-65544743D01*
X132989914Y-65770344D01*
X132571812Y-66187717D01*
X132345258Y-66733319D01*
X132345114Y-66898440D01*
X131744553Y-67499001D01*
X131743188Y-67499001D01*
X131814742Y-67326681D01*
X131815257Y-66735911D01*
X131589656Y-66189914D01*
X131473000Y-66073054D01*
X131473000Y-59465000D01*
X131385994Y-59027593D01*
X131138223Y-58656777D01*
X128271081Y-55789635D01*
X128645303Y-55635010D01*
X128828800Y-55451833D01*
X128828800Y-55714900D01*
X128915806Y-56152307D01*
X129163577Y-56523123D01*
X136828678Y-64188224D01*
X137199494Y-64435995D01*
X137636901Y-64523001D01*
X138559744Y-64523001D01*
X138559743Y-64524089D01*
X138785344Y-65070086D01*
X139202717Y-65488188D01*
X139748319Y-65714742D01*
X140339089Y-65715257D01*
X140885086Y-65489656D01*
X141101160Y-65273958D01*
X142680647Y-65273958D01*
X142760920Y-65525259D01*
X143316279Y-65726718D01*
X143906458Y-65700315D01*
X144329080Y-65525259D01*
X144409353Y-65273958D01*
X143545000Y-64409605D01*
X142680647Y-65273958D01*
X141101160Y-65273958D01*
X141303188Y-65072283D01*
X141529742Y-64526681D01*
X141530200Y-64001279D01*
X142048282Y-64001279D01*
X142074685Y-64591458D01*
X142249741Y-65014080D01*
X142501042Y-65094353D01*
X143365395Y-64230000D01*
X143724605Y-64230000D01*
X144588958Y-65094353D01*
X144840259Y-65014080D01*
X145041718Y-64458721D01*
X145015315Y-63868542D01*
X144840259Y-63445920D01*
X144588958Y-63365647D01*
X143724605Y-64230000D01*
X143365395Y-64230000D01*
X142501042Y-63365647D01*
X142249741Y-63445920D01*
X142048282Y-64001279D01*
X141530200Y-64001279D01*
X141530257Y-63935911D01*
X141304656Y-63389914D01*
X141101140Y-63186042D01*
X142680647Y-63186042D01*
X143545000Y-64050395D01*
X144409353Y-63186042D01*
X144329080Y-62934741D01*
X143773721Y-62733282D01*
X143183542Y-62759685D01*
X142760920Y-62934741D01*
X142680647Y-63186042D01*
X141101140Y-63186042D01*
X140887283Y-62971812D01*
X140341681Y-62745258D01*
X140176560Y-62745114D01*
X140003224Y-62571778D01*
X139632408Y-62324007D01*
X139195001Y-62237001D01*
X138110347Y-62237001D01*
X133148171Y-57274825D01*
X133626265Y-57275242D01*
X134139172Y-57063313D01*
X134531934Y-56671236D01*
X134744758Y-56158700D01*
X134745242Y-55603735D01*
X134533313Y-55090828D01*
X134141236Y-54698066D01*
X133929262Y-54610046D01*
X134139172Y-54523313D01*
X134531934Y-54131236D01*
X134744758Y-53618700D01*
X134745242Y-53063735D01*
X134533313Y-52550828D01*
X134178106Y-52195000D01*
X134236309Y-52195000D01*
X134469698Y-52098327D01*
X134648327Y-51919699D01*
X134745000Y-51686310D01*
X134745000Y-51085750D01*
X134586250Y-50927000D01*
X133477000Y-50927000D01*
X133477000Y-50947000D01*
X133223000Y-50947000D01*
X133223000Y-50927000D01*
X132113750Y-50927000D01*
X131955000Y-51085750D01*
X131955000Y-51686310D01*
X132051673Y-51919699D01*
X132230302Y-52098327D01*
X132463691Y-52195000D01*
X132522448Y-52195000D01*
X132168066Y-52548764D01*
X131955242Y-53061300D01*
X131954758Y-53616265D01*
X132166687Y-54129172D01*
X132558764Y-54521934D01*
X132770738Y-54609954D01*
X132560828Y-54696687D01*
X132168066Y-55088764D01*
X131955242Y-55601300D01*
X131954823Y-56081477D01*
X131114800Y-55241454D01*
X131114800Y-54311278D01*
X131027794Y-53873871D01*
X130780023Y-53503055D01*
X128044134Y-50767166D01*
X128131661Y-50767242D01*
X128645303Y-50555010D01*
X129038629Y-50162370D01*
X129141889Y-49913690D01*
X131955000Y-49913690D01*
X131955000Y-50514250D01*
X132113750Y-50673000D01*
X133223000Y-50673000D01*
X133223000Y-49563750D01*
X133477000Y-49563750D01*
X133477000Y-50673000D01*
X134586250Y-50673000D01*
X134745000Y-50514250D01*
X134745000Y-49913690D01*
X134648327Y-49680301D01*
X134469698Y-49501673D01*
X134236309Y-49405000D01*
X133635750Y-49405000D01*
X133477000Y-49563750D01*
X133223000Y-49563750D01*
X133064250Y-49405000D01*
X132463691Y-49405000D01*
X132230302Y-49501673D01*
X132051673Y-49680301D01*
X131955000Y-49913690D01*
X129141889Y-49913690D01*
X129251757Y-49649100D01*
X129251809Y-49589637D01*
X129946446Y-48895000D01*
X135146952Y-48895000D01*
X140758971Y-54507019D01*
X140363956Y-54243078D01*
X139700000Y-54111009D01*
X139036044Y-54243078D01*
X138473170Y-54619179D01*
X138097069Y-55182053D01*
X137965000Y-55846009D01*
X137965000Y-55913991D01*
X138097069Y-56577947D01*
X138473170Y-57140821D01*
X139036044Y-57516922D01*
X139700000Y-57648991D01*
X140363956Y-57516922D01*
X140926830Y-57140821D01*
X141302931Y-56577947D01*
X141435000Y-55913991D01*
X141435000Y-55846009D01*
X141302931Y-55182053D01*
X141038990Y-54787038D01*
X142940175Y-56688223D01*
X143310991Y-56935994D01*
X143748398Y-57023000D01*
X145820245Y-57023000D01*
X146135849Y-57233880D01*
X146685000Y-57343113D01*
X147234151Y-57233880D01*
X147699698Y-56922811D01*
X148010767Y-56457264D01*
X148120000Y-55908113D01*
X148120000Y-55851887D01*
X148010767Y-55302736D01*
X147699698Y-54837189D01*
X147234151Y-54526120D01*
X146685000Y-54416887D01*
X146135849Y-54526120D01*
X145820245Y-54737000D01*
X144221844Y-54737000D01*
X139492284Y-50007440D01*
X140800000Y-50007440D01*
X141035317Y-49963162D01*
X141251441Y-49824090D01*
X141396431Y-49611890D01*
X141438732Y-49403000D01*
X145798380Y-49403000D01*
X145871077Y-49475824D01*
X146398309Y-49694750D01*
X146503396Y-49694842D01*
X148237000Y-51428446D01*
X148237000Y-66072730D01*
X148121812Y-66187717D01*
X147895258Y-66733319D01*
X147894743Y-67324089D01*
X148120344Y-67870086D01*
X148537717Y-68288188D01*
X149083319Y-68514742D01*
X149674089Y-68515257D01*
X150220086Y-68289656D01*
X150638188Y-67872283D01*
X150864742Y-67326681D01*
X150864744Y-67324089D01*
X151394743Y-67324089D01*
X151620344Y-67870086D01*
X152037717Y-68288188D01*
X152583319Y-68514742D01*
X153174089Y-68515257D01*
X153720086Y-68289656D01*
X153936160Y-68073958D01*
X158040647Y-68073958D01*
X158120920Y-68325259D01*
X158676279Y-68526718D01*
X159266458Y-68500315D01*
X159689080Y-68325259D01*
X159769353Y-68073958D01*
X158905000Y-67209605D01*
X158040647Y-68073958D01*
X153936160Y-68073958D01*
X154138188Y-67872283D01*
X154364742Y-67326681D01*
X154365200Y-66801279D01*
X157408282Y-66801279D01*
X157434685Y-67391458D01*
X157609741Y-67814080D01*
X157861042Y-67894353D01*
X158725395Y-67030000D01*
X159084605Y-67030000D01*
X159948958Y-67894353D01*
X160200259Y-67814080D01*
X160378005Y-67324089D01*
X160919743Y-67324089D01*
X161145344Y-67870086D01*
X161562717Y-68288188D01*
X162108319Y-68514742D01*
X162699089Y-68515257D01*
X163245086Y-68289656D01*
X163461160Y-68073958D01*
X167565647Y-68073958D01*
X167645920Y-68325259D01*
X168201279Y-68526718D01*
X168791458Y-68500315D01*
X169214080Y-68325259D01*
X169294353Y-68073958D01*
X168430000Y-67209605D01*
X167565647Y-68073958D01*
X163461160Y-68073958D01*
X163663188Y-67872283D01*
X163889742Y-67326681D01*
X163890200Y-66801279D01*
X166933282Y-66801279D01*
X166959685Y-67391458D01*
X167134741Y-67814080D01*
X167386042Y-67894353D01*
X168250395Y-67030000D01*
X167386042Y-66165647D01*
X167134741Y-66245920D01*
X166933282Y-66801279D01*
X163890200Y-66801279D01*
X163890257Y-66735911D01*
X163664656Y-66189914D01*
X163247283Y-65771812D01*
X162701681Y-65545258D01*
X162110911Y-65544743D01*
X161564914Y-65770344D01*
X161146812Y-66187717D01*
X160920258Y-66733319D01*
X160919743Y-67324089D01*
X160378005Y-67324089D01*
X160401718Y-67258721D01*
X160375315Y-66668542D01*
X160200259Y-66245920D01*
X159948958Y-66165647D01*
X159084605Y-67030000D01*
X158725395Y-67030000D01*
X157861042Y-66165647D01*
X157609741Y-66245920D01*
X157408282Y-66801279D01*
X154365200Y-66801279D01*
X154365257Y-66735911D01*
X154139656Y-66189914D01*
X154023000Y-66073054D01*
X154023000Y-65986042D01*
X158040647Y-65986042D01*
X158905000Y-66850395D01*
X159769353Y-65986042D01*
X159689080Y-65734741D01*
X159133721Y-65533282D01*
X158543542Y-65559685D01*
X158120920Y-65734741D01*
X158040647Y-65986042D01*
X154023000Y-65986042D01*
X154023000Y-57286815D01*
X154481800Y-57097243D01*
X154885824Y-56693923D01*
X155104750Y-56166691D01*
X155104752Y-56164187D01*
X159219752Y-56164187D01*
X159437757Y-56691800D01*
X159841077Y-57095824D01*
X160368309Y-57314750D01*
X160598505Y-57314951D01*
X168906844Y-65623290D01*
X168658721Y-65533282D01*
X168068542Y-65559685D01*
X167645920Y-65734741D01*
X167565647Y-65986042D01*
X168430000Y-66850395D01*
X168444143Y-66836253D01*
X168623748Y-67015858D01*
X168609605Y-67030000D01*
X169473958Y-67894353D01*
X169725259Y-67814080D01*
X169926718Y-67258721D01*
X169900315Y-66668542D01*
X169863700Y-66580146D01*
X170444885Y-67161331D01*
X170444743Y-67324089D01*
X170670344Y-67870086D01*
X171087717Y-68288188D01*
X171633319Y-68514742D01*
X172224089Y-68515257D01*
X172770086Y-68289656D01*
X172986160Y-68073958D01*
X177090647Y-68073958D01*
X177170920Y-68325259D01*
X177726279Y-68526718D01*
X178316458Y-68500315D01*
X178739080Y-68325259D01*
X178819353Y-68073958D01*
X177955000Y-67209605D01*
X177090647Y-68073958D01*
X172986160Y-68073958D01*
X173188188Y-67872283D01*
X173414742Y-67326681D01*
X173415200Y-66801279D01*
X176458282Y-66801279D01*
X176484685Y-67391458D01*
X176659741Y-67814080D01*
X176911042Y-67894353D01*
X177775395Y-67030000D01*
X178134605Y-67030000D01*
X178998958Y-67894353D01*
X179250259Y-67814080D01*
X179451718Y-67258721D01*
X179425315Y-66668542D01*
X179250259Y-66245920D01*
X178998958Y-66165647D01*
X178134605Y-67030000D01*
X177775395Y-67030000D01*
X176911042Y-66165647D01*
X176659741Y-66245920D01*
X176458282Y-66801279D01*
X173415200Y-66801279D01*
X173415257Y-66735911D01*
X173189656Y-66189914D01*
X172986140Y-65986042D01*
X177090647Y-65986042D01*
X177955000Y-66850395D01*
X178819353Y-65986042D01*
X178739080Y-65734741D01*
X178183721Y-65533282D01*
X177593542Y-65559685D01*
X177170920Y-65734741D01*
X177090647Y-65986042D01*
X172986140Y-65986042D01*
X172772283Y-65771812D01*
X172226681Y-65545258D01*
X172061560Y-65545114D01*
X162368333Y-55851887D01*
X165570000Y-55851887D01*
X165570000Y-55908113D01*
X165679233Y-56457264D01*
X165990302Y-56922811D01*
X166455849Y-57233880D01*
X167005000Y-57343113D01*
X167554151Y-57233880D01*
X167869755Y-57023000D01*
X170815000Y-57023000D01*
X171252407Y-56935994D01*
X171623223Y-56688223D01*
X172166375Y-56145071D01*
X172388991Y-56145265D01*
X172953371Y-55912068D01*
X173121613Y-55744120D01*
X173121838Y-55745317D01*
X173260910Y-55961441D01*
X173473110Y-56106431D01*
X173725000Y-56157440D01*
X175525000Y-56157440D01*
X175760317Y-56113162D01*
X175976441Y-55974090D01*
X176121431Y-55761890D01*
X176123231Y-55753000D01*
X176541000Y-55753000D01*
X176978407Y-55665994D01*
X177349223Y-55418223D01*
X182418223Y-50349223D01*
X182665994Y-49978407D01*
X182753000Y-49541000D01*
X182753000Y-42107928D01*
X182793629Y-42067370D01*
X182879949Y-41859488D01*
X182964990Y-42065303D01*
X183357630Y-42458629D01*
X183870900Y-42671757D01*
X184426661Y-42672242D01*
X184940303Y-42460010D01*
X185102500Y-42298096D01*
X185102500Y-64747436D01*
X184407436Y-65442500D01*
X181455000Y-65442500D01*
X180847490Y-65563341D01*
X180332468Y-65907468D01*
X179988341Y-66422490D01*
X179867500Y-67030000D01*
X179988341Y-67637510D01*
X180332468Y-68152532D01*
X180847490Y-68496659D01*
X181455000Y-68617500D01*
X185065000Y-68617500D01*
X185672510Y-68496659D01*
X186187532Y-68152532D01*
X187812532Y-66527532D01*
X188156659Y-66012510D01*
X188277500Y-65405000D01*
X188277500Y-42333344D01*
X188314382Y-42370226D01*
X188429393Y-42255215D01*
X188498857Y-42497397D01*
X189022302Y-42684144D01*
X189577368Y-42656362D01*
X189961143Y-42497397D01*
X190030608Y-42255213D01*
X189230000Y-41454605D01*
X189215858Y-41468748D01*
X189036253Y-41289143D01*
X189050395Y-41275000D01*
X189409605Y-41275000D01*
X190210213Y-42075608D01*
X190452397Y-42006143D01*
X190502509Y-41865682D01*
X190584990Y-42065303D01*
X190977630Y-42458629D01*
X191490900Y-42671757D01*
X192046661Y-42672242D01*
X192560303Y-42460010D01*
X192953629Y-42067370D01*
X193166757Y-41554100D01*
X193167242Y-40998339D01*
X192955010Y-40484697D01*
X192562370Y-40091371D01*
X192049100Y-39878243D01*
X191493339Y-39877758D01*
X190979697Y-40089990D01*
X190586371Y-40482630D01*
X190506605Y-40674727D01*
X190452397Y-40543857D01*
X190210213Y-40474392D01*
X189409605Y-41275000D01*
X189050395Y-41275000D01*
X188249787Y-40474392D01*
X188063363Y-40527863D01*
X187907627Y-40294787D01*
X188429392Y-40294787D01*
X189230000Y-41095395D01*
X190030608Y-40294787D01*
X189961143Y-40052603D01*
X189437698Y-39865856D01*
X188882632Y-39893638D01*
X188498857Y-40052603D01*
X188429392Y-40294787D01*
X187907627Y-40294787D01*
X187812532Y-40152468D01*
X187297510Y-39808341D01*
X186690000Y-39687500D01*
X186082490Y-39808341D01*
X185567468Y-40152468D01*
X185339010Y-40494379D01*
X185335010Y-40484697D01*
X184942370Y-40091371D01*
X184429100Y-39878243D01*
X183873339Y-39877758D01*
X183359697Y-40089990D01*
X182966371Y-40482630D01*
X182880051Y-40690512D01*
X182795010Y-40484697D01*
X182402370Y-40091371D01*
X181889100Y-39878243D01*
X181333339Y-39877758D01*
X180819697Y-40089990D01*
X180426371Y-40482630D01*
X180213243Y-40995900D01*
X180212758Y-41551661D01*
X180424990Y-42065303D01*
X180467000Y-42107386D01*
X180467000Y-49067554D01*
X176101424Y-53433130D01*
X175989090Y-53258559D01*
X175776890Y-53113569D01*
X175525000Y-53062560D01*
X173725000Y-53062560D01*
X173489683Y-53106838D01*
X173273559Y-53245910D01*
X173128569Y-53458110D01*
X173124433Y-53478534D01*
X172955643Y-53309449D01*
X172391670Y-53075267D01*
X171781009Y-53074735D01*
X171216629Y-53307932D01*
X170784449Y-53739357D01*
X170550267Y-54303330D01*
X170550071Y-54528483D01*
X170341554Y-54737000D01*
X167869755Y-54737000D01*
X167554151Y-54526120D01*
X167005000Y-54416887D01*
X166455849Y-54526120D01*
X165990302Y-54837189D01*
X165679233Y-55302736D01*
X165570000Y-55851887D01*
X162368333Y-55851887D01*
X162074749Y-55558303D01*
X161872243Y-55068200D01*
X161468923Y-54664176D01*
X160941691Y-54445250D01*
X160370813Y-54444752D01*
X159843200Y-54662757D01*
X159439176Y-55066077D01*
X159220250Y-55593309D01*
X159219752Y-56164187D01*
X155104752Y-56164187D01*
X155105248Y-55595813D01*
X154887243Y-55068200D01*
X154483923Y-54664176D01*
X153956691Y-54445250D01*
X153385813Y-54444752D01*
X152858200Y-54662757D01*
X152454176Y-55066077D01*
X152235250Y-55593309D01*
X152235158Y-55698396D01*
X152071777Y-55861777D01*
X151824006Y-56232593D01*
X151737000Y-56670000D01*
X151737000Y-66072730D01*
X151621812Y-66187717D01*
X151395258Y-66733319D01*
X151394743Y-67324089D01*
X150864744Y-67324089D01*
X150865257Y-66735911D01*
X150639656Y-66189914D01*
X150523000Y-66073054D01*
X150523000Y-50955000D01*
X150435994Y-50517593D01*
X150188223Y-50146777D01*
X148273333Y-48231887D01*
X152235000Y-48231887D01*
X152235000Y-48288113D01*
X152344233Y-48837264D01*
X152655302Y-49302811D01*
X153120849Y-49613880D01*
X153670000Y-49723113D01*
X154219151Y-49613880D01*
X154684698Y-49302811D01*
X154995767Y-48837264D01*
X155105000Y-48288113D01*
X155105000Y-48231887D01*
X159220000Y-48231887D01*
X159220000Y-48288113D01*
X159329233Y-48837264D01*
X159640302Y-49302811D01*
X160105849Y-49613880D01*
X160655000Y-49723113D01*
X161204151Y-49613880D01*
X161669698Y-49302811D01*
X161980767Y-48837264D01*
X162039063Y-48544187D01*
X165569752Y-48544187D01*
X165787757Y-49071800D01*
X166191077Y-49475824D01*
X166718309Y-49694750D01*
X167289187Y-49695248D01*
X167816800Y-49477243D01*
X168220824Y-49073923D01*
X168439750Y-48546691D01*
X168440248Y-47975813D01*
X168222243Y-47448200D01*
X167818923Y-47044176D01*
X167291691Y-46825250D01*
X166720813Y-46824752D01*
X166193200Y-47042757D01*
X165789176Y-47446077D01*
X165570250Y-47973309D01*
X165569752Y-48544187D01*
X162039063Y-48544187D01*
X162090000Y-48288113D01*
X162090000Y-48231887D01*
X161980767Y-47682736D01*
X161669698Y-47217189D01*
X161204151Y-46906120D01*
X160655000Y-46796887D01*
X160105849Y-46906120D01*
X159640302Y-47217189D01*
X159329233Y-47682736D01*
X159220000Y-48231887D01*
X155105000Y-48231887D01*
X154995767Y-47682736D01*
X154684698Y-47217189D01*
X154219151Y-46906120D01*
X153670000Y-46796887D01*
X153120849Y-46906120D01*
X152655302Y-47217189D01*
X152344233Y-47682736D01*
X152235000Y-48231887D01*
X148273333Y-48231887D01*
X148120158Y-48078712D01*
X148120248Y-47975813D01*
X147902243Y-47448200D01*
X147828000Y-47373827D01*
X147828000Y-46828446D01*
X149381861Y-45274585D01*
X149822378Y-45186961D01*
X150304147Y-44865054D01*
X150626054Y-44383285D01*
X150739093Y-43815000D01*
X150626054Y-43246715D01*
X150304147Y-42764946D01*
X149974974Y-42545000D01*
X150304147Y-42325054D01*
X150626054Y-41843285D01*
X150739093Y-41275000D01*
X150626054Y-40706715D01*
X150304147Y-40224946D01*
X149822378Y-39903039D01*
X149254093Y-39790000D01*
X149195907Y-39790000D01*
X148627622Y-39903039D01*
X148145853Y-40224946D01*
X148145029Y-40226179D01*
X148138162Y-40189683D01*
X147999090Y-39973559D01*
X147786890Y-39828569D01*
X147637500Y-39798317D01*
X147637500Y-35234854D01*
X147698573Y-35223362D01*
X147861383Y-35118596D01*
X147907502Y-35150108D01*
X147907502Y-35190755D01*
X147891500Y-35271202D01*
X147891500Y-35458518D01*
X147828176Y-35611018D01*
X147827824Y-36015208D01*
X147880424Y-36142510D01*
X147880424Y-37109529D01*
X147817100Y-37262029D01*
X147816748Y-37666219D01*
X147971099Y-38039777D01*
X148256655Y-38325832D01*
X148629942Y-38480835D01*
X149034132Y-38481187D01*
X149407690Y-38326836D01*
X149693745Y-38041280D01*
X149848748Y-37667993D01*
X149849100Y-37263803D01*
X149785424Y-37109695D01*
X149785424Y-36196156D01*
X149859824Y-36016982D01*
X149860176Y-35612792D01*
X149812502Y-35497412D01*
X149812502Y-35150048D01*
X149861379Y-35118596D01*
X149907498Y-35150108D01*
X149907498Y-36132054D01*
X149860176Y-36246018D01*
X149859824Y-36650208D01*
X150014175Y-37023766D01*
X150299731Y-37309821D01*
X150673018Y-37464824D01*
X151077208Y-37465176D01*
X151450766Y-37310825D01*
X151736821Y-37025269D01*
X151891824Y-36651982D01*
X151892176Y-36247792D01*
X151812498Y-36054956D01*
X151812498Y-35150048D01*
X151858783Y-35120264D01*
X151897046Y-35158527D01*
X152048717Y-35221351D01*
X152018755Y-35293508D01*
X152018403Y-35697698D01*
X152082500Y-35852825D01*
X152082500Y-39796847D01*
X151949683Y-39821838D01*
X151733559Y-39960910D01*
X151588569Y-40173110D01*
X151537560Y-40425000D01*
X151537560Y-42125000D01*
X151581838Y-42360317D01*
X151720910Y-42576441D01*
X151933110Y-42721431D01*
X152000541Y-42735086D01*
X151955853Y-42764946D01*
X151633946Y-43246715D01*
X151520907Y-43815000D01*
X151633946Y-44383285D01*
X151955853Y-44865054D01*
X152437622Y-45186961D01*
X153005907Y-45300000D01*
X153064093Y-45300000D01*
X153632378Y-45186961D01*
X154114147Y-44865054D01*
X154305000Y-44579422D01*
X154495853Y-44865054D01*
X154977622Y-45186961D01*
X155545907Y-45300000D01*
X155604093Y-45300000D01*
X156172378Y-45186961D01*
X156654147Y-44865054D01*
X156976054Y-44383285D01*
X157089093Y-43815000D01*
X160410907Y-43815000D01*
X160523946Y-44383285D01*
X160845853Y-44865054D01*
X161327622Y-45186961D01*
X161895907Y-45300000D01*
X161954093Y-45300000D01*
X162522378Y-45186961D01*
X163004147Y-44865054D01*
X163195000Y-44579422D01*
X163385853Y-44865054D01*
X163867622Y-45186961D01*
X164435907Y-45300000D01*
X164494093Y-45300000D01*
X165062378Y-45186961D01*
X165544147Y-44865054D01*
X165866054Y-44383285D01*
X165979093Y-43815000D01*
X165866054Y-43246715D01*
X165544147Y-42764946D01*
X165214974Y-42545000D01*
X165544147Y-42325054D01*
X165866054Y-41843285D01*
X165979093Y-41275000D01*
X165866054Y-40706715D01*
X165544147Y-40224946D01*
X165062378Y-39903039D01*
X164494093Y-39790000D01*
X164435907Y-39790000D01*
X163867622Y-39903039D01*
X163385853Y-40224946D01*
X163385029Y-40226179D01*
X163378162Y-40189683D01*
X163239090Y-39973559D01*
X163026890Y-39828569D01*
X162877500Y-39798317D01*
X162877500Y-35234854D01*
X162938573Y-35223362D01*
X163101383Y-35118596D01*
X163147502Y-35150108D01*
X163147502Y-37227002D01*
X163194888Y-37465229D01*
X163194824Y-37539208D01*
X163349175Y-37912766D01*
X163634731Y-38198821D01*
X164008018Y-38353824D01*
X164412208Y-38354176D01*
X164785766Y-38199825D01*
X165071821Y-37914269D01*
X165226824Y-37540982D01*
X165227176Y-37136792D01*
X165072825Y-36763234D01*
X165052502Y-36742875D01*
X165052502Y-35150048D01*
X165101379Y-35118596D01*
X165147498Y-35150108D01*
X165147498Y-36178998D01*
X165220003Y-36543504D01*
X165259852Y-36603143D01*
X165381175Y-36896766D01*
X165666731Y-37182821D01*
X166040018Y-37337824D01*
X166444208Y-37338176D01*
X166817766Y-37183825D01*
X167103821Y-36898269D01*
X167258824Y-36524982D01*
X167259176Y-36120792D01*
X167104825Y-35747234D01*
X167052498Y-35694816D01*
X167052498Y-35150048D01*
X167098783Y-35120264D01*
X167101245Y-35122726D01*
X167083065Y-35166508D01*
X167082713Y-35570698D01*
X167237064Y-35944256D01*
X167322500Y-36029841D01*
X167322500Y-39796847D01*
X167189683Y-39821838D01*
X166973559Y-39960910D01*
X166828569Y-40173110D01*
X166777560Y-40425000D01*
X166777560Y-42125000D01*
X166821838Y-42360317D01*
X166960910Y-42576441D01*
X167173110Y-42721431D01*
X167240541Y-42735086D01*
X167195853Y-42764946D01*
X166873946Y-43246715D01*
X166760907Y-43815000D01*
X166873946Y-44383285D01*
X167195853Y-44865054D01*
X167677622Y-45186961D01*
X168245907Y-45300000D01*
X168304093Y-45300000D01*
X168872378Y-45186961D01*
X169354147Y-44865054D01*
X169545000Y-44579422D01*
X169735853Y-44865054D01*
X170217622Y-45186961D01*
X170785907Y-45300000D01*
X170844093Y-45300000D01*
X171412378Y-45186961D01*
X171894147Y-44865054D01*
X172216054Y-44383285D01*
X172329093Y-43815000D01*
X173745907Y-43815000D01*
X173858946Y-44383285D01*
X174180853Y-44865054D01*
X174662622Y-45186961D01*
X175230907Y-45300000D01*
X175289093Y-45300000D01*
X175857378Y-45186961D01*
X176339147Y-44865054D01*
X176530000Y-44579422D01*
X176720853Y-44865054D01*
X177202622Y-45186961D01*
X177770907Y-45300000D01*
X177829093Y-45300000D01*
X178397378Y-45186961D01*
X178879147Y-44865054D01*
X179201054Y-44383285D01*
X179314093Y-43815000D01*
X179201054Y-43246715D01*
X178879147Y-42764946D01*
X178549974Y-42545000D01*
X178879147Y-42325054D01*
X179201054Y-41843285D01*
X179314093Y-41275000D01*
X179201054Y-40706715D01*
X178879147Y-40224946D01*
X178397378Y-39903039D01*
X177829093Y-39790000D01*
X177770907Y-39790000D01*
X177202622Y-39903039D01*
X176720853Y-40224946D01*
X176720029Y-40226179D01*
X176713162Y-40189683D01*
X176574090Y-39973559D01*
X176361890Y-39828569D01*
X176212500Y-39798317D01*
X176212500Y-35494544D01*
X176489479Y-35217565D01*
X176736756Y-35267640D01*
X177943256Y-35267640D01*
X178178573Y-35223362D01*
X178341383Y-35118596D01*
X178484862Y-35216631D01*
X178736752Y-35267640D01*
X179006500Y-35267640D01*
X179006500Y-36599472D01*
X178971179Y-36634731D01*
X178816176Y-37008018D01*
X178815824Y-37412208D01*
X178970175Y-37785766D01*
X179255731Y-38071821D01*
X179629018Y-38226824D01*
X180033208Y-38227176D01*
X180406766Y-38072825D01*
X180692821Y-37787269D01*
X180847824Y-37413982D01*
X180848111Y-37084215D01*
X181153018Y-37210824D01*
X181557208Y-37211176D01*
X181930766Y-37056825D01*
X182216821Y-36771269D01*
X182371824Y-36397982D01*
X182372176Y-35993792D01*
X182217825Y-35620234D01*
X182181500Y-35583846D01*
X182181500Y-35221473D01*
X182338783Y-35120264D01*
X182377046Y-35158527D01*
X182610435Y-35255200D01*
X183054244Y-35255200D01*
X183212994Y-35096450D01*
X183212994Y-33147000D01*
X183466994Y-33147000D01*
X183466994Y-35096450D01*
X183625744Y-35255200D01*
X184069553Y-35255200D01*
X184302942Y-35158527D01*
X184481571Y-34979899D01*
X184578244Y-34746510D01*
X184578244Y-33305750D01*
X184419494Y-33147000D01*
X183466994Y-33147000D01*
X183212994Y-33147000D01*
X183192994Y-33147000D01*
X183192994Y-32893000D01*
X183212994Y-32893000D01*
X183212994Y-30943550D01*
X183466994Y-30943550D01*
X183466994Y-32893000D01*
X184419494Y-32893000D01*
X184578244Y-32734250D01*
X184578244Y-31293490D01*
X184481571Y-31060101D01*
X184302942Y-30881473D01*
X184069553Y-30784800D01*
X183625744Y-30784800D01*
X183466994Y-30943550D01*
X183212994Y-30943550D01*
X183054244Y-30784800D01*
X182610435Y-30784800D01*
X182377046Y-30881473D01*
X182337725Y-30920794D01*
X182195138Y-30823369D01*
X181943248Y-30772360D01*
X180736748Y-30772360D01*
X180501431Y-30816638D01*
X180338621Y-30921404D01*
X180195142Y-30823369D01*
X179943252Y-30772360D01*
X178736752Y-30772360D01*
X178501435Y-30816638D01*
X178338625Y-30921404D01*
X178195146Y-30823369D01*
X177943256Y-30772360D01*
X176736756Y-30772360D01*
X176501439Y-30816638D01*
X176285315Y-30955710D01*
X176140325Y-31167910D01*
X176089316Y-31419800D01*
X176089316Y-32923652D01*
X175713987Y-33298981D01*
X175713984Y-33298983D01*
X174586481Y-34426487D01*
X174380005Y-34735500D01*
X174307500Y-35100006D01*
X174307500Y-39796847D01*
X174174683Y-39821838D01*
X173958559Y-39960910D01*
X173813569Y-40173110D01*
X173762560Y-40425000D01*
X173762560Y-42125000D01*
X173806838Y-42360317D01*
X173945910Y-42576441D01*
X174158110Y-42721431D01*
X174225541Y-42735086D01*
X174180853Y-42764946D01*
X173858946Y-43246715D01*
X173745907Y-43815000D01*
X172329093Y-43815000D01*
X172216054Y-43246715D01*
X171894147Y-42764946D01*
X171564974Y-42545000D01*
X171894147Y-42325054D01*
X172216054Y-41843285D01*
X172329093Y-41275000D01*
X172216054Y-40706715D01*
X171894147Y-40224946D01*
X171412378Y-39903039D01*
X170844093Y-39790000D01*
X170785907Y-39790000D01*
X170217622Y-39903039D01*
X169735853Y-40224946D01*
X169735029Y-40226179D01*
X169728162Y-40189683D01*
X169589090Y-39973559D01*
X169376890Y-39828569D01*
X169227500Y-39798317D01*
X169227500Y-35545601D01*
X169154995Y-35181095D01*
X169109084Y-35112385D01*
X169241571Y-34979899D01*
X169338244Y-34746510D01*
X169338244Y-33305750D01*
X169179494Y-33147000D01*
X168226994Y-33147000D01*
X168226994Y-33167000D01*
X167972994Y-33167000D01*
X167972994Y-33147000D01*
X167952994Y-33147000D01*
X167952994Y-32893000D01*
X167972994Y-32893000D01*
X167972994Y-30943550D01*
X168226994Y-30943550D01*
X168226994Y-32893000D01*
X169179494Y-32893000D01*
X169338244Y-32734250D01*
X169338244Y-31293490D01*
X169241571Y-31060101D01*
X169062942Y-30881473D01*
X168829553Y-30784800D01*
X168385744Y-30784800D01*
X168226994Y-30943550D01*
X167972994Y-30943550D01*
X167814244Y-30784800D01*
X167370435Y-30784800D01*
X167137046Y-30881473D01*
X167097725Y-30920794D01*
X166955138Y-30823369D01*
X166898553Y-30811910D01*
X167004824Y-30555982D01*
X167005176Y-30151792D01*
X166850825Y-29778234D01*
X166565269Y-29492179D01*
X166191982Y-29337176D01*
X165787792Y-29336824D01*
X165633684Y-29400500D01*
X164531802Y-29400500D01*
X164167296Y-29473005D01*
X163858282Y-29679481D01*
X163426483Y-30111281D01*
X163220007Y-30420294D01*
X163147502Y-30784800D01*
X163147502Y-30889952D01*
X163098625Y-30921404D01*
X162955146Y-30823369D01*
X162703256Y-30772360D01*
X161496756Y-30772360D01*
X161261439Y-30816638D01*
X161045315Y-30955710D01*
X160900325Y-31167910D01*
X160849316Y-31419800D01*
X160849316Y-34620200D01*
X160893594Y-34855517D01*
X160972500Y-34978140D01*
X160972500Y-39796847D01*
X160839683Y-39821838D01*
X160623559Y-39960910D01*
X160478569Y-40173110D01*
X160427560Y-40425000D01*
X160427560Y-42125000D01*
X160471838Y-42360317D01*
X160610910Y-42576441D01*
X160823110Y-42721431D01*
X160890541Y-42735086D01*
X160845853Y-42764946D01*
X160523946Y-43246715D01*
X160410907Y-43815000D01*
X157089093Y-43815000D01*
X156976054Y-43246715D01*
X156654147Y-42764946D01*
X156324974Y-42545000D01*
X156654147Y-42325054D01*
X156976054Y-41843285D01*
X157089093Y-41275000D01*
X156976054Y-40706715D01*
X156654147Y-40224946D01*
X156172378Y-39903039D01*
X155604093Y-39790000D01*
X155545907Y-39790000D01*
X154977622Y-39903039D01*
X154495853Y-40224946D01*
X154495029Y-40226179D01*
X154488162Y-40189683D01*
X154349090Y-39973559D01*
X154136890Y-39828569D01*
X153987500Y-39798317D01*
X153987500Y-35850959D01*
X154050403Y-35699472D01*
X154050755Y-35295282D01*
X153944162Y-35037308D01*
X154001571Y-34979899D01*
X154098244Y-34746510D01*
X154098244Y-33305750D01*
X153939494Y-33147000D01*
X152986994Y-33147000D01*
X152986994Y-33167000D01*
X152732994Y-33167000D01*
X152732994Y-33147000D01*
X152712994Y-33147000D01*
X152712994Y-32893000D01*
X152732994Y-32893000D01*
X152732994Y-30943550D01*
X152986994Y-30943550D01*
X152986994Y-32893000D01*
X153939494Y-32893000D01*
X154098244Y-32734250D01*
X154098244Y-31293490D01*
X154001571Y-31060101D01*
X153822942Y-30881473D01*
X153589553Y-30784800D01*
X153145744Y-30784800D01*
X152986994Y-30943550D01*
X152732994Y-30943550D01*
X152574244Y-30784800D01*
X152130435Y-30784800D01*
X151897046Y-30881473D01*
X151857725Y-30920794D01*
X151828500Y-30900826D01*
X151828500Y-30327482D01*
X151891824Y-30174982D01*
X151892176Y-29770792D01*
X151737825Y-29397234D01*
X151452269Y-29111179D01*
X151078982Y-28956176D01*
X150674792Y-28955824D01*
X150301234Y-29110175D01*
X150015179Y-29395731D01*
X149860176Y-29769018D01*
X149859824Y-30173208D01*
X149923500Y-30327316D01*
X149923500Y-30879655D01*
X149858621Y-30921404D01*
X149715142Y-30823369D01*
X149463252Y-30772360D01*
X148256752Y-30772360D01*
X148021435Y-30816638D01*
X147858625Y-30921404D01*
X147715146Y-30823369D01*
X147463256Y-30772360D01*
X146256756Y-30772360D01*
X146021439Y-30816638D01*
X145805315Y-30955710D01*
X145660325Y-31167910D01*
X145609316Y-31419800D01*
X145609316Y-34620200D01*
X145653594Y-34855517D01*
X145732500Y-34978140D01*
X145732500Y-39796847D01*
X145599683Y-39821838D01*
X145383559Y-39960910D01*
X145238569Y-40173110D01*
X145187560Y-40425000D01*
X145187560Y-42125000D01*
X145231838Y-42360317D01*
X145370910Y-42576441D01*
X145583110Y-42721431D01*
X145650541Y-42735086D01*
X145605853Y-42764946D01*
X145283946Y-43246715D01*
X145170907Y-43815000D01*
X145283946Y-44383285D01*
X145605853Y-44865054D01*
X146087622Y-45186961D01*
X146211877Y-45211677D01*
X145876777Y-45546777D01*
X145629006Y-45917593D01*
X145542000Y-46355000D01*
X145542000Y-47117000D01*
X141439349Y-47117000D01*
X141403162Y-46924683D01*
X141264090Y-46708559D01*
X141051890Y-46563569D01*
X140800000Y-46512560D01*
X138600000Y-46512560D01*
X138364683Y-46556838D01*
X138148559Y-46695910D01*
X138003569Y-46908110D01*
X137952560Y-47160000D01*
X137952560Y-48467716D01*
X136428621Y-46943777D01*
X136057805Y-46696006D01*
X135620398Y-46609000D01*
X129473000Y-46609000D01*
X129035593Y-46696006D01*
X128664777Y-46943777D01*
X127635746Y-47972808D01*
X127578339Y-47972758D01*
X127064697Y-48184990D01*
X126671371Y-48577630D01*
X126458243Y-49090900D01*
X126458164Y-49181196D01*
X124724798Y-47447830D01*
X124716993Y-47408592D01*
X124469222Y-47037776D01*
X124098406Y-46790005D01*
X123660999Y-46702999D01*
X119219001Y-46702999D01*
X118781594Y-46790005D01*
X118410778Y-47037776D01*
X117475746Y-47972808D01*
X117418339Y-47972758D01*
X116904697Y-48184990D01*
X116511371Y-48577630D01*
X116298243Y-49090900D01*
X116297758Y-49646661D01*
X116509990Y-50160303D01*
X116902630Y-50553629D01*
X117415900Y-50766757D01*
X117971661Y-50767242D01*
X118485303Y-50555010D01*
X118878629Y-50162370D01*
X118964949Y-49954488D01*
X119049990Y-50160303D01*
X119442630Y-50553629D01*
X119955900Y-50766757D01*
X120015363Y-50766809D01*
X122358919Y-53110365D01*
X121984697Y-53264990D01*
X121591371Y-53657630D01*
X121505051Y-53865512D01*
X121420010Y-53659697D01*
X121027370Y-53266371D01*
X120514100Y-53053243D01*
X119958339Y-53052758D01*
X119444697Y-53264990D01*
X119051371Y-53657630D01*
X118965051Y-53865512D01*
X118880010Y-53659697D01*
X118487370Y-53266371D01*
X117974100Y-53053243D01*
X117418339Y-53052758D01*
X116904697Y-53264990D01*
X116511371Y-53657630D01*
X116298243Y-54170900D01*
X116297758Y-54726661D01*
X116509990Y-55240303D01*
X116902630Y-55633629D01*
X117415900Y-55846757D01*
X117971661Y-55847242D01*
X118485303Y-55635010D01*
X118878629Y-55242370D01*
X118964949Y-55034488D01*
X119049990Y-55240303D01*
X119442630Y-55633629D01*
X119955900Y-55846757D01*
X120511661Y-55847242D01*
X121025303Y-55635010D01*
X121418629Y-55242370D01*
X121504949Y-55034488D01*
X121589990Y-55240303D01*
X121982630Y-55633629D01*
X122495900Y-55846757D01*
X123051661Y-55847242D01*
X123565303Y-55635010D01*
X123958629Y-55242370D01*
X124114806Y-54866252D01*
X129187000Y-59938446D01*
X129187000Y-66072730D01*
X129071812Y-66187717D01*
X128845258Y-66733319D01*
X128844743Y-67324089D01*
X128917015Y-67499001D01*
X125718188Y-67499001D01*
X125789742Y-67326681D01*
X125790257Y-66735911D01*
X125564656Y-66189914D01*
X125147283Y-65771812D01*
X124601681Y-65545258D01*
X124436560Y-65545114D01*
X121202223Y-62310777D01*
X120831407Y-62063006D01*
X120394000Y-61976000D01*
X115191000Y-61976000D01*
X114753593Y-62063006D01*
X114382777Y-62310777D01*
X111148669Y-65544885D01*
X110985911Y-65544743D01*
X110439914Y-65770344D01*
X110021812Y-66187717D01*
X109795258Y-66733319D01*
X109794743Y-67324089D01*
X97917000Y-67324089D01*
X97917000Y-43815000D01*
X114690907Y-43815000D01*
X114803946Y-44383285D01*
X115125853Y-44865054D01*
X115607622Y-45186961D01*
X116175907Y-45300000D01*
X116234093Y-45300000D01*
X116802378Y-45186961D01*
X117284147Y-44865054D01*
X117475000Y-44579422D01*
X117665853Y-44865054D01*
X118147622Y-45186961D01*
X118715907Y-45300000D01*
X118774093Y-45300000D01*
X119342378Y-45186961D01*
X119824147Y-44865054D01*
X120146054Y-44383285D01*
X120259093Y-43815000D01*
X120146054Y-43246715D01*
X119824147Y-42764946D01*
X119494974Y-42545000D01*
X119824147Y-42325054D01*
X120146054Y-41843285D01*
X120259093Y-41275000D01*
X120146054Y-40706715D01*
X119824147Y-40224946D01*
X119342378Y-39903039D01*
X118774093Y-39790000D01*
X118715907Y-39790000D01*
X118147622Y-39903039D01*
X117665853Y-40224946D01*
X117665029Y-40226179D01*
X117658162Y-40189683D01*
X117519090Y-39973559D01*
X117306890Y-39828569D01*
X117157500Y-39798317D01*
X117157500Y-35234854D01*
X117218573Y-35223362D01*
X117381383Y-35118596D01*
X117524862Y-35216631D01*
X117554502Y-35222633D01*
X117554502Y-36622817D01*
X117617339Y-36938723D01*
X117796285Y-37206534D01*
X118511466Y-37921714D01*
X118511468Y-37921717D01*
X118779280Y-38100663D01*
X119095185Y-38163500D01*
X119149472Y-38163500D01*
X119184731Y-38198821D01*
X119558018Y-38353824D01*
X119962208Y-38354176D01*
X120335766Y-38199825D01*
X120621821Y-37914269D01*
X120776824Y-37540982D01*
X120777176Y-37136792D01*
X120622825Y-36763234D01*
X120337269Y-36477179D01*
X120269143Y-36448890D01*
X120597208Y-36449176D01*
X120970766Y-36294825D01*
X121256821Y-36009269D01*
X121411824Y-35635982D01*
X121411980Y-35456800D01*
X121566175Y-35829980D01*
X121602500Y-35866368D01*
X121602500Y-39796847D01*
X121469683Y-39821838D01*
X121253559Y-39960910D01*
X121108569Y-40173110D01*
X121057560Y-40425000D01*
X121057560Y-42125000D01*
X121101838Y-42360317D01*
X121240910Y-42576441D01*
X121453110Y-42721431D01*
X121520541Y-42735086D01*
X121475853Y-42764946D01*
X121153946Y-43246715D01*
X121040907Y-43815000D01*
X121153946Y-44383285D01*
X121475853Y-44865054D01*
X121957622Y-45186961D01*
X122525907Y-45300000D01*
X122584093Y-45300000D01*
X123152378Y-45186961D01*
X123634147Y-44865054D01*
X123825000Y-44579422D01*
X124015853Y-44865054D01*
X124497622Y-45186961D01*
X125065907Y-45300000D01*
X125124093Y-45300000D01*
X125692378Y-45186961D01*
X126174147Y-44865054D01*
X126496054Y-44383285D01*
X126609093Y-43815000D01*
X126496054Y-43246715D01*
X126174147Y-42764946D01*
X125844974Y-42545000D01*
X126174147Y-42325054D01*
X126496054Y-41843285D01*
X126609093Y-41275000D01*
X126496054Y-40706715D01*
X126174147Y-40224946D01*
X125692378Y-39903039D01*
X125124093Y-39790000D01*
X125065907Y-39790000D01*
X124497622Y-39903039D01*
X124015853Y-40224946D01*
X124015029Y-40226179D01*
X124008162Y-40189683D01*
X123869090Y-39973559D01*
X123656890Y-39828569D01*
X123507500Y-39798317D01*
X123507500Y-35382214D01*
X123477890Y-35233356D01*
X129451100Y-35233356D01*
X129451100Y-38748600D01*
X129523605Y-39113106D01*
X129730081Y-39422119D01*
X130219807Y-39911845D01*
X130143559Y-39960910D01*
X129998569Y-40173110D01*
X129947560Y-40425000D01*
X129947560Y-42125000D01*
X129991838Y-42360317D01*
X130130910Y-42576441D01*
X130343110Y-42721431D01*
X130410541Y-42735086D01*
X130365853Y-42764946D01*
X130043946Y-43246715D01*
X129930907Y-43815000D01*
X130043946Y-44383285D01*
X130365853Y-44865054D01*
X130847622Y-45186961D01*
X131415907Y-45300000D01*
X131474093Y-45300000D01*
X132042378Y-45186961D01*
X132524147Y-44865054D01*
X132715000Y-44579422D01*
X132905853Y-44865054D01*
X133387622Y-45186961D01*
X133955907Y-45300000D01*
X134014093Y-45300000D01*
X134582378Y-45186961D01*
X135064147Y-44865054D01*
X135386054Y-44383285D01*
X135499093Y-43815000D01*
X135386054Y-43246715D01*
X135064147Y-42764946D01*
X134734974Y-42545000D01*
X135064147Y-42325054D01*
X135386054Y-41843285D01*
X135499093Y-41275000D01*
X135386054Y-40706715D01*
X135064147Y-40224946D01*
X134582378Y-39903039D01*
X134014093Y-39790000D01*
X133955907Y-39790000D01*
X133387622Y-39903039D01*
X132905853Y-40224946D01*
X132905029Y-40226179D01*
X132898162Y-40189683D01*
X132759090Y-39973559D01*
X132546890Y-39828569D01*
X132397500Y-39798317D01*
X132397500Y-39790000D01*
X132324995Y-39425494D01*
X132118519Y-39116481D01*
X131356100Y-38354062D01*
X131356100Y-35627894D01*
X131716354Y-35267640D01*
X132223256Y-35267640D01*
X132458573Y-35223362D01*
X132621383Y-35118596D01*
X132764862Y-35216631D01*
X132794502Y-35222633D01*
X132794502Y-36710498D01*
X132743179Y-36761731D01*
X132588176Y-37135018D01*
X132587824Y-37539208D01*
X132742175Y-37912766D01*
X133027731Y-38198821D01*
X133401018Y-38353824D01*
X133805208Y-38354176D01*
X134178766Y-38199825D01*
X134464821Y-37914269D01*
X134619824Y-37540982D01*
X134620176Y-37136792D01*
X134465825Y-36763234D01*
X134445502Y-36742875D01*
X134445502Y-36589029D01*
X134520181Y-36769766D01*
X134805737Y-37055821D01*
X135179024Y-37210824D01*
X135583214Y-37211176D01*
X135956772Y-37056825D01*
X136242827Y-36771269D01*
X136313992Y-36599885D01*
X136425502Y-36432998D01*
X136499993Y-36321514D01*
X136572498Y-35957008D01*
X136572498Y-35150048D01*
X136618783Y-35120264D01*
X136628515Y-35129996D01*
X136593057Y-35215388D01*
X136592705Y-35619578D01*
X136656381Y-35773686D01*
X136656381Y-39603881D01*
X136700864Y-39827513D01*
X136493559Y-39960910D01*
X136348569Y-40173110D01*
X136297560Y-40425000D01*
X136297560Y-42125000D01*
X136341838Y-42360317D01*
X136480910Y-42576441D01*
X136693110Y-42721431D01*
X136760541Y-42735086D01*
X136715853Y-42764946D01*
X136393946Y-43246715D01*
X136280907Y-43815000D01*
X136393946Y-44383285D01*
X136715853Y-44865054D01*
X137197622Y-45186961D01*
X137765907Y-45300000D01*
X137824093Y-45300000D01*
X138392378Y-45186961D01*
X138874147Y-44865054D01*
X139065000Y-44579422D01*
X139255853Y-44865054D01*
X139737622Y-45186961D01*
X140305907Y-45300000D01*
X140364093Y-45300000D01*
X140932378Y-45186961D01*
X141414147Y-44865054D01*
X141736054Y-44383285D01*
X141849093Y-43815000D01*
X141736054Y-43246715D01*
X141414147Y-42764946D01*
X141084974Y-42545000D01*
X141414147Y-42325054D01*
X141736054Y-41843285D01*
X141849093Y-41275000D01*
X141736054Y-40706715D01*
X141414147Y-40224946D01*
X140932378Y-39903039D01*
X140364093Y-39790000D01*
X140305907Y-39790000D01*
X139737622Y-39903039D01*
X139255853Y-40224946D01*
X139255029Y-40226179D01*
X139248162Y-40189683D01*
X139109090Y-39973559D01*
X138896890Y-39828569D01*
X138747500Y-39798317D01*
X138747500Y-39790000D01*
X138674995Y-39425494D01*
X138561381Y-39255459D01*
X138561381Y-35773852D01*
X138624705Y-35621352D01*
X138625057Y-35217162D01*
X138595600Y-35145870D01*
X138761571Y-34979899D01*
X138858244Y-34746510D01*
X138858244Y-33305750D01*
X138699494Y-33147000D01*
X137746994Y-33147000D01*
X137746994Y-33167000D01*
X137492994Y-33167000D01*
X137492994Y-33147000D01*
X137472994Y-33147000D01*
X137472994Y-32893000D01*
X137492994Y-32893000D01*
X137492994Y-30943550D01*
X137746994Y-30943550D01*
X137746994Y-32893000D01*
X138699494Y-32893000D01*
X138858244Y-32734250D01*
X138858244Y-31293490D01*
X138761571Y-31060101D01*
X138582942Y-30881473D01*
X138349553Y-30784800D01*
X137905744Y-30784800D01*
X137746994Y-30943550D01*
X137492994Y-30943550D01*
X137334244Y-30784800D01*
X136890435Y-30784800D01*
X136657046Y-30881473D01*
X136617725Y-30920794D01*
X136608441Y-30914451D01*
X136651820Y-30809982D01*
X136652172Y-30405792D01*
X136497821Y-30032234D01*
X136212265Y-29746179D01*
X135838978Y-29591176D01*
X135434788Y-29590824D01*
X135061230Y-29745175D01*
X135022052Y-29784285D01*
X134720146Y-29844337D01*
X134452335Y-30023283D01*
X133703258Y-30772360D01*
X133016752Y-30772360D01*
X132781435Y-30816638D01*
X132618625Y-30921404D01*
X132475146Y-30823369D01*
X132223256Y-30772360D01*
X131016756Y-30772360D01*
X130781439Y-30816638D01*
X130565315Y-30955710D01*
X130420325Y-31167910D01*
X130369316Y-31419800D01*
X130369316Y-33920602D01*
X129730081Y-34559837D01*
X129523605Y-34868850D01*
X129451100Y-35233356D01*
X123477890Y-35233356D01*
X123444167Y-35063821D01*
X123444173Y-35057296D01*
X123521571Y-34979899D01*
X123618244Y-34746510D01*
X123618244Y-33305750D01*
X123459494Y-33147000D01*
X122506994Y-33147000D01*
X122506994Y-33167000D01*
X122252994Y-33167000D01*
X122252994Y-33147000D01*
X122232994Y-33147000D01*
X122232994Y-32893000D01*
X122252994Y-32893000D01*
X122252994Y-30943550D01*
X122506994Y-30943550D01*
X122506994Y-32893000D01*
X123459494Y-32893000D01*
X123618244Y-32734250D01*
X123618244Y-31293490D01*
X123521571Y-31060101D01*
X123342942Y-30881473D01*
X123109553Y-30784800D01*
X122665744Y-30784800D01*
X122506994Y-30943550D01*
X122252994Y-30943550D01*
X122094244Y-30784800D01*
X121650435Y-30784800D01*
X121417046Y-30881473D01*
X121377725Y-30920794D01*
X121320074Y-30881404D01*
X121395822Y-30698984D01*
X121396174Y-30294794D01*
X121241823Y-29921236D01*
X120956267Y-29635181D01*
X120582980Y-29480178D01*
X120178790Y-29479826D01*
X120024682Y-29543502D01*
X118668800Y-29543502D01*
X118304294Y-29616007D01*
X117995281Y-29822483D01*
X117706483Y-30111281D01*
X117500007Y-30420294D01*
X117427502Y-30784800D01*
X117427502Y-30889952D01*
X117378625Y-30921404D01*
X117235146Y-30823369D01*
X116983256Y-30772360D01*
X115776756Y-30772360D01*
X115541439Y-30816638D01*
X115325315Y-30955710D01*
X115180325Y-31167910D01*
X115129316Y-31419800D01*
X115129316Y-34620200D01*
X115173594Y-34855517D01*
X115252500Y-34978140D01*
X115252500Y-39796847D01*
X115119683Y-39821838D01*
X114903559Y-39960910D01*
X114758569Y-40173110D01*
X114707560Y-40425000D01*
X114707560Y-42125000D01*
X114751838Y-42360317D01*
X114890910Y-42576441D01*
X115103110Y-42721431D01*
X115170541Y-42735086D01*
X115125853Y-42764946D01*
X114803946Y-43246715D01*
X114690907Y-43815000D01*
X97917000Y-43815000D01*
X97917000Y-29679923D01*
X98789811Y-30554259D01*
X100198825Y-31139333D01*
X101724482Y-31140664D01*
X103134515Y-30558050D01*
X104214259Y-29480189D01*
X104799333Y-28071175D01*
X104800664Y-26545518D01*
X104218050Y-25135485D01*
X103341097Y-24257000D01*
X112182535Y-24257000D01*
X112182535Y-29500322D01*
X112182535Y-29500322D01*
G37*
X112182535Y-29500322D02*
X112226813Y-29735639D01*
X112365885Y-29951763D01*
X112578085Y-30096753D01*
X112829975Y-30147762D01*
X114529997Y-30147762D01*
X114765314Y-30103484D01*
X114981438Y-29964412D01*
X115126428Y-29752212D01*
X115177437Y-29500322D01*
X115177437Y-24257000D01*
X123582563Y-24257000D01*
X123582563Y-29500322D01*
X123626841Y-29735639D01*
X123765913Y-29951763D01*
X123978113Y-30096753D01*
X124230003Y-30147762D01*
X125930025Y-30147762D01*
X126165342Y-30103484D01*
X126381466Y-29964412D01*
X126526456Y-29752212D01*
X126577465Y-29500322D01*
X126577465Y-24257000D01*
X127422535Y-24257000D01*
X127422535Y-29500322D01*
X127466813Y-29735639D01*
X127605885Y-29951763D01*
X127818085Y-30096753D01*
X128069975Y-30147762D01*
X129769997Y-30147762D01*
X130005314Y-30103484D01*
X130221438Y-29964412D01*
X130366428Y-29752212D01*
X130417437Y-29500322D01*
X130417437Y-24257000D01*
X138822563Y-24257000D01*
X138822563Y-29500322D01*
X138866841Y-29735639D01*
X139005913Y-29951763D01*
X139218113Y-30096753D01*
X139470003Y-30147762D01*
X141170025Y-30147762D01*
X141405342Y-30103484D01*
X141621466Y-29964412D01*
X141766456Y-29752212D01*
X141817465Y-29500322D01*
X141817465Y-24257000D01*
X142662535Y-24257000D01*
X142662535Y-29500322D01*
X142706813Y-29735639D01*
X142845885Y-29951763D01*
X143058085Y-30096753D01*
X143309975Y-30147762D01*
X145009997Y-30147762D01*
X145245314Y-30103484D01*
X145461438Y-29964412D01*
X145606428Y-29752212D01*
X145657437Y-29500322D01*
X145657437Y-24257000D01*
X154062563Y-24257000D01*
X154062563Y-29500322D01*
X154106841Y-29735639D01*
X154245913Y-29951763D01*
X154458113Y-30096753D01*
X154710003Y-30147762D01*
X156410025Y-30147762D01*
X156645342Y-30103484D01*
X156861466Y-29964412D01*
X157006456Y-29752212D01*
X157057465Y-29500322D01*
X157057465Y-24257000D01*
X157902535Y-24257000D01*
X157902535Y-29500322D01*
X157946813Y-29735639D01*
X158085885Y-29951763D01*
X158298085Y-30096753D01*
X158549975Y-30147762D01*
X160249997Y-30147762D01*
X160485314Y-30103484D01*
X160701438Y-29964412D01*
X160846428Y-29752212D01*
X160897437Y-29500322D01*
X160897437Y-24257000D01*
X169302563Y-24257000D01*
X169302563Y-29500322D01*
X169346841Y-29735639D01*
X169485913Y-29951763D01*
X169698113Y-30096753D01*
X169950003Y-30147762D01*
X171650025Y-30147762D01*
X171885342Y-30103484D01*
X172101466Y-29964412D01*
X172246456Y-29752212D01*
X172297465Y-29500322D01*
X172297465Y-24257000D01*
X173142535Y-24257000D01*
X173142535Y-29500322D01*
X173186813Y-29735639D01*
X173325885Y-29951763D01*
X173538085Y-30096753D01*
X173789975Y-30147762D01*
X175489997Y-30147762D01*
X175725314Y-30103484D01*
X175941438Y-29964412D01*
X176086428Y-29752212D01*
X176137437Y-29500322D01*
X176137437Y-24257000D01*
X184542563Y-24257000D01*
X184542563Y-29500322D01*
X184586841Y-29735639D01*
X184725913Y-29951763D01*
X184938113Y-30096753D01*
X185190003Y-30147762D01*
X186890025Y-30147762D01*
X187125342Y-30103484D01*
X187341466Y-29964412D01*
X187486456Y-29752212D01*
X187537465Y-29500322D01*
X187537465Y-24257000D01*
X190665077Y-24257000D01*
X189790741Y-25129811D01*
X189205667Y-26538825D01*
X189204336Y-28064482D01*
X189786950Y-29474515D01*
X190864811Y-30554259D01*
X192273825Y-31139333D01*
X193799482Y-31140664D01*
X195209515Y-30558050D01*
X196289259Y-29480189D01*
X196723000Y-28435625D01*
X196723000Y-73801043D01*
X196293050Y-72760485D01*
X195215189Y-71680741D01*
X193806175Y-71095667D01*
X192280518Y-71094336D01*
X190870485Y-71676950D01*
X189790741Y-72754811D01*
X189205667Y-74163825D01*
X189204336Y-75689482D01*
X189786950Y-77099515D01*
X190864811Y-78179259D01*
X191909375Y-78613000D01*
X102093957Y-78613000D01*
X103134515Y-78183050D01*
X104214259Y-77105189D01*
X104799333Y-75696175D01*
X104799689Y-75287766D01*
X110859626Y-75287766D01*
X111187773Y-76081943D01*
X111794861Y-76690091D01*
X112588464Y-77019624D01*
X113447766Y-77020374D01*
X114241943Y-76692227D01*
X114850091Y-76085139D01*
X115179624Y-75291536D01*
X115179627Y-75287766D01*
X120384626Y-75287766D01*
X120712773Y-76081943D01*
X121319861Y-76690091D01*
X122113464Y-77019624D01*
X122972766Y-77020374D01*
X123766943Y-76692227D01*
X124375091Y-76085139D01*
X124704624Y-75291536D01*
X124704627Y-75287766D01*
X129909626Y-75287766D01*
X130237773Y-76081943D01*
X130844861Y-76690091D01*
X131638464Y-77019624D01*
X132497766Y-77020374D01*
X133291943Y-76692227D01*
X133900091Y-76085139D01*
X134106618Y-75587766D01*
X139624626Y-75587766D01*
X139952773Y-76381943D01*
X140559861Y-76990091D01*
X141353464Y-77319624D01*
X142212766Y-77320374D01*
X143006943Y-76992227D01*
X143615091Y-76385139D01*
X143944624Y-75591536D01*
X143944889Y-75287766D01*
X148959626Y-75287766D01*
X149287773Y-76081943D01*
X149894861Y-76690091D01*
X150688464Y-77019624D01*
X151547766Y-77020374D01*
X152341943Y-76692227D01*
X152950091Y-76085139D01*
X153279624Y-75291536D01*
X153279627Y-75287766D01*
X158484626Y-75287766D01*
X158812773Y-76081943D01*
X159419861Y-76690091D01*
X160213464Y-77019624D01*
X161072766Y-77020374D01*
X161866943Y-76692227D01*
X162475091Y-76085139D01*
X162804624Y-75291536D01*
X162804627Y-75287766D01*
X168009626Y-75287766D01*
X168337773Y-76081943D01*
X168944861Y-76690091D01*
X169738464Y-77019624D01*
X170597766Y-77020374D01*
X171391943Y-76692227D01*
X172000091Y-76085139D01*
X172329624Y-75291536D01*
X172329627Y-75287766D01*
X177534626Y-75287766D01*
X177862773Y-76081943D01*
X178469861Y-76690091D01*
X179263464Y-77019624D01*
X180122766Y-77020374D01*
X180916943Y-76692227D01*
X181525091Y-76085139D01*
X181854624Y-75291536D01*
X181855374Y-74432234D01*
X181527227Y-73638057D01*
X180920139Y-73029909D01*
X180126536Y-72700376D01*
X179267234Y-72699626D01*
X178473057Y-73027773D01*
X177864909Y-73634861D01*
X177535376Y-74428464D01*
X177534626Y-75287766D01*
X172329627Y-75287766D01*
X172330374Y-74432234D01*
X172002227Y-73638057D01*
X171395139Y-73029909D01*
X170601536Y-72700376D01*
X169742234Y-72699626D01*
X168948057Y-73027773D01*
X168339909Y-73634861D01*
X168010376Y-74428464D01*
X168009626Y-75287766D01*
X162804627Y-75287766D01*
X162805374Y-74432234D01*
X162477227Y-73638057D01*
X161870139Y-73029909D01*
X161076536Y-72700376D01*
X160217234Y-72699626D01*
X159423057Y-73027773D01*
X158814909Y-73634861D01*
X158485376Y-74428464D01*
X158484626Y-75287766D01*
X153279627Y-75287766D01*
X153280374Y-74432234D01*
X152952227Y-73638057D01*
X152345139Y-73029909D01*
X151551536Y-72700376D01*
X150692234Y-72699626D01*
X149898057Y-73027773D01*
X149289909Y-73634861D01*
X148960376Y-74428464D01*
X148959626Y-75287766D01*
X143944889Y-75287766D01*
X143945374Y-74732234D01*
X143617227Y-73938057D01*
X143010139Y-73329909D01*
X142216536Y-73000376D01*
X141357234Y-72999626D01*
X140563057Y-73327773D01*
X139954909Y-73934861D01*
X139625376Y-74728464D01*
X139624626Y-75587766D01*
X134106618Y-75587766D01*
X134229624Y-75291536D01*
X134230374Y-74432234D01*
X133902227Y-73638057D01*
X133295139Y-73029909D01*
X132501536Y-72700376D01*
X131642234Y-72699626D01*
X130848057Y-73027773D01*
X130239909Y-73634861D01*
X129910376Y-74428464D01*
X129909626Y-75287766D01*
X124704627Y-75287766D01*
X124705374Y-74432234D01*
X124377227Y-73638057D01*
X123770139Y-73029909D01*
X122976536Y-72700376D01*
X122117234Y-72699626D01*
X121323057Y-73027773D01*
X120714909Y-73634861D01*
X120385376Y-74428464D01*
X120384626Y-75287766D01*
X115179627Y-75287766D01*
X115180374Y-74432234D01*
X114852227Y-73638057D01*
X114245139Y-73029909D01*
X113451536Y-72700376D01*
X112592234Y-72699626D01*
X111798057Y-73027773D01*
X111189909Y-73634861D01*
X110860376Y-74428464D01*
X110859626Y-75287766D01*
X104799689Y-75287766D01*
X104800664Y-74170518D01*
X104218050Y-72760485D01*
X103140189Y-71680741D01*
X101731175Y-71095667D01*
X100205518Y-71094336D01*
X98795485Y-71676950D01*
X97917000Y-72553903D01*
X97917000Y-67324089D01*
X109794743Y-67324089D01*
X110020344Y-67870086D01*
X110437717Y-68288188D01*
X110983319Y-68514742D01*
X111574089Y-68515257D01*
X112120086Y-68289656D01*
X112538188Y-67872283D01*
X112764742Y-67326681D01*
X112764886Y-67161560D01*
X113367781Y-66558665D01*
X113295258Y-66733319D01*
X113294743Y-67324089D01*
X113520344Y-67870086D01*
X113937717Y-68288188D01*
X114483319Y-68514742D01*
X115074089Y-68515257D01*
X115620086Y-68289656D01*
X116038188Y-67872283D01*
X116264742Y-67326681D01*
X116265257Y-66735911D01*
X116039656Y-66189914D01*
X115622283Y-65771812D01*
X115076681Y-65545258D01*
X114485911Y-65544743D01*
X114308327Y-65618119D01*
X115664446Y-64262000D01*
X119920554Y-64262000D01*
X121276335Y-65617781D01*
X121101681Y-65545258D01*
X120510911Y-65544743D01*
X119964914Y-65770344D01*
X119546812Y-66187717D01*
X119320258Y-66733319D01*
X119319743Y-67324089D01*
X119545344Y-67870086D01*
X119962717Y-68288188D01*
X120508319Y-68514742D01*
X120673440Y-68514886D01*
X121608778Y-69450224D01*
X121979594Y-69697995D01*
X122417001Y-69785001D01*
X132217999Y-69785001D01*
X132655406Y-69697995D01*
X133026222Y-69450224D01*
X133961331Y-68515115D01*
X134124089Y-68515257D01*
X134670086Y-68289656D01*
X135088188Y-67872283D01*
X135232770Y-67524089D01*
X138559743Y-67524089D01*
X138785344Y-68070086D01*
X139202717Y-68488188D01*
X139748319Y-68714742D01*
X140339089Y-68715257D01*
X140885086Y-68489656D01*
X141101160Y-68273958D01*
X142680647Y-68273958D01*
X142760920Y-68525259D01*
X143316279Y-68726718D01*
X143906458Y-68700315D01*
X144329080Y-68525259D01*
X144409353Y-68273958D01*
X143545000Y-67409605D01*
X142680647Y-68273958D01*
X141101160Y-68273958D01*
X141303188Y-68072283D01*
X141529742Y-67526681D01*
X141530200Y-67001279D01*
X142048282Y-67001279D01*
X142074685Y-67591458D01*
X142249741Y-68014080D01*
X142501042Y-68094353D01*
X143365395Y-67230000D01*
X143724605Y-67230000D01*
X144588958Y-68094353D01*
X144840259Y-68014080D01*
X145041718Y-67458721D01*
X145015315Y-66868542D01*
X144840259Y-66445920D01*
X144588958Y-66365647D01*
X143724605Y-67230000D01*
X143365395Y-67230000D01*
X142501042Y-66365647D01*
X142249741Y-66445920D01*
X142048282Y-67001279D01*
X141530200Y-67001279D01*
X141530257Y-66935911D01*
X141304656Y-66389914D01*
X141101140Y-66186042D01*
X142680647Y-66186042D01*
X143545000Y-67050395D01*
X144409353Y-66186042D01*
X144329080Y-65934741D01*
X143773721Y-65733282D01*
X143183542Y-65759685D01*
X142760920Y-65934741D01*
X142680647Y-66186042D01*
X141101140Y-66186042D01*
X140887283Y-65971812D01*
X140341681Y-65745258D01*
X139750911Y-65744743D01*
X139204914Y-65970344D01*
X138786812Y-66387717D01*
X138560258Y-66933319D01*
X138559743Y-67524089D01*
X135232770Y-67524089D01*
X135314742Y-67326681D01*
X135315257Y-66735911D01*
X135089656Y-66189914D01*
X134672283Y-65771812D01*
X134126681Y-65545258D01*
X133535911Y-65544743D01*
X132989914Y-65770344D01*
X132571812Y-66187717D01*
X132345258Y-66733319D01*
X132345114Y-66898440D01*
X131744553Y-67499001D01*
X131743188Y-67499001D01*
X131814742Y-67326681D01*
X131815257Y-66735911D01*
X131589656Y-66189914D01*
X131473000Y-66073054D01*
X131473000Y-59465000D01*
X131385994Y-59027593D01*
X131138223Y-58656777D01*
X128271081Y-55789635D01*
X128645303Y-55635010D01*
X128828800Y-55451833D01*
X128828800Y-55714900D01*
X128915806Y-56152307D01*
X129163577Y-56523123D01*
X136828678Y-64188224D01*
X137199494Y-64435995D01*
X137636901Y-64523001D01*
X138559744Y-64523001D01*
X138559743Y-64524089D01*
X138785344Y-65070086D01*
X139202717Y-65488188D01*
X139748319Y-65714742D01*
X140339089Y-65715257D01*
X140885086Y-65489656D01*
X141101160Y-65273958D01*
X142680647Y-65273958D01*
X142760920Y-65525259D01*
X143316279Y-65726718D01*
X143906458Y-65700315D01*
X144329080Y-65525259D01*
X144409353Y-65273958D01*
X143545000Y-64409605D01*
X142680647Y-65273958D01*
X141101160Y-65273958D01*
X141303188Y-65072283D01*
X141529742Y-64526681D01*
X141530200Y-64001279D01*
X142048282Y-64001279D01*
X142074685Y-64591458D01*
X142249741Y-65014080D01*
X142501042Y-65094353D01*
X143365395Y-64230000D01*
X143724605Y-64230000D01*
X144588958Y-65094353D01*
X144840259Y-65014080D01*
X145041718Y-64458721D01*
X145015315Y-63868542D01*
X144840259Y-63445920D01*
X144588958Y-63365647D01*
X143724605Y-64230000D01*
X143365395Y-64230000D01*
X142501042Y-63365647D01*
X142249741Y-63445920D01*
X142048282Y-64001279D01*
X141530200Y-64001279D01*
X141530257Y-63935911D01*
X141304656Y-63389914D01*
X141101140Y-63186042D01*
X142680647Y-63186042D01*
X143545000Y-64050395D01*
X144409353Y-63186042D01*
X144329080Y-62934741D01*
X143773721Y-62733282D01*
X143183542Y-62759685D01*
X142760920Y-62934741D01*
X142680647Y-63186042D01*
X141101140Y-63186042D01*
X140887283Y-62971812D01*
X140341681Y-62745258D01*
X140176560Y-62745114D01*
X140003224Y-62571778D01*
X139632408Y-62324007D01*
X139195001Y-62237001D01*
X138110347Y-62237001D01*
X133148171Y-57274825D01*
X133626265Y-57275242D01*
X134139172Y-57063313D01*
X134531934Y-56671236D01*
X134744758Y-56158700D01*
X134745242Y-55603735D01*
X134533313Y-55090828D01*
X134141236Y-54698066D01*
X133929262Y-54610046D01*
X134139172Y-54523313D01*
X134531934Y-54131236D01*
X134744758Y-53618700D01*
X134745242Y-53063735D01*
X134533313Y-52550828D01*
X134178106Y-52195000D01*
X134236309Y-52195000D01*
X134469698Y-52098327D01*
X134648327Y-51919699D01*
X134745000Y-51686310D01*
X134745000Y-51085750D01*
X134586250Y-50927000D01*
X133477000Y-50927000D01*
X133477000Y-50947000D01*
X133223000Y-50947000D01*
X133223000Y-50927000D01*
X132113750Y-50927000D01*
X131955000Y-51085750D01*
X131955000Y-51686310D01*
X132051673Y-51919699D01*
X132230302Y-52098327D01*
X132463691Y-52195000D01*
X132522448Y-52195000D01*
X132168066Y-52548764D01*
X131955242Y-53061300D01*
X131954758Y-53616265D01*
X132166687Y-54129172D01*
X132558764Y-54521934D01*
X132770738Y-54609954D01*
X132560828Y-54696687D01*
X132168066Y-55088764D01*
X131955242Y-55601300D01*
X131954823Y-56081477D01*
X131114800Y-55241454D01*
X131114800Y-54311278D01*
X131027794Y-53873871D01*
X130780023Y-53503055D01*
X128044134Y-50767166D01*
X128131661Y-50767242D01*
X128645303Y-50555010D01*
X129038629Y-50162370D01*
X129141889Y-49913690D01*
X131955000Y-49913690D01*
X131955000Y-50514250D01*
X132113750Y-50673000D01*
X133223000Y-50673000D01*
X133223000Y-49563750D01*
X133477000Y-49563750D01*
X133477000Y-50673000D01*
X134586250Y-50673000D01*
X134745000Y-50514250D01*
X134745000Y-49913690D01*
X134648327Y-49680301D01*
X134469698Y-49501673D01*
X134236309Y-49405000D01*
X133635750Y-49405000D01*
X133477000Y-49563750D01*
X133223000Y-49563750D01*
X133064250Y-49405000D01*
X132463691Y-49405000D01*
X132230302Y-49501673D01*
X132051673Y-49680301D01*
X131955000Y-49913690D01*
X129141889Y-49913690D01*
X129251757Y-49649100D01*
X129251809Y-49589637D01*
X129946446Y-48895000D01*
X135146952Y-48895000D01*
X140758971Y-54507019D01*
X140363956Y-54243078D01*
X139700000Y-54111009D01*
X139036044Y-54243078D01*
X138473170Y-54619179D01*
X138097069Y-55182053D01*
X137965000Y-55846009D01*
X137965000Y-55913991D01*
X138097069Y-56577947D01*
X138473170Y-57140821D01*
X139036044Y-57516922D01*
X139700000Y-57648991D01*
X140363956Y-57516922D01*
X140926830Y-57140821D01*
X141302931Y-56577947D01*
X141435000Y-55913991D01*
X141435000Y-55846009D01*
X141302931Y-55182053D01*
X141038990Y-54787038D01*
X142940175Y-56688223D01*
X143310991Y-56935994D01*
X143748398Y-57023000D01*
X145820245Y-57023000D01*
X146135849Y-57233880D01*
X146685000Y-57343113D01*
X147234151Y-57233880D01*
X147699698Y-56922811D01*
X148010767Y-56457264D01*
X148120000Y-55908113D01*
X148120000Y-55851887D01*
X148010767Y-55302736D01*
X147699698Y-54837189D01*
X147234151Y-54526120D01*
X146685000Y-54416887D01*
X146135849Y-54526120D01*
X145820245Y-54737000D01*
X144221844Y-54737000D01*
X139492284Y-50007440D01*
X140800000Y-50007440D01*
X141035317Y-49963162D01*
X141251441Y-49824090D01*
X141396431Y-49611890D01*
X141438732Y-49403000D01*
X145798380Y-49403000D01*
X145871077Y-49475824D01*
X146398309Y-49694750D01*
X146503396Y-49694842D01*
X148237000Y-51428446D01*
X148237000Y-66072730D01*
X148121812Y-66187717D01*
X147895258Y-66733319D01*
X147894743Y-67324089D01*
X148120344Y-67870086D01*
X148537717Y-68288188D01*
X149083319Y-68514742D01*
X149674089Y-68515257D01*
X150220086Y-68289656D01*
X150638188Y-67872283D01*
X150864742Y-67326681D01*
X150864744Y-67324089D01*
X151394743Y-67324089D01*
X151620344Y-67870086D01*
X152037717Y-68288188D01*
X152583319Y-68514742D01*
X153174089Y-68515257D01*
X153720086Y-68289656D01*
X153936160Y-68073958D01*
X158040647Y-68073958D01*
X158120920Y-68325259D01*
X158676279Y-68526718D01*
X159266458Y-68500315D01*
X159689080Y-68325259D01*
X159769353Y-68073958D01*
X158905000Y-67209605D01*
X158040647Y-68073958D01*
X153936160Y-68073958D01*
X154138188Y-67872283D01*
X154364742Y-67326681D01*
X154365200Y-66801279D01*
X157408282Y-66801279D01*
X157434685Y-67391458D01*
X157609741Y-67814080D01*
X157861042Y-67894353D01*
X158725395Y-67030000D01*
X159084605Y-67030000D01*
X159948958Y-67894353D01*
X160200259Y-67814080D01*
X160378005Y-67324089D01*
X160919743Y-67324089D01*
X161145344Y-67870086D01*
X161562717Y-68288188D01*
X162108319Y-68514742D01*
X162699089Y-68515257D01*
X163245086Y-68289656D01*
X163461160Y-68073958D01*
X167565647Y-68073958D01*
X167645920Y-68325259D01*
X168201279Y-68526718D01*
X168791458Y-68500315D01*
X169214080Y-68325259D01*
X169294353Y-68073958D01*
X168430000Y-67209605D01*
X167565647Y-68073958D01*
X163461160Y-68073958D01*
X163663188Y-67872283D01*
X163889742Y-67326681D01*
X163890200Y-66801279D01*
X166933282Y-66801279D01*
X166959685Y-67391458D01*
X167134741Y-67814080D01*
X167386042Y-67894353D01*
X168250395Y-67030000D01*
X167386042Y-66165647D01*
X167134741Y-66245920D01*
X166933282Y-66801279D01*
X163890200Y-66801279D01*
X163890257Y-66735911D01*
X163664656Y-66189914D01*
X163247283Y-65771812D01*
X162701681Y-65545258D01*
X162110911Y-65544743D01*
X161564914Y-65770344D01*
X161146812Y-66187717D01*
X160920258Y-66733319D01*
X160919743Y-67324089D01*
X160378005Y-67324089D01*
X160401718Y-67258721D01*
X160375315Y-66668542D01*
X160200259Y-66245920D01*
X159948958Y-66165647D01*
X159084605Y-67030000D01*
X158725395Y-67030000D01*
X157861042Y-66165647D01*
X157609741Y-66245920D01*
X157408282Y-66801279D01*
X154365200Y-66801279D01*
X154365257Y-66735911D01*
X154139656Y-66189914D01*
X154023000Y-66073054D01*
X154023000Y-65986042D01*
X158040647Y-65986042D01*
X158905000Y-66850395D01*
X159769353Y-65986042D01*
X159689080Y-65734741D01*
X159133721Y-65533282D01*
X158543542Y-65559685D01*
X158120920Y-65734741D01*
X158040647Y-65986042D01*
X154023000Y-65986042D01*
X154023000Y-57286815D01*
X154481800Y-57097243D01*
X154885824Y-56693923D01*
X155104750Y-56166691D01*
X155104752Y-56164187D01*
X159219752Y-56164187D01*
X159437757Y-56691800D01*
X159841077Y-57095824D01*
X160368309Y-57314750D01*
X160598505Y-57314951D01*
X168906844Y-65623290D01*
X168658721Y-65533282D01*
X168068542Y-65559685D01*
X167645920Y-65734741D01*
X167565647Y-65986042D01*
X168430000Y-66850395D01*
X168444143Y-66836253D01*
X168623748Y-67015858D01*
X168609605Y-67030000D01*
X169473958Y-67894353D01*
X169725259Y-67814080D01*
X169926718Y-67258721D01*
X169900315Y-66668542D01*
X169863700Y-66580146D01*
X170444885Y-67161331D01*
X170444743Y-67324089D01*
X170670344Y-67870086D01*
X171087717Y-68288188D01*
X171633319Y-68514742D01*
X172224089Y-68515257D01*
X172770086Y-68289656D01*
X172986160Y-68073958D01*
X177090647Y-68073958D01*
X177170920Y-68325259D01*
X177726279Y-68526718D01*
X178316458Y-68500315D01*
X178739080Y-68325259D01*
X178819353Y-68073958D01*
X177955000Y-67209605D01*
X177090647Y-68073958D01*
X172986160Y-68073958D01*
X173188188Y-67872283D01*
X173414742Y-67326681D01*
X173415200Y-66801279D01*
X176458282Y-66801279D01*
X176484685Y-67391458D01*
X176659741Y-67814080D01*
X176911042Y-67894353D01*
X177775395Y-67030000D01*
X178134605Y-67030000D01*
X178998958Y-67894353D01*
X179250259Y-67814080D01*
X179451718Y-67258721D01*
X179425315Y-66668542D01*
X179250259Y-66245920D01*
X178998958Y-66165647D01*
X178134605Y-67030000D01*
X177775395Y-67030000D01*
X176911042Y-66165647D01*
X176659741Y-66245920D01*
X176458282Y-66801279D01*
X173415200Y-66801279D01*
X173415257Y-66735911D01*
X173189656Y-66189914D01*
X172986140Y-65986042D01*
X177090647Y-65986042D01*
X177955000Y-66850395D01*
X178819353Y-65986042D01*
X178739080Y-65734741D01*
X178183721Y-65533282D01*
X177593542Y-65559685D01*
X177170920Y-65734741D01*
X177090647Y-65986042D01*
X172986140Y-65986042D01*
X172772283Y-65771812D01*
X172226681Y-65545258D01*
X172061560Y-65545114D01*
X162368333Y-55851887D01*
X165570000Y-55851887D01*
X165570000Y-55908113D01*
X165679233Y-56457264D01*
X165990302Y-56922811D01*
X166455849Y-57233880D01*
X167005000Y-57343113D01*
X167554151Y-57233880D01*
X167869755Y-57023000D01*
X170815000Y-57023000D01*
X171252407Y-56935994D01*
X171623223Y-56688223D01*
X172166375Y-56145071D01*
X172388991Y-56145265D01*
X172953371Y-55912068D01*
X173121613Y-55744120D01*
X173121838Y-55745317D01*
X173260910Y-55961441D01*
X173473110Y-56106431D01*
X173725000Y-56157440D01*
X175525000Y-56157440D01*
X175760317Y-56113162D01*
X175976441Y-55974090D01*
X176121431Y-55761890D01*
X176123231Y-55753000D01*
X176541000Y-55753000D01*
X176978407Y-55665994D01*
X177349223Y-55418223D01*
X182418223Y-50349223D01*
X182665994Y-49978407D01*
X182753000Y-49541000D01*
X182753000Y-42107928D01*
X182793629Y-42067370D01*
X182879949Y-41859488D01*
X182964990Y-42065303D01*
X183357630Y-42458629D01*
X183870900Y-42671757D01*
X184426661Y-42672242D01*
X184940303Y-42460010D01*
X185102500Y-42298096D01*
X185102500Y-64747436D01*
X184407436Y-65442500D01*
X181455000Y-65442500D01*
X180847490Y-65563341D01*
X180332468Y-65907468D01*
X179988341Y-66422490D01*
X179867500Y-67030000D01*
X179988341Y-67637510D01*
X180332468Y-68152532D01*
X180847490Y-68496659D01*
X181455000Y-68617500D01*
X185065000Y-68617500D01*
X185672510Y-68496659D01*
X186187532Y-68152532D01*
X187812532Y-66527532D01*
X188156659Y-66012510D01*
X188277500Y-65405000D01*
X188277500Y-42333344D01*
X188314382Y-42370226D01*
X188429393Y-42255215D01*
X188498857Y-42497397D01*
X189022302Y-42684144D01*
X189577368Y-42656362D01*
X189961143Y-42497397D01*
X190030608Y-42255213D01*
X189230000Y-41454605D01*
X189215858Y-41468748D01*
X189036253Y-41289143D01*
X189050395Y-41275000D01*
X189409605Y-41275000D01*
X190210213Y-42075608D01*
X190452397Y-42006143D01*
X190502509Y-41865682D01*
X190584990Y-42065303D01*
X190977630Y-42458629D01*
X191490900Y-42671757D01*
X192046661Y-42672242D01*
X192560303Y-42460010D01*
X192953629Y-42067370D01*
X193166757Y-41554100D01*
X193167242Y-40998339D01*
X192955010Y-40484697D01*
X192562370Y-40091371D01*
X192049100Y-39878243D01*
X191493339Y-39877758D01*
X190979697Y-40089990D01*
X190586371Y-40482630D01*
X190506605Y-40674727D01*
X190452397Y-40543857D01*
X190210213Y-40474392D01*
X189409605Y-41275000D01*
X189050395Y-41275000D01*
X188249787Y-40474392D01*
X188063363Y-40527863D01*
X187907627Y-40294787D01*
X188429392Y-40294787D01*
X189230000Y-41095395D01*
X190030608Y-40294787D01*
X189961143Y-40052603D01*
X189437698Y-39865856D01*
X188882632Y-39893638D01*
X188498857Y-40052603D01*
X188429392Y-40294787D01*
X187907627Y-40294787D01*
X187812532Y-40152468D01*
X187297510Y-39808341D01*
X186690000Y-39687500D01*
X186082490Y-39808341D01*
X185567468Y-40152468D01*
X185339010Y-40494379D01*
X185335010Y-40484697D01*
X184942370Y-40091371D01*
X184429100Y-39878243D01*
X183873339Y-39877758D01*
X183359697Y-40089990D01*
X182966371Y-40482630D01*
X182880051Y-40690512D01*
X182795010Y-40484697D01*
X182402370Y-40091371D01*
X181889100Y-39878243D01*
X181333339Y-39877758D01*
X180819697Y-40089990D01*
X180426371Y-40482630D01*
X180213243Y-40995900D01*
X180212758Y-41551661D01*
X180424990Y-42065303D01*
X180467000Y-42107386D01*
X180467000Y-49067554D01*
X176101424Y-53433130D01*
X175989090Y-53258559D01*
X175776890Y-53113569D01*
X175525000Y-53062560D01*
X173725000Y-53062560D01*
X173489683Y-53106838D01*
X173273559Y-53245910D01*
X173128569Y-53458110D01*
X173124433Y-53478534D01*
X172955643Y-53309449D01*
X172391670Y-53075267D01*
X171781009Y-53074735D01*
X171216629Y-53307932D01*
X170784449Y-53739357D01*
X170550267Y-54303330D01*
X170550071Y-54528483D01*
X170341554Y-54737000D01*
X167869755Y-54737000D01*
X167554151Y-54526120D01*
X167005000Y-54416887D01*
X166455849Y-54526120D01*
X165990302Y-54837189D01*
X165679233Y-55302736D01*
X165570000Y-55851887D01*
X162368333Y-55851887D01*
X162074749Y-55558303D01*
X161872243Y-55068200D01*
X161468923Y-54664176D01*
X160941691Y-54445250D01*
X160370813Y-54444752D01*
X159843200Y-54662757D01*
X159439176Y-55066077D01*
X159220250Y-55593309D01*
X159219752Y-56164187D01*
X155104752Y-56164187D01*
X155105248Y-55595813D01*
X154887243Y-55068200D01*
X154483923Y-54664176D01*
X153956691Y-54445250D01*
X153385813Y-54444752D01*
X152858200Y-54662757D01*
X152454176Y-55066077D01*
X152235250Y-55593309D01*
X152235158Y-55698396D01*
X152071777Y-55861777D01*
X151824006Y-56232593D01*
X151737000Y-56670000D01*
X151737000Y-66072730D01*
X151621812Y-66187717D01*
X151395258Y-66733319D01*
X151394743Y-67324089D01*
X150864744Y-67324089D01*
X150865257Y-66735911D01*
X150639656Y-66189914D01*
X150523000Y-66073054D01*
X150523000Y-50955000D01*
X150435994Y-50517593D01*
X150188223Y-50146777D01*
X148273333Y-48231887D01*
X152235000Y-48231887D01*
X152235000Y-48288113D01*
X152344233Y-48837264D01*
X152655302Y-49302811D01*
X153120849Y-49613880D01*
X153670000Y-49723113D01*
X154219151Y-49613880D01*
X154684698Y-49302811D01*
X154995767Y-48837264D01*
X155105000Y-48288113D01*
X155105000Y-48231887D01*
X159220000Y-48231887D01*
X159220000Y-48288113D01*
X159329233Y-48837264D01*
X159640302Y-49302811D01*
X160105849Y-49613880D01*
X160655000Y-49723113D01*
X161204151Y-49613880D01*
X161669698Y-49302811D01*
X161980767Y-48837264D01*
X162039063Y-48544187D01*
X165569752Y-48544187D01*
X165787757Y-49071800D01*
X166191077Y-49475824D01*
X166718309Y-49694750D01*
X167289187Y-49695248D01*
X167816800Y-49477243D01*
X168220824Y-49073923D01*
X168439750Y-48546691D01*
X168440248Y-47975813D01*
X168222243Y-47448200D01*
X167818923Y-47044176D01*
X167291691Y-46825250D01*
X166720813Y-46824752D01*
X166193200Y-47042757D01*
X165789176Y-47446077D01*
X165570250Y-47973309D01*
X165569752Y-48544187D01*
X162039063Y-48544187D01*
X162090000Y-48288113D01*
X162090000Y-48231887D01*
X161980767Y-47682736D01*
X161669698Y-47217189D01*
X161204151Y-46906120D01*
X160655000Y-46796887D01*
X160105849Y-46906120D01*
X159640302Y-47217189D01*
X159329233Y-47682736D01*
X159220000Y-48231887D01*
X155105000Y-48231887D01*
X154995767Y-47682736D01*
X154684698Y-47217189D01*
X154219151Y-46906120D01*
X153670000Y-46796887D01*
X153120849Y-46906120D01*
X152655302Y-47217189D01*
X152344233Y-47682736D01*
X152235000Y-48231887D01*
X148273333Y-48231887D01*
X148120158Y-48078712D01*
X148120248Y-47975813D01*
X147902243Y-47448200D01*
X147828000Y-47373827D01*
X147828000Y-46828446D01*
X149381861Y-45274585D01*
X149822378Y-45186961D01*
X150304147Y-44865054D01*
X150626054Y-44383285D01*
X150739093Y-43815000D01*
X150626054Y-43246715D01*
X150304147Y-42764946D01*
X149974974Y-42545000D01*
X150304147Y-42325054D01*
X150626054Y-41843285D01*
X150739093Y-41275000D01*
X150626054Y-40706715D01*
X150304147Y-40224946D01*
X149822378Y-39903039D01*
X149254093Y-39790000D01*
X149195907Y-39790000D01*
X148627622Y-39903039D01*
X148145853Y-40224946D01*
X148145029Y-40226179D01*
X148138162Y-40189683D01*
X147999090Y-39973559D01*
X147786890Y-39828569D01*
X147637500Y-39798317D01*
X147637500Y-35234854D01*
X147698573Y-35223362D01*
X147861383Y-35118596D01*
X147907502Y-35150108D01*
X147907502Y-35190755D01*
X147891500Y-35271202D01*
X147891500Y-35458518D01*
X147828176Y-35611018D01*
X147827824Y-36015208D01*
X147880424Y-36142510D01*
X147880424Y-37109529D01*
X147817100Y-37262029D01*
X147816748Y-37666219D01*
X147971099Y-38039777D01*
X148256655Y-38325832D01*
X148629942Y-38480835D01*
X149034132Y-38481187D01*
X149407690Y-38326836D01*
X149693745Y-38041280D01*
X149848748Y-37667993D01*
X149849100Y-37263803D01*
X149785424Y-37109695D01*
X149785424Y-36196156D01*
X149859824Y-36016982D01*
X149860176Y-35612792D01*
X149812502Y-35497412D01*
X149812502Y-35150048D01*
X149861379Y-35118596D01*
X149907498Y-35150108D01*
X149907498Y-36132054D01*
X149860176Y-36246018D01*
X149859824Y-36650208D01*
X150014175Y-37023766D01*
X150299731Y-37309821D01*
X150673018Y-37464824D01*
X151077208Y-37465176D01*
X151450766Y-37310825D01*
X151736821Y-37025269D01*
X151891824Y-36651982D01*
X151892176Y-36247792D01*
X151812498Y-36054956D01*
X151812498Y-35150048D01*
X151858783Y-35120264D01*
X151897046Y-35158527D01*
X152048717Y-35221351D01*
X152018755Y-35293508D01*
X152018403Y-35697698D01*
X152082500Y-35852825D01*
X152082500Y-39796847D01*
X151949683Y-39821838D01*
X151733559Y-39960910D01*
X151588569Y-40173110D01*
X151537560Y-40425000D01*
X151537560Y-42125000D01*
X151581838Y-42360317D01*
X151720910Y-42576441D01*
X151933110Y-42721431D01*
X152000541Y-42735086D01*
X151955853Y-42764946D01*
X151633946Y-43246715D01*
X151520907Y-43815000D01*
X151633946Y-44383285D01*
X151955853Y-44865054D01*
X152437622Y-45186961D01*
X153005907Y-45300000D01*
X153064093Y-45300000D01*
X153632378Y-45186961D01*
X154114147Y-44865054D01*
X154305000Y-44579422D01*
X154495853Y-44865054D01*
X154977622Y-45186961D01*
X155545907Y-45300000D01*
X155604093Y-45300000D01*
X156172378Y-45186961D01*
X156654147Y-44865054D01*
X156976054Y-44383285D01*
X157089093Y-43815000D01*
X160410907Y-43815000D01*
X160523946Y-44383285D01*
X160845853Y-44865054D01*
X161327622Y-45186961D01*
X161895907Y-45300000D01*
X161954093Y-45300000D01*
X162522378Y-45186961D01*
X163004147Y-44865054D01*
X163195000Y-44579422D01*
X163385853Y-44865054D01*
X163867622Y-45186961D01*
X164435907Y-45300000D01*
X164494093Y-45300000D01*
X165062378Y-45186961D01*
X165544147Y-44865054D01*
X165866054Y-44383285D01*
X165979093Y-43815000D01*
X165866054Y-43246715D01*
X165544147Y-42764946D01*
X165214974Y-42545000D01*
X165544147Y-42325054D01*
X165866054Y-41843285D01*
X165979093Y-41275000D01*
X165866054Y-40706715D01*
X165544147Y-40224946D01*
X165062378Y-39903039D01*
X164494093Y-39790000D01*
X164435907Y-39790000D01*
X163867622Y-39903039D01*
X163385853Y-40224946D01*
X163385029Y-40226179D01*
X163378162Y-40189683D01*
X163239090Y-39973559D01*
X163026890Y-39828569D01*
X162877500Y-39798317D01*
X162877500Y-35234854D01*
X162938573Y-35223362D01*
X163101383Y-35118596D01*
X163147502Y-35150108D01*
X163147502Y-37227002D01*
X163194888Y-37465229D01*
X163194824Y-37539208D01*
X163349175Y-37912766D01*
X163634731Y-38198821D01*
X164008018Y-38353824D01*
X164412208Y-38354176D01*
X164785766Y-38199825D01*
X165071821Y-37914269D01*
X165226824Y-37540982D01*
X165227176Y-37136792D01*
X165072825Y-36763234D01*
X165052502Y-36742875D01*
X165052502Y-35150048D01*
X165101379Y-35118596D01*
X165147498Y-35150108D01*
X165147498Y-36178998D01*
X165220003Y-36543504D01*
X165259852Y-36603143D01*
X165381175Y-36896766D01*
X165666731Y-37182821D01*
X166040018Y-37337824D01*
X166444208Y-37338176D01*
X166817766Y-37183825D01*
X167103821Y-36898269D01*
X167258824Y-36524982D01*
X167259176Y-36120792D01*
X167104825Y-35747234D01*
X167052498Y-35694816D01*
X167052498Y-35150048D01*
X167098783Y-35120264D01*
X167101245Y-35122726D01*
X167083065Y-35166508D01*
X167082713Y-35570698D01*
X167237064Y-35944256D01*
X167322500Y-36029841D01*
X167322500Y-39796847D01*
X167189683Y-39821838D01*
X166973559Y-39960910D01*
X166828569Y-40173110D01*
X166777560Y-40425000D01*
X166777560Y-42125000D01*
X166821838Y-42360317D01*
X166960910Y-42576441D01*
X167173110Y-42721431D01*
X167240541Y-42735086D01*
X167195853Y-42764946D01*
X166873946Y-43246715D01*
X166760907Y-43815000D01*
X166873946Y-44383285D01*
X167195853Y-44865054D01*
X167677622Y-45186961D01*
X168245907Y-45300000D01*
X168304093Y-45300000D01*
X168872378Y-45186961D01*
X169354147Y-44865054D01*
X169545000Y-44579422D01*
X169735853Y-44865054D01*
X170217622Y-45186961D01*
X170785907Y-45300000D01*
X170844093Y-45300000D01*
X171412378Y-45186961D01*
X171894147Y-44865054D01*
X172216054Y-44383285D01*
X172329093Y-43815000D01*
X173745907Y-43815000D01*
X173858946Y-44383285D01*
X174180853Y-44865054D01*
X174662622Y-45186961D01*
X175230907Y-45300000D01*
X175289093Y-45300000D01*
X175857378Y-45186961D01*
X176339147Y-44865054D01*
X176530000Y-44579422D01*
X176720853Y-44865054D01*
X177202622Y-45186961D01*
X177770907Y-45300000D01*
X177829093Y-45300000D01*
X178397378Y-45186961D01*
X178879147Y-44865054D01*
X179201054Y-44383285D01*
X179314093Y-43815000D01*
X179201054Y-43246715D01*
X178879147Y-42764946D01*
X178549974Y-42545000D01*
X178879147Y-42325054D01*
X179201054Y-41843285D01*
X179314093Y-41275000D01*
X179201054Y-40706715D01*
X178879147Y-40224946D01*
X178397378Y-39903039D01*
X177829093Y-39790000D01*
X177770907Y-39790000D01*
X177202622Y-39903039D01*
X176720853Y-40224946D01*
X176720029Y-40226179D01*
X176713162Y-40189683D01*
X176574090Y-39973559D01*
X176361890Y-39828569D01*
X176212500Y-39798317D01*
X176212500Y-35494544D01*
X176489479Y-35217565D01*
X176736756Y-35267640D01*
X177943256Y-35267640D01*
X178178573Y-35223362D01*
X178341383Y-35118596D01*
X178484862Y-35216631D01*
X178736752Y-35267640D01*
X179006500Y-35267640D01*
X179006500Y-36599472D01*
X178971179Y-36634731D01*
X178816176Y-37008018D01*
X178815824Y-37412208D01*
X178970175Y-37785766D01*
X179255731Y-38071821D01*
X179629018Y-38226824D01*
X180033208Y-38227176D01*
X180406766Y-38072825D01*
X180692821Y-37787269D01*
X180847824Y-37413982D01*
X180848111Y-37084215D01*
X181153018Y-37210824D01*
X181557208Y-37211176D01*
X181930766Y-37056825D01*
X182216821Y-36771269D01*
X182371824Y-36397982D01*
X182372176Y-35993792D01*
X182217825Y-35620234D01*
X182181500Y-35583846D01*
X182181500Y-35221473D01*
X182338783Y-35120264D01*
X182377046Y-35158527D01*
X182610435Y-35255200D01*
X183054244Y-35255200D01*
X183212994Y-35096450D01*
X183212994Y-33147000D01*
X183466994Y-33147000D01*
X183466994Y-35096450D01*
X183625744Y-35255200D01*
X184069553Y-35255200D01*
X184302942Y-35158527D01*
X184481571Y-34979899D01*
X184578244Y-34746510D01*
X184578244Y-33305750D01*
X184419494Y-33147000D01*
X183466994Y-33147000D01*
X183212994Y-33147000D01*
X183192994Y-33147000D01*
X183192994Y-32893000D01*
X183212994Y-32893000D01*
X183212994Y-30943550D01*
X183466994Y-30943550D01*
X183466994Y-32893000D01*
X184419494Y-32893000D01*
X184578244Y-32734250D01*
X184578244Y-31293490D01*
X184481571Y-31060101D01*
X184302942Y-30881473D01*
X184069553Y-30784800D01*
X183625744Y-30784800D01*
X183466994Y-30943550D01*
X183212994Y-30943550D01*
X183054244Y-30784800D01*
X182610435Y-30784800D01*
X182377046Y-30881473D01*
X182337725Y-30920794D01*
X182195138Y-30823369D01*
X181943248Y-30772360D01*
X180736748Y-30772360D01*
X180501431Y-30816638D01*
X180338621Y-30921404D01*
X180195142Y-30823369D01*
X179943252Y-30772360D01*
X178736752Y-30772360D01*
X178501435Y-30816638D01*
X178338625Y-30921404D01*
X178195146Y-30823369D01*
X177943256Y-30772360D01*
X176736756Y-30772360D01*
X176501439Y-30816638D01*
X176285315Y-30955710D01*
X176140325Y-31167910D01*
X176089316Y-31419800D01*
X176089316Y-32923652D01*
X175713987Y-33298981D01*
X175713984Y-33298983D01*
X174586481Y-34426487D01*
X174380005Y-34735500D01*
X174307500Y-35100006D01*
X174307500Y-39796847D01*
X174174683Y-39821838D01*
X173958559Y-39960910D01*
X173813569Y-40173110D01*
X173762560Y-40425000D01*
X173762560Y-42125000D01*
X173806838Y-42360317D01*
X173945910Y-42576441D01*
X174158110Y-42721431D01*
X174225541Y-42735086D01*
X174180853Y-42764946D01*
X173858946Y-43246715D01*
X173745907Y-43815000D01*
X172329093Y-43815000D01*
X172216054Y-43246715D01*
X171894147Y-42764946D01*
X171564974Y-42545000D01*
X171894147Y-42325054D01*
X172216054Y-41843285D01*
X172329093Y-41275000D01*
X172216054Y-40706715D01*
X171894147Y-40224946D01*
X171412378Y-39903039D01*
X170844093Y-39790000D01*
X170785907Y-39790000D01*
X170217622Y-39903039D01*
X169735853Y-40224946D01*
X169735029Y-40226179D01*
X169728162Y-40189683D01*
X169589090Y-39973559D01*
X169376890Y-39828569D01*
X169227500Y-39798317D01*
X169227500Y-35545601D01*
X169154995Y-35181095D01*
X169109084Y-35112385D01*
X169241571Y-34979899D01*
X169338244Y-34746510D01*
X169338244Y-33305750D01*
X169179494Y-33147000D01*
X168226994Y-33147000D01*
X168226994Y-33167000D01*
X167972994Y-33167000D01*
X167972994Y-33147000D01*
X167952994Y-33147000D01*
X167952994Y-32893000D01*
X167972994Y-32893000D01*
X167972994Y-30943550D01*
X168226994Y-30943550D01*
X168226994Y-32893000D01*
X169179494Y-32893000D01*
X169338244Y-32734250D01*
X169338244Y-31293490D01*
X169241571Y-31060101D01*
X169062942Y-30881473D01*
X168829553Y-30784800D01*
X168385744Y-30784800D01*
X168226994Y-30943550D01*
X167972994Y-30943550D01*
X167814244Y-30784800D01*
X167370435Y-30784800D01*
X167137046Y-30881473D01*
X167097725Y-30920794D01*
X166955138Y-30823369D01*
X166898553Y-30811910D01*
X167004824Y-30555982D01*
X167005176Y-30151792D01*
X166850825Y-29778234D01*
X166565269Y-29492179D01*
X166191982Y-29337176D01*
X165787792Y-29336824D01*
X165633684Y-29400500D01*
X164531802Y-29400500D01*
X164167296Y-29473005D01*
X163858282Y-29679481D01*
X163426483Y-30111281D01*
X163220007Y-30420294D01*
X163147502Y-30784800D01*
X163147502Y-30889952D01*
X163098625Y-30921404D01*
X162955146Y-30823369D01*
X162703256Y-30772360D01*
X161496756Y-30772360D01*
X161261439Y-30816638D01*
X161045315Y-30955710D01*
X160900325Y-31167910D01*
X160849316Y-31419800D01*
X160849316Y-34620200D01*
X160893594Y-34855517D01*
X160972500Y-34978140D01*
X160972500Y-39796847D01*
X160839683Y-39821838D01*
X160623559Y-39960910D01*
X160478569Y-40173110D01*
X160427560Y-40425000D01*
X160427560Y-42125000D01*
X160471838Y-42360317D01*
X160610910Y-42576441D01*
X160823110Y-42721431D01*
X160890541Y-42735086D01*
X160845853Y-42764946D01*
X160523946Y-43246715D01*
X160410907Y-43815000D01*
X157089093Y-43815000D01*
X156976054Y-43246715D01*
X156654147Y-42764946D01*
X156324974Y-42545000D01*
X156654147Y-42325054D01*
X156976054Y-41843285D01*
X157089093Y-41275000D01*
X156976054Y-40706715D01*
X156654147Y-40224946D01*
X156172378Y-39903039D01*
X155604093Y-39790000D01*
X155545907Y-39790000D01*
X154977622Y-39903039D01*
X154495853Y-40224946D01*
X154495029Y-40226179D01*
X154488162Y-40189683D01*
X154349090Y-39973559D01*
X154136890Y-39828569D01*
X153987500Y-39798317D01*
X153987500Y-35850959D01*
X154050403Y-35699472D01*
X154050755Y-35295282D01*
X153944162Y-35037308D01*
X154001571Y-34979899D01*
X154098244Y-34746510D01*
X154098244Y-33305750D01*
X153939494Y-33147000D01*
X152986994Y-33147000D01*
X152986994Y-33167000D01*
X152732994Y-33167000D01*
X152732994Y-33147000D01*
X152712994Y-33147000D01*
X152712994Y-32893000D01*
X152732994Y-32893000D01*
X152732994Y-30943550D01*
X152986994Y-30943550D01*
X152986994Y-32893000D01*
X153939494Y-32893000D01*
X154098244Y-32734250D01*
X154098244Y-31293490D01*
X154001571Y-31060101D01*
X153822942Y-30881473D01*
X153589553Y-30784800D01*
X153145744Y-30784800D01*
X152986994Y-30943550D01*
X152732994Y-30943550D01*
X152574244Y-30784800D01*
X152130435Y-30784800D01*
X151897046Y-30881473D01*
X151857725Y-30920794D01*
X151828500Y-30900826D01*
X151828500Y-30327482D01*
X151891824Y-30174982D01*
X151892176Y-29770792D01*
X151737825Y-29397234D01*
X151452269Y-29111179D01*
X151078982Y-28956176D01*
X150674792Y-28955824D01*
X150301234Y-29110175D01*
X150015179Y-29395731D01*
X149860176Y-29769018D01*
X149859824Y-30173208D01*
X149923500Y-30327316D01*
X149923500Y-30879655D01*
X149858621Y-30921404D01*
X149715142Y-30823369D01*
X149463252Y-30772360D01*
X148256752Y-30772360D01*
X148021435Y-30816638D01*
X147858625Y-30921404D01*
X147715146Y-30823369D01*
X147463256Y-30772360D01*
X146256756Y-30772360D01*
X146021439Y-30816638D01*
X145805315Y-30955710D01*
X145660325Y-31167910D01*
X145609316Y-31419800D01*
X145609316Y-34620200D01*
X145653594Y-34855517D01*
X145732500Y-34978140D01*
X145732500Y-39796847D01*
X145599683Y-39821838D01*
X145383559Y-39960910D01*
X145238569Y-40173110D01*
X145187560Y-40425000D01*
X145187560Y-42125000D01*
X145231838Y-42360317D01*
X145370910Y-42576441D01*
X145583110Y-42721431D01*
X145650541Y-42735086D01*
X145605853Y-42764946D01*
X145283946Y-43246715D01*
X145170907Y-43815000D01*
X145283946Y-44383285D01*
X145605853Y-44865054D01*
X146087622Y-45186961D01*
X146211877Y-45211677D01*
X145876777Y-45546777D01*
X145629006Y-45917593D01*
X145542000Y-46355000D01*
X145542000Y-47117000D01*
X141439349Y-47117000D01*
X141403162Y-46924683D01*
X141264090Y-46708559D01*
X141051890Y-46563569D01*
X140800000Y-46512560D01*
X138600000Y-46512560D01*
X138364683Y-46556838D01*
X138148559Y-46695910D01*
X138003569Y-46908110D01*
X137952560Y-47160000D01*
X137952560Y-48467716D01*
X136428621Y-46943777D01*
X136057805Y-46696006D01*
X135620398Y-46609000D01*
X129473000Y-46609000D01*
X129035593Y-46696006D01*
X128664777Y-46943777D01*
X127635746Y-47972808D01*
X127578339Y-47972758D01*
X127064697Y-48184990D01*
X126671371Y-48577630D01*
X126458243Y-49090900D01*
X126458164Y-49181196D01*
X124724798Y-47447830D01*
X124716993Y-47408592D01*
X124469222Y-47037776D01*
X124098406Y-46790005D01*
X123660999Y-46702999D01*
X119219001Y-46702999D01*
X118781594Y-46790005D01*
X118410778Y-47037776D01*
X117475746Y-47972808D01*
X117418339Y-47972758D01*
X116904697Y-48184990D01*
X116511371Y-48577630D01*
X116298243Y-49090900D01*
X116297758Y-49646661D01*
X116509990Y-50160303D01*
X116902630Y-50553629D01*
X117415900Y-50766757D01*
X117971661Y-50767242D01*
X118485303Y-50555010D01*
X118878629Y-50162370D01*
X118964949Y-49954488D01*
X119049990Y-50160303D01*
X119442630Y-50553629D01*
X119955900Y-50766757D01*
X120015363Y-50766809D01*
X122358919Y-53110365D01*
X121984697Y-53264990D01*
X121591371Y-53657630D01*
X121505051Y-53865512D01*
X121420010Y-53659697D01*
X121027370Y-53266371D01*
X120514100Y-53053243D01*
X119958339Y-53052758D01*
X119444697Y-53264990D01*
X119051371Y-53657630D01*
X118965051Y-53865512D01*
X118880010Y-53659697D01*
X118487370Y-53266371D01*
X117974100Y-53053243D01*
X117418339Y-53052758D01*
X116904697Y-53264990D01*
X116511371Y-53657630D01*
X116298243Y-54170900D01*
X116297758Y-54726661D01*
X116509990Y-55240303D01*
X116902630Y-55633629D01*
X117415900Y-55846757D01*
X117971661Y-55847242D01*
X118485303Y-55635010D01*
X118878629Y-55242370D01*
X118964949Y-55034488D01*
X119049990Y-55240303D01*
X119442630Y-55633629D01*
X119955900Y-55846757D01*
X120511661Y-55847242D01*
X121025303Y-55635010D01*
X121418629Y-55242370D01*
X121504949Y-55034488D01*
X121589990Y-55240303D01*
X121982630Y-55633629D01*
X122495900Y-55846757D01*
X123051661Y-55847242D01*
X123565303Y-55635010D01*
X123958629Y-55242370D01*
X124114806Y-54866252D01*
X129187000Y-59938446D01*
X129187000Y-66072730D01*
X129071812Y-66187717D01*
X128845258Y-66733319D01*
X128844743Y-67324089D01*
X128917015Y-67499001D01*
X125718188Y-67499001D01*
X125789742Y-67326681D01*
X125790257Y-66735911D01*
X125564656Y-66189914D01*
X125147283Y-65771812D01*
X124601681Y-65545258D01*
X124436560Y-65545114D01*
X121202223Y-62310777D01*
X120831407Y-62063006D01*
X120394000Y-61976000D01*
X115191000Y-61976000D01*
X114753593Y-62063006D01*
X114382777Y-62310777D01*
X111148669Y-65544885D01*
X110985911Y-65544743D01*
X110439914Y-65770344D01*
X110021812Y-66187717D01*
X109795258Y-66733319D01*
X109794743Y-67324089D01*
X97917000Y-67324089D01*
X97917000Y-43815000D01*
X114690907Y-43815000D01*
X114803946Y-44383285D01*
X115125853Y-44865054D01*
X115607622Y-45186961D01*
X116175907Y-45300000D01*
X116234093Y-45300000D01*
X116802378Y-45186961D01*
X117284147Y-44865054D01*
X117475000Y-44579422D01*
X117665853Y-44865054D01*
X118147622Y-45186961D01*
X118715907Y-45300000D01*
X118774093Y-45300000D01*
X119342378Y-45186961D01*
X119824147Y-44865054D01*
X120146054Y-44383285D01*
X120259093Y-43815000D01*
X120146054Y-43246715D01*
X119824147Y-42764946D01*
X119494974Y-42545000D01*
X119824147Y-42325054D01*
X120146054Y-41843285D01*
X120259093Y-41275000D01*
X120146054Y-40706715D01*
X119824147Y-40224946D01*
X119342378Y-39903039D01*
X118774093Y-39790000D01*
X118715907Y-39790000D01*
X118147622Y-39903039D01*
X117665853Y-40224946D01*
X117665029Y-40226179D01*
X117658162Y-40189683D01*
X117519090Y-39973559D01*
X117306890Y-39828569D01*
X117157500Y-39798317D01*
X117157500Y-35234854D01*
X117218573Y-35223362D01*
X117381383Y-35118596D01*
X117524862Y-35216631D01*
X117554502Y-35222633D01*
X117554502Y-36622817D01*
X117617339Y-36938723D01*
X117796285Y-37206534D01*
X118511466Y-37921714D01*
X118511468Y-37921717D01*
X118779280Y-38100663D01*
X119095185Y-38163500D01*
X119149472Y-38163500D01*
X119184731Y-38198821D01*
X119558018Y-38353824D01*
X119962208Y-38354176D01*
X120335766Y-38199825D01*
X120621821Y-37914269D01*
X120776824Y-37540982D01*
X120777176Y-37136792D01*
X120622825Y-36763234D01*
X120337269Y-36477179D01*
X120269143Y-36448890D01*
X120597208Y-36449176D01*
X120970766Y-36294825D01*
X121256821Y-36009269D01*
X121411824Y-35635982D01*
X121411980Y-35456800D01*
X121566175Y-35829980D01*
X121602500Y-35866368D01*
X121602500Y-39796847D01*
X121469683Y-39821838D01*
X121253559Y-39960910D01*
X121108569Y-40173110D01*
X121057560Y-40425000D01*
X121057560Y-42125000D01*
X121101838Y-42360317D01*
X121240910Y-42576441D01*
X121453110Y-42721431D01*
X121520541Y-42735086D01*
X121475853Y-42764946D01*
X121153946Y-43246715D01*
X121040907Y-43815000D01*
X121153946Y-44383285D01*
X121475853Y-44865054D01*
X121957622Y-45186961D01*
X122525907Y-45300000D01*
X122584093Y-45300000D01*
X123152378Y-45186961D01*
X123634147Y-44865054D01*
X123825000Y-44579422D01*
X124015853Y-44865054D01*
X124497622Y-45186961D01*
X125065907Y-45300000D01*
X125124093Y-45300000D01*
X125692378Y-45186961D01*
X126174147Y-44865054D01*
X126496054Y-44383285D01*
X126609093Y-43815000D01*
X126496054Y-43246715D01*
X126174147Y-42764946D01*
X125844974Y-42545000D01*
X126174147Y-42325054D01*
X126496054Y-41843285D01*
X126609093Y-41275000D01*
X126496054Y-40706715D01*
X126174147Y-40224946D01*
X125692378Y-39903039D01*
X125124093Y-39790000D01*
X125065907Y-39790000D01*
X124497622Y-39903039D01*
X124015853Y-40224946D01*
X124015029Y-40226179D01*
X124008162Y-40189683D01*
X123869090Y-39973559D01*
X123656890Y-39828569D01*
X123507500Y-39798317D01*
X123507500Y-35382214D01*
X123477890Y-35233356D01*
X129451100Y-35233356D01*
X129451100Y-38748600D01*
X129523605Y-39113106D01*
X129730081Y-39422119D01*
X130219807Y-39911845D01*
X130143559Y-39960910D01*
X129998569Y-40173110D01*
X129947560Y-40425000D01*
X129947560Y-42125000D01*
X129991838Y-42360317D01*
X130130910Y-42576441D01*
X130343110Y-42721431D01*
X130410541Y-42735086D01*
X130365853Y-42764946D01*
X130043946Y-43246715D01*
X129930907Y-43815000D01*
X130043946Y-44383285D01*
X130365853Y-44865054D01*
X130847622Y-45186961D01*
X131415907Y-45300000D01*
X131474093Y-45300000D01*
X132042378Y-45186961D01*
X132524147Y-44865054D01*
X132715000Y-44579422D01*
X132905853Y-44865054D01*
X133387622Y-45186961D01*
X133955907Y-45300000D01*
X134014093Y-45300000D01*
X134582378Y-45186961D01*
X135064147Y-44865054D01*
X135386054Y-44383285D01*
X135499093Y-43815000D01*
X135386054Y-43246715D01*
X135064147Y-42764946D01*
X134734974Y-42545000D01*
X135064147Y-42325054D01*
X135386054Y-41843285D01*
X135499093Y-41275000D01*
X135386054Y-40706715D01*
X135064147Y-40224946D01*
X134582378Y-39903039D01*
X134014093Y-39790000D01*
X133955907Y-39790000D01*
X133387622Y-39903039D01*
X132905853Y-40224946D01*
X132905029Y-40226179D01*
X132898162Y-40189683D01*
X132759090Y-39973559D01*
X132546890Y-39828569D01*
X132397500Y-39798317D01*
X132397500Y-39790000D01*
X132324995Y-39425494D01*
X132118519Y-39116481D01*
X131356100Y-38354062D01*
X131356100Y-35627894D01*
X131716354Y-35267640D01*
X132223256Y-35267640D01*
X132458573Y-35223362D01*
X132621383Y-35118596D01*
X132764862Y-35216631D01*
X132794502Y-35222633D01*
X132794502Y-36710498D01*
X132743179Y-36761731D01*
X132588176Y-37135018D01*
X132587824Y-37539208D01*
X132742175Y-37912766D01*
X133027731Y-38198821D01*
X133401018Y-38353824D01*
X133805208Y-38354176D01*
X134178766Y-38199825D01*
X134464821Y-37914269D01*
X134619824Y-37540982D01*
X134620176Y-37136792D01*
X134465825Y-36763234D01*
X134445502Y-36742875D01*
X134445502Y-36589029D01*
X134520181Y-36769766D01*
X134805737Y-37055821D01*
X135179024Y-37210824D01*
X135583214Y-37211176D01*
X135956772Y-37056825D01*
X136242827Y-36771269D01*
X136313992Y-36599885D01*
X136425502Y-36432998D01*
X136499993Y-36321514D01*
X136572498Y-35957008D01*
X136572498Y-35150048D01*
X136618783Y-35120264D01*
X136628515Y-35129996D01*
X136593057Y-35215388D01*
X136592705Y-35619578D01*
X136656381Y-35773686D01*
X136656381Y-39603881D01*
X136700864Y-39827513D01*
X136493559Y-39960910D01*
X136348569Y-40173110D01*
X136297560Y-40425000D01*
X136297560Y-42125000D01*
X136341838Y-42360317D01*
X136480910Y-42576441D01*
X136693110Y-42721431D01*
X136760541Y-42735086D01*
X136715853Y-42764946D01*
X136393946Y-43246715D01*
X136280907Y-43815000D01*
X136393946Y-44383285D01*
X136715853Y-44865054D01*
X137197622Y-45186961D01*
X137765907Y-45300000D01*
X137824093Y-45300000D01*
X138392378Y-45186961D01*
X138874147Y-44865054D01*
X139065000Y-44579422D01*
X139255853Y-44865054D01*
X139737622Y-45186961D01*
X140305907Y-45300000D01*
X140364093Y-45300000D01*
X140932378Y-45186961D01*
X141414147Y-44865054D01*
X141736054Y-44383285D01*
X141849093Y-43815000D01*
X141736054Y-43246715D01*
X141414147Y-42764946D01*
X141084974Y-42545000D01*
X141414147Y-42325054D01*
X141736054Y-41843285D01*
X141849093Y-41275000D01*
X141736054Y-40706715D01*
X141414147Y-40224946D01*
X140932378Y-39903039D01*
X140364093Y-39790000D01*
X140305907Y-39790000D01*
X139737622Y-39903039D01*
X139255853Y-40224946D01*
X139255029Y-40226179D01*
X139248162Y-40189683D01*
X139109090Y-39973559D01*
X138896890Y-39828569D01*
X138747500Y-39798317D01*
X138747500Y-39790000D01*
X138674995Y-39425494D01*
X138561381Y-39255459D01*
X138561381Y-35773852D01*
X138624705Y-35621352D01*
X138625057Y-35217162D01*
X138595600Y-35145870D01*
X138761571Y-34979899D01*
X138858244Y-34746510D01*
X138858244Y-33305750D01*
X138699494Y-33147000D01*
X137746994Y-33147000D01*
X137746994Y-33167000D01*
X137492994Y-33167000D01*
X137492994Y-33147000D01*
X137472994Y-33147000D01*
X137472994Y-32893000D01*
X137492994Y-32893000D01*
X137492994Y-30943550D01*
X137746994Y-30943550D01*
X137746994Y-32893000D01*
X138699494Y-32893000D01*
X138858244Y-32734250D01*
X138858244Y-31293490D01*
X138761571Y-31060101D01*
X138582942Y-30881473D01*
X138349553Y-30784800D01*
X137905744Y-30784800D01*
X137746994Y-30943550D01*
X137492994Y-30943550D01*
X137334244Y-30784800D01*
X136890435Y-30784800D01*
X136657046Y-30881473D01*
X136617725Y-30920794D01*
X136608441Y-30914451D01*
X136651820Y-30809982D01*
X136652172Y-30405792D01*
X136497821Y-30032234D01*
X136212265Y-29746179D01*
X135838978Y-29591176D01*
X135434788Y-29590824D01*
X135061230Y-29745175D01*
X135022052Y-29784285D01*
X134720146Y-29844337D01*
X134452335Y-30023283D01*
X133703258Y-30772360D01*
X133016752Y-30772360D01*
X132781435Y-30816638D01*
X132618625Y-30921404D01*
X132475146Y-30823369D01*
X132223256Y-30772360D01*
X131016756Y-30772360D01*
X130781439Y-30816638D01*
X130565315Y-30955710D01*
X130420325Y-31167910D01*
X130369316Y-31419800D01*
X130369316Y-33920602D01*
X129730081Y-34559837D01*
X129523605Y-34868850D01*
X129451100Y-35233356D01*
X123477890Y-35233356D01*
X123444167Y-35063821D01*
X123444173Y-35057296D01*
X123521571Y-34979899D01*
X123618244Y-34746510D01*
X123618244Y-33305750D01*
X123459494Y-33147000D01*
X122506994Y-33147000D01*
X122506994Y-33167000D01*
X122252994Y-33167000D01*
X122252994Y-33147000D01*
X122232994Y-33147000D01*
X122232994Y-32893000D01*
X122252994Y-32893000D01*
X122252994Y-30943550D01*
X122506994Y-30943550D01*
X122506994Y-32893000D01*
X123459494Y-32893000D01*
X123618244Y-32734250D01*
X123618244Y-31293490D01*
X123521571Y-31060101D01*
X123342942Y-30881473D01*
X123109553Y-30784800D01*
X122665744Y-30784800D01*
X122506994Y-30943550D01*
X122252994Y-30943550D01*
X122094244Y-30784800D01*
X121650435Y-30784800D01*
X121417046Y-30881473D01*
X121377725Y-30920794D01*
X121320074Y-30881404D01*
X121395822Y-30698984D01*
X121396174Y-30294794D01*
X121241823Y-29921236D01*
X120956267Y-29635181D01*
X120582980Y-29480178D01*
X120178790Y-29479826D01*
X120024682Y-29543502D01*
X118668800Y-29543502D01*
X118304294Y-29616007D01*
X117995281Y-29822483D01*
X117706483Y-30111281D01*
X117500007Y-30420294D01*
X117427502Y-30784800D01*
X117427502Y-30889952D01*
X117378625Y-30921404D01*
X117235146Y-30823369D01*
X116983256Y-30772360D01*
X115776756Y-30772360D01*
X115541439Y-30816638D01*
X115325315Y-30955710D01*
X115180325Y-31167910D01*
X115129316Y-31419800D01*
X115129316Y-34620200D01*
X115173594Y-34855517D01*
X115252500Y-34978140D01*
X115252500Y-39796847D01*
X115119683Y-39821838D01*
X114903559Y-39960910D01*
X114758569Y-40173110D01*
X114707560Y-40425000D01*
X114707560Y-42125000D01*
X114751838Y-42360317D01*
X114890910Y-42576441D01*
X115103110Y-42721431D01*
X115170541Y-42735086D01*
X115125853Y-42764946D01*
X114803946Y-43246715D01*
X114690907Y-43815000D01*
X97917000Y-43815000D01*
X97917000Y-29679923D01*
X98789811Y-30554259D01*
X100198825Y-31139333D01*
X101724482Y-31140664D01*
X103134515Y-30558050D01*
X104214259Y-29480189D01*
X104799333Y-28071175D01*
X104800664Y-26545518D01*
X104218050Y-25135485D01*
X103341097Y-24257000D01*
X112182535Y-24257000D01*
X112182535Y-29500322D01*
M02*
