G04 #@! TF.FileFunction,Copper,L1,Top,Signal*
%FSLAX46Y46*%
G04 Gerber Fmt 4.6, Leading zero omitted, Abs format (unit mm)*
G04 Created by KiCad (PCBNEW 4.0.6) date Saturday, February 10, 2018 'AMt' 10:41:33 AM*
%MOMM*%
%LPD*%
G01*
G04 APERTURE LIST*
%ADD10C,0.100000*%
%ADD11C,1.524000*%
%ADD12R,1.800000X1.800000*%
%ADD13C,1.800000*%
%ADD14R,2.200000X2.200000*%
%ADD15O,2.200000X2.200000*%
%ADD16R,1.206500X3.200400*%
%ADD17R,1.700022X5.299964*%
%ADD18R,1.700000X1.700000*%
%ADD19O,1.700000X1.700000*%
%ADD20C,1.600000*%
%ADD21O,1.600000X1.600000*%
%ADD22C,6.400000*%
%ADD23C,1.520000*%
%ADD24R,1.520000X1.520000*%
%ADD25C,1.700000*%
%ADD26C,3.556000*%
%ADD27C,0.762000*%
%ADD28C,1.016000*%
%ADD29C,0.635000*%
%ADD30C,0.381000*%
%ADD31C,1.905000*%
%ADD32C,0.254000*%
G04 APERTURE END LIST*
D10*
D11*
X127855000Y-49370000D03*
X122775000Y-49370000D03*
X120235000Y-49370000D03*
X117695000Y-49370000D03*
X117695000Y-54450000D03*
X120235000Y-54450000D03*
X122775000Y-54450000D03*
X127855000Y-54450000D03*
D12*
X174625000Y-54610000D03*
D13*
X172085000Y-54610000D03*
D14*
X139700000Y-48260000D03*
D15*
X139700000Y-55880000D03*
D16*
X122379994Y-33020000D03*
X120379998Y-33020000D03*
X118380002Y-33020000D03*
X116380006Y-33020000D03*
D17*
X125080014Y-26850340D03*
X113679986Y-26850340D03*
D16*
X137619994Y-33020000D03*
X135619998Y-33020000D03*
X133620002Y-33020000D03*
X131620006Y-33020000D03*
D17*
X140320014Y-26850340D03*
X128919986Y-26850340D03*
D16*
X152859994Y-33020000D03*
X150859998Y-33020000D03*
X148860002Y-33020000D03*
X146860006Y-33020000D03*
D17*
X155560014Y-26850340D03*
X144159986Y-26850340D03*
D16*
X168099994Y-33020000D03*
X166099998Y-33020000D03*
X164100002Y-33020000D03*
X162100006Y-33020000D03*
D17*
X170800014Y-26850340D03*
X159399986Y-26850340D03*
D16*
X183339994Y-33020000D03*
X181339998Y-33020000D03*
X179340002Y-33020000D03*
X177340006Y-33020000D03*
D17*
X186040014Y-26850340D03*
X174639986Y-26850340D03*
D18*
X116205000Y-41275000D03*
D19*
X118745000Y-41275000D03*
X116205000Y-43815000D03*
X118745000Y-43815000D03*
D18*
X131445000Y-41275000D03*
D19*
X133985000Y-41275000D03*
X131445000Y-43815000D03*
X133985000Y-43815000D03*
D18*
X146685000Y-41275000D03*
D19*
X149225000Y-41275000D03*
X146685000Y-43815000D03*
X149225000Y-43815000D03*
D18*
X161925000Y-41275000D03*
D19*
X164465000Y-41275000D03*
X161925000Y-43815000D03*
X164465000Y-43815000D03*
D18*
X175260000Y-41275000D03*
D19*
X177800000Y-41275000D03*
X175260000Y-43815000D03*
X177800000Y-43815000D03*
D18*
X122555000Y-41275000D03*
D19*
X125095000Y-41275000D03*
X122555000Y-43815000D03*
X125095000Y-43815000D03*
D18*
X137795000Y-41275000D03*
D19*
X140335000Y-41275000D03*
X137795000Y-43815000D03*
X140335000Y-43815000D03*
D18*
X153035000Y-41275000D03*
D19*
X155575000Y-41275000D03*
X153035000Y-43815000D03*
X155575000Y-43815000D03*
D18*
X168275000Y-41275000D03*
D19*
X170815000Y-41275000D03*
X168275000Y-43815000D03*
X170815000Y-43815000D03*
D20*
X167005000Y-48260000D03*
D21*
X167005000Y-55880000D03*
D20*
X146685000Y-48260000D03*
D21*
X146685000Y-55880000D03*
D20*
X160655000Y-55880000D03*
D21*
X160655000Y-48260000D03*
D20*
X153670000Y-55880000D03*
D21*
X153670000Y-48260000D03*
D11*
X191770000Y-41275000D03*
X189230000Y-41275000D03*
X186690000Y-41275000D03*
X184150000Y-41275000D03*
X181610000Y-41275000D03*
D22*
X107315000Y-35560000D03*
X191770000Y-35560000D03*
X107315000Y-74930000D03*
X191770000Y-74930000D03*
D23*
X133350000Y-53340000D03*
X133350000Y-55880000D03*
D24*
X133350000Y-50800000D03*
D25*
X153952000Y-67030000D03*
X157452000Y-67030000D03*
D26*
X155692000Y-74860000D03*
D25*
X173002000Y-67030000D03*
X176502000Y-67030000D03*
D26*
X174742000Y-74860000D03*
D25*
X115852000Y-67030000D03*
X119352000Y-67030000D03*
D26*
X117592000Y-74860000D03*
D25*
X125377000Y-67030000D03*
X128877000Y-67030000D03*
D26*
X127117000Y-74860000D03*
D25*
X134902000Y-67030000D03*
X138402000Y-67030000D03*
D26*
X136642000Y-74860000D03*
D25*
X163477000Y-67030000D03*
X166977000Y-67030000D03*
D26*
X165217000Y-74860000D03*
D25*
X182527000Y-67030000D03*
X186027000Y-67030000D03*
D26*
X184267000Y-74860000D03*
D25*
X148117000Y-64230000D03*
X144617000Y-67230000D03*
X148117000Y-67230000D03*
X144617000Y-64230000D03*
D26*
X146357000Y-75160000D03*
D27*
X186817010Y-38353990D03*
X169799000Y-38354002D03*
X139319000Y-38227000D03*
X124460000Y-38354006D03*
X169799000Y-33401000D03*
X154432000Y-33274000D03*
X154432000Y-38354000D03*
X139065000Y-33274000D03*
X150876000Y-29972000D03*
X135382006Y-36195000D03*
X120396000Y-35433000D03*
X150876000Y-36449000D03*
X166243000Y-36322000D03*
X181356000Y-36195000D03*
X148844000Y-35814000D03*
X148832924Y-37465011D03*
X133604000Y-37338000D03*
X164211000Y-37338000D03*
X119761000Y-37338000D03*
X135635996Y-30607000D03*
X165989000Y-30353000D03*
X179832000Y-37211000D03*
X120379998Y-30496002D03*
X122428000Y-35255214D03*
X137608881Y-35418370D03*
X153034579Y-35496490D03*
X168098889Y-35369490D03*
D28*
X187706000Y-70866000D02*
X189230000Y-69342000D01*
X189230000Y-69342000D02*
X189230000Y-41275000D01*
X186363000Y-70866000D02*
X187706000Y-70866000D01*
X182527000Y-67030000D02*
X186363000Y-70866000D01*
X189230000Y-41275000D02*
X189230000Y-40766980D01*
X189230000Y-40766980D02*
X186817010Y-38353990D01*
D29*
X183339994Y-33020000D02*
X183339994Y-34622994D01*
X183339994Y-34622994D02*
X188914370Y-40197370D01*
X188914370Y-40197370D02*
X189230000Y-40197370D01*
X189230000Y-40197370D02*
X189230000Y-41275000D01*
D28*
X133350000Y-50800000D02*
X135217762Y-50800000D01*
X135217762Y-50800000D02*
X135882001Y-51464239D01*
X135882001Y-51464239D02*
X135882001Y-58158001D01*
X135882001Y-58158001D02*
X142045001Y-58158001D01*
X142045001Y-58158001D02*
X148117000Y-64230000D01*
D29*
X169799000Y-34290000D02*
X169799000Y-38354002D01*
X122379994Y-33020000D02*
X123618244Y-33020000D01*
X124460000Y-33861756D02*
X124460000Y-37815191D01*
X123618244Y-33020000D02*
X124460000Y-33861756D01*
X124460000Y-37815191D02*
X124460000Y-38354006D01*
X139319000Y-37688185D02*
X139319000Y-38227000D01*
X139319000Y-33909000D02*
X139319000Y-37688185D01*
X139065000Y-33655000D02*
X139319000Y-33909000D01*
D30*
X169799000Y-33939815D02*
X169799000Y-33401000D01*
X169799000Y-34290000D02*
X169799000Y-33939815D01*
X154432000Y-33909000D02*
X154432000Y-33274000D01*
D29*
X169799000Y-33480756D02*
X169799000Y-34290000D01*
X154432000Y-33353756D02*
X154432000Y-33909000D01*
X154432000Y-33909000D02*
X154432000Y-38354000D01*
X152859994Y-33020000D02*
X154098244Y-33020000D01*
X154098244Y-33020000D02*
X154432000Y-33353756D01*
X168099994Y-33020000D02*
X169338244Y-33020000D01*
X169338244Y-33020000D02*
X169799000Y-33480756D01*
X139065000Y-33226756D02*
X139065000Y-33655000D01*
X139065000Y-33274000D02*
X139065000Y-33655000D01*
X137619994Y-33020000D02*
X138858244Y-33020000D01*
X138858244Y-33020000D02*
X139065000Y-33226756D01*
D28*
X135620398Y-47752000D02*
X129473000Y-47752000D01*
X129473000Y-47752000D02*
X127855000Y-49370000D01*
X146685000Y-55880000D02*
X143748398Y-55880000D01*
X143748398Y-55880000D02*
X135620398Y-47752000D01*
X134902000Y-67030000D02*
X134902000Y-64037000D01*
X134902000Y-64037000D02*
X130330000Y-59465000D01*
X130330000Y-59465000D02*
X120235000Y-49370000D01*
X117695000Y-49370000D02*
X119219001Y-47845999D01*
X123660999Y-48000477D02*
X129971800Y-54311278D01*
X129971800Y-54311278D02*
X129971800Y-55714900D01*
X119219001Y-47845999D02*
X123660999Y-47845999D01*
X123660999Y-47845999D02*
X123660999Y-48000477D01*
X129971800Y-55714900D02*
X138486900Y-64230000D01*
X138486900Y-64230000D02*
X144617000Y-64230000D01*
X174625000Y-54610000D02*
X176541000Y-54610000D01*
X176541000Y-54610000D02*
X181610000Y-49541000D01*
X181610000Y-49541000D02*
X181610000Y-42352630D01*
X181610000Y-42352630D02*
X181610000Y-41275000D01*
X167005000Y-55880000D02*
X170815000Y-55880000D01*
X170815000Y-55880000D02*
X172085000Y-54610000D01*
X153952000Y-67030000D02*
X153952000Y-65827919D01*
X153952000Y-65827919D02*
X149380000Y-61255919D01*
X149380000Y-61255919D02*
X149380000Y-50955000D01*
D31*
X186027000Y-67030000D02*
X186027000Y-41938000D01*
X186027000Y-41938000D02*
X186690000Y-41275000D01*
D28*
X146685000Y-48260000D02*
X139700000Y-48260000D01*
X146685000Y-48260000D02*
X146685000Y-46355000D01*
X146685000Y-46355000D02*
X149225000Y-43815000D01*
X149380000Y-50955000D02*
X146685000Y-48260000D01*
D29*
X150876000Y-29972000D02*
X150876000Y-33003998D01*
X150876000Y-33003998D02*
X150859998Y-33020000D01*
X135619998Y-35957008D02*
X135382006Y-36195000D01*
X135619998Y-33020000D02*
X135619998Y-35957008D01*
X120379998Y-35416998D02*
X120396000Y-35433000D01*
X120379998Y-33020000D02*
X120379998Y-35416998D01*
X150859998Y-33020000D02*
X150859998Y-36432998D01*
X150859998Y-36432998D02*
X150876000Y-36449000D01*
X166099998Y-36178998D02*
X166243000Y-36322000D01*
X166099998Y-33020000D02*
X166099998Y-36178998D01*
D30*
X181356000Y-35017202D02*
X181356000Y-36195000D01*
X181339998Y-33020000D02*
X181339998Y-35001200D01*
X181339998Y-35001200D02*
X181356000Y-35017202D01*
D29*
X148832924Y-35825076D02*
X148844000Y-35814000D01*
X148832924Y-37465011D02*
X148832924Y-35825076D01*
X148860002Y-35797998D02*
X148844000Y-35814000D01*
X148860002Y-33020000D02*
X148860002Y-35797998D01*
X148844000Y-35271202D02*
X148844000Y-35814000D01*
D30*
X133620002Y-37321998D02*
X133604000Y-37338000D01*
X133620002Y-33020000D02*
X133620002Y-37321998D01*
D29*
X164100002Y-37227002D02*
X164211000Y-37338000D01*
X164100002Y-33020000D02*
X164100002Y-37227002D01*
D30*
X118380002Y-33020000D02*
X118380002Y-36622817D01*
X119095185Y-37338000D02*
X119222185Y-37338000D01*
X118380002Y-36622817D02*
X119095185Y-37338000D01*
X119222185Y-37338000D02*
X119761000Y-37338000D01*
X135097181Y-30607000D02*
X135635996Y-30607000D01*
X135036052Y-30607000D02*
X135097181Y-30607000D01*
X133620002Y-32023050D02*
X135036052Y-30607000D01*
X133620002Y-33020000D02*
X133620002Y-32023050D01*
D29*
X164531802Y-30353000D02*
X165989000Y-30353000D01*
X164100002Y-33020000D02*
X164100002Y-30784800D01*
X164100002Y-30784800D02*
X164531802Y-30353000D01*
D30*
X179832000Y-37211000D02*
X179832000Y-33511998D01*
X179832000Y-33511998D02*
X179340002Y-33020000D01*
D29*
X120379998Y-30496002D02*
X118668800Y-30496002D01*
X118668800Y-30496002D02*
X118380002Y-30784800D01*
X118380002Y-30784800D02*
X118380002Y-33020000D01*
X116205000Y-41275000D02*
X116205000Y-43815000D01*
X116205000Y-41275000D02*
X116205000Y-33195006D01*
X116205000Y-33195006D02*
X116380006Y-33020000D01*
X131445000Y-41275000D02*
X131445000Y-39790000D01*
X131445000Y-39790000D02*
X130403600Y-38748600D01*
X130403600Y-38748600D02*
X130403600Y-35233356D01*
X130403600Y-35233356D02*
X131620006Y-34016950D01*
X131620006Y-34016950D02*
X131620006Y-33020000D01*
X131445000Y-41275000D02*
X131445000Y-43815000D01*
X146685000Y-41275000D02*
X146685000Y-43815000D01*
X146685000Y-41275000D02*
X146685000Y-33195006D01*
X146685000Y-33195006D02*
X146860006Y-33020000D01*
X161925000Y-41275000D02*
X161925000Y-43815000D01*
X161925000Y-41275000D02*
X161925000Y-33195006D01*
X161925000Y-33195006D02*
X162100006Y-33020000D01*
X176387504Y-33972502D02*
X177340006Y-33020000D01*
X175260000Y-35100006D02*
X176387504Y-33972502D01*
X175260000Y-41275000D02*
X175260000Y-35100006D01*
X175260000Y-41275000D02*
X175260000Y-43815000D01*
X122555000Y-41275000D02*
X122555000Y-35382214D01*
X122555000Y-35382214D02*
X122428000Y-35255214D01*
X122555000Y-41275000D02*
X122555000Y-43815000D01*
X137608881Y-35957185D02*
X137608881Y-35418370D01*
X137608881Y-39603881D02*
X137608881Y-35957185D01*
X137795000Y-39790000D02*
X137608881Y-39603881D01*
X137795000Y-41275000D02*
X137795000Y-39790000D01*
X153035000Y-35496911D02*
X153034579Y-35496490D01*
X153035000Y-41275000D02*
X153035000Y-35496911D01*
X153035000Y-41275000D02*
X153035000Y-43815000D01*
X168275000Y-35545601D02*
X168098889Y-35369490D01*
X168275000Y-41275000D02*
X168275000Y-35545601D01*
X168275000Y-41275000D02*
X168275000Y-43815000D01*
D28*
X125377000Y-67030000D02*
X126989001Y-68642001D01*
X126989001Y-68642001D02*
X136789999Y-68642001D01*
X136789999Y-68642001D02*
X137552001Y-67879999D01*
X137552001Y-67879999D02*
X138402000Y-67030000D01*
X115852000Y-67030000D02*
X119763000Y-63119000D01*
X119763000Y-63119000D02*
X124966000Y-63119000D01*
X124966000Y-63119000D02*
X128027001Y-66180001D01*
X128027001Y-66180001D02*
X128877000Y-67030000D01*
X174889999Y-61859999D02*
X166634999Y-61859999D01*
X166634999Y-61859999D02*
X160655000Y-55880000D01*
X176502000Y-67030000D02*
X174889999Y-65417999D01*
X174889999Y-65417999D02*
X174889999Y-61859999D01*
X160780000Y-55880000D02*
X160655000Y-55880000D01*
X157452000Y-67030000D02*
X157452000Y-59662000D01*
X157452000Y-59662000D02*
X153670000Y-55880000D01*
D32*
G36*
X112182535Y-29500322D02*
X112226813Y-29735639D01*
X112365885Y-29951763D01*
X112578085Y-30096753D01*
X112829975Y-30147762D01*
X114529997Y-30147762D01*
X114765314Y-30103484D01*
X114981438Y-29964412D01*
X115126428Y-29752212D01*
X115177437Y-29500322D01*
X115177437Y-24257000D01*
X123582563Y-24257000D01*
X123582563Y-29500322D01*
X123626841Y-29735639D01*
X123765913Y-29951763D01*
X123978113Y-30096753D01*
X124230003Y-30147762D01*
X125930025Y-30147762D01*
X126165342Y-30103484D01*
X126381466Y-29964412D01*
X126526456Y-29752212D01*
X126577465Y-29500322D01*
X126577465Y-24257000D01*
X127422535Y-24257000D01*
X127422535Y-29500322D01*
X127466813Y-29735639D01*
X127605885Y-29951763D01*
X127818085Y-30096753D01*
X128069975Y-30147762D01*
X129769997Y-30147762D01*
X130005314Y-30103484D01*
X130221438Y-29964412D01*
X130366428Y-29752212D01*
X130417437Y-29500322D01*
X130417437Y-24257000D01*
X138822563Y-24257000D01*
X138822563Y-29500322D01*
X138866841Y-29735639D01*
X139005913Y-29951763D01*
X139218113Y-30096753D01*
X139470003Y-30147762D01*
X141170025Y-30147762D01*
X141405342Y-30103484D01*
X141621466Y-29964412D01*
X141766456Y-29752212D01*
X141817465Y-29500322D01*
X141817465Y-24257000D01*
X142662535Y-24257000D01*
X142662535Y-29500322D01*
X142706813Y-29735639D01*
X142845885Y-29951763D01*
X143058085Y-30096753D01*
X143309975Y-30147762D01*
X145009997Y-30147762D01*
X145245314Y-30103484D01*
X145461438Y-29964412D01*
X145606428Y-29752212D01*
X145657437Y-29500322D01*
X145657437Y-24257000D01*
X154062563Y-24257000D01*
X154062563Y-29500322D01*
X154106841Y-29735639D01*
X154245913Y-29951763D01*
X154458113Y-30096753D01*
X154710003Y-30147762D01*
X156410025Y-30147762D01*
X156645342Y-30103484D01*
X156861466Y-29964412D01*
X157006456Y-29752212D01*
X157057465Y-29500322D01*
X157057465Y-24257000D01*
X157902535Y-24257000D01*
X157902535Y-29500322D01*
X157946813Y-29735639D01*
X158085885Y-29951763D01*
X158298085Y-30096753D01*
X158549975Y-30147762D01*
X160249997Y-30147762D01*
X160485314Y-30103484D01*
X160701438Y-29964412D01*
X160846428Y-29752212D01*
X160897437Y-29500322D01*
X160897437Y-24257000D01*
X169302563Y-24257000D01*
X169302563Y-29500322D01*
X169346841Y-29735639D01*
X169485913Y-29951763D01*
X169698113Y-30096753D01*
X169950003Y-30147762D01*
X171650025Y-30147762D01*
X171885342Y-30103484D01*
X172101466Y-29964412D01*
X172246456Y-29752212D01*
X172297465Y-29500322D01*
X172297465Y-24257000D01*
X173142535Y-24257000D01*
X173142535Y-29500322D01*
X173186813Y-29735639D01*
X173325885Y-29951763D01*
X173538085Y-30096753D01*
X173789975Y-30147762D01*
X175489997Y-30147762D01*
X175725314Y-30103484D01*
X175941438Y-29964412D01*
X176086428Y-29752212D01*
X176137437Y-29500322D01*
X176137437Y-24257000D01*
X184542563Y-24257000D01*
X184542563Y-29500322D01*
X184586841Y-29735639D01*
X184725913Y-29951763D01*
X184938113Y-30096753D01*
X185190003Y-30147762D01*
X186890025Y-30147762D01*
X187125342Y-30103484D01*
X187341466Y-29964412D01*
X187486456Y-29752212D01*
X187537465Y-29500322D01*
X187537465Y-24257000D01*
X194362000Y-24257000D01*
X194362000Y-32728280D01*
X193945189Y-32310741D01*
X192536175Y-31725667D01*
X191010518Y-31724336D01*
X189600485Y-32306950D01*
X188520741Y-33384811D01*
X187935667Y-34793825D01*
X187934336Y-36319482D01*
X188516950Y-37729515D01*
X189594811Y-38809259D01*
X191003825Y-39394333D01*
X192529482Y-39395664D01*
X193939515Y-38813050D01*
X194362000Y-38391302D01*
X194362000Y-72098280D01*
X193945189Y-71680741D01*
X192536175Y-71095667D01*
X191010518Y-71094336D01*
X189600485Y-71676950D01*
X188520741Y-72754811D01*
X187935667Y-74163825D01*
X187934336Y-75689482D01*
X188516950Y-77099515D01*
X189594811Y-78179259D01*
X190639375Y-78613000D01*
X108443957Y-78613000D01*
X109484515Y-78183050D01*
X110564259Y-77105189D01*
X111149333Y-75696175D01*
X111149645Y-75337870D01*
X115178583Y-75337870D01*
X115545166Y-76225069D01*
X116223361Y-76904449D01*
X117109919Y-77272580D01*
X118069870Y-77273417D01*
X118957069Y-76906834D01*
X119636449Y-76228639D01*
X120004580Y-75342081D01*
X120004583Y-75337870D01*
X124703583Y-75337870D01*
X125070166Y-76225069D01*
X125748361Y-76904449D01*
X126634919Y-77272580D01*
X127594870Y-77273417D01*
X128482069Y-76906834D01*
X129161449Y-76228639D01*
X129529580Y-75342081D01*
X129529583Y-75337870D01*
X134228583Y-75337870D01*
X134595166Y-76225069D01*
X135273361Y-76904449D01*
X136159919Y-77272580D01*
X137119870Y-77273417D01*
X138007069Y-76906834D01*
X138686449Y-76228639D01*
X138931757Y-75637870D01*
X143943583Y-75637870D01*
X144310166Y-76525069D01*
X144988361Y-77204449D01*
X145874919Y-77572580D01*
X146834870Y-77573417D01*
X147722069Y-77206834D01*
X148401449Y-76528639D01*
X148769580Y-75642081D01*
X148769845Y-75337870D01*
X153278583Y-75337870D01*
X153645166Y-76225069D01*
X154323361Y-76904449D01*
X155209919Y-77272580D01*
X156169870Y-77273417D01*
X157057069Y-76906834D01*
X157736449Y-76228639D01*
X158104580Y-75342081D01*
X158104583Y-75337870D01*
X162803583Y-75337870D01*
X163170166Y-76225069D01*
X163848361Y-76904449D01*
X164734919Y-77272580D01*
X165694870Y-77273417D01*
X166582069Y-76906834D01*
X167261449Y-76228639D01*
X167629580Y-75342081D01*
X167629583Y-75337870D01*
X172328583Y-75337870D01*
X172695166Y-76225069D01*
X173373361Y-76904449D01*
X174259919Y-77272580D01*
X175219870Y-77273417D01*
X176107069Y-76906834D01*
X176786449Y-76228639D01*
X177154580Y-75342081D01*
X177154583Y-75337870D01*
X181853583Y-75337870D01*
X182220166Y-76225069D01*
X182898361Y-76904449D01*
X183784919Y-77272580D01*
X184744870Y-77273417D01*
X185632069Y-76906834D01*
X186311449Y-76228639D01*
X186679580Y-75342081D01*
X186680417Y-74382130D01*
X186313834Y-73494931D01*
X185635639Y-72815551D01*
X184749081Y-72447420D01*
X183789130Y-72446583D01*
X182901931Y-72813166D01*
X182222551Y-73491361D01*
X181854420Y-74377919D01*
X181853583Y-75337870D01*
X177154583Y-75337870D01*
X177155417Y-74382130D01*
X176788834Y-73494931D01*
X176110639Y-72815551D01*
X175224081Y-72447420D01*
X174264130Y-72446583D01*
X173376931Y-72813166D01*
X172697551Y-73491361D01*
X172329420Y-74377919D01*
X172328583Y-75337870D01*
X167629583Y-75337870D01*
X167630417Y-74382130D01*
X167263834Y-73494931D01*
X166585639Y-72815551D01*
X165699081Y-72447420D01*
X164739130Y-72446583D01*
X163851931Y-72813166D01*
X163172551Y-73491361D01*
X162804420Y-74377919D01*
X162803583Y-75337870D01*
X158104583Y-75337870D01*
X158105417Y-74382130D01*
X157738834Y-73494931D01*
X157060639Y-72815551D01*
X156174081Y-72447420D01*
X155214130Y-72446583D01*
X154326931Y-72813166D01*
X153647551Y-73491361D01*
X153279420Y-74377919D01*
X153278583Y-75337870D01*
X148769845Y-75337870D01*
X148770417Y-74682130D01*
X148403834Y-73794931D01*
X147725639Y-73115551D01*
X146839081Y-72747420D01*
X145879130Y-72746583D01*
X144991931Y-73113166D01*
X144312551Y-73791361D01*
X143944420Y-74677919D01*
X143943583Y-75637870D01*
X138931757Y-75637870D01*
X139054580Y-75342081D01*
X139055417Y-74382130D01*
X138688834Y-73494931D01*
X138010639Y-72815551D01*
X137124081Y-72447420D01*
X136164130Y-72446583D01*
X135276931Y-72813166D01*
X134597551Y-73491361D01*
X134229420Y-74377919D01*
X134228583Y-75337870D01*
X129529583Y-75337870D01*
X129530417Y-74382130D01*
X129163834Y-73494931D01*
X128485639Y-72815551D01*
X127599081Y-72447420D01*
X126639130Y-72446583D01*
X125751931Y-72813166D01*
X125072551Y-73491361D01*
X124704420Y-74377919D01*
X124703583Y-75337870D01*
X120004583Y-75337870D01*
X120005417Y-74382130D01*
X119638834Y-73494931D01*
X118960639Y-72815551D01*
X118074081Y-72447420D01*
X117114130Y-72446583D01*
X116226931Y-72813166D01*
X115547551Y-73491361D01*
X115179420Y-74377919D01*
X115178583Y-75337870D01*
X111149645Y-75337870D01*
X111150664Y-74170518D01*
X110568050Y-72760485D01*
X109490189Y-71680741D01*
X108081175Y-71095667D01*
X106555518Y-71094336D01*
X105145485Y-71676950D01*
X104342000Y-72479034D01*
X104342000Y-67324089D01*
X114366743Y-67324089D01*
X114592344Y-67870086D01*
X115009717Y-68288188D01*
X115555319Y-68514742D01*
X116146089Y-68515257D01*
X116692086Y-68289656D01*
X117110188Y-67872283D01*
X117336742Y-67326681D01*
X117336886Y-67161560D01*
X117939781Y-66558665D01*
X117867258Y-66733319D01*
X117866743Y-67324089D01*
X118092344Y-67870086D01*
X118509717Y-68288188D01*
X119055319Y-68514742D01*
X119646089Y-68515257D01*
X120192086Y-68289656D01*
X120610188Y-67872283D01*
X120836742Y-67326681D01*
X120837257Y-66735911D01*
X120611656Y-66189914D01*
X120194283Y-65771812D01*
X119648681Y-65545258D01*
X119057911Y-65544743D01*
X118880327Y-65618119D01*
X120236446Y-64262000D01*
X124492554Y-64262000D01*
X125848335Y-65617781D01*
X125673681Y-65545258D01*
X125082911Y-65544743D01*
X124536914Y-65770344D01*
X124118812Y-66187717D01*
X123892258Y-66733319D01*
X123891743Y-67324089D01*
X124117344Y-67870086D01*
X124534717Y-68288188D01*
X125080319Y-68514742D01*
X125245440Y-68514886D01*
X126180778Y-69450224D01*
X126551594Y-69697995D01*
X126989001Y-69785001D01*
X136789999Y-69785001D01*
X137227406Y-69697995D01*
X137598222Y-69450224D01*
X138533331Y-68515115D01*
X138696089Y-68515257D01*
X139242086Y-68289656D01*
X139660188Y-67872283D01*
X139804770Y-67524089D01*
X143131743Y-67524089D01*
X143357344Y-68070086D01*
X143774717Y-68488188D01*
X144320319Y-68714742D01*
X144911089Y-68715257D01*
X145457086Y-68489656D01*
X145673160Y-68273958D01*
X147252647Y-68273958D01*
X147332920Y-68525259D01*
X147888279Y-68726718D01*
X148478458Y-68700315D01*
X148901080Y-68525259D01*
X148981353Y-68273958D01*
X148117000Y-67409605D01*
X147252647Y-68273958D01*
X145673160Y-68273958D01*
X145875188Y-68072283D01*
X146101742Y-67526681D01*
X146102200Y-67001279D01*
X146620282Y-67001279D01*
X146646685Y-67591458D01*
X146821741Y-68014080D01*
X147073042Y-68094353D01*
X147937395Y-67230000D01*
X148296605Y-67230000D01*
X149160958Y-68094353D01*
X149412259Y-68014080D01*
X149613718Y-67458721D01*
X149587315Y-66868542D01*
X149412259Y-66445920D01*
X149160958Y-66365647D01*
X148296605Y-67230000D01*
X147937395Y-67230000D01*
X147073042Y-66365647D01*
X146821741Y-66445920D01*
X146620282Y-67001279D01*
X146102200Y-67001279D01*
X146102257Y-66935911D01*
X145876656Y-66389914D01*
X145673140Y-66186042D01*
X147252647Y-66186042D01*
X148117000Y-67050395D01*
X148981353Y-66186042D01*
X148901080Y-65934741D01*
X148345721Y-65733282D01*
X147755542Y-65759685D01*
X147332920Y-65934741D01*
X147252647Y-66186042D01*
X145673140Y-66186042D01*
X145459283Y-65971812D01*
X144913681Y-65745258D01*
X144322911Y-65744743D01*
X143776914Y-65970344D01*
X143358812Y-66387717D01*
X143132258Y-66933319D01*
X143131743Y-67524089D01*
X139804770Y-67524089D01*
X139886742Y-67326681D01*
X139887257Y-66735911D01*
X139661656Y-66189914D01*
X139244283Y-65771812D01*
X138698681Y-65545258D01*
X138107911Y-65544743D01*
X137561914Y-65770344D01*
X137143812Y-66187717D01*
X136917258Y-66733319D01*
X136917114Y-66898440D01*
X136316553Y-67499001D01*
X136315188Y-67499001D01*
X136386742Y-67326681D01*
X136387257Y-66735911D01*
X136161656Y-66189914D01*
X136045000Y-66073054D01*
X136045000Y-64037000D01*
X135957994Y-63599593D01*
X135710223Y-63228777D01*
X128271081Y-55789635D01*
X128645303Y-55635010D01*
X128828800Y-55451833D01*
X128828800Y-55714900D01*
X128915806Y-56152307D01*
X129163577Y-56523123D01*
X137678677Y-65038223D01*
X138049493Y-65285994D01*
X138486900Y-65373000D01*
X143659730Y-65373000D01*
X143774717Y-65488188D01*
X144320319Y-65714742D01*
X144911089Y-65715257D01*
X145457086Y-65489656D01*
X145673160Y-65273958D01*
X147252647Y-65273958D01*
X147332920Y-65525259D01*
X147888279Y-65726718D01*
X148478458Y-65700315D01*
X148901080Y-65525259D01*
X148981353Y-65273958D01*
X148117000Y-64409605D01*
X147252647Y-65273958D01*
X145673160Y-65273958D01*
X145875188Y-65072283D01*
X146101742Y-64526681D01*
X146102200Y-64001279D01*
X146620282Y-64001279D01*
X146646685Y-64591458D01*
X146821741Y-65014080D01*
X147073042Y-65094353D01*
X147937395Y-64230000D01*
X148296605Y-64230000D01*
X149160958Y-65094353D01*
X149412259Y-65014080D01*
X149613718Y-64458721D01*
X149587315Y-63868542D01*
X149412259Y-63445920D01*
X149160958Y-63365647D01*
X148296605Y-64230000D01*
X147937395Y-64230000D01*
X147073042Y-63365647D01*
X146821741Y-63445920D01*
X146620282Y-64001279D01*
X146102200Y-64001279D01*
X146102257Y-63935911D01*
X145876656Y-63389914D01*
X145673140Y-63186042D01*
X147252647Y-63186042D01*
X148117000Y-64050395D01*
X148981353Y-63186042D01*
X148901080Y-62934741D01*
X148345721Y-62733282D01*
X147755542Y-62759685D01*
X147332920Y-62934741D01*
X147252647Y-63186042D01*
X145673140Y-63186042D01*
X145459283Y-62971812D01*
X144913681Y-62745258D01*
X144322911Y-62744743D01*
X143776914Y-62970344D01*
X143660054Y-63087000D01*
X138960346Y-63087000D01*
X133148171Y-57274825D01*
X133626265Y-57275242D01*
X134139172Y-57063313D01*
X134531934Y-56671236D01*
X134744758Y-56158700D01*
X134745242Y-55603735D01*
X134533313Y-55090828D01*
X134141236Y-54698066D01*
X133929262Y-54610046D01*
X134139172Y-54523313D01*
X134531934Y-54131236D01*
X134744758Y-53618700D01*
X134745242Y-53063735D01*
X134533313Y-52550828D01*
X134178106Y-52195000D01*
X134236309Y-52195000D01*
X134469698Y-52098327D01*
X134648327Y-51919699D01*
X134745000Y-51686310D01*
X134745000Y-51085750D01*
X134586250Y-50927000D01*
X133477000Y-50927000D01*
X133477000Y-50947000D01*
X133223000Y-50947000D01*
X133223000Y-50927000D01*
X132113750Y-50927000D01*
X131955000Y-51085750D01*
X131955000Y-51686310D01*
X132051673Y-51919699D01*
X132230302Y-52098327D01*
X132463691Y-52195000D01*
X132522448Y-52195000D01*
X132168066Y-52548764D01*
X131955242Y-53061300D01*
X131954758Y-53616265D01*
X132166687Y-54129172D01*
X132558764Y-54521934D01*
X132770738Y-54609954D01*
X132560828Y-54696687D01*
X132168066Y-55088764D01*
X131955242Y-55601300D01*
X131954823Y-56081477D01*
X131114800Y-55241454D01*
X131114800Y-54311278D01*
X131027794Y-53873871D01*
X130780023Y-53503055D01*
X128044134Y-50767166D01*
X128131661Y-50767242D01*
X128645303Y-50555010D01*
X129038629Y-50162370D01*
X129141889Y-49913690D01*
X131955000Y-49913690D01*
X131955000Y-50514250D01*
X132113750Y-50673000D01*
X133223000Y-50673000D01*
X133223000Y-49563750D01*
X133477000Y-49563750D01*
X133477000Y-50673000D01*
X134586250Y-50673000D01*
X134745000Y-50514250D01*
X134745000Y-49913690D01*
X134648327Y-49680301D01*
X134469698Y-49501673D01*
X134236309Y-49405000D01*
X133635750Y-49405000D01*
X133477000Y-49563750D01*
X133223000Y-49563750D01*
X133064250Y-49405000D01*
X132463691Y-49405000D01*
X132230302Y-49501673D01*
X132051673Y-49680301D01*
X131955000Y-49913690D01*
X129141889Y-49913690D01*
X129251757Y-49649100D01*
X129251809Y-49589637D01*
X129946446Y-48895000D01*
X135146952Y-48895000D01*
X140758971Y-54507019D01*
X140363956Y-54243078D01*
X139700000Y-54111009D01*
X139036044Y-54243078D01*
X138473170Y-54619179D01*
X138097069Y-55182053D01*
X137965000Y-55846009D01*
X137965000Y-55913991D01*
X138097069Y-56577947D01*
X138473170Y-57140821D01*
X139036044Y-57516922D01*
X139700000Y-57648991D01*
X140363956Y-57516922D01*
X140926830Y-57140821D01*
X141302931Y-56577947D01*
X141435000Y-55913991D01*
X141435000Y-55846009D01*
X141302931Y-55182053D01*
X141038990Y-54787038D01*
X142940175Y-56688223D01*
X143310991Y-56935994D01*
X143748398Y-57023000D01*
X145820245Y-57023000D01*
X146135849Y-57233880D01*
X146685000Y-57343113D01*
X147234151Y-57233880D01*
X147699698Y-56922811D01*
X148010767Y-56457264D01*
X148120000Y-55908113D01*
X148120000Y-55851887D01*
X148010767Y-55302736D01*
X147699698Y-54837189D01*
X147234151Y-54526120D01*
X146685000Y-54416887D01*
X146135849Y-54526120D01*
X145820245Y-54737000D01*
X144221844Y-54737000D01*
X139492284Y-50007440D01*
X140800000Y-50007440D01*
X141035317Y-49963162D01*
X141251441Y-49824090D01*
X141396431Y-49611890D01*
X141438732Y-49403000D01*
X145798380Y-49403000D01*
X145871077Y-49475824D01*
X146398309Y-49694750D01*
X146503396Y-49694842D01*
X148237000Y-51428446D01*
X148237000Y-61255919D01*
X148324006Y-61693326D01*
X148571777Y-62064142D01*
X152694583Y-66186948D01*
X152693812Y-66187717D01*
X152467258Y-66733319D01*
X152466743Y-67324089D01*
X152692344Y-67870086D01*
X153109717Y-68288188D01*
X153655319Y-68514742D01*
X154246089Y-68515257D01*
X154792086Y-68289656D01*
X155210188Y-67872283D01*
X155436742Y-67326681D01*
X155437257Y-66735911D01*
X155211656Y-66189914D01*
X155095000Y-66073054D01*
X155095000Y-65827919D01*
X155007994Y-65390512D01*
X154760223Y-65019696D01*
X150523000Y-60782473D01*
X150523000Y-56164187D01*
X152234752Y-56164187D01*
X152452757Y-56691800D01*
X152856077Y-57095824D01*
X153383309Y-57314750D01*
X153488396Y-57314842D01*
X156309000Y-60135446D01*
X156309000Y-66072730D01*
X156193812Y-66187717D01*
X155967258Y-66733319D01*
X155966743Y-67324089D01*
X156192344Y-67870086D01*
X156609717Y-68288188D01*
X157155319Y-68514742D01*
X157746089Y-68515257D01*
X158292086Y-68289656D01*
X158508160Y-68073958D01*
X162612647Y-68073958D01*
X162692920Y-68325259D01*
X163248279Y-68526718D01*
X163838458Y-68500315D01*
X164261080Y-68325259D01*
X164341353Y-68073958D01*
X163477000Y-67209605D01*
X162612647Y-68073958D01*
X158508160Y-68073958D01*
X158710188Y-67872283D01*
X158936742Y-67326681D01*
X158937200Y-66801279D01*
X161980282Y-66801279D01*
X162006685Y-67391458D01*
X162181741Y-67814080D01*
X162433042Y-67894353D01*
X163297395Y-67030000D01*
X163656605Y-67030000D01*
X164520958Y-67894353D01*
X164772259Y-67814080D01*
X164950005Y-67324089D01*
X165491743Y-67324089D01*
X165717344Y-67870086D01*
X166134717Y-68288188D01*
X166680319Y-68514742D01*
X167271089Y-68515257D01*
X167817086Y-68289656D01*
X168033160Y-68073958D01*
X172137647Y-68073958D01*
X172217920Y-68325259D01*
X172773279Y-68526718D01*
X173363458Y-68500315D01*
X173786080Y-68325259D01*
X173866353Y-68073958D01*
X173002000Y-67209605D01*
X172137647Y-68073958D01*
X168033160Y-68073958D01*
X168235188Y-67872283D01*
X168461742Y-67326681D01*
X168462200Y-66801279D01*
X171505282Y-66801279D01*
X171531685Y-67391458D01*
X171706741Y-67814080D01*
X171958042Y-67894353D01*
X172822395Y-67030000D01*
X171958042Y-66165647D01*
X171706741Y-66245920D01*
X171505282Y-66801279D01*
X168462200Y-66801279D01*
X168462257Y-66735911D01*
X168236656Y-66189914D01*
X167819283Y-65771812D01*
X167273681Y-65545258D01*
X166682911Y-65544743D01*
X166136914Y-65770344D01*
X165718812Y-66187717D01*
X165492258Y-66733319D01*
X165491743Y-67324089D01*
X164950005Y-67324089D01*
X164973718Y-67258721D01*
X164947315Y-66668542D01*
X164772259Y-66245920D01*
X164520958Y-66165647D01*
X163656605Y-67030000D01*
X163297395Y-67030000D01*
X162433042Y-66165647D01*
X162181741Y-66245920D01*
X161980282Y-66801279D01*
X158937200Y-66801279D01*
X158937257Y-66735911D01*
X158711656Y-66189914D01*
X158595000Y-66073054D01*
X158595000Y-65986042D01*
X162612647Y-65986042D01*
X163477000Y-66850395D01*
X164341353Y-65986042D01*
X164261080Y-65734741D01*
X163705721Y-65533282D01*
X163115542Y-65559685D01*
X162692920Y-65734741D01*
X162612647Y-65986042D01*
X158595000Y-65986042D01*
X158595000Y-59662000D01*
X158507994Y-59224593D01*
X158260223Y-58853777D01*
X155570633Y-56164187D01*
X159219752Y-56164187D01*
X159437757Y-56691800D01*
X159841077Y-57095824D01*
X160368309Y-57314750D01*
X160473396Y-57314842D01*
X165826776Y-62668222D01*
X166197592Y-62915993D01*
X166634999Y-63002999D01*
X173746999Y-63002999D01*
X173746999Y-65417999D01*
X173834005Y-65855406D01*
X173899286Y-65953106D01*
X173866352Y-65986040D01*
X173786080Y-65734741D01*
X173230721Y-65533282D01*
X172640542Y-65559685D01*
X172217920Y-65734741D01*
X172137647Y-65986042D01*
X173002000Y-66850395D01*
X173016143Y-66836253D01*
X173195748Y-67015858D01*
X173181605Y-67030000D01*
X174045958Y-67894353D01*
X174297259Y-67814080D01*
X174498718Y-67258721D01*
X174472315Y-66668542D01*
X174435700Y-66580146D01*
X175016885Y-67161331D01*
X175016743Y-67324089D01*
X175242344Y-67870086D01*
X175659717Y-68288188D01*
X176205319Y-68514742D01*
X176796089Y-68515257D01*
X177342086Y-68289656D01*
X177558160Y-68073958D01*
X181662647Y-68073958D01*
X181742920Y-68325259D01*
X182298279Y-68526718D01*
X182888458Y-68500315D01*
X183311080Y-68325259D01*
X183391353Y-68073958D01*
X182527000Y-67209605D01*
X181662647Y-68073958D01*
X177558160Y-68073958D01*
X177760188Y-67872283D01*
X177986742Y-67326681D01*
X177987200Y-66801279D01*
X181030282Y-66801279D01*
X181056685Y-67391458D01*
X181231741Y-67814080D01*
X181483042Y-67894353D01*
X182347395Y-67030000D01*
X182706605Y-67030000D01*
X183570958Y-67894353D01*
X183822259Y-67814080D01*
X184023718Y-67258721D01*
X183997315Y-66668542D01*
X183822259Y-66245920D01*
X183570958Y-66165647D01*
X182706605Y-67030000D01*
X182347395Y-67030000D01*
X181483042Y-66165647D01*
X181231741Y-66245920D01*
X181030282Y-66801279D01*
X177987200Y-66801279D01*
X177987257Y-66735911D01*
X177761656Y-66189914D01*
X177558140Y-65986042D01*
X181662647Y-65986042D01*
X182527000Y-66850395D01*
X183391353Y-65986042D01*
X183311080Y-65734741D01*
X182755721Y-65533282D01*
X182165542Y-65559685D01*
X181742920Y-65734741D01*
X181662647Y-65986042D01*
X177558140Y-65986042D01*
X177344283Y-65771812D01*
X176798681Y-65545258D01*
X176633560Y-65545114D01*
X176032999Y-64944553D01*
X176032999Y-61859999D01*
X175945993Y-61422592D01*
X175698222Y-61051776D01*
X175327406Y-60804005D01*
X174889999Y-60716999D01*
X167108445Y-60716999D01*
X162243333Y-55851887D01*
X165570000Y-55851887D01*
X165570000Y-55908113D01*
X165679233Y-56457264D01*
X165990302Y-56922811D01*
X166455849Y-57233880D01*
X167005000Y-57343113D01*
X167554151Y-57233880D01*
X167869755Y-57023000D01*
X170815000Y-57023000D01*
X171252407Y-56935994D01*
X171623223Y-56688223D01*
X172166375Y-56145071D01*
X172388991Y-56145265D01*
X172953371Y-55912068D01*
X173121613Y-55744120D01*
X173121838Y-55745317D01*
X173260910Y-55961441D01*
X173473110Y-56106431D01*
X173725000Y-56157440D01*
X175525000Y-56157440D01*
X175760317Y-56113162D01*
X175976441Y-55974090D01*
X176121431Y-55761890D01*
X176123231Y-55753000D01*
X176541000Y-55753000D01*
X176978407Y-55665994D01*
X177349223Y-55418223D01*
X182418223Y-50349223D01*
X182665994Y-49978407D01*
X182753000Y-49541000D01*
X182753000Y-42107928D01*
X182793629Y-42067370D01*
X182879949Y-41859488D01*
X182964990Y-42065303D01*
X183357630Y-42458629D01*
X183870900Y-42671757D01*
X184426661Y-42672242D01*
X184439500Y-42666937D01*
X184439500Y-67030000D01*
X184560341Y-67637510D01*
X184904468Y-68152532D01*
X185419490Y-68496659D01*
X186027000Y-68617500D01*
X186634510Y-68496659D01*
X187149532Y-68152532D01*
X187493659Y-67637510D01*
X187614500Y-67030000D01*
X187614500Y-42595564D01*
X187812532Y-42397532D01*
X187907626Y-42255213D01*
X188429392Y-42255213D01*
X188498857Y-42497397D01*
X189022302Y-42684144D01*
X189577368Y-42656362D01*
X189961143Y-42497397D01*
X190030608Y-42255213D01*
X189230000Y-41454605D01*
X188429392Y-42255213D01*
X187907626Y-42255213D01*
X188063363Y-42022137D01*
X188249787Y-42075608D01*
X189050395Y-41275000D01*
X189409605Y-41275000D01*
X190210213Y-42075608D01*
X190452397Y-42006143D01*
X190502509Y-41865682D01*
X190584990Y-42065303D01*
X190977630Y-42458629D01*
X191490900Y-42671757D01*
X192046661Y-42672242D01*
X192560303Y-42460010D01*
X192953629Y-42067370D01*
X193166757Y-41554100D01*
X193167242Y-40998339D01*
X192955010Y-40484697D01*
X192562370Y-40091371D01*
X192049100Y-39878243D01*
X191493339Y-39877758D01*
X190979697Y-40089990D01*
X190586371Y-40482630D01*
X190506605Y-40674727D01*
X190452397Y-40543857D01*
X190210213Y-40474392D01*
X189409605Y-41275000D01*
X189050395Y-41275000D01*
X188249787Y-40474392D01*
X188063363Y-40527863D01*
X187907627Y-40294787D01*
X188429392Y-40294787D01*
X189230000Y-41095395D01*
X190030608Y-40294787D01*
X189961143Y-40052603D01*
X189437698Y-39865856D01*
X188882632Y-39893638D01*
X188498857Y-40052603D01*
X188429392Y-40294787D01*
X187907627Y-40294787D01*
X187812532Y-40152468D01*
X187297510Y-39808341D01*
X186690000Y-39687500D01*
X186082490Y-39808341D01*
X185567468Y-40152468D01*
X185285168Y-40434768D01*
X184942370Y-40091371D01*
X184429100Y-39878243D01*
X183873339Y-39877758D01*
X183359697Y-40089990D01*
X182966371Y-40482630D01*
X182880051Y-40690512D01*
X182795010Y-40484697D01*
X182402370Y-40091371D01*
X181889100Y-39878243D01*
X181333339Y-39877758D01*
X180819697Y-40089990D01*
X180426371Y-40482630D01*
X180213243Y-40995900D01*
X180212758Y-41551661D01*
X180424990Y-42065303D01*
X180467000Y-42107386D01*
X180467000Y-49067554D01*
X176101424Y-53433130D01*
X175989090Y-53258559D01*
X175776890Y-53113569D01*
X175525000Y-53062560D01*
X173725000Y-53062560D01*
X173489683Y-53106838D01*
X173273559Y-53245910D01*
X173128569Y-53458110D01*
X173124433Y-53478534D01*
X172955643Y-53309449D01*
X172391670Y-53075267D01*
X171781009Y-53074735D01*
X171216629Y-53307932D01*
X170784449Y-53739357D01*
X170550267Y-54303330D01*
X170550071Y-54528483D01*
X170341554Y-54737000D01*
X167869755Y-54737000D01*
X167554151Y-54526120D01*
X167005000Y-54416887D01*
X166455849Y-54526120D01*
X165990302Y-54837189D01*
X165679233Y-55302736D01*
X165570000Y-55851887D01*
X162243333Y-55851887D01*
X162090158Y-55698712D01*
X162090248Y-55595813D01*
X161872243Y-55068200D01*
X161468923Y-54664176D01*
X160941691Y-54445250D01*
X160370813Y-54444752D01*
X159843200Y-54662757D01*
X159439176Y-55066077D01*
X159220250Y-55593309D01*
X159219752Y-56164187D01*
X155570633Y-56164187D01*
X155105158Y-55698712D01*
X155105248Y-55595813D01*
X154887243Y-55068200D01*
X154483923Y-54664176D01*
X153956691Y-54445250D01*
X153385813Y-54444752D01*
X152858200Y-54662757D01*
X152454176Y-55066077D01*
X152235250Y-55593309D01*
X152234752Y-56164187D01*
X150523000Y-56164187D01*
X150523000Y-50955000D01*
X150435994Y-50517593D01*
X150188223Y-50146777D01*
X148273333Y-48231887D01*
X152235000Y-48231887D01*
X152235000Y-48288113D01*
X152344233Y-48837264D01*
X152655302Y-49302811D01*
X153120849Y-49613880D01*
X153670000Y-49723113D01*
X154219151Y-49613880D01*
X154684698Y-49302811D01*
X154995767Y-48837264D01*
X155105000Y-48288113D01*
X155105000Y-48231887D01*
X159220000Y-48231887D01*
X159220000Y-48288113D01*
X159329233Y-48837264D01*
X159640302Y-49302811D01*
X160105849Y-49613880D01*
X160655000Y-49723113D01*
X161204151Y-49613880D01*
X161669698Y-49302811D01*
X161980767Y-48837264D01*
X162039063Y-48544187D01*
X165569752Y-48544187D01*
X165787757Y-49071800D01*
X166191077Y-49475824D01*
X166718309Y-49694750D01*
X167289187Y-49695248D01*
X167816800Y-49477243D01*
X168220824Y-49073923D01*
X168439750Y-48546691D01*
X168440248Y-47975813D01*
X168222243Y-47448200D01*
X167818923Y-47044176D01*
X167291691Y-46825250D01*
X166720813Y-46824752D01*
X166193200Y-47042757D01*
X165789176Y-47446077D01*
X165570250Y-47973309D01*
X165569752Y-48544187D01*
X162039063Y-48544187D01*
X162090000Y-48288113D01*
X162090000Y-48231887D01*
X161980767Y-47682736D01*
X161669698Y-47217189D01*
X161204151Y-46906120D01*
X160655000Y-46796887D01*
X160105849Y-46906120D01*
X159640302Y-47217189D01*
X159329233Y-47682736D01*
X159220000Y-48231887D01*
X155105000Y-48231887D01*
X154995767Y-47682736D01*
X154684698Y-47217189D01*
X154219151Y-46906120D01*
X153670000Y-46796887D01*
X153120849Y-46906120D01*
X152655302Y-47217189D01*
X152344233Y-47682736D01*
X152235000Y-48231887D01*
X148273333Y-48231887D01*
X148120158Y-48078712D01*
X148120248Y-47975813D01*
X147902243Y-47448200D01*
X147828000Y-47373827D01*
X147828000Y-46828446D01*
X149381861Y-45274585D01*
X149822378Y-45186961D01*
X150304147Y-44865054D01*
X150626054Y-44383285D01*
X150739093Y-43815000D01*
X150626054Y-43246715D01*
X150304147Y-42764946D01*
X149974974Y-42545000D01*
X150304147Y-42325054D01*
X150626054Y-41843285D01*
X150739093Y-41275000D01*
X150626054Y-40706715D01*
X150304147Y-40224946D01*
X149822378Y-39903039D01*
X149254093Y-39790000D01*
X149195907Y-39790000D01*
X148627622Y-39903039D01*
X148145853Y-40224946D01*
X148145029Y-40226179D01*
X148138162Y-40189683D01*
X147999090Y-39973559D01*
X147786890Y-39828569D01*
X147637500Y-39798317D01*
X147637500Y-35234854D01*
X147698573Y-35223362D01*
X147861383Y-35118596D01*
X147907502Y-35150108D01*
X147907502Y-35190755D01*
X147891500Y-35271202D01*
X147891500Y-35458518D01*
X147828176Y-35611018D01*
X147827824Y-36015208D01*
X147880424Y-36142510D01*
X147880424Y-37109529D01*
X147817100Y-37262029D01*
X147816748Y-37666219D01*
X147971099Y-38039777D01*
X148256655Y-38325832D01*
X148629942Y-38480835D01*
X149034132Y-38481187D01*
X149407690Y-38326836D01*
X149693745Y-38041280D01*
X149848748Y-37667993D01*
X149849100Y-37263803D01*
X149785424Y-37109695D01*
X149785424Y-36196156D01*
X149859824Y-36016982D01*
X149860176Y-35612792D01*
X149812502Y-35497412D01*
X149812502Y-35150048D01*
X149861379Y-35118596D01*
X149907498Y-35150108D01*
X149907498Y-36132054D01*
X149860176Y-36246018D01*
X149859824Y-36650208D01*
X150014175Y-37023766D01*
X150299731Y-37309821D01*
X150673018Y-37464824D01*
X151077208Y-37465176D01*
X151450766Y-37310825D01*
X151736821Y-37025269D01*
X151891824Y-36651982D01*
X151892176Y-36247792D01*
X151812498Y-36054956D01*
X151812498Y-35150048D01*
X151858783Y-35120264D01*
X151897046Y-35158527D01*
X152048717Y-35221351D01*
X152018755Y-35293508D01*
X152018403Y-35697698D01*
X152082500Y-35852825D01*
X152082500Y-39796847D01*
X151949683Y-39821838D01*
X151733559Y-39960910D01*
X151588569Y-40173110D01*
X151537560Y-40425000D01*
X151537560Y-42125000D01*
X151581838Y-42360317D01*
X151720910Y-42576441D01*
X151933110Y-42721431D01*
X152000541Y-42735086D01*
X151955853Y-42764946D01*
X151633946Y-43246715D01*
X151520907Y-43815000D01*
X151633946Y-44383285D01*
X151955853Y-44865054D01*
X152437622Y-45186961D01*
X153005907Y-45300000D01*
X153064093Y-45300000D01*
X153632378Y-45186961D01*
X154114147Y-44865054D01*
X154305000Y-44579422D01*
X154495853Y-44865054D01*
X154977622Y-45186961D01*
X155545907Y-45300000D01*
X155604093Y-45300000D01*
X156172378Y-45186961D01*
X156654147Y-44865054D01*
X156976054Y-44383285D01*
X157089093Y-43815000D01*
X160410907Y-43815000D01*
X160523946Y-44383285D01*
X160845853Y-44865054D01*
X161327622Y-45186961D01*
X161895907Y-45300000D01*
X161954093Y-45300000D01*
X162522378Y-45186961D01*
X163004147Y-44865054D01*
X163195000Y-44579422D01*
X163385853Y-44865054D01*
X163867622Y-45186961D01*
X164435907Y-45300000D01*
X164494093Y-45300000D01*
X165062378Y-45186961D01*
X165544147Y-44865054D01*
X165866054Y-44383285D01*
X165979093Y-43815000D01*
X165866054Y-43246715D01*
X165544147Y-42764946D01*
X165214974Y-42545000D01*
X165544147Y-42325054D01*
X165866054Y-41843285D01*
X165979093Y-41275000D01*
X165866054Y-40706715D01*
X165544147Y-40224946D01*
X165062378Y-39903039D01*
X164494093Y-39790000D01*
X164435907Y-39790000D01*
X163867622Y-39903039D01*
X163385853Y-40224946D01*
X163385029Y-40226179D01*
X163378162Y-40189683D01*
X163239090Y-39973559D01*
X163026890Y-39828569D01*
X162877500Y-39798317D01*
X162877500Y-35234854D01*
X162938573Y-35223362D01*
X163101383Y-35118596D01*
X163147502Y-35150108D01*
X163147502Y-37227002D01*
X163194888Y-37465229D01*
X163194824Y-37539208D01*
X163349175Y-37912766D01*
X163634731Y-38198821D01*
X164008018Y-38353824D01*
X164412208Y-38354176D01*
X164785766Y-38199825D01*
X165071821Y-37914269D01*
X165226824Y-37540982D01*
X165227176Y-37136792D01*
X165072825Y-36763234D01*
X165052502Y-36742875D01*
X165052502Y-35150048D01*
X165101379Y-35118596D01*
X165147498Y-35150108D01*
X165147498Y-36178998D01*
X165220003Y-36543504D01*
X165259852Y-36603143D01*
X165381175Y-36896766D01*
X165666731Y-37182821D01*
X166040018Y-37337824D01*
X166444208Y-37338176D01*
X166817766Y-37183825D01*
X167103821Y-36898269D01*
X167258824Y-36524982D01*
X167259176Y-36120792D01*
X167104825Y-35747234D01*
X167052498Y-35694816D01*
X167052498Y-35150048D01*
X167098783Y-35120264D01*
X167101245Y-35122726D01*
X167083065Y-35166508D01*
X167082713Y-35570698D01*
X167237064Y-35944256D01*
X167322500Y-36029841D01*
X167322500Y-39796847D01*
X167189683Y-39821838D01*
X166973559Y-39960910D01*
X166828569Y-40173110D01*
X166777560Y-40425000D01*
X166777560Y-42125000D01*
X166821838Y-42360317D01*
X166960910Y-42576441D01*
X167173110Y-42721431D01*
X167240541Y-42735086D01*
X167195853Y-42764946D01*
X166873946Y-43246715D01*
X166760907Y-43815000D01*
X166873946Y-44383285D01*
X167195853Y-44865054D01*
X167677622Y-45186961D01*
X168245907Y-45300000D01*
X168304093Y-45300000D01*
X168872378Y-45186961D01*
X169354147Y-44865054D01*
X169545000Y-44579422D01*
X169735853Y-44865054D01*
X170217622Y-45186961D01*
X170785907Y-45300000D01*
X170844093Y-45300000D01*
X171412378Y-45186961D01*
X171894147Y-44865054D01*
X172216054Y-44383285D01*
X172329093Y-43815000D01*
X173745907Y-43815000D01*
X173858946Y-44383285D01*
X174180853Y-44865054D01*
X174662622Y-45186961D01*
X175230907Y-45300000D01*
X175289093Y-45300000D01*
X175857378Y-45186961D01*
X176339147Y-44865054D01*
X176530000Y-44579422D01*
X176720853Y-44865054D01*
X177202622Y-45186961D01*
X177770907Y-45300000D01*
X177829093Y-45300000D01*
X178397378Y-45186961D01*
X178879147Y-44865054D01*
X179201054Y-44383285D01*
X179314093Y-43815000D01*
X179201054Y-43246715D01*
X178879147Y-42764946D01*
X178549974Y-42545000D01*
X178879147Y-42325054D01*
X179201054Y-41843285D01*
X179314093Y-41275000D01*
X179201054Y-40706715D01*
X178879147Y-40224946D01*
X178397378Y-39903039D01*
X177829093Y-39790000D01*
X177770907Y-39790000D01*
X177202622Y-39903039D01*
X176720853Y-40224946D01*
X176720029Y-40226179D01*
X176713162Y-40189683D01*
X176574090Y-39973559D01*
X176361890Y-39828569D01*
X176212500Y-39798317D01*
X176212500Y-35494544D01*
X176489479Y-35217565D01*
X176736756Y-35267640D01*
X177943256Y-35267640D01*
X178178573Y-35223362D01*
X178341383Y-35118596D01*
X178484862Y-35216631D01*
X178736752Y-35267640D01*
X179006500Y-35267640D01*
X179006500Y-36599472D01*
X178971179Y-36634731D01*
X178816176Y-37008018D01*
X178815824Y-37412208D01*
X178970175Y-37785766D01*
X179255731Y-38071821D01*
X179629018Y-38226824D01*
X180033208Y-38227176D01*
X180406766Y-38072825D01*
X180692821Y-37787269D01*
X180847824Y-37413982D01*
X180848111Y-37084215D01*
X181153018Y-37210824D01*
X181557208Y-37211176D01*
X181930766Y-37056825D01*
X182216821Y-36771269D01*
X182371824Y-36397982D01*
X182372176Y-35993792D01*
X182217825Y-35620234D01*
X182181500Y-35583846D01*
X182181500Y-35221473D01*
X182338783Y-35120264D01*
X182377046Y-35158527D01*
X182610435Y-35255200D01*
X183054244Y-35255200D01*
X183212994Y-35096450D01*
X183212994Y-33147000D01*
X183466994Y-33147000D01*
X183466994Y-35096450D01*
X183625744Y-35255200D01*
X184069553Y-35255200D01*
X184302942Y-35158527D01*
X184481571Y-34979899D01*
X184578244Y-34746510D01*
X184578244Y-33305750D01*
X184419494Y-33147000D01*
X183466994Y-33147000D01*
X183212994Y-33147000D01*
X183192994Y-33147000D01*
X183192994Y-32893000D01*
X183212994Y-32893000D01*
X183212994Y-30943550D01*
X183466994Y-30943550D01*
X183466994Y-32893000D01*
X184419494Y-32893000D01*
X184578244Y-32734250D01*
X184578244Y-31293490D01*
X184481571Y-31060101D01*
X184302942Y-30881473D01*
X184069553Y-30784800D01*
X183625744Y-30784800D01*
X183466994Y-30943550D01*
X183212994Y-30943550D01*
X183054244Y-30784800D01*
X182610435Y-30784800D01*
X182377046Y-30881473D01*
X182337725Y-30920794D01*
X182195138Y-30823369D01*
X181943248Y-30772360D01*
X180736748Y-30772360D01*
X180501431Y-30816638D01*
X180338621Y-30921404D01*
X180195142Y-30823369D01*
X179943252Y-30772360D01*
X178736752Y-30772360D01*
X178501435Y-30816638D01*
X178338625Y-30921404D01*
X178195146Y-30823369D01*
X177943256Y-30772360D01*
X176736756Y-30772360D01*
X176501439Y-30816638D01*
X176285315Y-30955710D01*
X176140325Y-31167910D01*
X176089316Y-31419800D01*
X176089316Y-32923652D01*
X175713987Y-33298981D01*
X175713984Y-33298983D01*
X174586481Y-34426487D01*
X174380005Y-34735500D01*
X174307500Y-35100006D01*
X174307500Y-39796847D01*
X174174683Y-39821838D01*
X173958559Y-39960910D01*
X173813569Y-40173110D01*
X173762560Y-40425000D01*
X173762560Y-42125000D01*
X173806838Y-42360317D01*
X173945910Y-42576441D01*
X174158110Y-42721431D01*
X174225541Y-42735086D01*
X174180853Y-42764946D01*
X173858946Y-43246715D01*
X173745907Y-43815000D01*
X172329093Y-43815000D01*
X172216054Y-43246715D01*
X171894147Y-42764946D01*
X171564974Y-42545000D01*
X171894147Y-42325054D01*
X172216054Y-41843285D01*
X172329093Y-41275000D01*
X172216054Y-40706715D01*
X171894147Y-40224946D01*
X171412378Y-39903039D01*
X170844093Y-39790000D01*
X170785907Y-39790000D01*
X170217622Y-39903039D01*
X169735853Y-40224946D01*
X169735029Y-40226179D01*
X169728162Y-40189683D01*
X169589090Y-39973559D01*
X169376890Y-39828569D01*
X169227500Y-39798317D01*
X169227500Y-35545601D01*
X169154995Y-35181095D01*
X169109084Y-35112385D01*
X169241571Y-34979899D01*
X169338244Y-34746510D01*
X169338244Y-33305750D01*
X169179494Y-33147000D01*
X168226994Y-33147000D01*
X168226994Y-33167000D01*
X167972994Y-33167000D01*
X167972994Y-33147000D01*
X167952994Y-33147000D01*
X167952994Y-32893000D01*
X167972994Y-32893000D01*
X167972994Y-30943550D01*
X168226994Y-30943550D01*
X168226994Y-32893000D01*
X169179494Y-32893000D01*
X169338244Y-32734250D01*
X169338244Y-31293490D01*
X169241571Y-31060101D01*
X169062942Y-30881473D01*
X168829553Y-30784800D01*
X168385744Y-30784800D01*
X168226994Y-30943550D01*
X167972994Y-30943550D01*
X167814244Y-30784800D01*
X167370435Y-30784800D01*
X167137046Y-30881473D01*
X167097725Y-30920794D01*
X166955138Y-30823369D01*
X166898553Y-30811910D01*
X167004824Y-30555982D01*
X167005176Y-30151792D01*
X166850825Y-29778234D01*
X166565269Y-29492179D01*
X166191982Y-29337176D01*
X165787792Y-29336824D01*
X165633684Y-29400500D01*
X164531802Y-29400500D01*
X164167296Y-29473005D01*
X163858282Y-29679481D01*
X163426483Y-30111281D01*
X163220007Y-30420294D01*
X163147502Y-30784800D01*
X163147502Y-30889952D01*
X163098625Y-30921404D01*
X162955146Y-30823369D01*
X162703256Y-30772360D01*
X161496756Y-30772360D01*
X161261439Y-30816638D01*
X161045315Y-30955710D01*
X160900325Y-31167910D01*
X160849316Y-31419800D01*
X160849316Y-34620200D01*
X160893594Y-34855517D01*
X160972500Y-34978140D01*
X160972500Y-39796847D01*
X160839683Y-39821838D01*
X160623559Y-39960910D01*
X160478569Y-40173110D01*
X160427560Y-40425000D01*
X160427560Y-42125000D01*
X160471838Y-42360317D01*
X160610910Y-42576441D01*
X160823110Y-42721431D01*
X160890541Y-42735086D01*
X160845853Y-42764946D01*
X160523946Y-43246715D01*
X160410907Y-43815000D01*
X157089093Y-43815000D01*
X156976054Y-43246715D01*
X156654147Y-42764946D01*
X156324974Y-42545000D01*
X156654147Y-42325054D01*
X156976054Y-41843285D01*
X157089093Y-41275000D01*
X156976054Y-40706715D01*
X156654147Y-40224946D01*
X156172378Y-39903039D01*
X155604093Y-39790000D01*
X155545907Y-39790000D01*
X154977622Y-39903039D01*
X154495853Y-40224946D01*
X154495029Y-40226179D01*
X154488162Y-40189683D01*
X154349090Y-39973559D01*
X154136890Y-39828569D01*
X153987500Y-39798317D01*
X153987500Y-35850959D01*
X154050403Y-35699472D01*
X154050755Y-35295282D01*
X153944162Y-35037308D01*
X154001571Y-34979899D01*
X154098244Y-34746510D01*
X154098244Y-33305750D01*
X153939494Y-33147000D01*
X152986994Y-33147000D01*
X152986994Y-33167000D01*
X152732994Y-33167000D01*
X152732994Y-33147000D01*
X152712994Y-33147000D01*
X152712994Y-32893000D01*
X152732994Y-32893000D01*
X152732994Y-30943550D01*
X152986994Y-30943550D01*
X152986994Y-32893000D01*
X153939494Y-32893000D01*
X154098244Y-32734250D01*
X154098244Y-31293490D01*
X154001571Y-31060101D01*
X153822942Y-30881473D01*
X153589553Y-30784800D01*
X153145744Y-30784800D01*
X152986994Y-30943550D01*
X152732994Y-30943550D01*
X152574244Y-30784800D01*
X152130435Y-30784800D01*
X151897046Y-30881473D01*
X151857725Y-30920794D01*
X151828500Y-30900826D01*
X151828500Y-30327482D01*
X151891824Y-30174982D01*
X151892176Y-29770792D01*
X151737825Y-29397234D01*
X151452269Y-29111179D01*
X151078982Y-28956176D01*
X150674792Y-28955824D01*
X150301234Y-29110175D01*
X150015179Y-29395731D01*
X149860176Y-29769018D01*
X149859824Y-30173208D01*
X149923500Y-30327316D01*
X149923500Y-30879655D01*
X149858621Y-30921404D01*
X149715142Y-30823369D01*
X149463252Y-30772360D01*
X148256752Y-30772360D01*
X148021435Y-30816638D01*
X147858625Y-30921404D01*
X147715146Y-30823369D01*
X147463256Y-30772360D01*
X146256756Y-30772360D01*
X146021439Y-30816638D01*
X145805315Y-30955710D01*
X145660325Y-31167910D01*
X145609316Y-31419800D01*
X145609316Y-34620200D01*
X145653594Y-34855517D01*
X145732500Y-34978140D01*
X145732500Y-39796847D01*
X145599683Y-39821838D01*
X145383559Y-39960910D01*
X145238569Y-40173110D01*
X145187560Y-40425000D01*
X145187560Y-42125000D01*
X145231838Y-42360317D01*
X145370910Y-42576441D01*
X145583110Y-42721431D01*
X145650541Y-42735086D01*
X145605853Y-42764946D01*
X145283946Y-43246715D01*
X145170907Y-43815000D01*
X145283946Y-44383285D01*
X145605853Y-44865054D01*
X146087622Y-45186961D01*
X146211877Y-45211677D01*
X145876777Y-45546777D01*
X145629006Y-45917593D01*
X145542000Y-46355000D01*
X145542000Y-47117000D01*
X141439349Y-47117000D01*
X141403162Y-46924683D01*
X141264090Y-46708559D01*
X141051890Y-46563569D01*
X140800000Y-46512560D01*
X138600000Y-46512560D01*
X138364683Y-46556838D01*
X138148559Y-46695910D01*
X138003569Y-46908110D01*
X137952560Y-47160000D01*
X137952560Y-48467716D01*
X136428621Y-46943777D01*
X136057805Y-46696006D01*
X135620398Y-46609000D01*
X129473000Y-46609000D01*
X129035593Y-46696006D01*
X128664777Y-46943777D01*
X127635746Y-47972808D01*
X127578339Y-47972758D01*
X127064697Y-48184990D01*
X126671371Y-48577630D01*
X126458243Y-49090900D01*
X126458164Y-49181196D01*
X124724798Y-47447830D01*
X124716993Y-47408592D01*
X124469222Y-47037776D01*
X124098406Y-46790005D01*
X123660999Y-46702999D01*
X119219001Y-46702999D01*
X118781594Y-46790005D01*
X118410778Y-47037776D01*
X117475746Y-47972808D01*
X117418339Y-47972758D01*
X116904697Y-48184990D01*
X116511371Y-48577630D01*
X116298243Y-49090900D01*
X116297758Y-49646661D01*
X116509990Y-50160303D01*
X116902630Y-50553629D01*
X117415900Y-50766757D01*
X117971661Y-50767242D01*
X118485303Y-50555010D01*
X118878629Y-50162370D01*
X118964949Y-49954488D01*
X119049990Y-50160303D01*
X119442630Y-50553629D01*
X119955900Y-50766757D01*
X120015363Y-50766809D01*
X122358919Y-53110365D01*
X121984697Y-53264990D01*
X121591371Y-53657630D01*
X121505051Y-53865512D01*
X121420010Y-53659697D01*
X121027370Y-53266371D01*
X120514100Y-53053243D01*
X119958339Y-53052758D01*
X119444697Y-53264990D01*
X119051371Y-53657630D01*
X118965051Y-53865512D01*
X118880010Y-53659697D01*
X118487370Y-53266371D01*
X117974100Y-53053243D01*
X117418339Y-53052758D01*
X116904697Y-53264990D01*
X116511371Y-53657630D01*
X116298243Y-54170900D01*
X116297758Y-54726661D01*
X116509990Y-55240303D01*
X116902630Y-55633629D01*
X117415900Y-55846757D01*
X117971661Y-55847242D01*
X118485303Y-55635010D01*
X118878629Y-55242370D01*
X118964949Y-55034488D01*
X119049990Y-55240303D01*
X119442630Y-55633629D01*
X119955900Y-55846757D01*
X120511661Y-55847242D01*
X121025303Y-55635010D01*
X121418629Y-55242370D01*
X121504949Y-55034488D01*
X121589990Y-55240303D01*
X121982630Y-55633629D01*
X122495900Y-55846757D01*
X123051661Y-55847242D01*
X123565303Y-55635010D01*
X123958629Y-55242370D01*
X124114806Y-54866252D01*
X133759000Y-64510446D01*
X133759000Y-66072730D01*
X133643812Y-66187717D01*
X133417258Y-66733319D01*
X133416743Y-67324089D01*
X133489015Y-67499001D01*
X130290188Y-67499001D01*
X130361742Y-67326681D01*
X130362257Y-66735911D01*
X130136656Y-66189914D01*
X129719283Y-65771812D01*
X129173681Y-65545258D01*
X129008560Y-65545114D01*
X125774223Y-62310777D01*
X125403407Y-62063006D01*
X124966000Y-61976000D01*
X119763000Y-61976000D01*
X119325593Y-62063006D01*
X118954777Y-62310777D01*
X115720669Y-65544885D01*
X115557911Y-65544743D01*
X115011914Y-65770344D01*
X114593812Y-66187717D01*
X114367258Y-66733319D01*
X114366743Y-67324089D01*
X104342000Y-67324089D01*
X104342000Y-43815000D01*
X114690907Y-43815000D01*
X114803946Y-44383285D01*
X115125853Y-44865054D01*
X115607622Y-45186961D01*
X116175907Y-45300000D01*
X116234093Y-45300000D01*
X116802378Y-45186961D01*
X117284147Y-44865054D01*
X117475000Y-44579422D01*
X117665853Y-44865054D01*
X118147622Y-45186961D01*
X118715907Y-45300000D01*
X118774093Y-45300000D01*
X119342378Y-45186961D01*
X119824147Y-44865054D01*
X120146054Y-44383285D01*
X120259093Y-43815000D01*
X120146054Y-43246715D01*
X119824147Y-42764946D01*
X119494974Y-42545000D01*
X119824147Y-42325054D01*
X120146054Y-41843285D01*
X120259093Y-41275000D01*
X120146054Y-40706715D01*
X119824147Y-40224946D01*
X119342378Y-39903039D01*
X118774093Y-39790000D01*
X118715907Y-39790000D01*
X118147622Y-39903039D01*
X117665853Y-40224946D01*
X117665029Y-40226179D01*
X117658162Y-40189683D01*
X117519090Y-39973559D01*
X117306890Y-39828569D01*
X117157500Y-39798317D01*
X117157500Y-35234854D01*
X117218573Y-35223362D01*
X117381383Y-35118596D01*
X117524862Y-35216631D01*
X117554502Y-35222633D01*
X117554502Y-36622817D01*
X117617339Y-36938723D01*
X117796285Y-37206534D01*
X118511466Y-37921714D01*
X118511468Y-37921717D01*
X118779280Y-38100663D01*
X119095185Y-38163500D01*
X119149472Y-38163500D01*
X119184731Y-38198821D01*
X119558018Y-38353824D01*
X119962208Y-38354176D01*
X120335766Y-38199825D01*
X120621821Y-37914269D01*
X120776824Y-37540982D01*
X120777176Y-37136792D01*
X120622825Y-36763234D01*
X120337269Y-36477179D01*
X120269143Y-36448890D01*
X120597208Y-36449176D01*
X120970766Y-36294825D01*
X121256821Y-36009269D01*
X121411824Y-35635982D01*
X121411980Y-35456800D01*
X121566175Y-35829980D01*
X121602500Y-35866368D01*
X121602500Y-39796847D01*
X121469683Y-39821838D01*
X121253559Y-39960910D01*
X121108569Y-40173110D01*
X121057560Y-40425000D01*
X121057560Y-42125000D01*
X121101838Y-42360317D01*
X121240910Y-42576441D01*
X121453110Y-42721431D01*
X121520541Y-42735086D01*
X121475853Y-42764946D01*
X121153946Y-43246715D01*
X121040907Y-43815000D01*
X121153946Y-44383285D01*
X121475853Y-44865054D01*
X121957622Y-45186961D01*
X122525907Y-45300000D01*
X122584093Y-45300000D01*
X123152378Y-45186961D01*
X123634147Y-44865054D01*
X123825000Y-44579422D01*
X124015853Y-44865054D01*
X124497622Y-45186961D01*
X125065907Y-45300000D01*
X125124093Y-45300000D01*
X125692378Y-45186961D01*
X126174147Y-44865054D01*
X126496054Y-44383285D01*
X126609093Y-43815000D01*
X126496054Y-43246715D01*
X126174147Y-42764946D01*
X125844974Y-42545000D01*
X126174147Y-42325054D01*
X126496054Y-41843285D01*
X126609093Y-41275000D01*
X126496054Y-40706715D01*
X126174147Y-40224946D01*
X125692378Y-39903039D01*
X125124093Y-39790000D01*
X125065907Y-39790000D01*
X124497622Y-39903039D01*
X124015853Y-40224946D01*
X124015029Y-40226179D01*
X124008162Y-40189683D01*
X123869090Y-39973559D01*
X123656890Y-39828569D01*
X123507500Y-39798317D01*
X123507500Y-35382214D01*
X123477890Y-35233356D01*
X129451100Y-35233356D01*
X129451100Y-38748600D01*
X129523605Y-39113106D01*
X129730081Y-39422119D01*
X130219807Y-39911845D01*
X130143559Y-39960910D01*
X129998569Y-40173110D01*
X129947560Y-40425000D01*
X129947560Y-42125000D01*
X129991838Y-42360317D01*
X130130910Y-42576441D01*
X130343110Y-42721431D01*
X130410541Y-42735086D01*
X130365853Y-42764946D01*
X130043946Y-43246715D01*
X129930907Y-43815000D01*
X130043946Y-44383285D01*
X130365853Y-44865054D01*
X130847622Y-45186961D01*
X131415907Y-45300000D01*
X131474093Y-45300000D01*
X132042378Y-45186961D01*
X132524147Y-44865054D01*
X132715000Y-44579422D01*
X132905853Y-44865054D01*
X133387622Y-45186961D01*
X133955907Y-45300000D01*
X134014093Y-45300000D01*
X134582378Y-45186961D01*
X135064147Y-44865054D01*
X135386054Y-44383285D01*
X135499093Y-43815000D01*
X135386054Y-43246715D01*
X135064147Y-42764946D01*
X134734974Y-42545000D01*
X135064147Y-42325054D01*
X135386054Y-41843285D01*
X135499093Y-41275000D01*
X135386054Y-40706715D01*
X135064147Y-40224946D01*
X134582378Y-39903039D01*
X134014093Y-39790000D01*
X133955907Y-39790000D01*
X133387622Y-39903039D01*
X132905853Y-40224946D01*
X132905029Y-40226179D01*
X132898162Y-40189683D01*
X132759090Y-39973559D01*
X132546890Y-39828569D01*
X132397500Y-39798317D01*
X132397500Y-39790000D01*
X132324995Y-39425494D01*
X132118519Y-39116481D01*
X131356100Y-38354062D01*
X131356100Y-35627894D01*
X131716354Y-35267640D01*
X132223256Y-35267640D01*
X132458573Y-35223362D01*
X132621383Y-35118596D01*
X132764862Y-35216631D01*
X132794502Y-35222633D01*
X132794502Y-36710498D01*
X132743179Y-36761731D01*
X132588176Y-37135018D01*
X132587824Y-37539208D01*
X132742175Y-37912766D01*
X133027731Y-38198821D01*
X133401018Y-38353824D01*
X133805208Y-38354176D01*
X134178766Y-38199825D01*
X134464821Y-37914269D01*
X134619824Y-37540982D01*
X134620176Y-37136792D01*
X134465825Y-36763234D01*
X134445502Y-36742875D01*
X134445502Y-36589029D01*
X134520181Y-36769766D01*
X134805737Y-37055821D01*
X135179024Y-37210824D01*
X135583214Y-37211176D01*
X135956772Y-37056825D01*
X136242827Y-36771269D01*
X136313992Y-36599885D01*
X136425502Y-36432998D01*
X136499993Y-36321514D01*
X136572498Y-35957008D01*
X136572498Y-35150048D01*
X136618783Y-35120264D01*
X136628515Y-35129996D01*
X136593057Y-35215388D01*
X136592705Y-35619578D01*
X136656381Y-35773686D01*
X136656381Y-39603881D01*
X136700864Y-39827513D01*
X136493559Y-39960910D01*
X136348569Y-40173110D01*
X136297560Y-40425000D01*
X136297560Y-42125000D01*
X136341838Y-42360317D01*
X136480910Y-42576441D01*
X136693110Y-42721431D01*
X136760541Y-42735086D01*
X136715853Y-42764946D01*
X136393946Y-43246715D01*
X136280907Y-43815000D01*
X136393946Y-44383285D01*
X136715853Y-44865054D01*
X137197622Y-45186961D01*
X137765907Y-45300000D01*
X137824093Y-45300000D01*
X138392378Y-45186961D01*
X138874147Y-44865054D01*
X139065000Y-44579422D01*
X139255853Y-44865054D01*
X139737622Y-45186961D01*
X140305907Y-45300000D01*
X140364093Y-45300000D01*
X140932378Y-45186961D01*
X141414147Y-44865054D01*
X141736054Y-44383285D01*
X141849093Y-43815000D01*
X141736054Y-43246715D01*
X141414147Y-42764946D01*
X141084974Y-42545000D01*
X141414147Y-42325054D01*
X141736054Y-41843285D01*
X141849093Y-41275000D01*
X141736054Y-40706715D01*
X141414147Y-40224946D01*
X140932378Y-39903039D01*
X140364093Y-39790000D01*
X140305907Y-39790000D01*
X139737622Y-39903039D01*
X139255853Y-40224946D01*
X139255029Y-40226179D01*
X139248162Y-40189683D01*
X139109090Y-39973559D01*
X138896890Y-39828569D01*
X138747500Y-39798317D01*
X138747500Y-39790000D01*
X138674995Y-39425494D01*
X138561381Y-39255459D01*
X138561381Y-35773852D01*
X138624705Y-35621352D01*
X138625057Y-35217162D01*
X138595600Y-35145870D01*
X138761571Y-34979899D01*
X138858244Y-34746510D01*
X138858244Y-33305750D01*
X138699494Y-33147000D01*
X137746994Y-33147000D01*
X137746994Y-33167000D01*
X137492994Y-33167000D01*
X137492994Y-33147000D01*
X137472994Y-33147000D01*
X137472994Y-32893000D01*
X137492994Y-32893000D01*
X137492994Y-30943550D01*
X137746994Y-30943550D01*
X137746994Y-32893000D01*
X138699494Y-32893000D01*
X138858244Y-32734250D01*
X138858244Y-31293490D01*
X138761571Y-31060101D01*
X138582942Y-30881473D01*
X138349553Y-30784800D01*
X137905744Y-30784800D01*
X137746994Y-30943550D01*
X137492994Y-30943550D01*
X137334244Y-30784800D01*
X136890435Y-30784800D01*
X136657046Y-30881473D01*
X136617725Y-30920794D01*
X136608441Y-30914451D01*
X136651820Y-30809982D01*
X136652172Y-30405792D01*
X136497821Y-30032234D01*
X136212265Y-29746179D01*
X135838978Y-29591176D01*
X135434788Y-29590824D01*
X135061230Y-29745175D01*
X135022052Y-29784285D01*
X134720146Y-29844337D01*
X134452335Y-30023283D01*
X133703258Y-30772360D01*
X133016752Y-30772360D01*
X132781435Y-30816638D01*
X132618625Y-30921404D01*
X132475146Y-30823369D01*
X132223256Y-30772360D01*
X131016756Y-30772360D01*
X130781439Y-30816638D01*
X130565315Y-30955710D01*
X130420325Y-31167910D01*
X130369316Y-31419800D01*
X130369316Y-33920602D01*
X129730081Y-34559837D01*
X129523605Y-34868850D01*
X129451100Y-35233356D01*
X123477890Y-35233356D01*
X123444167Y-35063821D01*
X123444173Y-35057296D01*
X123521571Y-34979899D01*
X123618244Y-34746510D01*
X123618244Y-33305750D01*
X123459494Y-33147000D01*
X122506994Y-33147000D01*
X122506994Y-33167000D01*
X122252994Y-33167000D01*
X122252994Y-33147000D01*
X122232994Y-33147000D01*
X122232994Y-32893000D01*
X122252994Y-32893000D01*
X122252994Y-30943550D01*
X122506994Y-30943550D01*
X122506994Y-32893000D01*
X123459494Y-32893000D01*
X123618244Y-32734250D01*
X123618244Y-31293490D01*
X123521571Y-31060101D01*
X123342942Y-30881473D01*
X123109553Y-30784800D01*
X122665744Y-30784800D01*
X122506994Y-30943550D01*
X122252994Y-30943550D01*
X122094244Y-30784800D01*
X121650435Y-30784800D01*
X121417046Y-30881473D01*
X121377725Y-30920794D01*
X121320074Y-30881404D01*
X121395822Y-30698984D01*
X121396174Y-30294794D01*
X121241823Y-29921236D01*
X120956267Y-29635181D01*
X120582980Y-29480178D01*
X120178790Y-29479826D01*
X120024682Y-29543502D01*
X118668800Y-29543502D01*
X118304294Y-29616007D01*
X117995281Y-29822483D01*
X117706483Y-30111281D01*
X117500007Y-30420294D01*
X117427502Y-30784800D01*
X117427502Y-30889952D01*
X117378625Y-30921404D01*
X117235146Y-30823369D01*
X116983256Y-30772360D01*
X115776756Y-30772360D01*
X115541439Y-30816638D01*
X115325315Y-30955710D01*
X115180325Y-31167910D01*
X115129316Y-31419800D01*
X115129316Y-34620200D01*
X115173594Y-34855517D01*
X115252500Y-34978140D01*
X115252500Y-39796847D01*
X115119683Y-39821838D01*
X114903559Y-39960910D01*
X114758569Y-40173110D01*
X114707560Y-40425000D01*
X114707560Y-42125000D01*
X114751838Y-42360317D01*
X114890910Y-42576441D01*
X115103110Y-42721431D01*
X115170541Y-42735086D01*
X115125853Y-42764946D01*
X114803946Y-43246715D01*
X114690907Y-43815000D01*
X104342000Y-43815000D01*
X104342000Y-38010054D01*
X105139811Y-38809259D01*
X106548825Y-39394333D01*
X108074482Y-39395664D01*
X109484515Y-38813050D01*
X110564259Y-37735189D01*
X111149333Y-36326175D01*
X111150664Y-34800518D01*
X110568050Y-33390485D01*
X109490189Y-32310741D01*
X108081175Y-31725667D01*
X106555518Y-31724336D01*
X105145485Y-32306950D01*
X104342000Y-33109034D01*
X104342000Y-24257000D01*
X112182535Y-24257000D01*
X112182535Y-29500322D01*
X112182535Y-29500322D01*
G37*
X112182535Y-29500322D02*
X112226813Y-29735639D01*
X112365885Y-29951763D01*
X112578085Y-30096753D01*
X112829975Y-30147762D01*
X114529997Y-30147762D01*
X114765314Y-30103484D01*
X114981438Y-29964412D01*
X115126428Y-29752212D01*
X115177437Y-29500322D01*
X115177437Y-24257000D01*
X123582563Y-24257000D01*
X123582563Y-29500322D01*
X123626841Y-29735639D01*
X123765913Y-29951763D01*
X123978113Y-30096753D01*
X124230003Y-30147762D01*
X125930025Y-30147762D01*
X126165342Y-30103484D01*
X126381466Y-29964412D01*
X126526456Y-29752212D01*
X126577465Y-29500322D01*
X126577465Y-24257000D01*
X127422535Y-24257000D01*
X127422535Y-29500322D01*
X127466813Y-29735639D01*
X127605885Y-29951763D01*
X127818085Y-30096753D01*
X128069975Y-30147762D01*
X129769997Y-30147762D01*
X130005314Y-30103484D01*
X130221438Y-29964412D01*
X130366428Y-29752212D01*
X130417437Y-29500322D01*
X130417437Y-24257000D01*
X138822563Y-24257000D01*
X138822563Y-29500322D01*
X138866841Y-29735639D01*
X139005913Y-29951763D01*
X139218113Y-30096753D01*
X139470003Y-30147762D01*
X141170025Y-30147762D01*
X141405342Y-30103484D01*
X141621466Y-29964412D01*
X141766456Y-29752212D01*
X141817465Y-29500322D01*
X141817465Y-24257000D01*
X142662535Y-24257000D01*
X142662535Y-29500322D01*
X142706813Y-29735639D01*
X142845885Y-29951763D01*
X143058085Y-30096753D01*
X143309975Y-30147762D01*
X145009997Y-30147762D01*
X145245314Y-30103484D01*
X145461438Y-29964412D01*
X145606428Y-29752212D01*
X145657437Y-29500322D01*
X145657437Y-24257000D01*
X154062563Y-24257000D01*
X154062563Y-29500322D01*
X154106841Y-29735639D01*
X154245913Y-29951763D01*
X154458113Y-30096753D01*
X154710003Y-30147762D01*
X156410025Y-30147762D01*
X156645342Y-30103484D01*
X156861466Y-29964412D01*
X157006456Y-29752212D01*
X157057465Y-29500322D01*
X157057465Y-24257000D01*
X157902535Y-24257000D01*
X157902535Y-29500322D01*
X157946813Y-29735639D01*
X158085885Y-29951763D01*
X158298085Y-30096753D01*
X158549975Y-30147762D01*
X160249997Y-30147762D01*
X160485314Y-30103484D01*
X160701438Y-29964412D01*
X160846428Y-29752212D01*
X160897437Y-29500322D01*
X160897437Y-24257000D01*
X169302563Y-24257000D01*
X169302563Y-29500322D01*
X169346841Y-29735639D01*
X169485913Y-29951763D01*
X169698113Y-30096753D01*
X169950003Y-30147762D01*
X171650025Y-30147762D01*
X171885342Y-30103484D01*
X172101466Y-29964412D01*
X172246456Y-29752212D01*
X172297465Y-29500322D01*
X172297465Y-24257000D01*
X173142535Y-24257000D01*
X173142535Y-29500322D01*
X173186813Y-29735639D01*
X173325885Y-29951763D01*
X173538085Y-30096753D01*
X173789975Y-30147762D01*
X175489997Y-30147762D01*
X175725314Y-30103484D01*
X175941438Y-29964412D01*
X176086428Y-29752212D01*
X176137437Y-29500322D01*
X176137437Y-24257000D01*
X184542563Y-24257000D01*
X184542563Y-29500322D01*
X184586841Y-29735639D01*
X184725913Y-29951763D01*
X184938113Y-30096753D01*
X185190003Y-30147762D01*
X186890025Y-30147762D01*
X187125342Y-30103484D01*
X187341466Y-29964412D01*
X187486456Y-29752212D01*
X187537465Y-29500322D01*
X187537465Y-24257000D01*
X194362000Y-24257000D01*
X194362000Y-32728280D01*
X193945189Y-32310741D01*
X192536175Y-31725667D01*
X191010518Y-31724336D01*
X189600485Y-32306950D01*
X188520741Y-33384811D01*
X187935667Y-34793825D01*
X187934336Y-36319482D01*
X188516950Y-37729515D01*
X189594811Y-38809259D01*
X191003825Y-39394333D01*
X192529482Y-39395664D01*
X193939515Y-38813050D01*
X194362000Y-38391302D01*
X194362000Y-72098280D01*
X193945189Y-71680741D01*
X192536175Y-71095667D01*
X191010518Y-71094336D01*
X189600485Y-71676950D01*
X188520741Y-72754811D01*
X187935667Y-74163825D01*
X187934336Y-75689482D01*
X188516950Y-77099515D01*
X189594811Y-78179259D01*
X190639375Y-78613000D01*
X108443957Y-78613000D01*
X109484515Y-78183050D01*
X110564259Y-77105189D01*
X111149333Y-75696175D01*
X111149645Y-75337870D01*
X115178583Y-75337870D01*
X115545166Y-76225069D01*
X116223361Y-76904449D01*
X117109919Y-77272580D01*
X118069870Y-77273417D01*
X118957069Y-76906834D01*
X119636449Y-76228639D01*
X120004580Y-75342081D01*
X120004583Y-75337870D01*
X124703583Y-75337870D01*
X125070166Y-76225069D01*
X125748361Y-76904449D01*
X126634919Y-77272580D01*
X127594870Y-77273417D01*
X128482069Y-76906834D01*
X129161449Y-76228639D01*
X129529580Y-75342081D01*
X129529583Y-75337870D01*
X134228583Y-75337870D01*
X134595166Y-76225069D01*
X135273361Y-76904449D01*
X136159919Y-77272580D01*
X137119870Y-77273417D01*
X138007069Y-76906834D01*
X138686449Y-76228639D01*
X138931757Y-75637870D01*
X143943583Y-75637870D01*
X144310166Y-76525069D01*
X144988361Y-77204449D01*
X145874919Y-77572580D01*
X146834870Y-77573417D01*
X147722069Y-77206834D01*
X148401449Y-76528639D01*
X148769580Y-75642081D01*
X148769845Y-75337870D01*
X153278583Y-75337870D01*
X153645166Y-76225069D01*
X154323361Y-76904449D01*
X155209919Y-77272580D01*
X156169870Y-77273417D01*
X157057069Y-76906834D01*
X157736449Y-76228639D01*
X158104580Y-75342081D01*
X158104583Y-75337870D01*
X162803583Y-75337870D01*
X163170166Y-76225069D01*
X163848361Y-76904449D01*
X164734919Y-77272580D01*
X165694870Y-77273417D01*
X166582069Y-76906834D01*
X167261449Y-76228639D01*
X167629580Y-75342081D01*
X167629583Y-75337870D01*
X172328583Y-75337870D01*
X172695166Y-76225069D01*
X173373361Y-76904449D01*
X174259919Y-77272580D01*
X175219870Y-77273417D01*
X176107069Y-76906834D01*
X176786449Y-76228639D01*
X177154580Y-75342081D01*
X177154583Y-75337870D01*
X181853583Y-75337870D01*
X182220166Y-76225069D01*
X182898361Y-76904449D01*
X183784919Y-77272580D01*
X184744870Y-77273417D01*
X185632069Y-76906834D01*
X186311449Y-76228639D01*
X186679580Y-75342081D01*
X186680417Y-74382130D01*
X186313834Y-73494931D01*
X185635639Y-72815551D01*
X184749081Y-72447420D01*
X183789130Y-72446583D01*
X182901931Y-72813166D01*
X182222551Y-73491361D01*
X181854420Y-74377919D01*
X181853583Y-75337870D01*
X177154583Y-75337870D01*
X177155417Y-74382130D01*
X176788834Y-73494931D01*
X176110639Y-72815551D01*
X175224081Y-72447420D01*
X174264130Y-72446583D01*
X173376931Y-72813166D01*
X172697551Y-73491361D01*
X172329420Y-74377919D01*
X172328583Y-75337870D01*
X167629583Y-75337870D01*
X167630417Y-74382130D01*
X167263834Y-73494931D01*
X166585639Y-72815551D01*
X165699081Y-72447420D01*
X164739130Y-72446583D01*
X163851931Y-72813166D01*
X163172551Y-73491361D01*
X162804420Y-74377919D01*
X162803583Y-75337870D01*
X158104583Y-75337870D01*
X158105417Y-74382130D01*
X157738834Y-73494931D01*
X157060639Y-72815551D01*
X156174081Y-72447420D01*
X155214130Y-72446583D01*
X154326931Y-72813166D01*
X153647551Y-73491361D01*
X153279420Y-74377919D01*
X153278583Y-75337870D01*
X148769845Y-75337870D01*
X148770417Y-74682130D01*
X148403834Y-73794931D01*
X147725639Y-73115551D01*
X146839081Y-72747420D01*
X145879130Y-72746583D01*
X144991931Y-73113166D01*
X144312551Y-73791361D01*
X143944420Y-74677919D01*
X143943583Y-75637870D01*
X138931757Y-75637870D01*
X139054580Y-75342081D01*
X139055417Y-74382130D01*
X138688834Y-73494931D01*
X138010639Y-72815551D01*
X137124081Y-72447420D01*
X136164130Y-72446583D01*
X135276931Y-72813166D01*
X134597551Y-73491361D01*
X134229420Y-74377919D01*
X134228583Y-75337870D01*
X129529583Y-75337870D01*
X129530417Y-74382130D01*
X129163834Y-73494931D01*
X128485639Y-72815551D01*
X127599081Y-72447420D01*
X126639130Y-72446583D01*
X125751931Y-72813166D01*
X125072551Y-73491361D01*
X124704420Y-74377919D01*
X124703583Y-75337870D01*
X120004583Y-75337870D01*
X120005417Y-74382130D01*
X119638834Y-73494931D01*
X118960639Y-72815551D01*
X118074081Y-72447420D01*
X117114130Y-72446583D01*
X116226931Y-72813166D01*
X115547551Y-73491361D01*
X115179420Y-74377919D01*
X115178583Y-75337870D01*
X111149645Y-75337870D01*
X111150664Y-74170518D01*
X110568050Y-72760485D01*
X109490189Y-71680741D01*
X108081175Y-71095667D01*
X106555518Y-71094336D01*
X105145485Y-71676950D01*
X104342000Y-72479034D01*
X104342000Y-67324089D01*
X114366743Y-67324089D01*
X114592344Y-67870086D01*
X115009717Y-68288188D01*
X115555319Y-68514742D01*
X116146089Y-68515257D01*
X116692086Y-68289656D01*
X117110188Y-67872283D01*
X117336742Y-67326681D01*
X117336886Y-67161560D01*
X117939781Y-66558665D01*
X117867258Y-66733319D01*
X117866743Y-67324089D01*
X118092344Y-67870086D01*
X118509717Y-68288188D01*
X119055319Y-68514742D01*
X119646089Y-68515257D01*
X120192086Y-68289656D01*
X120610188Y-67872283D01*
X120836742Y-67326681D01*
X120837257Y-66735911D01*
X120611656Y-66189914D01*
X120194283Y-65771812D01*
X119648681Y-65545258D01*
X119057911Y-65544743D01*
X118880327Y-65618119D01*
X120236446Y-64262000D01*
X124492554Y-64262000D01*
X125848335Y-65617781D01*
X125673681Y-65545258D01*
X125082911Y-65544743D01*
X124536914Y-65770344D01*
X124118812Y-66187717D01*
X123892258Y-66733319D01*
X123891743Y-67324089D01*
X124117344Y-67870086D01*
X124534717Y-68288188D01*
X125080319Y-68514742D01*
X125245440Y-68514886D01*
X126180778Y-69450224D01*
X126551594Y-69697995D01*
X126989001Y-69785001D01*
X136789999Y-69785001D01*
X137227406Y-69697995D01*
X137598222Y-69450224D01*
X138533331Y-68515115D01*
X138696089Y-68515257D01*
X139242086Y-68289656D01*
X139660188Y-67872283D01*
X139804770Y-67524089D01*
X143131743Y-67524089D01*
X143357344Y-68070086D01*
X143774717Y-68488188D01*
X144320319Y-68714742D01*
X144911089Y-68715257D01*
X145457086Y-68489656D01*
X145673160Y-68273958D01*
X147252647Y-68273958D01*
X147332920Y-68525259D01*
X147888279Y-68726718D01*
X148478458Y-68700315D01*
X148901080Y-68525259D01*
X148981353Y-68273958D01*
X148117000Y-67409605D01*
X147252647Y-68273958D01*
X145673160Y-68273958D01*
X145875188Y-68072283D01*
X146101742Y-67526681D01*
X146102200Y-67001279D01*
X146620282Y-67001279D01*
X146646685Y-67591458D01*
X146821741Y-68014080D01*
X147073042Y-68094353D01*
X147937395Y-67230000D01*
X148296605Y-67230000D01*
X149160958Y-68094353D01*
X149412259Y-68014080D01*
X149613718Y-67458721D01*
X149587315Y-66868542D01*
X149412259Y-66445920D01*
X149160958Y-66365647D01*
X148296605Y-67230000D01*
X147937395Y-67230000D01*
X147073042Y-66365647D01*
X146821741Y-66445920D01*
X146620282Y-67001279D01*
X146102200Y-67001279D01*
X146102257Y-66935911D01*
X145876656Y-66389914D01*
X145673140Y-66186042D01*
X147252647Y-66186042D01*
X148117000Y-67050395D01*
X148981353Y-66186042D01*
X148901080Y-65934741D01*
X148345721Y-65733282D01*
X147755542Y-65759685D01*
X147332920Y-65934741D01*
X147252647Y-66186042D01*
X145673140Y-66186042D01*
X145459283Y-65971812D01*
X144913681Y-65745258D01*
X144322911Y-65744743D01*
X143776914Y-65970344D01*
X143358812Y-66387717D01*
X143132258Y-66933319D01*
X143131743Y-67524089D01*
X139804770Y-67524089D01*
X139886742Y-67326681D01*
X139887257Y-66735911D01*
X139661656Y-66189914D01*
X139244283Y-65771812D01*
X138698681Y-65545258D01*
X138107911Y-65544743D01*
X137561914Y-65770344D01*
X137143812Y-66187717D01*
X136917258Y-66733319D01*
X136917114Y-66898440D01*
X136316553Y-67499001D01*
X136315188Y-67499001D01*
X136386742Y-67326681D01*
X136387257Y-66735911D01*
X136161656Y-66189914D01*
X136045000Y-66073054D01*
X136045000Y-64037000D01*
X135957994Y-63599593D01*
X135710223Y-63228777D01*
X128271081Y-55789635D01*
X128645303Y-55635010D01*
X128828800Y-55451833D01*
X128828800Y-55714900D01*
X128915806Y-56152307D01*
X129163577Y-56523123D01*
X137678677Y-65038223D01*
X138049493Y-65285994D01*
X138486900Y-65373000D01*
X143659730Y-65373000D01*
X143774717Y-65488188D01*
X144320319Y-65714742D01*
X144911089Y-65715257D01*
X145457086Y-65489656D01*
X145673160Y-65273958D01*
X147252647Y-65273958D01*
X147332920Y-65525259D01*
X147888279Y-65726718D01*
X148478458Y-65700315D01*
X148901080Y-65525259D01*
X148981353Y-65273958D01*
X148117000Y-64409605D01*
X147252647Y-65273958D01*
X145673160Y-65273958D01*
X145875188Y-65072283D01*
X146101742Y-64526681D01*
X146102200Y-64001279D01*
X146620282Y-64001279D01*
X146646685Y-64591458D01*
X146821741Y-65014080D01*
X147073042Y-65094353D01*
X147937395Y-64230000D01*
X148296605Y-64230000D01*
X149160958Y-65094353D01*
X149412259Y-65014080D01*
X149613718Y-64458721D01*
X149587315Y-63868542D01*
X149412259Y-63445920D01*
X149160958Y-63365647D01*
X148296605Y-64230000D01*
X147937395Y-64230000D01*
X147073042Y-63365647D01*
X146821741Y-63445920D01*
X146620282Y-64001279D01*
X146102200Y-64001279D01*
X146102257Y-63935911D01*
X145876656Y-63389914D01*
X145673140Y-63186042D01*
X147252647Y-63186042D01*
X148117000Y-64050395D01*
X148981353Y-63186042D01*
X148901080Y-62934741D01*
X148345721Y-62733282D01*
X147755542Y-62759685D01*
X147332920Y-62934741D01*
X147252647Y-63186042D01*
X145673140Y-63186042D01*
X145459283Y-62971812D01*
X144913681Y-62745258D01*
X144322911Y-62744743D01*
X143776914Y-62970344D01*
X143660054Y-63087000D01*
X138960346Y-63087000D01*
X133148171Y-57274825D01*
X133626265Y-57275242D01*
X134139172Y-57063313D01*
X134531934Y-56671236D01*
X134744758Y-56158700D01*
X134745242Y-55603735D01*
X134533313Y-55090828D01*
X134141236Y-54698066D01*
X133929262Y-54610046D01*
X134139172Y-54523313D01*
X134531934Y-54131236D01*
X134744758Y-53618700D01*
X134745242Y-53063735D01*
X134533313Y-52550828D01*
X134178106Y-52195000D01*
X134236309Y-52195000D01*
X134469698Y-52098327D01*
X134648327Y-51919699D01*
X134745000Y-51686310D01*
X134745000Y-51085750D01*
X134586250Y-50927000D01*
X133477000Y-50927000D01*
X133477000Y-50947000D01*
X133223000Y-50947000D01*
X133223000Y-50927000D01*
X132113750Y-50927000D01*
X131955000Y-51085750D01*
X131955000Y-51686310D01*
X132051673Y-51919699D01*
X132230302Y-52098327D01*
X132463691Y-52195000D01*
X132522448Y-52195000D01*
X132168066Y-52548764D01*
X131955242Y-53061300D01*
X131954758Y-53616265D01*
X132166687Y-54129172D01*
X132558764Y-54521934D01*
X132770738Y-54609954D01*
X132560828Y-54696687D01*
X132168066Y-55088764D01*
X131955242Y-55601300D01*
X131954823Y-56081477D01*
X131114800Y-55241454D01*
X131114800Y-54311278D01*
X131027794Y-53873871D01*
X130780023Y-53503055D01*
X128044134Y-50767166D01*
X128131661Y-50767242D01*
X128645303Y-50555010D01*
X129038629Y-50162370D01*
X129141889Y-49913690D01*
X131955000Y-49913690D01*
X131955000Y-50514250D01*
X132113750Y-50673000D01*
X133223000Y-50673000D01*
X133223000Y-49563750D01*
X133477000Y-49563750D01*
X133477000Y-50673000D01*
X134586250Y-50673000D01*
X134745000Y-50514250D01*
X134745000Y-49913690D01*
X134648327Y-49680301D01*
X134469698Y-49501673D01*
X134236309Y-49405000D01*
X133635750Y-49405000D01*
X133477000Y-49563750D01*
X133223000Y-49563750D01*
X133064250Y-49405000D01*
X132463691Y-49405000D01*
X132230302Y-49501673D01*
X132051673Y-49680301D01*
X131955000Y-49913690D01*
X129141889Y-49913690D01*
X129251757Y-49649100D01*
X129251809Y-49589637D01*
X129946446Y-48895000D01*
X135146952Y-48895000D01*
X140758971Y-54507019D01*
X140363956Y-54243078D01*
X139700000Y-54111009D01*
X139036044Y-54243078D01*
X138473170Y-54619179D01*
X138097069Y-55182053D01*
X137965000Y-55846009D01*
X137965000Y-55913991D01*
X138097069Y-56577947D01*
X138473170Y-57140821D01*
X139036044Y-57516922D01*
X139700000Y-57648991D01*
X140363956Y-57516922D01*
X140926830Y-57140821D01*
X141302931Y-56577947D01*
X141435000Y-55913991D01*
X141435000Y-55846009D01*
X141302931Y-55182053D01*
X141038990Y-54787038D01*
X142940175Y-56688223D01*
X143310991Y-56935994D01*
X143748398Y-57023000D01*
X145820245Y-57023000D01*
X146135849Y-57233880D01*
X146685000Y-57343113D01*
X147234151Y-57233880D01*
X147699698Y-56922811D01*
X148010767Y-56457264D01*
X148120000Y-55908113D01*
X148120000Y-55851887D01*
X148010767Y-55302736D01*
X147699698Y-54837189D01*
X147234151Y-54526120D01*
X146685000Y-54416887D01*
X146135849Y-54526120D01*
X145820245Y-54737000D01*
X144221844Y-54737000D01*
X139492284Y-50007440D01*
X140800000Y-50007440D01*
X141035317Y-49963162D01*
X141251441Y-49824090D01*
X141396431Y-49611890D01*
X141438732Y-49403000D01*
X145798380Y-49403000D01*
X145871077Y-49475824D01*
X146398309Y-49694750D01*
X146503396Y-49694842D01*
X148237000Y-51428446D01*
X148237000Y-61255919D01*
X148324006Y-61693326D01*
X148571777Y-62064142D01*
X152694583Y-66186948D01*
X152693812Y-66187717D01*
X152467258Y-66733319D01*
X152466743Y-67324089D01*
X152692344Y-67870086D01*
X153109717Y-68288188D01*
X153655319Y-68514742D01*
X154246089Y-68515257D01*
X154792086Y-68289656D01*
X155210188Y-67872283D01*
X155436742Y-67326681D01*
X155437257Y-66735911D01*
X155211656Y-66189914D01*
X155095000Y-66073054D01*
X155095000Y-65827919D01*
X155007994Y-65390512D01*
X154760223Y-65019696D01*
X150523000Y-60782473D01*
X150523000Y-56164187D01*
X152234752Y-56164187D01*
X152452757Y-56691800D01*
X152856077Y-57095824D01*
X153383309Y-57314750D01*
X153488396Y-57314842D01*
X156309000Y-60135446D01*
X156309000Y-66072730D01*
X156193812Y-66187717D01*
X155967258Y-66733319D01*
X155966743Y-67324089D01*
X156192344Y-67870086D01*
X156609717Y-68288188D01*
X157155319Y-68514742D01*
X157746089Y-68515257D01*
X158292086Y-68289656D01*
X158508160Y-68073958D01*
X162612647Y-68073958D01*
X162692920Y-68325259D01*
X163248279Y-68526718D01*
X163838458Y-68500315D01*
X164261080Y-68325259D01*
X164341353Y-68073958D01*
X163477000Y-67209605D01*
X162612647Y-68073958D01*
X158508160Y-68073958D01*
X158710188Y-67872283D01*
X158936742Y-67326681D01*
X158937200Y-66801279D01*
X161980282Y-66801279D01*
X162006685Y-67391458D01*
X162181741Y-67814080D01*
X162433042Y-67894353D01*
X163297395Y-67030000D01*
X163656605Y-67030000D01*
X164520958Y-67894353D01*
X164772259Y-67814080D01*
X164950005Y-67324089D01*
X165491743Y-67324089D01*
X165717344Y-67870086D01*
X166134717Y-68288188D01*
X166680319Y-68514742D01*
X167271089Y-68515257D01*
X167817086Y-68289656D01*
X168033160Y-68073958D01*
X172137647Y-68073958D01*
X172217920Y-68325259D01*
X172773279Y-68526718D01*
X173363458Y-68500315D01*
X173786080Y-68325259D01*
X173866353Y-68073958D01*
X173002000Y-67209605D01*
X172137647Y-68073958D01*
X168033160Y-68073958D01*
X168235188Y-67872283D01*
X168461742Y-67326681D01*
X168462200Y-66801279D01*
X171505282Y-66801279D01*
X171531685Y-67391458D01*
X171706741Y-67814080D01*
X171958042Y-67894353D01*
X172822395Y-67030000D01*
X171958042Y-66165647D01*
X171706741Y-66245920D01*
X171505282Y-66801279D01*
X168462200Y-66801279D01*
X168462257Y-66735911D01*
X168236656Y-66189914D01*
X167819283Y-65771812D01*
X167273681Y-65545258D01*
X166682911Y-65544743D01*
X166136914Y-65770344D01*
X165718812Y-66187717D01*
X165492258Y-66733319D01*
X165491743Y-67324089D01*
X164950005Y-67324089D01*
X164973718Y-67258721D01*
X164947315Y-66668542D01*
X164772259Y-66245920D01*
X164520958Y-66165647D01*
X163656605Y-67030000D01*
X163297395Y-67030000D01*
X162433042Y-66165647D01*
X162181741Y-66245920D01*
X161980282Y-66801279D01*
X158937200Y-66801279D01*
X158937257Y-66735911D01*
X158711656Y-66189914D01*
X158595000Y-66073054D01*
X158595000Y-65986042D01*
X162612647Y-65986042D01*
X163477000Y-66850395D01*
X164341353Y-65986042D01*
X164261080Y-65734741D01*
X163705721Y-65533282D01*
X163115542Y-65559685D01*
X162692920Y-65734741D01*
X162612647Y-65986042D01*
X158595000Y-65986042D01*
X158595000Y-59662000D01*
X158507994Y-59224593D01*
X158260223Y-58853777D01*
X155570633Y-56164187D01*
X159219752Y-56164187D01*
X159437757Y-56691800D01*
X159841077Y-57095824D01*
X160368309Y-57314750D01*
X160473396Y-57314842D01*
X165826776Y-62668222D01*
X166197592Y-62915993D01*
X166634999Y-63002999D01*
X173746999Y-63002999D01*
X173746999Y-65417999D01*
X173834005Y-65855406D01*
X173899286Y-65953106D01*
X173866352Y-65986040D01*
X173786080Y-65734741D01*
X173230721Y-65533282D01*
X172640542Y-65559685D01*
X172217920Y-65734741D01*
X172137647Y-65986042D01*
X173002000Y-66850395D01*
X173016143Y-66836253D01*
X173195748Y-67015858D01*
X173181605Y-67030000D01*
X174045958Y-67894353D01*
X174297259Y-67814080D01*
X174498718Y-67258721D01*
X174472315Y-66668542D01*
X174435700Y-66580146D01*
X175016885Y-67161331D01*
X175016743Y-67324089D01*
X175242344Y-67870086D01*
X175659717Y-68288188D01*
X176205319Y-68514742D01*
X176796089Y-68515257D01*
X177342086Y-68289656D01*
X177558160Y-68073958D01*
X181662647Y-68073958D01*
X181742920Y-68325259D01*
X182298279Y-68526718D01*
X182888458Y-68500315D01*
X183311080Y-68325259D01*
X183391353Y-68073958D01*
X182527000Y-67209605D01*
X181662647Y-68073958D01*
X177558160Y-68073958D01*
X177760188Y-67872283D01*
X177986742Y-67326681D01*
X177987200Y-66801279D01*
X181030282Y-66801279D01*
X181056685Y-67391458D01*
X181231741Y-67814080D01*
X181483042Y-67894353D01*
X182347395Y-67030000D01*
X182706605Y-67030000D01*
X183570958Y-67894353D01*
X183822259Y-67814080D01*
X184023718Y-67258721D01*
X183997315Y-66668542D01*
X183822259Y-66245920D01*
X183570958Y-66165647D01*
X182706605Y-67030000D01*
X182347395Y-67030000D01*
X181483042Y-66165647D01*
X181231741Y-66245920D01*
X181030282Y-66801279D01*
X177987200Y-66801279D01*
X177987257Y-66735911D01*
X177761656Y-66189914D01*
X177558140Y-65986042D01*
X181662647Y-65986042D01*
X182527000Y-66850395D01*
X183391353Y-65986042D01*
X183311080Y-65734741D01*
X182755721Y-65533282D01*
X182165542Y-65559685D01*
X181742920Y-65734741D01*
X181662647Y-65986042D01*
X177558140Y-65986042D01*
X177344283Y-65771812D01*
X176798681Y-65545258D01*
X176633560Y-65545114D01*
X176032999Y-64944553D01*
X176032999Y-61859999D01*
X175945993Y-61422592D01*
X175698222Y-61051776D01*
X175327406Y-60804005D01*
X174889999Y-60716999D01*
X167108445Y-60716999D01*
X162243333Y-55851887D01*
X165570000Y-55851887D01*
X165570000Y-55908113D01*
X165679233Y-56457264D01*
X165990302Y-56922811D01*
X166455849Y-57233880D01*
X167005000Y-57343113D01*
X167554151Y-57233880D01*
X167869755Y-57023000D01*
X170815000Y-57023000D01*
X171252407Y-56935994D01*
X171623223Y-56688223D01*
X172166375Y-56145071D01*
X172388991Y-56145265D01*
X172953371Y-55912068D01*
X173121613Y-55744120D01*
X173121838Y-55745317D01*
X173260910Y-55961441D01*
X173473110Y-56106431D01*
X173725000Y-56157440D01*
X175525000Y-56157440D01*
X175760317Y-56113162D01*
X175976441Y-55974090D01*
X176121431Y-55761890D01*
X176123231Y-55753000D01*
X176541000Y-55753000D01*
X176978407Y-55665994D01*
X177349223Y-55418223D01*
X182418223Y-50349223D01*
X182665994Y-49978407D01*
X182753000Y-49541000D01*
X182753000Y-42107928D01*
X182793629Y-42067370D01*
X182879949Y-41859488D01*
X182964990Y-42065303D01*
X183357630Y-42458629D01*
X183870900Y-42671757D01*
X184426661Y-42672242D01*
X184439500Y-42666937D01*
X184439500Y-67030000D01*
X184560341Y-67637510D01*
X184904468Y-68152532D01*
X185419490Y-68496659D01*
X186027000Y-68617500D01*
X186634510Y-68496659D01*
X187149532Y-68152532D01*
X187493659Y-67637510D01*
X187614500Y-67030000D01*
X187614500Y-42595564D01*
X187812532Y-42397532D01*
X187907626Y-42255213D01*
X188429392Y-42255213D01*
X188498857Y-42497397D01*
X189022302Y-42684144D01*
X189577368Y-42656362D01*
X189961143Y-42497397D01*
X190030608Y-42255213D01*
X189230000Y-41454605D01*
X188429392Y-42255213D01*
X187907626Y-42255213D01*
X188063363Y-42022137D01*
X188249787Y-42075608D01*
X189050395Y-41275000D01*
X189409605Y-41275000D01*
X190210213Y-42075608D01*
X190452397Y-42006143D01*
X190502509Y-41865682D01*
X190584990Y-42065303D01*
X190977630Y-42458629D01*
X191490900Y-42671757D01*
X192046661Y-42672242D01*
X192560303Y-42460010D01*
X192953629Y-42067370D01*
X193166757Y-41554100D01*
X193167242Y-40998339D01*
X192955010Y-40484697D01*
X192562370Y-40091371D01*
X192049100Y-39878243D01*
X191493339Y-39877758D01*
X190979697Y-40089990D01*
X190586371Y-40482630D01*
X190506605Y-40674727D01*
X190452397Y-40543857D01*
X190210213Y-40474392D01*
X189409605Y-41275000D01*
X189050395Y-41275000D01*
X188249787Y-40474392D01*
X188063363Y-40527863D01*
X187907627Y-40294787D01*
X188429392Y-40294787D01*
X189230000Y-41095395D01*
X190030608Y-40294787D01*
X189961143Y-40052603D01*
X189437698Y-39865856D01*
X188882632Y-39893638D01*
X188498857Y-40052603D01*
X188429392Y-40294787D01*
X187907627Y-40294787D01*
X187812532Y-40152468D01*
X187297510Y-39808341D01*
X186690000Y-39687500D01*
X186082490Y-39808341D01*
X185567468Y-40152468D01*
X185285168Y-40434768D01*
X184942370Y-40091371D01*
X184429100Y-39878243D01*
X183873339Y-39877758D01*
X183359697Y-40089990D01*
X182966371Y-40482630D01*
X182880051Y-40690512D01*
X182795010Y-40484697D01*
X182402370Y-40091371D01*
X181889100Y-39878243D01*
X181333339Y-39877758D01*
X180819697Y-40089990D01*
X180426371Y-40482630D01*
X180213243Y-40995900D01*
X180212758Y-41551661D01*
X180424990Y-42065303D01*
X180467000Y-42107386D01*
X180467000Y-49067554D01*
X176101424Y-53433130D01*
X175989090Y-53258559D01*
X175776890Y-53113569D01*
X175525000Y-53062560D01*
X173725000Y-53062560D01*
X173489683Y-53106838D01*
X173273559Y-53245910D01*
X173128569Y-53458110D01*
X173124433Y-53478534D01*
X172955643Y-53309449D01*
X172391670Y-53075267D01*
X171781009Y-53074735D01*
X171216629Y-53307932D01*
X170784449Y-53739357D01*
X170550267Y-54303330D01*
X170550071Y-54528483D01*
X170341554Y-54737000D01*
X167869755Y-54737000D01*
X167554151Y-54526120D01*
X167005000Y-54416887D01*
X166455849Y-54526120D01*
X165990302Y-54837189D01*
X165679233Y-55302736D01*
X165570000Y-55851887D01*
X162243333Y-55851887D01*
X162090158Y-55698712D01*
X162090248Y-55595813D01*
X161872243Y-55068200D01*
X161468923Y-54664176D01*
X160941691Y-54445250D01*
X160370813Y-54444752D01*
X159843200Y-54662757D01*
X159439176Y-55066077D01*
X159220250Y-55593309D01*
X159219752Y-56164187D01*
X155570633Y-56164187D01*
X155105158Y-55698712D01*
X155105248Y-55595813D01*
X154887243Y-55068200D01*
X154483923Y-54664176D01*
X153956691Y-54445250D01*
X153385813Y-54444752D01*
X152858200Y-54662757D01*
X152454176Y-55066077D01*
X152235250Y-55593309D01*
X152234752Y-56164187D01*
X150523000Y-56164187D01*
X150523000Y-50955000D01*
X150435994Y-50517593D01*
X150188223Y-50146777D01*
X148273333Y-48231887D01*
X152235000Y-48231887D01*
X152235000Y-48288113D01*
X152344233Y-48837264D01*
X152655302Y-49302811D01*
X153120849Y-49613880D01*
X153670000Y-49723113D01*
X154219151Y-49613880D01*
X154684698Y-49302811D01*
X154995767Y-48837264D01*
X155105000Y-48288113D01*
X155105000Y-48231887D01*
X159220000Y-48231887D01*
X159220000Y-48288113D01*
X159329233Y-48837264D01*
X159640302Y-49302811D01*
X160105849Y-49613880D01*
X160655000Y-49723113D01*
X161204151Y-49613880D01*
X161669698Y-49302811D01*
X161980767Y-48837264D01*
X162039063Y-48544187D01*
X165569752Y-48544187D01*
X165787757Y-49071800D01*
X166191077Y-49475824D01*
X166718309Y-49694750D01*
X167289187Y-49695248D01*
X167816800Y-49477243D01*
X168220824Y-49073923D01*
X168439750Y-48546691D01*
X168440248Y-47975813D01*
X168222243Y-47448200D01*
X167818923Y-47044176D01*
X167291691Y-46825250D01*
X166720813Y-46824752D01*
X166193200Y-47042757D01*
X165789176Y-47446077D01*
X165570250Y-47973309D01*
X165569752Y-48544187D01*
X162039063Y-48544187D01*
X162090000Y-48288113D01*
X162090000Y-48231887D01*
X161980767Y-47682736D01*
X161669698Y-47217189D01*
X161204151Y-46906120D01*
X160655000Y-46796887D01*
X160105849Y-46906120D01*
X159640302Y-47217189D01*
X159329233Y-47682736D01*
X159220000Y-48231887D01*
X155105000Y-48231887D01*
X154995767Y-47682736D01*
X154684698Y-47217189D01*
X154219151Y-46906120D01*
X153670000Y-46796887D01*
X153120849Y-46906120D01*
X152655302Y-47217189D01*
X152344233Y-47682736D01*
X152235000Y-48231887D01*
X148273333Y-48231887D01*
X148120158Y-48078712D01*
X148120248Y-47975813D01*
X147902243Y-47448200D01*
X147828000Y-47373827D01*
X147828000Y-46828446D01*
X149381861Y-45274585D01*
X149822378Y-45186961D01*
X150304147Y-44865054D01*
X150626054Y-44383285D01*
X150739093Y-43815000D01*
X150626054Y-43246715D01*
X150304147Y-42764946D01*
X149974974Y-42545000D01*
X150304147Y-42325054D01*
X150626054Y-41843285D01*
X150739093Y-41275000D01*
X150626054Y-40706715D01*
X150304147Y-40224946D01*
X149822378Y-39903039D01*
X149254093Y-39790000D01*
X149195907Y-39790000D01*
X148627622Y-39903039D01*
X148145853Y-40224946D01*
X148145029Y-40226179D01*
X148138162Y-40189683D01*
X147999090Y-39973559D01*
X147786890Y-39828569D01*
X147637500Y-39798317D01*
X147637500Y-35234854D01*
X147698573Y-35223362D01*
X147861383Y-35118596D01*
X147907502Y-35150108D01*
X147907502Y-35190755D01*
X147891500Y-35271202D01*
X147891500Y-35458518D01*
X147828176Y-35611018D01*
X147827824Y-36015208D01*
X147880424Y-36142510D01*
X147880424Y-37109529D01*
X147817100Y-37262029D01*
X147816748Y-37666219D01*
X147971099Y-38039777D01*
X148256655Y-38325832D01*
X148629942Y-38480835D01*
X149034132Y-38481187D01*
X149407690Y-38326836D01*
X149693745Y-38041280D01*
X149848748Y-37667993D01*
X149849100Y-37263803D01*
X149785424Y-37109695D01*
X149785424Y-36196156D01*
X149859824Y-36016982D01*
X149860176Y-35612792D01*
X149812502Y-35497412D01*
X149812502Y-35150048D01*
X149861379Y-35118596D01*
X149907498Y-35150108D01*
X149907498Y-36132054D01*
X149860176Y-36246018D01*
X149859824Y-36650208D01*
X150014175Y-37023766D01*
X150299731Y-37309821D01*
X150673018Y-37464824D01*
X151077208Y-37465176D01*
X151450766Y-37310825D01*
X151736821Y-37025269D01*
X151891824Y-36651982D01*
X151892176Y-36247792D01*
X151812498Y-36054956D01*
X151812498Y-35150048D01*
X151858783Y-35120264D01*
X151897046Y-35158527D01*
X152048717Y-35221351D01*
X152018755Y-35293508D01*
X152018403Y-35697698D01*
X152082500Y-35852825D01*
X152082500Y-39796847D01*
X151949683Y-39821838D01*
X151733559Y-39960910D01*
X151588569Y-40173110D01*
X151537560Y-40425000D01*
X151537560Y-42125000D01*
X151581838Y-42360317D01*
X151720910Y-42576441D01*
X151933110Y-42721431D01*
X152000541Y-42735086D01*
X151955853Y-42764946D01*
X151633946Y-43246715D01*
X151520907Y-43815000D01*
X151633946Y-44383285D01*
X151955853Y-44865054D01*
X152437622Y-45186961D01*
X153005907Y-45300000D01*
X153064093Y-45300000D01*
X153632378Y-45186961D01*
X154114147Y-44865054D01*
X154305000Y-44579422D01*
X154495853Y-44865054D01*
X154977622Y-45186961D01*
X155545907Y-45300000D01*
X155604093Y-45300000D01*
X156172378Y-45186961D01*
X156654147Y-44865054D01*
X156976054Y-44383285D01*
X157089093Y-43815000D01*
X160410907Y-43815000D01*
X160523946Y-44383285D01*
X160845853Y-44865054D01*
X161327622Y-45186961D01*
X161895907Y-45300000D01*
X161954093Y-45300000D01*
X162522378Y-45186961D01*
X163004147Y-44865054D01*
X163195000Y-44579422D01*
X163385853Y-44865054D01*
X163867622Y-45186961D01*
X164435907Y-45300000D01*
X164494093Y-45300000D01*
X165062378Y-45186961D01*
X165544147Y-44865054D01*
X165866054Y-44383285D01*
X165979093Y-43815000D01*
X165866054Y-43246715D01*
X165544147Y-42764946D01*
X165214974Y-42545000D01*
X165544147Y-42325054D01*
X165866054Y-41843285D01*
X165979093Y-41275000D01*
X165866054Y-40706715D01*
X165544147Y-40224946D01*
X165062378Y-39903039D01*
X164494093Y-39790000D01*
X164435907Y-39790000D01*
X163867622Y-39903039D01*
X163385853Y-40224946D01*
X163385029Y-40226179D01*
X163378162Y-40189683D01*
X163239090Y-39973559D01*
X163026890Y-39828569D01*
X162877500Y-39798317D01*
X162877500Y-35234854D01*
X162938573Y-35223362D01*
X163101383Y-35118596D01*
X163147502Y-35150108D01*
X163147502Y-37227002D01*
X163194888Y-37465229D01*
X163194824Y-37539208D01*
X163349175Y-37912766D01*
X163634731Y-38198821D01*
X164008018Y-38353824D01*
X164412208Y-38354176D01*
X164785766Y-38199825D01*
X165071821Y-37914269D01*
X165226824Y-37540982D01*
X165227176Y-37136792D01*
X165072825Y-36763234D01*
X165052502Y-36742875D01*
X165052502Y-35150048D01*
X165101379Y-35118596D01*
X165147498Y-35150108D01*
X165147498Y-36178998D01*
X165220003Y-36543504D01*
X165259852Y-36603143D01*
X165381175Y-36896766D01*
X165666731Y-37182821D01*
X166040018Y-37337824D01*
X166444208Y-37338176D01*
X166817766Y-37183825D01*
X167103821Y-36898269D01*
X167258824Y-36524982D01*
X167259176Y-36120792D01*
X167104825Y-35747234D01*
X167052498Y-35694816D01*
X167052498Y-35150048D01*
X167098783Y-35120264D01*
X167101245Y-35122726D01*
X167083065Y-35166508D01*
X167082713Y-35570698D01*
X167237064Y-35944256D01*
X167322500Y-36029841D01*
X167322500Y-39796847D01*
X167189683Y-39821838D01*
X166973559Y-39960910D01*
X166828569Y-40173110D01*
X166777560Y-40425000D01*
X166777560Y-42125000D01*
X166821838Y-42360317D01*
X166960910Y-42576441D01*
X167173110Y-42721431D01*
X167240541Y-42735086D01*
X167195853Y-42764946D01*
X166873946Y-43246715D01*
X166760907Y-43815000D01*
X166873946Y-44383285D01*
X167195853Y-44865054D01*
X167677622Y-45186961D01*
X168245907Y-45300000D01*
X168304093Y-45300000D01*
X168872378Y-45186961D01*
X169354147Y-44865054D01*
X169545000Y-44579422D01*
X169735853Y-44865054D01*
X170217622Y-45186961D01*
X170785907Y-45300000D01*
X170844093Y-45300000D01*
X171412378Y-45186961D01*
X171894147Y-44865054D01*
X172216054Y-44383285D01*
X172329093Y-43815000D01*
X173745907Y-43815000D01*
X173858946Y-44383285D01*
X174180853Y-44865054D01*
X174662622Y-45186961D01*
X175230907Y-45300000D01*
X175289093Y-45300000D01*
X175857378Y-45186961D01*
X176339147Y-44865054D01*
X176530000Y-44579422D01*
X176720853Y-44865054D01*
X177202622Y-45186961D01*
X177770907Y-45300000D01*
X177829093Y-45300000D01*
X178397378Y-45186961D01*
X178879147Y-44865054D01*
X179201054Y-44383285D01*
X179314093Y-43815000D01*
X179201054Y-43246715D01*
X178879147Y-42764946D01*
X178549974Y-42545000D01*
X178879147Y-42325054D01*
X179201054Y-41843285D01*
X179314093Y-41275000D01*
X179201054Y-40706715D01*
X178879147Y-40224946D01*
X178397378Y-39903039D01*
X177829093Y-39790000D01*
X177770907Y-39790000D01*
X177202622Y-39903039D01*
X176720853Y-40224946D01*
X176720029Y-40226179D01*
X176713162Y-40189683D01*
X176574090Y-39973559D01*
X176361890Y-39828569D01*
X176212500Y-39798317D01*
X176212500Y-35494544D01*
X176489479Y-35217565D01*
X176736756Y-35267640D01*
X177943256Y-35267640D01*
X178178573Y-35223362D01*
X178341383Y-35118596D01*
X178484862Y-35216631D01*
X178736752Y-35267640D01*
X179006500Y-35267640D01*
X179006500Y-36599472D01*
X178971179Y-36634731D01*
X178816176Y-37008018D01*
X178815824Y-37412208D01*
X178970175Y-37785766D01*
X179255731Y-38071821D01*
X179629018Y-38226824D01*
X180033208Y-38227176D01*
X180406766Y-38072825D01*
X180692821Y-37787269D01*
X180847824Y-37413982D01*
X180848111Y-37084215D01*
X181153018Y-37210824D01*
X181557208Y-37211176D01*
X181930766Y-37056825D01*
X182216821Y-36771269D01*
X182371824Y-36397982D01*
X182372176Y-35993792D01*
X182217825Y-35620234D01*
X182181500Y-35583846D01*
X182181500Y-35221473D01*
X182338783Y-35120264D01*
X182377046Y-35158527D01*
X182610435Y-35255200D01*
X183054244Y-35255200D01*
X183212994Y-35096450D01*
X183212994Y-33147000D01*
X183466994Y-33147000D01*
X183466994Y-35096450D01*
X183625744Y-35255200D01*
X184069553Y-35255200D01*
X184302942Y-35158527D01*
X184481571Y-34979899D01*
X184578244Y-34746510D01*
X184578244Y-33305750D01*
X184419494Y-33147000D01*
X183466994Y-33147000D01*
X183212994Y-33147000D01*
X183192994Y-33147000D01*
X183192994Y-32893000D01*
X183212994Y-32893000D01*
X183212994Y-30943550D01*
X183466994Y-30943550D01*
X183466994Y-32893000D01*
X184419494Y-32893000D01*
X184578244Y-32734250D01*
X184578244Y-31293490D01*
X184481571Y-31060101D01*
X184302942Y-30881473D01*
X184069553Y-30784800D01*
X183625744Y-30784800D01*
X183466994Y-30943550D01*
X183212994Y-30943550D01*
X183054244Y-30784800D01*
X182610435Y-30784800D01*
X182377046Y-30881473D01*
X182337725Y-30920794D01*
X182195138Y-30823369D01*
X181943248Y-30772360D01*
X180736748Y-30772360D01*
X180501431Y-30816638D01*
X180338621Y-30921404D01*
X180195142Y-30823369D01*
X179943252Y-30772360D01*
X178736752Y-30772360D01*
X178501435Y-30816638D01*
X178338625Y-30921404D01*
X178195146Y-30823369D01*
X177943256Y-30772360D01*
X176736756Y-30772360D01*
X176501439Y-30816638D01*
X176285315Y-30955710D01*
X176140325Y-31167910D01*
X176089316Y-31419800D01*
X176089316Y-32923652D01*
X175713987Y-33298981D01*
X175713984Y-33298983D01*
X174586481Y-34426487D01*
X174380005Y-34735500D01*
X174307500Y-35100006D01*
X174307500Y-39796847D01*
X174174683Y-39821838D01*
X173958559Y-39960910D01*
X173813569Y-40173110D01*
X173762560Y-40425000D01*
X173762560Y-42125000D01*
X173806838Y-42360317D01*
X173945910Y-42576441D01*
X174158110Y-42721431D01*
X174225541Y-42735086D01*
X174180853Y-42764946D01*
X173858946Y-43246715D01*
X173745907Y-43815000D01*
X172329093Y-43815000D01*
X172216054Y-43246715D01*
X171894147Y-42764946D01*
X171564974Y-42545000D01*
X171894147Y-42325054D01*
X172216054Y-41843285D01*
X172329093Y-41275000D01*
X172216054Y-40706715D01*
X171894147Y-40224946D01*
X171412378Y-39903039D01*
X170844093Y-39790000D01*
X170785907Y-39790000D01*
X170217622Y-39903039D01*
X169735853Y-40224946D01*
X169735029Y-40226179D01*
X169728162Y-40189683D01*
X169589090Y-39973559D01*
X169376890Y-39828569D01*
X169227500Y-39798317D01*
X169227500Y-35545601D01*
X169154995Y-35181095D01*
X169109084Y-35112385D01*
X169241571Y-34979899D01*
X169338244Y-34746510D01*
X169338244Y-33305750D01*
X169179494Y-33147000D01*
X168226994Y-33147000D01*
X168226994Y-33167000D01*
X167972994Y-33167000D01*
X167972994Y-33147000D01*
X167952994Y-33147000D01*
X167952994Y-32893000D01*
X167972994Y-32893000D01*
X167972994Y-30943550D01*
X168226994Y-30943550D01*
X168226994Y-32893000D01*
X169179494Y-32893000D01*
X169338244Y-32734250D01*
X169338244Y-31293490D01*
X169241571Y-31060101D01*
X169062942Y-30881473D01*
X168829553Y-30784800D01*
X168385744Y-30784800D01*
X168226994Y-30943550D01*
X167972994Y-30943550D01*
X167814244Y-30784800D01*
X167370435Y-30784800D01*
X167137046Y-30881473D01*
X167097725Y-30920794D01*
X166955138Y-30823369D01*
X166898553Y-30811910D01*
X167004824Y-30555982D01*
X167005176Y-30151792D01*
X166850825Y-29778234D01*
X166565269Y-29492179D01*
X166191982Y-29337176D01*
X165787792Y-29336824D01*
X165633684Y-29400500D01*
X164531802Y-29400500D01*
X164167296Y-29473005D01*
X163858282Y-29679481D01*
X163426483Y-30111281D01*
X163220007Y-30420294D01*
X163147502Y-30784800D01*
X163147502Y-30889952D01*
X163098625Y-30921404D01*
X162955146Y-30823369D01*
X162703256Y-30772360D01*
X161496756Y-30772360D01*
X161261439Y-30816638D01*
X161045315Y-30955710D01*
X160900325Y-31167910D01*
X160849316Y-31419800D01*
X160849316Y-34620200D01*
X160893594Y-34855517D01*
X160972500Y-34978140D01*
X160972500Y-39796847D01*
X160839683Y-39821838D01*
X160623559Y-39960910D01*
X160478569Y-40173110D01*
X160427560Y-40425000D01*
X160427560Y-42125000D01*
X160471838Y-42360317D01*
X160610910Y-42576441D01*
X160823110Y-42721431D01*
X160890541Y-42735086D01*
X160845853Y-42764946D01*
X160523946Y-43246715D01*
X160410907Y-43815000D01*
X157089093Y-43815000D01*
X156976054Y-43246715D01*
X156654147Y-42764946D01*
X156324974Y-42545000D01*
X156654147Y-42325054D01*
X156976054Y-41843285D01*
X157089093Y-41275000D01*
X156976054Y-40706715D01*
X156654147Y-40224946D01*
X156172378Y-39903039D01*
X155604093Y-39790000D01*
X155545907Y-39790000D01*
X154977622Y-39903039D01*
X154495853Y-40224946D01*
X154495029Y-40226179D01*
X154488162Y-40189683D01*
X154349090Y-39973559D01*
X154136890Y-39828569D01*
X153987500Y-39798317D01*
X153987500Y-35850959D01*
X154050403Y-35699472D01*
X154050755Y-35295282D01*
X153944162Y-35037308D01*
X154001571Y-34979899D01*
X154098244Y-34746510D01*
X154098244Y-33305750D01*
X153939494Y-33147000D01*
X152986994Y-33147000D01*
X152986994Y-33167000D01*
X152732994Y-33167000D01*
X152732994Y-33147000D01*
X152712994Y-33147000D01*
X152712994Y-32893000D01*
X152732994Y-32893000D01*
X152732994Y-30943550D01*
X152986994Y-30943550D01*
X152986994Y-32893000D01*
X153939494Y-32893000D01*
X154098244Y-32734250D01*
X154098244Y-31293490D01*
X154001571Y-31060101D01*
X153822942Y-30881473D01*
X153589553Y-30784800D01*
X153145744Y-30784800D01*
X152986994Y-30943550D01*
X152732994Y-30943550D01*
X152574244Y-30784800D01*
X152130435Y-30784800D01*
X151897046Y-30881473D01*
X151857725Y-30920794D01*
X151828500Y-30900826D01*
X151828500Y-30327482D01*
X151891824Y-30174982D01*
X151892176Y-29770792D01*
X151737825Y-29397234D01*
X151452269Y-29111179D01*
X151078982Y-28956176D01*
X150674792Y-28955824D01*
X150301234Y-29110175D01*
X150015179Y-29395731D01*
X149860176Y-29769018D01*
X149859824Y-30173208D01*
X149923500Y-30327316D01*
X149923500Y-30879655D01*
X149858621Y-30921404D01*
X149715142Y-30823369D01*
X149463252Y-30772360D01*
X148256752Y-30772360D01*
X148021435Y-30816638D01*
X147858625Y-30921404D01*
X147715146Y-30823369D01*
X147463256Y-30772360D01*
X146256756Y-30772360D01*
X146021439Y-30816638D01*
X145805315Y-30955710D01*
X145660325Y-31167910D01*
X145609316Y-31419800D01*
X145609316Y-34620200D01*
X145653594Y-34855517D01*
X145732500Y-34978140D01*
X145732500Y-39796847D01*
X145599683Y-39821838D01*
X145383559Y-39960910D01*
X145238569Y-40173110D01*
X145187560Y-40425000D01*
X145187560Y-42125000D01*
X145231838Y-42360317D01*
X145370910Y-42576441D01*
X145583110Y-42721431D01*
X145650541Y-42735086D01*
X145605853Y-42764946D01*
X145283946Y-43246715D01*
X145170907Y-43815000D01*
X145283946Y-44383285D01*
X145605853Y-44865054D01*
X146087622Y-45186961D01*
X146211877Y-45211677D01*
X145876777Y-45546777D01*
X145629006Y-45917593D01*
X145542000Y-46355000D01*
X145542000Y-47117000D01*
X141439349Y-47117000D01*
X141403162Y-46924683D01*
X141264090Y-46708559D01*
X141051890Y-46563569D01*
X140800000Y-46512560D01*
X138600000Y-46512560D01*
X138364683Y-46556838D01*
X138148559Y-46695910D01*
X138003569Y-46908110D01*
X137952560Y-47160000D01*
X137952560Y-48467716D01*
X136428621Y-46943777D01*
X136057805Y-46696006D01*
X135620398Y-46609000D01*
X129473000Y-46609000D01*
X129035593Y-46696006D01*
X128664777Y-46943777D01*
X127635746Y-47972808D01*
X127578339Y-47972758D01*
X127064697Y-48184990D01*
X126671371Y-48577630D01*
X126458243Y-49090900D01*
X126458164Y-49181196D01*
X124724798Y-47447830D01*
X124716993Y-47408592D01*
X124469222Y-47037776D01*
X124098406Y-46790005D01*
X123660999Y-46702999D01*
X119219001Y-46702999D01*
X118781594Y-46790005D01*
X118410778Y-47037776D01*
X117475746Y-47972808D01*
X117418339Y-47972758D01*
X116904697Y-48184990D01*
X116511371Y-48577630D01*
X116298243Y-49090900D01*
X116297758Y-49646661D01*
X116509990Y-50160303D01*
X116902630Y-50553629D01*
X117415900Y-50766757D01*
X117971661Y-50767242D01*
X118485303Y-50555010D01*
X118878629Y-50162370D01*
X118964949Y-49954488D01*
X119049990Y-50160303D01*
X119442630Y-50553629D01*
X119955900Y-50766757D01*
X120015363Y-50766809D01*
X122358919Y-53110365D01*
X121984697Y-53264990D01*
X121591371Y-53657630D01*
X121505051Y-53865512D01*
X121420010Y-53659697D01*
X121027370Y-53266371D01*
X120514100Y-53053243D01*
X119958339Y-53052758D01*
X119444697Y-53264990D01*
X119051371Y-53657630D01*
X118965051Y-53865512D01*
X118880010Y-53659697D01*
X118487370Y-53266371D01*
X117974100Y-53053243D01*
X117418339Y-53052758D01*
X116904697Y-53264990D01*
X116511371Y-53657630D01*
X116298243Y-54170900D01*
X116297758Y-54726661D01*
X116509990Y-55240303D01*
X116902630Y-55633629D01*
X117415900Y-55846757D01*
X117971661Y-55847242D01*
X118485303Y-55635010D01*
X118878629Y-55242370D01*
X118964949Y-55034488D01*
X119049990Y-55240303D01*
X119442630Y-55633629D01*
X119955900Y-55846757D01*
X120511661Y-55847242D01*
X121025303Y-55635010D01*
X121418629Y-55242370D01*
X121504949Y-55034488D01*
X121589990Y-55240303D01*
X121982630Y-55633629D01*
X122495900Y-55846757D01*
X123051661Y-55847242D01*
X123565303Y-55635010D01*
X123958629Y-55242370D01*
X124114806Y-54866252D01*
X133759000Y-64510446D01*
X133759000Y-66072730D01*
X133643812Y-66187717D01*
X133417258Y-66733319D01*
X133416743Y-67324089D01*
X133489015Y-67499001D01*
X130290188Y-67499001D01*
X130361742Y-67326681D01*
X130362257Y-66735911D01*
X130136656Y-66189914D01*
X129719283Y-65771812D01*
X129173681Y-65545258D01*
X129008560Y-65545114D01*
X125774223Y-62310777D01*
X125403407Y-62063006D01*
X124966000Y-61976000D01*
X119763000Y-61976000D01*
X119325593Y-62063006D01*
X118954777Y-62310777D01*
X115720669Y-65544885D01*
X115557911Y-65544743D01*
X115011914Y-65770344D01*
X114593812Y-66187717D01*
X114367258Y-66733319D01*
X114366743Y-67324089D01*
X104342000Y-67324089D01*
X104342000Y-43815000D01*
X114690907Y-43815000D01*
X114803946Y-44383285D01*
X115125853Y-44865054D01*
X115607622Y-45186961D01*
X116175907Y-45300000D01*
X116234093Y-45300000D01*
X116802378Y-45186961D01*
X117284147Y-44865054D01*
X117475000Y-44579422D01*
X117665853Y-44865054D01*
X118147622Y-45186961D01*
X118715907Y-45300000D01*
X118774093Y-45300000D01*
X119342378Y-45186961D01*
X119824147Y-44865054D01*
X120146054Y-44383285D01*
X120259093Y-43815000D01*
X120146054Y-43246715D01*
X119824147Y-42764946D01*
X119494974Y-42545000D01*
X119824147Y-42325054D01*
X120146054Y-41843285D01*
X120259093Y-41275000D01*
X120146054Y-40706715D01*
X119824147Y-40224946D01*
X119342378Y-39903039D01*
X118774093Y-39790000D01*
X118715907Y-39790000D01*
X118147622Y-39903039D01*
X117665853Y-40224946D01*
X117665029Y-40226179D01*
X117658162Y-40189683D01*
X117519090Y-39973559D01*
X117306890Y-39828569D01*
X117157500Y-39798317D01*
X117157500Y-35234854D01*
X117218573Y-35223362D01*
X117381383Y-35118596D01*
X117524862Y-35216631D01*
X117554502Y-35222633D01*
X117554502Y-36622817D01*
X117617339Y-36938723D01*
X117796285Y-37206534D01*
X118511466Y-37921714D01*
X118511468Y-37921717D01*
X118779280Y-38100663D01*
X119095185Y-38163500D01*
X119149472Y-38163500D01*
X119184731Y-38198821D01*
X119558018Y-38353824D01*
X119962208Y-38354176D01*
X120335766Y-38199825D01*
X120621821Y-37914269D01*
X120776824Y-37540982D01*
X120777176Y-37136792D01*
X120622825Y-36763234D01*
X120337269Y-36477179D01*
X120269143Y-36448890D01*
X120597208Y-36449176D01*
X120970766Y-36294825D01*
X121256821Y-36009269D01*
X121411824Y-35635982D01*
X121411980Y-35456800D01*
X121566175Y-35829980D01*
X121602500Y-35866368D01*
X121602500Y-39796847D01*
X121469683Y-39821838D01*
X121253559Y-39960910D01*
X121108569Y-40173110D01*
X121057560Y-40425000D01*
X121057560Y-42125000D01*
X121101838Y-42360317D01*
X121240910Y-42576441D01*
X121453110Y-42721431D01*
X121520541Y-42735086D01*
X121475853Y-42764946D01*
X121153946Y-43246715D01*
X121040907Y-43815000D01*
X121153946Y-44383285D01*
X121475853Y-44865054D01*
X121957622Y-45186961D01*
X122525907Y-45300000D01*
X122584093Y-45300000D01*
X123152378Y-45186961D01*
X123634147Y-44865054D01*
X123825000Y-44579422D01*
X124015853Y-44865054D01*
X124497622Y-45186961D01*
X125065907Y-45300000D01*
X125124093Y-45300000D01*
X125692378Y-45186961D01*
X126174147Y-44865054D01*
X126496054Y-44383285D01*
X126609093Y-43815000D01*
X126496054Y-43246715D01*
X126174147Y-42764946D01*
X125844974Y-42545000D01*
X126174147Y-42325054D01*
X126496054Y-41843285D01*
X126609093Y-41275000D01*
X126496054Y-40706715D01*
X126174147Y-40224946D01*
X125692378Y-39903039D01*
X125124093Y-39790000D01*
X125065907Y-39790000D01*
X124497622Y-39903039D01*
X124015853Y-40224946D01*
X124015029Y-40226179D01*
X124008162Y-40189683D01*
X123869090Y-39973559D01*
X123656890Y-39828569D01*
X123507500Y-39798317D01*
X123507500Y-35382214D01*
X123477890Y-35233356D01*
X129451100Y-35233356D01*
X129451100Y-38748600D01*
X129523605Y-39113106D01*
X129730081Y-39422119D01*
X130219807Y-39911845D01*
X130143559Y-39960910D01*
X129998569Y-40173110D01*
X129947560Y-40425000D01*
X129947560Y-42125000D01*
X129991838Y-42360317D01*
X130130910Y-42576441D01*
X130343110Y-42721431D01*
X130410541Y-42735086D01*
X130365853Y-42764946D01*
X130043946Y-43246715D01*
X129930907Y-43815000D01*
X130043946Y-44383285D01*
X130365853Y-44865054D01*
X130847622Y-45186961D01*
X131415907Y-45300000D01*
X131474093Y-45300000D01*
X132042378Y-45186961D01*
X132524147Y-44865054D01*
X132715000Y-44579422D01*
X132905853Y-44865054D01*
X133387622Y-45186961D01*
X133955907Y-45300000D01*
X134014093Y-45300000D01*
X134582378Y-45186961D01*
X135064147Y-44865054D01*
X135386054Y-44383285D01*
X135499093Y-43815000D01*
X135386054Y-43246715D01*
X135064147Y-42764946D01*
X134734974Y-42545000D01*
X135064147Y-42325054D01*
X135386054Y-41843285D01*
X135499093Y-41275000D01*
X135386054Y-40706715D01*
X135064147Y-40224946D01*
X134582378Y-39903039D01*
X134014093Y-39790000D01*
X133955907Y-39790000D01*
X133387622Y-39903039D01*
X132905853Y-40224946D01*
X132905029Y-40226179D01*
X132898162Y-40189683D01*
X132759090Y-39973559D01*
X132546890Y-39828569D01*
X132397500Y-39798317D01*
X132397500Y-39790000D01*
X132324995Y-39425494D01*
X132118519Y-39116481D01*
X131356100Y-38354062D01*
X131356100Y-35627894D01*
X131716354Y-35267640D01*
X132223256Y-35267640D01*
X132458573Y-35223362D01*
X132621383Y-35118596D01*
X132764862Y-35216631D01*
X132794502Y-35222633D01*
X132794502Y-36710498D01*
X132743179Y-36761731D01*
X132588176Y-37135018D01*
X132587824Y-37539208D01*
X132742175Y-37912766D01*
X133027731Y-38198821D01*
X133401018Y-38353824D01*
X133805208Y-38354176D01*
X134178766Y-38199825D01*
X134464821Y-37914269D01*
X134619824Y-37540982D01*
X134620176Y-37136792D01*
X134465825Y-36763234D01*
X134445502Y-36742875D01*
X134445502Y-36589029D01*
X134520181Y-36769766D01*
X134805737Y-37055821D01*
X135179024Y-37210824D01*
X135583214Y-37211176D01*
X135956772Y-37056825D01*
X136242827Y-36771269D01*
X136313992Y-36599885D01*
X136425502Y-36432998D01*
X136499993Y-36321514D01*
X136572498Y-35957008D01*
X136572498Y-35150048D01*
X136618783Y-35120264D01*
X136628515Y-35129996D01*
X136593057Y-35215388D01*
X136592705Y-35619578D01*
X136656381Y-35773686D01*
X136656381Y-39603881D01*
X136700864Y-39827513D01*
X136493559Y-39960910D01*
X136348569Y-40173110D01*
X136297560Y-40425000D01*
X136297560Y-42125000D01*
X136341838Y-42360317D01*
X136480910Y-42576441D01*
X136693110Y-42721431D01*
X136760541Y-42735086D01*
X136715853Y-42764946D01*
X136393946Y-43246715D01*
X136280907Y-43815000D01*
X136393946Y-44383285D01*
X136715853Y-44865054D01*
X137197622Y-45186961D01*
X137765907Y-45300000D01*
X137824093Y-45300000D01*
X138392378Y-45186961D01*
X138874147Y-44865054D01*
X139065000Y-44579422D01*
X139255853Y-44865054D01*
X139737622Y-45186961D01*
X140305907Y-45300000D01*
X140364093Y-45300000D01*
X140932378Y-45186961D01*
X141414147Y-44865054D01*
X141736054Y-44383285D01*
X141849093Y-43815000D01*
X141736054Y-43246715D01*
X141414147Y-42764946D01*
X141084974Y-42545000D01*
X141414147Y-42325054D01*
X141736054Y-41843285D01*
X141849093Y-41275000D01*
X141736054Y-40706715D01*
X141414147Y-40224946D01*
X140932378Y-39903039D01*
X140364093Y-39790000D01*
X140305907Y-39790000D01*
X139737622Y-39903039D01*
X139255853Y-40224946D01*
X139255029Y-40226179D01*
X139248162Y-40189683D01*
X139109090Y-39973559D01*
X138896890Y-39828569D01*
X138747500Y-39798317D01*
X138747500Y-39790000D01*
X138674995Y-39425494D01*
X138561381Y-39255459D01*
X138561381Y-35773852D01*
X138624705Y-35621352D01*
X138625057Y-35217162D01*
X138595600Y-35145870D01*
X138761571Y-34979899D01*
X138858244Y-34746510D01*
X138858244Y-33305750D01*
X138699494Y-33147000D01*
X137746994Y-33147000D01*
X137746994Y-33167000D01*
X137492994Y-33167000D01*
X137492994Y-33147000D01*
X137472994Y-33147000D01*
X137472994Y-32893000D01*
X137492994Y-32893000D01*
X137492994Y-30943550D01*
X137746994Y-30943550D01*
X137746994Y-32893000D01*
X138699494Y-32893000D01*
X138858244Y-32734250D01*
X138858244Y-31293490D01*
X138761571Y-31060101D01*
X138582942Y-30881473D01*
X138349553Y-30784800D01*
X137905744Y-30784800D01*
X137746994Y-30943550D01*
X137492994Y-30943550D01*
X137334244Y-30784800D01*
X136890435Y-30784800D01*
X136657046Y-30881473D01*
X136617725Y-30920794D01*
X136608441Y-30914451D01*
X136651820Y-30809982D01*
X136652172Y-30405792D01*
X136497821Y-30032234D01*
X136212265Y-29746179D01*
X135838978Y-29591176D01*
X135434788Y-29590824D01*
X135061230Y-29745175D01*
X135022052Y-29784285D01*
X134720146Y-29844337D01*
X134452335Y-30023283D01*
X133703258Y-30772360D01*
X133016752Y-30772360D01*
X132781435Y-30816638D01*
X132618625Y-30921404D01*
X132475146Y-30823369D01*
X132223256Y-30772360D01*
X131016756Y-30772360D01*
X130781439Y-30816638D01*
X130565315Y-30955710D01*
X130420325Y-31167910D01*
X130369316Y-31419800D01*
X130369316Y-33920602D01*
X129730081Y-34559837D01*
X129523605Y-34868850D01*
X129451100Y-35233356D01*
X123477890Y-35233356D01*
X123444167Y-35063821D01*
X123444173Y-35057296D01*
X123521571Y-34979899D01*
X123618244Y-34746510D01*
X123618244Y-33305750D01*
X123459494Y-33147000D01*
X122506994Y-33147000D01*
X122506994Y-33167000D01*
X122252994Y-33167000D01*
X122252994Y-33147000D01*
X122232994Y-33147000D01*
X122232994Y-32893000D01*
X122252994Y-32893000D01*
X122252994Y-30943550D01*
X122506994Y-30943550D01*
X122506994Y-32893000D01*
X123459494Y-32893000D01*
X123618244Y-32734250D01*
X123618244Y-31293490D01*
X123521571Y-31060101D01*
X123342942Y-30881473D01*
X123109553Y-30784800D01*
X122665744Y-30784800D01*
X122506994Y-30943550D01*
X122252994Y-30943550D01*
X122094244Y-30784800D01*
X121650435Y-30784800D01*
X121417046Y-30881473D01*
X121377725Y-30920794D01*
X121320074Y-30881404D01*
X121395822Y-30698984D01*
X121396174Y-30294794D01*
X121241823Y-29921236D01*
X120956267Y-29635181D01*
X120582980Y-29480178D01*
X120178790Y-29479826D01*
X120024682Y-29543502D01*
X118668800Y-29543502D01*
X118304294Y-29616007D01*
X117995281Y-29822483D01*
X117706483Y-30111281D01*
X117500007Y-30420294D01*
X117427502Y-30784800D01*
X117427502Y-30889952D01*
X117378625Y-30921404D01*
X117235146Y-30823369D01*
X116983256Y-30772360D01*
X115776756Y-30772360D01*
X115541439Y-30816638D01*
X115325315Y-30955710D01*
X115180325Y-31167910D01*
X115129316Y-31419800D01*
X115129316Y-34620200D01*
X115173594Y-34855517D01*
X115252500Y-34978140D01*
X115252500Y-39796847D01*
X115119683Y-39821838D01*
X114903559Y-39960910D01*
X114758569Y-40173110D01*
X114707560Y-40425000D01*
X114707560Y-42125000D01*
X114751838Y-42360317D01*
X114890910Y-42576441D01*
X115103110Y-42721431D01*
X115170541Y-42735086D01*
X115125853Y-42764946D01*
X114803946Y-43246715D01*
X114690907Y-43815000D01*
X104342000Y-43815000D01*
X104342000Y-38010054D01*
X105139811Y-38809259D01*
X106548825Y-39394333D01*
X108074482Y-39395664D01*
X109484515Y-38813050D01*
X110564259Y-37735189D01*
X111149333Y-36326175D01*
X111150664Y-34800518D01*
X110568050Y-33390485D01*
X109490189Y-32310741D01*
X108081175Y-31725667D01*
X106555518Y-31724336D01*
X105145485Y-32306950D01*
X104342000Y-33109034D01*
X104342000Y-24257000D01*
X112182535Y-24257000D01*
X112182535Y-29500322D01*
M02*
