G04 #@! TF.GenerationSoftware,KiCad,Pcbnew,(5.0.0-rc2-dev-670-ga3770bf6e)*
G04 #@! TF.CreationDate,2018-05-07T21:03:45-05:00*
G04 #@! TF.ProjectId,KarkPower,4B61726B506F7765722E6B696361645F,rev?*
G04 #@! TF.SameCoordinates,Original*
G04 #@! TF.FileFunction,Copper,L2,Bot,Signal*
G04 #@! TF.FilePolarity,Positive*
%FSLAX46Y46*%
G04 Gerber Fmt 4.6, Leading zero omitted, Abs format (unit mm)*
G04 Created by KiCad (PCBNEW (5.0.0-rc2-dev-670-ga3770bf6e)) date Mon May  7 21:03:45 2018*
%MOMM*%
%LPD*%
G01*
G04 APERTURE LIST*
%ADD10C,0.150000*%
%ADD11R,1.206500X3.200400*%
%ADD12R,1.700022X5.299964*%
%ADD13C,1.700000*%
%ADD14C,3.556000*%
%ADD15C,1.524000*%
%ADD16R,1.800000X1.800000*%
%ADD17C,1.800000*%
%ADD18R,1.700000X1.700000*%
%ADD19O,1.700000X1.700000*%
%ADD20C,6.400000*%
%ADD21C,1.520000*%
%ADD22R,1.520000X1.520000*%
%ADD23C,1.400000*%
%ADD24O,1.400000X1.400000*%
%ADD25R,1.600000X1.600000*%
%ADD26O,1.600000X1.600000*%
%ADD27C,1.270000*%
%ADD28C,1.016000*%
%ADD29C,0.635000*%
%ADD30C,1.905000*%
%ADD31C,0.254000*%
G04 APERTURE END LIST*
D10*
X103632000Y-22987000D02*
X195072000Y-22987000D01*
X103632000Y-80010000D02*
X195072000Y-80010000D01*
X103632000Y-22987000D02*
X103632000Y-80010000D01*
X195072000Y-22987000D02*
X195072000Y-80010000D01*
D11*
X123014994Y-70485000D03*
X121014998Y-70485000D03*
X119015002Y-70485000D03*
X117015006Y-70485000D03*
D12*
X125715014Y-76654660D03*
X114314986Y-76654660D03*
D11*
X116380006Y-33020000D03*
X118380002Y-33020000D03*
X120379998Y-33020000D03*
X122379994Y-33020000D03*
D12*
X113679986Y-26850340D03*
X125080014Y-26850340D03*
D11*
X131620006Y-33020000D03*
X133620002Y-33020000D03*
X135619998Y-33020000D03*
X137619994Y-33020000D03*
D12*
X128919986Y-26850340D03*
X140320014Y-26850340D03*
D11*
X146860006Y-33020000D03*
X148860002Y-33020000D03*
X150859998Y-33020000D03*
X152859994Y-33020000D03*
D12*
X144159986Y-26850340D03*
X155560014Y-26850340D03*
D13*
X162070000Y-36965000D03*
X165570000Y-33965000D03*
X162070000Y-33965000D03*
X165570000Y-36965000D03*
D14*
X163830000Y-26035000D03*
D13*
X152555000Y-67030000D03*
X156055000Y-67030000D03*
D14*
X154295000Y-74860000D03*
D13*
X143020000Y-66960000D03*
X146520000Y-66960000D03*
D14*
X144760000Y-74790000D03*
D13*
X133495000Y-66960000D03*
X136995000Y-66960000D03*
D14*
X135235000Y-74790000D03*
D13*
X175095000Y-33865000D03*
X171595000Y-33865000D03*
D14*
X173355000Y-26035000D03*
D13*
X171605000Y-67030000D03*
X175105000Y-67030000D03*
D14*
X173345000Y-74860000D03*
D13*
X181120000Y-66960000D03*
X184620000Y-66960000D03*
D14*
X182860000Y-74790000D03*
D13*
X184630000Y-33935000D03*
X181130000Y-33935000D03*
D14*
X182890000Y-26105000D03*
D13*
X162070000Y-66960000D03*
X165570000Y-66960000D03*
D14*
X163810000Y-74790000D03*
D15*
X173990000Y-48895000D03*
X168910000Y-48895000D03*
X166370000Y-48895000D03*
X163830000Y-48895000D03*
X163830000Y-43815000D03*
X166370000Y-43815000D03*
X168910000Y-43815000D03*
X173990000Y-43815000D03*
D16*
X134620000Y-57785000D03*
D17*
X134620000Y-55245000D03*
D18*
X116205000Y-41275000D03*
D19*
X118745000Y-41275000D03*
X116205000Y-43815000D03*
X118745000Y-43815000D03*
D18*
X131445000Y-41275000D03*
D19*
X133985000Y-41275000D03*
X131445000Y-43815000D03*
X133985000Y-43815000D03*
D18*
X123190000Y-41275000D03*
D19*
X125730000Y-41275000D03*
X123190000Y-43815000D03*
X125730000Y-43815000D03*
D18*
X138430000Y-41275000D03*
D19*
X140970000Y-41275000D03*
X138430000Y-43815000D03*
X140970000Y-43815000D03*
D18*
X123190000Y-65405000D03*
D19*
X120650000Y-65405000D03*
X123190000Y-62865000D03*
X120650000Y-62865000D03*
D15*
X114935000Y-57785000D03*
X114935000Y-55245000D03*
X114935000Y-52705000D03*
X114935000Y-50165000D03*
X114935000Y-47625000D03*
D20*
X107315000Y-35560000D03*
X191770000Y-35560000D03*
X107315000Y-74930000D03*
X191770000Y-74930000D03*
D21*
X183515000Y-52705000D03*
X180975000Y-52705000D03*
D22*
X186055000Y-52705000D03*
D21*
X183515000Y-57785000D03*
X180975000Y-57785000D03*
D22*
X186055000Y-57785000D03*
D18*
X192405000Y-52705000D03*
D19*
X189865000Y-52705000D03*
D18*
X192405000Y-46355000D03*
D19*
X189865000Y-46355000D03*
D23*
X134620000Y-47625000D03*
D24*
X134620000Y-52705000D03*
D23*
X179705000Y-48895000D03*
D24*
X179705000Y-43815000D03*
D23*
X184785000Y-43815000D03*
D24*
X184785000Y-48895000D03*
D23*
X177165000Y-48895000D03*
D24*
X177165000Y-43815000D03*
D23*
X172085000Y-58420000D03*
D24*
X177165000Y-58420000D03*
D23*
X182245000Y-43815000D03*
D24*
X182245000Y-48895000D03*
D25*
X170815000Y-52705000D03*
D26*
X178435000Y-52705000D03*
X178435000Y-55880000D03*
D25*
X170815000Y-55880000D03*
D27*
X122428000Y-29718000D03*
X137668000Y-29718000D03*
X144526000Y-32512000D03*
X152908000Y-28702000D03*
X116332000Y-62738000D03*
X147002510Y-29844468D03*
X120650000Y-73660000D03*
X132588000Y-36068000D03*
X147319996Y-36068000D03*
X119888000Y-28194000D03*
X116840000Y-67564000D03*
X148590012Y-37465000D03*
X148590000Y-29845000D03*
X133350000Y-29845000D03*
X118968010Y-74600829D03*
X133549802Y-37504180D03*
X118300510Y-29828289D03*
X129032000Y-33782000D03*
X129032000Y-40132000D03*
X173990000Y-55245004D03*
D28*
X173990000Y-48895000D02*
X176530000Y-51435000D01*
X176530000Y-53975000D02*
X178435000Y-55880000D01*
X176530000Y-51435000D02*
X176530000Y-53975000D01*
D29*
X116380006Y-32023050D02*
X115316000Y-30959044D01*
X116380006Y-33020000D02*
X116380006Y-32023050D01*
X115316000Y-30959044D02*
X115316000Y-28194000D01*
X115316000Y-28194000D02*
X116840000Y-26670000D01*
X116840000Y-26670000D02*
X121666000Y-26670000D01*
X121666000Y-26670000D02*
X122428000Y-27432000D01*
X122428000Y-27432000D02*
X122428000Y-29718000D01*
X131620006Y-30784800D02*
X131318000Y-30482794D01*
X131620006Y-33020000D02*
X131620006Y-30784800D01*
X131318000Y-30482794D02*
X131318000Y-28956000D01*
X131318000Y-28956000D02*
X132080000Y-28194000D01*
X132080000Y-28194000D02*
X136144000Y-28194000D01*
X136144000Y-28194000D02*
X137668000Y-29718000D01*
X130381756Y-33020000D02*
X131620006Y-33020000D01*
X128603756Y-31242000D02*
X130381756Y-33020000D01*
X122428000Y-29718000D02*
X122936000Y-29718000D01*
X124460000Y-31242000D02*
X128603756Y-31242000D01*
X122936000Y-29718000D02*
X124460000Y-31242000D01*
X146352006Y-32512000D02*
X146860006Y-33020000D01*
X144526000Y-32512000D02*
X146352006Y-32512000D01*
X147066000Y-27178000D02*
X151384000Y-27178000D01*
X151384000Y-27178000D02*
X152908000Y-28702000D01*
X145796000Y-28448000D02*
X147066000Y-27178000D01*
X145796000Y-31242000D02*
X145796000Y-28448000D01*
X144526000Y-32512000D02*
X145796000Y-31242000D01*
X116332000Y-63190822D02*
X116332000Y-62738000D01*
X120959178Y-67818000D02*
X116332000Y-63190822D01*
X121666000Y-67818000D02*
X120959178Y-67818000D01*
X121666000Y-67903850D02*
X121666000Y-67818000D01*
X123014994Y-70485000D02*
X123014994Y-69252844D01*
X123014994Y-69252844D02*
X121666000Y-67903850D01*
X152859994Y-35255200D02*
X152859994Y-33020000D01*
X145150193Y-42965001D02*
X152859994Y-35255200D01*
X141819999Y-42965001D02*
X145150193Y-42965001D01*
X140970000Y-43815000D02*
X141819999Y-42965001D01*
X125730000Y-44450000D02*
X125730000Y-43815000D01*
X120650000Y-62865000D02*
X120650000Y-49530000D01*
X120650000Y-49530000D02*
X125730000Y-44450000D01*
X147373953Y-28575000D02*
X147002510Y-28946443D01*
X147002510Y-28946443D02*
X147002510Y-29844468D01*
X150650194Y-28575000D02*
X147373953Y-28575000D01*
X152859994Y-33020000D02*
X152859994Y-30784800D01*
X152859994Y-30784800D02*
X150650194Y-28575000D01*
D28*
X125730000Y-63500000D02*
X125730000Y-60198000D01*
X125730000Y-60198000D02*
X125730000Y-43815000D01*
X131572000Y-69342000D02*
X125730000Y-63500000D01*
X156055000Y-67030000D02*
X153743000Y-69342000D01*
X153743000Y-69342000D02*
X131572000Y-69342000D01*
X122428000Y-60198000D02*
X125730000Y-60198000D01*
X120650000Y-62865000D02*
X120650000Y-61976000D01*
X120650000Y-61976000D02*
X122428000Y-60198000D01*
D29*
X117015006Y-70485000D02*
X117015006Y-74851006D01*
X117015006Y-74851006D02*
X118110000Y-75946000D01*
X118110000Y-75946000D02*
X120650000Y-75946000D01*
X120650000Y-75946000D02*
X122936000Y-73660000D01*
X122936000Y-73660000D02*
X123698000Y-73660000D01*
X123698000Y-73660000D02*
X126238000Y-71120000D01*
X126238000Y-64008000D02*
X125730000Y-63500000D01*
X126238000Y-71120000D02*
X126238000Y-64008000D01*
X121014998Y-70485000D02*
X121014998Y-73295002D01*
X121014998Y-73295002D02*
X120650000Y-73660000D01*
X132807202Y-36068000D02*
X132588000Y-36068000D01*
X133620002Y-33020000D02*
X133620002Y-35255200D01*
X133620002Y-35255200D02*
X132807202Y-36068000D01*
X148860002Y-35255200D02*
X148047202Y-36068000D01*
X148047202Y-36068000D02*
X147319996Y-36068000D01*
X148860002Y-33020000D02*
X148860002Y-35255200D01*
X117856000Y-28194000D02*
X118989975Y-28194000D01*
X118989975Y-28194000D02*
X119888000Y-28194000D01*
X116840000Y-29210000D02*
X117856000Y-28194000D01*
X116840000Y-30247842D02*
X116840000Y-29210000D01*
X118380002Y-31787844D02*
X116840000Y-30247842D01*
X118380002Y-33020000D02*
X118380002Y-31787844D01*
X115823999Y-35814000D02*
X111886989Y-39751010D01*
X116205001Y-66929001D02*
X116840000Y-67564000D01*
X117821202Y-35814000D02*
X115823999Y-35814000D01*
X111886989Y-62610989D02*
X116205001Y-66929001D01*
X118380002Y-33020000D02*
X118380002Y-35255200D01*
X118380002Y-35255200D02*
X117821202Y-35814000D01*
X111886989Y-39751010D02*
X111886989Y-62610989D01*
X150859998Y-35255200D02*
X148650198Y-37465000D01*
X150859998Y-33020000D02*
X150859998Y-35255200D01*
X148650198Y-37465000D02*
X148590012Y-37465000D01*
X150859998Y-30784800D02*
X149920198Y-29845000D01*
X150859998Y-33020000D02*
X150859998Y-30784800D01*
X149920198Y-29845000D02*
X148590000Y-29845000D01*
X134680198Y-29845000D02*
X133350000Y-29845000D01*
X135619998Y-33020000D02*
X135619998Y-30784800D01*
X135619998Y-30784800D02*
X134680198Y-29845000D01*
X119015002Y-74553837D02*
X118968010Y-74600829D01*
X119015002Y-70485000D02*
X119015002Y-74553837D01*
X135619998Y-35433984D02*
X134184801Y-36869181D01*
X135619998Y-33020000D02*
X135619998Y-35433984D01*
X134184801Y-36869181D02*
X133549802Y-37504180D01*
X119423487Y-29828289D02*
X119198535Y-29828289D01*
X119198535Y-29828289D02*
X118300510Y-29828289D01*
X120379998Y-30784800D02*
X119423487Y-29828289D01*
X120379998Y-33020000D02*
X120379998Y-30784800D01*
X118932187Y-36703011D02*
X120379998Y-35255200D01*
X120379998Y-35255200D02*
X120379998Y-33020000D01*
X112776000Y-61405121D02*
X112776000Y-40119250D01*
X119015002Y-70485000D02*
X119015002Y-67644123D01*
X116192239Y-36703011D02*
X118932187Y-36703011D01*
X119015002Y-67644123D02*
X112776000Y-61405121D01*
X112776000Y-40119250D02*
X116192239Y-36703011D01*
X128397001Y-39497001D02*
X129032000Y-40132000D01*
X129032000Y-33782000D02*
X128397001Y-34416999D01*
X128397001Y-34416999D02*
X128397001Y-39497001D01*
X123190000Y-33830006D02*
X122379994Y-33020000D01*
X123190000Y-41275000D02*
X123190000Y-33830006D01*
X138430000Y-33830006D02*
X137619994Y-33020000D01*
X138430000Y-41275000D02*
X138430000Y-33830006D01*
X120650000Y-43180000D02*
X119594999Y-42124999D01*
X119594999Y-42124999D02*
X118745000Y-41275000D01*
X120650000Y-45720000D02*
X120650000Y-43180000D01*
X114935000Y-47625000D02*
X118745000Y-47625000D01*
X118745000Y-47625000D02*
X120650000Y-45720000D01*
X118745000Y-51435000D02*
X115696999Y-48386999D01*
X120650000Y-65405000D02*
X118745000Y-63500000D01*
X115696999Y-48386999D02*
X114935000Y-47625000D01*
X118745000Y-63500000D02*
X118745000Y-51435000D01*
D30*
X175105000Y-56360000D02*
X173990000Y-55245000D01*
X171450000Y-49530000D02*
X171450000Y-38735000D01*
X166680000Y-33965000D02*
X165570000Y-33965000D01*
X171450000Y-38735000D02*
X166680000Y-33965000D01*
X175105000Y-67030000D02*
X175105000Y-56360000D01*
X173990000Y-55245000D02*
X173990000Y-52070000D01*
X173990000Y-52070000D02*
X171450000Y-49530000D01*
X173990000Y-55245000D02*
X173990000Y-55245004D01*
D31*
G36*
X160655000Y-25403453D02*
X160655000Y-26666547D01*
X161138365Y-27833493D01*
X162031507Y-28726635D01*
X163198453Y-29210000D01*
X164461547Y-29210000D01*
X165628493Y-28726635D01*
X166521635Y-27833493D01*
X167005000Y-26666547D01*
X167005000Y-25403453D01*
X166613795Y-24459000D01*
X170571205Y-24459000D01*
X170180000Y-25403453D01*
X170180000Y-26666547D01*
X170663365Y-27833493D01*
X171556507Y-28726635D01*
X172723453Y-29210000D01*
X173986547Y-29210000D01*
X175153493Y-28726635D01*
X176046635Y-27833493D01*
X176530000Y-26666547D01*
X176530000Y-25403453D01*
X176138896Y-24459244D01*
X180130455Y-24470456D01*
X179715000Y-25473453D01*
X179715000Y-26736547D01*
X180198365Y-27903493D01*
X181091507Y-28796635D01*
X182258453Y-29280000D01*
X183521547Y-29280000D01*
X184688493Y-28796635D01*
X185581635Y-27903493D01*
X186065000Y-26736547D01*
X186065000Y-25473453D01*
X185655974Y-24485977D01*
X193600000Y-24508292D01*
X193600000Y-31342253D01*
X192684400Y-30963000D01*
X190855600Y-30963000D01*
X189166008Y-31662851D01*
X187872851Y-32956008D01*
X187173000Y-34645600D01*
X187173000Y-36474400D01*
X187872851Y-38163992D01*
X189166008Y-39457149D01*
X190855600Y-40157000D01*
X192684400Y-40157000D01*
X193600000Y-39777746D01*
X193600000Y-44960585D01*
X193381310Y-44870000D01*
X192690750Y-44870000D01*
X192532000Y-45028750D01*
X192532000Y-46228000D01*
X192552000Y-46228000D01*
X192552000Y-46482000D01*
X192532000Y-46482000D01*
X192532000Y-47681250D01*
X192690750Y-47840000D01*
X193381310Y-47840000D01*
X193600000Y-47749415D01*
X193600000Y-51310585D01*
X193381310Y-51220000D01*
X192690750Y-51220000D01*
X192532000Y-51378750D01*
X192532000Y-52578000D01*
X192552000Y-52578000D01*
X192552000Y-52832000D01*
X192532000Y-52832000D01*
X192532000Y-54031250D01*
X192690750Y-54190000D01*
X193381310Y-54190000D01*
X193600001Y-54099415D01*
X193600001Y-70712254D01*
X192684400Y-70333000D01*
X190855600Y-70333000D01*
X189166008Y-71032851D01*
X187872851Y-72326008D01*
X187173000Y-74015600D01*
X187173000Y-75844400D01*
X187872851Y-77533992D01*
X188876859Y-78538000D01*
X127989393Y-78538000D01*
X127989393Y-74158453D01*
X132060000Y-74158453D01*
X132060000Y-75421547D01*
X132543365Y-76588493D01*
X133436507Y-77481635D01*
X134603453Y-77965000D01*
X135866547Y-77965000D01*
X137033493Y-77481635D01*
X137926635Y-76588493D01*
X138410000Y-75421547D01*
X138410000Y-74158453D01*
X141585000Y-74158453D01*
X141585000Y-75421547D01*
X142068365Y-76588493D01*
X142961507Y-77481635D01*
X144128453Y-77965000D01*
X145391547Y-77965000D01*
X146558493Y-77481635D01*
X147451635Y-76588493D01*
X147935000Y-75421547D01*
X147935000Y-74228453D01*
X151120000Y-74228453D01*
X151120000Y-75491547D01*
X151603365Y-76658493D01*
X152496507Y-77551635D01*
X153663453Y-78035000D01*
X154926547Y-78035000D01*
X156093493Y-77551635D01*
X156986635Y-76658493D01*
X157470000Y-75491547D01*
X157470000Y-74228453D01*
X157441006Y-74158453D01*
X160635000Y-74158453D01*
X160635000Y-75421547D01*
X161118365Y-76588493D01*
X162011507Y-77481635D01*
X163178453Y-77965000D01*
X164441547Y-77965000D01*
X165608493Y-77481635D01*
X166501635Y-76588493D01*
X166985000Y-75421547D01*
X166985000Y-74228453D01*
X170170000Y-74228453D01*
X170170000Y-75491547D01*
X170653365Y-76658493D01*
X171546507Y-77551635D01*
X172713453Y-78035000D01*
X173976547Y-78035000D01*
X175143493Y-77551635D01*
X176036635Y-76658493D01*
X176520000Y-75491547D01*
X176520000Y-74228453D01*
X176491006Y-74158453D01*
X179685000Y-74158453D01*
X179685000Y-75421547D01*
X180168365Y-76588493D01*
X181061507Y-77481635D01*
X182228453Y-77965000D01*
X183491547Y-77965000D01*
X184658493Y-77481635D01*
X185551635Y-76588493D01*
X186035000Y-75421547D01*
X186035000Y-74158453D01*
X185551635Y-72991507D01*
X184658493Y-72098365D01*
X183491547Y-71615000D01*
X182228453Y-71615000D01*
X181061507Y-72098365D01*
X180168365Y-72991507D01*
X179685000Y-74158453D01*
X176491006Y-74158453D01*
X176036635Y-73061507D01*
X175143493Y-72168365D01*
X173976547Y-71685000D01*
X172713453Y-71685000D01*
X171546507Y-72168365D01*
X170653365Y-73061507D01*
X170170000Y-74228453D01*
X166985000Y-74228453D01*
X166985000Y-74158453D01*
X166501635Y-72991507D01*
X165608493Y-72098365D01*
X164441547Y-71615000D01*
X163178453Y-71615000D01*
X162011507Y-72098365D01*
X161118365Y-72991507D01*
X160635000Y-74158453D01*
X157441006Y-74158453D01*
X156986635Y-73061507D01*
X156093493Y-72168365D01*
X154926547Y-71685000D01*
X153663453Y-71685000D01*
X152496507Y-72168365D01*
X151603365Y-73061507D01*
X151120000Y-74228453D01*
X147935000Y-74228453D01*
X147935000Y-74158453D01*
X147451635Y-72991507D01*
X146558493Y-72098365D01*
X145391547Y-71615000D01*
X144128453Y-71615000D01*
X142961507Y-72098365D01*
X142068365Y-72991507D01*
X141585000Y-74158453D01*
X138410000Y-74158453D01*
X137926635Y-72991507D01*
X137033493Y-72098365D01*
X135866547Y-71615000D01*
X134603453Y-71615000D01*
X133436507Y-72098365D01*
X132543365Y-72991507D01*
X132060000Y-74158453D01*
X127989393Y-74158453D01*
X127989393Y-74004678D01*
X127880969Y-73459596D01*
X127572205Y-72997498D01*
X127110107Y-72688734D01*
X127096619Y-72686051D01*
X127330931Y-72451739D01*
X127474086Y-72356086D01*
X127853024Y-71788965D01*
X127952500Y-71288864D01*
X127952500Y-71288863D01*
X127986089Y-71120001D01*
X127952500Y-70951138D01*
X127952500Y-68416577D01*
X130092292Y-70556369D01*
X130198572Y-70715428D01*
X130357631Y-70821708D01*
X130357633Y-70821710D01*
X130828705Y-71136471D01*
X130916649Y-71153964D01*
X131384374Y-71247000D01*
X131384378Y-71247000D01*
X131572000Y-71284320D01*
X131759622Y-71247000D01*
X153555379Y-71247000D01*
X153743000Y-71284320D01*
X153930621Y-71247000D01*
X153930626Y-71247000D01*
X154486294Y-71136471D01*
X155116428Y-70715428D01*
X155222710Y-70556366D01*
X156502162Y-69276915D01*
X157327823Y-68934914D01*
X157959914Y-68302823D01*
X158302000Y-67476956D01*
X158302000Y-66583044D01*
X158273005Y-66513044D01*
X159823000Y-66513044D01*
X159823000Y-67406956D01*
X160165086Y-68232823D01*
X160797177Y-68864914D01*
X161623044Y-69207000D01*
X162516956Y-69207000D01*
X163342823Y-68864914D01*
X163820000Y-68387737D01*
X164297177Y-68864914D01*
X165123044Y-69207000D01*
X166016956Y-69207000D01*
X166842823Y-68864914D01*
X167474914Y-68232823D01*
X167540718Y-68073958D01*
X170740647Y-68073958D01*
X170820920Y-68325259D01*
X171376279Y-68526718D01*
X171966458Y-68500315D01*
X172389080Y-68325259D01*
X172469353Y-68073958D01*
X171605000Y-67209605D01*
X170740647Y-68073958D01*
X167540718Y-68073958D01*
X167817000Y-67406956D01*
X167817000Y-66801279D01*
X170108282Y-66801279D01*
X170134685Y-67391458D01*
X170309741Y-67814080D01*
X170561042Y-67894353D01*
X171425395Y-67030000D01*
X170561042Y-66165647D01*
X170309741Y-66245920D01*
X170108282Y-66801279D01*
X167817000Y-66801279D01*
X167817000Y-66513044D01*
X167598709Y-65986042D01*
X170740647Y-65986042D01*
X171605000Y-66850395D01*
X172469353Y-65986042D01*
X172389080Y-65734741D01*
X171833721Y-65533282D01*
X171243542Y-65559685D01*
X170820920Y-65734741D01*
X170740647Y-65986042D01*
X167598709Y-65986042D01*
X167474914Y-65687177D01*
X166842823Y-65055086D01*
X166016956Y-64713000D01*
X165123044Y-64713000D01*
X164297177Y-65055086D01*
X163820000Y-65532263D01*
X163342823Y-65055086D01*
X162516956Y-64713000D01*
X161623044Y-64713000D01*
X160797177Y-65055086D01*
X160165086Y-65687177D01*
X159823000Y-66513044D01*
X158273005Y-66513044D01*
X157959914Y-65757177D01*
X157327823Y-65125086D01*
X156501956Y-64783000D01*
X155608044Y-64783000D01*
X154782177Y-65125086D01*
X154305000Y-65602263D01*
X153827823Y-65125086D01*
X153001956Y-64783000D01*
X152108044Y-64783000D01*
X151282177Y-65125086D01*
X150650086Y-65757177D01*
X150308000Y-66583044D01*
X150308000Y-67437000D01*
X148754555Y-67437000D01*
X148767000Y-67406956D01*
X148767000Y-66513044D01*
X148424914Y-65687177D01*
X147792823Y-65055086D01*
X146966956Y-64713000D01*
X146073044Y-64713000D01*
X145247177Y-65055086D01*
X144770000Y-65532263D01*
X144292823Y-65055086D01*
X143466956Y-64713000D01*
X142573044Y-64713000D01*
X141747177Y-65055086D01*
X141115086Y-65687177D01*
X140773000Y-66513044D01*
X140773000Y-67406956D01*
X140785445Y-67437000D01*
X139229555Y-67437000D01*
X139242000Y-67406956D01*
X139242000Y-66513044D01*
X138899914Y-65687177D01*
X138267823Y-65055086D01*
X137441956Y-64713000D01*
X136548044Y-64713000D01*
X135722177Y-65055086D01*
X135245000Y-65532263D01*
X134767823Y-65055086D01*
X133941956Y-64713000D01*
X133048044Y-64713000D01*
X132222177Y-65055086D01*
X131590086Y-65687177D01*
X131303392Y-66379316D01*
X127635000Y-62710924D01*
X127635000Y-60385625D01*
X127672321Y-60198000D01*
X127635000Y-60010374D01*
X127635000Y-56885000D01*
X132295632Y-56885000D01*
X132295632Y-58685000D01*
X132404056Y-59230082D01*
X132712820Y-59692180D01*
X133174918Y-60000944D01*
X133720000Y-60109368D01*
X135520000Y-60109368D01*
X136065082Y-60000944D01*
X136527180Y-59692180D01*
X136835944Y-59230082D01*
X136944368Y-58685000D01*
X136944368Y-56885000D01*
X136835944Y-56339918D01*
X136722840Y-56170646D01*
X136917000Y-55701902D01*
X136917000Y-54788098D01*
X136567303Y-53943854D01*
X136415617Y-53792168D01*
X136595330Y-53523209D01*
X136758082Y-52705000D01*
X136595330Y-51886791D01*
X136131852Y-51193148D01*
X135438209Y-50729670D01*
X134826533Y-50608000D01*
X134413467Y-50608000D01*
X133801791Y-50729670D01*
X133108148Y-51193148D01*
X132644670Y-51886791D01*
X132481918Y-52705000D01*
X132644670Y-53523209D01*
X132824383Y-53792168D01*
X132672697Y-53943854D01*
X132323000Y-54788098D01*
X132323000Y-55701902D01*
X132517160Y-56170646D01*
X132404056Y-56339918D01*
X132295632Y-56885000D01*
X127635000Y-56885000D01*
X127635000Y-45008458D01*
X127846627Y-44691736D01*
X128021021Y-43815000D01*
X127846627Y-42938264D01*
X127583856Y-42545000D01*
X127846627Y-42151736D01*
X127903837Y-41864120D01*
X128627810Y-42164000D01*
X129178390Y-42164000D01*
X129279056Y-42670082D01*
X129393311Y-42841077D01*
X129328373Y-42938264D01*
X129153979Y-43815000D01*
X129328373Y-44691736D01*
X129825004Y-45434996D01*
X130568264Y-45931627D01*
X131223692Y-46062000D01*
X131666308Y-46062000D01*
X132321736Y-45931627D01*
X132715000Y-45668856D01*
X133108264Y-45931627D01*
X133308031Y-45971363D01*
X132842249Y-46437145D01*
X132523000Y-47207881D01*
X132523000Y-48042119D01*
X132842249Y-48812855D01*
X133432145Y-49402751D01*
X134202881Y-49722000D01*
X135037119Y-49722000D01*
X135807855Y-49402751D01*
X136397751Y-48812855D01*
X136717000Y-48042119D01*
X136717000Y-47207881D01*
X136397751Y-46437145D01*
X135807855Y-45847249D01*
X135301755Y-45637616D01*
X135604996Y-45434996D01*
X136101627Y-44691736D01*
X136207500Y-44159478D01*
X136313373Y-44691736D01*
X136810004Y-45434996D01*
X137553264Y-45931627D01*
X138208692Y-46062000D01*
X138651308Y-46062000D01*
X139306736Y-45931627D01*
X139700000Y-45668856D01*
X140093264Y-45931627D01*
X140748692Y-46062000D01*
X141191308Y-46062000D01*
X141846736Y-45931627D01*
X142589996Y-45434996D01*
X143086627Y-44691736D01*
X143089061Y-44679501D01*
X144981329Y-44679501D01*
X145150193Y-44713090D01*
X145319057Y-44679501D01*
X145819158Y-44580025D01*
X146386279Y-44201087D01*
X146481936Y-44057926D01*
X147154314Y-43385548D01*
X161671000Y-43385548D01*
X161671000Y-44244452D01*
X161999688Y-45037975D01*
X162607025Y-45645312D01*
X163400548Y-45974000D01*
X164259452Y-45974000D01*
X165052975Y-45645312D01*
X165100000Y-45598287D01*
X165147025Y-45645312D01*
X165940548Y-45974000D01*
X166799452Y-45974000D01*
X167592975Y-45645312D01*
X167640000Y-45598287D01*
X167687025Y-45645312D01*
X168480548Y-45974000D01*
X169100500Y-45974000D01*
X169100500Y-46736000D01*
X168480548Y-46736000D01*
X167687025Y-47064688D01*
X167640000Y-47111713D01*
X167592975Y-47064688D01*
X166799452Y-46736000D01*
X165940548Y-46736000D01*
X165147025Y-47064688D01*
X165100000Y-47111713D01*
X165052975Y-47064688D01*
X164259452Y-46736000D01*
X163400548Y-46736000D01*
X162607025Y-47064688D01*
X161999688Y-47672025D01*
X161671000Y-48465548D01*
X161671000Y-49324452D01*
X161999688Y-50117975D01*
X162607025Y-50725312D01*
X163400548Y-51054000D01*
X164259452Y-51054000D01*
X165052975Y-50725312D01*
X165100000Y-50678287D01*
X165147025Y-50725312D01*
X165940548Y-51054000D01*
X166799452Y-51054000D01*
X167592975Y-50725312D01*
X167640000Y-50678287D01*
X167687025Y-50725312D01*
X168480548Y-51054000D01*
X168903464Y-51054000D01*
X168699056Y-51359918D01*
X168590632Y-51905000D01*
X168590632Y-53505000D01*
X168699056Y-54050082D01*
X168861035Y-54292500D01*
X168699056Y-54534918D01*
X168590632Y-55080000D01*
X168590632Y-56680000D01*
X168699056Y-57225082D01*
X169007820Y-57687180D01*
X169469918Y-57995944D01*
X169988000Y-58098997D01*
X169988000Y-58837119D01*
X170307249Y-59607855D01*
X170897145Y-60197751D01*
X171667881Y-60517000D01*
X172502119Y-60517000D01*
X172755501Y-60412046D01*
X172755500Y-66199680D01*
X172648958Y-66165647D01*
X171784605Y-67030000D01*
X172648958Y-67894353D01*
X172867515Y-67824539D01*
X172891820Y-67946728D01*
X173411105Y-68723895D01*
X174188271Y-69243180D01*
X175105000Y-69425529D01*
X176021728Y-69243180D01*
X176798895Y-68723895D01*
X177279940Y-68003958D01*
X180255647Y-68003958D01*
X180335920Y-68255259D01*
X180891279Y-68456718D01*
X181481458Y-68430315D01*
X181904080Y-68255259D01*
X181984353Y-68003958D01*
X181120000Y-67139605D01*
X180255647Y-68003958D01*
X177279940Y-68003958D01*
X177318180Y-67946729D01*
X177454500Y-67261403D01*
X177454500Y-66731279D01*
X179623282Y-66731279D01*
X179649685Y-67321458D01*
X179824741Y-67744080D01*
X180076042Y-67824353D01*
X180940395Y-66960000D01*
X181299605Y-66960000D01*
X182163958Y-67824353D01*
X182415259Y-67744080D01*
X182460725Y-67618743D01*
X182715086Y-68232823D01*
X183347177Y-68864914D01*
X184173044Y-69207000D01*
X185066956Y-69207000D01*
X185892823Y-68864914D01*
X186524914Y-68232823D01*
X186867000Y-67406956D01*
X186867000Y-66513044D01*
X186524914Y-65687177D01*
X185892823Y-65055086D01*
X185066956Y-64713000D01*
X184173044Y-64713000D01*
X183347177Y-65055086D01*
X182715086Y-65687177D01*
X182463950Y-66293471D01*
X182415259Y-66175920D01*
X182163958Y-66095647D01*
X181299605Y-66960000D01*
X180940395Y-66960000D01*
X180076042Y-66095647D01*
X179824741Y-66175920D01*
X179623282Y-66731279D01*
X177454500Y-66731279D01*
X177454500Y-65916042D01*
X180255647Y-65916042D01*
X181120000Y-66780395D01*
X181984353Y-65916042D01*
X181904080Y-65664741D01*
X181348721Y-65463282D01*
X180758542Y-65489685D01*
X180335920Y-65664741D01*
X180255647Y-65916042D01*
X177454500Y-65916042D01*
X177454500Y-60500497D01*
X177983209Y-60395330D01*
X178676852Y-59931852D01*
X179140330Y-59238209D01*
X179179721Y-59040179D01*
X179753158Y-59613616D01*
X180545946Y-59942000D01*
X181404054Y-59942000D01*
X182196842Y-59613616D01*
X182245000Y-59565458D01*
X182293158Y-59613616D01*
X183085946Y-59942000D01*
X183944054Y-59942000D01*
X184736842Y-59613616D01*
X185170458Y-59180000D01*
X185769250Y-59180000D01*
X185928000Y-59021250D01*
X185928000Y-57912000D01*
X186182000Y-57912000D01*
X186182000Y-59021250D01*
X186340750Y-59180000D01*
X186941310Y-59180000D01*
X187174699Y-59083327D01*
X187353327Y-58904698D01*
X187450000Y-58671309D01*
X187450000Y-58070750D01*
X187291250Y-57912000D01*
X186182000Y-57912000D01*
X185928000Y-57912000D01*
X185908000Y-57912000D01*
X185908000Y-57658000D01*
X185928000Y-57658000D01*
X185928000Y-56548750D01*
X186182000Y-56548750D01*
X186182000Y-57658000D01*
X187291250Y-57658000D01*
X187450000Y-57499250D01*
X187450000Y-56898691D01*
X187353327Y-56665302D01*
X187174699Y-56486673D01*
X186941310Y-56390000D01*
X186340750Y-56390000D01*
X186182000Y-56548750D01*
X185928000Y-56548750D01*
X185769250Y-56390000D01*
X185170458Y-56390000D01*
X184736842Y-55956384D01*
X183944054Y-55628000D01*
X183085946Y-55628000D01*
X182293158Y-55956384D01*
X182245000Y-56004542D01*
X182196842Y-55956384D01*
X181404054Y-55628000D01*
X180624915Y-55628000D01*
X180504528Y-55022773D01*
X180340143Y-54776753D01*
X180545946Y-54862000D01*
X181404054Y-54862000D01*
X182196842Y-54533616D01*
X182245000Y-54485458D01*
X182293158Y-54533616D01*
X183085946Y-54862000D01*
X183944054Y-54862000D01*
X184736842Y-54533616D01*
X185170458Y-54100000D01*
X185769250Y-54100000D01*
X185928000Y-53941250D01*
X185928000Y-52832000D01*
X186182000Y-52832000D01*
X186182000Y-53941250D01*
X186340750Y-54100000D01*
X186941310Y-54100000D01*
X187174699Y-54003327D01*
X187353327Y-53824698D01*
X187450000Y-53591309D01*
X187450000Y-52990750D01*
X187291250Y-52832000D01*
X186182000Y-52832000D01*
X185928000Y-52832000D01*
X185908000Y-52832000D01*
X185908000Y-52705000D01*
X187573979Y-52705000D01*
X187748373Y-53581736D01*
X188245004Y-54324996D01*
X188988264Y-54821627D01*
X189643692Y-54952000D01*
X190086308Y-54952000D01*
X190741736Y-54821627D01*
X191484996Y-54324996D01*
X191575198Y-54190000D01*
X192119250Y-54190000D01*
X192278000Y-54031250D01*
X192278000Y-52832000D01*
X192258000Y-52832000D01*
X192258000Y-52578000D01*
X192278000Y-52578000D01*
X192278000Y-51378750D01*
X192119250Y-51220000D01*
X191575198Y-51220000D01*
X191484996Y-51085004D01*
X190741736Y-50588373D01*
X190086308Y-50458000D01*
X189643692Y-50458000D01*
X188988264Y-50588373D01*
X188245004Y-51085004D01*
X187748373Y-51828264D01*
X187573979Y-52705000D01*
X185908000Y-52705000D01*
X185908000Y-52578000D01*
X185928000Y-52578000D01*
X185928000Y-51468750D01*
X186182000Y-51468750D01*
X186182000Y-52578000D01*
X187291250Y-52578000D01*
X187450000Y-52419250D01*
X187450000Y-51818691D01*
X187353327Y-51585302D01*
X187174699Y-51406673D01*
X186941310Y-51310000D01*
X186340750Y-51310000D01*
X186182000Y-51468750D01*
X185928000Y-51468750D01*
X185769250Y-51310000D01*
X185170458Y-51310000D01*
X184852458Y-50992000D01*
X184991533Y-50992000D01*
X185603209Y-50870330D01*
X186296852Y-50406852D01*
X186760330Y-49713209D01*
X186923082Y-48895000D01*
X186760330Y-48076791D01*
X186296852Y-47383148D01*
X185603209Y-46919670D01*
X184991533Y-46798000D01*
X184578467Y-46798000D01*
X183966791Y-46919670D01*
X183515000Y-47221547D01*
X183063209Y-46919670D01*
X182451533Y-46798000D01*
X182038467Y-46798000D01*
X181426791Y-46919670D01*
X180988280Y-47212674D01*
X180892855Y-47117249D01*
X180122119Y-46798000D01*
X179287881Y-46798000D01*
X178517145Y-47117249D01*
X178435000Y-47199394D01*
X178352855Y-47117249D01*
X177582119Y-46798000D01*
X176747881Y-46798000D01*
X175977145Y-47117249D01*
X175621341Y-47473054D01*
X175212975Y-47064688D01*
X174419452Y-46736000D01*
X173799500Y-46736000D01*
X173799500Y-46355000D01*
X187573979Y-46355000D01*
X187748373Y-47231736D01*
X188245004Y-47974996D01*
X188988264Y-48471627D01*
X189643692Y-48602000D01*
X190086308Y-48602000D01*
X190741736Y-48471627D01*
X191484996Y-47974996D01*
X191575198Y-47840000D01*
X192119250Y-47840000D01*
X192278000Y-47681250D01*
X192278000Y-46482000D01*
X192258000Y-46482000D01*
X192258000Y-46228000D01*
X192278000Y-46228000D01*
X192278000Y-45028750D01*
X192119250Y-44870000D01*
X191575198Y-44870000D01*
X191484996Y-44735004D01*
X190741736Y-44238373D01*
X190086308Y-44108000D01*
X189643692Y-44108000D01*
X188988264Y-44238373D01*
X188245004Y-44735004D01*
X187748373Y-45478264D01*
X187573979Y-46355000D01*
X173799500Y-46355000D01*
X173799500Y-45974000D01*
X174419452Y-45974000D01*
X175212975Y-45645312D01*
X175604397Y-45253890D01*
X175653148Y-45326852D01*
X176346791Y-45790330D01*
X176958467Y-45912000D01*
X177371533Y-45912000D01*
X177983209Y-45790330D01*
X178435000Y-45488453D01*
X178886791Y-45790330D01*
X179498467Y-45912000D01*
X179911533Y-45912000D01*
X180523209Y-45790330D01*
X180961720Y-45497326D01*
X181057145Y-45592751D01*
X181827881Y-45912000D01*
X182662119Y-45912000D01*
X183432855Y-45592751D01*
X183515000Y-45510606D01*
X183597145Y-45592751D01*
X184367881Y-45912000D01*
X185202119Y-45912000D01*
X185972855Y-45592751D01*
X186562751Y-45002855D01*
X186882000Y-44232119D01*
X186882000Y-43397881D01*
X186562751Y-42627145D01*
X185972855Y-42037249D01*
X185202119Y-41718000D01*
X184367881Y-41718000D01*
X183597145Y-42037249D01*
X183515000Y-42119394D01*
X183432855Y-42037249D01*
X182662119Y-41718000D01*
X181827881Y-41718000D01*
X181057145Y-42037249D01*
X180961720Y-42132674D01*
X180523209Y-41839670D01*
X179911533Y-41718000D01*
X179498467Y-41718000D01*
X178886791Y-41839670D01*
X178435000Y-42141547D01*
X177983209Y-41839670D01*
X177371533Y-41718000D01*
X176958467Y-41718000D01*
X176346791Y-41839670D01*
X175653148Y-42303148D01*
X175604397Y-42376110D01*
X175212975Y-41984688D01*
X174419452Y-41656000D01*
X173799500Y-41656000D01*
X173799500Y-38966403D01*
X173845529Y-38735000D01*
X173663180Y-37818270D01*
X173274974Y-37237279D01*
X173143895Y-37041105D01*
X172947721Y-36910026D01*
X172118139Y-36080444D01*
X172867823Y-35769914D01*
X173499914Y-35137823D01*
X173594713Y-34908958D01*
X174230647Y-34908958D01*
X174310920Y-35160259D01*
X174866279Y-35361718D01*
X175456458Y-35335315D01*
X175879080Y-35160259D01*
X175959353Y-34908958D01*
X175095000Y-34044605D01*
X174230647Y-34908958D01*
X173594713Y-34908958D01*
X173751050Y-34531529D01*
X173799741Y-34649080D01*
X174051042Y-34729353D01*
X174915395Y-33865000D01*
X175274605Y-33865000D01*
X176138958Y-34729353D01*
X176390259Y-34649080D01*
X176591718Y-34093721D01*
X176565315Y-33503542D01*
X176558896Y-33488044D01*
X178883000Y-33488044D01*
X178883000Y-34381956D01*
X179225086Y-35207823D01*
X179857177Y-35839914D01*
X180683044Y-36182000D01*
X181576956Y-36182000D01*
X182402823Y-35839914D01*
X182880000Y-35362737D01*
X183357177Y-35839914D01*
X184183044Y-36182000D01*
X185076956Y-36182000D01*
X185902823Y-35839914D01*
X186534914Y-35207823D01*
X186877000Y-34381956D01*
X186877000Y-33488044D01*
X186534914Y-32662177D01*
X185902823Y-32030086D01*
X185076956Y-31688000D01*
X184183044Y-31688000D01*
X183357177Y-32030086D01*
X182880000Y-32507263D01*
X182402823Y-32030086D01*
X181576956Y-31688000D01*
X180683044Y-31688000D01*
X179857177Y-32030086D01*
X179225086Y-32662177D01*
X178883000Y-33488044D01*
X176558896Y-33488044D01*
X176390259Y-33080920D01*
X176138958Y-33000647D01*
X175274605Y-33865000D01*
X174915395Y-33865000D01*
X174051042Y-33000647D01*
X173799741Y-33080920D01*
X173754275Y-33206257D01*
X173594714Y-32821042D01*
X174230647Y-32821042D01*
X175095000Y-33685395D01*
X175959353Y-32821042D01*
X175879080Y-32569741D01*
X175323721Y-32368282D01*
X174733542Y-32394685D01*
X174310920Y-32569741D01*
X174230647Y-32821042D01*
X173594714Y-32821042D01*
X173499914Y-32592177D01*
X172867823Y-31960086D01*
X172041956Y-31618000D01*
X171148044Y-31618000D01*
X170322177Y-31960086D01*
X169690086Y-32592177D01*
X169379556Y-33341862D01*
X168504976Y-32467282D01*
X168373895Y-32271105D01*
X167596729Y-31751820D01*
X166911403Y-31615500D01*
X166911402Y-31615500D01*
X166680000Y-31569471D01*
X166448598Y-31615500D01*
X165338597Y-31615500D01*
X164653271Y-31751820D01*
X163876105Y-32271105D01*
X163356820Y-33048271D01*
X163332515Y-33170461D01*
X163113958Y-33100647D01*
X162249605Y-33965000D01*
X163113958Y-34829353D01*
X163332515Y-34759539D01*
X163356820Y-34881729D01*
X163804914Y-35552349D01*
X163665086Y-35692177D01*
X163413950Y-36298471D01*
X163365259Y-36180920D01*
X163113958Y-36100647D01*
X162249605Y-36965000D01*
X163113958Y-37829353D01*
X163365259Y-37749080D01*
X163410725Y-37623743D01*
X163665086Y-38237823D01*
X164297177Y-38869914D01*
X165123044Y-39212000D01*
X166016956Y-39212000D01*
X166842823Y-38869914D01*
X167474914Y-38237823D01*
X167520375Y-38128070D01*
X169100501Y-39708196D01*
X169100501Y-41656000D01*
X168480548Y-41656000D01*
X167687025Y-41984688D01*
X167640000Y-42031713D01*
X167592975Y-41984688D01*
X166799452Y-41656000D01*
X165940548Y-41656000D01*
X165147025Y-41984688D01*
X165100000Y-42031713D01*
X165052975Y-41984688D01*
X164259452Y-41656000D01*
X163400548Y-41656000D01*
X162607025Y-41984688D01*
X161999688Y-42592025D01*
X161671000Y-43385548D01*
X147154314Y-43385548D01*
X152530904Y-38008958D01*
X161205647Y-38008958D01*
X161285920Y-38260259D01*
X161841279Y-38461718D01*
X162431458Y-38435315D01*
X162854080Y-38260259D01*
X162934353Y-38008958D01*
X162070000Y-37144605D01*
X161205647Y-38008958D01*
X152530904Y-38008958D01*
X153803583Y-36736279D01*
X160573282Y-36736279D01*
X160599685Y-37326458D01*
X160774741Y-37749080D01*
X161026042Y-37829353D01*
X161890395Y-36965000D01*
X161026042Y-36100647D01*
X160774741Y-36180920D01*
X160573282Y-36736279D01*
X153803583Y-36736279D01*
X153952922Y-36586941D01*
X154096080Y-36491286D01*
X154475018Y-35924165D01*
X154475639Y-35921042D01*
X161205647Y-35921042D01*
X162070000Y-36785395D01*
X162934353Y-35921042D01*
X162854080Y-35669741D01*
X162298721Y-35468282D01*
X161708542Y-35494685D01*
X161285920Y-35669741D01*
X161205647Y-35921042D01*
X154475639Y-35921042D01*
X154561023Y-35491790D01*
X154779188Y-35165282D01*
X154810282Y-35008958D01*
X161205647Y-35008958D01*
X161285920Y-35260259D01*
X161841279Y-35461718D01*
X162431458Y-35435315D01*
X162854080Y-35260259D01*
X162934353Y-35008958D01*
X162070000Y-34144605D01*
X161205647Y-35008958D01*
X154810282Y-35008958D01*
X154887612Y-34620200D01*
X154887612Y-33736279D01*
X160573282Y-33736279D01*
X160599685Y-34326458D01*
X160774741Y-34749080D01*
X161026042Y-34829353D01*
X161890395Y-33965000D01*
X161026042Y-33100647D01*
X160774741Y-33180920D01*
X160573282Y-33736279D01*
X154887612Y-33736279D01*
X154887612Y-32921042D01*
X161205647Y-32921042D01*
X162070000Y-33785395D01*
X162934353Y-32921042D01*
X162854080Y-32669741D01*
X162298721Y-32468282D01*
X161708542Y-32494685D01*
X161285920Y-32669741D01*
X161205647Y-32921042D01*
X154887612Y-32921042D01*
X154887612Y-31419800D01*
X154789128Y-30924690D01*
X156410025Y-30924690D01*
X156955107Y-30816266D01*
X157417205Y-30507502D01*
X157725969Y-30045404D01*
X157834393Y-29500322D01*
X157834393Y-24459000D01*
X161046205Y-24459000D01*
X160655000Y-25403453D01*
X160655000Y-25403453D01*
G37*
X160655000Y-25403453D02*
X160655000Y-26666547D01*
X161138365Y-27833493D01*
X162031507Y-28726635D01*
X163198453Y-29210000D01*
X164461547Y-29210000D01*
X165628493Y-28726635D01*
X166521635Y-27833493D01*
X167005000Y-26666547D01*
X167005000Y-25403453D01*
X166613795Y-24459000D01*
X170571205Y-24459000D01*
X170180000Y-25403453D01*
X170180000Y-26666547D01*
X170663365Y-27833493D01*
X171556507Y-28726635D01*
X172723453Y-29210000D01*
X173986547Y-29210000D01*
X175153493Y-28726635D01*
X176046635Y-27833493D01*
X176530000Y-26666547D01*
X176530000Y-25403453D01*
X176138896Y-24459244D01*
X180130455Y-24470456D01*
X179715000Y-25473453D01*
X179715000Y-26736547D01*
X180198365Y-27903493D01*
X181091507Y-28796635D01*
X182258453Y-29280000D01*
X183521547Y-29280000D01*
X184688493Y-28796635D01*
X185581635Y-27903493D01*
X186065000Y-26736547D01*
X186065000Y-25473453D01*
X185655974Y-24485977D01*
X193600000Y-24508292D01*
X193600000Y-31342253D01*
X192684400Y-30963000D01*
X190855600Y-30963000D01*
X189166008Y-31662851D01*
X187872851Y-32956008D01*
X187173000Y-34645600D01*
X187173000Y-36474400D01*
X187872851Y-38163992D01*
X189166008Y-39457149D01*
X190855600Y-40157000D01*
X192684400Y-40157000D01*
X193600000Y-39777746D01*
X193600000Y-44960585D01*
X193381310Y-44870000D01*
X192690750Y-44870000D01*
X192532000Y-45028750D01*
X192532000Y-46228000D01*
X192552000Y-46228000D01*
X192552000Y-46482000D01*
X192532000Y-46482000D01*
X192532000Y-47681250D01*
X192690750Y-47840000D01*
X193381310Y-47840000D01*
X193600000Y-47749415D01*
X193600000Y-51310585D01*
X193381310Y-51220000D01*
X192690750Y-51220000D01*
X192532000Y-51378750D01*
X192532000Y-52578000D01*
X192552000Y-52578000D01*
X192552000Y-52832000D01*
X192532000Y-52832000D01*
X192532000Y-54031250D01*
X192690750Y-54190000D01*
X193381310Y-54190000D01*
X193600001Y-54099415D01*
X193600001Y-70712254D01*
X192684400Y-70333000D01*
X190855600Y-70333000D01*
X189166008Y-71032851D01*
X187872851Y-72326008D01*
X187173000Y-74015600D01*
X187173000Y-75844400D01*
X187872851Y-77533992D01*
X188876859Y-78538000D01*
X127989393Y-78538000D01*
X127989393Y-74158453D01*
X132060000Y-74158453D01*
X132060000Y-75421547D01*
X132543365Y-76588493D01*
X133436507Y-77481635D01*
X134603453Y-77965000D01*
X135866547Y-77965000D01*
X137033493Y-77481635D01*
X137926635Y-76588493D01*
X138410000Y-75421547D01*
X138410000Y-74158453D01*
X141585000Y-74158453D01*
X141585000Y-75421547D01*
X142068365Y-76588493D01*
X142961507Y-77481635D01*
X144128453Y-77965000D01*
X145391547Y-77965000D01*
X146558493Y-77481635D01*
X147451635Y-76588493D01*
X147935000Y-75421547D01*
X147935000Y-74228453D01*
X151120000Y-74228453D01*
X151120000Y-75491547D01*
X151603365Y-76658493D01*
X152496507Y-77551635D01*
X153663453Y-78035000D01*
X154926547Y-78035000D01*
X156093493Y-77551635D01*
X156986635Y-76658493D01*
X157470000Y-75491547D01*
X157470000Y-74228453D01*
X157441006Y-74158453D01*
X160635000Y-74158453D01*
X160635000Y-75421547D01*
X161118365Y-76588493D01*
X162011507Y-77481635D01*
X163178453Y-77965000D01*
X164441547Y-77965000D01*
X165608493Y-77481635D01*
X166501635Y-76588493D01*
X166985000Y-75421547D01*
X166985000Y-74228453D01*
X170170000Y-74228453D01*
X170170000Y-75491547D01*
X170653365Y-76658493D01*
X171546507Y-77551635D01*
X172713453Y-78035000D01*
X173976547Y-78035000D01*
X175143493Y-77551635D01*
X176036635Y-76658493D01*
X176520000Y-75491547D01*
X176520000Y-74228453D01*
X176491006Y-74158453D01*
X179685000Y-74158453D01*
X179685000Y-75421547D01*
X180168365Y-76588493D01*
X181061507Y-77481635D01*
X182228453Y-77965000D01*
X183491547Y-77965000D01*
X184658493Y-77481635D01*
X185551635Y-76588493D01*
X186035000Y-75421547D01*
X186035000Y-74158453D01*
X185551635Y-72991507D01*
X184658493Y-72098365D01*
X183491547Y-71615000D01*
X182228453Y-71615000D01*
X181061507Y-72098365D01*
X180168365Y-72991507D01*
X179685000Y-74158453D01*
X176491006Y-74158453D01*
X176036635Y-73061507D01*
X175143493Y-72168365D01*
X173976547Y-71685000D01*
X172713453Y-71685000D01*
X171546507Y-72168365D01*
X170653365Y-73061507D01*
X170170000Y-74228453D01*
X166985000Y-74228453D01*
X166985000Y-74158453D01*
X166501635Y-72991507D01*
X165608493Y-72098365D01*
X164441547Y-71615000D01*
X163178453Y-71615000D01*
X162011507Y-72098365D01*
X161118365Y-72991507D01*
X160635000Y-74158453D01*
X157441006Y-74158453D01*
X156986635Y-73061507D01*
X156093493Y-72168365D01*
X154926547Y-71685000D01*
X153663453Y-71685000D01*
X152496507Y-72168365D01*
X151603365Y-73061507D01*
X151120000Y-74228453D01*
X147935000Y-74228453D01*
X147935000Y-74158453D01*
X147451635Y-72991507D01*
X146558493Y-72098365D01*
X145391547Y-71615000D01*
X144128453Y-71615000D01*
X142961507Y-72098365D01*
X142068365Y-72991507D01*
X141585000Y-74158453D01*
X138410000Y-74158453D01*
X137926635Y-72991507D01*
X137033493Y-72098365D01*
X135866547Y-71615000D01*
X134603453Y-71615000D01*
X133436507Y-72098365D01*
X132543365Y-72991507D01*
X132060000Y-74158453D01*
X127989393Y-74158453D01*
X127989393Y-74004678D01*
X127880969Y-73459596D01*
X127572205Y-72997498D01*
X127110107Y-72688734D01*
X127096619Y-72686051D01*
X127330931Y-72451739D01*
X127474086Y-72356086D01*
X127853024Y-71788965D01*
X127952500Y-71288864D01*
X127952500Y-71288863D01*
X127986089Y-71120001D01*
X127952500Y-70951138D01*
X127952500Y-68416577D01*
X130092292Y-70556369D01*
X130198572Y-70715428D01*
X130357631Y-70821708D01*
X130357633Y-70821710D01*
X130828705Y-71136471D01*
X130916649Y-71153964D01*
X131384374Y-71247000D01*
X131384378Y-71247000D01*
X131572000Y-71284320D01*
X131759622Y-71247000D01*
X153555379Y-71247000D01*
X153743000Y-71284320D01*
X153930621Y-71247000D01*
X153930626Y-71247000D01*
X154486294Y-71136471D01*
X155116428Y-70715428D01*
X155222710Y-70556366D01*
X156502162Y-69276915D01*
X157327823Y-68934914D01*
X157959914Y-68302823D01*
X158302000Y-67476956D01*
X158302000Y-66583044D01*
X158273005Y-66513044D01*
X159823000Y-66513044D01*
X159823000Y-67406956D01*
X160165086Y-68232823D01*
X160797177Y-68864914D01*
X161623044Y-69207000D01*
X162516956Y-69207000D01*
X163342823Y-68864914D01*
X163820000Y-68387737D01*
X164297177Y-68864914D01*
X165123044Y-69207000D01*
X166016956Y-69207000D01*
X166842823Y-68864914D01*
X167474914Y-68232823D01*
X167540718Y-68073958D01*
X170740647Y-68073958D01*
X170820920Y-68325259D01*
X171376279Y-68526718D01*
X171966458Y-68500315D01*
X172389080Y-68325259D01*
X172469353Y-68073958D01*
X171605000Y-67209605D01*
X170740647Y-68073958D01*
X167540718Y-68073958D01*
X167817000Y-67406956D01*
X167817000Y-66801279D01*
X170108282Y-66801279D01*
X170134685Y-67391458D01*
X170309741Y-67814080D01*
X170561042Y-67894353D01*
X171425395Y-67030000D01*
X170561042Y-66165647D01*
X170309741Y-66245920D01*
X170108282Y-66801279D01*
X167817000Y-66801279D01*
X167817000Y-66513044D01*
X167598709Y-65986042D01*
X170740647Y-65986042D01*
X171605000Y-66850395D01*
X172469353Y-65986042D01*
X172389080Y-65734741D01*
X171833721Y-65533282D01*
X171243542Y-65559685D01*
X170820920Y-65734741D01*
X170740647Y-65986042D01*
X167598709Y-65986042D01*
X167474914Y-65687177D01*
X166842823Y-65055086D01*
X166016956Y-64713000D01*
X165123044Y-64713000D01*
X164297177Y-65055086D01*
X163820000Y-65532263D01*
X163342823Y-65055086D01*
X162516956Y-64713000D01*
X161623044Y-64713000D01*
X160797177Y-65055086D01*
X160165086Y-65687177D01*
X159823000Y-66513044D01*
X158273005Y-66513044D01*
X157959914Y-65757177D01*
X157327823Y-65125086D01*
X156501956Y-64783000D01*
X155608044Y-64783000D01*
X154782177Y-65125086D01*
X154305000Y-65602263D01*
X153827823Y-65125086D01*
X153001956Y-64783000D01*
X152108044Y-64783000D01*
X151282177Y-65125086D01*
X150650086Y-65757177D01*
X150308000Y-66583044D01*
X150308000Y-67437000D01*
X148754555Y-67437000D01*
X148767000Y-67406956D01*
X148767000Y-66513044D01*
X148424914Y-65687177D01*
X147792823Y-65055086D01*
X146966956Y-64713000D01*
X146073044Y-64713000D01*
X145247177Y-65055086D01*
X144770000Y-65532263D01*
X144292823Y-65055086D01*
X143466956Y-64713000D01*
X142573044Y-64713000D01*
X141747177Y-65055086D01*
X141115086Y-65687177D01*
X140773000Y-66513044D01*
X140773000Y-67406956D01*
X140785445Y-67437000D01*
X139229555Y-67437000D01*
X139242000Y-67406956D01*
X139242000Y-66513044D01*
X138899914Y-65687177D01*
X138267823Y-65055086D01*
X137441956Y-64713000D01*
X136548044Y-64713000D01*
X135722177Y-65055086D01*
X135245000Y-65532263D01*
X134767823Y-65055086D01*
X133941956Y-64713000D01*
X133048044Y-64713000D01*
X132222177Y-65055086D01*
X131590086Y-65687177D01*
X131303392Y-66379316D01*
X127635000Y-62710924D01*
X127635000Y-60385625D01*
X127672321Y-60198000D01*
X127635000Y-60010374D01*
X127635000Y-56885000D01*
X132295632Y-56885000D01*
X132295632Y-58685000D01*
X132404056Y-59230082D01*
X132712820Y-59692180D01*
X133174918Y-60000944D01*
X133720000Y-60109368D01*
X135520000Y-60109368D01*
X136065082Y-60000944D01*
X136527180Y-59692180D01*
X136835944Y-59230082D01*
X136944368Y-58685000D01*
X136944368Y-56885000D01*
X136835944Y-56339918D01*
X136722840Y-56170646D01*
X136917000Y-55701902D01*
X136917000Y-54788098D01*
X136567303Y-53943854D01*
X136415617Y-53792168D01*
X136595330Y-53523209D01*
X136758082Y-52705000D01*
X136595330Y-51886791D01*
X136131852Y-51193148D01*
X135438209Y-50729670D01*
X134826533Y-50608000D01*
X134413467Y-50608000D01*
X133801791Y-50729670D01*
X133108148Y-51193148D01*
X132644670Y-51886791D01*
X132481918Y-52705000D01*
X132644670Y-53523209D01*
X132824383Y-53792168D01*
X132672697Y-53943854D01*
X132323000Y-54788098D01*
X132323000Y-55701902D01*
X132517160Y-56170646D01*
X132404056Y-56339918D01*
X132295632Y-56885000D01*
X127635000Y-56885000D01*
X127635000Y-45008458D01*
X127846627Y-44691736D01*
X128021021Y-43815000D01*
X127846627Y-42938264D01*
X127583856Y-42545000D01*
X127846627Y-42151736D01*
X127903837Y-41864120D01*
X128627810Y-42164000D01*
X129178390Y-42164000D01*
X129279056Y-42670082D01*
X129393311Y-42841077D01*
X129328373Y-42938264D01*
X129153979Y-43815000D01*
X129328373Y-44691736D01*
X129825004Y-45434996D01*
X130568264Y-45931627D01*
X131223692Y-46062000D01*
X131666308Y-46062000D01*
X132321736Y-45931627D01*
X132715000Y-45668856D01*
X133108264Y-45931627D01*
X133308031Y-45971363D01*
X132842249Y-46437145D01*
X132523000Y-47207881D01*
X132523000Y-48042119D01*
X132842249Y-48812855D01*
X133432145Y-49402751D01*
X134202881Y-49722000D01*
X135037119Y-49722000D01*
X135807855Y-49402751D01*
X136397751Y-48812855D01*
X136717000Y-48042119D01*
X136717000Y-47207881D01*
X136397751Y-46437145D01*
X135807855Y-45847249D01*
X135301755Y-45637616D01*
X135604996Y-45434996D01*
X136101627Y-44691736D01*
X136207500Y-44159478D01*
X136313373Y-44691736D01*
X136810004Y-45434996D01*
X137553264Y-45931627D01*
X138208692Y-46062000D01*
X138651308Y-46062000D01*
X139306736Y-45931627D01*
X139700000Y-45668856D01*
X140093264Y-45931627D01*
X140748692Y-46062000D01*
X141191308Y-46062000D01*
X141846736Y-45931627D01*
X142589996Y-45434996D01*
X143086627Y-44691736D01*
X143089061Y-44679501D01*
X144981329Y-44679501D01*
X145150193Y-44713090D01*
X145319057Y-44679501D01*
X145819158Y-44580025D01*
X146386279Y-44201087D01*
X146481936Y-44057926D01*
X147154314Y-43385548D01*
X161671000Y-43385548D01*
X161671000Y-44244452D01*
X161999688Y-45037975D01*
X162607025Y-45645312D01*
X163400548Y-45974000D01*
X164259452Y-45974000D01*
X165052975Y-45645312D01*
X165100000Y-45598287D01*
X165147025Y-45645312D01*
X165940548Y-45974000D01*
X166799452Y-45974000D01*
X167592975Y-45645312D01*
X167640000Y-45598287D01*
X167687025Y-45645312D01*
X168480548Y-45974000D01*
X169100500Y-45974000D01*
X169100500Y-46736000D01*
X168480548Y-46736000D01*
X167687025Y-47064688D01*
X167640000Y-47111713D01*
X167592975Y-47064688D01*
X166799452Y-46736000D01*
X165940548Y-46736000D01*
X165147025Y-47064688D01*
X165100000Y-47111713D01*
X165052975Y-47064688D01*
X164259452Y-46736000D01*
X163400548Y-46736000D01*
X162607025Y-47064688D01*
X161999688Y-47672025D01*
X161671000Y-48465548D01*
X161671000Y-49324452D01*
X161999688Y-50117975D01*
X162607025Y-50725312D01*
X163400548Y-51054000D01*
X164259452Y-51054000D01*
X165052975Y-50725312D01*
X165100000Y-50678287D01*
X165147025Y-50725312D01*
X165940548Y-51054000D01*
X166799452Y-51054000D01*
X167592975Y-50725312D01*
X167640000Y-50678287D01*
X167687025Y-50725312D01*
X168480548Y-51054000D01*
X168903464Y-51054000D01*
X168699056Y-51359918D01*
X168590632Y-51905000D01*
X168590632Y-53505000D01*
X168699056Y-54050082D01*
X168861035Y-54292500D01*
X168699056Y-54534918D01*
X168590632Y-55080000D01*
X168590632Y-56680000D01*
X168699056Y-57225082D01*
X169007820Y-57687180D01*
X169469918Y-57995944D01*
X169988000Y-58098997D01*
X169988000Y-58837119D01*
X170307249Y-59607855D01*
X170897145Y-60197751D01*
X171667881Y-60517000D01*
X172502119Y-60517000D01*
X172755501Y-60412046D01*
X172755500Y-66199680D01*
X172648958Y-66165647D01*
X171784605Y-67030000D01*
X172648958Y-67894353D01*
X172867515Y-67824539D01*
X172891820Y-67946728D01*
X173411105Y-68723895D01*
X174188271Y-69243180D01*
X175105000Y-69425529D01*
X176021728Y-69243180D01*
X176798895Y-68723895D01*
X177279940Y-68003958D01*
X180255647Y-68003958D01*
X180335920Y-68255259D01*
X180891279Y-68456718D01*
X181481458Y-68430315D01*
X181904080Y-68255259D01*
X181984353Y-68003958D01*
X181120000Y-67139605D01*
X180255647Y-68003958D01*
X177279940Y-68003958D01*
X177318180Y-67946729D01*
X177454500Y-67261403D01*
X177454500Y-66731279D01*
X179623282Y-66731279D01*
X179649685Y-67321458D01*
X179824741Y-67744080D01*
X180076042Y-67824353D01*
X180940395Y-66960000D01*
X181299605Y-66960000D01*
X182163958Y-67824353D01*
X182415259Y-67744080D01*
X182460725Y-67618743D01*
X182715086Y-68232823D01*
X183347177Y-68864914D01*
X184173044Y-69207000D01*
X185066956Y-69207000D01*
X185892823Y-68864914D01*
X186524914Y-68232823D01*
X186867000Y-67406956D01*
X186867000Y-66513044D01*
X186524914Y-65687177D01*
X185892823Y-65055086D01*
X185066956Y-64713000D01*
X184173044Y-64713000D01*
X183347177Y-65055086D01*
X182715086Y-65687177D01*
X182463950Y-66293471D01*
X182415259Y-66175920D01*
X182163958Y-66095647D01*
X181299605Y-66960000D01*
X180940395Y-66960000D01*
X180076042Y-66095647D01*
X179824741Y-66175920D01*
X179623282Y-66731279D01*
X177454500Y-66731279D01*
X177454500Y-65916042D01*
X180255647Y-65916042D01*
X181120000Y-66780395D01*
X181984353Y-65916042D01*
X181904080Y-65664741D01*
X181348721Y-65463282D01*
X180758542Y-65489685D01*
X180335920Y-65664741D01*
X180255647Y-65916042D01*
X177454500Y-65916042D01*
X177454500Y-60500497D01*
X177983209Y-60395330D01*
X178676852Y-59931852D01*
X179140330Y-59238209D01*
X179179721Y-59040179D01*
X179753158Y-59613616D01*
X180545946Y-59942000D01*
X181404054Y-59942000D01*
X182196842Y-59613616D01*
X182245000Y-59565458D01*
X182293158Y-59613616D01*
X183085946Y-59942000D01*
X183944054Y-59942000D01*
X184736842Y-59613616D01*
X185170458Y-59180000D01*
X185769250Y-59180000D01*
X185928000Y-59021250D01*
X185928000Y-57912000D01*
X186182000Y-57912000D01*
X186182000Y-59021250D01*
X186340750Y-59180000D01*
X186941310Y-59180000D01*
X187174699Y-59083327D01*
X187353327Y-58904698D01*
X187450000Y-58671309D01*
X187450000Y-58070750D01*
X187291250Y-57912000D01*
X186182000Y-57912000D01*
X185928000Y-57912000D01*
X185908000Y-57912000D01*
X185908000Y-57658000D01*
X185928000Y-57658000D01*
X185928000Y-56548750D01*
X186182000Y-56548750D01*
X186182000Y-57658000D01*
X187291250Y-57658000D01*
X187450000Y-57499250D01*
X187450000Y-56898691D01*
X187353327Y-56665302D01*
X187174699Y-56486673D01*
X186941310Y-56390000D01*
X186340750Y-56390000D01*
X186182000Y-56548750D01*
X185928000Y-56548750D01*
X185769250Y-56390000D01*
X185170458Y-56390000D01*
X184736842Y-55956384D01*
X183944054Y-55628000D01*
X183085946Y-55628000D01*
X182293158Y-55956384D01*
X182245000Y-56004542D01*
X182196842Y-55956384D01*
X181404054Y-55628000D01*
X180624915Y-55628000D01*
X180504528Y-55022773D01*
X180340143Y-54776753D01*
X180545946Y-54862000D01*
X181404054Y-54862000D01*
X182196842Y-54533616D01*
X182245000Y-54485458D01*
X182293158Y-54533616D01*
X183085946Y-54862000D01*
X183944054Y-54862000D01*
X184736842Y-54533616D01*
X185170458Y-54100000D01*
X185769250Y-54100000D01*
X185928000Y-53941250D01*
X185928000Y-52832000D01*
X186182000Y-52832000D01*
X186182000Y-53941250D01*
X186340750Y-54100000D01*
X186941310Y-54100000D01*
X187174699Y-54003327D01*
X187353327Y-53824698D01*
X187450000Y-53591309D01*
X187450000Y-52990750D01*
X187291250Y-52832000D01*
X186182000Y-52832000D01*
X185928000Y-52832000D01*
X185908000Y-52832000D01*
X185908000Y-52705000D01*
X187573979Y-52705000D01*
X187748373Y-53581736D01*
X188245004Y-54324996D01*
X188988264Y-54821627D01*
X189643692Y-54952000D01*
X190086308Y-54952000D01*
X190741736Y-54821627D01*
X191484996Y-54324996D01*
X191575198Y-54190000D01*
X192119250Y-54190000D01*
X192278000Y-54031250D01*
X192278000Y-52832000D01*
X192258000Y-52832000D01*
X192258000Y-52578000D01*
X192278000Y-52578000D01*
X192278000Y-51378750D01*
X192119250Y-51220000D01*
X191575198Y-51220000D01*
X191484996Y-51085004D01*
X190741736Y-50588373D01*
X190086308Y-50458000D01*
X189643692Y-50458000D01*
X188988264Y-50588373D01*
X188245004Y-51085004D01*
X187748373Y-51828264D01*
X187573979Y-52705000D01*
X185908000Y-52705000D01*
X185908000Y-52578000D01*
X185928000Y-52578000D01*
X185928000Y-51468750D01*
X186182000Y-51468750D01*
X186182000Y-52578000D01*
X187291250Y-52578000D01*
X187450000Y-52419250D01*
X187450000Y-51818691D01*
X187353327Y-51585302D01*
X187174699Y-51406673D01*
X186941310Y-51310000D01*
X186340750Y-51310000D01*
X186182000Y-51468750D01*
X185928000Y-51468750D01*
X185769250Y-51310000D01*
X185170458Y-51310000D01*
X184852458Y-50992000D01*
X184991533Y-50992000D01*
X185603209Y-50870330D01*
X186296852Y-50406852D01*
X186760330Y-49713209D01*
X186923082Y-48895000D01*
X186760330Y-48076791D01*
X186296852Y-47383148D01*
X185603209Y-46919670D01*
X184991533Y-46798000D01*
X184578467Y-46798000D01*
X183966791Y-46919670D01*
X183515000Y-47221547D01*
X183063209Y-46919670D01*
X182451533Y-46798000D01*
X182038467Y-46798000D01*
X181426791Y-46919670D01*
X180988280Y-47212674D01*
X180892855Y-47117249D01*
X180122119Y-46798000D01*
X179287881Y-46798000D01*
X178517145Y-47117249D01*
X178435000Y-47199394D01*
X178352855Y-47117249D01*
X177582119Y-46798000D01*
X176747881Y-46798000D01*
X175977145Y-47117249D01*
X175621341Y-47473054D01*
X175212975Y-47064688D01*
X174419452Y-46736000D01*
X173799500Y-46736000D01*
X173799500Y-46355000D01*
X187573979Y-46355000D01*
X187748373Y-47231736D01*
X188245004Y-47974996D01*
X188988264Y-48471627D01*
X189643692Y-48602000D01*
X190086308Y-48602000D01*
X190741736Y-48471627D01*
X191484996Y-47974996D01*
X191575198Y-47840000D01*
X192119250Y-47840000D01*
X192278000Y-47681250D01*
X192278000Y-46482000D01*
X192258000Y-46482000D01*
X192258000Y-46228000D01*
X192278000Y-46228000D01*
X192278000Y-45028750D01*
X192119250Y-44870000D01*
X191575198Y-44870000D01*
X191484996Y-44735004D01*
X190741736Y-44238373D01*
X190086308Y-44108000D01*
X189643692Y-44108000D01*
X188988264Y-44238373D01*
X188245004Y-44735004D01*
X187748373Y-45478264D01*
X187573979Y-46355000D01*
X173799500Y-46355000D01*
X173799500Y-45974000D01*
X174419452Y-45974000D01*
X175212975Y-45645312D01*
X175604397Y-45253890D01*
X175653148Y-45326852D01*
X176346791Y-45790330D01*
X176958467Y-45912000D01*
X177371533Y-45912000D01*
X177983209Y-45790330D01*
X178435000Y-45488453D01*
X178886791Y-45790330D01*
X179498467Y-45912000D01*
X179911533Y-45912000D01*
X180523209Y-45790330D01*
X180961720Y-45497326D01*
X181057145Y-45592751D01*
X181827881Y-45912000D01*
X182662119Y-45912000D01*
X183432855Y-45592751D01*
X183515000Y-45510606D01*
X183597145Y-45592751D01*
X184367881Y-45912000D01*
X185202119Y-45912000D01*
X185972855Y-45592751D01*
X186562751Y-45002855D01*
X186882000Y-44232119D01*
X186882000Y-43397881D01*
X186562751Y-42627145D01*
X185972855Y-42037249D01*
X185202119Y-41718000D01*
X184367881Y-41718000D01*
X183597145Y-42037249D01*
X183515000Y-42119394D01*
X183432855Y-42037249D01*
X182662119Y-41718000D01*
X181827881Y-41718000D01*
X181057145Y-42037249D01*
X180961720Y-42132674D01*
X180523209Y-41839670D01*
X179911533Y-41718000D01*
X179498467Y-41718000D01*
X178886791Y-41839670D01*
X178435000Y-42141547D01*
X177983209Y-41839670D01*
X177371533Y-41718000D01*
X176958467Y-41718000D01*
X176346791Y-41839670D01*
X175653148Y-42303148D01*
X175604397Y-42376110D01*
X175212975Y-41984688D01*
X174419452Y-41656000D01*
X173799500Y-41656000D01*
X173799500Y-38966403D01*
X173845529Y-38735000D01*
X173663180Y-37818270D01*
X173274974Y-37237279D01*
X173143895Y-37041105D01*
X172947721Y-36910026D01*
X172118139Y-36080444D01*
X172867823Y-35769914D01*
X173499914Y-35137823D01*
X173594713Y-34908958D01*
X174230647Y-34908958D01*
X174310920Y-35160259D01*
X174866279Y-35361718D01*
X175456458Y-35335315D01*
X175879080Y-35160259D01*
X175959353Y-34908958D01*
X175095000Y-34044605D01*
X174230647Y-34908958D01*
X173594713Y-34908958D01*
X173751050Y-34531529D01*
X173799741Y-34649080D01*
X174051042Y-34729353D01*
X174915395Y-33865000D01*
X175274605Y-33865000D01*
X176138958Y-34729353D01*
X176390259Y-34649080D01*
X176591718Y-34093721D01*
X176565315Y-33503542D01*
X176558896Y-33488044D01*
X178883000Y-33488044D01*
X178883000Y-34381956D01*
X179225086Y-35207823D01*
X179857177Y-35839914D01*
X180683044Y-36182000D01*
X181576956Y-36182000D01*
X182402823Y-35839914D01*
X182880000Y-35362737D01*
X183357177Y-35839914D01*
X184183044Y-36182000D01*
X185076956Y-36182000D01*
X185902823Y-35839914D01*
X186534914Y-35207823D01*
X186877000Y-34381956D01*
X186877000Y-33488044D01*
X186534914Y-32662177D01*
X185902823Y-32030086D01*
X185076956Y-31688000D01*
X184183044Y-31688000D01*
X183357177Y-32030086D01*
X182880000Y-32507263D01*
X182402823Y-32030086D01*
X181576956Y-31688000D01*
X180683044Y-31688000D01*
X179857177Y-32030086D01*
X179225086Y-32662177D01*
X178883000Y-33488044D01*
X176558896Y-33488044D01*
X176390259Y-33080920D01*
X176138958Y-33000647D01*
X175274605Y-33865000D01*
X174915395Y-33865000D01*
X174051042Y-33000647D01*
X173799741Y-33080920D01*
X173754275Y-33206257D01*
X173594714Y-32821042D01*
X174230647Y-32821042D01*
X175095000Y-33685395D01*
X175959353Y-32821042D01*
X175879080Y-32569741D01*
X175323721Y-32368282D01*
X174733542Y-32394685D01*
X174310920Y-32569741D01*
X174230647Y-32821042D01*
X173594714Y-32821042D01*
X173499914Y-32592177D01*
X172867823Y-31960086D01*
X172041956Y-31618000D01*
X171148044Y-31618000D01*
X170322177Y-31960086D01*
X169690086Y-32592177D01*
X169379556Y-33341862D01*
X168504976Y-32467282D01*
X168373895Y-32271105D01*
X167596729Y-31751820D01*
X166911403Y-31615500D01*
X166911402Y-31615500D01*
X166680000Y-31569471D01*
X166448598Y-31615500D01*
X165338597Y-31615500D01*
X164653271Y-31751820D01*
X163876105Y-32271105D01*
X163356820Y-33048271D01*
X163332515Y-33170461D01*
X163113958Y-33100647D01*
X162249605Y-33965000D01*
X163113958Y-34829353D01*
X163332515Y-34759539D01*
X163356820Y-34881729D01*
X163804914Y-35552349D01*
X163665086Y-35692177D01*
X163413950Y-36298471D01*
X163365259Y-36180920D01*
X163113958Y-36100647D01*
X162249605Y-36965000D01*
X163113958Y-37829353D01*
X163365259Y-37749080D01*
X163410725Y-37623743D01*
X163665086Y-38237823D01*
X164297177Y-38869914D01*
X165123044Y-39212000D01*
X166016956Y-39212000D01*
X166842823Y-38869914D01*
X167474914Y-38237823D01*
X167520375Y-38128070D01*
X169100501Y-39708196D01*
X169100501Y-41656000D01*
X168480548Y-41656000D01*
X167687025Y-41984688D01*
X167640000Y-42031713D01*
X167592975Y-41984688D01*
X166799452Y-41656000D01*
X165940548Y-41656000D01*
X165147025Y-41984688D01*
X165100000Y-42031713D01*
X165052975Y-41984688D01*
X164259452Y-41656000D01*
X163400548Y-41656000D01*
X162607025Y-41984688D01*
X161999688Y-42592025D01*
X161671000Y-43385548D01*
X147154314Y-43385548D01*
X152530904Y-38008958D01*
X161205647Y-38008958D01*
X161285920Y-38260259D01*
X161841279Y-38461718D01*
X162431458Y-38435315D01*
X162854080Y-38260259D01*
X162934353Y-38008958D01*
X162070000Y-37144605D01*
X161205647Y-38008958D01*
X152530904Y-38008958D01*
X153803583Y-36736279D01*
X160573282Y-36736279D01*
X160599685Y-37326458D01*
X160774741Y-37749080D01*
X161026042Y-37829353D01*
X161890395Y-36965000D01*
X161026042Y-36100647D01*
X160774741Y-36180920D01*
X160573282Y-36736279D01*
X153803583Y-36736279D01*
X153952922Y-36586941D01*
X154096080Y-36491286D01*
X154475018Y-35924165D01*
X154475639Y-35921042D01*
X161205647Y-35921042D01*
X162070000Y-36785395D01*
X162934353Y-35921042D01*
X162854080Y-35669741D01*
X162298721Y-35468282D01*
X161708542Y-35494685D01*
X161285920Y-35669741D01*
X161205647Y-35921042D01*
X154475639Y-35921042D01*
X154561023Y-35491790D01*
X154779188Y-35165282D01*
X154810282Y-35008958D01*
X161205647Y-35008958D01*
X161285920Y-35260259D01*
X161841279Y-35461718D01*
X162431458Y-35435315D01*
X162854080Y-35260259D01*
X162934353Y-35008958D01*
X162070000Y-34144605D01*
X161205647Y-35008958D01*
X154810282Y-35008958D01*
X154887612Y-34620200D01*
X154887612Y-33736279D01*
X160573282Y-33736279D01*
X160599685Y-34326458D01*
X160774741Y-34749080D01*
X161026042Y-34829353D01*
X161890395Y-33965000D01*
X161026042Y-33100647D01*
X160774741Y-33180920D01*
X160573282Y-33736279D01*
X154887612Y-33736279D01*
X154887612Y-32921042D01*
X161205647Y-32921042D01*
X162070000Y-33785395D01*
X162934353Y-32921042D01*
X162854080Y-32669741D01*
X162298721Y-32468282D01*
X161708542Y-32494685D01*
X161285920Y-32669741D01*
X161205647Y-32921042D01*
X154887612Y-32921042D01*
X154887612Y-31419800D01*
X154789128Y-30924690D01*
X156410025Y-30924690D01*
X156955107Y-30816266D01*
X157417205Y-30507502D01*
X157725969Y-30045404D01*
X157834393Y-29500322D01*
X157834393Y-24459000D01*
X161046205Y-24459000D01*
X160655000Y-25403453D01*
G36*
X124523500Y-70409830D02*
X124207912Y-70725418D01*
X124094494Y-70612000D01*
X123141994Y-70612000D01*
X123141994Y-70632000D01*
X123042616Y-70632000D01*
X123042616Y-68884800D01*
X122947884Y-68408550D01*
X123141994Y-68408550D01*
X123141994Y-70358000D01*
X124094494Y-70358000D01*
X124253244Y-70199250D01*
X124253244Y-68758490D01*
X124156571Y-68525101D01*
X123977942Y-68346473D01*
X123744553Y-68249800D01*
X123300744Y-68249800D01*
X123141994Y-68408550D01*
X122947884Y-68408550D01*
X122934192Y-68339718D01*
X122625428Y-67877620D01*
X122323943Y-67676174D01*
X122340000Y-67679368D01*
X124040000Y-67679368D01*
X124523500Y-67583193D01*
X124523500Y-70409830D01*
X124523500Y-70409830D01*
G37*
X124523500Y-70409830D02*
X124207912Y-70725418D01*
X124094494Y-70612000D01*
X123141994Y-70612000D01*
X123141994Y-70632000D01*
X123042616Y-70632000D01*
X123042616Y-68884800D01*
X122947884Y-68408550D01*
X123141994Y-68408550D01*
X123141994Y-70358000D01*
X124094494Y-70358000D01*
X124253244Y-70199250D01*
X124253244Y-68758490D01*
X124156571Y-68525101D01*
X123977942Y-68346473D01*
X123744553Y-68249800D01*
X123300744Y-68249800D01*
X123141994Y-68408550D01*
X122947884Y-68408550D01*
X122934192Y-68339718D01*
X122625428Y-67877620D01*
X122323943Y-67676174D01*
X122340000Y-67679368D01*
X124040000Y-67679368D01*
X124523500Y-67583193D01*
X124523500Y-70409830D01*
G36*
X117030500Y-63234953D02*
X114490500Y-60694953D01*
X114490500Y-59937767D01*
X114505548Y-59944000D01*
X115364452Y-59944000D01*
X116157975Y-59615312D01*
X116765312Y-59007975D01*
X117030500Y-58367754D01*
X117030500Y-63234953D01*
X117030500Y-63234953D01*
G37*
X117030500Y-63234953D02*
X114490500Y-60694953D01*
X114490500Y-59937767D01*
X114505548Y-59944000D01*
X115364452Y-59944000D01*
X116157975Y-59615312D01*
X116765312Y-59007975D01*
X117030500Y-58367754D01*
X117030500Y-63234953D01*
G36*
X115096611Y-50211279D02*
X114949143Y-50358748D01*
X114935000Y-50344605D01*
X114920858Y-50358748D01*
X114741253Y-50179143D01*
X114755395Y-50165000D01*
X114741253Y-50150858D01*
X114888721Y-50003389D01*
X115096611Y-50211279D01*
X115096611Y-50211279D01*
G37*
X115096611Y-50211279D02*
X114949143Y-50358748D01*
X114935000Y-50344605D01*
X114920858Y-50358748D01*
X114741253Y-50179143D01*
X114755395Y-50165000D01*
X114741253Y-50150858D01*
X114888721Y-50003389D01*
X115096611Y-50211279D01*
G36*
X142302795Y-30507502D02*
X142764893Y-30816266D01*
X143309975Y-30924690D01*
X145009997Y-30924690D01*
X145232222Y-30880486D01*
X145279864Y-30995503D01*
X145621756Y-31337395D01*
X145621756Y-32734250D01*
X145780506Y-32893000D01*
X146733006Y-32893000D01*
X146733006Y-32873000D01*
X146832384Y-32873000D01*
X146832384Y-33167000D01*
X146733006Y-33167000D01*
X146733006Y-33147000D01*
X145780506Y-33147000D01*
X145621756Y-33305750D01*
X145621756Y-34746510D01*
X145664533Y-34849782D01*
X145597350Y-34916965D01*
X145287996Y-35663810D01*
X145287996Y-36472190D01*
X145597350Y-37219035D01*
X146168961Y-37790646D01*
X146599315Y-37968905D01*
X146867366Y-38616035D01*
X146970928Y-38719597D01*
X144440025Y-41250501D01*
X143256148Y-41250501D01*
X143086627Y-40398264D01*
X142589996Y-39655004D01*
X141846736Y-39158373D01*
X141191308Y-39028000D01*
X140748692Y-39028000D01*
X140144500Y-39148182D01*
X140144500Y-33998868D01*
X140178089Y-33830005D01*
X140144500Y-33661142D01*
X140045024Y-33161041D01*
X139666086Y-32593920D01*
X139647612Y-32581576D01*
X139647612Y-31419800D01*
X139549128Y-30924690D01*
X141170025Y-30924690D01*
X141715107Y-30816266D01*
X142177205Y-30507502D01*
X142240000Y-30413523D01*
X142302795Y-30507502D01*
X142302795Y-30507502D01*
G37*
X142302795Y-30507502D02*
X142764893Y-30816266D01*
X143309975Y-30924690D01*
X145009997Y-30924690D01*
X145232222Y-30880486D01*
X145279864Y-30995503D01*
X145621756Y-31337395D01*
X145621756Y-32734250D01*
X145780506Y-32893000D01*
X146733006Y-32893000D01*
X146733006Y-32873000D01*
X146832384Y-32873000D01*
X146832384Y-33167000D01*
X146733006Y-33167000D01*
X146733006Y-33147000D01*
X145780506Y-33147000D01*
X145621756Y-33305750D01*
X145621756Y-34746510D01*
X145664533Y-34849782D01*
X145597350Y-34916965D01*
X145287996Y-35663810D01*
X145287996Y-36472190D01*
X145597350Y-37219035D01*
X146168961Y-37790646D01*
X146599315Y-37968905D01*
X146867366Y-38616035D01*
X146970928Y-38719597D01*
X144440025Y-41250501D01*
X143256148Y-41250501D01*
X143086627Y-40398264D01*
X142589996Y-39655004D01*
X141846736Y-39158373D01*
X141191308Y-39028000D01*
X140748692Y-39028000D01*
X140144500Y-39148182D01*
X140144500Y-33998868D01*
X140178089Y-33830005D01*
X140144500Y-33661142D01*
X140045024Y-33161041D01*
X139666086Y-32593920D01*
X139647612Y-32581576D01*
X139647612Y-31419800D01*
X139549128Y-30924690D01*
X141170025Y-30924690D01*
X141715107Y-30816266D01*
X142177205Y-30507502D01*
X142240000Y-30413523D01*
X142302795Y-30507502D01*
G36*
X138045635Y-29500322D02*
X138144119Y-29995432D01*
X137154571Y-29995432D01*
X136856084Y-29548714D01*
X136712923Y-29453057D01*
X136011941Y-28752075D01*
X135916284Y-28608914D01*
X135349163Y-28229976D01*
X134849062Y-28130500D01*
X134680198Y-28096911D01*
X134511334Y-28130500D01*
X134509181Y-28130500D01*
X134501035Y-28122354D01*
X133754190Y-27813000D01*
X132945810Y-27813000D01*
X132198965Y-28122354D01*
X131627354Y-28693965D01*
X131318000Y-29440810D01*
X131318000Y-30249190D01*
X131539857Y-30784800D01*
X131493004Y-30784800D01*
X131493004Y-30943548D01*
X131334256Y-30784800D01*
X130890447Y-30784800D01*
X130657058Y-30881473D01*
X130478429Y-31060101D01*
X130381756Y-31293490D01*
X130381756Y-32258075D01*
X130183035Y-32059354D01*
X129436190Y-31750000D01*
X128627810Y-31750000D01*
X127880965Y-32059354D01*
X127309354Y-32630965D01*
X127000000Y-33377810D01*
X127000000Y-33421740D01*
X126935652Y-33518044D01*
X126781977Y-33748035D01*
X126648912Y-34416999D01*
X126682501Y-34585863D01*
X126682502Y-39208998D01*
X126606736Y-39158373D01*
X125951308Y-39028000D01*
X125508692Y-39028000D01*
X124904500Y-39148182D01*
X124904500Y-33998868D01*
X124938089Y-33830005D01*
X124904500Y-33661142D01*
X124805024Y-33161041D01*
X124426086Y-32593920D01*
X124407612Y-32581576D01*
X124407612Y-31419800D01*
X124309128Y-30924690D01*
X125930025Y-30924690D01*
X126475107Y-30816266D01*
X126937205Y-30507502D01*
X127000000Y-30413523D01*
X127062795Y-30507502D01*
X127524893Y-30816266D01*
X128069975Y-30924690D01*
X129769997Y-30924690D01*
X130315079Y-30816266D01*
X130777177Y-30507502D01*
X131085941Y-30045404D01*
X131194365Y-29500322D01*
X131194365Y-24459000D01*
X138045635Y-24459000D01*
X138045635Y-29500322D01*
X138045635Y-29500322D01*
G37*
X138045635Y-29500322D02*
X138144119Y-29995432D01*
X137154571Y-29995432D01*
X136856084Y-29548714D01*
X136712923Y-29453057D01*
X136011941Y-28752075D01*
X135916284Y-28608914D01*
X135349163Y-28229976D01*
X134849062Y-28130500D01*
X134680198Y-28096911D01*
X134511334Y-28130500D01*
X134509181Y-28130500D01*
X134501035Y-28122354D01*
X133754190Y-27813000D01*
X132945810Y-27813000D01*
X132198965Y-28122354D01*
X131627354Y-28693965D01*
X131318000Y-29440810D01*
X131318000Y-30249190D01*
X131539857Y-30784800D01*
X131493004Y-30784800D01*
X131493004Y-30943548D01*
X131334256Y-30784800D01*
X130890447Y-30784800D01*
X130657058Y-30881473D01*
X130478429Y-31060101D01*
X130381756Y-31293490D01*
X130381756Y-32258075D01*
X130183035Y-32059354D01*
X129436190Y-31750000D01*
X128627810Y-31750000D01*
X127880965Y-32059354D01*
X127309354Y-32630965D01*
X127000000Y-33377810D01*
X127000000Y-33421740D01*
X126935652Y-33518044D01*
X126781977Y-33748035D01*
X126648912Y-34416999D01*
X126682501Y-34585863D01*
X126682502Y-39208998D01*
X126606736Y-39158373D01*
X125951308Y-39028000D01*
X125508692Y-39028000D01*
X124904500Y-39148182D01*
X124904500Y-33998868D01*
X124938089Y-33830005D01*
X124904500Y-33661142D01*
X124805024Y-33161041D01*
X124426086Y-32593920D01*
X124407612Y-32581576D01*
X124407612Y-31419800D01*
X124309128Y-30924690D01*
X125930025Y-30924690D01*
X126475107Y-30816266D01*
X126937205Y-30507502D01*
X127000000Y-30413523D01*
X127062795Y-30507502D01*
X127524893Y-30816266D01*
X128069975Y-30924690D01*
X129769997Y-30924690D01*
X130315079Y-30816266D01*
X130777177Y-30507502D01*
X131085941Y-30045404D01*
X131194365Y-29500322D01*
X131194365Y-24459000D01*
X138045635Y-24459000D01*
X138045635Y-29500322D01*
G36*
X111405607Y-29500322D02*
X111514031Y-30045404D01*
X111822795Y-30507502D01*
X112284893Y-30816266D01*
X112829975Y-30924690D01*
X114529997Y-30924690D01*
X115075079Y-30816266D01*
X115189738Y-30739653D01*
X115224976Y-30916806D01*
X115287760Y-31010770D01*
X115238429Y-31060101D01*
X115141756Y-31293490D01*
X115141756Y-32734250D01*
X115300506Y-32893000D01*
X116253006Y-32893000D01*
X116253006Y-32873000D01*
X116352384Y-32873000D01*
X116352384Y-33167000D01*
X116253006Y-33167000D01*
X116253006Y-33147000D01*
X115300506Y-33147000D01*
X115141756Y-33305750D01*
X115141756Y-34207848D01*
X114587913Y-34577914D01*
X114492259Y-34721071D01*
X111327273Y-37886058D01*
X111912000Y-36474400D01*
X111912000Y-34645600D01*
X111212149Y-32956008D01*
X109918992Y-31662851D01*
X108229400Y-30963000D01*
X106400600Y-30963000D01*
X105104000Y-31500069D01*
X105104000Y-24459000D01*
X111405607Y-24459000D01*
X111405607Y-29500322D01*
X111405607Y-29500322D01*
G37*
X111405607Y-29500322D02*
X111514031Y-30045404D01*
X111822795Y-30507502D01*
X112284893Y-30816266D01*
X112829975Y-30924690D01*
X114529997Y-30924690D01*
X115075079Y-30816266D01*
X115189738Y-30739653D01*
X115224976Y-30916806D01*
X115287760Y-31010770D01*
X115238429Y-31060101D01*
X115141756Y-31293490D01*
X115141756Y-32734250D01*
X115300506Y-32893000D01*
X116253006Y-32893000D01*
X116253006Y-32873000D01*
X116352384Y-32873000D01*
X116352384Y-33167000D01*
X116253006Y-33167000D01*
X116253006Y-33147000D01*
X115300506Y-33147000D01*
X115141756Y-33305750D01*
X115141756Y-34207848D01*
X114587913Y-34577914D01*
X114492259Y-34721071D01*
X111327273Y-37886058D01*
X111912000Y-36474400D01*
X111912000Y-34645600D01*
X111212149Y-32956008D01*
X109918992Y-31662851D01*
X108229400Y-30963000D01*
X106400600Y-30963000D01*
X105104000Y-31500069D01*
X105104000Y-24459000D01*
X111405607Y-24459000D01*
X111405607Y-29500322D01*
G36*
X122805635Y-29500322D02*
X122904119Y-29995432D01*
X121914571Y-29995432D01*
X121616084Y-29548714D01*
X121490728Y-29464953D01*
X121610646Y-29345035D01*
X121920000Y-28598190D01*
X121920000Y-27789810D01*
X121610646Y-27042965D01*
X121039035Y-26471354D01*
X120292190Y-26162000D01*
X119483810Y-26162000D01*
X118736965Y-26471354D01*
X118728819Y-26479500D01*
X118024864Y-26479500D01*
X117856000Y-26445911D01*
X117687136Y-26479500D01*
X117187035Y-26578976D01*
X116619914Y-26957914D01*
X116524257Y-27101075D01*
X115954365Y-27670967D01*
X115954365Y-24459000D01*
X122805635Y-24459000D01*
X122805635Y-29500322D01*
X122805635Y-29500322D01*
G37*
X122805635Y-29500322D02*
X122904119Y-29995432D01*
X121914571Y-29995432D01*
X121616084Y-29548714D01*
X121490728Y-29464953D01*
X121610646Y-29345035D01*
X121920000Y-28598190D01*
X121920000Y-27789810D01*
X121610646Y-27042965D01*
X121039035Y-26471354D01*
X120292190Y-26162000D01*
X119483810Y-26162000D01*
X118736965Y-26471354D01*
X118728819Y-26479500D01*
X118024864Y-26479500D01*
X117856000Y-26445911D01*
X117687136Y-26479500D01*
X117187035Y-26578976D01*
X116619914Y-26957914D01*
X116524257Y-27101075D01*
X115954365Y-27670967D01*
X115954365Y-24459000D01*
X122805635Y-24459000D01*
X122805635Y-29500322D01*
G36*
X153285635Y-28785772D02*
X151981937Y-27482075D01*
X151886280Y-27338914D01*
X151319159Y-26959976D01*
X150819058Y-26860500D01*
X150650194Y-26826911D01*
X150481330Y-26860500D01*
X147542817Y-26860500D01*
X147373953Y-26826911D01*
X147205089Y-26860500D01*
X146704988Y-26959976D01*
X146434365Y-27140800D01*
X146434365Y-24459000D01*
X153285635Y-24459000D01*
X153285635Y-28785772D01*
X153285635Y-28785772D01*
G37*
X153285635Y-28785772D02*
X151981937Y-27482075D01*
X151886280Y-27338914D01*
X151319159Y-26959976D01*
X150819058Y-26860500D01*
X150650194Y-26826911D01*
X150481330Y-26860500D01*
X147542817Y-26860500D01*
X147373953Y-26826911D01*
X147205089Y-26860500D01*
X146704988Y-26959976D01*
X146434365Y-27140800D01*
X146434365Y-24459000D01*
X153285635Y-24459000D01*
X153285635Y-28785772D01*
M02*
