G04 #@! TF.FileFunction,Legend,Top*
%FSLAX46Y46*%
G04 Gerber Fmt 4.6, Leading zero omitted, Abs format (unit mm)*
G04 Created by KiCad (PCBNEW 4.0.6) date Saturday, February 10, 2018 'AMt' 10:41:33 AM*
%MOMM*%
%LPD*%
G01*
G04 APERTURE LIST*
%ADD10C,0.100000*%
%ADD11C,0.076200*%
%ADD12C,0.200000*%
%ADD13C,0.300000*%
%ADD14C,0.152400*%
%ADD15C,0.150000*%
%ADD16C,0.120000*%
%ADD17C,0.357000*%
%ADD18C,0.210000*%
G04 APERTURE END LIST*
D10*
D11*
X116891054Y-58267707D02*
X116891054Y-57467709D01*
X117195815Y-57467709D01*
X117272005Y-57505804D01*
X117310100Y-57543899D01*
X117348195Y-57620089D01*
X117348195Y-57734375D01*
X117310100Y-57810565D01*
X117272005Y-57848660D01*
X117195815Y-57886755D01*
X116891054Y-57886755D01*
X117614861Y-57467709D02*
X117805337Y-58267707D01*
X117957718Y-57696280D01*
X118110098Y-58267707D01*
X118300574Y-57467709D01*
X119062476Y-58267707D02*
X118795810Y-57886755D01*
X118605335Y-58267707D02*
X118605335Y-57467709D01*
X118910096Y-57467709D01*
X118986286Y-57505804D01*
X119024381Y-57543899D01*
X119062476Y-57620089D01*
X119062476Y-57734375D01*
X119024381Y-57810565D01*
X118986286Y-57848660D01*
X118910096Y-57886755D01*
X118605335Y-57886755D01*
X119214857Y-58343897D02*
X119824379Y-58343897D01*
X120014855Y-58267707D02*
X120014855Y-57467709D01*
X120395806Y-58267707D02*
X120395806Y-57467709D01*
X120852947Y-58267707D01*
X120852947Y-57467709D01*
X117386289Y-59543904D02*
X116929148Y-59543904D01*
X117157718Y-59543904D02*
X117157718Y-58743906D01*
X117081528Y-58858191D01*
X117005338Y-58934382D01*
X116929148Y-58972477D01*
X117729146Y-59239143D02*
X118338668Y-59239143D01*
X119138666Y-58782001D02*
X119062476Y-58743906D01*
X118948191Y-58743906D01*
X118833905Y-58782001D01*
X118757715Y-58858191D01*
X118719620Y-58934382D01*
X118681525Y-59086762D01*
X118681525Y-59201048D01*
X118719620Y-59353428D01*
X118757715Y-59429618D01*
X118833905Y-59505809D01*
X118948191Y-59543904D01*
X119024381Y-59543904D01*
X119138666Y-59505809D01*
X119176761Y-59467714D01*
X119176761Y-59201048D01*
X119024381Y-59201048D01*
X119519618Y-59543904D02*
X119519618Y-58743906D01*
X119976759Y-59543904D01*
X119976759Y-58743906D01*
X120357711Y-59543904D02*
X120357711Y-58743906D01*
X120548186Y-58743906D01*
X120662472Y-58782001D01*
X120738662Y-58858191D01*
X120776757Y-58934382D01*
X120814852Y-59086762D01*
X120814852Y-59201048D01*
X120776757Y-59353428D01*
X120738662Y-59429618D01*
X120662472Y-59505809D01*
X120548186Y-59543904D01*
X120357711Y-59543904D01*
X116586292Y-60096293D02*
X116624387Y-60058198D01*
X116700577Y-60020103D01*
X116891053Y-60020103D01*
X116967243Y-60058198D01*
X117005338Y-60096293D01*
X117043433Y-60172483D01*
X117043433Y-60248674D01*
X117005338Y-60362959D01*
X116548196Y-60820101D01*
X117043433Y-60820101D01*
X117386290Y-60515340D02*
X117995812Y-60515340D01*
X118376764Y-60515340D02*
X118986286Y-60515340D01*
X118681525Y-60820101D02*
X118681525Y-60210579D01*
X119786284Y-60820101D02*
X119329143Y-60820101D01*
X119557713Y-60820101D02*
X119557713Y-60020103D01*
X119481523Y-60134388D01*
X119405333Y-60210579D01*
X119329143Y-60248674D01*
X120091046Y-60096293D02*
X120129141Y-60058198D01*
X120205331Y-60020103D01*
X120395807Y-60020103D01*
X120471997Y-60058198D01*
X120510092Y-60096293D01*
X120548187Y-60172483D01*
X120548187Y-60248674D01*
X120510092Y-60362959D01*
X120052950Y-60820101D01*
X120548187Y-60820101D01*
X120814853Y-60286769D02*
X121005329Y-60820101D01*
X121195805Y-60286769D01*
D12*
X182277238Y-60054381D02*
X182277238Y-59054381D01*
X182848667Y-60054381D02*
X182420095Y-59482952D01*
X182848667Y-59054381D02*
X182277238Y-59625810D01*
X183705810Y-60054381D02*
X183705810Y-59530571D01*
X183658191Y-59435333D01*
X183562953Y-59387714D01*
X183372476Y-59387714D01*
X183277238Y-59435333D01*
X183705810Y-60006762D02*
X183610572Y-60054381D01*
X183372476Y-60054381D01*
X183277238Y-60006762D01*
X183229619Y-59911524D01*
X183229619Y-59816286D01*
X183277238Y-59721048D01*
X183372476Y-59673429D01*
X183610572Y-59673429D01*
X183705810Y-59625810D01*
X184182000Y-60054381D02*
X184182000Y-59387714D01*
X184182000Y-59578190D02*
X184229619Y-59482952D01*
X184277238Y-59435333D01*
X184372476Y-59387714D01*
X184467715Y-59387714D01*
X184801048Y-60054381D02*
X184801048Y-59054381D01*
X184896286Y-59673429D02*
X185182001Y-60054381D01*
X185182001Y-59387714D02*
X184801048Y-59768667D01*
X186372477Y-60054381D02*
X186372477Y-59054381D01*
X186705811Y-59768667D01*
X187039144Y-59054381D01*
X187039144Y-60054381D01*
X187943906Y-60054381D02*
X187943906Y-59530571D01*
X187896287Y-59435333D01*
X187801049Y-59387714D01*
X187610572Y-59387714D01*
X187515334Y-59435333D01*
X187943906Y-60006762D02*
X187848668Y-60054381D01*
X187610572Y-60054381D01*
X187515334Y-60006762D01*
X187467715Y-59911524D01*
X187467715Y-59816286D01*
X187515334Y-59721048D01*
X187610572Y-59673429D01*
X187848668Y-59673429D01*
X187943906Y-59625810D01*
X188420096Y-60054381D02*
X188420096Y-59387714D01*
X188420096Y-59054381D02*
X188372477Y-59102000D01*
X188420096Y-59149619D01*
X188467715Y-59102000D01*
X188420096Y-59054381D01*
X188420096Y-59149619D01*
X188896286Y-59387714D02*
X188896286Y-60054381D01*
X188896286Y-59482952D02*
X188943905Y-59435333D01*
X189039143Y-59387714D01*
X189182001Y-59387714D01*
X189277239Y-59435333D01*
X189324858Y-59530571D01*
X189324858Y-60054381D01*
X181658190Y-61754381D02*
X181658190Y-60754381D01*
X182039143Y-60754381D01*
X182134381Y-60802000D01*
X182182000Y-60849619D01*
X182229619Y-60944857D01*
X182229619Y-61087714D01*
X182182000Y-61182952D01*
X182134381Y-61230571D01*
X182039143Y-61278190D01*
X181658190Y-61278190D01*
X182801047Y-61754381D02*
X182705809Y-61706762D01*
X182658190Y-61659143D01*
X182610571Y-61563905D01*
X182610571Y-61278190D01*
X182658190Y-61182952D01*
X182705809Y-61135333D01*
X182801047Y-61087714D01*
X182943905Y-61087714D01*
X183039143Y-61135333D01*
X183086762Y-61182952D01*
X183134381Y-61278190D01*
X183134381Y-61563905D01*
X183086762Y-61659143D01*
X183039143Y-61706762D01*
X182943905Y-61754381D01*
X182801047Y-61754381D01*
X183467714Y-61087714D02*
X183658190Y-61754381D01*
X183848667Y-61278190D01*
X184039143Y-61754381D01*
X184229619Y-61087714D01*
X184991524Y-61706762D02*
X184896286Y-61754381D01*
X184705809Y-61754381D01*
X184610571Y-61706762D01*
X184562952Y-61611524D01*
X184562952Y-61230571D01*
X184610571Y-61135333D01*
X184705809Y-61087714D01*
X184896286Y-61087714D01*
X184991524Y-61135333D01*
X185039143Y-61230571D01*
X185039143Y-61325810D01*
X184562952Y-61421048D01*
X185467714Y-61754381D02*
X185467714Y-61087714D01*
X185467714Y-61278190D02*
X185515333Y-61182952D01*
X185562952Y-61135333D01*
X185658190Y-61087714D01*
X185753429Y-61087714D01*
X187182001Y-61230571D02*
X187324858Y-61278190D01*
X187372477Y-61325810D01*
X187420096Y-61421048D01*
X187420096Y-61563905D01*
X187372477Y-61659143D01*
X187324858Y-61706762D01*
X187229620Y-61754381D01*
X186848667Y-61754381D01*
X186848667Y-60754381D01*
X187182001Y-60754381D01*
X187277239Y-60802000D01*
X187324858Y-60849619D01*
X187372477Y-60944857D01*
X187372477Y-61040095D01*
X187324858Y-61135333D01*
X187277239Y-61182952D01*
X187182001Y-61230571D01*
X186848667Y-61230571D01*
X187991524Y-61754381D02*
X187896286Y-61706762D01*
X187848667Y-61659143D01*
X187801048Y-61563905D01*
X187801048Y-61278190D01*
X187848667Y-61182952D01*
X187896286Y-61135333D01*
X187991524Y-61087714D01*
X188134382Y-61087714D01*
X188229620Y-61135333D01*
X188277239Y-61182952D01*
X188324858Y-61278190D01*
X188324858Y-61563905D01*
X188277239Y-61659143D01*
X188229620Y-61706762D01*
X188134382Y-61754381D01*
X187991524Y-61754381D01*
X189182001Y-61754381D02*
X189182001Y-61230571D01*
X189134382Y-61135333D01*
X189039144Y-61087714D01*
X188848667Y-61087714D01*
X188753429Y-61135333D01*
X189182001Y-61706762D02*
X189086763Y-61754381D01*
X188848667Y-61754381D01*
X188753429Y-61706762D01*
X188705810Y-61611524D01*
X188705810Y-61516286D01*
X188753429Y-61421048D01*
X188848667Y-61373429D01*
X189086763Y-61373429D01*
X189182001Y-61325810D01*
X189658191Y-61754381D02*
X189658191Y-61087714D01*
X189658191Y-61278190D02*
X189705810Y-61182952D01*
X189753429Y-61135333D01*
X189848667Y-61087714D01*
X189943906Y-61087714D01*
X190705811Y-61754381D02*
X190705811Y-60754381D01*
X190705811Y-61706762D02*
X190610573Y-61754381D01*
X190420096Y-61754381D01*
X190324858Y-61706762D01*
X190277239Y-61659143D01*
X190229620Y-61563905D01*
X190229620Y-61278190D01*
X190277239Y-61182952D01*
X190324858Y-61135333D01*
X190420096Y-61087714D01*
X190610573Y-61087714D01*
X190705811Y-61135333D01*
D13*
X124786972Y-36898971D02*
X123929829Y-36898971D01*
X124358401Y-36898971D02*
X124358401Y-35398971D01*
X124215544Y-35613257D01*
X124072686Y-35756114D01*
X123929829Y-35827543D01*
X185472344Y-35602171D02*
X184758058Y-35602171D01*
X184686629Y-36316457D01*
X184758058Y-36245029D01*
X184900915Y-36173600D01*
X185258058Y-36173600D01*
X185400915Y-36245029D01*
X185472344Y-36316457D01*
X185543772Y-36459314D01*
X185543772Y-36816457D01*
X185472344Y-36959314D01*
X185400915Y-37030743D01*
X185258058Y-37102171D01*
X184900915Y-37102171D01*
X184758058Y-37030743D01*
X184686629Y-36959314D01*
D10*
X108362809Y-41215714D02*
X108324714Y-41253810D01*
X108210428Y-41291905D01*
X108134238Y-41291905D01*
X108019952Y-41253810D01*
X107943761Y-41177619D01*
X107905666Y-41101429D01*
X107867571Y-40949048D01*
X107867571Y-40834762D01*
X107905666Y-40682381D01*
X107943761Y-40606190D01*
X108019952Y-40530000D01*
X108134238Y-40491905D01*
X108210428Y-40491905D01*
X108324714Y-40530000D01*
X108362809Y-40568095D01*
X109048523Y-41291905D02*
X109048523Y-40872857D01*
X109010428Y-40796667D01*
X108934238Y-40758571D01*
X108781857Y-40758571D01*
X108705666Y-40796667D01*
X109048523Y-41253810D02*
X108972333Y-41291905D01*
X108781857Y-41291905D01*
X108705666Y-41253810D01*
X108667571Y-41177619D01*
X108667571Y-41101429D01*
X108705666Y-41025238D01*
X108781857Y-40987143D01*
X108972333Y-40987143D01*
X109048523Y-40949048D01*
X109429476Y-40758571D02*
X109429476Y-41291905D01*
X109429476Y-40834762D02*
X109467571Y-40796667D01*
X109543762Y-40758571D01*
X109658048Y-40758571D01*
X109734238Y-40796667D01*
X109772333Y-40872857D01*
X109772333Y-41291905D01*
X107353286Y-42591905D02*
X106896143Y-42591905D01*
X107124714Y-42591905D02*
X107124714Y-41791905D01*
X107048524Y-41906190D01*
X106972333Y-41982381D01*
X106896143Y-42020476D01*
X107696143Y-42287143D02*
X108305667Y-42287143D01*
X109105667Y-41830000D02*
X109029476Y-41791905D01*
X108915191Y-41791905D01*
X108800905Y-41830000D01*
X108724714Y-41906190D01*
X108686619Y-41982381D01*
X108648524Y-42134762D01*
X108648524Y-42249048D01*
X108686619Y-42401429D01*
X108724714Y-42477619D01*
X108800905Y-42553810D01*
X108915191Y-42591905D01*
X108991381Y-42591905D01*
X109105667Y-42553810D01*
X109143762Y-42515714D01*
X109143762Y-42249048D01*
X108991381Y-42249048D01*
X109486619Y-42591905D02*
X109486619Y-41791905D01*
X109943762Y-42591905D01*
X109943762Y-41791905D01*
X110324714Y-42591905D02*
X110324714Y-41791905D01*
X110515190Y-41791905D01*
X110629476Y-41830000D01*
X110705667Y-41906190D01*
X110743762Y-41982381D01*
X110781857Y-42134762D01*
X110781857Y-42249048D01*
X110743762Y-42401429D01*
X110705667Y-42477619D01*
X110629476Y-42553810D01*
X110515190Y-42591905D01*
X110324714Y-42591905D01*
X106305666Y-43168095D02*
X106343761Y-43130000D01*
X106419952Y-43091905D01*
X106610428Y-43091905D01*
X106686618Y-43130000D01*
X106724714Y-43168095D01*
X106762809Y-43244286D01*
X106762809Y-43320476D01*
X106724714Y-43434762D01*
X106267571Y-43891905D01*
X106762809Y-43891905D01*
X107105666Y-43587143D02*
X107715190Y-43587143D01*
X108553285Y-43815714D02*
X108515190Y-43853810D01*
X108400904Y-43891905D01*
X108324714Y-43891905D01*
X108210428Y-43853810D01*
X108134237Y-43777619D01*
X108096142Y-43701429D01*
X108058047Y-43549048D01*
X108058047Y-43434762D01*
X108096142Y-43282381D01*
X108134237Y-43206190D01*
X108210428Y-43130000D01*
X108324714Y-43091905D01*
X108400904Y-43091905D01*
X108515190Y-43130000D01*
X108553285Y-43168095D01*
X109238999Y-43891905D02*
X109238999Y-43472857D01*
X109200904Y-43396667D01*
X109124714Y-43358571D01*
X108972333Y-43358571D01*
X108896142Y-43396667D01*
X109238999Y-43853810D02*
X109162809Y-43891905D01*
X108972333Y-43891905D01*
X108896142Y-43853810D01*
X108858047Y-43777619D01*
X108858047Y-43701429D01*
X108896142Y-43625238D01*
X108972333Y-43587143D01*
X109162809Y-43587143D01*
X109238999Y-43549048D01*
X109619952Y-43358571D02*
X109619952Y-43891905D01*
X109619952Y-43434762D02*
X109658047Y-43396667D01*
X109734238Y-43358571D01*
X109848524Y-43358571D01*
X109924714Y-43396667D01*
X109962809Y-43472857D01*
X109962809Y-43891905D01*
X110724715Y-43891905D02*
X110343762Y-43891905D01*
X110343762Y-43091905D01*
X111105667Y-43891905D02*
X111029476Y-43853810D01*
X110991381Y-43815714D01*
X110953286Y-43739524D01*
X110953286Y-43510952D01*
X110991381Y-43434762D01*
X111029476Y-43396667D01*
X111105667Y-43358571D01*
X111219953Y-43358571D01*
X111296143Y-43396667D01*
X111334238Y-43434762D01*
X111372334Y-43510952D01*
X111372334Y-43739524D01*
X111334238Y-43815714D01*
X111296143Y-43853810D01*
X111219953Y-43891905D01*
X111105667Y-43891905D01*
X106343762Y-44391905D02*
X106839000Y-44391905D01*
X106572333Y-44696667D01*
X106686619Y-44696667D01*
X106762809Y-44734762D01*
X106800905Y-44772857D01*
X106839000Y-44849048D01*
X106839000Y-45039524D01*
X106800905Y-45115714D01*
X106762809Y-45153810D01*
X106686619Y-45191905D01*
X106458047Y-45191905D01*
X106381857Y-45153810D01*
X106343762Y-45115714D01*
X107181857Y-44887143D02*
X107791381Y-44887143D01*
X108629476Y-45115714D02*
X108591381Y-45153810D01*
X108477095Y-45191905D01*
X108400905Y-45191905D01*
X108286619Y-45153810D01*
X108210428Y-45077619D01*
X108172333Y-45001429D01*
X108134238Y-44849048D01*
X108134238Y-44734762D01*
X108172333Y-44582381D01*
X108210428Y-44506190D01*
X108286619Y-44430000D01*
X108400905Y-44391905D01*
X108477095Y-44391905D01*
X108591381Y-44430000D01*
X108629476Y-44468095D01*
X109315190Y-45191905D02*
X109315190Y-44772857D01*
X109277095Y-44696667D01*
X109200905Y-44658571D01*
X109048524Y-44658571D01*
X108972333Y-44696667D01*
X109315190Y-45153810D02*
X109239000Y-45191905D01*
X109048524Y-45191905D01*
X108972333Y-45153810D01*
X108934238Y-45077619D01*
X108934238Y-45001429D01*
X108972333Y-44925238D01*
X109048524Y-44887143D01*
X109239000Y-44887143D01*
X109315190Y-44849048D01*
X109696143Y-44658571D02*
X109696143Y-45191905D01*
X109696143Y-44734762D02*
X109734238Y-44696667D01*
X109810429Y-44658571D01*
X109924715Y-44658571D01*
X110000905Y-44696667D01*
X110039000Y-44772857D01*
X110039000Y-45191905D01*
X110419953Y-45191905D02*
X110419953Y-44391905D01*
X110419953Y-44772857D02*
X110877096Y-44772857D01*
X110877096Y-45191905D02*
X110877096Y-44391905D01*
X111258048Y-45191905D02*
X111258048Y-44658571D01*
X111258048Y-44391905D02*
X111219953Y-44430000D01*
X111258048Y-44468095D01*
X111296143Y-44430000D01*
X111258048Y-44391905D01*
X111258048Y-44468095D01*
X107239000Y-45958571D02*
X107239000Y-46491905D01*
X107048524Y-45653810D02*
X106858048Y-46225238D01*
X107353286Y-46225238D01*
X107658048Y-46187143D02*
X108267572Y-46187143D01*
X108648524Y-46491905D02*
X108648524Y-45691905D01*
X108953286Y-45691905D01*
X109029477Y-45730000D01*
X109067572Y-45768095D01*
X109105667Y-45844286D01*
X109105667Y-45958571D01*
X109067572Y-46034762D01*
X109029477Y-46072857D01*
X108953286Y-46110952D01*
X108648524Y-46110952D01*
X109372334Y-45691905D02*
X109562810Y-46491905D01*
X109715191Y-45920476D01*
X109867572Y-46491905D01*
X110058048Y-45691905D01*
X110819953Y-46491905D02*
X110553286Y-46110952D01*
X110362810Y-46491905D02*
X110362810Y-45691905D01*
X110667572Y-45691905D01*
X110743763Y-45730000D01*
X110781858Y-45768095D01*
X110819953Y-45844286D01*
X110819953Y-45958571D01*
X110781858Y-46034762D01*
X110743763Y-46072857D01*
X110667572Y-46110952D01*
X110362810Y-46110952D01*
X106572333Y-48672857D02*
X106839000Y-48672857D01*
X106953286Y-49091905D02*
X106572333Y-49091905D01*
X106572333Y-48291905D01*
X106953286Y-48291905D01*
X107562810Y-48672857D02*
X107296143Y-48672857D01*
X107296143Y-49091905D02*
X107296143Y-48291905D01*
X107677096Y-48291905D01*
X107981857Y-49091905D02*
X107981857Y-48291905D01*
X108172333Y-49168095D02*
X108781857Y-49168095D01*
X108972333Y-49091905D02*
X108972333Y-48291905D01*
X109277095Y-48291905D01*
X109353286Y-48330000D01*
X109391381Y-48368095D01*
X109429476Y-48444286D01*
X109429476Y-48558571D01*
X109391381Y-48634762D01*
X109353286Y-48672857D01*
X109277095Y-48710952D01*
X108972333Y-48710952D01*
X109696143Y-48291905D02*
X109886619Y-49091905D01*
X110039000Y-48520476D01*
X110191381Y-49091905D01*
X110381857Y-48291905D01*
X111143762Y-49091905D02*
X110877095Y-48710952D01*
X110686619Y-49091905D02*
X110686619Y-48291905D01*
X110991381Y-48291905D01*
X111067572Y-48330000D01*
X111105667Y-48368095D01*
X111143762Y-48444286D01*
X111143762Y-48558571D01*
X111105667Y-48634762D01*
X111067572Y-48672857D01*
X110991381Y-48710952D01*
X110686619Y-48710952D01*
X104286618Y-50391905D02*
X103829475Y-50391905D01*
X104058046Y-50391905D02*
X104058046Y-49591905D01*
X103981856Y-49706190D01*
X103905665Y-49782381D01*
X103829475Y-49820476D01*
X104629475Y-50087143D02*
X105238999Y-50087143D01*
X105505665Y-49591905D02*
X105962808Y-49591905D01*
X105734237Y-50391905D02*
X105734237Y-49591905D01*
X106229475Y-50391905D02*
X106229475Y-49591905D01*
X106572332Y-50391905D02*
X106572332Y-49972857D01*
X106534237Y-49896667D01*
X106458047Y-49858571D01*
X106343761Y-49858571D01*
X106267570Y-49896667D01*
X106229475Y-49934762D01*
X106953285Y-50391905D02*
X106953285Y-49858571D01*
X106953285Y-50010952D02*
X106991380Y-49934762D01*
X107029476Y-49896667D01*
X107105666Y-49858571D01*
X107181857Y-49858571D01*
X107562809Y-50391905D02*
X107486618Y-50353810D01*
X107448523Y-50315714D01*
X107410428Y-50239524D01*
X107410428Y-50010952D01*
X107448523Y-49934762D01*
X107486618Y-49896667D01*
X107562809Y-49858571D01*
X107677095Y-49858571D01*
X107753285Y-49896667D01*
X107791380Y-49934762D01*
X107829476Y-50010952D01*
X107829476Y-50239524D01*
X107791380Y-50315714D01*
X107753285Y-50353810D01*
X107677095Y-50391905D01*
X107562809Y-50391905D01*
X108515190Y-49858571D02*
X108515190Y-50391905D01*
X108172333Y-49858571D02*
X108172333Y-50277619D01*
X108210428Y-50353810D01*
X108286619Y-50391905D01*
X108400905Y-50391905D01*
X108477095Y-50353810D01*
X108515190Y-50315714D01*
X109239000Y-49858571D02*
X109239000Y-50506190D01*
X109200905Y-50582381D01*
X109162810Y-50620476D01*
X109086619Y-50658571D01*
X108972334Y-50658571D01*
X108896143Y-50620476D01*
X109239000Y-50353810D02*
X109162810Y-50391905D01*
X109010429Y-50391905D01*
X108934238Y-50353810D01*
X108896143Y-50315714D01*
X108858048Y-50239524D01*
X108858048Y-50010952D01*
X108896143Y-49934762D01*
X108934238Y-49896667D01*
X109010429Y-49858571D01*
X109162810Y-49858571D01*
X109239000Y-49896667D01*
X109619953Y-50391905D02*
X109619953Y-49591905D01*
X109962810Y-50391905D02*
X109962810Y-49972857D01*
X109924715Y-49896667D01*
X109848525Y-49858571D01*
X109734239Y-49858571D01*
X109658048Y-49896667D01*
X109619953Y-49934762D01*
X111410430Y-50391905D02*
X111143763Y-50010952D01*
X110953287Y-50391905D02*
X110953287Y-49591905D01*
X111258049Y-49591905D01*
X111334240Y-49630000D01*
X111372335Y-49668095D01*
X111410430Y-49744286D01*
X111410430Y-49858571D01*
X111372335Y-49934762D01*
X111334240Y-49972857D01*
X111258049Y-50010952D01*
X110953287Y-50010952D01*
X112058049Y-50353810D02*
X111981859Y-50391905D01*
X111829478Y-50391905D01*
X111753287Y-50353810D01*
X111715192Y-50277619D01*
X111715192Y-49972857D01*
X111753287Y-49896667D01*
X111829478Y-49858571D01*
X111981859Y-49858571D01*
X112058049Y-49896667D01*
X112096144Y-49972857D01*
X112096144Y-50049048D01*
X111715192Y-50125238D01*
X112553287Y-50391905D02*
X112477096Y-50353810D01*
X112439001Y-50277619D01*
X112439001Y-49591905D01*
X113200906Y-50391905D02*
X113200906Y-49972857D01*
X113162811Y-49896667D01*
X113086621Y-49858571D01*
X112934240Y-49858571D01*
X112858049Y-49896667D01*
X113200906Y-50353810D02*
X113124716Y-50391905D01*
X112934240Y-50391905D01*
X112858049Y-50353810D01*
X112819954Y-50277619D01*
X112819954Y-50201429D01*
X112858049Y-50125238D01*
X112934240Y-50087143D01*
X113124716Y-50087143D01*
X113200906Y-50049048D01*
X113505669Y-49858571D02*
X113696145Y-50391905D01*
X113886621Y-49858571D02*
X113696145Y-50391905D01*
X113619954Y-50582381D01*
X113581859Y-50620476D01*
X113505669Y-50658571D01*
X106896143Y-50968095D02*
X106934238Y-50930000D01*
X107010429Y-50891905D01*
X107200905Y-50891905D01*
X107277095Y-50930000D01*
X107315191Y-50968095D01*
X107353286Y-51044286D01*
X107353286Y-51120476D01*
X107315191Y-51234762D01*
X106858048Y-51691905D01*
X107353286Y-51691905D01*
X107696143Y-51387143D02*
X108305667Y-51387143D01*
X109105667Y-50930000D02*
X109029476Y-50891905D01*
X108915191Y-50891905D01*
X108800905Y-50930000D01*
X108724714Y-51006190D01*
X108686619Y-51082381D01*
X108648524Y-51234762D01*
X108648524Y-51349048D01*
X108686619Y-51501429D01*
X108724714Y-51577619D01*
X108800905Y-51653810D01*
X108915191Y-51691905D01*
X108991381Y-51691905D01*
X109105667Y-51653810D01*
X109143762Y-51615714D01*
X109143762Y-51349048D01*
X108991381Y-51349048D01*
X109486619Y-51691905D02*
X109486619Y-50891905D01*
X109943762Y-51691905D01*
X109943762Y-50891905D01*
X110324714Y-51691905D02*
X110324714Y-50891905D01*
X110515190Y-50891905D01*
X110629476Y-50930000D01*
X110705667Y-51006190D01*
X110743762Y-51082381D01*
X110781857Y-51234762D01*
X110781857Y-51349048D01*
X110743762Y-51501429D01*
X110705667Y-51577619D01*
X110629476Y-51653810D01*
X110515190Y-51691905D01*
X110324714Y-51691905D01*
X105905667Y-52191905D02*
X106400905Y-52191905D01*
X106134238Y-52496667D01*
X106248524Y-52496667D01*
X106324714Y-52534762D01*
X106362810Y-52572857D01*
X106400905Y-52649048D01*
X106400905Y-52839524D01*
X106362810Y-52915714D01*
X106324714Y-52953810D01*
X106248524Y-52991905D01*
X106019952Y-52991905D01*
X105943762Y-52953810D01*
X105905667Y-52915714D01*
X106743762Y-52687143D02*
X107353286Y-52687143D01*
X107886619Y-52191905D02*
X108039000Y-52191905D01*
X108115191Y-52230000D01*
X108191381Y-52306190D01*
X108229476Y-52458571D01*
X108229476Y-52725238D01*
X108191381Y-52877619D01*
X108115191Y-52953810D01*
X108039000Y-52991905D01*
X107886619Y-52991905D01*
X107810429Y-52953810D01*
X107734238Y-52877619D01*
X107696143Y-52725238D01*
X107696143Y-52458571D01*
X107734238Y-52306190D01*
X107810429Y-52230000D01*
X107886619Y-52191905D01*
X108534238Y-52268095D02*
X108572333Y-52230000D01*
X108648524Y-52191905D01*
X108839000Y-52191905D01*
X108915190Y-52230000D01*
X108953286Y-52268095D01*
X108991381Y-52344286D01*
X108991381Y-52420476D01*
X108953286Y-52534762D01*
X108496143Y-52991905D01*
X108991381Y-52991905D01*
X109143762Y-53068095D02*
X109753286Y-53068095D01*
X109943762Y-52991905D02*
X109943762Y-52191905D01*
X110248524Y-52191905D01*
X110324715Y-52230000D01*
X110362810Y-52268095D01*
X110400905Y-52344286D01*
X110400905Y-52458571D01*
X110362810Y-52534762D01*
X110324715Y-52572857D01*
X110248524Y-52610952D01*
X109943762Y-52610952D01*
X110667572Y-52458571D02*
X110819953Y-52991905D01*
X110972334Y-52610952D01*
X111124715Y-52991905D01*
X111277096Y-52458571D01*
X111581857Y-52991905D02*
X111581857Y-52458571D01*
X111581857Y-52610952D02*
X111619952Y-52534762D01*
X111658048Y-52496667D01*
X111734238Y-52458571D01*
X111810429Y-52458571D01*
X107277095Y-53758571D02*
X107277095Y-54291905D01*
X107086619Y-53453810D02*
X106896143Y-54025238D01*
X107391381Y-54025238D01*
X107696143Y-53987143D02*
X108305667Y-53987143D01*
X109105667Y-53530000D02*
X109029476Y-53491905D01*
X108915191Y-53491905D01*
X108800905Y-53530000D01*
X108724714Y-53606190D01*
X108686619Y-53682381D01*
X108648524Y-53834762D01*
X108648524Y-53949048D01*
X108686619Y-54101429D01*
X108724714Y-54177619D01*
X108800905Y-54253810D01*
X108915191Y-54291905D01*
X108991381Y-54291905D01*
X109105667Y-54253810D01*
X109143762Y-54215714D01*
X109143762Y-53949048D01*
X108991381Y-53949048D01*
X109486619Y-54291905D02*
X109486619Y-53491905D01*
X109943762Y-54291905D01*
X109943762Y-53491905D01*
X110324714Y-54291905D02*
X110324714Y-53491905D01*
X110515190Y-53491905D01*
X110629476Y-53530000D01*
X110705667Y-53606190D01*
X110743762Y-53682381D01*
X110781857Y-53834762D01*
X110781857Y-53949048D01*
X110743762Y-54101429D01*
X110705667Y-54177619D01*
X110629476Y-54253810D01*
X110515190Y-54291905D01*
X110324714Y-54291905D01*
X107048524Y-56472857D02*
X107315191Y-56472857D01*
X107429477Y-56891905D02*
X107048524Y-56891905D01*
X107048524Y-56091905D01*
X107429477Y-56091905D01*
X108039001Y-56472857D02*
X107772334Y-56472857D01*
X107772334Y-56891905D02*
X107772334Y-56091905D01*
X108153287Y-56091905D01*
X108458048Y-56891905D02*
X108458048Y-56091905D01*
X108648524Y-56968095D02*
X109258048Y-56968095D01*
X109448524Y-56472857D02*
X109715191Y-56472857D01*
X109829477Y-56891905D02*
X109448524Y-56891905D01*
X109448524Y-56091905D01*
X109829477Y-56091905D01*
X110172334Y-56891905D02*
X110172334Y-56091905D01*
X110629477Y-56891905D01*
X110629477Y-56091905D01*
X107010429Y-58191905D02*
X106553286Y-58191905D01*
X106781857Y-58191905D02*
X106781857Y-57391905D01*
X106705667Y-57506190D01*
X106629476Y-57582381D01*
X106553286Y-57620476D01*
X107353286Y-57887143D02*
X107962810Y-57887143D01*
X108343762Y-57887143D02*
X108953286Y-57887143D01*
X108648524Y-58191905D02*
X108648524Y-57582381D01*
X109753286Y-58191905D02*
X109296143Y-58191905D01*
X109524714Y-58191905D02*
X109524714Y-57391905D01*
X109448524Y-57506190D01*
X109372333Y-57582381D01*
X109296143Y-57620476D01*
X110058048Y-57468095D02*
X110096143Y-57430000D01*
X110172334Y-57391905D01*
X110362810Y-57391905D01*
X110439000Y-57430000D01*
X110477096Y-57468095D01*
X110515191Y-57544286D01*
X110515191Y-57620476D01*
X110477096Y-57734762D01*
X110019953Y-58191905D01*
X110515191Y-58191905D01*
X110781858Y-57658571D02*
X110972334Y-58191905D01*
X111162810Y-57658571D01*
X104267571Y-58768095D02*
X104305666Y-58730000D01*
X104381857Y-58691905D01*
X104572333Y-58691905D01*
X104648523Y-58730000D01*
X104686619Y-58768095D01*
X104724714Y-58844286D01*
X104724714Y-58920476D01*
X104686619Y-59034762D01*
X104229476Y-59491905D01*
X104724714Y-59491905D01*
X105067571Y-59187143D02*
X105677095Y-59187143D01*
X105943761Y-58691905D02*
X106400904Y-58691905D01*
X106172333Y-59491905D02*
X106172333Y-58691905D01*
X106781857Y-59491905D02*
X106705666Y-59453810D01*
X106667571Y-59415714D01*
X106629476Y-59339524D01*
X106629476Y-59110952D01*
X106667571Y-59034762D01*
X106705666Y-58996667D01*
X106781857Y-58958571D01*
X106896143Y-58958571D01*
X106972333Y-58996667D01*
X107010428Y-59034762D01*
X107048524Y-59110952D01*
X107048524Y-59339524D01*
X107010428Y-59415714D01*
X106972333Y-59453810D01*
X106896143Y-59491905D01*
X106781857Y-59491905D01*
X107886619Y-58958571D02*
X108191381Y-58958571D01*
X108000905Y-58691905D02*
X108000905Y-59377619D01*
X108039000Y-59453810D01*
X108115191Y-59491905D01*
X108191381Y-59491905D01*
X108458048Y-59491905D02*
X108458048Y-58958571D01*
X108458048Y-59110952D02*
X108496143Y-59034762D01*
X108534239Y-58996667D01*
X108610429Y-58958571D01*
X108686620Y-58958571D01*
X109296143Y-59491905D02*
X109296143Y-59072857D01*
X109258048Y-58996667D01*
X109181858Y-58958571D01*
X109029477Y-58958571D01*
X108953286Y-58996667D01*
X109296143Y-59453810D02*
X109219953Y-59491905D01*
X109029477Y-59491905D01*
X108953286Y-59453810D01*
X108915191Y-59377619D01*
X108915191Y-59301429D01*
X108953286Y-59225238D01*
X109029477Y-59187143D01*
X109219953Y-59187143D01*
X109296143Y-59149048D01*
X109677096Y-58958571D02*
X109677096Y-59491905D01*
X109677096Y-59034762D02*
X109715191Y-58996667D01*
X109791382Y-58958571D01*
X109905668Y-58958571D01*
X109981858Y-58996667D01*
X110019953Y-59072857D01*
X110019953Y-59491905D01*
X110362811Y-59453810D02*
X110439001Y-59491905D01*
X110591382Y-59491905D01*
X110667573Y-59453810D01*
X110705668Y-59377619D01*
X110705668Y-59339524D01*
X110667573Y-59263333D01*
X110591382Y-59225238D01*
X110477097Y-59225238D01*
X110400906Y-59187143D01*
X110362811Y-59110952D01*
X110362811Y-59072857D01*
X110400906Y-58996667D01*
X110477097Y-58958571D01*
X110591382Y-58958571D01*
X110667573Y-58996667D01*
X111048525Y-59491905D02*
X111048525Y-58958571D01*
X111048525Y-58691905D02*
X111010430Y-58730000D01*
X111048525Y-58768095D01*
X111086620Y-58730000D01*
X111048525Y-58691905D01*
X111048525Y-58768095D01*
X111391382Y-59453810D02*
X111467572Y-59491905D01*
X111619953Y-59491905D01*
X111696144Y-59453810D01*
X111734239Y-59377619D01*
X111734239Y-59339524D01*
X111696144Y-59263333D01*
X111619953Y-59225238D01*
X111505668Y-59225238D01*
X111429477Y-59187143D01*
X111391382Y-59110952D01*
X111391382Y-59072857D01*
X111429477Y-58996667D01*
X111505668Y-58958571D01*
X111619953Y-58958571D01*
X111696144Y-58996667D01*
X111962810Y-58958571D02*
X112267572Y-58958571D01*
X112077096Y-58691905D02*
X112077096Y-59377619D01*
X112115191Y-59453810D01*
X112191382Y-59491905D01*
X112267572Y-59491905D01*
X112648525Y-59491905D02*
X112572334Y-59453810D01*
X112534239Y-59415714D01*
X112496144Y-59339524D01*
X112496144Y-59110952D01*
X112534239Y-59034762D01*
X112572334Y-58996667D01*
X112648525Y-58958571D01*
X112762811Y-58958571D01*
X112839001Y-58996667D01*
X112877096Y-59034762D01*
X112915192Y-59110952D01*
X112915192Y-59339524D01*
X112877096Y-59415714D01*
X112839001Y-59453810D01*
X112762811Y-59491905D01*
X112648525Y-59491905D01*
X113258049Y-59491905D02*
X113258049Y-58958571D01*
X113258049Y-59110952D02*
X113296144Y-59034762D01*
X113334240Y-58996667D01*
X113410430Y-58958571D01*
X113486621Y-58958571D01*
X106819952Y-61291905D02*
X106972333Y-61291905D01*
X107048524Y-61330000D01*
X107124714Y-61406190D01*
X107162809Y-61558571D01*
X107162809Y-61825238D01*
X107124714Y-61977619D01*
X107048524Y-62053810D01*
X106972333Y-62091905D01*
X106819952Y-62091905D01*
X106743762Y-62053810D01*
X106667571Y-61977619D01*
X106629476Y-61825238D01*
X106629476Y-61558571D01*
X106667571Y-61406190D01*
X106743762Y-61330000D01*
X106819952Y-61291905D01*
X107467571Y-61368095D02*
X107505666Y-61330000D01*
X107581857Y-61291905D01*
X107772333Y-61291905D01*
X107848523Y-61330000D01*
X107886619Y-61368095D01*
X107924714Y-61444286D01*
X107924714Y-61520476D01*
X107886619Y-61634762D01*
X107429476Y-62091905D01*
X107924714Y-62091905D01*
X108077095Y-62168095D02*
X108686619Y-62168095D01*
X108877095Y-62091905D02*
X108877095Y-61291905D01*
X109181857Y-61291905D01*
X109258048Y-61330000D01*
X109296143Y-61368095D01*
X109334238Y-61444286D01*
X109334238Y-61558571D01*
X109296143Y-61634762D01*
X109258048Y-61672857D01*
X109181857Y-61710952D01*
X108877095Y-61710952D01*
X109600905Y-61291905D02*
X109791381Y-62091905D01*
X109943762Y-61520476D01*
X110096143Y-62091905D01*
X110286619Y-61291905D01*
X111048524Y-62091905D02*
X110781857Y-61710952D01*
X110591381Y-62091905D02*
X110591381Y-61291905D01*
X110896143Y-61291905D01*
X110972334Y-61330000D01*
X111010429Y-61368095D01*
X111048524Y-61444286D01*
X111048524Y-61558571D01*
X111010429Y-61634762D01*
X110972334Y-61672857D01*
X110896143Y-61710952D01*
X110591381Y-61710952D01*
X107353286Y-63391905D02*
X106896143Y-63391905D01*
X107124714Y-63391905D02*
X107124714Y-62591905D01*
X107048524Y-62706190D01*
X106972333Y-62782381D01*
X106896143Y-62820476D01*
X107696143Y-63087143D02*
X108305667Y-63087143D01*
X109105667Y-62630000D02*
X109029476Y-62591905D01*
X108915191Y-62591905D01*
X108800905Y-62630000D01*
X108724714Y-62706190D01*
X108686619Y-62782381D01*
X108648524Y-62934762D01*
X108648524Y-63049048D01*
X108686619Y-63201429D01*
X108724714Y-63277619D01*
X108800905Y-63353810D01*
X108915191Y-63391905D01*
X108991381Y-63391905D01*
X109105667Y-63353810D01*
X109143762Y-63315714D01*
X109143762Y-63049048D01*
X108991381Y-63049048D01*
X109486619Y-63391905D02*
X109486619Y-62591905D01*
X109943762Y-63391905D01*
X109943762Y-62591905D01*
X110324714Y-63391905D02*
X110324714Y-62591905D01*
X110515190Y-62591905D01*
X110629476Y-62630000D01*
X110705667Y-62706190D01*
X110743762Y-62782381D01*
X110781857Y-62934762D01*
X110781857Y-63049048D01*
X110743762Y-63201429D01*
X110705667Y-63277619D01*
X110629476Y-63353810D01*
X110515190Y-63391905D01*
X110324714Y-63391905D01*
X105753286Y-63968095D02*
X105791381Y-63930000D01*
X105867572Y-63891905D01*
X106058048Y-63891905D01*
X106134238Y-63930000D01*
X106172334Y-63968095D01*
X106210429Y-64044286D01*
X106210429Y-64120476D01*
X106172334Y-64234762D01*
X105715191Y-64691905D01*
X106210429Y-64691905D01*
X106553286Y-64387143D02*
X107162810Y-64387143D01*
X107696143Y-63891905D02*
X107848524Y-63891905D01*
X107924715Y-63930000D01*
X108000905Y-64006190D01*
X108039000Y-64158571D01*
X108039000Y-64425238D01*
X108000905Y-64577619D01*
X107924715Y-64653810D01*
X107848524Y-64691905D01*
X107696143Y-64691905D01*
X107619953Y-64653810D01*
X107543762Y-64577619D01*
X107505667Y-64425238D01*
X107505667Y-64158571D01*
X107543762Y-64006190D01*
X107619953Y-63930000D01*
X107696143Y-63891905D01*
X108343762Y-63968095D02*
X108381857Y-63930000D01*
X108458048Y-63891905D01*
X108648524Y-63891905D01*
X108724714Y-63930000D01*
X108762810Y-63968095D01*
X108800905Y-64044286D01*
X108800905Y-64120476D01*
X108762810Y-64234762D01*
X108305667Y-64691905D01*
X108800905Y-64691905D01*
X108953286Y-64768095D02*
X109562810Y-64768095D01*
X109753286Y-64691905D02*
X109753286Y-63891905D01*
X110058048Y-63891905D01*
X110134239Y-63930000D01*
X110172334Y-63968095D01*
X110210429Y-64044286D01*
X110210429Y-64158571D01*
X110172334Y-64234762D01*
X110134239Y-64272857D01*
X110058048Y-64310952D01*
X109753286Y-64310952D01*
X110477096Y-63891905D02*
X110667572Y-64691905D01*
X110819953Y-64120476D01*
X110972334Y-64691905D01*
X111162810Y-63891905D01*
X111924715Y-64691905D02*
X111658048Y-64310952D01*
X111467572Y-64691905D02*
X111467572Y-63891905D01*
X111772334Y-63891905D01*
X111848525Y-63930000D01*
X111886620Y-63968095D01*
X111924715Y-64044286D01*
X111924715Y-64158571D01*
X111886620Y-64234762D01*
X111848525Y-64272857D01*
X111772334Y-64310952D01*
X111467572Y-64310952D01*
X105581857Y-66872857D02*
X105848524Y-66872857D01*
X105962810Y-67291905D02*
X105581857Y-67291905D01*
X105581857Y-66491905D01*
X105962810Y-66491905D01*
X106572334Y-66872857D02*
X106305667Y-66872857D01*
X106305667Y-67291905D02*
X106305667Y-66491905D01*
X106686620Y-66491905D01*
X106991381Y-67291905D02*
X106991381Y-66491905D01*
X107181857Y-67368095D02*
X107791381Y-67368095D01*
X108134238Y-66491905D02*
X108286619Y-66491905D01*
X108362810Y-66530000D01*
X108439000Y-66606190D01*
X108477095Y-66758571D01*
X108477095Y-67025238D01*
X108439000Y-67177619D01*
X108362810Y-67253810D01*
X108286619Y-67291905D01*
X108134238Y-67291905D01*
X108058048Y-67253810D01*
X107981857Y-67177619D01*
X107943762Y-67025238D01*
X107943762Y-66758571D01*
X107981857Y-66606190D01*
X108058048Y-66530000D01*
X108134238Y-66491905D01*
X108819952Y-66758571D02*
X108819952Y-67291905D01*
X108819952Y-66834762D02*
X108858047Y-66796667D01*
X108934238Y-66758571D01*
X109048524Y-66758571D01*
X109124714Y-66796667D01*
X109162809Y-66872857D01*
X109162809Y-67291905D01*
X109353286Y-67368095D02*
X109962810Y-67368095D01*
X110610429Y-67215714D02*
X110572334Y-67253810D01*
X110458048Y-67291905D01*
X110381858Y-67291905D01*
X110267572Y-67253810D01*
X110191381Y-67177619D01*
X110153286Y-67101429D01*
X110115191Y-66949048D01*
X110115191Y-66834762D01*
X110153286Y-66682381D01*
X110191381Y-66606190D01*
X110267572Y-66530000D01*
X110381858Y-66491905D01*
X110458048Y-66491905D01*
X110572334Y-66530000D01*
X110610429Y-66568095D01*
X110915191Y-67063333D02*
X111296143Y-67063333D01*
X110839000Y-67291905D02*
X111105667Y-66491905D01*
X111372334Y-67291905D01*
X111639000Y-67291905D02*
X111639000Y-66491905D01*
X112096143Y-67291905D01*
X112096143Y-66491905D01*
X107353286Y-68591905D02*
X106896143Y-68591905D01*
X107124714Y-68591905D02*
X107124714Y-67791905D01*
X107048524Y-67906190D01*
X106972333Y-67982381D01*
X106896143Y-68020476D01*
X107696143Y-68287143D02*
X108305667Y-68287143D01*
X109105667Y-67830000D02*
X109029476Y-67791905D01*
X108915191Y-67791905D01*
X108800905Y-67830000D01*
X108724714Y-67906190D01*
X108686619Y-67982381D01*
X108648524Y-68134762D01*
X108648524Y-68249048D01*
X108686619Y-68401429D01*
X108724714Y-68477619D01*
X108800905Y-68553810D01*
X108915191Y-68591905D01*
X108991381Y-68591905D01*
X109105667Y-68553810D01*
X109143762Y-68515714D01*
X109143762Y-68249048D01*
X108991381Y-68249048D01*
X109486619Y-68591905D02*
X109486619Y-67791905D01*
X109943762Y-68591905D01*
X109943762Y-67791905D01*
X110324714Y-68591905D02*
X110324714Y-67791905D01*
X110515190Y-67791905D01*
X110629476Y-67830000D01*
X110705667Y-67906190D01*
X110743762Y-67982381D01*
X110781857Y-68134762D01*
X110781857Y-68249048D01*
X110743762Y-68401429D01*
X110705667Y-68477619D01*
X110629476Y-68553810D01*
X110515190Y-68591905D01*
X110324714Y-68591905D01*
X104267571Y-69168095D02*
X104305666Y-69130000D01*
X104381857Y-69091905D01*
X104572333Y-69091905D01*
X104648523Y-69130000D01*
X104686619Y-69168095D01*
X104724714Y-69244286D01*
X104724714Y-69320476D01*
X104686619Y-69434762D01*
X104229476Y-69891905D01*
X104724714Y-69891905D01*
X105067571Y-69587143D02*
X105677095Y-69587143D01*
X105943761Y-69358571D02*
X106248523Y-69358571D01*
X106058047Y-69091905D02*
X106058047Y-69777619D01*
X106096142Y-69853810D01*
X106172333Y-69891905D01*
X106248523Y-69891905D01*
X106629476Y-69891905D02*
X106553285Y-69853810D01*
X106515190Y-69815714D01*
X106477095Y-69739524D01*
X106477095Y-69510952D01*
X106515190Y-69434762D01*
X106553285Y-69396667D01*
X106629476Y-69358571D01*
X106743762Y-69358571D01*
X106819952Y-69396667D01*
X106858047Y-69434762D01*
X106896143Y-69510952D01*
X106896143Y-69739524D01*
X106858047Y-69815714D01*
X106819952Y-69853810D01*
X106743762Y-69891905D01*
X106629476Y-69891905D01*
X107734238Y-69091905D02*
X108191381Y-69091905D01*
X107962810Y-69891905D02*
X107962810Y-69091905D01*
X108458048Y-69891905D02*
X108458048Y-69358571D01*
X108458048Y-69510952D02*
X108496143Y-69434762D01*
X108534239Y-69396667D01*
X108610429Y-69358571D01*
X108686620Y-69358571D01*
X109296143Y-69891905D02*
X109296143Y-69472857D01*
X109258048Y-69396667D01*
X109181858Y-69358571D01*
X109029477Y-69358571D01*
X108953286Y-69396667D01*
X109296143Y-69853810D02*
X109219953Y-69891905D01*
X109029477Y-69891905D01*
X108953286Y-69853810D01*
X108915191Y-69777619D01*
X108915191Y-69701429D01*
X108953286Y-69625238D01*
X109029477Y-69587143D01*
X109219953Y-69587143D01*
X109296143Y-69549048D01*
X109677096Y-69358571D02*
X109677096Y-69891905D01*
X109677096Y-69434762D02*
X109715191Y-69396667D01*
X109791382Y-69358571D01*
X109905668Y-69358571D01*
X109981858Y-69396667D01*
X110019953Y-69472857D01*
X110019953Y-69891905D01*
X110362811Y-69853810D02*
X110439001Y-69891905D01*
X110591382Y-69891905D01*
X110667573Y-69853810D01*
X110705668Y-69777619D01*
X110705668Y-69739524D01*
X110667573Y-69663333D01*
X110591382Y-69625238D01*
X110477097Y-69625238D01*
X110400906Y-69587143D01*
X110362811Y-69510952D01*
X110362811Y-69472857D01*
X110400906Y-69396667D01*
X110477097Y-69358571D01*
X110591382Y-69358571D01*
X110667573Y-69396667D01*
X111048525Y-69891905D02*
X111048525Y-69358571D01*
X111048525Y-69091905D02*
X111010430Y-69130000D01*
X111048525Y-69168095D01*
X111086620Y-69130000D01*
X111048525Y-69091905D01*
X111048525Y-69168095D01*
X111391382Y-69853810D02*
X111467572Y-69891905D01*
X111619953Y-69891905D01*
X111696144Y-69853810D01*
X111734239Y-69777619D01*
X111734239Y-69739524D01*
X111696144Y-69663333D01*
X111619953Y-69625238D01*
X111505668Y-69625238D01*
X111429477Y-69587143D01*
X111391382Y-69510952D01*
X111391382Y-69472857D01*
X111429477Y-69396667D01*
X111505668Y-69358571D01*
X111619953Y-69358571D01*
X111696144Y-69396667D01*
X111962810Y-69358571D02*
X112267572Y-69358571D01*
X112077096Y-69091905D02*
X112077096Y-69777619D01*
X112115191Y-69853810D01*
X112191382Y-69891905D01*
X112267572Y-69891905D01*
X112648525Y-69891905D02*
X112572334Y-69853810D01*
X112534239Y-69815714D01*
X112496144Y-69739524D01*
X112496144Y-69510952D01*
X112534239Y-69434762D01*
X112572334Y-69396667D01*
X112648525Y-69358571D01*
X112762811Y-69358571D01*
X112839001Y-69396667D01*
X112877096Y-69434762D01*
X112915192Y-69510952D01*
X112915192Y-69739524D01*
X112877096Y-69815714D01*
X112839001Y-69853810D01*
X112762811Y-69891905D01*
X112648525Y-69891905D01*
X113258049Y-69891905D02*
X113258049Y-69358571D01*
X113258049Y-69510952D02*
X113296144Y-69434762D01*
X113334240Y-69396667D01*
X113410430Y-69358571D01*
X113486621Y-69358571D01*
D13*
X171291715Y-48735371D02*
X170434572Y-48735371D01*
X170863144Y-48735371D02*
X170863144Y-47235371D01*
X170720287Y-47449657D01*
X170577429Y-47592514D01*
X170434572Y-47663943D01*
X171863143Y-47378229D02*
X171934572Y-47306800D01*
X172077429Y-47235371D01*
X172434572Y-47235371D01*
X172577429Y-47306800D01*
X172648858Y-47378229D01*
X172720286Y-47521086D01*
X172720286Y-47663943D01*
X172648858Y-47878229D01*
X171791715Y-48735371D01*
X172720286Y-48735371D01*
X173220286Y-47735371D02*
X173577429Y-48735371D01*
X173934571Y-47735371D01*
X176363143Y-48735371D02*
X175648857Y-48735371D01*
X175648857Y-47235371D01*
X176863143Y-48735371D02*
X176863143Y-47735371D01*
X176863143Y-47235371D02*
X176791714Y-47306800D01*
X176863143Y-47378229D01*
X176934571Y-47306800D01*
X176863143Y-47235371D01*
X176863143Y-47378229D01*
X177577429Y-47735371D02*
X177577429Y-48735371D01*
X177577429Y-47878229D02*
X177648857Y-47806800D01*
X177791715Y-47735371D01*
X178006000Y-47735371D01*
X178148857Y-47806800D01*
X178220286Y-47949657D01*
X178220286Y-48735371D01*
X179506000Y-48663943D02*
X179363143Y-48735371D01*
X179077429Y-48735371D01*
X178934572Y-48663943D01*
X178863143Y-48521086D01*
X178863143Y-47949657D01*
X178934572Y-47806800D01*
X179077429Y-47735371D01*
X179363143Y-47735371D01*
X179506000Y-47806800D01*
X179577429Y-47949657D01*
X179577429Y-48092514D01*
X178863143Y-48235371D01*
X172950572Y-37786571D02*
X172236286Y-37786571D01*
X172164857Y-38500857D01*
X172236286Y-38429429D01*
X172379143Y-38358000D01*
X172736286Y-38358000D01*
X172879143Y-38429429D01*
X172950572Y-38500857D01*
X173022000Y-38643714D01*
X173022000Y-39000857D01*
X172950572Y-39143714D01*
X172879143Y-39215143D01*
X172736286Y-39286571D01*
X172379143Y-39286571D01*
X172236286Y-39215143D01*
X172164857Y-39143714D01*
X173522000Y-38286571D02*
X173879143Y-39286571D01*
X174236285Y-38286571D01*
X176664857Y-39286571D02*
X175950571Y-39286571D01*
X175950571Y-37786571D01*
X177164857Y-39286571D02*
X177164857Y-38286571D01*
X177164857Y-37786571D02*
X177093428Y-37858000D01*
X177164857Y-37929429D01*
X177236285Y-37858000D01*
X177164857Y-37786571D01*
X177164857Y-37929429D01*
X177879143Y-38286571D02*
X177879143Y-39286571D01*
X177879143Y-38429429D02*
X177950571Y-38358000D01*
X178093429Y-38286571D01*
X178307714Y-38286571D01*
X178450571Y-38358000D01*
X178522000Y-38500857D01*
X178522000Y-39286571D01*
X179807714Y-39215143D02*
X179664857Y-39286571D01*
X179379143Y-39286571D01*
X179236286Y-39215143D01*
X179164857Y-39072286D01*
X179164857Y-38500857D01*
X179236286Y-38358000D01*
X179379143Y-38286571D01*
X179664857Y-38286571D01*
X179807714Y-38358000D01*
X179879143Y-38500857D01*
X179879143Y-38643714D01*
X179164857Y-38786571D01*
D14*
X176699334Y-54739419D02*
X176699334Y-53723419D01*
X177086381Y-53723419D01*
X177183143Y-53771800D01*
X177231524Y-53820181D01*
X177279905Y-53916943D01*
X177279905Y-54062086D01*
X177231524Y-54158848D01*
X177183143Y-54207229D01*
X177086381Y-54255610D01*
X176699334Y-54255610D01*
X177618572Y-53723419D02*
X177860477Y-54739419D01*
X178054000Y-54013705D01*
X178247524Y-54739419D01*
X178489429Y-53723419D01*
X179457048Y-54739419D02*
X179118382Y-54255610D01*
X178876477Y-54739419D02*
X178876477Y-53723419D01*
X179263524Y-53723419D01*
X179360286Y-53771800D01*
X179408667Y-53820181D01*
X179457048Y-53916943D01*
X179457048Y-54062086D01*
X179408667Y-54158848D01*
X179360286Y-54207229D01*
X179263524Y-54255610D01*
X178876477Y-54255610D01*
X177231524Y-55883629D02*
X176892858Y-55883629D01*
X176892858Y-56415819D02*
X176892858Y-55399819D01*
X177376667Y-55399819D01*
X178199143Y-56415819D02*
X178199143Y-55883629D01*
X178150762Y-55786867D01*
X178054000Y-55738486D01*
X177860477Y-55738486D01*
X177763715Y-55786867D01*
X178199143Y-56367438D02*
X178102381Y-56415819D01*
X177860477Y-56415819D01*
X177763715Y-56367438D01*
X177715334Y-56270676D01*
X177715334Y-56173914D01*
X177763715Y-56077152D01*
X177860477Y-56028771D01*
X178102381Y-56028771D01*
X178199143Y-55980390D01*
X178682953Y-56415819D02*
X178682953Y-55738486D01*
X178682953Y-55399819D02*
X178634572Y-55448200D01*
X178682953Y-55496581D01*
X178731334Y-55448200D01*
X178682953Y-55399819D01*
X178682953Y-55496581D01*
X179311906Y-56415819D02*
X179215144Y-56367438D01*
X179166763Y-56270676D01*
X179166763Y-55399819D01*
D13*
X181440002Y-55923571D02*
X181440002Y-54423571D01*
X181797145Y-54423571D01*
X182011430Y-54495000D01*
X182154288Y-54637857D01*
X182225716Y-54780714D01*
X182297145Y-55066429D01*
X182297145Y-55280714D01*
X182225716Y-55566429D01*
X182154288Y-55709286D01*
X182011430Y-55852143D01*
X181797145Y-55923571D01*
X181440002Y-55923571D01*
X182868573Y-54566429D02*
X182940002Y-54495000D01*
X183082859Y-54423571D01*
X183440002Y-54423571D01*
X183582859Y-54495000D01*
X183654288Y-54566429D01*
X183725716Y-54709286D01*
X183725716Y-54852143D01*
X183654288Y-55066429D01*
X182797145Y-55923571D01*
X183725716Y-55923571D01*
X185011430Y-54923571D02*
X185011430Y-55923571D01*
X184654287Y-54352143D02*
X184297144Y-55423571D01*
X185225716Y-55423571D01*
X185582858Y-54423571D02*
X186082858Y-55923571D01*
X186582858Y-54423571D01*
X187868572Y-55923571D02*
X187011429Y-55923571D01*
X187440001Y-55923571D02*
X187440001Y-54423571D01*
X187297144Y-54637857D01*
X187154286Y-54780714D01*
X187011429Y-54852143D01*
X188797143Y-54423571D02*
X188940000Y-54423571D01*
X189082857Y-54495000D01*
X189154286Y-54566429D01*
X189225715Y-54709286D01*
X189297143Y-54995000D01*
X189297143Y-55352143D01*
X189225715Y-55637857D01*
X189154286Y-55780714D01*
X189082857Y-55852143D01*
X188940000Y-55923571D01*
X188797143Y-55923571D01*
X188654286Y-55852143D01*
X188582857Y-55780714D01*
X188511429Y-55637857D01*
X188440000Y-55352143D01*
X188440000Y-54995000D01*
X188511429Y-54709286D01*
X188582857Y-54566429D01*
X188654286Y-54495000D01*
X188797143Y-54423571D01*
X190440000Y-55137857D02*
X189940000Y-55137857D01*
X189940000Y-55923571D02*
X189940000Y-54423571D01*
X190654286Y-54423571D01*
X191940000Y-54423571D02*
X191225714Y-54423571D01*
X191154285Y-55137857D01*
X191225714Y-55066429D01*
X191368571Y-54995000D01*
X191725714Y-54995000D01*
X191868571Y-55066429D01*
X191940000Y-55137857D01*
X192011428Y-55280714D01*
X192011428Y-55637857D01*
X191940000Y-55780714D01*
X191868571Y-55852143D01*
X191725714Y-55923571D01*
X191368571Y-55923571D01*
X191225714Y-55852143D01*
X191154285Y-55780714D01*
D15*
X128905000Y-48260000D02*
X113905000Y-48260000D01*
X113905000Y-48260000D02*
X113905000Y-55760000D01*
X113905000Y-55760000D02*
X128905000Y-55760000D01*
X128905000Y-55760000D02*
X128905000Y-48260000D01*
D16*
X171682665Y-55688608D02*
G75*
G03X174915000Y-55845516I1672335J1078608D01*
G01*
X171682665Y-53531392D02*
G75*
G02X174915000Y-53374484I1672335J-1078608D01*
G01*
X172313870Y-55689837D02*
G75*
G03X174395961Y-55690000I1041130J1079837D01*
G01*
X172313870Y-53530163D02*
G75*
G02X174395961Y-53530000I1041130J-1079837D01*
G01*
X174915000Y-55846000D02*
X174915000Y-55690000D01*
X174915000Y-53530000D02*
X174915000Y-53374000D01*
X140980000Y-49410000D02*
X141110000Y-49410000D01*
X141110000Y-49410000D02*
X141110000Y-54730000D01*
X141110000Y-54730000D02*
X140980000Y-54730000D01*
X138420000Y-49410000D02*
X138290000Y-49410000D01*
X138290000Y-49410000D02*
X138290000Y-54730000D01*
X138290000Y-54730000D02*
X138420000Y-54730000D01*
X141110000Y-50250000D02*
X138290000Y-50250000D01*
D15*
X122380000Y-35020000D02*
X121880000Y-35520000D01*
X122880000Y-35520000D02*
X122380000Y-35020000D01*
X126380000Y-31520000D02*
X126380000Y-23770000D01*
X125130000Y-33520000D02*
X126380000Y-31520000D01*
X125130000Y-34820000D02*
X125130000Y-33520000D01*
X113630000Y-34820000D02*
X125130000Y-34820000D01*
X113630000Y-33520000D02*
X113630000Y-34820000D01*
X112380000Y-31520000D02*
X113630000Y-33520000D01*
X112380000Y-23770000D02*
X112380000Y-31520000D01*
X126380000Y-23770000D02*
X112380000Y-23770000D01*
X137620000Y-35020000D02*
X137120000Y-35520000D01*
X138120000Y-35520000D02*
X137620000Y-35020000D01*
X141620000Y-31520000D02*
X141620000Y-23770000D01*
X140370000Y-33520000D02*
X141620000Y-31520000D01*
X140370000Y-34820000D02*
X140370000Y-33520000D01*
X128870000Y-34820000D02*
X140370000Y-34820000D01*
X128870000Y-33520000D02*
X128870000Y-34820000D01*
X127620000Y-31520000D02*
X128870000Y-33520000D01*
X127620000Y-23770000D02*
X127620000Y-31520000D01*
X141620000Y-23770000D02*
X127620000Y-23770000D01*
X152860000Y-35020000D02*
X152360000Y-35520000D01*
X153360000Y-35520000D02*
X152860000Y-35020000D01*
X156860000Y-31520000D02*
X156860000Y-23770000D01*
X155610000Y-33520000D02*
X156860000Y-31520000D01*
X155610000Y-34820000D02*
X155610000Y-33520000D01*
X144110000Y-34820000D02*
X155610000Y-34820000D01*
X144110000Y-33520000D02*
X144110000Y-34820000D01*
X142860000Y-31520000D02*
X144110000Y-33520000D01*
X142860000Y-23770000D02*
X142860000Y-31520000D01*
X156860000Y-23770000D02*
X142860000Y-23770000D01*
X168100000Y-35020000D02*
X167600000Y-35520000D01*
X168600000Y-35520000D02*
X168100000Y-35020000D01*
X172100000Y-31520000D02*
X172100000Y-23770000D01*
X170850000Y-33520000D02*
X172100000Y-31520000D01*
X170850000Y-34820000D02*
X170850000Y-33520000D01*
X159350000Y-34820000D02*
X170850000Y-34820000D01*
X159350000Y-33520000D02*
X159350000Y-34820000D01*
X158100000Y-31520000D02*
X159350000Y-33520000D01*
X158100000Y-23770000D02*
X158100000Y-31520000D01*
X172100000Y-23770000D02*
X158100000Y-23770000D01*
X183340000Y-35020000D02*
X182840000Y-35520000D01*
X183840000Y-35520000D02*
X183340000Y-35020000D01*
X187340000Y-31520000D02*
X187340000Y-23770000D01*
X186090000Y-33520000D02*
X187340000Y-31520000D01*
X186090000Y-34820000D02*
X186090000Y-33520000D01*
X174590000Y-34820000D02*
X186090000Y-34820000D01*
X174590000Y-33520000D02*
X174590000Y-34820000D01*
X173340000Y-31520000D02*
X174590000Y-33520000D01*
X173340000Y-23770000D02*
X173340000Y-31520000D01*
X187340000Y-23770000D02*
X173340000Y-23770000D01*
D16*
X114875000Y-45145000D02*
X120075000Y-45145000D01*
X114875000Y-42545000D02*
X114875000Y-45145000D01*
X120075000Y-39945000D02*
X120075000Y-45145000D01*
X114875000Y-42545000D02*
X117475000Y-42545000D01*
X117475000Y-42545000D02*
X117475000Y-39945000D01*
X117475000Y-39945000D02*
X120075000Y-39945000D01*
X114875000Y-41275000D02*
X114875000Y-39945000D01*
X114875000Y-39945000D02*
X116205000Y-39945000D01*
X130115000Y-45145000D02*
X135315000Y-45145000D01*
X130115000Y-42545000D02*
X130115000Y-45145000D01*
X135315000Y-39945000D02*
X135315000Y-45145000D01*
X130115000Y-42545000D02*
X132715000Y-42545000D01*
X132715000Y-42545000D02*
X132715000Y-39945000D01*
X132715000Y-39945000D02*
X135315000Y-39945000D01*
X130115000Y-41275000D02*
X130115000Y-39945000D01*
X130115000Y-39945000D02*
X131445000Y-39945000D01*
X145355000Y-45145000D02*
X150555000Y-45145000D01*
X145355000Y-42545000D02*
X145355000Y-45145000D01*
X150555000Y-39945000D02*
X150555000Y-45145000D01*
X145355000Y-42545000D02*
X147955000Y-42545000D01*
X147955000Y-42545000D02*
X147955000Y-39945000D01*
X147955000Y-39945000D02*
X150555000Y-39945000D01*
X145355000Y-41275000D02*
X145355000Y-39945000D01*
X145355000Y-39945000D02*
X146685000Y-39945000D01*
X160595000Y-45145000D02*
X165795000Y-45145000D01*
X160595000Y-42545000D02*
X160595000Y-45145000D01*
X165795000Y-39945000D02*
X165795000Y-45145000D01*
X160595000Y-42545000D02*
X163195000Y-42545000D01*
X163195000Y-42545000D02*
X163195000Y-39945000D01*
X163195000Y-39945000D02*
X165795000Y-39945000D01*
X160595000Y-41275000D02*
X160595000Y-39945000D01*
X160595000Y-39945000D02*
X161925000Y-39945000D01*
X173930000Y-45145000D02*
X179130000Y-45145000D01*
X173930000Y-42545000D02*
X173930000Y-45145000D01*
X179130000Y-39945000D02*
X179130000Y-45145000D01*
X173930000Y-42545000D02*
X176530000Y-42545000D01*
X176530000Y-42545000D02*
X176530000Y-39945000D01*
X176530000Y-39945000D02*
X179130000Y-39945000D01*
X173930000Y-41275000D02*
X173930000Y-39945000D01*
X173930000Y-39945000D02*
X175260000Y-39945000D01*
X121225000Y-45145000D02*
X126425000Y-45145000D01*
X121225000Y-42545000D02*
X121225000Y-45145000D01*
X126425000Y-39945000D02*
X126425000Y-45145000D01*
X121225000Y-42545000D02*
X123825000Y-42545000D01*
X123825000Y-42545000D02*
X123825000Y-39945000D01*
X123825000Y-39945000D02*
X126425000Y-39945000D01*
X121225000Y-41275000D02*
X121225000Y-39945000D01*
X121225000Y-39945000D02*
X122555000Y-39945000D01*
X136465000Y-45145000D02*
X141665000Y-45145000D01*
X136465000Y-42545000D02*
X136465000Y-45145000D01*
X141665000Y-39945000D02*
X141665000Y-45145000D01*
X136465000Y-42545000D02*
X139065000Y-42545000D01*
X139065000Y-42545000D02*
X139065000Y-39945000D01*
X139065000Y-39945000D02*
X141665000Y-39945000D01*
X136465000Y-41275000D02*
X136465000Y-39945000D01*
X136465000Y-39945000D02*
X137795000Y-39945000D01*
X151705000Y-45145000D02*
X156905000Y-45145000D01*
X151705000Y-42545000D02*
X151705000Y-45145000D01*
X156905000Y-39945000D02*
X156905000Y-45145000D01*
X151705000Y-42545000D02*
X154305000Y-42545000D01*
X154305000Y-42545000D02*
X154305000Y-39945000D01*
X154305000Y-39945000D02*
X156905000Y-39945000D01*
X151705000Y-41275000D02*
X151705000Y-39945000D01*
X151705000Y-39945000D02*
X153035000Y-39945000D01*
X166945000Y-45145000D02*
X172145000Y-45145000D01*
X166945000Y-42545000D02*
X166945000Y-45145000D01*
X172145000Y-39945000D02*
X172145000Y-45145000D01*
X166945000Y-42545000D02*
X169545000Y-42545000D01*
X169545000Y-42545000D02*
X169545000Y-39945000D01*
X169545000Y-39945000D02*
X172145000Y-39945000D01*
X166945000Y-41275000D02*
X166945000Y-39945000D01*
X166945000Y-39945000D02*
X168275000Y-39945000D01*
X167985000Y-48860000D02*
X168315000Y-48860000D01*
X168315000Y-48860000D02*
X168315000Y-55280000D01*
X168315000Y-55280000D02*
X167985000Y-55280000D01*
X166025000Y-48860000D02*
X165695000Y-48860000D01*
X165695000Y-48860000D02*
X165695000Y-55280000D01*
X165695000Y-55280000D02*
X166025000Y-55280000D01*
X147665000Y-48860000D02*
X147995000Y-48860000D01*
X147995000Y-48860000D02*
X147995000Y-55280000D01*
X147995000Y-55280000D02*
X147665000Y-55280000D01*
X145705000Y-48860000D02*
X145375000Y-48860000D01*
X145375000Y-48860000D02*
X145375000Y-55280000D01*
X145375000Y-55280000D02*
X145705000Y-55280000D01*
X159675000Y-55280000D02*
X159345000Y-55280000D01*
X159345000Y-55280000D02*
X159345000Y-48860000D01*
X159345000Y-48860000D02*
X159675000Y-48860000D01*
X161635000Y-55280000D02*
X161965000Y-55280000D01*
X161965000Y-55280000D02*
X161965000Y-48860000D01*
X161965000Y-48860000D02*
X161635000Y-48860000D01*
X152690000Y-55280000D02*
X152360000Y-55280000D01*
X152360000Y-55280000D02*
X152360000Y-48860000D01*
X152360000Y-48860000D02*
X152690000Y-48860000D01*
X154650000Y-55280000D02*
X154980000Y-55280000D01*
X154980000Y-55280000D02*
X154980000Y-48860000D01*
X154980000Y-48860000D02*
X154650000Y-48860000D01*
D15*
X193040000Y-40005000D02*
X180340000Y-40005000D01*
X180340000Y-40005000D02*
X180340000Y-57785000D01*
X180340000Y-57785000D02*
X193040000Y-57785000D01*
X193040000Y-57785000D02*
X193040000Y-40005000D01*
D16*
X131500000Y-51540000D02*
X131500000Y-55140000D01*
X132227205Y-51015816D02*
G75*
G03X131500000Y-51540000I1122795J-2324184D01*
G01*
X134448807Y-50983600D02*
G75*
G02X135950000Y-53340000I-1098807J-2356400D01*
G01*
X134448807Y-55696400D02*
G75*
G03X135950000Y-53340000I-1098807J2356400D01*
G01*
X132227205Y-55664184D02*
G75*
G02X131500000Y-55140000I1122795J2324184D01*
G01*
D15*
X151702000Y-80180000D02*
X159702000Y-80180000D01*
X151702000Y-64530000D02*
X159702000Y-64530000D01*
X159702000Y-64530000D02*
X159702000Y-80180000D01*
X151702000Y-64530000D02*
X151702000Y-80180000D01*
X170752000Y-80180000D02*
X178752000Y-80180000D01*
X170752000Y-64530000D02*
X178752000Y-64530000D01*
X178752000Y-64530000D02*
X178752000Y-80180000D01*
X170752000Y-64530000D02*
X170752000Y-80180000D01*
X113602000Y-80180000D02*
X121602000Y-80180000D01*
X113602000Y-64530000D02*
X121602000Y-64530000D01*
X121602000Y-64530000D02*
X121602000Y-80180000D01*
X113602000Y-64530000D02*
X113602000Y-80180000D01*
X123127000Y-80180000D02*
X131127000Y-80180000D01*
X123127000Y-64530000D02*
X131127000Y-64530000D01*
X131127000Y-64530000D02*
X131127000Y-80180000D01*
X123127000Y-64530000D02*
X123127000Y-80180000D01*
X132652000Y-80180000D02*
X140652000Y-80180000D01*
X132652000Y-64530000D02*
X140652000Y-64530000D01*
X140652000Y-64530000D02*
X140652000Y-80180000D01*
X132652000Y-64530000D02*
X132652000Y-80180000D01*
X161227000Y-80180000D02*
X169227000Y-80180000D01*
X161227000Y-64530000D02*
X169227000Y-64530000D01*
X169227000Y-64530000D02*
X169227000Y-80180000D01*
X161227000Y-64530000D02*
X161227000Y-80180000D01*
X180277000Y-80180000D02*
X188277000Y-80180000D01*
X180277000Y-64530000D02*
X188277000Y-64530000D01*
X188277000Y-64530000D02*
X188277000Y-80180000D01*
X180277000Y-64530000D02*
X180277000Y-80180000D01*
X142367000Y-80390000D02*
X150367000Y-80390000D01*
X142367000Y-62230000D02*
X150367000Y-62230000D01*
X150367000Y-62230000D02*
X150367000Y-80390000D01*
X142367000Y-62230000D02*
X142367000Y-80390000D01*
X115356428Y-52522381D02*
X115356428Y-51522381D01*
X115594523Y-51522381D01*
X115737381Y-51570000D01*
X115832619Y-51665238D01*
X115880238Y-51760476D01*
X115927857Y-51950952D01*
X115927857Y-52093810D01*
X115880238Y-52284286D01*
X115832619Y-52379524D01*
X115737381Y-52474762D01*
X115594523Y-52522381D01*
X115356428Y-52522381D01*
X116356428Y-52522381D02*
X116356428Y-51522381D01*
X116737381Y-51522381D01*
X116832619Y-51570000D01*
X116880238Y-51617619D01*
X116927857Y-51712857D01*
X116927857Y-51855714D01*
X116880238Y-51950952D01*
X116832619Y-51998571D01*
X116737381Y-52046190D01*
X116356428Y-52046190D01*
X117356428Y-52522381D02*
X117356428Y-51522381D01*
X117594523Y-51522381D01*
X117737381Y-51570000D01*
X117832619Y-51665238D01*
X117880238Y-51760476D01*
X117927857Y-51950952D01*
X117927857Y-52093810D01*
X117880238Y-52284286D01*
X117832619Y-52379524D01*
X117737381Y-52474762D01*
X117594523Y-52522381D01*
X117356428Y-52522381D01*
X118213571Y-51522381D02*
X118785000Y-51522381D01*
X118499285Y-52522381D02*
X118499285Y-51522381D01*
X118880238Y-52617619D02*
X119642143Y-52617619D01*
X119880238Y-52522381D02*
X119880238Y-51522381D01*
X120261191Y-51522381D01*
X120356429Y-51570000D01*
X120404048Y-51617619D01*
X120451667Y-51712857D01*
X120451667Y-51855714D01*
X120404048Y-51950952D01*
X120356429Y-51998571D01*
X120261191Y-52046190D01*
X119880238Y-52046190D01*
X121451667Y-52427143D02*
X121404048Y-52474762D01*
X121261191Y-52522381D01*
X121165953Y-52522381D01*
X121023095Y-52474762D01*
X120927857Y-52379524D01*
X120880238Y-52284286D01*
X120832619Y-52093810D01*
X120832619Y-51950952D01*
X120880238Y-51760476D01*
X120927857Y-51665238D01*
X121023095Y-51570000D01*
X121165953Y-51522381D01*
X121261191Y-51522381D01*
X121404048Y-51570000D01*
X121451667Y-51617619D01*
X122213572Y-51998571D02*
X122356429Y-52046190D01*
X122404048Y-52093810D01*
X122451667Y-52189048D01*
X122451667Y-52331905D01*
X122404048Y-52427143D01*
X122356429Y-52474762D01*
X122261191Y-52522381D01*
X121880238Y-52522381D01*
X121880238Y-51522381D01*
X122213572Y-51522381D01*
X122308810Y-51570000D01*
X122356429Y-51617619D01*
X122404048Y-51712857D01*
X122404048Y-51808095D01*
X122356429Y-51903333D01*
X122308810Y-51950952D01*
X122213572Y-51998571D01*
X121880238Y-51998571D01*
X122642143Y-52617619D02*
X123404048Y-52617619D01*
X124213572Y-52522381D02*
X123880238Y-52046190D01*
X123642143Y-52522381D02*
X123642143Y-51522381D01*
X124023096Y-51522381D01*
X124118334Y-51570000D01*
X124165953Y-51617619D01*
X124213572Y-51712857D01*
X124213572Y-51855714D01*
X124165953Y-51950952D01*
X124118334Y-51998571D01*
X124023096Y-52046190D01*
X123642143Y-52046190D01*
X125023096Y-52474762D02*
X124927858Y-52522381D01*
X124737381Y-52522381D01*
X124642143Y-52474762D01*
X124594524Y-52379524D01*
X124594524Y-51998571D01*
X124642143Y-51903333D01*
X124737381Y-51855714D01*
X124927858Y-51855714D01*
X125023096Y-51903333D01*
X125070715Y-51998571D01*
X125070715Y-52093810D01*
X124594524Y-52189048D01*
X125642143Y-52522381D02*
X125546905Y-52474762D01*
X125499286Y-52379524D01*
X125499286Y-51522381D01*
X126451668Y-52522381D02*
X126451668Y-51998571D01*
X126404049Y-51903333D01*
X126308811Y-51855714D01*
X126118334Y-51855714D01*
X126023096Y-51903333D01*
X126451668Y-52474762D02*
X126356430Y-52522381D01*
X126118334Y-52522381D01*
X126023096Y-52474762D01*
X125975477Y-52379524D01*
X125975477Y-52284286D01*
X126023096Y-52189048D01*
X126118334Y-52141429D01*
X126356430Y-52141429D01*
X126451668Y-52093810D01*
X126832620Y-51855714D02*
X127070715Y-52522381D01*
X127308811Y-51855714D02*
X127070715Y-52522381D01*
X126975477Y-52760476D01*
X126927858Y-52808095D01*
X126832620Y-52855714D01*
X171664524Y-58022381D02*
X171664524Y-57022381D01*
X171902619Y-57022381D01*
X172045477Y-57070000D01*
X172140715Y-57165238D01*
X172188334Y-57260476D01*
X172235953Y-57450952D01*
X172235953Y-57593810D01*
X172188334Y-57784286D01*
X172140715Y-57879524D01*
X172045477Y-57974762D01*
X171902619Y-58022381D01*
X171664524Y-58022381D01*
X173188334Y-58022381D02*
X172616905Y-58022381D01*
X172902619Y-58022381D02*
X172902619Y-57022381D01*
X172807381Y-57165238D01*
X172712143Y-57260476D01*
X172616905Y-57308095D01*
X173807381Y-57022381D02*
X173902620Y-57022381D01*
X173997858Y-57070000D01*
X174045477Y-57117619D01*
X174093096Y-57212857D01*
X174140715Y-57403333D01*
X174140715Y-57641429D01*
X174093096Y-57831905D01*
X174045477Y-57927143D01*
X173997858Y-57974762D01*
X173902620Y-58022381D01*
X173807381Y-58022381D01*
X173712143Y-57974762D01*
X173664524Y-57927143D01*
X173616905Y-57831905D01*
X173569286Y-57641429D01*
X173569286Y-57403333D01*
X173616905Y-57212857D01*
X173664524Y-57117619D01*
X173712143Y-57070000D01*
X173807381Y-57022381D01*
X175093096Y-58022381D02*
X174521667Y-58022381D01*
X174807381Y-58022381D02*
X174807381Y-57022381D01*
X174712143Y-57165238D01*
X174616905Y-57260476D01*
X174521667Y-57308095D01*
X172712143Y-52102381D02*
X172235952Y-52102381D01*
X172235952Y-51102381D01*
X173045476Y-51578571D02*
X173378810Y-51578571D01*
X173521667Y-52102381D02*
X173045476Y-52102381D01*
X173045476Y-51102381D01*
X173521667Y-51102381D01*
X173950238Y-52102381D02*
X173950238Y-51102381D01*
X174188333Y-51102381D01*
X174331191Y-51150000D01*
X174426429Y-51245238D01*
X174474048Y-51340476D01*
X174521667Y-51530952D01*
X174521667Y-51673810D01*
X174474048Y-51864286D01*
X174426429Y-51959524D01*
X174331191Y-52054762D01*
X174188333Y-52102381D01*
X173950238Y-52102381D01*
X142562381Y-53760476D02*
X141562381Y-53760476D01*
X141562381Y-53522381D01*
X141610000Y-53379523D01*
X141705238Y-53284285D01*
X141800476Y-53236666D01*
X141990952Y-53189047D01*
X142133810Y-53189047D01*
X142324286Y-53236666D01*
X142419524Y-53284285D01*
X142514762Y-53379523D01*
X142562381Y-53522381D01*
X142562381Y-53760476D01*
X142562381Y-52236666D02*
X142562381Y-52808095D01*
X142562381Y-52522381D02*
X141562381Y-52522381D01*
X141705238Y-52617619D01*
X141800476Y-52712857D01*
X141848095Y-52808095D01*
X141562381Y-51617619D02*
X141562381Y-51522380D01*
X141610000Y-51427142D01*
X141657619Y-51379523D01*
X141752857Y-51331904D01*
X141943333Y-51284285D01*
X142181429Y-51284285D01*
X142371905Y-51331904D01*
X142467143Y-51379523D01*
X142514762Y-51427142D01*
X142562381Y-51522380D01*
X142562381Y-51617619D01*
X142514762Y-51712857D01*
X142467143Y-51760476D01*
X142371905Y-51808095D01*
X142181429Y-51855714D01*
X141943333Y-51855714D01*
X141752857Y-51808095D01*
X141657619Y-51760476D01*
X141610000Y-51712857D01*
X141562381Y-51617619D01*
X141657619Y-50903333D02*
X141610000Y-50855714D01*
X141562381Y-50760476D01*
X141562381Y-50522380D01*
X141610000Y-50427142D01*
X141657619Y-50379523D01*
X141752857Y-50331904D01*
X141848095Y-50331904D01*
X141990952Y-50379523D01*
X142562381Y-50950952D01*
X142562381Y-50331904D01*
X115760715Y-45597381D02*
X115760715Y-46311667D01*
X115713095Y-46454524D01*
X115617857Y-46549762D01*
X115475000Y-46597381D01*
X115379762Y-46597381D01*
X116236905Y-46597381D02*
X116236905Y-45597381D01*
X116617858Y-45597381D01*
X116713096Y-45645000D01*
X116760715Y-45692619D01*
X116808334Y-45787857D01*
X116808334Y-45930714D01*
X116760715Y-46025952D01*
X116713096Y-46073571D01*
X116617858Y-46121190D01*
X116236905Y-46121190D01*
X117808334Y-46597381D02*
X117475000Y-46121190D01*
X117236905Y-46597381D02*
X117236905Y-45597381D01*
X117617858Y-45597381D01*
X117713096Y-45645000D01*
X117760715Y-45692619D01*
X117808334Y-45787857D01*
X117808334Y-45930714D01*
X117760715Y-46025952D01*
X117713096Y-46073571D01*
X117617858Y-46121190D01*
X117236905Y-46121190D01*
X117998810Y-46692619D02*
X118760715Y-46692619D01*
X119522620Y-46597381D02*
X118951191Y-46597381D01*
X119236905Y-46597381D02*
X119236905Y-45597381D01*
X119141667Y-45740238D01*
X119046429Y-45835476D01*
X118951191Y-45883095D01*
X131000715Y-45597381D02*
X131000715Y-46311667D01*
X130953095Y-46454524D01*
X130857857Y-46549762D01*
X130715000Y-46597381D01*
X130619762Y-46597381D01*
X131476905Y-46597381D02*
X131476905Y-45597381D01*
X131857858Y-45597381D01*
X131953096Y-45645000D01*
X132000715Y-45692619D01*
X132048334Y-45787857D01*
X132048334Y-45930714D01*
X132000715Y-46025952D01*
X131953096Y-46073571D01*
X131857858Y-46121190D01*
X131476905Y-46121190D01*
X133048334Y-46597381D02*
X132715000Y-46121190D01*
X132476905Y-46597381D02*
X132476905Y-45597381D01*
X132857858Y-45597381D01*
X132953096Y-45645000D01*
X133000715Y-45692619D01*
X133048334Y-45787857D01*
X133048334Y-45930714D01*
X133000715Y-46025952D01*
X132953096Y-46073571D01*
X132857858Y-46121190D01*
X132476905Y-46121190D01*
X133238810Y-46692619D02*
X134000715Y-46692619D01*
X134191191Y-45692619D02*
X134238810Y-45645000D01*
X134334048Y-45597381D01*
X134572144Y-45597381D01*
X134667382Y-45645000D01*
X134715001Y-45692619D01*
X134762620Y-45787857D01*
X134762620Y-45883095D01*
X134715001Y-46025952D01*
X134143572Y-46597381D01*
X134762620Y-46597381D01*
X146240715Y-45597381D02*
X146240715Y-46311667D01*
X146193095Y-46454524D01*
X146097857Y-46549762D01*
X145955000Y-46597381D01*
X145859762Y-46597381D01*
X146716905Y-46597381D02*
X146716905Y-45597381D01*
X147097858Y-45597381D01*
X147193096Y-45645000D01*
X147240715Y-45692619D01*
X147288334Y-45787857D01*
X147288334Y-45930714D01*
X147240715Y-46025952D01*
X147193096Y-46073571D01*
X147097858Y-46121190D01*
X146716905Y-46121190D01*
X148288334Y-46597381D02*
X147955000Y-46121190D01*
X147716905Y-46597381D02*
X147716905Y-45597381D01*
X148097858Y-45597381D01*
X148193096Y-45645000D01*
X148240715Y-45692619D01*
X148288334Y-45787857D01*
X148288334Y-45930714D01*
X148240715Y-46025952D01*
X148193096Y-46073571D01*
X148097858Y-46121190D01*
X147716905Y-46121190D01*
X148478810Y-46692619D02*
X149240715Y-46692619D01*
X149383572Y-45597381D02*
X150002620Y-45597381D01*
X149669286Y-45978333D01*
X149812144Y-45978333D01*
X149907382Y-46025952D01*
X149955001Y-46073571D01*
X150002620Y-46168810D01*
X150002620Y-46406905D01*
X149955001Y-46502143D01*
X149907382Y-46549762D01*
X149812144Y-46597381D01*
X149526429Y-46597381D01*
X149431191Y-46549762D01*
X149383572Y-46502143D01*
X161480715Y-45597381D02*
X161480715Y-46311667D01*
X161433095Y-46454524D01*
X161337857Y-46549762D01*
X161195000Y-46597381D01*
X161099762Y-46597381D01*
X161956905Y-46597381D02*
X161956905Y-45597381D01*
X162337858Y-45597381D01*
X162433096Y-45645000D01*
X162480715Y-45692619D01*
X162528334Y-45787857D01*
X162528334Y-45930714D01*
X162480715Y-46025952D01*
X162433096Y-46073571D01*
X162337858Y-46121190D01*
X161956905Y-46121190D01*
X163528334Y-46597381D02*
X163195000Y-46121190D01*
X162956905Y-46597381D02*
X162956905Y-45597381D01*
X163337858Y-45597381D01*
X163433096Y-45645000D01*
X163480715Y-45692619D01*
X163528334Y-45787857D01*
X163528334Y-45930714D01*
X163480715Y-46025952D01*
X163433096Y-46073571D01*
X163337858Y-46121190D01*
X162956905Y-46121190D01*
X163718810Y-46692619D02*
X164480715Y-46692619D01*
X165147382Y-45930714D02*
X165147382Y-46597381D01*
X164909286Y-45549762D02*
X164671191Y-46264048D01*
X165290239Y-46264048D01*
X174815715Y-45597381D02*
X174815715Y-46311667D01*
X174768095Y-46454524D01*
X174672857Y-46549762D01*
X174530000Y-46597381D01*
X174434762Y-46597381D01*
X175291905Y-46597381D02*
X175291905Y-45597381D01*
X175672858Y-45597381D01*
X175768096Y-45645000D01*
X175815715Y-45692619D01*
X175863334Y-45787857D01*
X175863334Y-45930714D01*
X175815715Y-46025952D01*
X175768096Y-46073571D01*
X175672858Y-46121190D01*
X175291905Y-46121190D01*
X176863334Y-46597381D02*
X176530000Y-46121190D01*
X176291905Y-46597381D02*
X176291905Y-45597381D01*
X176672858Y-45597381D01*
X176768096Y-45645000D01*
X176815715Y-45692619D01*
X176863334Y-45787857D01*
X176863334Y-45930714D01*
X176815715Y-46025952D01*
X176768096Y-46073571D01*
X176672858Y-46121190D01*
X176291905Y-46121190D01*
X177053810Y-46692619D02*
X177815715Y-46692619D01*
X178530001Y-45597381D02*
X178053810Y-45597381D01*
X178006191Y-46073571D01*
X178053810Y-46025952D01*
X178149048Y-45978333D01*
X178387144Y-45978333D01*
X178482382Y-46025952D01*
X178530001Y-46073571D01*
X178577620Y-46168810D01*
X178577620Y-46406905D01*
X178530001Y-46502143D01*
X178482382Y-46549762D01*
X178387144Y-46597381D01*
X178149048Y-46597381D01*
X178053810Y-46549762D01*
X178006191Y-46502143D01*
X122110715Y-45597381D02*
X122110715Y-46311667D01*
X122063095Y-46454524D01*
X121967857Y-46549762D01*
X121825000Y-46597381D01*
X121729762Y-46597381D01*
X122586905Y-46597381D02*
X122586905Y-45597381D01*
X122967858Y-45597381D01*
X123063096Y-45645000D01*
X123110715Y-45692619D01*
X123158334Y-45787857D01*
X123158334Y-45930714D01*
X123110715Y-46025952D01*
X123063096Y-46073571D01*
X122967858Y-46121190D01*
X122586905Y-46121190D01*
X124158334Y-46597381D02*
X123825000Y-46121190D01*
X123586905Y-46597381D02*
X123586905Y-45597381D01*
X123967858Y-45597381D01*
X124063096Y-45645000D01*
X124110715Y-45692619D01*
X124158334Y-45787857D01*
X124158334Y-45930714D01*
X124110715Y-46025952D01*
X124063096Y-46073571D01*
X123967858Y-46121190D01*
X123586905Y-46121190D01*
X124348810Y-46692619D02*
X125110715Y-46692619D01*
X125777382Y-45597381D02*
X125586905Y-45597381D01*
X125491667Y-45645000D01*
X125444048Y-45692619D01*
X125348810Y-45835476D01*
X125301191Y-46025952D01*
X125301191Y-46406905D01*
X125348810Y-46502143D01*
X125396429Y-46549762D01*
X125491667Y-46597381D01*
X125682144Y-46597381D01*
X125777382Y-46549762D01*
X125825001Y-46502143D01*
X125872620Y-46406905D01*
X125872620Y-46168810D01*
X125825001Y-46073571D01*
X125777382Y-46025952D01*
X125682144Y-45978333D01*
X125491667Y-45978333D01*
X125396429Y-46025952D01*
X125348810Y-46073571D01*
X125301191Y-46168810D01*
X137350715Y-45597381D02*
X137350715Y-46311667D01*
X137303095Y-46454524D01*
X137207857Y-46549762D01*
X137065000Y-46597381D01*
X136969762Y-46597381D01*
X137826905Y-46597381D02*
X137826905Y-45597381D01*
X138207858Y-45597381D01*
X138303096Y-45645000D01*
X138350715Y-45692619D01*
X138398334Y-45787857D01*
X138398334Y-45930714D01*
X138350715Y-46025952D01*
X138303096Y-46073571D01*
X138207858Y-46121190D01*
X137826905Y-46121190D01*
X139398334Y-46597381D02*
X139065000Y-46121190D01*
X138826905Y-46597381D02*
X138826905Y-45597381D01*
X139207858Y-45597381D01*
X139303096Y-45645000D01*
X139350715Y-45692619D01*
X139398334Y-45787857D01*
X139398334Y-45930714D01*
X139350715Y-46025952D01*
X139303096Y-46073571D01*
X139207858Y-46121190D01*
X138826905Y-46121190D01*
X139588810Y-46692619D02*
X140350715Y-46692619D01*
X140493572Y-45597381D02*
X141160239Y-45597381D01*
X140731667Y-46597381D01*
X152590715Y-45597381D02*
X152590715Y-46311667D01*
X152543095Y-46454524D01*
X152447857Y-46549762D01*
X152305000Y-46597381D01*
X152209762Y-46597381D01*
X153066905Y-46597381D02*
X153066905Y-45597381D01*
X153447858Y-45597381D01*
X153543096Y-45645000D01*
X153590715Y-45692619D01*
X153638334Y-45787857D01*
X153638334Y-45930714D01*
X153590715Y-46025952D01*
X153543096Y-46073571D01*
X153447858Y-46121190D01*
X153066905Y-46121190D01*
X154638334Y-46597381D02*
X154305000Y-46121190D01*
X154066905Y-46597381D02*
X154066905Y-45597381D01*
X154447858Y-45597381D01*
X154543096Y-45645000D01*
X154590715Y-45692619D01*
X154638334Y-45787857D01*
X154638334Y-45930714D01*
X154590715Y-46025952D01*
X154543096Y-46073571D01*
X154447858Y-46121190D01*
X154066905Y-46121190D01*
X154828810Y-46692619D02*
X155590715Y-46692619D01*
X155971667Y-46025952D02*
X155876429Y-45978333D01*
X155828810Y-45930714D01*
X155781191Y-45835476D01*
X155781191Y-45787857D01*
X155828810Y-45692619D01*
X155876429Y-45645000D01*
X155971667Y-45597381D01*
X156162144Y-45597381D01*
X156257382Y-45645000D01*
X156305001Y-45692619D01*
X156352620Y-45787857D01*
X156352620Y-45835476D01*
X156305001Y-45930714D01*
X156257382Y-45978333D01*
X156162144Y-46025952D01*
X155971667Y-46025952D01*
X155876429Y-46073571D01*
X155828810Y-46121190D01*
X155781191Y-46216429D01*
X155781191Y-46406905D01*
X155828810Y-46502143D01*
X155876429Y-46549762D01*
X155971667Y-46597381D01*
X156162144Y-46597381D01*
X156257382Y-46549762D01*
X156305001Y-46502143D01*
X156352620Y-46406905D01*
X156352620Y-46216429D01*
X156305001Y-46121190D01*
X156257382Y-46073571D01*
X156162144Y-46025952D01*
X167830715Y-45597381D02*
X167830715Y-46311667D01*
X167783095Y-46454524D01*
X167687857Y-46549762D01*
X167545000Y-46597381D01*
X167449762Y-46597381D01*
X168306905Y-46597381D02*
X168306905Y-45597381D01*
X168687858Y-45597381D01*
X168783096Y-45645000D01*
X168830715Y-45692619D01*
X168878334Y-45787857D01*
X168878334Y-45930714D01*
X168830715Y-46025952D01*
X168783096Y-46073571D01*
X168687858Y-46121190D01*
X168306905Y-46121190D01*
X169878334Y-46597381D02*
X169545000Y-46121190D01*
X169306905Y-46597381D02*
X169306905Y-45597381D01*
X169687858Y-45597381D01*
X169783096Y-45645000D01*
X169830715Y-45692619D01*
X169878334Y-45787857D01*
X169878334Y-45930714D01*
X169830715Y-46025952D01*
X169783096Y-46073571D01*
X169687858Y-46121190D01*
X169306905Y-46121190D01*
X170068810Y-46692619D02*
X170830715Y-46692619D01*
X171116429Y-46597381D02*
X171306905Y-46597381D01*
X171402144Y-46549762D01*
X171449763Y-46502143D01*
X171545001Y-46359286D01*
X171592620Y-46168810D01*
X171592620Y-45787857D01*
X171545001Y-45692619D01*
X171497382Y-45645000D01*
X171402144Y-45597381D01*
X171211667Y-45597381D01*
X171116429Y-45645000D01*
X171068810Y-45692619D01*
X171021191Y-45787857D01*
X171021191Y-46025952D01*
X171068810Y-46121190D01*
X171116429Y-46168810D01*
X171211667Y-46216429D01*
X171402144Y-46216429D01*
X171497382Y-46168810D01*
X171545001Y-46121190D01*
X171592620Y-46025952D01*
X169767381Y-53189047D02*
X169291190Y-53522381D01*
X169767381Y-53760476D02*
X168767381Y-53760476D01*
X168767381Y-53379523D01*
X168815000Y-53284285D01*
X168862619Y-53236666D01*
X168957857Y-53189047D01*
X169100714Y-53189047D01*
X169195952Y-53236666D01*
X169243571Y-53284285D01*
X169291190Y-53379523D01*
X169291190Y-53760476D01*
X169767381Y-52236666D02*
X169767381Y-52808095D01*
X169767381Y-52522381D02*
X168767381Y-52522381D01*
X168910238Y-52617619D01*
X169005476Y-52712857D01*
X169053095Y-52808095D01*
X168767381Y-51617619D02*
X168767381Y-51522380D01*
X168815000Y-51427142D01*
X168862619Y-51379523D01*
X168957857Y-51331904D01*
X169148333Y-51284285D01*
X169386429Y-51284285D01*
X169576905Y-51331904D01*
X169672143Y-51379523D01*
X169719762Y-51427142D01*
X169767381Y-51522380D01*
X169767381Y-51617619D01*
X169719762Y-51712857D01*
X169672143Y-51760476D01*
X169576905Y-51808095D01*
X169386429Y-51855714D01*
X169148333Y-51855714D01*
X168957857Y-51808095D01*
X168862619Y-51760476D01*
X168815000Y-51712857D01*
X168767381Y-51617619D01*
X169767381Y-50331904D02*
X169767381Y-50903333D01*
X169767381Y-50617619D02*
X168767381Y-50617619D01*
X168910238Y-50712857D01*
X169005476Y-50808095D01*
X169053095Y-50903333D01*
X164147381Y-53046190D02*
X164147381Y-53522381D01*
X164623571Y-53570000D01*
X164575952Y-53522381D01*
X164528333Y-53427143D01*
X164528333Y-53189047D01*
X164575952Y-53093809D01*
X164623571Y-53046190D01*
X164718810Y-52998571D01*
X164956905Y-52998571D01*
X165052143Y-53046190D01*
X165099762Y-53093809D01*
X165147381Y-53189047D01*
X165147381Y-53427143D01*
X165099762Y-53522381D01*
X165052143Y-53570000D01*
X165052143Y-52570000D02*
X165099762Y-52522381D01*
X165147381Y-52570000D01*
X165099762Y-52617619D01*
X165052143Y-52570000D01*
X165147381Y-52570000D01*
X165147381Y-51570000D02*
X165147381Y-52141429D01*
X165147381Y-51855715D02*
X164147381Y-51855715D01*
X164290238Y-51950953D01*
X164385476Y-52046191D01*
X164433095Y-52141429D01*
X165147381Y-51141429D02*
X164147381Y-51141429D01*
X165147381Y-50570000D02*
X164575952Y-50998572D01*
X164147381Y-50570000D02*
X164718810Y-51141429D01*
X149447381Y-53189047D02*
X148971190Y-53522381D01*
X149447381Y-53760476D02*
X148447381Y-53760476D01*
X148447381Y-53379523D01*
X148495000Y-53284285D01*
X148542619Y-53236666D01*
X148637857Y-53189047D01*
X148780714Y-53189047D01*
X148875952Y-53236666D01*
X148923571Y-53284285D01*
X148971190Y-53379523D01*
X148971190Y-53760476D01*
X149447381Y-52236666D02*
X149447381Y-52808095D01*
X149447381Y-52522381D02*
X148447381Y-52522381D01*
X148590238Y-52617619D01*
X148685476Y-52712857D01*
X148733095Y-52808095D01*
X148447381Y-51617619D02*
X148447381Y-51522380D01*
X148495000Y-51427142D01*
X148542619Y-51379523D01*
X148637857Y-51331904D01*
X148828333Y-51284285D01*
X149066429Y-51284285D01*
X149256905Y-51331904D01*
X149352143Y-51379523D01*
X149399762Y-51427142D01*
X149447381Y-51522380D01*
X149447381Y-51617619D01*
X149399762Y-51712857D01*
X149352143Y-51760476D01*
X149256905Y-51808095D01*
X149066429Y-51855714D01*
X148828333Y-51855714D01*
X148637857Y-51808095D01*
X148542619Y-51760476D01*
X148495000Y-51712857D01*
X148447381Y-51617619D01*
X148542619Y-50903333D02*
X148495000Y-50855714D01*
X148447381Y-50760476D01*
X148447381Y-50522380D01*
X148495000Y-50427142D01*
X148542619Y-50379523D01*
X148637857Y-50331904D01*
X148733095Y-50331904D01*
X148875952Y-50379523D01*
X149447381Y-50950952D01*
X149447381Y-50331904D01*
X143827381Y-53355714D02*
X143827381Y-52736666D01*
X144208333Y-53070000D01*
X144208333Y-52927142D01*
X144255952Y-52831904D01*
X144303571Y-52784285D01*
X144398810Y-52736666D01*
X144636905Y-52736666D01*
X144732143Y-52784285D01*
X144779762Y-52831904D01*
X144827381Y-52927142D01*
X144827381Y-53212857D01*
X144779762Y-53308095D01*
X144732143Y-53355714D01*
X143827381Y-52403333D02*
X143827381Y-51784285D01*
X144208333Y-52117619D01*
X144208333Y-51974761D01*
X144255952Y-51879523D01*
X144303571Y-51831904D01*
X144398810Y-51784285D01*
X144636905Y-51784285D01*
X144732143Y-51831904D01*
X144779762Y-51879523D01*
X144827381Y-51974761D01*
X144827381Y-52260476D01*
X144779762Y-52355714D01*
X144732143Y-52403333D01*
X143827381Y-51165238D02*
X143827381Y-51069999D01*
X143875000Y-50974761D01*
X143922619Y-50927142D01*
X144017857Y-50879523D01*
X144208333Y-50831904D01*
X144446429Y-50831904D01*
X144636905Y-50879523D01*
X144732143Y-50927142D01*
X144779762Y-50974761D01*
X144827381Y-51069999D01*
X144827381Y-51165238D01*
X144779762Y-51260476D01*
X144732143Y-51308095D01*
X144636905Y-51355714D01*
X144446429Y-51403333D01*
X144208333Y-51403333D01*
X144017857Y-51355714D01*
X143922619Y-51308095D01*
X143875000Y-51260476D01*
X143827381Y-51165238D01*
X158797381Y-53189047D02*
X158321190Y-53522381D01*
X158797381Y-53760476D02*
X157797381Y-53760476D01*
X157797381Y-53379523D01*
X157845000Y-53284285D01*
X157892619Y-53236666D01*
X157987857Y-53189047D01*
X158130714Y-53189047D01*
X158225952Y-53236666D01*
X158273571Y-53284285D01*
X158321190Y-53379523D01*
X158321190Y-53760476D01*
X158797381Y-52236666D02*
X158797381Y-52808095D01*
X158797381Y-52522381D02*
X157797381Y-52522381D01*
X157940238Y-52617619D01*
X158035476Y-52712857D01*
X158083095Y-52808095D01*
X157797381Y-51617619D02*
X157797381Y-51522380D01*
X157845000Y-51427142D01*
X157892619Y-51379523D01*
X157987857Y-51331904D01*
X158178333Y-51284285D01*
X158416429Y-51284285D01*
X158606905Y-51331904D01*
X158702143Y-51379523D01*
X158749762Y-51427142D01*
X158797381Y-51522380D01*
X158797381Y-51617619D01*
X158749762Y-51712857D01*
X158702143Y-51760476D01*
X158606905Y-51808095D01*
X158416429Y-51855714D01*
X158178333Y-51855714D01*
X157987857Y-51808095D01*
X157892619Y-51760476D01*
X157845000Y-51712857D01*
X157797381Y-51617619D01*
X157797381Y-50950952D02*
X157797381Y-50331904D01*
X158178333Y-50665238D01*
X158178333Y-50522380D01*
X158225952Y-50427142D01*
X158273571Y-50379523D01*
X158368810Y-50331904D01*
X158606905Y-50331904D01*
X158702143Y-50379523D01*
X158749762Y-50427142D01*
X158797381Y-50522380D01*
X158797381Y-50808095D01*
X158749762Y-50903333D01*
X158702143Y-50950952D01*
X163417381Y-52760476D02*
X163417381Y-53331905D01*
X163417381Y-53046191D02*
X162417381Y-53046191D01*
X162560238Y-53141429D01*
X162655476Y-53236667D01*
X162703095Y-53331905D01*
X162845952Y-52189048D02*
X162798333Y-52284286D01*
X162750714Y-52331905D01*
X162655476Y-52379524D01*
X162607857Y-52379524D01*
X162512619Y-52331905D01*
X162465000Y-52284286D01*
X162417381Y-52189048D01*
X162417381Y-51998571D01*
X162465000Y-51903333D01*
X162512619Y-51855714D01*
X162607857Y-51808095D01*
X162655476Y-51808095D01*
X162750714Y-51855714D01*
X162798333Y-51903333D01*
X162845952Y-51998571D01*
X162845952Y-52189048D01*
X162893571Y-52284286D01*
X162941190Y-52331905D01*
X163036429Y-52379524D01*
X163226905Y-52379524D01*
X163322143Y-52331905D01*
X163369762Y-52284286D01*
X163417381Y-52189048D01*
X163417381Y-51998571D01*
X163369762Y-51903333D01*
X163322143Y-51855714D01*
X163226905Y-51808095D01*
X163036429Y-51808095D01*
X162941190Y-51855714D01*
X162893571Y-51903333D01*
X162845952Y-51998571D01*
X163417381Y-51379524D02*
X162417381Y-51379524D01*
X163417381Y-50808095D02*
X162845952Y-51236667D01*
X162417381Y-50808095D02*
X162988810Y-51379524D01*
X151812381Y-53189047D02*
X151336190Y-53522381D01*
X151812381Y-53760476D02*
X150812381Y-53760476D01*
X150812381Y-53379523D01*
X150860000Y-53284285D01*
X150907619Y-53236666D01*
X151002857Y-53189047D01*
X151145714Y-53189047D01*
X151240952Y-53236666D01*
X151288571Y-53284285D01*
X151336190Y-53379523D01*
X151336190Y-53760476D01*
X151812381Y-52236666D02*
X151812381Y-52808095D01*
X151812381Y-52522381D02*
X150812381Y-52522381D01*
X150955238Y-52617619D01*
X151050476Y-52712857D01*
X151098095Y-52808095D01*
X150812381Y-51617619D02*
X150812381Y-51522380D01*
X150860000Y-51427142D01*
X150907619Y-51379523D01*
X151002857Y-51331904D01*
X151193333Y-51284285D01*
X151431429Y-51284285D01*
X151621905Y-51331904D01*
X151717143Y-51379523D01*
X151764762Y-51427142D01*
X151812381Y-51522380D01*
X151812381Y-51617619D01*
X151764762Y-51712857D01*
X151717143Y-51760476D01*
X151621905Y-51808095D01*
X151431429Y-51855714D01*
X151193333Y-51855714D01*
X151002857Y-51808095D01*
X150907619Y-51760476D01*
X150860000Y-51712857D01*
X150812381Y-51617619D01*
X151145714Y-50427142D02*
X151812381Y-50427142D01*
X150764762Y-50665238D02*
X151479048Y-50903333D01*
X151479048Y-50284285D01*
X155432381Y-53379524D02*
X155432381Y-52712857D01*
X156432381Y-53141429D01*
X155432381Y-51855714D02*
X155432381Y-52331905D01*
X155908571Y-52379524D01*
X155860952Y-52331905D01*
X155813333Y-52236667D01*
X155813333Y-51998571D01*
X155860952Y-51903333D01*
X155908571Y-51855714D01*
X156003810Y-51808095D01*
X156241905Y-51808095D01*
X156337143Y-51855714D01*
X156384762Y-51903333D01*
X156432381Y-51998571D01*
X156432381Y-52236667D01*
X156384762Y-52331905D01*
X156337143Y-52379524D01*
X156432381Y-51379524D02*
X155432381Y-51379524D01*
X156432381Y-50808095D02*
X155860952Y-51236667D01*
X155432381Y-50808095D02*
X156003810Y-51379524D01*
X186245714Y-50887381D02*
X186245714Y-51696905D01*
X186293333Y-51792143D01*
X186340952Y-51839762D01*
X186436190Y-51887381D01*
X186626667Y-51887381D01*
X186721905Y-51839762D01*
X186769524Y-51792143D01*
X186817143Y-51696905D01*
X186817143Y-50887381D01*
X187817143Y-51887381D02*
X187245714Y-51887381D01*
X187531428Y-51887381D02*
X187531428Y-50887381D01*
X187436190Y-51030238D01*
X187340952Y-51125476D01*
X187245714Y-51173095D01*
X188436190Y-50887381D02*
X188531429Y-50887381D01*
X188626667Y-50935000D01*
X188674286Y-50982619D01*
X188721905Y-51077857D01*
X188769524Y-51268333D01*
X188769524Y-51506429D01*
X188721905Y-51696905D01*
X188674286Y-51792143D01*
X188626667Y-51839762D01*
X188531429Y-51887381D01*
X188436190Y-51887381D01*
X188340952Y-51839762D01*
X188293333Y-51792143D01*
X188245714Y-51696905D01*
X188198095Y-51506429D01*
X188198095Y-51268333D01*
X188245714Y-51077857D01*
X188293333Y-50982619D01*
X188340952Y-50935000D01*
X188436190Y-50887381D01*
X189721905Y-51887381D02*
X189150476Y-51887381D01*
X189436190Y-51887381D02*
X189436190Y-50887381D01*
X189340952Y-51030238D01*
X189245714Y-51125476D01*
X189150476Y-51173095D01*
X182570952Y-48347381D02*
X182094761Y-48347381D01*
X182047142Y-48823571D01*
X182094761Y-48775952D01*
X182189999Y-48728333D01*
X182428095Y-48728333D01*
X182523333Y-48775952D01*
X182570952Y-48823571D01*
X182618571Y-48918810D01*
X182618571Y-49156905D01*
X182570952Y-49252143D01*
X182523333Y-49299762D01*
X182428095Y-49347381D01*
X182189999Y-49347381D01*
X182094761Y-49299762D01*
X182047142Y-49252143D01*
X182951904Y-48680714D02*
X183189999Y-49347381D01*
X183428095Y-48680714D01*
X183570952Y-49442619D02*
X184332857Y-49442619D01*
X185142381Y-49347381D02*
X184809047Y-48871190D01*
X184570952Y-49347381D02*
X184570952Y-48347381D01*
X184951905Y-48347381D01*
X185047143Y-48395000D01*
X185094762Y-48442619D01*
X185142381Y-48537857D01*
X185142381Y-48680714D01*
X185094762Y-48775952D01*
X185047143Y-48823571D01*
X184951905Y-48871190D01*
X184570952Y-48871190D01*
X185951905Y-49299762D02*
X185856667Y-49347381D01*
X185666190Y-49347381D01*
X185570952Y-49299762D01*
X185523333Y-49204524D01*
X185523333Y-48823571D01*
X185570952Y-48728333D01*
X185666190Y-48680714D01*
X185856667Y-48680714D01*
X185951905Y-48728333D01*
X185999524Y-48823571D01*
X185999524Y-48918810D01*
X185523333Y-49014048D01*
X186856667Y-48680714D02*
X186856667Y-49490238D01*
X186809048Y-49585476D01*
X186761429Y-49633095D01*
X186666190Y-49680714D01*
X186523333Y-49680714D01*
X186428095Y-49633095D01*
X186856667Y-49299762D02*
X186761429Y-49347381D01*
X186570952Y-49347381D01*
X186475714Y-49299762D01*
X186428095Y-49252143D01*
X186380476Y-49156905D01*
X186380476Y-48871190D01*
X186428095Y-48775952D01*
X186475714Y-48728333D01*
X186570952Y-48680714D01*
X186761429Y-48680714D01*
X186856667Y-48728333D01*
X187761429Y-48680714D02*
X187761429Y-49347381D01*
X187332857Y-48680714D02*
X187332857Y-49204524D01*
X187380476Y-49299762D01*
X187475714Y-49347381D01*
X187618572Y-49347381D01*
X187713810Y-49299762D01*
X187761429Y-49252143D01*
X188380476Y-49347381D02*
X188285238Y-49299762D01*
X188237619Y-49204524D01*
X188237619Y-48347381D01*
X189190001Y-49347381D02*
X189190001Y-48823571D01*
X189142382Y-48728333D01*
X189047144Y-48680714D01*
X188856667Y-48680714D01*
X188761429Y-48728333D01*
X189190001Y-49299762D02*
X189094763Y-49347381D01*
X188856667Y-49347381D01*
X188761429Y-49299762D01*
X188713810Y-49204524D01*
X188713810Y-49109286D01*
X188761429Y-49014048D01*
X188856667Y-48966429D01*
X189094763Y-48966429D01*
X189190001Y-48918810D01*
X189523334Y-48680714D02*
X189904286Y-48680714D01*
X189666191Y-48347381D02*
X189666191Y-49204524D01*
X189713810Y-49299762D01*
X189809048Y-49347381D01*
X189904286Y-49347381D01*
X190380477Y-49347381D02*
X190285239Y-49299762D01*
X190237620Y-49252143D01*
X190190001Y-49156905D01*
X190190001Y-48871190D01*
X190237620Y-48775952D01*
X190285239Y-48728333D01*
X190380477Y-48680714D01*
X190523335Y-48680714D01*
X190618573Y-48728333D01*
X190666192Y-48775952D01*
X190713811Y-48871190D01*
X190713811Y-49156905D01*
X190666192Y-49252143D01*
X190618573Y-49299762D01*
X190523335Y-49347381D01*
X190380477Y-49347381D01*
X191142382Y-49347381D02*
X191142382Y-48680714D01*
X191142382Y-48871190D02*
X191190001Y-48775952D01*
X191237620Y-48728333D01*
X191332858Y-48680714D01*
X191428097Y-48680714D01*
X182062381Y-45846905D02*
X181062381Y-45846905D01*
X181062381Y-45465952D01*
X181110000Y-45370714D01*
X181157619Y-45323095D01*
X181252857Y-45275476D01*
X181395714Y-45275476D01*
X181490952Y-45323095D01*
X181538571Y-45370714D01*
X181586190Y-45465952D01*
X181586190Y-45846905D01*
X181110000Y-44323095D02*
X181062381Y-44418333D01*
X181062381Y-44561190D01*
X181110000Y-44704048D01*
X181205238Y-44799286D01*
X181300476Y-44846905D01*
X181490952Y-44894524D01*
X181633810Y-44894524D01*
X181824286Y-44846905D01*
X181919524Y-44799286D01*
X182014762Y-44704048D01*
X182062381Y-44561190D01*
X182062381Y-44465952D01*
X182014762Y-44323095D01*
X181967143Y-44275476D01*
X181633810Y-44275476D01*
X181633810Y-44465952D01*
X184554762Y-46918333D02*
X184602381Y-46775476D01*
X184602381Y-46537380D01*
X184554762Y-46442142D01*
X184507143Y-46394523D01*
X184411905Y-46346904D01*
X184316667Y-46346904D01*
X184221429Y-46394523D01*
X184173810Y-46442142D01*
X184126190Y-46537380D01*
X184078571Y-46727857D01*
X184030952Y-46823095D01*
X183983333Y-46870714D01*
X183888095Y-46918333D01*
X183792857Y-46918333D01*
X183697619Y-46870714D01*
X183650000Y-46823095D01*
X183602381Y-46727857D01*
X183602381Y-46489761D01*
X183650000Y-46346904D01*
X184602381Y-45918333D02*
X183602381Y-45918333D01*
X184078571Y-45918333D02*
X184078571Y-45346904D01*
X184602381Y-45346904D02*
X183602381Y-45346904D01*
X184602381Y-44870714D02*
X183602381Y-44870714D01*
X183602381Y-44632619D01*
X183650000Y-44489761D01*
X183745238Y-44394523D01*
X183840476Y-44346904D01*
X184030952Y-44299285D01*
X184173810Y-44299285D01*
X184364286Y-44346904D01*
X184459524Y-44394523D01*
X184554762Y-44489761D01*
X184602381Y-44632619D01*
X184602381Y-44870714D01*
X184602381Y-43870714D02*
X183602381Y-43870714D01*
X184602381Y-43299285D01*
X183602381Y-43299285D01*
X183430000Y-47108809D02*
X183430000Y-43061190D01*
X186142381Y-46180238D02*
X187142381Y-45846905D01*
X186142381Y-45513571D01*
X187142381Y-45180238D02*
X186142381Y-45180238D01*
X187142381Y-44704048D02*
X186142381Y-44704048D01*
X187142381Y-44132619D01*
X186142381Y-44132619D01*
X188730000Y-45846904D02*
X188682381Y-45942142D01*
X188682381Y-46084999D01*
X188730000Y-46227857D01*
X188825238Y-46323095D01*
X188920476Y-46370714D01*
X189110952Y-46418333D01*
X189253810Y-46418333D01*
X189444286Y-46370714D01*
X189539524Y-46323095D01*
X189634762Y-46227857D01*
X189682381Y-46084999D01*
X189682381Y-45989761D01*
X189634762Y-45846904D01*
X189587143Y-45799285D01*
X189253810Y-45799285D01*
X189253810Y-45989761D01*
X189682381Y-45370714D02*
X188682381Y-45370714D01*
X189682381Y-44799285D01*
X188682381Y-44799285D01*
X189682381Y-44323095D02*
X188682381Y-44323095D01*
X188682381Y-44085000D01*
X188730000Y-43942142D01*
X188825238Y-43846904D01*
X188920476Y-43799285D01*
X189110952Y-43751666D01*
X189253810Y-43751666D01*
X189444286Y-43799285D01*
X189539524Y-43846904D01*
X189634762Y-43942142D01*
X189682381Y-44085000D01*
X189682381Y-44323095D01*
X191222381Y-46846905D02*
X192222381Y-46513572D01*
X191222381Y-46180238D01*
X191222381Y-45656429D02*
X191222381Y-45465952D01*
X191270000Y-45370714D01*
X191365238Y-45275476D01*
X191555714Y-45227857D01*
X191889048Y-45227857D01*
X192079524Y-45275476D01*
X192174762Y-45370714D01*
X192222381Y-45465952D01*
X192222381Y-45656429D01*
X192174762Y-45751667D01*
X192079524Y-45846905D01*
X191889048Y-45894524D01*
X191555714Y-45894524D01*
X191365238Y-45846905D01*
X191270000Y-45751667D01*
X191222381Y-45656429D01*
X191222381Y-44799286D02*
X192031905Y-44799286D01*
X192127143Y-44751667D01*
X192174762Y-44704048D01*
X192222381Y-44608810D01*
X192222381Y-44418333D01*
X192174762Y-44323095D01*
X192127143Y-44275476D01*
X192031905Y-44227857D01*
X191222381Y-44227857D01*
X191222381Y-43894524D02*
X191222381Y-43323095D01*
X192222381Y-43608810D02*
X191222381Y-43608810D01*
X137457619Y-54387619D02*
X137410000Y-54482857D01*
X137314762Y-54578095D01*
X137171905Y-54720952D01*
X137124286Y-54816191D01*
X137124286Y-54911429D01*
X137362381Y-54863810D02*
X137314762Y-54959048D01*
X137219524Y-55054286D01*
X137029048Y-55101905D01*
X136695714Y-55101905D01*
X136505238Y-55054286D01*
X136410000Y-54959048D01*
X136362381Y-54863810D01*
X136362381Y-54673333D01*
X136410000Y-54578095D01*
X136505238Y-54482857D01*
X136695714Y-54435238D01*
X137029048Y-54435238D01*
X137219524Y-54482857D01*
X137314762Y-54578095D01*
X137362381Y-54673333D01*
X137362381Y-54863810D01*
X137362381Y-53482857D02*
X137362381Y-54054286D01*
X137362381Y-53768572D02*
X136362381Y-53768572D01*
X136505238Y-53863810D01*
X136600476Y-53959048D01*
X136648095Y-54054286D01*
X136362381Y-52863810D02*
X136362381Y-52768571D01*
X136410000Y-52673333D01*
X136457619Y-52625714D01*
X136552857Y-52578095D01*
X136743333Y-52530476D01*
X136981429Y-52530476D01*
X137171905Y-52578095D01*
X137267143Y-52625714D01*
X137314762Y-52673333D01*
X137362381Y-52768571D01*
X137362381Y-52863810D01*
X137314762Y-52959048D01*
X137267143Y-53006667D01*
X137171905Y-53054286D01*
X136981429Y-53101905D01*
X136743333Y-53101905D01*
X136552857Y-53054286D01*
X136457619Y-53006667D01*
X136410000Y-52959048D01*
X136362381Y-52863810D01*
X137362381Y-51578095D02*
X137362381Y-52149524D01*
X137362381Y-51863810D02*
X136362381Y-51863810D01*
X136505238Y-51959048D01*
X136600476Y-52054286D01*
X136648095Y-52149524D01*
X154517886Y-77735181D02*
X154517886Y-78449467D01*
X154470266Y-78592324D01*
X154375028Y-78687562D01*
X154232171Y-78735181D01*
X154136933Y-78735181D01*
X155517886Y-78735181D02*
X154946457Y-78735181D01*
X155232171Y-78735181D02*
X155232171Y-77735181D01*
X155136933Y-77878038D01*
X155041695Y-77973276D01*
X154946457Y-78020895D01*
X155898838Y-77830419D02*
X155946457Y-77782800D01*
X156041695Y-77735181D01*
X156279791Y-77735181D01*
X156375029Y-77782800D01*
X156422648Y-77830419D01*
X156470267Y-77925657D01*
X156470267Y-78020895D01*
X156422648Y-78163752D01*
X155851219Y-78735181D01*
X156470267Y-78735181D01*
X157327410Y-77735181D02*
X157136933Y-77735181D01*
X157041695Y-77782800D01*
X156994076Y-77830419D01*
X156898838Y-77973276D01*
X156851219Y-78163752D01*
X156851219Y-78544705D01*
X156898838Y-78639943D01*
X156946457Y-78687562D01*
X157041695Y-78735181D01*
X157232172Y-78735181D01*
X157327410Y-78687562D01*
X157375029Y-78639943D01*
X157422648Y-78544705D01*
X157422648Y-78306610D01*
X157375029Y-78211371D01*
X157327410Y-78163752D01*
X157232172Y-78116133D01*
X157041695Y-78116133D01*
X156946457Y-78163752D01*
X156898838Y-78211371D01*
X156851219Y-78306610D01*
X151835333Y-63458571D02*
X152168667Y-63458571D01*
X152311524Y-63982381D02*
X151835333Y-63982381D01*
X151835333Y-62982381D01*
X152311524Y-62982381D01*
X153073429Y-63458571D02*
X152740095Y-63458571D01*
X152740095Y-63982381D02*
X152740095Y-62982381D01*
X153216286Y-62982381D01*
X153597238Y-63982381D02*
X153597238Y-62982381D01*
X153835333Y-64077619D02*
X154597238Y-64077619D01*
X154835333Y-63458571D02*
X155168667Y-63458571D01*
X155311524Y-63982381D02*
X154835333Y-63982381D01*
X154835333Y-62982381D01*
X155311524Y-62982381D01*
X155740095Y-63982381D02*
X155740095Y-62982381D01*
X156311524Y-63982381D01*
X156311524Y-62982381D01*
X156549619Y-64077619D02*
X157311524Y-64077619D01*
X157502000Y-63934762D02*
X157644857Y-63982381D01*
X157882953Y-63982381D01*
X157978191Y-63934762D01*
X158025810Y-63887143D01*
X158073429Y-63791905D01*
X158073429Y-63696667D01*
X158025810Y-63601429D01*
X157978191Y-63553810D01*
X157882953Y-63506190D01*
X157692476Y-63458571D01*
X157597238Y-63410952D01*
X157549619Y-63363333D01*
X157502000Y-63268095D01*
X157502000Y-63172857D01*
X157549619Y-63077619D01*
X157597238Y-63030000D01*
X157692476Y-62982381D01*
X157930572Y-62982381D01*
X158073429Y-63030000D01*
X158406762Y-62982381D02*
X158644857Y-63982381D01*
X158835334Y-63268095D01*
X159025810Y-63982381D01*
X159263905Y-62982381D01*
D17*
X153447810Y-68764286D02*
X153924001Y-68421429D01*
X154400191Y-68764286D01*
D15*
X173567886Y-77735181D02*
X173567886Y-78449467D01*
X173520266Y-78592324D01*
X173425028Y-78687562D01*
X173282171Y-78735181D01*
X173186933Y-78735181D01*
X174567886Y-78735181D02*
X173996457Y-78735181D01*
X174282171Y-78735181D02*
X174282171Y-77735181D01*
X174186933Y-77878038D01*
X174091695Y-77973276D01*
X173996457Y-78020895D01*
X174948838Y-77830419D02*
X174996457Y-77782800D01*
X175091695Y-77735181D01*
X175329791Y-77735181D01*
X175425029Y-77782800D01*
X175472648Y-77830419D01*
X175520267Y-77925657D01*
X175520267Y-78020895D01*
X175472648Y-78163752D01*
X174901219Y-78735181D01*
X175520267Y-78735181D01*
X176425029Y-77735181D02*
X175948838Y-77735181D01*
X175901219Y-78211371D01*
X175948838Y-78163752D01*
X176044076Y-78116133D01*
X176282172Y-78116133D01*
X176377410Y-78163752D01*
X176425029Y-78211371D01*
X176472648Y-78306610D01*
X176472648Y-78544705D01*
X176425029Y-78639943D01*
X176377410Y-78687562D01*
X176282172Y-78735181D01*
X176044076Y-78735181D01*
X175948838Y-78687562D01*
X175901219Y-78639943D01*
X170480571Y-63458571D02*
X170813905Y-63458571D01*
X170956762Y-63982381D02*
X170480571Y-63982381D01*
X170480571Y-62982381D01*
X170956762Y-62982381D01*
X171718667Y-63458571D02*
X171385333Y-63458571D01*
X171385333Y-63982381D02*
X171385333Y-62982381D01*
X171861524Y-62982381D01*
X172242476Y-63982381D02*
X172242476Y-62982381D01*
X172480571Y-64077619D02*
X173242476Y-64077619D01*
X173671047Y-62982381D02*
X173861524Y-62982381D01*
X173956762Y-63030000D01*
X174052000Y-63125238D01*
X174099619Y-63315714D01*
X174099619Y-63649048D01*
X174052000Y-63839524D01*
X173956762Y-63934762D01*
X173861524Y-63982381D01*
X173671047Y-63982381D01*
X173575809Y-63934762D01*
X173480571Y-63839524D01*
X173432952Y-63649048D01*
X173432952Y-63315714D01*
X173480571Y-63125238D01*
X173575809Y-63030000D01*
X173671047Y-62982381D01*
X174528190Y-63315714D02*
X174528190Y-63982381D01*
X174528190Y-63410952D02*
X174575809Y-63363333D01*
X174671047Y-63315714D01*
X174813905Y-63315714D01*
X174909143Y-63363333D01*
X174956762Y-63458571D01*
X174956762Y-63982381D01*
X175194857Y-64077619D02*
X175956762Y-64077619D01*
X176766286Y-63887143D02*
X176718667Y-63934762D01*
X176575810Y-63982381D01*
X176480572Y-63982381D01*
X176337714Y-63934762D01*
X176242476Y-63839524D01*
X176194857Y-63744286D01*
X176147238Y-63553810D01*
X176147238Y-63410952D01*
X176194857Y-63220476D01*
X176242476Y-63125238D01*
X176337714Y-63030000D01*
X176480572Y-62982381D01*
X176575810Y-62982381D01*
X176718667Y-63030000D01*
X176766286Y-63077619D01*
X177147238Y-63696667D02*
X177623429Y-63696667D01*
X177052000Y-63982381D02*
X177385333Y-62982381D01*
X177718667Y-63982381D01*
X178052000Y-63982381D02*
X178052000Y-62982381D01*
X178623429Y-63982381D01*
X178623429Y-62982381D01*
D17*
X172497810Y-68764286D02*
X172974001Y-68421429D01*
X173450191Y-68764286D01*
D15*
X116417886Y-77735181D02*
X116417886Y-78449467D01*
X116370266Y-78592324D01*
X116275028Y-78687562D01*
X116132171Y-78735181D01*
X116036933Y-78735181D01*
X117417886Y-78735181D02*
X116846457Y-78735181D01*
X117132171Y-78735181D02*
X117132171Y-77735181D01*
X117036933Y-77878038D01*
X116941695Y-77973276D01*
X116846457Y-78020895D01*
X117798838Y-77830419D02*
X117846457Y-77782800D01*
X117941695Y-77735181D01*
X118179791Y-77735181D01*
X118275029Y-77782800D01*
X118322648Y-77830419D01*
X118370267Y-77925657D01*
X118370267Y-78020895D01*
X118322648Y-78163752D01*
X117751219Y-78735181D01*
X118370267Y-78735181D01*
X119227410Y-78068514D02*
X119227410Y-78735181D01*
X118989314Y-77687562D02*
X118751219Y-78401848D01*
X119370267Y-78401848D01*
X116483000Y-63952381D02*
X116483000Y-62952381D01*
X117054429Y-63952381D02*
X116625857Y-63380952D01*
X117054429Y-62952381D02*
X116483000Y-63523810D01*
X117483000Y-63952381D02*
X117483000Y-63285714D01*
X117483000Y-62952381D02*
X117435381Y-63000000D01*
X117483000Y-63047619D01*
X117530619Y-63000000D01*
X117483000Y-62952381D01*
X117483000Y-63047619D01*
X118102047Y-63952381D02*
X118006809Y-63904762D01*
X117959190Y-63809524D01*
X117959190Y-62952381D01*
X118625857Y-63952381D02*
X118530619Y-63904762D01*
X118483000Y-63809524D01*
X118483000Y-62952381D01*
X118911572Y-62952381D02*
X119530620Y-62952381D01*
X119197286Y-63333333D01*
X119340144Y-63333333D01*
X119435382Y-63380952D01*
X119483001Y-63428571D01*
X119530620Y-63523810D01*
X119530620Y-63761905D01*
X119483001Y-63857143D01*
X119435382Y-63904762D01*
X119340144Y-63952381D01*
X119054429Y-63952381D01*
X118959191Y-63904762D01*
X118911572Y-63857143D01*
D17*
X115347810Y-68764286D02*
X115824001Y-68421429D01*
X116300191Y-68764286D01*
D15*
X125942886Y-77735181D02*
X125942886Y-78449467D01*
X125895266Y-78592324D01*
X125800028Y-78687562D01*
X125657171Y-78735181D01*
X125561933Y-78735181D01*
X126942886Y-78735181D02*
X126371457Y-78735181D01*
X126657171Y-78735181D02*
X126657171Y-77735181D01*
X126561933Y-77878038D01*
X126466695Y-77973276D01*
X126371457Y-78020895D01*
X127323838Y-77830419D02*
X127371457Y-77782800D01*
X127466695Y-77735181D01*
X127704791Y-77735181D01*
X127800029Y-77782800D01*
X127847648Y-77830419D01*
X127895267Y-77925657D01*
X127895267Y-78020895D01*
X127847648Y-78163752D01*
X127276219Y-78735181D01*
X127895267Y-78735181D01*
X128228600Y-77735181D02*
X128847648Y-77735181D01*
X128514314Y-78116133D01*
X128657172Y-78116133D01*
X128752410Y-78163752D01*
X128800029Y-78211371D01*
X128847648Y-78306610D01*
X128847648Y-78544705D01*
X128800029Y-78639943D01*
X128752410Y-78687562D01*
X128657172Y-78735181D01*
X128371457Y-78735181D01*
X128276219Y-78687562D01*
X128228600Y-78639943D01*
X125427000Y-63982381D02*
X125427000Y-62982381D01*
X125998429Y-63982381D02*
X125569857Y-63410952D01*
X125998429Y-62982381D02*
X125427000Y-63553810D01*
X126427000Y-63982381D02*
X126427000Y-63315714D01*
X126427000Y-62982381D02*
X126379381Y-63030000D01*
X126427000Y-63077619D01*
X126474619Y-63030000D01*
X126427000Y-62982381D01*
X126427000Y-63077619D01*
X127046047Y-63982381D02*
X126950809Y-63934762D01*
X126903190Y-63839524D01*
X126903190Y-62982381D01*
X127569857Y-63982381D02*
X127474619Y-63934762D01*
X127427000Y-63839524D01*
X127427000Y-62982381D01*
X127903191Y-63077619D02*
X127950810Y-63030000D01*
X128046048Y-62982381D01*
X128284144Y-62982381D01*
X128379382Y-63030000D01*
X128427001Y-63077619D01*
X128474620Y-63172857D01*
X128474620Y-63268095D01*
X128427001Y-63410952D01*
X127855572Y-63982381D01*
X128474620Y-63982381D01*
D17*
X124872810Y-68764286D02*
X125349001Y-68421429D01*
X125825191Y-68764286D01*
D15*
X135467886Y-77735181D02*
X135467886Y-78449467D01*
X135420266Y-78592324D01*
X135325028Y-78687562D01*
X135182171Y-78735181D01*
X135086933Y-78735181D01*
X136467886Y-78735181D02*
X135896457Y-78735181D01*
X136182171Y-78735181D02*
X136182171Y-77735181D01*
X136086933Y-77878038D01*
X135991695Y-77973276D01*
X135896457Y-78020895D01*
X136848838Y-77830419D02*
X136896457Y-77782800D01*
X136991695Y-77735181D01*
X137229791Y-77735181D01*
X137325029Y-77782800D01*
X137372648Y-77830419D01*
X137420267Y-77925657D01*
X137420267Y-78020895D01*
X137372648Y-78163752D01*
X136801219Y-78735181D01*
X137420267Y-78735181D01*
X137801219Y-77830419D02*
X137848838Y-77782800D01*
X137944076Y-77735181D01*
X138182172Y-77735181D01*
X138277410Y-77782800D01*
X138325029Y-77830419D01*
X138372648Y-77925657D01*
X138372648Y-78020895D01*
X138325029Y-78163752D01*
X137753600Y-78735181D01*
X138372648Y-78735181D01*
X134952000Y-63982381D02*
X134952000Y-62982381D01*
X135523429Y-63982381D02*
X135094857Y-63410952D01*
X135523429Y-62982381D02*
X134952000Y-63553810D01*
X135952000Y-63982381D02*
X135952000Y-63315714D01*
X135952000Y-62982381D02*
X135904381Y-63030000D01*
X135952000Y-63077619D01*
X135999619Y-63030000D01*
X135952000Y-62982381D01*
X135952000Y-63077619D01*
X136571047Y-63982381D02*
X136475809Y-63934762D01*
X136428190Y-63839524D01*
X136428190Y-62982381D01*
X137094857Y-63982381D02*
X136999619Y-63934762D01*
X136952000Y-63839524D01*
X136952000Y-62982381D01*
X137999620Y-63982381D02*
X137428191Y-63982381D01*
X137713905Y-63982381D02*
X137713905Y-62982381D01*
X137618667Y-63125238D01*
X137523429Y-63220476D01*
X137428191Y-63268095D01*
D17*
X134397810Y-68764286D02*
X134874001Y-68421429D01*
X135350191Y-68764286D01*
D15*
X164042886Y-77735181D02*
X164042886Y-78449467D01*
X163995266Y-78592324D01*
X163900028Y-78687562D01*
X163757171Y-78735181D01*
X163661933Y-78735181D01*
X165042886Y-78735181D02*
X164471457Y-78735181D01*
X164757171Y-78735181D02*
X164757171Y-77735181D01*
X164661933Y-77878038D01*
X164566695Y-77973276D01*
X164471457Y-78020895D01*
X165423838Y-77830419D02*
X165471457Y-77782800D01*
X165566695Y-77735181D01*
X165804791Y-77735181D01*
X165900029Y-77782800D01*
X165947648Y-77830419D01*
X165995267Y-77925657D01*
X165995267Y-78020895D01*
X165947648Y-78163752D01*
X165376219Y-78735181D01*
X165995267Y-78735181D01*
X166947648Y-78735181D02*
X166376219Y-78735181D01*
X166661933Y-78735181D02*
X166661933Y-77735181D01*
X166566695Y-77878038D01*
X166471457Y-77973276D01*
X166376219Y-78020895D01*
X162503190Y-62982381D02*
X162693667Y-62982381D01*
X162788905Y-63030000D01*
X162884143Y-63125238D01*
X162931762Y-63315714D01*
X162931762Y-63649048D01*
X162884143Y-63839524D01*
X162788905Y-63934762D01*
X162693667Y-63982381D01*
X162503190Y-63982381D01*
X162407952Y-63934762D01*
X162312714Y-63839524D01*
X162265095Y-63649048D01*
X162265095Y-63315714D01*
X162312714Y-63125238D01*
X162407952Y-63030000D01*
X162503190Y-62982381D01*
X163312714Y-63077619D02*
X163360333Y-63030000D01*
X163455571Y-62982381D01*
X163693667Y-62982381D01*
X163788905Y-63030000D01*
X163836524Y-63077619D01*
X163884143Y-63172857D01*
X163884143Y-63268095D01*
X163836524Y-63410952D01*
X163265095Y-63982381D01*
X163884143Y-63982381D01*
X164074619Y-64077619D02*
X164836524Y-64077619D01*
X165074619Y-63982381D02*
X165074619Y-62982381D01*
X165455572Y-62982381D01*
X165550810Y-63030000D01*
X165598429Y-63077619D01*
X165646048Y-63172857D01*
X165646048Y-63315714D01*
X165598429Y-63410952D01*
X165550810Y-63458571D01*
X165455572Y-63506190D01*
X165074619Y-63506190D01*
X165979381Y-62982381D02*
X166217476Y-63982381D01*
X166407953Y-63268095D01*
X166598429Y-63982381D01*
X166836524Y-62982381D01*
X167788905Y-63982381D02*
X167455571Y-63506190D01*
X167217476Y-63982381D02*
X167217476Y-62982381D01*
X167598429Y-62982381D01*
X167693667Y-63030000D01*
X167741286Y-63077619D01*
X167788905Y-63172857D01*
X167788905Y-63315714D01*
X167741286Y-63410952D01*
X167693667Y-63458571D01*
X167598429Y-63506190D01*
X167217476Y-63506190D01*
D17*
X162972810Y-68764286D02*
X163449001Y-68421429D01*
X163925191Y-68764286D01*
D15*
X183092886Y-77735181D02*
X183092886Y-78449467D01*
X183045266Y-78592324D01*
X182950028Y-78687562D01*
X182807171Y-78735181D01*
X182711933Y-78735181D01*
X184092886Y-78735181D02*
X183521457Y-78735181D01*
X183807171Y-78735181D02*
X183807171Y-77735181D01*
X183711933Y-77878038D01*
X183616695Y-77973276D01*
X183521457Y-78020895D01*
X185045267Y-78735181D02*
X184473838Y-78735181D01*
X184759552Y-78735181D02*
X184759552Y-77735181D01*
X184664314Y-77878038D01*
X184569076Y-77973276D01*
X184473838Y-78020895D01*
X185521457Y-78735181D02*
X185711933Y-78735181D01*
X185807172Y-78687562D01*
X185854791Y-78639943D01*
X185950029Y-78497086D01*
X185997648Y-78306610D01*
X185997648Y-77925657D01*
X185950029Y-77830419D01*
X185902410Y-77782800D01*
X185807172Y-77735181D01*
X185616695Y-77735181D01*
X185521457Y-77782800D01*
X185473838Y-77830419D01*
X185426219Y-77925657D01*
X185426219Y-78163752D01*
X185473838Y-78258990D01*
X185521457Y-78306610D01*
X185616695Y-78354229D01*
X185807172Y-78354229D01*
X185902410Y-78306610D01*
X185950029Y-78258990D01*
X185997648Y-78163752D01*
X181600810Y-63982381D02*
X181600810Y-62982381D01*
X181981763Y-62982381D01*
X182077001Y-63030000D01*
X182124620Y-63077619D01*
X182172239Y-63172857D01*
X182172239Y-63315714D01*
X182124620Y-63410952D01*
X182077001Y-63458571D01*
X181981763Y-63506190D01*
X181600810Y-63506190D01*
X182505572Y-62982381D02*
X182743667Y-63982381D01*
X182934144Y-63268095D01*
X183124620Y-63982381D01*
X183362715Y-62982381D01*
X184315096Y-63982381D02*
X183981762Y-63506190D01*
X183743667Y-63982381D02*
X183743667Y-62982381D01*
X184124620Y-62982381D01*
X184219858Y-63030000D01*
X184267477Y-63077619D01*
X184315096Y-63172857D01*
X184315096Y-63315714D01*
X184267477Y-63410952D01*
X184219858Y-63458571D01*
X184124620Y-63506190D01*
X183743667Y-63506190D01*
X184505572Y-64077619D02*
X185267477Y-64077619D01*
X185505572Y-63982381D02*
X185505572Y-62982381D01*
X185981762Y-63982381D02*
X185981762Y-62982381D01*
X186553191Y-63982381D01*
X186553191Y-62982381D01*
D17*
X182022810Y-68764286D02*
X182499001Y-68421429D01*
X182975191Y-68764286D01*
D15*
X144891286Y-60412381D02*
X144891286Y-61126667D01*
X144843666Y-61269524D01*
X144748428Y-61364762D01*
X144605571Y-61412381D01*
X144510333Y-61412381D01*
X145891286Y-61412381D02*
X145319857Y-61412381D01*
X145605571Y-61412381D02*
X145605571Y-60412381D01*
X145510333Y-60555238D01*
X145415095Y-60650476D01*
X145319857Y-60698095D01*
X146272238Y-60507619D02*
X146319857Y-60460000D01*
X146415095Y-60412381D01*
X146653191Y-60412381D01*
X146748429Y-60460000D01*
X146796048Y-60507619D01*
X146843667Y-60602857D01*
X146843667Y-60698095D01*
X146796048Y-60840952D01*
X146224619Y-61412381D01*
X146843667Y-61412381D01*
X147462714Y-60412381D02*
X147557953Y-60412381D01*
X147653191Y-60460000D01*
X147700810Y-60507619D01*
X147748429Y-60602857D01*
X147796048Y-60793333D01*
X147796048Y-61031429D01*
X147748429Y-61221905D01*
X147700810Y-61317143D01*
X147653191Y-61364762D01*
X147557953Y-61412381D01*
X147462714Y-61412381D01*
X147367476Y-61364762D01*
X147319857Y-61317143D01*
X147272238Y-61221905D01*
X147224619Y-61031429D01*
X147224619Y-60793333D01*
X147272238Y-60602857D01*
X147319857Y-60507619D01*
X147367476Y-60460000D01*
X147462714Y-60412381D01*
D18*
X144085571Y-69333999D02*
X144085571Y-68405428D01*
X144657000Y-68905428D01*
X144657000Y-68691142D01*
X144728429Y-68548285D01*
X144799857Y-68476856D01*
X144942714Y-68405428D01*
X145299857Y-68405428D01*
X145442714Y-68476856D01*
X145514143Y-68548285D01*
X145585571Y-68691142D01*
X145585571Y-69119714D01*
X145514143Y-69262571D01*
X145442714Y-69333999D01*
D17*
X144176810Y-65925048D02*
X144653001Y-65567905D01*
X145129191Y-65925048D01*
M02*
