G04 #@! TF.GenerationSoftware,KiCad,Pcbnew,(5.0.0-rc2-dev-670-ga3770bf6e)*
G04 #@! TF.CreationDate,2018-05-07T21:03:45-05:00*
G04 #@! TF.ProjectId,KarkPower,4B61726B506F7765722E6B696361645F,rev?*
G04 #@! TF.SameCoordinates,Original*
G04 #@! TF.FileFunction,Legend,Top*
G04 #@! TF.FilePolarity,Positive*
%FSLAX46Y46*%
G04 Gerber Fmt 4.6, Leading zero omitted, Abs format (unit mm)*
G04 Created by KiCad (PCBNEW (5.0.0-rc2-dev-670-ga3770bf6e)) date Mon May  7 21:03:45 2018*
%MOMM*%
%LPD*%
G01*
G04 APERTURE LIST*
%ADD10C,0.181356*%
%ADD11C,0.300000*%
%ADD12C,0.076200*%
%ADD13C,0.150000*%
%ADD14C,0.200000*%
%ADD15C,0.100000*%
%ADD16C,0.152400*%
%ADD17C,0.120000*%
%ADD18C,0.210000*%
%ADD19C,0.357000*%
G04 APERTURE END LIST*
D10*
X123583095Y-60778571D02*
X123522619Y-60839047D01*
X123341190Y-60899523D01*
X123220238Y-60899523D01*
X123038809Y-60839047D01*
X122917857Y-60718095D01*
X122857380Y-60597142D01*
X122796904Y-60355238D01*
X122796904Y-60173809D01*
X122857380Y-59931904D01*
X122917857Y-59810952D01*
X123038809Y-59690000D01*
X123220238Y-59629523D01*
X123341190Y-59629523D01*
X123522619Y-59690000D01*
X123583095Y-59750476D01*
X117233095Y-64709523D02*
X116628333Y-64709523D01*
X116567857Y-65314285D01*
X116628333Y-65253809D01*
X116749285Y-65193333D01*
X117051666Y-65193333D01*
X117172619Y-65253809D01*
X117233095Y-65314285D01*
X117293571Y-65435238D01*
X117293571Y-65737619D01*
X117233095Y-65858571D01*
X117172619Y-65919047D01*
X117051666Y-65979523D01*
X116749285Y-65979523D01*
X116628333Y-65919047D01*
X116567857Y-65858571D01*
X117656428Y-64709523D02*
X118079761Y-65979523D01*
X118503095Y-64709523D01*
X116053809Y-63439523D02*
X115328095Y-63439523D01*
X115690952Y-63439523D02*
X115690952Y-62169523D01*
X115570000Y-62350952D01*
X115449047Y-62471904D01*
X115328095Y-62532380D01*
X116537619Y-62290476D02*
X116598095Y-62230000D01*
X116719047Y-62169523D01*
X117021428Y-62169523D01*
X117142380Y-62230000D01*
X117202857Y-62290476D01*
X117263333Y-62411428D01*
X117263333Y-62532380D01*
X117202857Y-62713809D01*
X116477142Y-63439523D01*
X117263333Y-63439523D01*
X117626190Y-62169523D02*
X118049523Y-63439523D01*
X118472857Y-62169523D01*
X129993571Y-37192857D02*
X129993571Y-38039523D01*
X129691190Y-36709047D02*
X129388809Y-37616190D01*
X130175000Y-37616190D01*
X131989285Y-38523333D02*
X131928809Y-38462857D01*
X131807857Y-38281428D01*
X131747380Y-38160476D01*
X131686904Y-37979047D01*
X131626428Y-37676666D01*
X131626428Y-37434761D01*
X131686904Y-37132380D01*
X131747380Y-36950952D01*
X131807857Y-36830000D01*
X131928809Y-36648571D01*
X131989285Y-36588095D01*
X132896428Y-37374285D02*
X133077857Y-37434761D01*
X133138333Y-37495238D01*
X133198809Y-37616190D01*
X133198809Y-37797619D01*
X133138333Y-37918571D01*
X133077857Y-37979047D01*
X132956904Y-38039523D01*
X132473095Y-38039523D01*
X132473095Y-36769523D01*
X132896428Y-36769523D01*
X133017380Y-36830000D01*
X133077857Y-36890476D01*
X133138333Y-37011428D01*
X133138333Y-37132380D01*
X133077857Y-37253333D01*
X133017380Y-37313809D01*
X132896428Y-37374285D01*
X132473095Y-37374285D01*
X134287380Y-38039523D02*
X134287380Y-37374285D01*
X134226904Y-37253333D01*
X134105952Y-37192857D01*
X133864047Y-37192857D01*
X133743095Y-37253333D01*
X134287380Y-37979047D02*
X134166428Y-38039523D01*
X133864047Y-38039523D01*
X133743095Y-37979047D01*
X133682619Y-37858095D01*
X133682619Y-37737142D01*
X133743095Y-37616190D01*
X133864047Y-37555714D01*
X134166428Y-37555714D01*
X134287380Y-37495238D01*
X135436428Y-37979047D02*
X135315476Y-38039523D01*
X135073571Y-38039523D01*
X134952619Y-37979047D01*
X134892142Y-37918571D01*
X134831666Y-37797619D01*
X134831666Y-37434761D01*
X134892142Y-37313809D01*
X134952619Y-37253333D01*
X135073571Y-37192857D01*
X135315476Y-37192857D01*
X135436428Y-37253333D01*
X135980714Y-38039523D02*
X135980714Y-36769523D01*
X136101666Y-37555714D02*
X136464523Y-38039523D01*
X136464523Y-37192857D02*
X135980714Y-37676666D01*
X136887857Y-38523333D02*
X136948333Y-38462857D01*
X137069285Y-38281428D01*
X137129761Y-38160476D01*
X137190238Y-37979047D01*
X137250714Y-37676666D01*
X137250714Y-37434761D01*
X137190238Y-37132380D01*
X137129761Y-36950952D01*
X137069285Y-36830000D01*
X136948333Y-36648571D01*
X136887857Y-36588095D01*
X114723333Y-36769523D02*
X115509523Y-36769523D01*
X115086190Y-37253333D01*
X115267619Y-37253333D01*
X115388571Y-37313809D01*
X115449047Y-37374285D01*
X115509523Y-37495238D01*
X115509523Y-37797619D01*
X115449047Y-37918571D01*
X115388571Y-37979047D01*
X115267619Y-38039523D01*
X114904761Y-38039523D01*
X114783809Y-37979047D01*
X114723333Y-37918571D01*
X117384285Y-38523333D02*
X117323809Y-38462857D01*
X117202857Y-38281428D01*
X117142380Y-38160476D01*
X117081904Y-37979047D01*
X117021428Y-37676666D01*
X117021428Y-37434761D01*
X117081904Y-37132380D01*
X117142380Y-36950952D01*
X117202857Y-36830000D01*
X117323809Y-36648571D01*
X117384285Y-36588095D01*
X118291428Y-37374285D02*
X118472857Y-37434761D01*
X118533333Y-37495238D01*
X118593809Y-37616190D01*
X118593809Y-37797619D01*
X118533333Y-37918571D01*
X118472857Y-37979047D01*
X118351904Y-38039523D01*
X117868095Y-38039523D01*
X117868095Y-36769523D01*
X118291428Y-36769523D01*
X118412380Y-36830000D01*
X118472857Y-36890476D01*
X118533333Y-37011428D01*
X118533333Y-37132380D01*
X118472857Y-37253333D01*
X118412380Y-37313809D01*
X118291428Y-37374285D01*
X117868095Y-37374285D01*
X119682380Y-38039523D02*
X119682380Y-37374285D01*
X119621904Y-37253333D01*
X119500952Y-37192857D01*
X119259047Y-37192857D01*
X119138095Y-37253333D01*
X119682380Y-37979047D02*
X119561428Y-38039523D01*
X119259047Y-38039523D01*
X119138095Y-37979047D01*
X119077619Y-37858095D01*
X119077619Y-37737142D01*
X119138095Y-37616190D01*
X119259047Y-37555714D01*
X119561428Y-37555714D01*
X119682380Y-37495238D01*
X120831428Y-37979047D02*
X120710476Y-38039523D01*
X120468571Y-38039523D01*
X120347619Y-37979047D01*
X120287142Y-37918571D01*
X120226666Y-37797619D01*
X120226666Y-37434761D01*
X120287142Y-37313809D01*
X120347619Y-37253333D01*
X120468571Y-37192857D01*
X120710476Y-37192857D01*
X120831428Y-37253333D01*
X121375714Y-38039523D02*
X121375714Y-36769523D01*
X121496666Y-37555714D02*
X121859523Y-38039523D01*
X121859523Y-37192857D02*
X121375714Y-37676666D01*
X122282857Y-38523333D02*
X122343333Y-38462857D01*
X122464285Y-38281428D01*
X122524761Y-38160476D01*
X122585238Y-37979047D01*
X122645714Y-37676666D01*
X122645714Y-37434761D01*
X122585238Y-37132380D01*
X122524761Y-36950952D01*
X122464285Y-36830000D01*
X122343333Y-36648571D01*
X122282857Y-36588095D01*
X138823095Y-46808571D02*
X138762619Y-46869047D01*
X138581190Y-46929523D01*
X138460238Y-46929523D01*
X138278809Y-46869047D01*
X138157857Y-46748095D01*
X138097380Y-46627142D01*
X138036904Y-46385238D01*
X138036904Y-46203809D01*
X138097380Y-45961904D01*
X138157857Y-45840952D01*
X138278809Y-45720000D01*
X138460238Y-45659523D01*
X138581190Y-45659523D01*
X138762619Y-45720000D01*
X138823095Y-45780476D01*
D11*
X143725142Y-50132142D02*
X143939428Y-50203571D01*
X144296571Y-50203571D01*
X144439428Y-50132142D01*
X144510857Y-50060714D01*
X144582285Y-49917857D01*
X144582285Y-49775000D01*
X144510857Y-49632142D01*
X144439428Y-49560714D01*
X144296571Y-49489285D01*
X144010857Y-49417857D01*
X143868000Y-49346428D01*
X143796571Y-49275000D01*
X143725142Y-49132142D01*
X143725142Y-48989285D01*
X143796571Y-48846428D01*
X143868000Y-48775000D01*
X144010857Y-48703571D01*
X144368000Y-48703571D01*
X144582285Y-48775000D01*
X145868000Y-49203571D02*
X145868000Y-50203571D01*
X145225142Y-49203571D02*
X145225142Y-49989285D01*
X145296571Y-50132142D01*
X145439428Y-50203571D01*
X145653714Y-50203571D01*
X145796571Y-50132142D01*
X145868000Y-50060714D01*
X146582285Y-49203571D02*
X146582285Y-50703571D01*
X146582285Y-49275000D02*
X146725142Y-49203571D01*
X147010857Y-49203571D01*
X147153714Y-49275000D01*
X147225142Y-49346428D01*
X147296571Y-49489285D01*
X147296571Y-49917857D01*
X147225142Y-50060714D01*
X147153714Y-50132142D01*
X147010857Y-50203571D01*
X146725142Y-50203571D01*
X146582285Y-50132142D01*
X148510857Y-50132142D02*
X148368000Y-50203571D01*
X148082285Y-50203571D01*
X147939428Y-50132142D01*
X147868000Y-49989285D01*
X147868000Y-49417857D01*
X147939428Y-49275000D01*
X148082285Y-49203571D01*
X148368000Y-49203571D01*
X148510857Y-49275000D01*
X148582285Y-49417857D01*
X148582285Y-49560714D01*
X147868000Y-49703571D01*
X149225142Y-50203571D02*
X149225142Y-49203571D01*
X149225142Y-49489285D02*
X149296571Y-49346428D01*
X149368000Y-49275000D01*
X149510857Y-49203571D01*
X149653714Y-49203571D01*
X150153714Y-50203571D02*
X150153714Y-49203571D01*
X150153714Y-49346428D02*
X150225142Y-49275000D01*
X150368000Y-49203571D01*
X150582285Y-49203571D01*
X150725142Y-49275000D01*
X150796571Y-49417857D01*
X150796571Y-50203571D01*
X150796571Y-49417857D02*
X150868000Y-49275000D01*
X151010857Y-49203571D01*
X151225142Y-49203571D01*
X151368000Y-49275000D01*
X151439428Y-49417857D01*
X151439428Y-50203571D01*
X152153714Y-50203571D02*
X152153714Y-49203571D01*
X152153714Y-48703571D02*
X152082285Y-48775000D01*
X152153714Y-48846428D01*
X152225142Y-48775000D01*
X152153714Y-48703571D01*
X152153714Y-48846428D01*
X153082285Y-50203571D02*
X152939428Y-50132142D01*
X152868000Y-49989285D01*
X152868000Y-48703571D01*
X154296571Y-50203571D02*
X154296571Y-49417857D01*
X154225142Y-49275000D01*
X154082285Y-49203571D01*
X153796571Y-49203571D01*
X153653714Y-49275000D01*
X154296571Y-50132142D02*
X154153714Y-50203571D01*
X153796571Y-50203571D01*
X153653714Y-50132142D01*
X153582285Y-49989285D01*
X153582285Y-49846428D01*
X153653714Y-49703571D01*
X153796571Y-49632142D01*
X154153714Y-49632142D01*
X154296571Y-49560714D01*
X155653714Y-49203571D02*
X155653714Y-50417857D01*
X155582285Y-50560714D01*
X155510857Y-50632142D01*
X155368000Y-50703571D01*
X155153714Y-50703571D01*
X155010857Y-50632142D01*
X155653714Y-50132142D02*
X155510857Y-50203571D01*
X155225142Y-50203571D01*
X155082285Y-50132142D01*
X155010857Y-50060714D01*
X154939428Y-49917857D01*
X154939428Y-49489285D01*
X155010857Y-49346428D01*
X155082285Y-49275000D01*
X155225142Y-49203571D01*
X155510857Y-49203571D01*
X155653714Y-49275000D01*
X156939428Y-50132142D02*
X156796571Y-50203571D01*
X156510857Y-50203571D01*
X156368000Y-50132142D01*
X156296571Y-49989285D01*
X156296571Y-49417857D01*
X156368000Y-49275000D01*
X156510857Y-49203571D01*
X156796571Y-49203571D01*
X156939428Y-49275000D01*
X157010857Y-49417857D01*
X157010857Y-49560714D01*
X156296571Y-49703571D01*
X148403714Y-52682142D02*
X148618000Y-52753571D01*
X148975142Y-52753571D01*
X149118000Y-52682142D01*
X149189428Y-52610714D01*
X149260857Y-52467857D01*
X149260857Y-52325000D01*
X149189428Y-52182142D01*
X149118000Y-52110714D01*
X148975142Y-52039285D01*
X148689428Y-51967857D01*
X148546571Y-51896428D01*
X148475142Y-51825000D01*
X148403714Y-51682142D01*
X148403714Y-51539285D01*
X148475142Y-51396428D01*
X148546571Y-51325000D01*
X148689428Y-51253571D01*
X149046571Y-51253571D01*
X149260857Y-51325000D01*
X149903714Y-51967857D02*
X150403714Y-51967857D01*
X150618000Y-52753571D02*
X149903714Y-52753571D01*
X149903714Y-51253571D01*
X150618000Y-51253571D01*
X151260857Y-52753571D02*
X151260857Y-51253571D01*
X151760857Y-52325000D01*
X152260857Y-51253571D01*
X152260857Y-52753571D01*
D12*
X188519052Y-66649706D02*
X188519052Y-65849708D01*
X188823813Y-65849708D01*
X188900004Y-65887804D01*
X188938099Y-65925899D01*
X188976194Y-66002089D01*
X188976194Y-66116374D01*
X188938099Y-66192565D01*
X188900004Y-66230660D01*
X188823813Y-66268755D01*
X188519052Y-66268755D01*
X189242860Y-65849708D02*
X189433336Y-66649706D01*
X189585716Y-66078279D01*
X189738097Y-66649706D01*
X189928572Y-65849708D01*
X190690475Y-66649706D02*
X190423809Y-66268755D01*
X190233334Y-66649706D02*
X190233334Y-65849708D01*
X190538095Y-65849708D01*
X190614285Y-65887804D01*
X190652380Y-65925899D01*
X190690475Y-66002089D01*
X190690475Y-66116374D01*
X190652380Y-66192565D01*
X190614285Y-66230660D01*
X190538095Y-66268755D01*
X190233334Y-66268755D01*
X190842856Y-66725897D02*
X191452378Y-66725897D01*
X191642854Y-66649706D02*
X191642854Y-65849708D01*
X192023805Y-66649706D02*
X192023805Y-65849708D01*
X192480947Y-66649706D01*
X192480947Y-65849708D01*
X189014289Y-67925903D02*
X188557147Y-67925903D01*
X188785718Y-67925903D02*
X188785718Y-67125905D01*
X188709528Y-67240191D01*
X188633338Y-67316381D01*
X188557147Y-67354476D01*
X189357145Y-67621142D02*
X189966668Y-67621142D01*
X190766666Y-67164001D02*
X190690475Y-67125905D01*
X190576190Y-67125905D01*
X190461904Y-67164001D01*
X190385714Y-67240191D01*
X190347619Y-67316381D01*
X190309524Y-67468762D01*
X190309524Y-67583047D01*
X190347619Y-67735428D01*
X190385714Y-67811618D01*
X190461904Y-67887808D01*
X190576190Y-67925903D01*
X190652380Y-67925903D01*
X190766666Y-67887808D01*
X190804761Y-67849713D01*
X190804761Y-67583047D01*
X190652380Y-67583047D01*
X191147617Y-67925903D02*
X191147617Y-67125905D01*
X191604759Y-67925903D01*
X191604759Y-67125905D01*
X191985710Y-67925903D02*
X191985710Y-67125905D01*
X192176186Y-67125905D01*
X192290471Y-67164001D01*
X192366662Y-67240191D01*
X192404757Y-67316381D01*
X192442852Y-67468762D01*
X192442852Y-67583047D01*
X192404757Y-67735428D01*
X192366662Y-67811618D01*
X192290471Y-67887808D01*
X192176186Y-67925903D01*
X191985710Y-67925903D01*
X188214291Y-68478293D02*
X188252386Y-68440198D01*
X188328576Y-68402102D01*
X188519052Y-68402102D01*
X188595242Y-68440198D01*
X188633338Y-68478293D01*
X188671433Y-68554483D01*
X188671433Y-68630673D01*
X188633338Y-68744959D01*
X188176196Y-69202100D01*
X188671433Y-69202100D01*
X189014289Y-68897339D02*
X189623811Y-68897339D01*
X190004763Y-68897339D02*
X190614285Y-68897339D01*
X190309524Y-69202100D02*
X190309524Y-68592578D01*
X191414283Y-69202100D02*
X190957141Y-69202100D01*
X191185712Y-69202100D02*
X191185712Y-68402102D01*
X191109522Y-68516388D01*
X191033332Y-68592578D01*
X190957141Y-68630673D01*
X191719044Y-68478293D02*
X191757139Y-68440198D01*
X191833330Y-68402102D01*
X192023805Y-68402102D01*
X192099996Y-68440198D01*
X192138091Y-68478293D01*
X192176186Y-68554483D01*
X192176186Y-68630673D01*
X192138091Y-68744959D01*
X191680949Y-69202100D01*
X192176186Y-69202100D01*
X192442852Y-68668768D02*
X192633328Y-69202100D01*
X192823803Y-68668768D01*
D13*
X103632000Y-22987000D02*
X195072000Y-22987000D01*
X103632000Y-80010000D02*
X195072000Y-80010000D01*
D11*
X143395285Y-56151714D02*
X143323857Y-56223142D01*
X143109571Y-56294571D01*
X142966714Y-56294571D01*
X142752428Y-56223142D01*
X142609571Y-56080285D01*
X142538142Y-55937428D01*
X142466714Y-55651714D01*
X142466714Y-55437428D01*
X142538142Y-55151714D01*
X142609571Y-55008857D01*
X142752428Y-54866000D01*
X142966714Y-54794571D01*
X143109571Y-54794571D01*
X143323857Y-54866000D01*
X143395285Y-54937428D01*
X144609571Y-56223142D02*
X144466714Y-56294571D01*
X144181000Y-56294571D01*
X144038142Y-56223142D01*
X143966714Y-56080285D01*
X143966714Y-55508857D01*
X144038142Y-55366000D01*
X144181000Y-55294571D01*
X144466714Y-55294571D01*
X144609571Y-55366000D01*
X144681000Y-55508857D01*
X144681000Y-55651714D01*
X143966714Y-55794571D01*
X145966714Y-56294571D02*
X145966714Y-54794571D01*
X145966714Y-56223142D02*
X145823857Y-56294571D01*
X145538142Y-56294571D01*
X145395285Y-56223142D01*
X145323857Y-56151714D01*
X145252428Y-56008857D01*
X145252428Y-55580285D01*
X145323857Y-55437428D01*
X145395285Y-55366000D01*
X145538142Y-55294571D01*
X145823857Y-55294571D01*
X145966714Y-55366000D01*
X147323857Y-56294571D02*
X147323857Y-55508857D01*
X147252428Y-55366000D01*
X147109571Y-55294571D01*
X146823857Y-55294571D01*
X146681000Y-55366000D01*
X147323857Y-56223142D02*
X147181000Y-56294571D01*
X146823857Y-56294571D01*
X146681000Y-56223142D01*
X146609571Y-56080285D01*
X146609571Y-55937428D01*
X146681000Y-55794571D01*
X146823857Y-55723142D01*
X147181000Y-55723142D01*
X147323857Y-55651714D01*
X148038142Y-56294571D02*
X148038142Y-55294571D01*
X148038142Y-55580285D02*
X148109571Y-55437428D01*
X148181000Y-55366000D01*
X148323857Y-55294571D01*
X148466714Y-55294571D01*
X148823857Y-55294571D02*
X149181000Y-56294571D01*
X149538142Y-55294571D01*
X150109571Y-56294571D02*
X150109571Y-55294571D01*
X150109571Y-54794571D02*
X150038142Y-54866000D01*
X150109571Y-54937428D01*
X150181000Y-54866000D01*
X150109571Y-54794571D01*
X150109571Y-54937428D01*
X151038142Y-56294571D02*
X150895285Y-56223142D01*
X150823857Y-56080285D01*
X150823857Y-54794571D01*
X151823857Y-56294571D02*
X151681000Y-56223142D01*
X151609571Y-56080285D01*
X151609571Y-54794571D01*
X152966714Y-56223142D02*
X152823857Y-56294571D01*
X152538142Y-56294571D01*
X152395285Y-56223142D01*
X152323857Y-56080285D01*
X152323857Y-55508857D01*
X152395285Y-55366000D01*
X152538142Y-55294571D01*
X152823857Y-55294571D01*
X152966714Y-55366000D01*
X153038142Y-55508857D01*
X153038142Y-55651714D01*
X152323857Y-55794571D01*
X154823857Y-54794571D02*
X154823857Y-56008857D01*
X154895285Y-56151714D01*
X154966714Y-56223142D01*
X155109571Y-56294571D01*
X155395285Y-56294571D01*
X155538142Y-56223142D01*
X155609571Y-56151714D01*
X155681000Y-56008857D01*
X155681000Y-54794571D01*
X156395285Y-55294571D02*
X156395285Y-56294571D01*
X156395285Y-55437428D02*
X156466714Y-55366000D01*
X156609571Y-55294571D01*
X156823857Y-55294571D01*
X156966714Y-55366000D01*
X157038142Y-55508857D01*
X157038142Y-56294571D01*
X157752428Y-56294571D02*
X157752428Y-55294571D01*
X157752428Y-54794571D02*
X157681000Y-54866000D01*
X157752428Y-54937428D01*
X157823857Y-54866000D01*
X157752428Y-54794571D01*
X157752428Y-54937428D01*
X158323857Y-55294571D02*
X158681000Y-56294571D01*
X159038142Y-55294571D01*
X160181000Y-56223142D02*
X160038142Y-56294571D01*
X159752428Y-56294571D01*
X159609571Y-56223142D01*
X159538142Y-56080285D01*
X159538142Y-55508857D01*
X159609571Y-55366000D01*
X159752428Y-55294571D01*
X160038142Y-55294571D01*
X160181000Y-55366000D01*
X160252428Y-55508857D01*
X160252428Y-55651714D01*
X159538142Y-55794571D01*
X160895285Y-56294571D02*
X160895285Y-55294571D01*
X160895285Y-55580285D02*
X160966714Y-55437428D01*
X161038142Y-55366000D01*
X161181000Y-55294571D01*
X161323857Y-55294571D01*
X161752428Y-56223142D02*
X161895285Y-56294571D01*
X162181000Y-56294571D01*
X162323857Y-56223142D01*
X162395285Y-56080285D01*
X162395285Y-56008857D01*
X162323857Y-55866000D01*
X162181000Y-55794571D01*
X161966714Y-55794571D01*
X161823857Y-55723142D01*
X161752428Y-55580285D01*
X161752428Y-55508857D01*
X161823857Y-55366000D01*
X161966714Y-55294571D01*
X162181000Y-55294571D01*
X162323857Y-55366000D01*
X163038142Y-56294571D02*
X163038142Y-55294571D01*
X163038142Y-54794571D02*
X162966714Y-54866000D01*
X163038142Y-54937428D01*
X163109571Y-54866000D01*
X163038142Y-54794571D01*
X163038142Y-54937428D01*
X163538142Y-55294571D02*
X164109571Y-55294571D01*
X163752428Y-54794571D02*
X163752428Y-56080285D01*
X163823857Y-56223142D01*
X163966714Y-56294571D01*
X164109571Y-56294571D01*
X164466714Y-55294571D02*
X164823857Y-56294571D01*
X165181000Y-55294571D02*
X164823857Y-56294571D01*
X164681000Y-56651714D01*
X164609571Y-56723142D01*
X164466714Y-56794571D01*
X142466714Y-58773142D02*
X142681000Y-58844571D01*
X143038142Y-58844571D01*
X143181000Y-58773142D01*
X143252428Y-58701714D01*
X143323857Y-58558857D01*
X143323857Y-58416000D01*
X143252428Y-58273142D01*
X143181000Y-58201714D01*
X143038142Y-58130285D01*
X142752428Y-58058857D01*
X142609571Y-57987428D01*
X142538142Y-57916000D01*
X142466714Y-57773142D01*
X142466714Y-57630285D01*
X142538142Y-57487428D01*
X142609571Y-57416000D01*
X142752428Y-57344571D01*
X143109571Y-57344571D01*
X143323857Y-57416000D01*
X143966714Y-57844571D02*
X143966714Y-59344571D01*
X143966714Y-57916000D02*
X144109571Y-57844571D01*
X144395285Y-57844571D01*
X144538142Y-57916000D01*
X144609571Y-57987428D01*
X144681000Y-58130285D01*
X144681000Y-58558857D01*
X144609571Y-58701714D01*
X144538142Y-58773142D01*
X144395285Y-58844571D01*
X144109571Y-58844571D01*
X143966714Y-58773142D01*
X145323857Y-58844571D02*
X145323857Y-57844571D01*
X145323857Y-58130285D02*
X145395285Y-57987428D01*
X145466714Y-57916000D01*
X145609571Y-57844571D01*
X145752428Y-57844571D01*
X146252428Y-58844571D02*
X146252428Y-57844571D01*
X146252428Y-57344571D02*
X146181000Y-57416000D01*
X146252428Y-57487428D01*
X146323857Y-57416000D01*
X146252428Y-57344571D01*
X146252428Y-57487428D01*
X146966714Y-57844571D02*
X146966714Y-58844571D01*
X146966714Y-57987428D02*
X147038142Y-57916000D01*
X147181000Y-57844571D01*
X147395285Y-57844571D01*
X147538142Y-57916000D01*
X147609571Y-58058857D01*
X147609571Y-58844571D01*
X148966714Y-57844571D02*
X148966714Y-59058857D01*
X148895285Y-59201714D01*
X148823857Y-59273142D01*
X148681000Y-59344571D01*
X148466714Y-59344571D01*
X148323857Y-59273142D01*
X148966714Y-58773142D02*
X148823857Y-58844571D01*
X148538142Y-58844571D01*
X148395285Y-58773142D01*
X148323857Y-58701714D01*
X148252428Y-58558857D01*
X148252428Y-58130285D01*
X148323857Y-57987428D01*
X148395285Y-57916000D01*
X148538142Y-57844571D01*
X148823857Y-57844571D01*
X148966714Y-57916000D01*
X150752428Y-57487428D02*
X150823857Y-57416000D01*
X150966714Y-57344571D01*
X151323857Y-57344571D01*
X151466714Y-57416000D01*
X151538142Y-57487428D01*
X151609571Y-57630285D01*
X151609571Y-57773142D01*
X151538142Y-57987428D01*
X150681000Y-58844571D01*
X151609571Y-58844571D01*
X152538142Y-57344571D02*
X152681000Y-57344571D01*
X152823857Y-57416000D01*
X152895285Y-57487428D01*
X152966714Y-57630285D01*
X153038142Y-57916000D01*
X153038142Y-58273142D01*
X152966714Y-58558857D01*
X152895285Y-58701714D01*
X152823857Y-58773142D01*
X152681000Y-58844571D01*
X152538142Y-58844571D01*
X152395285Y-58773142D01*
X152323857Y-58701714D01*
X152252428Y-58558857D01*
X152181000Y-58273142D01*
X152181000Y-57916000D01*
X152252428Y-57630285D01*
X152323857Y-57487428D01*
X152395285Y-57416000D01*
X152538142Y-57344571D01*
X154466714Y-58844571D02*
X153609571Y-58844571D01*
X154038142Y-58844571D02*
X154038142Y-57344571D01*
X153895285Y-57558857D01*
X153752428Y-57701714D01*
X153609571Y-57773142D01*
X155323857Y-57987428D02*
X155181000Y-57916000D01*
X155109571Y-57844571D01*
X155038142Y-57701714D01*
X155038142Y-57630285D01*
X155109571Y-57487428D01*
X155181000Y-57416000D01*
X155323857Y-57344571D01*
X155609571Y-57344571D01*
X155752428Y-57416000D01*
X155823857Y-57487428D01*
X155895285Y-57630285D01*
X155895285Y-57701714D01*
X155823857Y-57844571D01*
X155752428Y-57916000D01*
X155609571Y-57987428D01*
X155323857Y-57987428D01*
X155181000Y-58058857D01*
X155109571Y-58130285D01*
X155038142Y-58273142D01*
X155038142Y-58558857D01*
X155109571Y-58701714D01*
X155181000Y-58773142D01*
X155323857Y-58844571D01*
X155609571Y-58844571D01*
X155752428Y-58773142D01*
X155823857Y-58701714D01*
X155895285Y-58558857D01*
X155895285Y-58273142D01*
X155823857Y-58130285D01*
X155752428Y-58058857D01*
X155609571Y-57987428D01*
X142538142Y-61394571D02*
X142538142Y-60394571D01*
X142538142Y-60680285D02*
X142609571Y-60537428D01*
X142681000Y-60466000D01*
X142823857Y-60394571D01*
X142966714Y-60394571D01*
X144038142Y-61323142D02*
X143895285Y-61394571D01*
X143609571Y-61394571D01*
X143466714Y-61323142D01*
X143395285Y-61180285D01*
X143395285Y-60608857D01*
X143466714Y-60466000D01*
X143609571Y-60394571D01*
X143895285Y-60394571D01*
X144038142Y-60466000D01*
X144109571Y-60608857D01*
X144109571Y-60751714D01*
X143395285Y-60894571D01*
X144609571Y-60394571D02*
X144966714Y-61394571D01*
X145323857Y-60394571D01*
X147823857Y-61394571D02*
X146966714Y-61394571D01*
X147395285Y-61394571D02*
X147395285Y-59894571D01*
X147252428Y-60108857D01*
X147109571Y-60251714D01*
X146966714Y-60323142D01*
X148466714Y-61251714D02*
X148538142Y-61323142D01*
X148466714Y-61394571D01*
X148395285Y-61323142D01*
X148466714Y-61251714D01*
X148466714Y-61394571D01*
X149466714Y-59894571D02*
X149609571Y-59894571D01*
X149752428Y-59966000D01*
X149823857Y-60037428D01*
X149895285Y-60180285D01*
X149966714Y-60466000D01*
X149966714Y-60823142D01*
X149895285Y-61108857D01*
X149823857Y-61251714D01*
X149752428Y-61323142D01*
X149609571Y-61394571D01*
X149466714Y-61394571D01*
X149323857Y-61323142D01*
X149252428Y-61251714D01*
X149181000Y-61108857D01*
X149109571Y-60823142D01*
X149109571Y-60466000D01*
X149181000Y-60180285D01*
X149252428Y-60037428D01*
X149323857Y-59966000D01*
X149466714Y-59894571D01*
D14*
X148241238Y-44560380D02*
X148241238Y-43560380D01*
X148812666Y-44560380D02*
X148384095Y-43988952D01*
X148812666Y-43560380D02*
X148241238Y-44131809D01*
X149669809Y-44560380D02*
X149669809Y-44036571D01*
X149622190Y-43941333D01*
X149526952Y-43893714D01*
X149336476Y-43893714D01*
X149241238Y-43941333D01*
X149669809Y-44512761D02*
X149574571Y-44560380D01*
X149336476Y-44560380D01*
X149241238Y-44512761D01*
X149193619Y-44417523D01*
X149193619Y-44322285D01*
X149241238Y-44227047D01*
X149336476Y-44179428D01*
X149574571Y-44179428D01*
X149669809Y-44131809D01*
X150146000Y-44560380D02*
X150146000Y-43893714D01*
X150146000Y-44084190D02*
X150193619Y-43988952D01*
X150241238Y-43941333D01*
X150336476Y-43893714D01*
X150431714Y-43893714D01*
X150765047Y-44560380D02*
X150765047Y-43560380D01*
X150860285Y-44179428D02*
X151146000Y-44560380D01*
X151146000Y-43893714D02*
X150765047Y-44274666D01*
X152336476Y-44560380D02*
X152336476Y-43560380D01*
X152669809Y-44274666D01*
X153003142Y-43560380D01*
X153003142Y-44560380D01*
X153907904Y-44560380D02*
X153907904Y-44036571D01*
X153860285Y-43941333D01*
X153765047Y-43893714D01*
X153574571Y-43893714D01*
X153479333Y-43941333D01*
X153907904Y-44512761D02*
X153812666Y-44560380D01*
X153574571Y-44560380D01*
X153479333Y-44512761D01*
X153431714Y-44417523D01*
X153431714Y-44322285D01*
X153479333Y-44227047D01*
X153574571Y-44179428D01*
X153812666Y-44179428D01*
X153907904Y-44131809D01*
X154384095Y-44560380D02*
X154384095Y-43893714D01*
X154384095Y-43560380D02*
X154336476Y-43608000D01*
X154384095Y-43655619D01*
X154431714Y-43608000D01*
X154384095Y-43560380D01*
X154384095Y-43655619D01*
X154860285Y-43893714D02*
X154860285Y-44560380D01*
X154860285Y-43988952D02*
X154907904Y-43941333D01*
X155003142Y-43893714D01*
X155146000Y-43893714D01*
X155241238Y-43941333D01*
X155288857Y-44036571D01*
X155288857Y-44560380D01*
X147622190Y-46260380D02*
X147622190Y-45260380D01*
X148003142Y-45260380D01*
X148098380Y-45308000D01*
X148146000Y-45355619D01*
X148193619Y-45450857D01*
X148193619Y-45593714D01*
X148146000Y-45688952D01*
X148098380Y-45736571D01*
X148003142Y-45784190D01*
X147622190Y-45784190D01*
X148765047Y-46260380D02*
X148669809Y-46212761D01*
X148622190Y-46165142D01*
X148574571Y-46069904D01*
X148574571Y-45784190D01*
X148622190Y-45688952D01*
X148669809Y-45641333D01*
X148765047Y-45593714D01*
X148907904Y-45593714D01*
X149003142Y-45641333D01*
X149050761Y-45688952D01*
X149098380Y-45784190D01*
X149098380Y-46069904D01*
X149050761Y-46165142D01*
X149003142Y-46212761D01*
X148907904Y-46260380D01*
X148765047Y-46260380D01*
X149431714Y-45593714D02*
X149622190Y-46260380D01*
X149812666Y-45784190D01*
X150003142Y-46260380D01*
X150193619Y-45593714D01*
X150955523Y-46212761D02*
X150860285Y-46260380D01*
X150669809Y-46260380D01*
X150574571Y-46212761D01*
X150526952Y-46117523D01*
X150526952Y-45736571D01*
X150574571Y-45641333D01*
X150669809Y-45593714D01*
X150860285Y-45593714D01*
X150955523Y-45641333D01*
X151003142Y-45736571D01*
X151003142Y-45831809D01*
X150526952Y-45927047D01*
X151431714Y-46260380D02*
X151431714Y-45593714D01*
X151431714Y-45784190D02*
X151479333Y-45688952D01*
X151526952Y-45641333D01*
X151622190Y-45593714D01*
X151717428Y-45593714D01*
X153146000Y-45736571D02*
X153288857Y-45784190D01*
X153336476Y-45831809D01*
X153384095Y-45927047D01*
X153384095Y-46069904D01*
X153336476Y-46165142D01*
X153288857Y-46212761D01*
X153193619Y-46260380D01*
X152812666Y-46260380D01*
X152812666Y-45260380D01*
X153146000Y-45260380D01*
X153241238Y-45308000D01*
X153288857Y-45355619D01*
X153336476Y-45450857D01*
X153336476Y-45546095D01*
X153288857Y-45641333D01*
X153241238Y-45688952D01*
X153146000Y-45736571D01*
X152812666Y-45736571D01*
X153955523Y-46260380D02*
X153860285Y-46212761D01*
X153812666Y-46165142D01*
X153765047Y-46069904D01*
X153765047Y-45784190D01*
X153812666Y-45688952D01*
X153860285Y-45641333D01*
X153955523Y-45593714D01*
X154098380Y-45593714D01*
X154193619Y-45641333D01*
X154241238Y-45688952D01*
X154288857Y-45784190D01*
X154288857Y-46069904D01*
X154241238Y-46165142D01*
X154193619Y-46212761D01*
X154098380Y-46260380D01*
X153955523Y-46260380D01*
X155146000Y-46260380D02*
X155146000Y-45736571D01*
X155098380Y-45641333D01*
X155003142Y-45593714D01*
X154812666Y-45593714D01*
X154717428Y-45641333D01*
X155146000Y-46212761D02*
X155050761Y-46260380D01*
X154812666Y-46260380D01*
X154717428Y-46212761D01*
X154669809Y-46117523D01*
X154669809Y-46022285D01*
X154717428Y-45927047D01*
X154812666Y-45879428D01*
X155050761Y-45879428D01*
X155146000Y-45831809D01*
X155622190Y-46260380D02*
X155622190Y-45593714D01*
X155622190Y-45784190D02*
X155669809Y-45688952D01*
X155717428Y-45641333D01*
X155812666Y-45593714D01*
X155907904Y-45593714D01*
X156669809Y-46260380D02*
X156669809Y-45260380D01*
X156669809Y-46212761D02*
X156574571Y-46260380D01*
X156384095Y-46260380D01*
X156288857Y-46212761D01*
X156241238Y-46165142D01*
X156193619Y-46069904D01*
X156193619Y-45784190D01*
X156241238Y-45688952D01*
X156288857Y-45641333D01*
X156384095Y-45593714D01*
X156574571Y-45593714D01*
X156669809Y-45641333D01*
D11*
X124786971Y-36898971D02*
X123929828Y-36898971D01*
X124358400Y-36898971D02*
X124358400Y-35398971D01*
X124215542Y-35613257D01*
X124072685Y-35756114D01*
X123929828Y-35827542D01*
X139271428Y-35745028D02*
X139342857Y-35673600D01*
X139485714Y-35602171D01*
X139842857Y-35602171D01*
X139985714Y-35673600D01*
X140057142Y-35745028D01*
X140128571Y-35887885D01*
X140128571Y-36030742D01*
X140057142Y-36245028D01*
X139200000Y-37102171D01*
X140128571Y-37102171D01*
D15*
X105805119Y-41533214D02*
X105767023Y-41571309D01*
X105652738Y-41609404D01*
X105576547Y-41609404D01*
X105462261Y-41571309D01*
X105386071Y-41495119D01*
X105347976Y-41418928D01*
X105309880Y-41266547D01*
X105309880Y-41152261D01*
X105347976Y-40999880D01*
X105386071Y-40923690D01*
X105462261Y-40847500D01*
X105576547Y-40809404D01*
X105652738Y-40809404D01*
X105767023Y-40847500D01*
X105805119Y-40885595D01*
X106490833Y-41609404D02*
X106490833Y-41190357D01*
X106452738Y-41114166D01*
X106376547Y-41076071D01*
X106224166Y-41076071D01*
X106147976Y-41114166D01*
X106490833Y-41571309D02*
X106414642Y-41609404D01*
X106224166Y-41609404D01*
X106147976Y-41571309D01*
X106109880Y-41495119D01*
X106109880Y-41418928D01*
X106147976Y-41342738D01*
X106224166Y-41304642D01*
X106414642Y-41304642D01*
X106490833Y-41266547D01*
X106871785Y-41076071D02*
X106871785Y-41609404D01*
X106871785Y-41152261D02*
X106909880Y-41114166D01*
X106986071Y-41076071D01*
X107100357Y-41076071D01*
X107176547Y-41114166D01*
X107214642Y-41190357D01*
X107214642Y-41609404D01*
X105767023Y-42909404D02*
X105309880Y-42909404D01*
X105538452Y-42909404D02*
X105538452Y-42109404D01*
X105462261Y-42223690D01*
X105386071Y-42299880D01*
X105309880Y-42337976D01*
X106109880Y-42604642D02*
X106719404Y-42604642D01*
X107519404Y-42147500D02*
X107443214Y-42109404D01*
X107328928Y-42109404D01*
X107214642Y-42147500D01*
X107138452Y-42223690D01*
X107100357Y-42299880D01*
X107062261Y-42452261D01*
X107062261Y-42566547D01*
X107100357Y-42718928D01*
X107138452Y-42795119D01*
X107214642Y-42871309D01*
X107328928Y-42909404D01*
X107405119Y-42909404D01*
X107519404Y-42871309D01*
X107557500Y-42833214D01*
X107557500Y-42566547D01*
X107405119Y-42566547D01*
X107900357Y-42909404D02*
X107900357Y-42109404D01*
X108357500Y-42909404D01*
X108357500Y-42109404D01*
X108738452Y-42909404D02*
X108738452Y-42109404D01*
X108928928Y-42109404D01*
X109043214Y-42147500D01*
X109119404Y-42223690D01*
X109157500Y-42299880D01*
X109195595Y-42452261D01*
X109195595Y-42566547D01*
X109157500Y-42718928D01*
X109119404Y-42795119D01*
X109043214Y-42871309D01*
X108928928Y-42909404D01*
X108738452Y-42909404D01*
X105309880Y-43485595D02*
X105347976Y-43447500D01*
X105424166Y-43409404D01*
X105614642Y-43409404D01*
X105690833Y-43447500D01*
X105728928Y-43485595D01*
X105767023Y-43561785D01*
X105767023Y-43637976D01*
X105728928Y-43752261D01*
X105271785Y-44209404D01*
X105767023Y-44209404D01*
X106109880Y-43904642D02*
X106719404Y-43904642D01*
X107557500Y-44133214D02*
X107519404Y-44171309D01*
X107405119Y-44209404D01*
X107328928Y-44209404D01*
X107214642Y-44171309D01*
X107138452Y-44095119D01*
X107100357Y-44018928D01*
X107062261Y-43866547D01*
X107062261Y-43752261D01*
X107100357Y-43599880D01*
X107138452Y-43523690D01*
X107214642Y-43447500D01*
X107328928Y-43409404D01*
X107405119Y-43409404D01*
X107519404Y-43447500D01*
X107557500Y-43485595D01*
X108243214Y-44209404D02*
X108243214Y-43790357D01*
X108205119Y-43714166D01*
X108128928Y-43676071D01*
X107976547Y-43676071D01*
X107900357Y-43714166D01*
X108243214Y-44171309D02*
X108167023Y-44209404D01*
X107976547Y-44209404D01*
X107900357Y-44171309D01*
X107862261Y-44095119D01*
X107862261Y-44018928D01*
X107900357Y-43942738D01*
X107976547Y-43904642D01*
X108167023Y-43904642D01*
X108243214Y-43866547D01*
X108624166Y-43676071D02*
X108624166Y-44209404D01*
X108624166Y-43752261D02*
X108662261Y-43714166D01*
X108738452Y-43676071D01*
X108852738Y-43676071D01*
X108928928Y-43714166D01*
X108967023Y-43790357D01*
X108967023Y-44209404D01*
X109728928Y-44209404D02*
X109347976Y-44209404D01*
X109347976Y-43409404D01*
X110109880Y-44209404D02*
X110033690Y-44171309D01*
X109995595Y-44133214D01*
X109957500Y-44057023D01*
X109957500Y-43828452D01*
X109995595Y-43752261D01*
X110033690Y-43714166D01*
X110109880Y-43676071D01*
X110224166Y-43676071D01*
X110300357Y-43714166D01*
X110338452Y-43752261D01*
X110376547Y-43828452D01*
X110376547Y-44057023D01*
X110338452Y-44133214D01*
X110300357Y-44171309D01*
X110224166Y-44209404D01*
X110109880Y-44209404D01*
X105271785Y-44709404D02*
X105767023Y-44709404D01*
X105500357Y-45014166D01*
X105614642Y-45014166D01*
X105690833Y-45052261D01*
X105728928Y-45090357D01*
X105767023Y-45166547D01*
X105767023Y-45357023D01*
X105728928Y-45433214D01*
X105690833Y-45471309D01*
X105614642Y-45509404D01*
X105386071Y-45509404D01*
X105309880Y-45471309D01*
X105271785Y-45433214D01*
X106109880Y-45204642D02*
X106719404Y-45204642D01*
X107557500Y-45433214D02*
X107519404Y-45471309D01*
X107405119Y-45509404D01*
X107328928Y-45509404D01*
X107214642Y-45471309D01*
X107138452Y-45395119D01*
X107100357Y-45318928D01*
X107062261Y-45166547D01*
X107062261Y-45052261D01*
X107100357Y-44899880D01*
X107138452Y-44823690D01*
X107214642Y-44747500D01*
X107328928Y-44709404D01*
X107405119Y-44709404D01*
X107519404Y-44747500D01*
X107557500Y-44785595D01*
X108243214Y-45509404D02*
X108243214Y-45090357D01*
X108205119Y-45014166D01*
X108128928Y-44976071D01*
X107976547Y-44976071D01*
X107900357Y-45014166D01*
X108243214Y-45471309D02*
X108167023Y-45509404D01*
X107976547Y-45509404D01*
X107900357Y-45471309D01*
X107862261Y-45395119D01*
X107862261Y-45318928D01*
X107900357Y-45242738D01*
X107976547Y-45204642D01*
X108167023Y-45204642D01*
X108243214Y-45166547D01*
X108624166Y-44976071D02*
X108624166Y-45509404D01*
X108624166Y-45052261D02*
X108662261Y-45014166D01*
X108738452Y-44976071D01*
X108852738Y-44976071D01*
X108928928Y-45014166D01*
X108967023Y-45090357D01*
X108967023Y-45509404D01*
X109347976Y-45509404D02*
X109347976Y-44709404D01*
X109347976Y-45090357D02*
X109805119Y-45090357D01*
X109805119Y-45509404D02*
X109805119Y-44709404D01*
X110186071Y-45509404D02*
X110186071Y-44976071D01*
X110186071Y-44709404D02*
X110147976Y-44747500D01*
X110186071Y-44785595D01*
X110224166Y-44747500D01*
X110186071Y-44709404D01*
X110186071Y-44785595D01*
X105690833Y-46276071D02*
X105690833Y-46809404D01*
X105500357Y-45971309D02*
X105309880Y-46542738D01*
X105805119Y-46542738D01*
X106109880Y-46504642D02*
X106719404Y-46504642D01*
X107100357Y-46809404D02*
X107100357Y-46009404D01*
X107405119Y-46009404D01*
X107481309Y-46047500D01*
X107519404Y-46085595D01*
X107557500Y-46161785D01*
X107557500Y-46276071D01*
X107519404Y-46352261D01*
X107481309Y-46390357D01*
X107405119Y-46428452D01*
X107100357Y-46428452D01*
X107824166Y-46009404D02*
X108014642Y-46809404D01*
X108167023Y-46237976D01*
X108319404Y-46809404D01*
X108509880Y-46009404D01*
X109271785Y-46809404D02*
X109005119Y-46428452D01*
X108814642Y-46809404D02*
X108814642Y-46009404D01*
X109119404Y-46009404D01*
X109195595Y-46047500D01*
X109233690Y-46085595D01*
X109271785Y-46161785D01*
X109271785Y-46276071D01*
X109233690Y-46352261D01*
X109195595Y-46390357D01*
X109119404Y-46428452D01*
X108814642Y-46428452D01*
X105347976Y-48990357D02*
X105614642Y-48990357D01*
X105728928Y-49409404D02*
X105347976Y-49409404D01*
X105347976Y-48609404D01*
X105728928Y-48609404D01*
X106338452Y-48990357D02*
X106071785Y-48990357D01*
X106071785Y-49409404D02*
X106071785Y-48609404D01*
X106452738Y-48609404D01*
X106757500Y-49409404D02*
X106757500Y-48609404D01*
X106947976Y-49485595D02*
X107557500Y-49485595D01*
X107747976Y-49409404D02*
X107747976Y-48609404D01*
X108052738Y-48609404D01*
X108128928Y-48647500D01*
X108167023Y-48685595D01*
X108205119Y-48761785D01*
X108205119Y-48876071D01*
X108167023Y-48952261D01*
X108128928Y-48990357D01*
X108052738Y-49028452D01*
X107747976Y-49028452D01*
X108471785Y-48609404D02*
X108662261Y-49409404D01*
X108814642Y-48837976D01*
X108967023Y-49409404D01*
X109157500Y-48609404D01*
X109919404Y-49409404D02*
X109652738Y-49028452D01*
X109462261Y-49409404D02*
X109462261Y-48609404D01*
X109767023Y-48609404D01*
X109843214Y-48647500D01*
X109881309Y-48685595D01*
X109919404Y-48761785D01*
X109919404Y-48876071D01*
X109881309Y-48952261D01*
X109843214Y-48990357D01*
X109767023Y-49028452D01*
X109462261Y-49028452D01*
X105767023Y-50709404D02*
X105309880Y-50709404D01*
X105538452Y-50709404D02*
X105538452Y-49909404D01*
X105462261Y-50023690D01*
X105386071Y-50099880D01*
X105309880Y-50137976D01*
X106109880Y-50404642D02*
X106719404Y-50404642D01*
X107100357Y-50709404D02*
X107100357Y-49909404D01*
X107405119Y-49909404D01*
X107481309Y-49947500D01*
X107519404Y-49985595D01*
X107557500Y-50061785D01*
X107557500Y-50176071D01*
X107519404Y-50252261D01*
X107481309Y-50290357D01*
X107405119Y-50328452D01*
X107100357Y-50328452D01*
X107824166Y-49909404D02*
X108014642Y-50709404D01*
X108167023Y-50137976D01*
X108319404Y-50709404D01*
X108509880Y-49909404D01*
X109271785Y-50709404D02*
X109005119Y-50328452D01*
X108814642Y-50709404D02*
X108814642Y-49909404D01*
X109119404Y-49909404D01*
X109195595Y-49947500D01*
X109233690Y-49985595D01*
X109271785Y-50061785D01*
X109271785Y-50176071D01*
X109233690Y-50252261D01*
X109195595Y-50290357D01*
X109119404Y-50328452D01*
X108814642Y-50328452D01*
X105309880Y-51285595D02*
X105347976Y-51247500D01*
X105424166Y-51209404D01*
X105614642Y-51209404D01*
X105690833Y-51247500D01*
X105728928Y-51285595D01*
X105767023Y-51361785D01*
X105767023Y-51437976D01*
X105728928Y-51552261D01*
X105271785Y-52009404D01*
X105767023Y-52009404D01*
X106109880Y-51704642D02*
X106719404Y-51704642D01*
X107519404Y-51247500D02*
X107443214Y-51209404D01*
X107328928Y-51209404D01*
X107214642Y-51247500D01*
X107138452Y-51323690D01*
X107100357Y-51399880D01*
X107062261Y-51552261D01*
X107062261Y-51666547D01*
X107100357Y-51818928D01*
X107138452Y-51895119D01*
X107214642Y-51971309D01*
X107328928Y-52009404D01*
X107405119Y-52009404D01*
X107519404Y-51971309D01*
X107557500Y-51933214D01*
X107557500Y-51666547D01*
X107405119Y-51666547D01*
X107900357Y-52009404D02*
X107900357Y-51209404D01*
X108357500Y-52009404D01*
X108357500Y-51209404D01*
X108738452Y-52009404D02*
X108738452Y-51209404D01*
X108928928Y-51209404D01*
X109043214Y-51247500D01*
X109119404Y-51323690D01*
X109157500Y-51399880D01*
X109195595Y-51552261D01*
X109195595Y-51666547D01*
X109157500Y-51818928D01*
X109119404Y-51895119D01*
X109043214Y-51971309D01*
X108928928Y-52009404D01*
X108738452Y-52009404D01*
X105271785Y-52509404D02*
X105767023Y-52509404D01*
X105500357Y-52814166D01*
X105614642Y-52814166D01*
X105690833Y-52852261D01*
X105728928Y-52890357D01*
X105767023Y-52966547D01*
X105767023Y-53157023D01*
X105728928Y-53233214D01*
X105690833Y-53271309D01*
X105614642Y-53309404D01*
X105386071Y-53309404D01*
X105309880Y-53271309D01*
X105271785Y-53233214D01*
X106109880Y-53004642D02*
X106719404Y-53004642D01*
X107252738Y-52509404D02*
X107405119Y-52509404D01*
X107481309Y-52547500D01*
X107557500Y-52623690D01*
X107595595Y-52776071D01*
X107595595Y-53042738D01*
X107557500Y-53195119D01*
X107481309Y-53271309D01*
X107405119Y-53309404D01*
X107252738Y-53309404D01*
X107176547Y-53271309D01*
X107100357Y-53195119D01*
X107062261Y-53042738D01*
X107062261Y-52776071D01*
X107100357Y-52623690D01*
X107176547Y-52547500D01*
X107252738Y-52509404D01*
X107900357Y-52585595D02*
X107938452Y-52547500D01*
X108014642Y-52509404D01*
X108205119Y-52509404D01*
X108281309Y-52547500D01*
X108319404Y-52585595D01*
X108357500Y-52661785D01*
X108357500Y-52737976D01*
X108319404Y-52852261D01*
X107862261Y-53309404D01*
X108357500Y-53309404D01*
X108509880Y-53385595D02*
X109119404Y-53385595D01*
X109309880Y-53309404D02*
X109309880Y-52509404D01*
X109614642Y-52509404D01*
X109690833Y-52547500D01*
X109728928Y-52585595D01*
X109767023Y-52661785D01*
X109767023Y-52776071D01*
X109728928Y-52852261D01*
X109690833Y-52890357D01*
X109614642Y-52928452D01*
X109309880Y-52928452D01*
X110033690Y-52776071D02*
X110186071Y-53309404D01*
X110338452Y-52928452D01*
X110490833Y-53309404D01*
X110643214Y-52776071D01*
X110947976Y-53309404D02*
X110947976Y-52776071D01*
X110947976Y-52928452D02*
X110986071Y-52852261D01*
X111024166Y-52814166D01*
X111100357Y-52776071D01*
X111176547Y-52776071D01*
X105690833Y-54076071D02*
X105690833Y-54609404D01*
X105500357Y-53771309D02*
X105309880Y-54342738D01*
X105805119Y-54342738D01*
X106109880Y-54304642D02*
X106719404Y-54304642D01*
X107519404Y-53847500D02*
X107443214Y-53809404D01*
X107328928Y-53809404D01*
X107214642Y-53847500D01*
X107138452Y-53923690D01*
X107100357Y-53999880D01*
X107062261Y-54152261D01*
X107062261Y-54266547D01*
X107100357Y-54418928D01*
X107138452Y-54495119D01*
X107214642Y-54571309D01*
X107328928Y-54609404D01*
X107405119Y-54609404D01*
X107519404Y-54571309D01*
X107557500Y-54533214D01*
X107557500Y-54266547D01*
X107405119Y-54266547D01*
X107900357Y-54609404D02*
X107900357Y-53809404D01*
X108357500Y-54609404D01*
X108357500Y-53809404D01*
X108738452Y-54609404D02*
X108738452Y-53809404D01*
X108928928Y-53809404D01*
X109043214Y-53847500D01*
X109119404Y-53923690D01*
X109157500Y-53999880D01*
X109195595Y-54152261D01*
X109195595Y-54266547D01*
X109157500Y-54418928D01*
X109119404Y-54495119D01*
X109043214Y-54571309D01*
X108928928Y-54609404D01*
X108738452Y-54609404D01*
X105347976Y-56790357D02*
X105614642Y-56790357D01*
X105728928Y-57209404D02*
X105347976Y-57209404D01*
X105347976Y-56409404D01*
X105728928Y-56409404D01*
X106338452Y-56790357D02*
X106071785Y-56790357D01*
X106071785Y-57209404D02*
X106071785Y-56409404D01*
X106452738Y-56409404D01*
X106757500Y-57209404D02*
X106757500Y-56409404D01*
X106947976Y-57285595D02*
X107557500Y-57285595D01*
X107747976Y-56790357D02*
X108014642Y-56790357D01*
X108128928Y-57209404D02*
X107747976Y-57209404D01*
X107747976Y-56409404D01*
X108128928Y-56409404D01*
X108471785Y-57209404D02*
X108471785Y-56409404D01*
X108928928Y-57209404D01*
X108928928Y-56409404D01*
X105767023Y-58509404D02*
X105309880Y-58509404D01*
X105538452Y-58509404D02*
X105538452Y-57709404D01*
X105462261Y-57823690D01*
X105386071Y-57899880D01*
X105309880Y-57937976D01*
X106109880Y-58204642D02*
X106719404Y-58204642D01*
X107100357Y-58204642D02*
X107709880Y-58204642D01*
X107405119Y-58509404D02*
X107405119Y-57899880D01*
X108509880Y-58509404D02*
X108052738Y-58509404D01*
X108281309Y-58509404D02*
X108281309Y-57709404D01*
X108205119Y-57823690D01*
X108128928Y-57899880D01*
X108052738Y-57937976D01*
X108814642Y-57785595D02*
X108852738Y-57747500D01*
X108928928Y-57709404D01*
X109119404Y-57709404D01*
X109195595Y-57747500D01*
X109233690Y-57785595D01*
X109271785Y-57861785D01*
X109271785Y-57937976D01*
X109233690Y-58052261D01*
X108776547Y-58509404D01*
X109271785Y-58509404D01*
X109538452Y-57976071D02*
X109728928Y-58509404D01*
X109919404Y-57976071D01*
X105309880Y-59085595D02*
X105347976Y-59047500D01*
X105424166Y-59009404D01*
X105614642Y-59009404D01*
X105690833Y-59047500D01*
X105728928Y-59085595D01*
X105767023Y-59161785D01*
X105767023Y-59237976D01*
X105728928Y-59352261D01*
X105271785Y-59809404D01*
X105767023Y-59809404D01*
X106719404Y-59504642D02*
X107328928Y-59504642D01*
X108319404Y-59390357D02*
X108586071Y-59390357D01*
X108700357Y-59809404D02*
X108319404Y-59809404D01*
X108319404Y-59009404D01*
X108700357Y-59009404D01*
X109043214Y-59809404D02*
X109043214Y-59009404D01*
X109500357Y-59809404D01*
X109500357Y-59009404D01*
X110719404Y-60114166D02*
X110681309Y-60076071D01*
X110605119Y-59961785D01*
X110567023Y-59885595D01*
X110528928Y-59771309D01*
X110490833Y-59580833D01*
X110490833Y-59428452D01*
X110528928Y-59237976D01*
X110567023Y-59123690D01*
X110605119Y-59047500D01*
X110681309Y-58933214D01*
X110719404Y-58895119D01*
X111443214Y-59809404D02*
X110986071Y-59809404D01*
X111214642Y-59809404D02*
X111214642Y-59009404D01*
X111138452Y-59123690D01*
X111062261Y-59199880D01*
X110986071Y-59237976D01*
X111747976Y-59085595D02*
X111786071Y-59047500D01*
X111862261Y-59009404D01*
X112052738Y-59009404D01*
X112128928Y-59047500D01*
X112167023Y-59085595D01*
X112205119Y-59161785D01*
X112205119Y-59237976D01*
X112167023Y-59352261D01*
X111709880Y-59809404D01*
X112205119Y-59809404D01*
X112471785Y-59276071D02*
X112662261Y-59809404D01*
X112852738Y-59276071D01*
X113081309Y-60114166D02*
X113119404Y-60076071D01*
X113195595Y-59961785D01*
X113233690Y-59885595D01*
X113271785Y-59771309D01*
X113309880Y-59580833D01*
X113309880Y-59428452D01*
X113271785Y-59237976D01*
X113233690Y-59123690D01*
X113195595Y-59047500D01*
X113119404Y-58933214D01*
X113081309Y-58895119D01*
X105500357Y-61609404D02*
X105652738Y-61609404D01*
X105728928Y-61647500D01*
X105805119Y-61723690D01*
X105843214Y-61876071D01*
X105843214Y-62142738D01*
X105805119Y-62295119D01*
X105728928Y-62371309D01*
X105652738Y-62409404D01*
X105500357Y-62409404D01*
X105424166Y-62371309D01*
X105347976Y-62295119D01*
X105309880Y-62142738D01*
X105309880Y-61876071D01*
X105347976Y-61723690D01*
X105424166Y-61647500D01*
X105500357Y-61609404D01*
X106147976Y-61685595D02*
X106186071Y-61647500D01*
X106262261Y-61609404D01*
X106452738Y-61609404D01*
X106528928Y-61647500D01*
X106567023Y-61685595D01*
X106605119Y-61761785D01*
X106605119Y-61837976D01*
X106567023Y-61952261D01*
X106109880Y-62409404D01*
X106605119Y-62409404D01*
X106757500Y-62485595D02*
X107367023Y-62485595D01*
X107557500Y-62409404D02*
X107557500Y-61609404D01*
X107862261Y-61609404D01*
X107938452Y-61647500D01*
X107976547Y-61685595D01*
X108014642Y-61761785D01*
X108014642Y-61876071D01*
X107976547Y-61952261D01*
X107938452Y-61990357D01*
X107862261Y-62028452D01*
X107557500Y-62028452D01*
X108281309Y-61609404D02*
X108471785Y-62409404D01*
X108624166Y-61837976D01*
X108776547Y-62409404D01*
X108967023Y-61609404D01*
X109728928Y-62409404D02*
X109462261Y-62028452D01*
X109271785Y-62409404D02*
X109271785Y-61609404D01*
X109576547Y-61609404D01*
X109652738Y-61647500D01*
X109690833Y-61685595D01*
X109728928Y-61761785D01*
X109728928Y-61876071D01*
X109690833Y-61952261D01*
X109652738Y-61990357D01*
X109576547Y-62028452D01*
X109271785Y-62028452D01*
X105767023Y-63709404D02*
X105309880Y-63709404D01*
X105538452Y-63709404D02*
X105538452Y-62909404D01*
X105462261Y-63023690D01*
X105386071Y-63099880D01*
X105309880Y-63137976D01*
X106109880Y-63404642D02*
X106719404Y-63404642D01*
X107519404Y-62947500D02*
X107443214Y-62909404D01*
X107328928Y-62909404D01*
X107214642Y-62947500D01*
X107138452Y-63023690D01*
X107100357Y-63099880D01*
X107062261Y-63252261D01*
X107062261Y-63366547D01*
X107100357Y-63518928D01*
X107138452Y-63595119D01*
X107214642Y-63671309D01*
X107328928Y-63709404D01*
X107405119Y-63709404D01*
X107519404Y-63671309D01*
X107557500Y-63633214D01*
X107557500Y-63366547D01*
X107405119Y-63366547D01*
X107900357Y-63709404D02*
X107900357Y-62909404D01*
X108357500Y-63709404D01*
X108357500Y-62909404D01*
X108738452Y-63709404D02*
X108738452Y-62909404D01*
X108928928Y-62909404D01*
X109043214Y-62947500D01*
X109119404Y-63023690D01*
X109157500Y-63099880D01*
X109195595Y-63252261D01*
X109195595Y-63366547D01*
X109157500Y-63518928D01*
X109119404Y-63595119D01*
X109043214Y-63671309D01*
X108928928Y-63709404D01*
X108738452Y-63709404D01*
X105309880Y-64285595D02*
X105347976Y-64247500D01*
X105424166Y-64209404D01*
X105614642Y-64209404D01*
X105690833Y-64247500D01*
X105728928Y-64285595D01*
X105767023Y-64361785D01*
X105767023Y-64437976D01*
X105728928Y-64552261D01*
X105271785Y-65009404D01*
X105767023Y-65009404D01*
X106109880Y-64704642D02*
X106719404Y-64704642D01*
X107252738Y-64209404D02*
X107405119Y-64209404D01*
X107481309Y-64247500D01*
X107557500Y-64323690D01*
X107595595Y-64476071D01*
X107595595Y-64742738D01*
X107557500Y-64895119D01*
X107481309Y-64971309D01*
X107405119Y-65009404D01*
X107252738Y-65009404D01*
X107176547Y-64971309D01*
X107100357Y-64895119D01*
X107062261Y-64742738D01*
X107062261Y-64476071D01*
X107100357Y-64323690D01*
X107176547Y-64247500D01*
X107252738Y-64209404D01*
X107900357Y-64285595D02*
X107938452Y-64247500D01*
X108014642Y-64209404D01*
X108205119Y-64209404D01*
X108281309Y-64247500D01*
X108319404Y-64285595D01*
X108357500Y-64361785D01*
X108357500Y-64437976D01*
X108319404Y-64552261D01*
X107862261Y-65009404D01*
X108357500Y-65009404D01*
X108509880Y-65085595D02*
X109119404Y-65085595D01*
X109309880Y-65009404D02*
X109309880Y-64209404D01*
X109614642Y-64209404D01*
X109690833Y-64247500D01*
X109728928Y-64285595D01*
X109767023Y-64361785D01*
X109767023Y-64476071D01*
X109728928Y-64552261D01*
X109690833Y-64590357D01*
X109614642Y-64628452D01*
X109309880Y-64628452D01*
X110033690Y-64209404D02*
X110224166Y-65009404D01*
X110376547Y-64437976D01*
X110528928Y-65009404D01*
X110719404Y-64209404D01*
X111481309Y-65009404D02*
X111214642Y-64628452D01*
X111024166Y-65009404D02*
X111024166Y-64209404D01*
X111328928Y-64209404D01*
X111405119Y-64247500D01*
X111443214Y-64285595D01*
X111481309Y-64361785D01*
X111481309Y-64476071D01*
X111443214Y-64552261D01*
X111405119Y-64590357D01*
X111328928Y-64628452D01*
X111024166Y-64628452D01*
X105347976Y-67190357D02*
X105614642Y-67190357D01*
X105728928Y-67609404D02*
X105347976Y-67609404D01*
X105347976Y-66809404D01*
X105728928Y-66809404D01*
X106338452Y-67190357D02*
X106071785Y-67190357D01*
X106071785Y-67609404D02*
X106071785Y-66809404D01*
X106452738Y-66809404D01*
X106757500Y-67609404D02*
X106757500Y-66809404D01*
X106947976Y-67685595D02*
X107557500Y-67685595D01*
X107900357Y-66809404D02*
X108052738Y-66809404D01*
X108128928Y-66847500D01*
X108205119Y-66923690D01*
X108243214Y-67076071D01*
X108243214Y-67342738D01*
X108205119Y-67495119D01*
X108128928Y-67571309D01*
X108052738Y-67609404D01*
X107900357Y-67609404D01*
X107824166Y-67571309D01*
X107747976Y-67495119D01*
X107709880Y-67342738D01*
X107709880Y-67076071D01*
X107747976Y-66923690D01*
X107824166Y-66847500D01*
X107900357Y-66809404D01*
X108586071Y-67076071D02*
X108586071Y-67609404D01*
X108586071Y-67152261D02*
X108624166Y-67114166D01*
X108700357Y-67076071D01*
X108814642Y-67076071D01*
X108890833Y-67114166D01*
X108928928Y-67190357D01*
X108928928Y-67609404D01*
X109119404Y-67685595D02*
X109728928Y-67685595D01*
X110376547Y-67533214D02*
X110338452Y-67571309D01*
X110224166Y-67609404D01*
X110147976Y-67609404D01*
X110033690Y-67571309D01*
X109957500Y-67495119D01*
X109919404Y-67418928D01*
X109881309Y-67266547D01*
X109881309Y-67152261D01*
X109919404Y-66999880D01*
X109957500Y-66923690D01*
X110033690Y-66847500D01*
X110147976Y-66809404D01*
X110224166Y-66809404D01*
X110338452Y-66847500D01*
X110376547Y-66885595D01*
X110681309Y-67380833D02*
X111062261Y-67380833D01*
X110605119Y-67609404D02*
X110871785Y-66809404D01*
X111138452Y-67609404D01*
X111405119Y-67609404D02*
X111405119Y-66809404D01*
X111862261Y-67609404D01*
X111862261Y-66809404D01*
X105767023Y-68909404D02*
X105309880Y-68909404D01*
X105538452Y-68909404D02*
X105538452Y-68109404D01*
X105462261Y-68223690D01*
X105386071Y-68299880D01*
X105309880Y-68337976D01*
X106109880Y-68604642D02*
X106719404Y-68604642D01*
X107519404Y-68147500D02*
X107443214Y-68109404D01*
X107328928Y-68109404D01*
X107214642Y-68147500D01*
X107138452Y-68223690D01*
X107100357Y-68299880D01*
X107062261Y-68452261D01*
X107062261Y-68566547D01*
X107100357Y-68718928D01*
X107138452Y-68795119D01*
X107214642Y-68871309D01*
X107328928Y-68909404D01*
X107405119Y-68909404D01*
X107519404Y-68871309D01*
X107557500Y-68833214D01*
X107557500Y-68566547D01*
X107405119Y-68566547D01*
X107900357Y-68909404D02*
X107900357Y-68109404D01*
X108357500Y-68909404D01*
X108357500Y-68109404D01*
X108738452Y-68909404D02*
X108738452Y-68109404D01*
X108928928Y-68109404D01*
X109043214Y-68147500D01*
X109119404Y-68223690D01*
X109157500Y-68299880D01*
X109195595Y-68452261D01*
X109195595Y-68566547D01*
X109157500Y-68718928D01*
X109119404Y-68795119D01*
X109043214Y-68871309D01*
X108928928Y-68909404D01*
X108738452Y-68909404D01*
X105309880Y-69485595D02*
X105347976Y-69447500D01*
X105424166Y-69409404D01*
X105614642Y-69409404D01*
X105690833Y-69447500D01*
X105728928Y-69485595D01*
X105767023Y-69561785D01*
X105767023Y-69637976D01*
X105728928Y-69752261D01*
X105271785Y-70209404D01*
X105767023Y-70209404D01*
X106109880Y-69904642D02*
X106719404Y-69904642D01*
X107709880Y-69790357D02*
X107976547Y-69790357D01*
X108090833Y-70209404D02*
X107709880Y-70209404D01*
X107709880Y-69409404D01*
X108090833Y-69409404D01*
X108433690Y-70209404D02*
X108433690Y-69409404D01*
X108890833Y-70209404D01*
X108890833Y-69409404D01*
X110109880Y-70514166D02*
X110071785Y-70476071D01*
X109995595Y-70361785D01*
X109957500Y-70285595D01*
X109919404Y-70171309D01*
X109881309Y-69980833D01*
X109881309Y-69828452D01*
X109919404Y-69637976D01*
X109957500Y-69523690D01*
X109995595Y-69447500D01*
X110071785Y-69333214D01*
X110109880Y-69295119D01*
X110338452Y-69409404D02*
X110833690Y-69409404D01*
X110567023Y-69714166D01*
X110681309Y-69714166D01*
X110757500Y-69752261D01*
X110795595Y-69790357D01*
X110833690Y-69866547D01*
X110833690Y-70057023D01*
X110795595Y-70133214D01*
X110757500Y-70171309D01*
X110681309Y-70209404D01*
X110452738Y-70209404D01*
X110376547Y-70171309D01*
X110338452Y-70133214D01*
X111176547Y-70133214D02*
X111214642Y-70171309D01*
X111176547Y-70209404D01*
X111138452Y-70171309D01*
X111176547Y-70133214D01*
X111176547Y-70209404D01*
X111481309Y-69409404D02*
X111976547Y-69409404D01*
X111709880Y-69714166D01*
X111824166Y-69714166D01*
X111900357Y-69752261D01*
X111938452Y-69790357D01*
X111976547Y-69866547D01*
X111976547Y-70057023D01*
X111938452Y-70133214D01*
X111900357Y-70171309D01*
X111824166Y-70209404D01*
X111595595Y-70209404D01*
X111519404Y-70171309D01*
X111481309Y-70133214D01*
X112243214Y-69676071D02*
X112433690Y-70209404D01*
X112624166Y-69676071D01*
X112852738Y-70514166D02*
X112890833Y-70476071D01*
X112967023Y-70361785D01*
X113005119Y-70285595D01*
X113043214Y-70171309D01*
X113081309Y-69980833D01*
X113081309Y-69828452D01*
X113043214Y-69637976D01*
X113005119Y-69523690D01*
X112967023Y-69447500D01*
X112890833Y-69333214D01*
X112852738Y-69295119D01*
D10*
X143993809Y-44389523D02*
X143268095Y-44389523D01*
X143630952Y-44389523D02*
X143630952Y-43119523D01*
X143510000Y-43300952D01*
X143389047Y-43421904D01*
X143268095Y-43482380D01*
X144477619Y-43240476D02*
X144538095Y-43180000D01*
X144659047Y-43119523D01*
X144961428Y-43119523D01*
X145082380Y-43180000D01*
X145142857Y-43240476D01*
X145203333Y-43361428D01*
X145203333Y-43482380D01*
X145142857Y-43663809D01*
X144417142Y-44389523D01*
X145203333Y-44389523D01*
X145566190Y-43119523D02*
X145989523Y-44389523D01*
X146412857Y-43119523D01*
X143903095Y-40579523D02*
X143298333Y-40579523D01*
X143237857Y-41184285D01*
X143298333Y-41123809D01*
X143419285Y-41063333D01*
X143721666Y-41063333D01*
X143842619Y-41123809D01*
X143903095Y-41184285D01*
X143963571Y-41305238D01*
X143963571Y-41607619D01*
X143903095Y-41728571D01*
X143842619Y-41789047D01*
X143721666Y-41849523D01*
X143419285Y-41849523D01*
X143298333Y-41789047D01*
X143237857Y-41728571D01*
X144326428Y-40579523D02*
X144749761Y-41849523D01*
X145173095Y-40579523D01*
D16*
X137075333Y-53723419D02*
X137075333Y-52707419D01*
X137462380Y-52707419D01*
X137559142Y-52755800D01*
X137607523Y-52804180D01*
X137655904Y-52900942D01*
X137655904Y-53046085D01*
X137607523Y-53142847D01*
X137559142Y-53191228D01*
X137462380Y-53239609D01*
X137075333Y-53239609D01*
X137994571Y-52707419D02*
X138236476Y-53723419D01*
X138430000Y-52997704D01*
X138623523Y-53723419D01*
X138865428Y-52707419D01*
X139833047Y-53723419D02*
X139494380Y-53239609D01*
X139252476Y-53723419D02*
X139252476Y-52707419D01*
X139639523Y-52707419D01*
X139736285Y-52755800D01*
X139784666Y-52804180D01*
X139833047Y-52900942D01*
X139833047Y-53046085D01*
X139784666Y-53142847D01*
X139736285Y-53191228D01*
X139639523Y-53239609D01*
X139252476Y-53239609D01*
X137607523Y-54867628D02*
X137268857Y-54867628D01*
X137268857Y-55399819D02*
X137268857Y-54383819D01*
X137752666Y-54383819D01*
X138575142Y-55399819D02*
X138575142Y-54867628D01*
X138526761Y-54770866D01*
X138430000Y-54722485D01*
X138236476Y-54722485D01*
X138139714Y-54770866D01*
X138575142Y-55351438D02*
X138478380Y-55399819D01*
X138236476Y-55399819D01*
X138139714Y-55351438D01*
X138091333Y-55254676D01*
X138091333Y-55157914D01*
X138139714Y-55061152D01*
X138236476Y-55012771D01*
X138478380Y-55012771D01*
X138575142Y-54964390D01*
X139058952Y-55399819D02*
X139058952Y-54722485D01*
X139058952Y-54383819D02*
X139010571Y-54432200D01*
X139058952Y-54480580D01*
X139107333Y-54432200D01*
X139058952Y-54383819D01*
X139058952Y-54480580D01*
X139687904Y-55399819D02*
X139591142Y-55351438D01*
X139542761Y-55254676D01*
X139542761Y-54383819D01*
D11*
X129583571Y-57955000D02*
X128083571Y-57955000D01*
X128083571Y-57597857D01*
X128155000Y-57383571D01*
X128297857Y-57240714D01*
X128440714Y-57169285D01*
X128726428Y-57097857D01*
X128940714Y-57097857D01*
X129226428Y-57169285D01*
X129369285Y-57240714D01*
X129512142Y-57383571D01*
X129583571Y-57597857D01*
X129583571Y-57955000D01*
X128226428Y-56526428D02*
X128155000Y-56455000D01*
X128083571Y-56312142D01*
X128083571Y-55955000D01*
X128155000Y-55812142D01*
X128226428Y-55740714D01*
X128369285Y-55669285D01*
X128512142Y-55669285D01*
X128726428Y-55740714D01*
X129583571Y-56597857D01*
X129583571Y-55669285D01*
X128583571Y-54383571D02*
X129583571Y-54383571D01*
X128012142Y-54740714D02*
X129083571Y-55097857D01*
X129083571Y-54169285D01*
X128083571Y-53812142D02*
X129583571Y-53312142D01*
X128083571Y-52812142D01*
X129583571Y-51526428D02*
X129583571Y-52383571D01*
X129583571Y-51955000D02*
X128083571Y-51955000D01*
X128297857Y-52097857D01*
X128440714Y-52240714D01*
X128512142Y-52383571D01*
X128083571Y-50597857D02*
X128083571Y-50455000D01*
X128155000Y-50312142D01*
X128226428Y-50240714D01*
X128369285Y-50169285D01*
X128655000Y-50097857D01*
X129012142Y-50097857D01*
X129297857Y-50169285D01*
X129440714Y-50240714D01*
X129512142Y-50312142D01*
X129583571Y-50455000D01*
X129583571Y-50597857D01*
X129512142Y-50740714D01*
X129440714Y-50812142D01*
X129297857Y-50883571D01*
X129012142Y-50955000D01*
X128655000Y-50955000D01*
X128369285Y-50883571D01*
X128226428Y-50812142D01*
X128155000Y-50740714D01*
X128083571Y-50597857D01*
X128797857Y-48955000D02*
X128797857Y-49455000D01*
X129583571Y-49455000D02*
X128083571Y-49455000D01*
X128083571Y-48740714D01*
X128083571Y-47455000D02*
X128083571Y-48169285D01*
X128797857Y-48240714D01*
X128726428Y-48169285D01*
X128655000Y-48026428D01*
X128655000Y-47669285D01*
X128726428Y-47526428D01*
X128797857Y-47455000D01*
X128940714Y-47383571D01*
X129297857Y-47383571D01*
X129440714Y-47455000D01*
X129512142Y-47526428D01*
X129583571Y-47669285D01*
X129583571Y-48026428D01*
X129512142Y-48169285D01*
X129440714Y-48240714D01*
D13*
X103632000Y-22987000D02*
X103632000Y-80010000D01*
X195072000Y-22987000D02*
X195072000Y-80010000D01*
X122380000Y-35020000D02*
X121880000Y-35520000D01*
X122880000Y-35520000D02*
X122380000Y-35020000D01*
X126380000Y-31520000D02*
X126380000Y-23770000D01*
X125130000Y-33520000D02*
X126380000Y-31520000D01*
X125130000Y-34820000D02*
X125130000Y-33520000D01*
X113630000Y-34820000D02*
X125130000Y-34820000D01*
X113630000Y-33520000D02*
X113630000Y-34820000D01*
X112380000Y-31520000D02*
X113630000Y-33520000D01*
X112380000Y-23770000D02*
X112380000Y-31520000D01*
X126380000Y-23770000D02*
X112380000Y-23770000D01*
X137620000Y-35020000D02*
X137120000Y-35520000D01*
X138120000Y-35520000D02*
X137620000Y-35020000D01*
X141620000Y-31520000D02*
X141620000Y-23770000D01*
X140370000Y-33520000D02*
X141620000Y-31520000D01*
X140370000Y-34820000D02*
X140370000Y-33520000D01*
X128870000Y-34820000D02*
X140370000Y-34820000D01*
X128870000Y-33520000D02*
X128870000Y-34820000D01*
X127620000Y-31520000D02*
X128870000Y-33520000D01*
X127620000Y-23770000D02*
X127620000Y-31520000D01*
X141620000Y-23770000D02*
X127620000Y-23770000D01*
X117015000Y-68485000D02*
X117515000Y-67985000D01*
X116515000Y-67985000D02*
X117015000Y-68485000D01*
X113015000Y-71985000D02*
X113015000Y-79735000D01*
X114265000Y-69985000D02*
X113015000Y-71985000D01*
X114265000Y-68685000D02*
X114265000Y-69985000D01*
X125765000Y-68685000D02*
X114265000Y-68685000D01*
X125765000Y-69985000D02*
X125765000Y-68685000D01*
X127015000Y-71985000D02*
X125765000Y-69985000D01*
X127015000Y-79735000D02*
X127015000Y-71985000D01*
X113015000Y-79735000D02*
X127015000Y-79735000D01*
X152860000Y-35020000D02*
X152360000Y-35520000D01*
X153360000Y-35520000D02*
X152860000Y-35020000D01*
X156860000Y-31520000D02*
X156860000Y-23770000D01*
X155610000Y-33520000D02*
X156860000Y-31520000D01*
X155610000Y-34820000D02*
X155610000Y-33520000D01*
X144110000Y-34820000D02*
X155610000Y-34820000D01*
X144110000Y-33520000D02*
X144110000Y-34820000D01*
X142860000Y-31520000D02*
X144110000Y-33520000D01*
X142860000Y-23770000D02*
X142860000Y-31520000D01*
X156860000Y-23770000D02*
X142860000Y-23770000D01*
X167820000Y-20805000D02*
X159820000Y-20805000D01*
X167820000Y-38965000D02*
X159820000Y-38965000D01*
X159820000Y-38965000D02*
X159820000Y-20805000D01*
X167820000Y-38965000D02*
X167820000Y-20805000D01*
X150305000Y-80180000D02*
X158305000Y-80180000D01*
X150305000Y-64530000D02*
X158305000Y-64530000D01*
X158305000Y-64530000D02*
X158305000Y-80180000D01*
X150305000Y-64530000D02*
X150305000Y-80180000D01*
X140770000Y-80110000D02*
X148770000Y-80110000D01*
X140770000Y-64460000D02*
X148770000Y-64460000D01*
X148770000Y-64460000D02*
X148770000Y-80110000D01*
X140770000Y-64460000D02*
X140770000Y-80110000D01*
X131245000Y-80110000D02*
X139245000Y-80110000D01*
X131245000Y-64460000D02*
X139245000Y-64460000D01*
X139245000Y-64460000D02*
X139245000Y-80110000D01*
X131245000Y-64460000D02*
X131245000Y-80110000D01*
X177345000Y-20715000D02*
X169345000Y-20715000D01*
X177345000Y-36365000D02*
X169345000Y-36365000D01*
X169345000Y-36365000D02*
X169345000Y-20715000D01*
X177345000Y-36365000D02*
X177345000Y-20715000D01*
X169355000Y-80180000D02*
X177355000Y-80180000D01*
X169355000Y-64530000D02*
X177355000Y-64530000D01*
X177355000Y-64530000D02*
X177355000Y-80180000D01*
X169355000Y-64530000D02*
X169355000Y-80180000D01*
X178870000Y-80110000D02*
X186870000Y-80110000D01*
X178870000Y-64460000D02*
X186870000Y-64460000D01*
X186870000Y-64460000D02*
X186870000Y-80110000D01*
X178870000Y-64460000D02*
X178870000Y-80110000D01*
X186880000Y-20785000D02*
X178880000Y-20785000D01*
X186880000Y-36435000D02*
X178880000Y-36435000D01*
X178880000Y-36435000D02*
X178880000Y-20785000D01*
X186880000Y-36435000D02*
X186880000Y-20785000D01*
X159820000Y-80110000D02*
X167820000Y-80110000D01*
X159820000Y-64460000D02*
X167820000Y-64460000D01*
X167820000Y-64460000D02*
X167820000Y-80110000D01*
X159820000Y-64460000D02*
X159820000Y-80110000D01*
X175040000Y-50205000D02*
X175040000Y-42705000D01*
X160040000Y-50205000D02*
X175040000Y-50205000D01*
X160040000Y-42705000D02*
X160040000Y-50205000D01*
X175040000Y-42705000D02*
X160040000Y-42705000D01*
D17*
X133541392Y-54842665D02*
G75*
G03X133384484Y-58075000I1078608J-1672335D01*
G01*
X135698608Y-54842665D02*
G75*
G02X135855516Y-58075000I-1078608J-1672335D01*
G01*
X133540163Y-55473870D02*
G75*
G03X133540000Y-57555961I1079837J-1041130D01*
G01*
X135699837Y-55473870D02*
G75*
G02X135700000Y-57555961I-1079837J-1041130D01*
G01*
X133384000Y-58075000D02*
X133540000Y-58075000D01*
X135700000Y-58075000D02*
X135856000Y-58075000D01*
X114875000Y-45145000D02*
X120075000Y-45145000D01*
X114875000Y-42545000D02*
X114875000Y-45145000D01*
X120075000Y-39945000D02*
X120075000Y-45145000D01*
X114875000Y-42545000D02*
X117475000Y-42545000D01*
X117475000Y-42545000D02*
X117475000Y-39945000D01*
X117475000Y-39945000D02*
X120075000Y-39945000D01*
X114875000Y-41275000D02*
X114875000Y-39945000D01*
X114875000Y-39945000D02*
X116205000Y-39945000D01*
X130115000Y-45145000D02*
X135315000Y-45145000D01*
X130115000Y-42545000D02*
X130115000Y-45145000D01*
X135315000Y-39945000D02*
X135315000Y-45145000D01*
X130115000Y-42545000D02*
X132715000Y-42545000D01*
X132715000Y-42545000D02*
X132715000Y-39945000D01*
X132715000Y-39945000D02*
X135315000Y-39945000D01*
X130115000Y-41275000D02*
X130115000Y-39945000D01*
X130115000Y-39945000D02*
X131445000Y-39945000D01*
X121860000Y-45145000D02*
X127060000Y-45145000D01*
X121860000Y-42545000D02*
X121860000Y-45145000D01*
X127060000Y-39945000D02*
X127060000Y-45145000D01*
X121860000Y-42545000D02*
X124460000Y-42545000D01*
X124460000Y-42545000D02*
X124460000Y-39945000D01*
X124460000Y-39945000D02*
X127060000Y-39945000D01*
X121860000Y-41275000D02*
X121860000Y-39945000D01*
X121860000Y-39945000D02*
X123190000Y-39945000D01*
X137100000Y-45145000D02*
X142300000Y-45145000D01*
X137100000Y-42545000D02*
X137100000Y-45145000D01*
X142300000Y-39945000D02*
X142300000Y-45145000D01*
X137100000Y-42545000D02*
X139700000Y-42545000D01*
X139700000Y-42545000D02*
X139700000Y-39945000D01*
X139700000Y-39945000D02*
X142300000Y-39945000D01*
X137100000Y-41275000D02*
X137100000Y-39945000D01*
X137100000Y-39945000D02*
X138430000Y-39945000D01*
X124520000Y-61535000D02*
X119320000Y-61535000D01*
X124520000Y-64135000D02*
X124520000Y-61535000D01*
X119320000Y-66735000D02*
X119320000Y-61535000D01*
X124520000Y-64135000D02*
X121920000Y-64135000D01*
X121920000Y-64135000D02*
X121920000Y-66735000D01*
X121920000Y-66735000D02*
X119320000Y-66735000D01*
X124520000Y-65405000D02*
X124520000Y-66735000D01*
X124520000Y-66735000D02*
X123190000Y-66735000D01*
D13*
X131445000Y-46355000D02*
X113665000Y-46355000D01*
X131445000Y-59055000D02*
X131445000Y-46355000D01*
X113665000Y-59055000D02*
X131445000Y-59055000D01*
X113665000Y-46355000D02*
X113665000Y-59055000D01*
D17*
X185315000Y-50855000D02*
X181715000Y-50855000D01*
X185839184Y-51582205D02*
G75*
G03X185315000Y-50855000I-2324184J-1122795D01*
G01*
X185871400Y-53803807D02*
G75*
G02X183515000Y-55305000I-2356400J1098807D01*
G01*
X181158600Y-53803807D02*
G75*
G03X183515000Y-55305000I2356400J1098807D01*
G01*
X181190816Y-51582205D02*
G75*
G02X181715000Y-50855000I2324184J-1122795D01*
G01*
X185315000Y-55935000D02*
X181715000Y-55935000D01*
X185839184Y-56662205D02*
G75*
G03X185315000Y-55935000I-2324184J-1122795D01*
G01*
X185871400Y-58883807D02*
G75*
G02X183515000Y-60385000I-2356400J1098807D01*
G01*
X181158600Y-58883807D02*
G75*
G03X183515000Y-60385000I2356400J1098807D01*
G01*
X181190816Y-56662205D02*
G75*
G02X181715000Y-55935000I2324184J-1122795D01*
G01*
X188535000Y-51375000D02*
X188535000Y-54035000D01*
X191135000Y-51375000D02*
X188535000Y-51375000D01*
X191135000Y-54035000D02*
X188535000Y-54035000D01*
X191135000Y-51375000D02*
X191135000Y-54035000D01*
X192405000Y-51375000D02*
X193735000Y-51375000D01*
X193735000Y-51375000D02*
X193735000Y-52705000D01*
X188535000Y-45025000D02*
X188535000Y-47685000D01*
X191135000Y-45025000D02*
X188535000Y-45025000D01*
X191135000Y-47685000D02*
X188535000Y-47685000D01*
X191135000Y-45025000D02*
X191135000Y-47685000D01*
X192405000Y-45025000D02*
X193735000Y-45025000D01*
X193735000Y-45025000D02*
X193735000Y-46355000D01*
X135480000Y-48305000D02*
X135480000Y-52025000D01*
X133760000Y-48305000D02*
X133760000Y-52025000D01*
X178845000Y-48215000D02*
X178845000Y-44495000D01*
X180565000Y-48215000D02*
X180565000Y-44495000D01*
X185645000Y-44495000D02*
X185645000Y-48215000D01*
X183925000Y-44495000D02*
X183925000Y-48215000D01*
X176305000Y-48215000D02*
X176305000Y-44495000D01*
X178025000Y-48215000D02*
X178025000Y-44495000D01*
X172765000Y-57560000D02*
X176485000Y-57560000D01*
X172765000Y-59280000D02*
X176485000Y-59280000D01*
X183105000Y-44495000D02*
X183105000Y-48215000D01*
X181385000Y-44495000D02*
X181385000Y-48215000D01*
X172565000Y-51645000D02*
X172565000Y-53765000D01*
X172565000Y-53765000D02*
X176685000Y-53765000D01*
X176685000Y-53765000D02*
X176685000Y-51645000D01*
X176685000Y-51645000D02*
X172565000Y-51645000D01*
X171795000Y-52705000D02*
X172565000Y-52705000D01*
X177455000Y-52705000D02*
X176685000Y-52705000D01*
X173225000Y-51645000D02*
X173225000Y-53765000D01*
X173225000Y-54820000D02*
X173225000Y-56940000D01*
X177455000Y-55880000D02*
X176685000Y-55880000D01*
X171795000Y-55880000D02*
X172565000Y-55880000D01*
X176685000Y-54820000D02*
X172565000Y-54820000D01*
X176685000Y-56940000D02*
X176685000Y-54820000D01*
X172565000Y-56940000D02*
X176685000Y-56940000D01*
X172565000Y-54820000D02*
X172565000Y-56940000D01*
D13*
X162724285Y-28892380D02*
X162724285Y-29606666D01*
X162676666Y-29749523D01*
X162581428Y-29844761D01*
X162438571Y-29892380D01*
X162343333Y-29892380D01*
X163724285Y-29892380D02*
X163152857Y-29892380D01*
X163438571Y-29892380D02*
X163438571Y-28892380D01*
X163343333Y-29035238D01*
X163248095Y-29130476D01*
X163152857Y-29178095D01*
X164105238Y-28987619D02*
X164152857Y-28940000D01*
X164248095Y-28892380D01*
X164486190Y-28892380D01*
X164581428Y-28940000D01*
X164629047Y-28987619D01*
X164676666Y-29082857D01*
X164676666Y-29178095D01*
X164629047Y-29320952D01*
X164057619Y-29892380D01*
X164676666Y-29892380D01*
X165629047Y-29892380D02*
X165057619Y-29892380D01*
X165343333Y-29892380D02*
X165343333Y-28892380D01*
X165248095Y-29035238D01*
X165152857Y-29130476D01*
X165057619Y-29178095D01*
X161049666Y-39909571D02*
X161383000Y-39909571D01*
X161525857Y-40433380D02*
X161049666Y-40433380D01*
X161049666Y-39433380D01*
X161525857Y-39433380D01*
X162287761Y-39909571D02*
X161954428Y-39909571D01*
X161954428Y-40433380D02*
X161954428Y-39433380D01*
X162430619Y-39433380D01*
X162811571Y-40433380D02*
X162811571Y-39433380D01*
X163049666Y-40528619D02*
X163811571Y-40528619D01*
X164049666Y-40433380D02*
X164049666Y-39433380D01*
X164430619Y-39433380D01*
X164525857Y-39481000D01*
X164573476Y-39528619D01*
X164621095Y-39623857D01*
X164621095Y-39766714D01*
X164573476Y-39861952D01*
X164525857Y-39909571D01*
X164430619Y-39957190D01*
X164049666Y-39957190D01*
X164954428Y-39433380D02*
X165192523Y-40433380D01*
X165383000Y-39719095D01*
X165573476Y-40433380D01*
X165811571Y-39433380D01*
X166763952Y-40433380D02*
X166430619Y-39957190D01*
X166192523Y-40433380D02*
X166192523Y-39433380D01*
X166573476Y-39433380D01*
X166668714Y-39481000D01*
X166716333Y-39528619D01*
X166763952Y-39623857D01*
X166763952Y-39766714D01*
X166716333Y-39861952D01*
X166668714Y-39909571D01*
X166573476Y-39957190D01*
X166192523Y-39957190D01*
D18*
X166056571Y-35806000D02*
X166056571Y-34877428D01*
X166628000Y-35377428D01*
X166628000Y-35163142D01*
X166699428Y-35020285D01*
X166770857Y-34948857D01*
X166913714Y-34877428D01*
X167270857Y-34877428D01*
X167413714Y-34948857D01*
X167485142Y-35020285D01*
X167556571Y-35163142D01*
X167556571Y-35591714D01*
X167485142Y-35734571D01*
X167413714Y-35806000D01*
D19*
X166528809Y-38239047D02*
X167005000Y-37881904D01*
X167481190Y-38239047D01*
D13*
X153120885Y-71207380D02*
X153120885Y-71921666D01*
X153073266Y-72064523D01*
X152978028Y-72159761D01*
X152835171Y-72207380D01*
X152739933Y-72207380D01*
X154120885Y-72207380D02*
X153549457Y-72207380D01*
X153835171Y-72207380D02*
X153835171Y-71207380D01*
X153739933Y-71350238D01*
X153644695Y-71445476D01*
X153549457Y-71493095D01*
X154501838Y-71302619D02*
X154549457Y-71255000D01*
X154644695Y-71207380D01*
X154882790Y-71207380D01*
X154978028Y-71255000D01*
X155025647Y-71302619D01*
X155073266Y-71397857D01*
X155073266Y-71493095D01*
X155025647Y-71635952D01*
X154454219Y-72207380D01*
X155073266Y-72207380D01*
X155930409Y-71207380D02*
X155739933Y-71207380D01*
X155644695Y-71255000D01*
X155597076Y-71302619D01*
X155501838Y-71445476D01*
X155454219Y-71635952D01*
X155454219Y-72016904D01*
X155501838Y-72112142D01*
X155549457Y-72159761D01*
X155644695Y-72207380D01*
X155835171Y-72207380D01*
X155930409Y-72159761D01*
X155978028Y-72112142D01*
X156025647Y-72016904D01*
X156025647Y-71778809D01*
X155978028Y-71683571D01*
X155930409Y-71635952D01*
X155835171Y-71588333D01*
X155644695Y-71588333D01*
X155549457Y-71635952D01*
X155501838Y-71683571D01*
X155454219Y-71778809D01*
X152605000Y-63982380D02*
X152605000Y-62982380D01*
X153176428Y-63982380D02*
X152747857Y-63410952D01*
X153176428Y-62982380D02*
X152605000Y-63553809D01*
X153605000Y-63982380D02*
X153605000Y-63315714D01*
X153605000Y-62982380D02*
X153557380Y-63030000D01*
X153605000Y-63077619D01*
X153652619Y-63030000D01*
X153605000Y-62982380D01*
X153605000Y-63077619D01*
X154224047Y-63982380D02*
X154128809Y-63934761D01*
X154081190Y-63839523D01*
X154081190Y-62982380D01*
X154747857Y-63982380D02*
X154652619Y-63934761D01*
X154605000Y-63839523D01*
X154605000Y-62982380D01*
X155033571Y-62982380D02*
X155652619Y-62982380D01*
X155319285Y-63363333D01*
X155462142Y-63363333D01*
X155557380Y-63410952D01*
X155605000Y-63458571D01*
X155652619Y-63553809D01*
X155652619Y-63791904D01*
X155605000Y-63887142D01*
X155557380Y-63934761D01*
X155462142Y-63982380D01*
X155176428Y-63982380D01*
X155081190Y-63934761D01*
X155033571Y-63887142D01*
D19*
X152050809Y-68764285D02*
X152527000Y-68421428D01*
X153003190Y-68764285D01*
D13*
X143484285Y-71137380D02*
X143484285Y-71851666D01*
X143436666Y-71994523D01*
X143341428Y-72089761D01*
X143198571Y-72137380D01*
X143103333Y-72137380D01*
X144484285Y-72137380D02*
X143912857Y-72137380D01*
X144198571Y-72137380D02*
X144198571Y-71137380D01*
X144103333Y-71280238D01*
X144008095Y-71375476D01*
X143912857Y-71423095D01*
X144865238Y-71232619D02*
X144912857Y-71185000D01*
X145008095Y-71137380D01*
X145246190Y-71137380D01*
X145341428Y-71185000D01*
X145389047Y-71232619D01*
X145436666Y-71327857D01*
X145436666Y-71423095D01*
X145389047Y-71565952D01*
X144817619Y-72137380D01*
X145436666Y-72137380D01*
X146341428Y-71137380D02*
X145865238Y-71137380D01*
X145817619Y-71613571D01*
X145865238Y-71565952D01*
X145960476Y-71518333D01*
X146198571Y-71518333D01*
X146293809Y-71565952D01*
X146341428Y-71613571D01*
X146389047Y-71708809D01*
X146389047Y-71946904D01*
X146341428Y-72042142D01*
X146293809Y-72089761D01*
X146198571Y-72137380D01*
X145960476Y-72137380D01*
X145865238Y-72089761D01*
X145817619Y-72042142D01*
X143070000Y-63912380D02*
X143070000Y-62912380D01*
X143641428Y-63912380D02*
X143212857Y-63340952D01*
X143641428Y-62912380D02*
X143070000Y-63483809D01*
X144070000Y-63912380D02*
X144070000Y-63245714D01*
X144070000Y-62912380D02*
X144022380Y-62960000D01*
X144070000Y-63007619D01*
X144117619Y-62960000D01*
X144070000Y-62912380D01*
X144070000Y-63007619D01*
X144689047Y-63912380D02*
X144593809Y-63864761D01*
X144546190Y-63769523D01*
X144546190Y-62912380D01*
X145212857Y-63912380D02*
X145117619Y-63864761D01*
X145070000Y-63769523D01*
X145070000Y-62912380D01*
X145546190Y-63007619D02*
X145593809Y-62960000D01*
X145689047Y-62912380D01*
X145927142Y-62912380D01*
X146022380Y-62960000D01*
X146070000Y-63007619D01*
X146117619Y-63102857D01*
X146117619Y-63198095D01*
X146070000Y-63340952D01*
X145498571Y-63912380D01*
X146117619Y-63912380D01*
D19*
X142515809Y-68694285D02*
X142992000Y-68351428D01*
X143468190Y-68694285D01*
D13*
X133959285Y-71137380D02*
X133959285Y-71851666D01*
X133911666Y-71994523D01*
X133816428Y-72089761D01*
X133673571Y-72137380D01*
X133578333Y-72137380D01*
X134959285Y-72137380D02*
X134387857Y-72137380D01*
X134673571Y-72137380D02*
X134673571Y-71137380D01*
X134578333Y-71280238D01*
X134483095Y-71375476D01*
X134387857Y-71423095D01*
X135340238Y-71232619D02*
X135387857Y-71185000D01*
X135483095Y-71137380D01*
X135721190Y-71137380D01*
X135816428Y-71185000D01*
X135864047Y-71232619D01*
X135911666Y-71327857D01*
X135911666Y-71423095D01*
X135864047Y-71565952D01*
X135292619Y-72137380D01*
X135911666Y-72137380D01*
X136768809Y-71470714D02*
X136768809Y-72137380D01*
X136530714Y-71089761D02*
X136292619Y-71804047D01*
X136911666Y-71804047D01*
X134126000Y-63882380D02*
X134126000Y-62882380D01*
X134697428Y-63882380D02*
X134268857Y-63310952D01*
X134697428Y-62882380D02*
X134126000Y-63453809D01*
X135126000Y-63882380D02*
X135126000Y-63215714D01*
X135126000Y-62882380D02*
X135078380Y-62930000D01*
X135126000Y-62977619D01*
X135173619Y-62930000D01*
X135126000Y-62882380D01*
X135126000Y-62977619D01*
X135745047Y-63882380D02*
X135649809Y-63834761D01*
X135602190Y-63739523D01*
X135602190Y-62882380D01*
X136268857Y-63882380D02*
X136173619Y-63834761D01*
X136126000Y-63739523D01*
X136126000Y-62882380D01*
X137173619Y-63882380D02*
X136602190Y-63882380D01*
X136887904Y-63882380D02*
X136887904Y-62882380D01*
X136792666Y-63025238D01*
X136697428Y-63120476D01*
X136602190Y-63168095D01*
D19*
X132990809Y-68694285D02*
X133467000Y-68351428D01*
X133943190Y-68694285D01*
D13*
X172059285Y-28592380D02*
X172059285Y-29306666D01*
X172011666Y-29449523D01*
X171916428Y-29544761D01*
X171773571Y-29592380D01*
X171678333Y-29592380D01*
X173059285Y-29592380D02*
X172487857Y-29592380D01*
X172773571Y-29592380D02*
X172773571Y-28592380D01*
X172678333Y-28735238D01*
X172583095Y-28830476D01*
X172487857Y-28878095D01*
X173440238Y-28687619D02*
X173487857Y-28640000D01*
X173583095Y-28592380D01*
X173821190Y-28592380D01*
X173916428Y-28640000D01*
X173964047Y-28687619D01*
X174011666Y-28782857D01*
X174011666Y-28878095D01*
X173964047Y-29020952D01*
X173392619Y-29592380D01*
X174011666Y-29592380D01*
X174345000Y-28592380D02*
X174964047Y-28592380D01*
X174630714Y-28973333D01*
X174773571Y-28973333D01*
X174868809Y-29020952D01*
X174916428Y-29068571D01*
X174964047Y-29163809D01*
X174964047Y-29401904D01*
X174916428Y-29497142D01*
X174868809Y-29544761D01*
X174773571Y-29592380D01*
X174487857Y-29592380D01*
X174392619Y-29544761D01*
X174345000Y-29497142D01*
X169902619Y-37393571D02*
X169569285Y-37393571D01*
X169569285Y-37917380D02*
X169569285Y-36917380D01*
X170045476Y-36917380D01*
X170855000Y-37250714D02*
X170855000Y-37917380D01*
X170426428Y-37250714D02*
X170426428Y-37774523D01*
X170474047Y-37869761D01*
X170569285Y-37917380D01*
X170712142Y-37917380D01*
X170807380Y-37869761D01*
X170855000Y-37822142D01*
X171712142Y-37869761D02*
X171616904Y-37917380D01*
X171426428Y-37917380D01*
X171331190Y-37869761D01*
X171283571Y-37774523D01*
X171283571Y-37393571D01*
X171331190Y-37298333D01*
X171426428Y-37250714D01*
X171616904Y-37250714D01*
X171712142Y-37298333D01*
X171759761Y-37393571D01*
X171759761Y-37488809D01*
X171283571Y-37584047D01*
X172331190Y-37917380D02*
X172235952Y-37869761D01*
X172188333Y-37774523D01*
X172188333Y-36917380D01*
X172474047Y-38012619D02*
X173235952Y-38012619D01*
X173474047Y-37917380D02*
X173474047Y-36917380D01*
X173855000Y-36917380D01*
X173950238Y-36965000D01*
X173997857Y-37012619D01*
X174045476Y-37107857D01*
X174045476Y-37250714D01*
X173997857Y-37345952D01*
X173950238Y-37393571D01*
X173855000Y-37441190D01*
X173474047Y-37441190D01*
X174902619Y-37250714D02*
X174902619Y-37917380D01*
X174474047Y-37250714D02*
X174474047Y-37774523D01*
X174521666Y-37869761D01*
X174616904Y-37917380D01*
X174759761Y-37917380D01*
X174855000Y-37869761D01*
X174902619Y-37822142D01*
X175378809Y-37917380D02*
X175378809Y-37250714D01*
X175378809Y-37345952D02*
X175426428Y-37298333D01*
X175521666Y-37250714D01*
X175664523Y-37250714D01*
X175759761Y-37298333D01*
X175807380Y-37393571D01*
X175807380Y-37917380D01*
X175807380Y-37393571D02*
X175855000Y-37298333D01*
X175950238Y-37250714D01*
X176093095Y-37250714D01*
X176188333Y-37298333D01*
X176235952Y-37393571D01*
X176235952Y-37917380D01*
X176712142Y-37250714D02*
X176712142Y-38250714D01*
X176712142Y-37298333D02*
X176807380Y-37250714D01*
X176997857Y-37250714D01*
X177093095Y-37298333D01*
X177140714Y-37345952D01*
X177188333Y-37441190D01*
X177188333Y-37726904D01*
X177140714Y-37822142D01*
X177093095Y-37869761D01*
X176997857Y-37917380D01*
X176807380Y-37917380D01*
X176712142Y-37869761D01*
D19*
X176053809Y-35109285D02*
X176530000Y-34766428D01*
X177006190Y-35109285D01*
D13*
X172069285Y-71207380D02*
X172069285Y-71921666D01*
X172021666Y-72064523D01*
X171926428Y-72159761D01*
X171783571Y-72207380D01*
X171688333Y-72207380D01*
X173069285Y-72207380D02*
X172497857Y-72207380D01*
X172783571Y-72207380D02*
X172783571Y-71207380D01*
X172688333Y-71350238D01*
X172593095Y-71445476D01*
X172497857Y-71493095D01*
X173450238Y-71302619D02*
X173497857Y-71255000D01*
X173593095Y-71207380D01*
X173831190Y-71207380D01*
X173926428Y-71255000D01*
X173974047Y-71302619D01*
X174021666Y-71397857D01*
X174021666Y-71493095D01*
X173974047Y-71635952D01*
X173402619Y-72207380D01*
X174021666Y-72207380D01*
X174402619Y-71302619D02*
X174450238Y-71255000D01*
X174545476Y-71207380D01*
X174783571Y-71207380D01*
X174878809Y-71255000D01*
X174926428Y-71302619D01*
X174974047Y-71397857D01*
X174974047Y-71493095D01*
X174926428Y-71635952D01*
X174355000Y-72207380D01*
X174974047Y-72207380D01*
X170631190Y-62982380D02*
X170821666Y-62982380D01*
X170916904Y-63030000D01*
X171012142Y-63125238D01*
X171059761Y-63315714D01*
X171059761Y-63649047D01*
X171012142Y-63839523D01*
X170916904Y-63934761D01*
X170821666Y-63982380D01*
X170631190Y-63982380D01*
X170535952Y-63934761D01*
X170440714Y-63839523D01*
X170393095Y-63649047D01*
X170393095Y-63315714D01*
X170440714Y-63125238D01*
X170535952Y-63030000D01*
X170631190Y-62982380D01*
X171440714Y-63077619D02*
X171488333Y-63030000D01*
X171583571Y-62982380D01*
X171821666Y-62982380D01*
X171916904Y-63030000D01*
X171964523Y-63077619D01*
X172012142Y-63172857D01*
X172012142Y-63268095D01*
X171964523Y-63410952D01*
X171393095Y-63982380D01*
X172012142Y-63982380D01*
X172202619Y-64077619D02*
X172964523Y-64077619D01*
X173202619Y-63982380D02*
X173202619Y-62982380D01*
X173583571Y-62982380D01*
X173678809Y-63030000D01*
X173726428Y-63077619D01*
X173774047Y-63172857D01*
X173774047Y-63315714D01*
X173726428Y-63410952D01*
X173678809Y-63458571D01*
X173583571Y-63506190D01*
X173202619Y-63506190D01*
X174107380Y-62982380D02*
X174345476Y-63982380D01*
X174535952Y-63268095D01*
X174726428Y-63982380D01*
X174964523Y-62982380D01*
X175916904Y-63982380D02*
X175583571Y-63506190D01*
X175345476Y-63982380D02*
X175345476Y-62982380D01*
X175726428Y-62982380D01*
X175821666Y-63030000D01*
X175869285Y-63077619D01*
X175916904Y-63172857D01*
X175916904Y-63315714D01*
X175869285Y-63410952D01*
X175821666Y-63458571D01*
X175726428Y-63506190D01*
X175345476Y-63506190D01*
D19*
X171100809Y-68764285D02*
X171577000Y-68421428D01*
X172053190Y-68764285D01*
D13*
X181574285Y-71067380D02*
X181574285Y-71781666D01*
X181526666Y-71924523D01*
X181431428Y-72019761D01*
X181288571Y-72067380D01*
X181193333Y-72067380D01*
X182574285Y-72067380D02*
X182002857Y-72067380D01*
X182288571Y-72067380D02*
X182288571Y-71067380D01*
X182193333Y-71210238D01*
X182098095Y-71305476D01*
X182002857Y-71353095D01*
X183526666Y-72067380D02*
X182955238Y-72067380D01*
X183240952Y-72067380D02*
X183240952Y-71067380D01*
X183145714Y-71210238D01*
X183050476Y-71305476D01*
X182955238Y-71353095D01*
X184002857Y-72067380D02*
X184193333Y-72067380D01*
X184288571Y-72019761D01*
X184336190Y-71972142D01*
X184431428Y-71829285D01*
X184479047Y-71638809D01*
X184479047Y-71257857D01*
X184431428Y-71162619D01*
X184383809Y-71115000D01*
X184288571Y-71067380D01*
X184098095Y-71067380D01*
X184002857Y-71115000D01*
X183955238Y-71162619D01*
X183907619Y-71257857D01*
X183907619Y-71495952D01*
X183955238Y-71591190D01*
X184002857Y-71638809D01*
X184098095Y-71686428D01*
X184288571Y-71686428D01*
X184383809Y-71638809D01*
X184431428Y-71591190D01*
X184479047Y-71495952D01*
X180193809Y-63912380D02*
X180193809Y-62912380D01*
X180574761Y-62912380D01*
X180670000Y-62960000D01*
X180717619Y-63007619D01*
X180765238Y-63102857D01*
X180765238Y-63245714D01*
X180717619Y-63340952D01*
X180670000Y-63388571D01*
X180574761Y-63436190D01*
X180193809Y-63436190D01*
X181098571Y-62912380D02*
X181336666Y-63912380D01*
X181527142Y-63198095D01*
X181717619Y-63912380D01*
X181955714Y-62912380D01*
X182908095Y-63912380D02*
X182574761Y-63436190D01*
X182336666Y-63912380D02*
X182336666Y-62912380D01*
X182717619Y-62912380D01*
X182812857Y-62960000D01*
X182860476Y-63007619D01*
X182908095Y-63102857D01*
X182908095Y-63245714D01*
X182860476Y-63340952D01*
X182812857Y-63388571D01*
X182717619Y-63436190D01*
X182336666Y-63436190D01*
X183098571Y-64007619D02*
X183860476Y-64007619D01*
X184098571Y-63912380D02*
X184098571Y-62912380D01*
X184574761Y-63912380D02*
X184574761Y-62912380D01*
X185146190Y-63912380D01*
X185146190Y-62912380D01*
D19*
X180615809Y-68694285D02*
X181092000Y-68351428D01*
X181568190Y-68694285D01*
D13*
X181594285Y-28662380D02*
X181594285Y-29376666D01*
X181546666Y-29519523D01*
X181451428Y-29614761D01*
X181308571Y-29662380D01*
X181213333Y-29662380D01*
X182594285Y-29662380D02*
X182022857Y-29662380D01*
X182308571Y-29662380D02*
X182308571Y-28662380D01*
X182213333Y-28805238D01*
X182118095Y-28900476D01*
X182022857Y-28948095D01*
X182975238Y-28757619D02*
X183022857Y-28710000D01*
X183118095Y-28662380D01*
X183356190Y-28662380D01*
X183451428Y-28710000D01*
X183499047Y-28757619D01*
X183546666Y-28852857D01*
X183546666Y-28948095D01*
X183499047Y-29090952D01*
X182927619Y-29662380D01*
X183546666Y-29662380D01*
X184165714Y-28662380D02*
X184260952Y-28662380D01*
X184356190Y-28710000D01*
X184403809Y-28757619D01*
X184451428Y-28852857D01*
X184499047Y-29043333D01*
X184499047Y-29281428D01*
X184451428Y-29471904D01*
X184403809Y-29567142D01*
X184356190Y-29614761D01*
X184260952Y-29662380D01*
X184165714Y-29662380D01*
X184070476Y-29614761D01*
X184022857Y-29567142D01*
X183975238Y-29471904D01*
X183927619Y-29281428D01*
X183927619Y-29043333D01*
X183975238Y-28852857D01*
X184022857Y-28757619D01*
X184070476Y-28710000D01*
X184165714Y-28662380D01*
X179388095Y-37839761D02*
X179530952Y-37887380D01*
X179769047Y-37887380D01*
X179864285Y-37839761D01*
X179911904Y-37792142D01*
X179959523Y-37696904D01*
X179959523Y-37601666D01*
X179911904Y-37506428D01*
X179864285Y-37458809D01*
X179769047Y-37411190D01*
X179578571Y-37363571D01*
X179483333Y-37315952D01*
X179435714Y-37268333D01*
X179388095Y-37173095D01*
X179388095Y-37077857D01*
X179435714Y-36982619D01*
X179483333Y-36935000D01*
X179578571Y-36887380D01*
X179816666Y-36887380D01*
X179959523Y-36935000D01*
X180245238Y-37220714D02*
X180626190Y-37220714D01*
X180388095Y-36887380D02*
X180388095Y-37744523D01*
X180435714Y-37839761D01*
X180530952Y-37887380D01*
X180626190Y-37887380D01*
X181388095Y-37887380D02*
X181388095Y-37363571D01*
X181340476Y-37268333D01*
X181245238Y-37220714D01*
X181054761Y-37220714D01*
X180959523Y-37268333D01*
X181388095Y-37839761D02*
X181292857Y-37887380D01*
X181054761Y-37887380D01*
X180959523Y-37839761D01*
X180911904Y-37744523D01*
X180911904Y-37649285D01*
X180959523Y-37554047D01*
X181054761Y-37506428D01*
X181292857Y-37506428D01*
X181388095Y-37458809D01*
X181864285Y-37887380D02*
X181864285Y-37220714D01*
X181864285Y-37411190D02*
X181911904Y-37315952D01*
X181959523Y-37268333D01*
X182054761Y-37220714D01*
X182150000Y-37220714D01*
X182340476Y-37220714D02*
X182721428Y-37220714D01*
X182483333Y-36887380D02*
X182483333Y-37744523D01*
X182530952Y-37839761D01*
X182626190Y-37887380D01*
X182721428Y-37887380D01*
X183435714Y-37839761D02*
X183340476Y-37887380D01*
X183150000Y-37887380D01*
X183054761Y-37839761D01*
X183007142Y-37744523D01*
X183007142Y-37363571D01*
X183054761Y-37268333D01*
X183150000Y-37220714D01*
X183340476Y-37220714D01*
X183435714Y-37268333D01*
X183483333Y-37363571D01*
X183483333Y-37458809D01*
X183007142Y-37554047D01*
X183911904Y-37887380D02*
X183911904Y-37220714D01*
X183911904Y-37411190D02*
X183959523Y-37315952D01*
X184007142Y-37268333D01*
X184102380Y-37220714D01*
X184197619Y-37220714D01*
X184292857Y-37982619D02*
X185054761Y-37982619D01*
X185864285Y-37887380D02*
X185530952Y-37411190D01*
X185292857Y-37887380D02*
X185292857Y-36887380D01*
X185673809Y-36887380D01*
X185769047Y-36935000D01*
X185816666Y-36982619D01*
X185864285Y-37077857D01*
X185864285Y-37220714D01*
X185816666Y-37315952D01*
X185769047Y-37363571D01*
X185673809Y-37411190D01*
X185292857Y-37411190D01*
X186673809Y-37839761D02*
X186578571Y-37887380D01*
X186388095Y-37887380D01*
X186292857Y-37839761D01*
X186245238Y-37744523D01*
X186245238Y-37363571D01*
X186292857Y-37268333D01*
X186388095Y-37220714D01*
X186578571Y-37220714D01*
X186673809Y-37268333D01*
X186721428Y-37363571D01*
X186721428Y-37458809D01*
X186245238Y-37554047D01*
X187292857Y-37887380D02*
X187197619Y-37839761D01*
X187150000Y-37744523D01*
X187150000Y-36887380D01*
X188102380Y-37887380D02*
X188102380Y-37363571D01*
X188054761Y-37268333D01*
X187959523Y-37220714D01*
X187769047Y-37220714D01*
X187673809Y-37268333D01*
X188102380Y-37839761D02*
X188007142Y-37887380D01*
X187769047Y-37887380D01*
X187673809Y-37839761D01*
X187626190Y-37744523D01*
X187626190Y-37649285D01*
X187673809Y-37554047D01*
X187769047Y-37506428D01*
X188007142Y-37506428D01*
X188102380Y-37458809D01*
X188483333Y-37220714D02*
X188721428Y-37887380D01*
X188959523Y-37220714D02*
X188721428Y-37887380D01*
X188626190Y-38125476D01*
X188578571Y-38173095D01*
X188483333Y-38220714D01*
D19*
X185578809Y-35109285D02*
X186055000Y-34766428D01*
X186531190Y-35109285D01*
D13*
X162534285Y-71137380D02*
X162534285Y-71851666D01*
X162486666Y-71994523D01*
X162391428Y-72089761D01*
X162248571Y-72137380D01*
X162153333Y-72137380D01*
X163534285Y-72137380D02*
X162962857Y-72137380D01*
X163248571Y-72137380D02*
X163248571Y-71137380D01*
X163153333Y-71280238D01*
X163058095Y-71375476D01*
X162962857Y-71423095D01*
X163915238Y-71232619D02*
X163962857Y-71185000D01*
X164058095Y-71137380D01*
X164296190Y-71137380D01*
X164391428Y-71185000D01*
X164439047Y-71232619D01*
X164486666Y-71327857D01*
X164486666Y-71423095D01*
X164439047Y-71565952D01*
X163867619Y-72137380D01*
X164486666Y-72137380D01*
X164820000Y-71137380D02*
X165486666Y-71137380D01*
X165058095Y-72137380D01*
X159953333Y-63388571D02*
X160286666Y-63388571D01*
X160429523Y-63912380D02*
X159953333Y-63912380D01*
X159953333Y-62912380D01*
X160429523Y-62912380D01*
X161191428Y-63388571D02*
X160858095Y-63388571D01*
X160858095Y-63912380D02*
X160858095Y-62912380D01*
X161334285Y-62912380D01*
X161715238Y-63912380D02*
X161715238Y-62912380D01*
X161953333Y-64007619D02*
X162715238Y-64007619D01*
X162953333Y-63388571D02*
X163286666Y-63388571D01*
X163429523Y-63912380D02*
X162953333Y-63912380D01*
X162953333Y-62912380D01*
X163429523Y-62912380D01*
X163858095Y-63912380D02*
X163858095Y-62912380D01*
X164429523Y-63912380D01*
X164429523Y-62912380D01*
X164667619Y-64007619D02*
X165429523Y-64007619D01*
X165620000Y-63864761D02*
X165762857Y-63912380D01*
X166000952Y-63912380D01*
X166096190Y-63864761D01*
X166143809Y-63817142D01*
X166191428Y-63721904D01*
X166191428Y-63626666D01*
X166143809Y-63531428D01*
X166096190Y-63483809D01*
X166000952Y-63436190D01*
X165810476Y-63388571D01*
X165715238Y-63340952D01*
X165667619Y-63293333D01*
X165620000Y-63198095D01*
X165620000Y-63102857D01*
X165667619Y-63007619D01*
X165715238Y-62960000D01*
X165810476Y-62912380D01*
X166048571Y-62912380D01*
X166191428Y-62960000D01*
X166524761Y-62912380D02*
X166762857Y-63912380D01*
X166953333Y-63198095D01*
X167143809Y-63912380D01*
X167381904Y-62912380D01*
D19*
X161565809Y-68694285D02*
X162042000Y-68351428D01*
X162518190Y-68694285D01*
D13*
X161355952Y-51792142D02*
X161308333Y-51839761D01*
X161165476Y-51887380D01*
X161070238Y-51887380D01*
X160927380Y-51839761D01*
X160832142Y-51744523D01*
X160784523Y-51649285D01*
X160736904Y-51458809D01*
X160736904Y-51315952D01*
X160784523Y-51125476D01*
X160832142Y-51030238D01*
X160927380Y-50935000D01*
X161070238Y-50887380D01*
X161165476Y-50887380D01*
X161308333Y-50935000D01*
X161355952Y-50982619D01*
X162355952Y-51887380D02*
X162022619Y-51411190D01*
X161784523Y-51887380D02*
X161784523Y-50887380D01*
X162165476Y-50887380D01*
X162260714Y-50935000D01*
X162308333Y-50982619D01*
X162355952Y-51077857D01*
X162355952Y-51220714D01*
X162308333Y-51315952D01*
X162260714Y-51363571D01*
X162165476Y-51411190D01*
X161784523Y-51411190D01*
X163308333Y-51887380D02*
X162736904Y-51887380D01*
X163022619Y-51887380D02*
X163022619Y-50887380D01*
X162927380Y-51030238D01*
X162832142Y-51125476D01*
X162736904Y-51173095D01*
X163927380Y-50887380D02*
X164022619Y-50887380D01*
X164117857Y-50935000D01*
X164165476Y-50982619D01*
X164213095Y-51077857D01*
X164260714Y-51268333D01*
X164260714Y-51506428D01*
X164213095Y-51696904D01*
X164165476Y-51792142D01*
X164117857Y-51839761D01*
X164022619Y-51887380D01*
X163927380Y-51887380D01*
X163832142Y-51839761D01*
X163784523Y-51792142D01*
X163736904Y-51696904D01*
X163689285Y-51506428D01*
X163689285Y-51268333D01*
X163736904Y-51077857D01*
X163784523Y-50982619D01*
X163832142Y-50935000D01*
X163927380Y-50887380D01*
X165213095Y-51887380D02*
X164641666Y-51887380D01*
X164927380Y-51887380D02*
X164927380Y-50887380D01*
X164832142Y-51030238D01*
X164736904Y-51125476D01*
X164641666Y-51173095D01*
X132112380Y-58205476D02*
X131112380Y-58205476D01*
X131112380Y-57967380D01*
X131160000Y-57824523D01*
X131255238Y-57729285D01*
X131350476Y-57681666D01*
X131540952Y-57634047D01*
X131683809Y-57634047D01*
X131874285Y-57681666D01*
X131969523Y-57729285D01*
X132064761Y-57824523D01*
X132112380Y-57967380D01*
X132112380Y-58205476D01*
X132112380Y-56681666D02*
X132112380Y-57253095D01*
X132112380Y-56967380D02*
X131112380Y-56967380D01*
X131255238Y-57062619D01*
X131350476Y-57157857D01*
X131398095Y-57253095D01*
X131112380Y-56062619D02*
X131112380Y-55967380D01*
X131160000Y-55872142D01*
X131207619Y-55824523D01*
X131302857Y-55776904D01*
X131493333Y-55729285D01*
X131731428Y-55729285D01*
X131921904Y-55776904D01*
X132017142Y-55824523D01*
X132064761Y-55872142D01*
X132112380Y-55967380D01*
X132112380Y-56062619D01*
X132064761Y-56157857D01*
X132017142Y-56205476D01*
X131921904Y-56253095D01*
X131731428Y-56300714D01*
X131493333Y-56300714D01*
X131302857Y-56253095D01*
X131207619Y-56205476D01*
X131160000Y-56157857D01*
X131112380Y-56062619D01*
X132112380Y-54776904D02*
X132112380Y-55348333D01*
X132112380Y-55062619D02*
X131112380Y-55062619D01*
X131255238Y-55157857D01*
X131350476Y-55253095D01*
X131398095Y-55348333D01*
X124547380Y-53149285D02*
X125356904Y-53149285D01*
X125452142Y-53101666D01*
X125499761Y-53054047D01*
X125547380Y-52958809D01*
X125547380Y-52768333D01*
X125499761Y-52673095D01*
X125452142Y-52625476D01*
X125356904Y-52577857D01*
X124547380Y-52577857D01*
X125547380Y-51577857D02*
X125547380Y-52149285D01*
X125547380Y-51863571D02*
X124547380Y-51863571D01*
X124690238Y-51958809D01*
X124785476Y-52054047D01*
X124833095Y-52149285D01*
X124547380Y-50958809D02*
X124547380Y-50863571D01*
X124595000Y-50768333D01*
X124642619Y-50720714D01*
X124737857Y-50673095D01*
X124928333Y-50625476D01*
X125166428Y-50625476D01*
X125356904Y-50673095D01*
X125452142Y-50720714D01*
X125499761Y-50768333D01*
X125547380Y-50863571D01*
X125547380Y-50958809D01*
X125499761Y-51054047D01*
X125452142Y-51101666D01*
X125356904Y-51149285D01*
X125166428Y-51196904D01*
X124928333Y-51196904D01*
X124737857Y-51149285D01*
X124642619Y-51101666D01*
X124595000Y-51054047D01*
X124547380Y-50958809D01*
X125547380Y-49673095D02*
X125547380Y-50244523D01*
X125547380Y-49958809D02*
X124547380Y-49958809D01*
X124690238Y-50054047D01*
X124785476Y-50149285D01*
X124833095Y-50244523D01*
X116983095Y-47077380D02*
X117316428Y-48077380D01*
X117649761Y-47077380D01*
X118173571Y-47077380D02*
X118364047Y-47077380D01*
X118459285Y-47125000D01*
X118554523Y-47220238D01*
X118602142Y-47410714D01*
X118602142Y-47744047D01*
X118554523Y-47934523D01*
X118459285Y-48029761D01*
X118364047Y-48077380D01*
X118173571Y-48077380D01*
X118078333Y-48029761D01*
X117983095Y-47934523D01*
X117935476Y-47744047D01*
X117935476Y-47410714D01*
X117983095Y-47220238D01*
X118078333Y-47125000D01*
X118173571Y-47077380D01*
X119030714Y-47077380D02*
X119030714Y-47886904D01*
X119078333Y-47982142D01*
X119125952Y-48029761D01*
X119221190Y-48077380D01*
X119411666Y-48077380D01*
X119506904Y-48029761D01*
X119554523Y-47982142D01*
X119602142Y-47886904D01*
X119602142Y-47077380D01*
X119935476Y-47077380D02*
X120506904Y-47077380D01*
X120221190Y-48077380D02*
X120221190Y-47077380D01*
X117983095Y-49665000D02*
X117887857Y-49617380D01*
X117745000Y-49617380D01*
X117602142Y-49665000D01*
X117506904Y-49760238D01*
X117459285Y-49855476D01*
X117411666Y-50045952D01*
X117411666Y-50188809D01*
X117459285Y-50379285D01*
X117506904Y-50474523D01*
X117602142Y-50569761D01*
X117745000Y-50617380D01*
X117840238Y-50617380D01*
X117983095Y-50569761D01*
X118030714Y-50522142D01*
X118030714Y-50188809D01*
X117840238Y-50188809D01*
X118459285Y-50617380D02*
X118459285Y-49617380D01*
X119030714Y-50617380D01*
X119030714Y-49617380D01*
X119506904Y-50617380D02*
X119506904Y-49617380D01*
X119745000Y-49617380D01*
X119887857Y-49665000D01*
X119983095Y-49760238D01*
X120030714Y-49855476D01*
X120078333Y-50045952D01*
X120078333Y-50188809D01*
X120030714Y-50379285D01*
X119983095Y-50474523D01*
X119887857Y-50569761D01*
X119745000Y-50617380D01*
X119506904Y-50617380D01*
X117649761Y-52157380D02*
X117983095Y-53157380D01*
X118316428Y-52157380D01*
X118649761Y-53157380D02*
X118649761Y-52157380D01*
X119125952Y-53157380D02*
X119125952Y-52157380D01*
X119697380Y-53157380D01*
X119697380Y-52157380D01*
X116898065Y-54330000D02*
X117673571Y-54330000D01*
X116911666Y-55649761D02*
X117054523Y-55697380D01*
X117292619Y-55697380D01*
X117387857Y-55649761D01*
X117435476Y-55602142D01*
X117483095Y-55506904D01*
X117483095Y-55411666D01*
X117435476Y-55316428D01*
X117387857Y-55268809D01*
X117292619Y-55221190D01*
X117102142Y-55173571D01*
X117006904Y-55125952D01*
X116959285Y-55078333D01*
X116911666Y-54983095D01*
X116911666Y-54887857D01*
X116959285Y-54792619D01*
X117006904Y-54745000D01*
X117102142Y-54697380D01*
X117340238Y-54697380D01*
X117483095Y-54745000D01*
X117673571Y-54330000D02*
X118721190Y-54330000D01*
X117911666Y-55697380D02*
X117911666Y-54697380D01*
X117911666Y-55173571D02*
X118483095Y-55173571D01*
X118483095Y-55697380D02*
X118483095Y-54697380D01*
X118721190Y-54330000D02*
X119721190Y-54330000D01*
X118959285Y-55697380D02*
X118959285Y-54697380D01*
X119197380Y-54697380D01*
X119340238Y-54745000D01*
X119435476Y-54840238D01*
X119483095Y-54935476D01*
X119530714Y-55125952D01*
X119530714Y-55268809D01*
X119483095Y-55459285D01*
X119435476Y-55554523D01*
X119340238Y-55649761D01*
X119197380Y-55697380D01*
X118959285Y-55697380D01*
X119721190Y-54330000D02*
X120768809Y-54330000D01*
X119959285Y-55697380D02*
X119959285Y-54697380D01*
X120530714Y-55697380D01*
X120530714Y-54697380D01*
X117983095Y-58237380D02*
X117983095Y-57237380D01*
X118364047Y-57237380D01*
X118459285Y-57285000D01*
X118506904Y-57332619D01*
X118554523Y-57427857D01*
X118554523Y-57570714D01*
X118506904Y-57665952D01*
X118459285Y-57713571D01*
X118364047Y-57761190D01*
X117983095Y-57761190D01*
X119506904Y-57285000D02*
X119411666Y-57237380D01*
X119268809Y-57237380D01*
X119125952Y-57285000D01*
X119030714Y-57380238D01*
X118983095Y-57475476D01*
X118935476Y-57665952D01*
X118935476Y-57808809D01*
X118983095Y-57999285D01*
X119030714Y-58094523D01*
X119125952Y-58189761D01*
X119268809Y-58237380D01*
X119364047Y-58237380D01*
X119506904Y-58189761D01*
X119554523Y-58142142D01*
X119554523Y-57808809D01*
X119364047Y-57808809D01*
X187491619Y-50831619D02*
X187444000Y-50926857D01*
X187348761Y-51022095D01*
X187205904Y-51164952D01*
X187158285Y-51260190D01*
X187158285Y-51355428D01*
X187396380Y-51307809D02*
X187348761Y-51403047D01*
X187253523Y-51498285D01*
X187063047Y-51545904D01*
X186729714Y-51545904D01*
X186539238Y-51498285D01*
X186444000Y-51403047D01*
X186396380Y-51307809D01*
X186396380Y-51117333D01*
X186444000Y-51022095D01*
X186539238Y-50926857D01*
X186729714Y-50879238D01*
X187063047Y-50879238D01*
X187253523Y-50926857D01*
X187348761Y-51022095D01*
X187396380Y-51117333D01*
X187396380Y-51307809D01*
X187396380Y-49926857D02*
X187396380Y-50498285D01*
X187396380Y-50212571D02*
X186396380Y-50212571D01*
X186539238Y-50307809D01*
X186634476Y-50403047D01*
X186682095Y-50498285D01*
X186396380Y-49307809D02*
X186396380Y-49212571D01*
X186444000Y-49117333D01*
X186491619Y-49069714D01*
X186586857Y-49022095D01*
X186777333Y-48974476D01*
X187015428Y-48974476D01*
X187205904Y-49022095D01*
X187301142Y-49069714D01*
X187348761Y-49117333D01*
X187396380Y-49212571D01*
X187396380Y-49307809D01*
X187348761Y-49403047D01*
X187301142Y-49450666D01*
X187205904Y-49498285D01*
X187015428Y-49545904D01*
X186777333Y-49545904D01*
X186586857Y-49498285D01*
X186491619Y-49450666D01*
X186444000Y-49403047D01*
X186396380Y-49307809D01*
X187396380Y-48022095D02*
X187396380Y-48593523D01*
X187396380Y-48307809D02*
X186396380Y-48307809D01*
X186539238Y-48403047D01*
X186634476Y-48498285D01*
X186682095Y-48593523D01*
X182467380Y-61892619D02*
X182372142Y-61845000D01*
X182276904Y-61749761D01*
X182134047Y-61606904D01*
X182038809Y-61559285D01*
X181943571Y-61559285D01*
X181991190Y-61797380D02*
X181895952Y-61749761D01*
X181800714Y-61654523D01*
X181753095Y-61464047D01*
X181753095Y-61130714D01*
X181800714Y-60940238D01*
X181895952Y-60845000D01*
X181991190Y-60797380D01*
X182181666Y-60797380D01*
X182276904Y-60845000D01*
X182372142Y-60940238D01*
X182419761Y-61130714D01*
X182419761Y-61464047D01*
X182372142Y-61654523D01*
X182276904Y-61749761D01*
X182181666Y-61797380D01*
X181991190Y-61797380D01*
X183372142Y-61797380D02*
X182800714Y-61797380D01*
X183086428Y-61797380D02*
X183086428Y-60797380D01*
X182991190Y-60940238D01*
X182895952Y-61035476D01*
X182800714Y-61083095D01*
X183991190Y-60797380D02*
X184086428Y-60797380D01*
X184181666Y-60845000D01*
X184229285Y-60892619D01*
X184276904Y-60987857D01*
X184324523Y-61178333D01*
X184324523Y-61416428D01*
X184276904Y-61606904D01*
X184229285Y-61702142D01*
X184181666Y-61749761D01*
X184086428Y-61797380D01*
X183991190Y-61797380D01*
X183895952Y-61749761D01*
X183848333Y-61702142D01*
X183800714Y-61606904D01*
X183753095Y-61416428D01*
X183753095Y-61178333D01*
X183800714Y-60987857D01*
X183848333Y-60892619D01*
X183895952Y-60845000D01*
X183991190Y-60797380D01*
X184705476Y-60892619D02*
X184753095Y-60845000D01*
X184848333Y-60797380D01*
X185086428Y-60797380D01*
X185181666Y-60845000D01*
X185229285Y-60892619D01*
X185276904Y-60987857D01*
X185276904Y-61083095D01*
X185229285Y-61225952D01*
X184657857Y-61797380D01*
X185276904Y-61797380D01*
X186174571Y-55300571D02*
X186507904Y-55300571D01*
X186650761Y-55824380D02*
X186174571Y-55824380D01*
X186174571Y-54824380D01*
X186650761Y-54824380D01*
X187412666Y-55300571D02*
X187079333Y-55300571D01*
X187079333Y-55824380D02*
X187079333Y-54824380D01*
X187555523Y-54824380D01*
X187936476Y-55824380D02*
X187936476Y-54824380D01*
X188174571Y-55919619D02*
X188936476Y-55919619D01*
X189365047Y-54824380D02*
X189555523Y-54824380D01*
X189650761Y-54872000D01*
X189746000Y-54967238D01*
X189793619Y-55157714D01*
X189793619Y-55491047D01*
X189746000Y-55681523D01*
X189650761Y-55776761D01*
X189555523Y-55824380D01*
X189365047Y-55824380D01*
X189269809Y-55776761D01*
X189174571Y-55681523D01*
X189126952Y-55491047D01*
X189126952Y-55157714D01*
X189174571Y-54967238D01*
X189269809Y-54872000D01*
X189365047Y-54824380D01*
X190222190Y-55157714D02*
X190222190Y-55824380D01*
X190222190Y-55252952D02*
X190269809Y-55205333D01*
X190365047Y-55157714D01*
X190507904Y-55157714D01*
X190603142Y-55205333D01*
X190650761Y-55300571D01*
X190650761Y-55824380D01*
X190888857Y-55919619D02*
X191650761Y-55919619D01*
X192460285Y-55729142D02*
X192412666Y-55776761D01*
X192269809Y-55824380D01*
X192174571Y-55824380D01*
X192031714Y-55776761D01*
X191936476Y-55681523D01*
X191888857Y-55586285D01*
X191841238Y-55395809D01*
X191841238Y-55252952D01*
X191888857Y-55062476D01*
X191936476Y-54967238D01*
X192031714Y-54872000D01*
X192174571Y-54824380D01*
X192269809Y-54824380D01*
X192412666Y-54872000D01*
X192460285Y-54919619D01*
X192841238Y-55538666D02*
X193317428Y-55538666D01*
X192746000Y-55824380D02*
X193079333Y-54824380D01*
X193412666Y-55824380D01*
X193746000Y-55824380D02*
X193746000Y-54824380D01*
X194317428Y-55824380D01*
X194317428Y-54824380D01*
X185801523Y-42060761D02*
X185944380Y-42108380D01*
X186182476Y-42108380D01*
X186277714Y-42060761D01*
X186325333Y-42013142D01*
X186372952Y-41917904D01*
X186372952Y-41822666D01*
X186325333Y-41727428D01*
X186277714Y-41679809D01*
X186182476Y-41632190D01*
X185992000Y-41584571D01*
X185896761Y-41536952D01*
X185849142Y-41489333D01*
X185801523Y-41394095D01*
X185801523Y-41298857D01*
X185849142Y-41203619D01*
X185896761Y-41156000D01*
X185992000Y-41108380D01*
X186230095Y-41108380D01*
X186372952Y-41156000D01*
X186658666Y-41441714D02*
X187039619Y-41441714D01*
X186801523Y-41108380D02*
X186801523Y-41965523D01*
X186849142Y-42060761D01*
X186944380Y-42108380D01*
X187039619Y-42108380D01*
X187801523Y-42108380D02*
X187801523Y-41584571D01*
X187753904Y-41489333D01*
X187658666Y-41441714D01*
X187468190Y-41441714D01*
X187372952Y-41489333D01*
X187801523Y-42060761D02*
X187706285Y-42108380D01*
X187468190Y-42108380D01*
X187372952Y-42060761D01*
X187325333Y-41965523D01*
X187325333Y-41870285D01*
X187372952Y-41775047D01*
X187468190Y-41727428D01*
X187706285Y-41727428D01*
X187801523Y-41679809D01*
X188277714Y-42108380D02*
X188277714Y-41441714D01*
X188277714Y-41632190D02*
X188325333Y-41536952D01*
X188372952Y-41489333D01*
X188468190Y-41441714D01*
X188563428Y-41441714D01*
X188753904Y-41441714D02*
X189134857Y-41441714D01*
X188896761Y-41108380D02*
X188896761Y-41965523D01*
X188944380Y-42060761D01*
X189039619Y-42108380D01*
X189134857Y-42108380D01*
X189849142Y-42060761D02*
X189753904Y-42108380D01*
X189563428Y-42108380D01*
X189468190Y-42060761D01*
X189420571Y-41965523D01*
X189420571Y-41584571D01*
X189468190Y-41489333D01*
X189563428Y-41441714D01*
X189753904Y-41441714D01*
X189849142Y-41489333D01*
X189896761Y-41584571D01*
X189896761Y-41679809D01*
X189420571Y-41775047D01*
X190325333Y-42108380D02*
X190325333Y-41441714D01*
X190325333Y-41632190D02*
X190372952Y-41536952D01*
X190420571Y-41489333D01*
X190515809Y-41441714D01*
X190611047Y-41441714D01*
X190706285Y-42203619D02*
X191468190Y-42203619D01*
X192277714Y-42013142D02*
X192230095Y-42060761D01*
X192087238Y-42108380D01*
X191992000Y-42108380D01*
X191849142Y-42060761D01*
X191753904Y-41965523D01*
X191706285Y-41870285D01*
X191658666Y-41679809D01*
X191658666Y-41536952D01*
X191706285Y-41346476D01*
X191753904Y-41251238D01*
X191849142Y-41156000D01*
X191992000Y-41108380D01*
X192087238Y-41108380D01*
X192230095Y-41156000D01*
X192277714Y-41203619D01*
X192658666Y-41822666D02*
X193134857Y-41822666D01*
X192563428Y-42108380D02*
X192896761Y-41108380D01*
X193230095Y-42108380D01*
X193563428Y-42108380D02*
X193563428Y-41108380D01*
X194134857Y-42108380D01*
X194134857Y-41108380D01*
X135977380Y-51141190D02*
X135977380Y-51617380D01*
X136453571Y-51665000D01*
X136405952Y-51617380D01*
X136358333Y-51522142D01*
X136358333Y-51284047D01*
X136405952Y-51188809D01*
X136453571Y-51141190D01*
X136548809Y-51093571D01*
X136786904Y-51093571D01*
X136882142Y-51141190D01*
X136929761Y-51188809D01*
X136977380Y-51284047D01*
X136977380Y-51522142D01*
X136929761Y-51617380D01*
X136882142Y-51665000D01*
X136882142Y-50665000D02*
X136929761Y-50617380D01*
X136977380Y-50665000D01*
X136929761Y-50712619D01*
X136882142Y-50665000D01*
X136977380Y-50665000D01*
X136977380Y-49665000D02*
X136977380Y-50236428D01*
X136977380Y-49950714D02*
X135977380Y-49950714D01*
X136120238Y-50045952D01*
X136215476Y-50141190D01*
X136263095Y-50236428D01*
X136977380Y-49236428D02*
X135977380Y-49236428D01*
X136977380Y-48665000D02*
X136405952Y-49093571D01*
X135977380Y-48665000D02*
X136548809Y-49236428D01*
X179157380Y-47902619D02*
X179157380Y-47283571D01*
X179538333Y-47616904D01*
X179538333Y-47474047D01*
X179585952Y-47378809D01*
X179633571Y-47331190D01*
X179728809Y-47283571D01*
X179966904Y-47283571D01*
X180062142Y-47331190D01*
X180109761Y-47378809D01*
X180157380Y-47474047D01*
X180157380Y-47759761D01*
X180109761Y-47855000D01*
X180062142Y-47902619D01*
X180062142Y-46855000D02*
X180109761Y-46807380D01*
X180157380Y-46855000D01*
X180109761Y-46902619D01*
X180062142Y-46855000D01*
X180157380Y-46855000D01*
X179157380Y-46474047D02*
X179157380Y-45855000D01*
X179538333Y-46188333D01*
X179538333Y-46045476D01*
X179585952Y-45950238D01*
X179633571Y-45902619D01*
X179728809Y-45855000D01*
X179966904Y-45855000D01*
X180062142Y-45902619D01*
X180109761Y-45950238D01*
X180157380Y-46045476D01*
X180157380Y-46331190D01*
X180109761Y-46426428D01*
X180062142Y-46474047D01*
X180157380Y-45426428D02*
X179157380Y-45426428D01*
X180157380Y-44855000D02*
X179585952Y-45283571D01*
X179157380Y-44855000D02*
X179728809Y-45426428D01*
X184237380Y-47664523D02*
X184237380Y-46997857D01*
X185237380Y-47426428D01*
X184237380Y-46140714D02*
X184237380Y-46616904D01*
X184713571Y-46664523D01*
X184665952Y-46616904D01*
X184618333Y-46521666D01*
X184618333Y-46283571D01*
X184665952Y-46188333D01*
X184713571Y-46140714D01*
X184808809Y-46093095D01*
X185046904Y-46093095D01*
X185142142Y-46140714D01*
X185189761Y-46188333D01*
X185237380Y-46283571D01*
X185237380Y-46521666D01*
X185189761Y-46616904D01*
X185142142Y-46664523D01*
X185237380Y-45664523D02*
X184237380Y-45664523D01*
X185237380Y-45093095D02*
X184665952Y-45521666D01*
X184237380Y-45093095D02*
X184808809Y-45664523D01*
X176617380Y-47640714D02*
X176617380Y-47021666D01*
X176998333Y-47355000D01*
X176998333Y-47212142D01*
X177045952Y-47116904D01*
X177093571Y-47069285D01*
X177188809Y-47021666D01*
X177426904Y-47021666D01*
X177522142Y-47069285D01*
X177569761Y-47116904D01*
X177617380Y-47212142D01*
X177617380Y-47497857D01*
X177569761Y-47593095D01*
X177522142Y-47640714D01*
X176617380Y-46688333D02*
X176617380Y-46069285D01*
X176998333Y-46402619D01*
X176998333Y-46259761D01*
X177045952Y-46164523D01*
X177093571Y-46116904D01*
X177188809Y-46069285D01*
X177426904Y-46069285D01*
X177522142Y-46116904D01*
X177569761Y-46164523D01*
X177617380Y-46259761D01*
X177617380Y-46545476D01*
X177569761Y-46640714D01*
X177522142Y-46688333D01*
X176617380Y-45450238D02*
X176617380Y-45355000D01*
X176665000Y-45259761D01*
X176712619Y-45212142D01*
X176807857Y-45164523D01*
X176998333Y-45116904D01*
X177236428Y-45116904D01*
X177426904Y-45164523D01*
X177522142Y-45212142D01*
X177569761Y-45259761D01*
X177617380Y-45355000D01*
X177617380Y-45450238D01*
X177569761Y-45545476D01*
X177522142Y-45593095D01*
X177426904Y-45640714D01*
X177236428Y-45688333D01*
X176998333Y-45688333D01*
X176807857Y-45640714D01*
X176712619Y-45593095D01*
X176665000Y-45545476D01*
X176617380Y-45450238D01*
X173315476Y-57872380D02*
X173982142Y-57872380D01*
X173553571Y-58872380D01*
X174839285Y-57872380D02*
X174363095Y-57872380D01*
X174315476Y-58348571D01*
X174363095Y-58300952D01*
X174458333Y-58253333D01*
X174696428Y-58253333D01*
X174791666Y-58300952D01*
X174839285Y-58348571D01*
X174886904Y-58443809D01*
X174886904Y-58681904D01*
X174839285Y-58777142D01*
X174791666Y-58824761D01*
X174696428Y-58872380D01*
X174458333Y-58872380D01*
X174363095Y-58824761D01*
X174315476Y-58777142D01*
X175315476Y-58872380D02*
X175315476Y-57872380D01*
X175886904Y-58872380D02*
X175458333Y-58300952D01*
X175886904Y-57872380D02*
X175315476Y-58443809D01*
X182697380Y-47045476D02*
X182697380Y-47616904D01*
X182697380Y-47331190D02*
X181697380Y-47331190D01*
X181840238Y-47426428D01*
X181935476Y-47521666D01*
X181983095Y-47616904D01*
X182125952Y-46474047D02*
X182078333Y-46569285D01*
X182030714Y-46616904D01*
X181935476Y-46664523D01*
X181887857Y-46664523D01*
X181792619Y-46616904D01*
X181745000Y-46569285D01*
X181697380Y-46474047D01*
X181697380Y-46283571D01*
X181745000Y-46188333D01*
X181792619Y-46140714D01*
X181887857Y-46093095D01*
X181935476Y-46093095D01*
X182030714Y-46140714D01*
X182078333Y-46188333D01*
X182125952Y-46283571D01*
X182125952Y-46474047D01*
X182173571Y-46569285D01*
X182221190Y-46616904D01*
X182316428Y-46664523D01*
X182506904Y-46664523D01*
X182602142Y-46616904D01*
X182649761Y-46569285D01*
X182697380Y-46474047D01*
X182697380Y-46283571D01*
X182649761Y-46188333D01*
X182602142Y-46140714D01*
X182506904Y-46093095D01*
X182316428Y-46093095D01*
X182221190Y-46140714D01*
X182173571Y-46188333D01*
X182125952Y-46283571D01*
X182697380Y-45664523D02*
X181697380Y-45664523D01*
X182697380Y-45093095D02*
X182125952Y-45521666D01*
X181697380Y-45093095D02*
X182268809Y-45664523D01*
X165949523Y-53157380D02*
X165949523Y-52157380D01*
X166187619Y-52157380D01*
X166330476Y-52205000D01*
X166425714Y-52300238D01*
X166473333Y-52395476D01*
X166520952Y-52585952D01*
X166520952Y-52728809D01*
X166473333Y-52919285D01*
X166425714Y-53014523D01*
X166330476Y-53109761D01*
X166187619Y-53157380D01*
X165949523Y-53157380D01*
X167473333Y-53157380D02*
X166901904Y-53157380D01*
X167187619Y-53157380D02*
X167187619Y-52157380D01*
X167092380Y-52300238D01*
X166997142Y-52395476D01*
X166901904Y-52443095D01*
X168092380Y-52157380D02*
X168187619Y-52157380D01*
X168282857Y-52205000D01*
X168330476Y-52252619D01*
X168378095Y-52347857D01*
X168425714Y-52538333D01*
X168425714Y-52776428D01*
X168378095Y-52966904D01*
X168330476Y-53062142D01*
X168282857Y-53109761D01*
X168187619Y-53157380D01*
X168092380Y-53157380D01*
X167997142Y-53109761D01*
X167949523Y-53062142D01*
X167901904Y-52966904D01*
X167854285Y-52776428D01*
X167854285Y-52538333D01*
X167901904Y-52347857D01*
X167949523Y-52252619D01*
X167997142Y-52205000D01*
X168092380Y-52157380D01*
X168806666Y-52252619D02*
X168854285Y-52205000D01*
X168949523Y-52157380D01*
X169187619Y-52157380D01*
X169282857Y-52205000D01*
X169330476Y-52252619D01*
X169378095Y-52347857D01*
X169378095Y-52443095D01*
X169330476Y-52585952D01*
X168759047Y-53157380D01*
X169378095Y-53157380D01*
X165949523Y-56332380D02*
X165949523Y-55332380D01*
X166187619Y-55332380D01*
X166330476Y-55380000D01*
X166425714Y-55475238D01*
X166473333Y-55570476D01*
X166520952Y-55760952D01*
X166520952Y-55903809D01*
X166473333Y-56094285D01*
X166425714Y-56189523D01*
X166330476Y-56284761D01*
X166187619Y-56332380D01*
X165949523Y-56332380D01*
X167473333Y-56332380D02*
X166901904Y-56332380D01*
X167187619Y-56332380D02*
X167187619Y-55332380D01*
X167092380Y-55475238D01*
X166997142Y-55570476D01*
X166901904Y-55618095D01*
X168092380Y-55332380D02*
X168187619Y-55332380D01*
X168282857Y-55380000D01*
X168330476Y-55427619D01*
X168378095Y-55522857D01*
X168425714Y-55713333D01*
X168425714Y-55951428D01*
X168378095Y-56141904D01*
X168330476Y-56237142D01*
X168282857Y-56284761D01*
X168187619Y-56332380D01*
X168092380Y-56332380D01*
X167997142Y-56284761D01*
X167949523Y-56237142D01*
X167901904Y-56141904D01*
X167854285Y-55951428D01*
X167854285Y-55713333D01*
X167901904Y-55522857D01*
X167949523Y-55427619D01*
X167997142Y-55380000D01*
X168092380Y-55332380D01*
X168759047Y-55332380D02*
X169378095Y-55332380D01*
X169044761Y-55713333D01*
X169187619Y-55713333D01*
X169282857Y-55760952D01*
X169330476Y-55808571D01*
X169378095Y-55903809D01*
X169378095Y-56141904D01*
X169330476Y-56237142D01*
X169282857Y-56284761D01*
X169187619Y-56332380D01*
X168901904Y-56332380D01*
X168806666Y-56284761D01*
X168759047Y-56237142D01*
M02*
