G04 #@! TF.FileFunction,Legend,Top*
%FSLAX46Y46*%
G04 Gerber Fmt 4.6, Leading zero omitted, Abs format (unit mm)*
G04 Created by KiCad (PCBNEW 4.0.7) date Fri Feb 23 12:26:53 2018*
%MOMM*%
%LPD*%
G01*
G04 APERTURE LIST*
%ADD10C,0.100000*%
%ADD11C,0.181356*%
%ADD12C,0.076200*%
%ADD13C,0.200000*%
%ADD14C,0.300000*%
%ADD15C,0.152400*%
%ADD16C,0.150000*%
%ADD17C,0.120000*%
%ADD18C,0.357000*%
%ADD19C,0.210000*%
G04 APERTURE END LIST*
D10*
D11*
X189995024Y-31526238D02*
X189995024Y-31284333D01*
X189934548Y-31163381D01*
X189874071Y-31102905D01*
X189692643Y-30981952D01*
X189450738Y-30921476D01*
X188966929Y-30921476D01*
X188845976Y-30981952D01*
X188785500Y-31042428D01*
X188725024Y-31163381D01*
X188725024Y-31405285D01*
X188785500Y-31526238D01*
X188845976Y-31586714D01*
X188966929Y-31647190D01*
X189269310Y-31647190D01*
X189390262Y-31586714D01*
X189450738Y-31526238D01*
X189511214Y-31405285D01*
X189511214Y-31163381D01*
X189450738Y-31042428D01*
X189390262Y-30981952D01*
X189269310Y-30921476D01*
X190478833Y-29046714D02*
X190418357Y-29107190D01*
X190236929Y-29228142D01*
X190115976Y-29288619D01*
X189934548Y-29349095D01*
X189632167Y-29409571D01*
X189390262Y-29409571D01*
X189087881Y-29349095D01*
X188906452Y-29288619D01*
X188785500Y-29228142D01*
X188604071Y-29107190D01*
X188543595Y-29046714D01*
X189329786Y-28139571D02*
X189390262Y-27958142D01*
X189450738Y-27897666D01*
X189571690Y-27837190D01*
X189753119Y-27837190D01*
X189874071Y-27897666D01*
X189934548Y-27958142D01*
X189995024Y-28079095D01*
X189995024Y-28562904D01*
X188725024Y-28562904D01*
X188725024Y-28139571D01*
X188785500Y-28018618D01*
X188845976Y-27958142D01*
X188966929Y-27897666D01*
X189087881Y-27897666D01*
X189208833Y-27958142D01*
X189269310Y-28018618D01*
X189329786Y-28139571D01*
X189329786Y-28562904D01*
X189995024Y-26748618D02*
X189329786Y-26748618D01*
X189208833Y-26809095D01*
X189148357Y-26930047D01*
X189148357Y-27171952D01*
X189208833Y-27292904D01*
X189934548Y-26748618D02*
X189995024Y-26869571D01*
X189995024Y-27171952D01*
X189934548Y-27292904D01*
X189813595Y-27353380D01*
X189692643Y-27353380D01*
X189571690Y-27292904D01*
X189511214Y-27171952D01*
X189511214Y-26869571D01*
X189450738Y-26748618D01*
X189934548Y-25599570D02*
X189995024Y-25720523D01*
X189995024Y-25962427D01*
X189934548Y-26083380D01*
X189874071Y-26143856D01*
X189753119Y-26204332D01*
X189390262Y-26204332D01*
X189269310Y-26143856D01*
X189208833Y-26083380D01*
X189148357Y-25962427D01*
X189148357Y-25720523D01*
X189208833Y-25599570D01*
X189995024Y-25055285D02*
X188725024Y-25055285D01*
X189511214Y-24934333D02*
X189995024Y-24571476D01*
X189148357Y-24571476D02*
X189632167Y-25055285D01*
X190478833Y-24148142D02*
X190418357Y-24087666D01*
X190236929Y-23966714D01*
X190115976Y-23906238D01*
X189934548Y-23845761D01*
X189632167Y-23785285D01*
X189390262Y-23785285D01*
X189087881Y-23845761D01*
X188906452Y-23906238D01*
X188785500Y-23966714D01*
X188604071Y-24087666D01*
X188543595Y-24148142D01*
X109350024Y-31169428D02*
X109350024Y-31411333D01*
X109410500Y-31532285D01*
X109470976Y-31592762D01*
X109652405Y-31713714D01*
X109894310Y-31774190D01*
X110378119Y-31774190D01*
X110499071Y-31713714D01*
X110559548Y-31653238D01*
X110620024Y-31532285D01*
X110620024Y-31290381D01*
X110559548Y-31169428D01*
X110499071Y-31108952D01*
X110378119Y-31048476D01*
X110075738Y-31048476D01*
X109954786Y-31108952D01*
X109894310Y-31169428D01*
X109833833Y-31290381D01*
X109833833Y-31532285D01*
X109894310Y-31653238D01*
X109954786Y-31713714D01*
X110075738Y-31774190D01*
X111103833Y-29173714D02*
X111043357Y-29234190D01*
X110861929Y-29355142D01*
X110740976Y-29415619D01*
X110559548Y-29476095D01*
X110257167Y-29536571D01*
X110015262Y-29536571D01*
X109712881Y-29476095D01*
X109531452Y-29415619D01*
X109410500Y-29355142D01*
X109229071Y-29234190D01*
X109168595Y-29173714D01*
X109954786Y-28266571D02*
X110015262Y-28085142D01*
X110075738Y-28024666D01*
X110196690Y-27964190D01*
X110378119Y-27964190D01*
X110499071Y-28024666D01*
X110559548Y-28085142D01*
X110620024Y-28206095D01*
X110620024Y-28689904D01*
X109350024Y-28689904D01*
X109350024Y-28266571D01*
X109410500Y-28145618D01*
X109470976Y-28085142D01*
X109591929Y-28024666D01*
X109712881Y-28024666D01*
X109833833Y-28085142D01*
X109894310Y-28145618D01*
X109954786Y-28266571D01*
X109954786Y-28689904D01*
X110620024Y-26875618D02*
X109954786Y-26875618D01*
X109833833Y-26936095D01*
X109773357Y-27057047D01*
X109773357Y-27298952D01*
X109833833Y-27419904D01*
X110559548Y-26875618D02*
X110620024Y-26996571D01*
X110620024Y-27298952D01*
X110559548Y-27419904D01*
X110438595Y-27480380D01*
X110317643Y-27480380D01*
X110196690Y-27419904D01*
X110136214Y-27298952D01*
X110136214Y-26996571D01*
X110075738Y-26875618D01*
X110559548Y-25726570D02*
X110620024Y-25847523D01*
X110620024Y-26089427D01*
X110559548Y-26210380D01*
X110499071Y-26270856D01*
X110378119Y-26331332D01*
X110015262Y-26331332D01*
X109894310Y-26270856D01*
X109833833Y-26210380D01*
X109773357Y-26089427D01*
X109773357Y-25847523D01*
X109833833Y-25726570D01*
X110620024Y-25182285D02*
X109350024Y-25182285D01*
X110136214Y-25061333D02*
X110620024Y-24698476D01*
X109773357Y-24698476D02*
X110257167Y-25182285D01*
X111103833Y-24275142D02*
X111043357Y-24214666D01*
X110861929Y-24093714D01*
X110740976Y-24033238D01*
X110559548Y-23972761D01*
X110257167Y-23912285D01*
X110015262Y-23912285D01*
X109712881Y-23972761D01*
X109531452Y-24033238D01*
X109410500Y-24093714D01*
X109229071Y-24214666D01*
X109168595Y-24275142D01*
X175777071Y-45834905D02*
X175837548Y-45895381D01*
X175898024Y-46076810D01*
X175898024Y-46197762D01*
X175837548Y-46379190D01*
X175716595Y-46500143D01*
X175595643Y-46560619D01*
X175353738Y-46621095D01*
X175172310Y-46621095D01*
X174930405Y-46560619D01*
X174809452Y-46500143D01*
X174688500Y-46379190D01*
X174628024Y-46197762D01*
X174628024Y-46076810D01*
X174688500Y-45895381D01*
X174748976Y-45834905D01*
D12*
X189789054Y-65506707D02*
X189789054Y-64706709D01*
X190093815Y-64706709D01*
X190170005Y-64744804D01*
X190208100Y-64782899D01*
X190246195Y-64859089D01*
X190246195Y-64973375D01*
X190208100Y-65049565D01*
X190170005Y-65087660D01*
X190093815Y-65125755D01*
X189789054Y-65125755D01*
X190512861Y-64706709D02*
X190703337Y-65506707D01*
X190855718Y-64935280D01*
X191008098Y-65506707D01*
X191198574Y-64706709D01*
X191960476Y-65506707D02*
X191693810Y-65125755D01*
X191503335Y-65506707D02*
X191503335Y-64706709D01*
X191808096Y-64706709D01*
X191884286Y-64744804D01*
X191922381Y-64782899D01*
X191960476Y-64859089D01*
X191960476Y-64973375D01*
X191922381Y-65049565D01*
X191884286Y-65087660D01*
X191808096Y-65125755D01*
X191503335Y-65125755D01*
X192112857Y-65582897D02*
X192722379Y-65582897D01*
X192912855Y-65506707D02*
X192912855Y-64706709D01*
X193293806Y-65506707D02*
X193293806Y-64706709D01*
X193750947Y-65506707D01*
X193750947Y-64706709D01*
X190284289Y-66782904D02*
X189827148Y-66782904D01*
X190055718Y-66782904D02*
X190055718Y-65982906D01*
X189979528Y-66097191D01*
X189903338Y-66173382D01*
X189827148Y-66211477D01*
X190627146Y-66478143D02*
X191236668Y-66478143D01*
X192036666Y-66021001D02*
X191960476Y-65982906D01*
X191846191Y-65982906D01*
X191731905Y-66021001D01*
X191655715Y-66097191D01*
X191617620Y-66173382D01*
X191579525Y-66325762D01*
X191579525Y-66440048D01*
X191617620Y-66592428D01*
X191655715Y-66668618D01*
X191731905Y-66744809D01*
X191846191Y-66782904D01*
X191922381Y-66782904D01*
X192036666Y-66744809D01*
X192074761Y-66706714D01*
X192074761Y-66440048D01*
X191922381Y-66440048D01*
X192417618Y-66782904D02*
X192417618Y-65982906D01*
X192874759Y-66782904D01*
X192874759Y-65982906D01*
X193255711Y-66782904D02*
X193255711Y-65982906D01*
X193446186Y-65982906D01*
X193560472Y-66021001D01*
X193636662Y-66097191D01*
X193674757Y-66173382D01*
X193712852Y-66325762D01*
X193712852Y-66440048D01*
X193674757Y-66592428D01*
X193636662Y-66668618D01*
X193560472Y-66744809D01*
X193446186Y-66782904D01*
X193255711Y-66782904D01*
X189484292Y-67335293D02*
X189522387Y-67297198D01*
X189598577Y-67259103D01*
X189789053Y-67259103D01*
X189865243Y-67297198D01*
X189903338Y-67335293D01*
X189941433Y-67411483D01*
X189941433Y-67487674D01*
X189903338Y-67601959D01*
X189446196Y-68059101D01*
X189941433Y-68059101D01*
X190284290Y-67754340D02*
X190893812Y-67754340D01*
X191274764Y-67754340D02*
X191884286Y-67754340D01*
X191579525Y-68059101D02*
X191579525Y-67449579D01*
X192684284Y-68059101D02*
X192227143Y-68059101D01*
X192455713Y-68059101D02*
X192455713Y-67259103D01*
X192379523Y-67373388D01*
X192303333Y-67449579D01*
X192227143Y-67487674D01*
X192989046Y-67335293D02*
X193027141Y-67297198D01*
X193103331Y-67259103D01*
X193293807Y-67259103D01*
X193369997Y-67297198D01*
X193408092Y-67335293D01*
X193446187Y-67411483D01*
X193446187Y-67487674D01*
X193408092Y-67601959D01*
X192950950Y-68059101D01*
X193446187Y-68059101D01*
X193712853Y-67525769D02*
X193903329Y-68059101D01*
X194093805Y-67525769D01*
D13*
X182277238Y-60054381D02*
X182277238Y-59054381D01*
X182848667Y-60054381D02*
X182420095Y-59482952D01*
X182848667Y-59054381D02*
X182277238Y-59625810D01*
X183705810Y-60054381D02*
X183705810Y-59530571D01*
X183658191Y-59435333D01*
X183562953Y-59387714D01*
X183372476Y-59387714D01*
X183277238Y-59435333D01*
X183705810Y-60006762D02*
X183610572Y-60054381D01*
X183372476Y-60054381D01*
X183277238Y-60006762D01*
X183229619Y-59911524D01*
X183229619Y-59816286D01*
X183277238Y-59721048D01*
X183372476Y-59673429D01*
X183610572Y-59673429D01*
X183705810Y-59625810D01*
X184182000Y-60054381D02*
X184182000Y-59387714D01*
X184182000Y-59578190D02*
X184229619Y-59482952D01*
X184277238Y-59435333D01*
X184372476Y-59387714D01*
X184467715Y-59387714D01*
X184801048Y-60054381D02*
X184801048Y-59054381D01*
X184896286Y-59673429D02*
X185182001Y-60054381D01*
X185182001Y-59387714D02*
X184801048Y-59768667D01*
X186372477Y-60054381D02*
X186372477Y-59054381D01*
X186705811Y-59768667D01*
X187039144Y-59054381D01*
X187039144Y-60054381D01*
X187943906Y-60054381D02*
X187943906Y-59530571D01*
X187896287Y-59435333D01*
X187801049Y-59387714D01*
X187610572Y-59387714D01*
X187515334Y-59435333D01*
X187943906Y-60006762D02*
X187848668Y-60054381D01*
X187610572Y-60054381D01*
X187515334Y-60006762D01*
X187467715Y-59911524D01*
X187467715Y-59816286D01*
X187515334Y-59721048D01*
X187610572Y-59673429D01*
X187848668Y-59673429D01*
X187943906Y-59625810D01*
X188420096Y-60054381D02*
X188420096Y-59387714D01*
X188420096Y-59054381D02*
X188372477Y-59102000D01*
X188420096Y-59149619D01*
X188467715Y-59102000D01*
X188420096Y-59054381D01*
X188420096Y-59149619D01*
X188896286Y-59387714D02*
X188896286Y-60054381D01*
X188896286Y-59482952D02*
X188943905Y-59435333D01*
X189039143Y-59387714D01*
X189182001Y-59387714D01*
X189277239Y-59435333D01*
X189324858Y-59530571D01*
X189324858Y-60054381D01*
X181658190Y-61754381D02*
X181658190Y-60754381D01*
X182039143Y-60754381D01*
X182134381Y-60802000D01*
X182182000Y-60849619D01*
X182229619Y-60944857D01*
X182229619Y-61087714D01*
X182182000Y-61182952D01*
X182134381Y-61230571D01*
X182039143Y-61278190D01*
X181658190Y-61278190D01*
X182801047Y-61754381D02*
X182705809Y-61706762D01*
X182658190Y-61659143D01*
X182610571Y-61563905D01*
X182610571Y-61278190D01*
X182658190Y-61182952D01*
X182705809Y-61135333D01*
X182801047Y-61087714D01*
X182943905Y-61087714D01*
X183039143Y-61135333D01*
X183086762Y-61182952D01*
X183134381Y-61278190D01*
X183134381Y-61563905D01*
X183086762Y-61659143D01*
X183039143Y-61706762D01*
X182943905Y-61754381D01*
X182801047Y-61754381D01*
X183467714Y-61087714D02*
X183658190Y-61754381D01*
X183848667Y-61278190D01*
X184039143Y-61754381D01*
X184229619Y-61087714D01*
X184991524Y-61706762D02*
X184896286Y-61754381D01*
X184705809Y-61754381D01*
X184610571Y-61706762D01*
X184562952Y-61611524D01*
X184562952Y-61230571D01*
X184610571Y-61135333D01*
X184705809Y-61087714D01*
X184896286Y-61087714D01*
X184991524Y-61135333D01*
X185039143Y-61230571D01*
X185039143Y-61325810D01*
X184562952Y-61421048D01*
X185467714Y-61754381D02*
X185467714Y-61087714D01*
X185467714Y-61278190D02*
X185515333Y-61182952D01*
X185562952Y-61135333D01*
X185658190Y-61087714D01*
X185753429Y-61087714D01*
X187182001Y-61230571D02*
X187324858Y-61278190D01*
X187372477Y-61325810D01*
X187420096Y-61421048D01*
X187420096Y-61563905D01*
X187372477Y-61659143D01*
X187324858Y-61706762D01*
X187229620Y-61754381D01*
X186848667Y-61754381D01*
X186848667Y-60754381D01*
X187182001Y-60754381D01*
X187277239Y-60802000D01*
X187324858Y-60849619D01*
X187372477Y-60944857D01*
X187372477Y-61040095D01*
X187324858Y-61135333D01*
X187277239Y-61182952D01*
X187182001Y-61230571D01*
X186848667Y-61230571D01*
X187991524Y-61754381D02*
X187896286Y-61706762D01*
X187848667Y-61659143D01*
X187801048Y-61563905D01*
X187801048Y-61278190D01*
X187848667Y-61182952D01*
X187896286Y-61135333D01*
X187991524Y-61087714D01*
X188134382Y-61087714D01*
X188229620Y-61135333D01*
X188277239Y-61182952D01*
X188324858Y-61278190D01*
X188324858Y-61563905D01*
X188277239Y-61659143D01*
X188229620Y-61706762D01*
X188134382Y-61754381D01*
X187991524Y-61754381D01*
X189182001Y-61754381D02*
X189182001Y-61230571D01*
X189134382Y-61135333D01*
X189039144Y-61087714D01*
X188848667Y-61087714D01*
X188753429Y-61135333D01*
X189182001Y-61706762D02*
X189086763Y-61754381D01*
X188848667Y-61754381D01*
X188753429Y-61706762D01*
X188705810Y-61611524D01*
X188705810Y-61516286D01*
X188753429Y-61421048D01*
X188848667Y-61373429D01*
X189086763Y-61373429D01*
X189182001Y-61325810D01*
X189658191Y-61754381D02*
X189658191Y-61087714D01*
X189658191Y-61278190D02*
X189705810Y-61182952D01*
X189753429Y-61135333D01*
X189848667Y-61087714D01*
X189943906Y-61087714D01*
X190705811Y-61754381D02*
X190705811Y-60754381D01*
X190705811Y-61706762D02*
X190610573Y-61754381D01*
X190420096Y-61754381D01*
X190324858Y-61706762D01*
X190277239Y-61659143D01*
X190229620Y-61563905D01*
X190229620Y-61278190D01*
X190277239Y-61182952D01*
X190324858Y-61135333D01*
X190420096Y-61087714D01*
X190610573Y-61087714D01*
X190705811Y-61135333D01*
D14*
X124786972Y-36898971D02*
X123929829Y-36898971D01*
X124358401Y-36898971D02*
X124358401Y-35398971D01*
X124215544Y-35613257D01*
X124072686Y-35756114D01*
X123929829Y-35827543D01*
X185472344Y-35602171D02*
X184758058Y-35602171D01*
X184686629Y-36316457D01*
X184758058Y-36245029D01*
X184900915Y-36173600D01*
X185258058Y-36173600D01*
X185400915Y-36245029D01*
X185472344Y-36316457D01*
X185543772Y-36459314D01*
X185543772Y-36816457D01*
X185472344Y-36959314D01*
X185400915Y-37030743D01*
X185258058Y-37102171D01*
X184900915Y-37102171D01*
X184758058Y-37030743D01*
X184686629Y-36959314D01*
D10*
X105740119Y-41533214D02*
X105702024Y-41571310D01*
X105587738Y-41609405D01*
X105511548Y-41609405D01*
X105397262Y-41571310D01*
X105321071Y-41495119D01*
X105282976Y-41418929D01*
X105244881Y-41266548D01*
X105244881Y-41152262D01*
X105282976Y-40999881D01*
X105321071Y-40923690D01*
X105397262Y-40847500D01*
X105511548Y-40809405D01*
X105587738Y-40809405D01*
X105702024Y-40847500D01*
X105740119Y-40885595D01*
X106425833Y-41609405D02*
X106425833Y-41190357D01*
X106387738Y-41114167D01*
X106311548Y-41076071D01*
X106159167Y-41076071D01*
X106082976Y-41114167D01*
X106425833Y-41571310D02*
X106349643Y-41609405D01*
X106159167Y-41609405D01*
X106082976Y-41571310D01*
X106044881Y-41495119D01*
X106044881Y-41418929D01*
X106082976Y-41342738D01*
X106159167Y-41304643D01*
X106349643Y-41304643D01*
X106425833Y-41266548D01*
X106806786Y-41076071D02*
X106806786Y-41609405D01*
X106806786Y-41152262D02*
X106844881Y-41114167D01*
X106921072Y-41076071D01*
X107035358Y-41076071D01*
X107111548Y-41114167D01*
X107149643Y-41190357D01*
X107149643Y-41609405D01*
X105702024Y-42909405D02*
X105244881Y-42909405D01*
X105473452Y-42909405D02*
X105473452Y-42109405D01*
X105397262Y-42223690D01*
X105321071Y-42299881D01*
X105244881Y-42337976D01*
X106044881Y-42604643D02*
X106654405Y-42604643D01*
X107454405Y-42147500D02*
X107378214Y-42109405D01*
X107263929Y-42109405D01*
X107149643Y-42147500D01*
X107073452Y-42223690D01*
X107035357Y-42299881D01*
X106997262Y-42452262D01*
X106997262Y-42566548D01*
X107035357Y-42718929D01*
X107073452Y-42795119D01*
X107149643Y-42871310D01*
X107263929Y-42909405D01*
X107340119Y-42909405D01*
X107454405Y-42871310D01*
X107492500Y-42833214D01*
X107492500Y-42566548D01*
X107340119Y-42566548D01*
X107835357Y-42909405D02*
X107835357Y-42109405D01*
X108292500Y-42909405D01*
X108292500Y-42109405D01*
X108673452Y-42909405D02*
X108673452Y-42109405D01*
X108863928Y-42109405D01*
X108978214Y-42147500D01*
X109054405Y-42223690D01*
X109092500Y-42299881D01*
X109130595Y-42452262D01*
X109130595Y-42566548D01*
X109092500Y-42718929D01*
X109054405Y-42795119D01*
X108978214Y-42871310D01*
X108863928Y-42909405D01*
X108673452Y-42909405D01*
X105244881Y-43485595D02*
X105282976Y-43447500D01*
X105359167Y-43409405D01*
X105549643Y-43409405D01*
X105625833Y-43447500D01*
X105663929Y-43485595D01*
X105702024Y-43561786D01*
X105702024Y-43637976D01*
X105663929Y-43752262D01*
X105206786Y-44209405D01*
X105702024Y-44209405D01*
X106044881Y-43904643D02*
X106654405Y-43904643D01*
X107492500Y-44133214D02*
X107454405Y-44171310D01*
X107340119Y-44209405D01*
X107263929Y-44209405D01*
X107149643Y-44171310D01*
X107073452Y-44095119D01*
X107035357Y-44018929D01*
X106997262Y-43866548D01*
X106997262Y-43752262D01*
X107035357Y-43599881D01*
X107073452Y-43523690D01*
X107149643Y-43447500D01*
X107263929Y-43409405D01*
X107340119Y-43409405D01*
X107454405Y-43447500D01*
X107492500Y-43485595D01*
X108178214Y-44209405D02*
X108178214Y-43790357D01*
X108140119Y-43714167D01*
X108063929Y-43676071D01*
X107911548Y-43676071D01*
X107835357Y-43714167D01*
X108178214Y-44171310D02*
X108102024Y-44209405D01*
X107911548Y-44209405D01*
X107835357Y-44171310D01*
X107797262Y-44095119D01*
X107797262Y-44018929D01*
X107835357Y-43942738D01*
X107911548Y-43904643D01*
X108102024Y-43904643D01*
X108178214Y-43866548D01*
X108559167Y-43676071D02*
X108559167Y-44209405D01*
X108559167Y-43752262D02*
X108597262Y-43714167D01*
X108673453Y-43676071D01*
X108787739Y-43676071D01*
X108863929Y-43714167D01*
X108902024Y-43790357D01*
X108902024Y-44209405D01*
X109663930Y-44209405D02*
X109282977Y-44209405D01*
X109282977Y-43409405D01*
X110044882Y-44209405D02*
X109968691Y-44171310D01*
X109930596Y-44133214D01*
X109892501Y-44057024D01*
X109892501Y-43828452D01*
X109930596Y-43752262D01*
X109968691Y-43714167D01*
X110044882Y-43676071D01*
X110159168Y-43676071D01*
X110235358Y-43714167D01*
X110273453Y-43752262D01*
X110311549Y-43828452D01*
X110311549Y-44057024D01*
X110273453Y-44133214D01*
X110235358Y-44171310D01*
X110159168Y-44209405D01*
X110044882Y-44209405D01*
X105206786Y-44709405D02*
X105702024Y-44709405D01*
X105435357Y-45014167D01*
X105549643Y-45014167D01*
X105625833Y-45052262D01*
X105663929Y-45090357D01*
X105702024Y-45166548D01*
X105702024Y-45357024D01*
X105663929Y-45433214D01*
X105625833Y-45471310D01*
X105549643Y-45509405D01*
X105321071Y-45509405D01*
X105244881Y-45471310D01*
X105206786Y-45433214D01*
X106044881Y-45204643D02*
X106654405Y-45204643D01*
X107492500Y-45433214D02*
X107454405Y-45471310D01*
X107340119Y-45509405D01*
X107263929Y-45509405D01*
X107149643Y-45471310D01*
X107073452Y-45395119D01*
X107035357Y-45318929D01*
X106997262Y-45166548D01*
X106997262Y-45052262D01*
X107035357Y-44899881D01*
X107073452Y-44823690D01*
X107149643Y-44747500D01*
X107263929Y-44709405D01*
X107340119Y-44709405D01*
X107454405Y-44747500D01*
X107492500Y-44785595D01*
X108178214Y-45509405D02*
X108178214Y-45090357D01*
X108140119Y-45014167D01*
X108063929Y-44976071D01*
X107911548Y-44976071D01*
X107835357Y-45014167D01*
X108178214Y-45471310D02*
X108102024Y-45509405D01*
X107911548Y-45509405D01*
X107835357Y-45471310D01*
X107797262Y-45395119D01*
X107797262Y-45318929D01*
X107835357Y-45242738D01*
X107911548Y-45204643D01*
X108102024Y-45204643D01*
X108178214Y-45166548D01*
X108559167Y-44976071D02*
X108559167Y-45509405D01*
X108559167Y-45052262D02*
X108597262Y-45014167D01*
X108673453Y-44976071D01*
X108787739Y-44976071D01*
X108863929Y-45014167D01*
X108902024Y-45090357D01*
X108902024Y-45509405D01*
X109282977Y-45509405D02*
X109282977Y-44709405D01*
X109282977Y-45090357D02*
X109740120Y-45090357D01*
X109740120Y-45509405D02*
X109740120Y-44709405D01*
X110121072Y-45509405D02*
X110121072Y-44976071D01*
X110121072Y-44709405D02*
X110082977Y-44747500D01*
X110121072Y-44785595D01*
X110159167Y-44747500D01*
X110121072Y-44709405D01*
X110121072Y-44785595D01*
X105625833Y-46276071D02*
X105625833Y-46809405D01*
X105435357Y-45971310D02*
X105244881Y-46542738D01*
X105740119Y-46542738D01*
X106044881Y-46504643D02*
X106654405Y-46504643D01*
X107035357Y-46809405D02*
X107035357Y-46009405D01*
X107340119Y-46009405D01*
X107416310Y-46047500D01*
X107454405Y-46085595D01*
X107492500Y-46161786D01*
X107492500Y-46276071D01*
X107454405Y-46352262D01*
X107416310Y-46390357D01*
X107340119Y-46428452D01*
X107035357Y-46428452D01*
X107759167Y-46009405D02*
X107949643Y-46809405D01*
X108102024Y-46237976D01*
X108254405Y-46809405D01*
X108444881Y-46009405D01*
X109206786Y-46809405D02*
X108940119Y-46428452D01*
X108749643Y-46809405D02*
X108749643Y-46009405D01*
X109054405Y-46009405D01*
X109130596Y-46047500D01*
X109168691Y-46085595D01*
X109206786Y-46161786D01*
X109206786Y-46276071D01*
X109168691Y-46352262D01*
X109130596Y-46390357D01*
X109054405Y-46428452D01*
X108749643Y-46428452D01*
X105282976Y-48990357D02*
X105549643Y-48990357D01*
X105663929Y-49409405D02*
X105282976Y-49409405D01*
X105282976Y-48609405D01*
X105663929Y-48609405D01*
X106273453Y-48990357D02*
X106006786Y-48990357D01*
X106006786Y-49409405D02*
X106006786Y-48609405D01*
X106387739Y-48609405D01*
X106692500Y-49409405D02*
X106692500Y-48609405D01*
X106882976Y-49485595D02*
X107492500Y-49485595D01*
X107682976Y-49409405D02*
X107682976Y-48609405D01*
X107987738Y-48609405D01*
X108063929Y-48647500D01*
X108102024Y-48685595D01*
X108140119Y-48761786D01*
X108140119Y-48876071D01*
X108102024Y-48952262D01*
X108063929Y-48990357D01*
X107987738Y-49028452D01*
X107682976Y-49028452D01*
X108406786Y-48609405D02*
X108597262Y-49409405D01*
X108749643Y-48837976D01*
X108902024Y-49409405D01*
X109092500Y-48609405D01*
X109854405Y-49409405D02*
X109587738Y-49028452D01*
X109397262Y-49409405D02*
X109397262Y-48609405D01*
X109702024Y-48609405D01*
X109778215Y-48647500D01*
X109816310Y-48685595D01*
X109854405Y-48761786D01*
X109854405Y-48876071D01*
X109816310Y-48952262D01*
X109778215Y-48990357D01*
X109702024Y-49028452D01*
X109397262Y-49028452D01*
X105702024Y-50709405D02*
X105244881Y-50709405D01*
X105473452Y-50709405D02*
X105473452Y-49909405D01*
X105397262Y-50023690D01*
X105321071Y-50099881D01*
X105244881Y-50137976D01*
X106044881Y-50404643D02*
X106654405Y-50404643D01*
X107035357Y-50709405D02*
X107035357Y-49909405D01*
X107340119Y-49909405D01*
X107416310Y-49947500D01*
X107454405Y-49985595D01*
X107492500Y-50061786D01*
X107492500Y-50176071D01*
X107454405Y-50252262D01*
X107416310Y-50290357D01*
X107340119Y-50328452D01*
X107035357Y-50328452D01*
X107759167Y-49909405D02*
X107949643Y-50709405D01*
X108102024Y-50137976D01*
X108254405Y-50709405D01*
X108444881Y-49909405D01*
X109206786Y-50709405D02*
X108940119Y-50328452D01*
X108749643Y-50709405D02*
X108749643Y-49909405D01*
X109054405Y-49909405D01*
X109130596Y-49947500D01*
X109168691Y-49985595D01*
X109206786Y-50061786D01*
X109206786Y-50176071D01*
X109168691Y-50252262D01*
X109130596Y-50290357D01*
X109054405Y-50328452D01*
X108749643Y-50328452D01*
X105244881Y-51285595D02*
X105282976Y-51247500D01*
X105359167Y-51209405D01*
X105549643Y-51209405D01*
X105625833Y-51247500D01*
X105663929Y-51285595D01*
X105702024Y-51361786D01*
X105702024Y-51437976D01*
X105663929Y-51552262D01*
X105206786Y-52009405D01*
X105702024Y-52009405D01*
X106044881Y-51704643D02*
X106654405Y-51704643D01*
X107454405Y-51247500D02*
X107378214Y-51209405D01*
X107263929Y-51209405D01*
X107149643Y-51247500D01*
X107073452Y-51323690D01*
X107035357Y-51399881D01*
X106997262Y-51552262D01*
X106997262Y-51666548D01*
X107035357Y-51818929D01*
X107073452Y-51895119D01*
X107149643Y-51971310D01*
X107263929Y-52009405D01*
X107340119Y-52009405D01*
X107454405Y-51971310D01*
X107492500Y-51933214D01*
X107492500Y-51666548D01*
X107340119Y-51666548D01*
X107835357Y-52009405D02*
X107835357Y-51209405D01*
X108292500Y-52009405D01*
X108292500Y-51209405D01*
X108673452Y-52009405D02*
X108673452Y-51209405D01*
X108863928Y-51209405D01*
X108978214Y-51247500D01*
X109054405Y-51323690D01*
X109092500Y-51399881D01*
X109130595Y-51552262D01*
X109130595Y-51666548D01*
X109092500Y-51818929D01*
X109054405Y-51895119D01*
X108978214Y-51971310D01*
X108863928Y-52009405D01*
X108673452Y-52009405D01*
X105206786Y-52509405D02*
X105702024Y-52509405D01*
X105435357Y-52814167D01*
X105549643Y-52814167D01*
X105625833Y-52852262D01*
X105663929Y-52890357D01*
X105702024Y-52966548D01*
X105702024Y-53157024D01*
X105663929Y-53233214D01*
X105625833Y-53271310D01*
X105549643Y-53309405D01*
X105321071Y-53309405D01*
X105244881Y-53271310D01*
X105206786Y-53233214D01*
X106044881Y-53004643D02*
X106654405Y-53004643D01*
X107187738Y-52509405D02*
X107340119Y-52509405D01*
X107416310Y-52547500D01*
X107492500Y-52623690D01*
X107530595Y-52776071D01*
X107530595Y-53042738D01*
X107492500Y-53195119D01*
X107416310Y-53271310D01*
X107340119Y-53309405D01*
X107187738Y-53309405D01*
X107111548Y-53271310D01*
X107035357Y-53195119D01*
X106997262Y-53042738D01*
X106997262Y-52776071D01*
X107035357Y-52623690D01*
X107111548Y-52547500D01*
X107187738Y-52509405D01*
X107835357Y-52585595D02*
X107873452Y-52547500D01*
X107949643Y-52509405D01*
X108140119Y-52509405D01*
X108216309Y-52547500D01*
X108254405Y-52585595D01*
X108292500Y-52661786D01*
X108292500Y-52737976D01*
X108254405Y-52852262D01*
X107797262Y-53309405D01*
X108292500Y-53309405D01*
X108444881Y-53385595D02*
X109054405Y-53385595D01*
X109244881Y-53309405D02*
X109244881Y-52509405D01*
X109549643Y-52509405D01*
X109625834Y-52547500D01*
X109663929Y-52585595D01*
X109702024Y-52661786D01*
X109702024Y-52776071D01*
X109663929Y-52852262D01*
X109625834Y-52890357D01*
X109549643Y-52928452D01*
X109244881Y-52928452D01*
X109968691Y-52776071D02*
X110121072Y-53309405D01*
X110273453Y-52928452D01*
X110425834Y-53309405D01*
X110578215Y-52776071D01*
X110882976Y-53309405D02*
X110882976Y-52776071D01*
X110882976Y-52928452D02*
X110921071Y-52852262D01*
X110959167Y-52814167D01*
X111035357Y-52776071D01*
X111111548Y-52776071D01*
X105625833Y-54076071D02*
X105625833Y-54609405D01*
X105435357Y-53771310D02*
X105244881Y-54342738D01*
X105740119Y-54342738D01*
X106044881Y-54304643D02*
X106654405Y-54304643D01*
X107454405Y-53847500D02*
X107378214Y-53809405D01*
X107263929Y-53809405D01*
X107149643Y-53847500D01*
X107073452Y-53923690D01*
X107035357Y-53999881D01*
X106997262Y-54152262D01*
X106997262Y-54266548D01*
X107035357Y-54418929D01*
X107073452Y-54495119D01*
X107149643Y-54571310D01*
X107263929Y-54609405D01*
X107340119Y-54609405D01*
X107454405Y-54571310D01*
X107492500Y-54533214D01*
X107492500Y-54266548D01*
X107340119Y-54266548D01*
X107835357Y-54609405D02*
X107835357Y-53809405D01*
X108292500Y-54609405D01*
X108292500Y-53809405D01*
X108673452Y-54609405D02*
X108673452Y-53809405D01*
X108863928Y-53809405D01*
X108978214Y-53847500D01*
X109054405Y-53923690D01*
X109092500Y-53999881D01*
X109130595Y-54152262D01*
X109130595Y-54266548D01*
X109092500Y-54418929D01*
X109054405Y-54495119D01*
X108978214Y-54571310D01*
X108863928Y-54609405D01*
X108673452Y-54609405D01*
X105282976Y-56790357D02*
X105549643Y-56790357D01*
X105663929Y-57209405D02*
X105282976Y-57209405D01*
X105282976Y-56409405D01*
X105663929Y-56409405D01*
X106273453Y-56790357D02*
X106006786Y-56790357D01*
X106006786Y-57209405D02*
X106006786Y-56409405D01*
X106387739Y-56409405D01*
X106692500Y-57209405D02*
X106692500Y-56409405D01*
X106882976Y-57285595D02*
X107492500Y-57285595D01*
X107682976Y-56790357D02*
X107949643Y-56790357D01*
X108063929Y-57209405D02*
X107682976Y-57209405D01*
X107682976Y-56409405D01*
X108063929Y-56409405D01*
X108406786Y-57209405D02*
X108406786Y-56409405D01*
X108863929Y-57209405D01*
X108863929Y-56409405D01*
X105702024Y-58509405D02*
X105244881Y-58509405D01*
X105473452Y-58509405D02*
X105473452Y-57709405D01*
X105397262Y-57823690D01*
X105321071Y-57899881D01*
X105244881Y-57937976D01*
X106044881Y-58204643D02*
X106654405Y-58204643D01*
X107035357Y-58204643D02*
X107644881Y-58204643D01*
X107340119Y-58509405D02*
X107340119Y-57899881D01*
X108444881Y-58509405D02*
X107987738Y-58509405D01*
X108216309Y-58509405D02*
X108216309Y-57709405D01*
X108140119Y-57823690D01*
X108063928Y-57899881D01*
X107987738Y-57937976D01*
X108749643Y-57785595D02*
X108787738Y-57747500D01*
X108863929Y-57709405D01*
X109054405Y-57709405D01*
X109130595Y-57747500D01*
X109168691Y-57785595D01*
X109206786Y-57861786D01*
X109206786Y-57937976D01*
X109168691Y-58052262D01*
X108711548Y-58509405D01*
X109206786Y-58509405D01*
X109473453Y-57976071D02*
X109663929Y-58509405D01*
X109854405Y-57976071D01*
X105244881Y-59085595D02*
X105282976Y-59047500D01*
X105359167Y-59009405D01*
X105549643Y-59009405D01*
X105625833Y-59047500D01*
X105663929Y-59085595D01*
X105702024Y-59161786D01*
X105702024Y-59237976D01*
X105663929Y-59352262D01*
X105206786Y-59809405D01*
X105702024Y-59809405D01*
X106654405Y-59504643D02*
X107263929Y-59504643D01*
X108254405Y-59390357D02*
X108521072Y-59390357D01*
X108635358Y-59809405D02*
X108254405Y-59809405D01*
X108254405Y-59009405D01*
X108635358Y-59009405D01*
X108978215Y-59809405D02*
X108978215Y-59009405D01*
X109435358Y-59809405D01*
X109435358Y-59009405D01*
X110654406Y-60114167D02*
X110616310Y-60076071D01*
X110540120Y-59961786D01*
X110502025Y-59885595D01*
X110463929Y-59771310D01*
X110425834Y-59580833D01*
X110425834Y-59428452D01*
X110463929Y-59237976D01*
X110502025Y-59123690D01*
X110540120Y-59047500D01*
X110616310Y-58933214D01*
X110654406Y-58895119D01*
X111378215Y-59809405D02*
X110921072Y-59809405D01*
X111149643Y-59809405D02*
X111149643Y-59009405D01*
X111073453Y-59123690D01*
X110997262Y-59199881D01*
X110921072Y-59237976D01*
X111682977Y-59085595D02*
X111721072Y-59047500D01*
X111797263Y-59009405D01*
X111987739Y-59009405D01*
X112063929Y-59047500D01*
X112102025Y-59085595D01*
X112140120Y-59161786D01*
X112140120Y-59237976D01*
X112102025Y-59352262D01*
X111644882Y-59809405D01*
X112140120Y-59809405D01*
X112406787Y-59276071D02*
X112597263Y-59809405D01*
X112787739Y-59276071D01*
X113016311Y-60114167D02*
X113054406Y-60076071D01*
X113130596Y-59961786D01*
X113168692Y-59885595D01*
X113206787Y-59771310D01*
X113244882Y-59580833D01*
X113244882Y-59428452D01*
X113206787Y-59237976D01*
X113168692Y-59123690D01*
X113130596Y-59047500D01*
X113054406Y-58933214D01*
X113016311Y-58895119D01*
X105435357Y-61609405D02*
X105587738Y-61609405D01*
X105663929Y-61647500D01*
X105740119Y-61723690D01*
X105778214Y-61876071D01*
X105778214Y-62142738D01*
X105740119Y-62295119D01*
X105663929Y-62371310D01*
X105587738Y-62409405D01*
X105435357Y-62409405D01*
X105359167Y-62371310D01*
X105282976Y-62295119D01*
X105244881Y-62142738D01*
X105244881Y-61876071D01*
X105282976Y-61723690D01*
X105359167Y-61647500D01*
X105435357Y-61609405D01*
X106082976Y-61685595D02*
X106121071Y-61647500D01*
X106197262Y-61609405D01*
X106387738Y-61609405D01*
X106463928Y-61647500D01*
X106502024Y-61685595D01*
X106540119Y-61761786D01*
X106540119Y-61837976D01*
X106502024Y-61952262D01*
X106044881Y-62409405D01*
X106540119Y-62409405D01*
X106692500Y-62485595D02*
X107302024Y-62485595D01*
X107492500Y-62409405D02*
X107492500Y-61609405D01*
X107797262Y-61609405D01*
X107873453Y-61647500D01*
X107911548Y-61685595D01*
X107949643Y-61761786D01*
X107949643Y-61876071D01*
X107911548Y-61952262D01*
X107873453Y-61990357D01*
X107797262Y-62028452D01*
X107492500Y-62028452D01*
X108216310Y-61609405D02*
X108406786Y-62409405D01*
X108559167Y-61837976D01*
X108711548Y-62409405D01*
X108902024Y-61609405D01*
X109663929Y-62409405D02*
X109397262Y-62028452D01*
X109206786Y-62409405D02*
X109206786Y-61609405D01*
X109511548Y-61609405D01*
X109587739Y-61647500D01*
X109625834Y-61685595D01*
X109663929Y-61761786D01*
X109663929Y-61876071D01*
X109625834Y-61952262D01*
X109587739Y-61990357D01*
X109511548Y-62028452D01*
X109206786Y-62028452D01*
X105702024Y-63709405D02*
X105244881Y-63709405D01*
X105473452Y-63709405D02*
X105473452Y-62909405D01*
X105397262Y-63023690D01*
X105321071Y-63099881D01*
X105244881Y-63137976D01*
X106044881Y-63404643D02*
X106654405Y-63404643D01*
X107454405Y-62947500D02*
X107378214Y-62909405D01*
X107263929Y-62909405D01*
X107149643Y-62947500D01*
X107073452Y-63023690D01*
X107035357Y-63099881D01*
X106997262Y-63252262D01*
X106997262Y-63366548D01*
X107035357Y-63518929D01*
X107073452Y-63595119D01*
X107149643Y-63671310D01*
X107263929Y-63709405D01*
X107340119Y-63709405D01*
X107454405Y-63671310D01*
X107492500Y-63633214D01*
X107492500Y-63366548D01*
X107340119Y-63366548D01*
X107835357Y-63709405D02*
X107835357Y-62909405D01*
X108292500Y-63709405D01*
X108292500Y-62909405D01*
X108673452Y-63709405D02*
X108673452Y-62909405D01*
X108863928Y-62909405D01*
X108978214Y-62947500D01*
X109054405Y-63023690D01*
X109092500Y-63099881D01*
X109130595Y-63252262D01*
X109130595Y-63366548D01*
X109092500Y-63518929D01*
X109054405Y-63595119D01*
X108978214Y-63671310D01*
X108863928Y-63709405D01*
X108673452Y-63709405D01*
X105244881Y-64285595D02*
X105282976Y-64247500D01*
X105359167Y-64209405D01*
X105549643Y-64209405D01*
X105625833Y-64247500D01*
X105663929Y-64285595D01*
X105702024Y-64361786D01*
X105702024Y-64437976D01*
X105663929Y-64552262D01*
X105206786Y-65009405D01*
X105702024Y-65009405D01*
X106044881Y-64704643D02*
X106654405Y-64704643D01*
X107187738Y-64209405D02*
X107340119Y-64209405D01*
X107416310Y-64247500D01*
X107492500Y-64323690D01*
X107530595Y-64476071D01*
X107530595Y-64742738D01*
X107492500Y-64895119D01*
X107416310Y-64971310D01*
X107340119Y-65009405D01*
X107187738Y-65009405D01*
X107111548Y-64971310D01*
X107035357Y-64895119D01*
X106997262Y-64742738D01*
X106997262Y-64476071D01*
X107035357Y-64323690D01*
X107111548Y-64247500D01*
X107187738Y-64209405D01*
X107835357Y-64285595D02*
X107873452Y-64247500D01*
X107949643Y-64209405D01*
X108140119Y-64209405D01*
X108216309Y-64247500D01*
X108254405Y-64285595D01*
X108292500Y-64361786D01*
X108292500Y-64437976D01*
X108254405Y-64552262D01*
X107797262Y-65009405D01*
X108292500Y-65009405D01*
X108444881Y-65085595D02*
X109054405Y-65085595D01*
X109244881Y-65009405D02*
X109244881Y-64209405D01*
X109549643Y-64209405D01*
X109625834Y-64247500D01*
X109663929Y-64285595D01*
X109702024Y-64361786D01*
X109702024Y-64476071D01*
X109663929Y-64552262D01*
X109625834Y-64590357D01*
X109549643Y-64628452D01*
X109244881Y-64628452D01*
X109968691Y-64209405D02*
X110159167Y-65009405D01*
X110311548Y-64437976D01*
X110463929Y-65009405D01*
X110654405Y-64209405D01*
X111416310Y-65009405D02*
X111149643Y-64628452D01*
X110959167Y-65009405D02*
X110959167Y-64209405D01*
X111263929Y-64209405D01*
X111340120Y-64247500D01*
X111378215Y-64285595D01*
X111416310Y-64361786D01*
X111416310Y-64476071D01*
X111378215Y-64552262D01*
X111340120Y-64590357D01*
X111263929Y-64628452D01*
X110959167Y-64628452D01*
X105282976Y-67190357D02*
X105549643Y-67190357D01*
X105663929Y-67609405D02*
X105282976Y-67609405D01*
X105282976Y-66809405D01*
X105663929Y-66809405D01*
X106273453Y-67190357D02*
X106006786Y-67190357D01*
X106006786Y-67609405D02*
X106006786Y-66809405D01*
X106387739Y-66809405D01*
X106692500Y-67609405D02*
X106692500Y-66809405D01*
X106882976Y-67685595D02*
X107492500Y-67685595D01*
X107835357Y-66809405D02*
X107987738Y-66809405D01*
X108063929Y-66847500D01*
X108140119Y-66923690D01*
X108178214Y-67076071D01*
X108178214Y-67342738D01*
X108140119Y-67495119D01*
X108063929Y-67571310D01*
X107987738Y-67609405D01*
X107835357Y-67609405D01*
X107759167Y-67571310D01*
X107682976Y-67495119D01*
X107644881Y-67342738D01*
X107644881Y-67076071D01*
X107682976Y-66923690D01*
X107759167Y-66847500D01*
X107835357Y-66809405D01*
X108521071Y-67076071D02*
X108521071Y-67609405D01*
X108521071Y-67152262D02*
X108559166Y-67114167D01*
X108635357Y-67076071D01*
X108749643Y-67076071D01*
X108825833Y-67114167D01*
X108863928Y-67190357D01*
X108863928Y-67609405D01*
X109054405Y-67685595D02*
X109663929Y-67685595D01*
X110311548Y-67533214D02*
X110273453Y-67571310D01*
X110159167Y-67609405D01*
X110082977Y-67609405D01*
X109968691Y-67571310D01*
X109892500Y-67495119D01*
X109854405Y-67418929D01*
X109816310Y-67266548D01*
X109816310Y-67152262D01*
X109854405Y-66999881D01*
X109892500Y-66923690D01*
X109968691Y-66847500D01*
X110082977Y-66809405D01*
X110159167Y-66809405D01*
X110273453Y-66847500D01*
X110311548Y-66885595D01*
X110616310Y-67380833D02*
X110997262Y-67380833D01*
X110540119Y-67609405D02*
X110806786Y-66809405D01*
X111073453Y-67609405D01*
X111340119Y-67609405D02*
X111340119Y-66809405D01*
X111797262Y-67609405D01*
X111797262Y-66809405D01*
X105702024Y-68909405D02*
X105244881Y-68909405D01*
X105473452Y-68909405D02*
X105473452Y-68109405D01*
X105397262Y-68223690D01*
X105321071Y-68299881D01*
X105244881Y-68337976D01*
X106044881Y-68604643D02*
X106654405Y-68604643D01*
X107454405Y-68147500D02*
X107378214Y-68109405D01*
X107263929Y-68109405D01*
X107149643Y-68147500D01*
X107073452Y-68223690D01*
X107035357Y-68299881D01*
X106997262Y-68452262D01*
X106997262Y-68566548D01*
X107035357Y-68718929D01*
X107073452Y-68795119D01*
X107149643Y-68871310D01*
X107263929Y-68909405D01*
X107340119Y-68909405D01*
X107454405Y-68871310D01*
X107492500Y-68833214D01*
X107492500Y-68566548D01*
X107340119Y-68566548D01*
X107835357Y-68909405D02*
X107835357Y-68109405D01*
X108292500Y-68909405D01*
X108292500Y-68109405D01*
X108673452Y-68909405D02*
X108673452Y-68109405D01*
X108863928Y-68109405D01*
X108978214Y-68147500D01*
X109054405Y-68223690D01*
X109092500Y-68299881D01*
X109130595Y-68452262D01*
X109130595Y-68566548D01*
X109092500Y-68718929D01*
X109054405Y-68795119D01*
X108978214Y-68871310D01*
X108863928Y-68909405D01*
X108673452Y-68909405D01*
X105244881Y-69485595D02*
X105282976Y-69447500D01*
X105359167Y-69409405D01*
X105549643Y-69409405D01*
X105625833Y-69447500D01*
X105663929Y-69485595D01*
X105702024Y-69561786D01*
X105702024Y-69637976D01*
X105663929Y-69752262D01*
X105206786Y-70209405D01*
X105702024Y-70209405D01*
X106044881Y-69904643D02*
X106654405Y-69904643D01*
X107644881Y-69790357D02*
X107911548Y-69790357D01*
X108025834Y-70209405D02*
X107644881Y-70209405D01*
X107644881Y-69409405D01*
X108025834Y-69409405D01*
X108368691Y-70209405D02*
X108368691Y-69409405D01*
X108825834Y-70209405D01*
X108825834Y-69409405D01*
X110044882Y-70514167D02*
X110006786Y-70476071D01*
X109930596Y-70361786D01*
X109892501Y-70285595D01*
X109854405Y-70171310D01*
X109816310Y-69980833D01*
X109816310Y-69828452D01*
X109854405Y-69637976D01*
X109892501Y-69523690D01*
X109930596Y-69447500D01*
X110006786Y-69333214D01*
X110044882Y-69295119D01*
X110273453Y-69409405D02*
X110768691Y-69409405D01*
X110502024Y-69714167D01*
X110616310Y-69714167D01*
X110692500Y-69752262D01*
X110730596Y-69790357D01*
X110768691Y-69866548D01*
X110768691Y-70057024D01*
X110730596Y-70133214D01*
X110692500Y-70171310D01*
X110616310Y-70209405D01*
X110387738Y-70209405D01*
X110311548Y-70171310D01*
X110273453Y-70133214D01*
X111111548Y-70133214D02*
X111149643Y-70171310D01*
X111111548Y-70209405D01*
X111073453Y-70171310D01*
X111111548Y-70133214D01*
X111111548Y-70209405D01*
X111416310Y-69409405D02*
X111911548Y-69409405D01*
X111644881Y-69714167D01*
X111759167Y-69714167D01*
X111835357Y-69752262D01*
X111873453Y-69790357D01*
X111911548Y-69866548D01*
X111911548Y-70057024D01*
X111873453Y-70133214D01*
X111835357Y-70171310D01*
X111759167Y-70209405D01*
X111530595Y-70209405D01*
X111454405Y-70171310D01*
X111416310Y-70133214D01*
X112178215Y-69676071D02*
X112368691Y-70209405D01*
X112559167Y-69676071D01*
X112787739Y-70514167D02*
X112825834Y-70476071D01*
X112902024Y-70361786D01*
X112940120Y-70285595D01*
X112978215Y-70171310D01*
X113016310Y-69980833D01*
X113016310Y-69828452D01*
X112978215Y-69637976D01*
X112940120Y-69523690D01*
X112902024Y-69447500D01*
X112825834Y-69333214D01*
X112787739Y-69295119D01*
D11*
X178565024Y-48030190D02*
X178565024Y-48755904D01*
X178565024Y-48393047D02*
X177295024Y-48393047D01*
X177476452Y-48513999D01*
X177597405Y-48634952D01*
X177657881Y-48755904D01*
X177415976Y-47546380D02*
X177355500Y-47485904D01*
X177295024Y-47364952D01*
X177295024Y-47062571D01*
X177355500Y-46941618D01*
X177415976Y-46881142D01*
X177536929Y-46820666D01*
X177657881Y-46820666D01*
X177839310Y-46881142D01*
X178565024Y-47606856D01*
X178565024Y-46820666D01*
X177295024Y-46457809D02*
X178565024Y-46034475D01*
X177295024Y-45611142D01*
X177231524Y-38849904D02*
X177231524Y-39454666D01*
X177836286Y-39515142D01*
X177775810Y-39454666D01*
X177715333Y-39333714D01*
X177715333Y-39031333D01*
X177775810Y-38910380D01*
X177836286Y-38849904D01*
X177957238Y-38789428D01*
X178259619Y-38789428D01*
X178380571Y-38849904D01*
X178441048Y-38910380D01*
X178501524Y-39031333D01*
X178501524Y-39333714D01*
X178441048Y-39454666D01*
X178380571Y-39515142D01*
X177231524Y-38426571D02*
X178501524Y-38003237D01*
X177231524Y-37579904D01*
D15*
X176699334Y-54739419D02*
X176699334Y-53723419D01*
X177086381Y-53723419D01*
X177183143Y-53771800D01*
X177231524Y-53820181D01*
X177279905Y-53916943D01*
X177279905Y-54062086D01*
X177231524Y-54158848D01*
X177183143Y-54207229D01*
X177086381Y-54255610D01*
X176699334Y-54255610D01*
X177618572Y-53723419D02*
X177860477Y-54739419D01*
X178054000Y-54013705D01*
X178247524Y-54739419D01*
X178489429Y-53723419D01*
X179457048Y-54739419D02*
X179118382Y-54255610D01*
X178876477Y-54739419D02*
X178876477Y-53723419D01*
X179263524Y-53723419D01*
X179360286Y-53771800D01*
X179408667Y-53820181D01*
X179457048Y-53916943D01*
X179457048Y-54062086D01*
X179408667Y-54158848D01*
X179360286Y-54207229D01*
X179263524Y-54255610D01*
X178876477Y-54255610D01*
X177231524Y-55883629D02*
X176892858Y-55883629D01*
X176892858Y-56415819D02*
X176892858Y-55399819D01*
X177376667Y-55399819D01*
X178199143Y-56415819D02*
X178199143Y-55883629D01*
X178150762Y-55786867D01*
X178054000Y-55738486D01*
X177860477Y-55738486D01*
X177763715Y-55786867D01*
X178199143Y-56367438D02*
X178102381Y-56415819D01*
X177860477Y-56415819D01*
X177763715Y-56367438D01*
X177715334Y-56270676D01*
X177715334Y-56173914D01*
X177763715Y-56077152D01*
X177860477Y-56028771D01*
X178102381Y-56028771D01*
X178199143Y-55980390D01*
X178682953Y-56415819D02*
X178682953Y-55738486D01*
X178682953Y-55399819D02*
X178634572Y-55448200D01*
X178682953Y-55496581D01*
X178731334Y-55448200D01*
X178682953Y-55399819D01*
X178682953Y-55496581D01*
X179311906Y-56415819D02*
X179215144Y-56367438D01*
X179166763Y-56270676D01*
X179166763Y-55399819D01*
D14*
X181440002Y-55923571D02*
X181440002Y-54423571D01*
X181797145Y-54423571D01*
X182011430Y-54495000D01*
X182154288Y-54637857D01*
X182225716Y-54780714D01*
X182297145Y-55066429D01*
X182297145Y-55280714D01*
X182225716Y-55566429D01*
X182154288Y-55709286D01*
X182011430Y-55852143D01*
X181797145Y-55923571D01*
X181440002Y-55923571D01*
X182868573Y-54566429D02*
X182940002Y-54495000D01*
X183082859Y-54423571D01*
X183440002Y-54423571D01*
X183582859Y-54495000D01*
X183654288Y-54566429D01*
X183725716Y-54709286D01*
X183725716Y-54852143D01*
X183654288Y-55066429D01*
X182797145Y-55923571D01*
X183725716Y-55923571D01*
X185011430Y-54923571D02*
X185011430Y-55923571D01*
X184654287Y-54352143D02*
X184297144Y-55423571D01*
X185225716Y-55423571D01*
X185582858Y-54423571D02*
X186082858Y-55923571D01*
X186582858Y-54423571D01*
X187868572Y-55923571D02*
X187011429Y-55923571D01*
X187440001Y-55923571D02*
X187440001Y-54423571D01*
X187297144Y-54637857D01*
X187154286Y-54780714D01*
X187011429Y-54852143D01*
X188797143Y-54423571D02*
X188940000Y-54423571D01*
X189082857Y-54495000D01*
X189154286Y-54566429D01*
X189225715Y-54709286D01*
X189297143Y-54995000D01*
X189297143Y-55352143D01*
X189225715Y-55637857D01*
X189154286Y-55780714D01*
X189082857Y-55852143D01*
X188940000Y-55923571D01*
X188797143Y-55923571D01*
X188654286Y-55852143D01*
X188582857Y-55780714D01*
X188511429Y-55637857D01*
X188440000Y-55352143D01*
X188440000Y-54995000D01*
X188511429Y-54709286D01*
X188582857Y-54566429D01*
X188654286Y-54495000D01*
X188797143Y-54423571D01*
X190440000Y-55137857D02*
X189940000Y-55137857D01*
X189940000Y-55923571D02*
X189940000Y-54423571D01*
X190654286Y-54423571D01*
X191940000Y-54423571D02*
X191225714Y-54423571D01*
X191154285Y-55137857D01*
X191225714Y-55066429D01*
X191368571Y-54995000D01*
X191725714Y-54995000D01*
X191868571Y-55066429D01*
X191940000Y-55137857D01*
X192011428Y-55280714D01*
X192011428Y-55637857D01*
X191940000Y-55780714D01*
X191868571Y-55852143D01*
X191725714Y-55923571D01*
X191368571Y-55923571D01*
X191225714Y-55852143D01*
X191154285Y-55780714D01*
D16*
X128905000Y-48260000D02*
X113905000Y-48260000D01*
X113905000Y-48260000D02*
X113905000Y-55760000D01*
X113905000Y-55760000D02*
X128905000Y-55760000D01*
X128905000Y-55760000D02*
X128905000Y-48260000D01*
D17*
X171682665Y-55688608D02*
G75*
G03X174915000Y-55845516I1672335J1078608D01*
G01*
X171682665Y-53531392D02*
G75*
G02X174915000Y-53374484I1672335J-1078608D01*
G01*
X172313870Y-55689837D02*
G75*
G03X174395961Y-55690000I1041130J1079837D01*
G01*
X172313870Y-53530163D02*
G75*
G02X174395961Y-53530000I1041130J-1079837D01*
G01*
X174915000Y-55846000D02*
X174915000Y-55690000D01*
X174915000Y-53530000D02*
X174915000Y-53374000D01*
X140980000Y-49410000D02*
X141110000Y-49410000D01*
X141110000Y-49410000D02*
X141110000Y-54730000D01*
X141110000Y-54730000D02*
X140980000Y-54730000D01*
X138420000Y-49410000D02*
X138290000Y-49410000D01*
X138290000Y-49410000D02*
X138290000Y-54730000D01*
X138290000Y-54730000D02*
X138420000Y-54730000D01*
X141110000Y-50250000D02*
X138290000Y-50250000D01*
D16*
X122380000Y-35020000D02*
X121880000Y-35520000D01*
X122880000Y-35520000D02*
X122380000Y-35020000D01*
X126380000Y-31520000D02*
X126380000Y-23770000D01*
X125130000Y-33520000D02*
X126380000Y-31520000D01*
X125130000Y-34820000D02*
X125130000Y-33520000D01*
X113630000Y-34820000D02*
X125130000Y-34820000D01*
X113630000Y-33520000D02*
X113630000Y-34820000D01*
X112380000Y-31520000D02*
X113630000Y-33520000D01*
X112380000Y-23770000D02*
X112380000Y-31520000D01*
X126380000Y-23770000D02*
X112380000Y-23770000D01*
X137620000Y-35020000D02*
X137120000Y-35520000D01*
X138120000Y-35520000D02*
X137620000Y-35020000D01*
X141620000Y-31520000D02*
X141620000Y-23770000D01*
X140370000Y-33520000D02*
X141620000Y-31520000D01*
X140370000Y-34820000D02*
X140370000Y-33520000D01*
X128870000Y-34820000D02*
X140370000Y-34820000D01*
X128870000Y-33520000D02*
X128870000Y-34820000D01*
X127620000Y-31520000D02*
X128870000Y-33520000D01*
X127620000Y-23770000D02*
X127620000Y-31520000D01*
X141620000Y-23770000D02*
X127620000Y-23770000D01*
X152860000Y-35020000D02*
X152360000Y-35520000D01*
X153360000Y-35520000D02*
X152860000Y-35020000D01*
X156860000Y-31520000D02*
X156860000Y-23770000D01*
X155610000Y-33520000D02*
X156860000Y-31520000D01*
X155610000Y-34820000D02*
X155610000Y-33520000D01*
X144110000Y-34820000D02*
X155610000Y-34820000D01*
X144110000Y-33520000D02*
X144110000Y-34820000D01*
X142860000Y-31520000D02*
X144110000Y-33520000D01*
X142860000Y-23770000D02*
X142860000Y-31520000D01*
X156860000Y-23770000D02*
X142860000Y-23770000D01*
X168100000Y-35020000D02*
X167600000Y-35520000D01*
X168600000Y-35520000D02*
X168100000Y-35020000D01*
X172100000Y-31520000D02*
X172100000Y-23770000D01*
X170850000Y-33520000D02*
X172100000Y-31520000D01*
X170850000Y-34820000D02*
X170850000Y-33520000D01*
X159350000Y-34820000D02*
X170850000Y-34820000D01*
X159350000Y-33520000D02*
X159350000Y-34820000D01*
X158100000Y-31520000D02*
X159350000Y-33520000D01*
X158100000Y-23770000D02*
X158100000Y-31520000D01*
X172100000Y-23770000D02*
X158100000Y-23770000D01*
X183340000Y-35020000D02*
X182840000Y-35520000D01*
X183840000Y-35520000D02*
X183340000Y-35020000D01*
X187340000Y-31520000D02*
X187340000Y-23770000D01*
X186090000Y-33520000D02*
X187340000Y-31520000D01*
X186090000Y-34820000D02*
X186090000Y-33520000D01*
X174590000Y-34820000D02*
X186090000Y-34820000D01*
X174590000Y-33520000D02*
X174590000Y-34820000D01*
X173340000Y-31520000D02*
X174590000Y-33520000D01*
X173340000Y-23770000D02*
X173340000Y-31520000D01*
X187340000Y-23770000D02*
X173340000Y-23770000D01*
D17*
X114875000Y-45145000D02*
X120075000Y-45145000D01*
X114875000Y-42545000D02*
X114875000Y-45145000D01*
X120075000Y-39945000D02*
X120075000Y-45145000D01*
X114875000Y-42545000D02*
X117475000Y-42545000D01*
X117475000Y-42545000D02*
X117475000Y-39945000D01*
X117475000Y-39945000D02*
X120075000Y-39945000D01*
X114875000Y-41275000D02*
X114875000Y-39945000D01*
X114875000Y-39945000D02*
X116205000Y-39945000D01*
X130115000Y-45145000D02*
X135315000Y-45145000D01*
X130115000Y-42545000D02*
X130115000Y-45145000D01*
X135315000Y-39945000D02*
X135315000Y-45145000D01*
X130115000Y-42545000D02*
X132715000Y-42545000D01*
X132715000Y-42545000D02*
X132715000Y-39945000D01*
X132715000Y-39945000D02*
X135315000Y-39945000D01*
X130115000Y-41275000D02*
X130115000Y-39945000D01*
X130115000Y-39945000D02*
X131445000Y-39945000D01*
X145355000Y-45145000D02*
X150555000Y-45145000D01*
X145355000Y-42545000D02*
X145355000Y-45145000D01*
X150555000Y-39945000D02*
X150555000Y-45145000D01*
X145355000Y-42545000D02*
X147955000Y-42545000D01*
X147955000Y-42545000D02*
X147955000Y-39945000D01*
X147955000Y-39945000D02*
X150555000Y-39945000D01*
X145355000Y-41275000D02*
X145355000Y-39945000D01*
X145355000Y-39945000D02*
X146685000Y-39945000D01*
X160595000Y-45145000D02*
X165795000Y-45145000D01*
X160595000Y-42545000D02*
X160595000Y-45145000D01*
X165795000Y-39945000D02*
X165795000Y-45145000D01*
X160595000Y-42545000D02*
X163195000Y-42545000D01*
X163195000Y-42545000D02*
X163195000Y-39945000D01*
X163195000Y-39945000D02*
X165795000Y-39945000D01*
X160595000Y-41275000D02*
X160595000Y-39945000D01*
X160595000Y-39945000D02*
X161925000Y-39945000D01*
X173930000Y-45145000D02*
X179130000Y-45145000D01*
X173930000Y-42545000D02*
X173930000Y-45145000D01*
X179130000Y-39945000D02*
X179130000Y-45145000D01*
X173930000Y-42545000D02*
X176530000Y-42545000D01*
X176530000Y-42545000D02*
X176530000Y-39945000D01*
X176530000Y-39945000D02*
X179130000Y-39945000D01*
X173930000Y-41275000D02*
X173930000Y-39945000D01*
X173930000Y-39945000D02*
X175260000Y-39945000D01*
X121225000Y-45145000D02*
X126425000Y-45145000D01*
X121225000Y-42545000D02*
X121225000Y-45145000D01*
X126425000Y-39945000D02*
X126425000Y-45145000D01*
X121225000Y-42545000D02*
X123825000Y-42545000D01*
X123825000Y-42545000D02*
X123825000Y-39945000D01*
X123825000Y-39945000D02*
X126425000Y-39945000D01*
X121225000Y-41275000D02*
X121225000Y-39945000D01*
X121225000Y-39945000D02*
X122555000Y-39945000D01*
X136465000Y-45145000D02*
X141665000Y-45145000D01*
X136465000Y-42545000D02*
X136465000Y-45145000D01*
X141665000Y-39945000D02*
X141665000Y-45145000D01*
X136465000Y-42545000D02*
X139065000Y-42545000D01*
X139065000Y-42545000D02*
X139065000Y-39945000D01*
X139065000Y-39945000D02*
X141665000Y-39945000D01*
X136465000Y-41275000D02*
X136465000Y-39945000D01*
X136465000Y-39945000D02*
X137795000Y-39945000D01*
X151705000Y-45145000D02*
X156905000Y-45145000D01*
X151705000Y-42545000D02*
X151705000Y-45145000D01*
X156905000Y-39945000D02*
X156905000Y-45145000D01*
X151705000Y-42545000D02*
X154305000Y-42545000D01*
X154305000Y-42545000D02*
X154305000Y-39945000D01*
X154305000Y-39945000D02*
X156905000Y-39945000D01*
X151705000Y-41275000D02*
X151705000Y-39945000D01*
X151705000Y-39945000D02*
X153035000Y-39945000D01*
X166945000Y-45145000D02*
X172145000Y-45145000D01*
X166945000Y-42545000D02*
X166945000Y-45145000D01*
X172145000Y-39945000D02*
X172145000Y-45145000D01*
X166945000Y-42545000D02*
X169545000Y-42545000D01*
X169545000Y-42545000D02*
X169545000Y-39945000D01*
X169545000Y-39945000D02*
X172145000Y-39945000D01*
X166945000Y-41275000D02*
X166945000Y-39945000D01*
X166945000Y-39945000D02*
X168275000Y-39945000D01*
X167985000Y-48860000D02*
X168315000Y-48860000D01*
X168315000Y-48860000D02*
X168315000Y-55280000D01*
X168315000Y-55280000D02*
X167985000Y-55280000D01*
X166025000Y-48860000D02*
X165695000Y-48860000D01*
X165695000Y-48860000D02*
X165695000Y-55280000D01*
X165695000Y-55280000D02*
X166025000Y-55280000D01*
X147665000Y-48860000D02*
X147995000Y-48860000D01*
X147995000Y-48860000D02*
X147995000Y-55280000D01*
X147995000Y-55280000D02*
X147665000Y-55280000D01*
X145705000Y-48860000D02*
X145375000Y-48860000D01*
X145375000Y-48860000D02*
X145375000Y-55280000D01*
X145375000Y-55280000D02*
X145705000Y-55280000D01*
X159675000Y-55280000D02*
X159345000Y-55280000D01*
X159345000Y-55280000D02*
X159345000Y-48860000D01*
X159345000Y-48860000D02*
X159675000Y-48860000D01*
X161635000Y-55280000D02*
X161965000Y-55280000D01*
X161965000Y-55280000D02*
X161965000Y-48860000D01*
X161965000Y-48860000D02*
X161635000Y-48860000D01*
X152690000Y-55280000D02*
X152360000Y-55280000D01*
X152360000Y-55280000D02*
X152360000Y-48860000D01*
X152360000Y-48860000D02*
X152690000Y-48860000D01*
X154650000Y-55280000D02*
X154980000Y-55280000D01*
X154980000Y-55280000D02*
X154980000Y-48860000D01*
X154980000Y-48860000D02*
X154650000Y-48860000D01*
D16*
X193040000Y-40005000D02*
X180340000Y-40005000D01*
X180340000Y-40005000D02*
X180340000Y-57785000D01*
X180340000Y-57785000D02*
X193040000Y-57785000D01*
X193040000Y-57785000D02*
X193040000Y-40005000D01*
D17*
X131500000Y-51540000D02*
X131500000Y-55140000D01*
X132227205Y-51015816D02*
G75*
G03X131500000Y-51540000I1122795J-2324184D01*
G01*
X134448807Y-50983600D02*
G75*
G02X135950000Y-53340000I-1098807J-2356400D01*
G01*
X134448807Y-55696400D02*
G75*
G03X135950000Y-53340000I-1098807J2356400D01*
G01*
X132227205Y-55664184D02*
G75*
G02X131500000Y-55140000I1122795J2324184D01*
G01*
D16*
X151702000Y-80180000D02*
X159702000Y-80180000D01*
X151702000Y-64530000D02*
X159702000Y-64530000D01*
X159702000Y-64530000D02*
X159702000Y-80180000D01*
X151702000Y-64530000D02*
X151702000Y-80180000D01*
X170752000Y-80180000D02*
X178752000Y-80180000D01*
X170752000Y-64530000D02*
X178752000Y-64530000D01*
X178752000Y-64530000D02*
X178752000Y-80180000D01*
X170752000Y-64530000D02*
X170752000Y-80180000D01*
X113602000Y-80180000D02*
X121602000Y-80180000D01*
X113602000Y-64530000D02*
X121602000Y-64530000D01*
X121602000Y-64530000D02*
X121602000Y-80180000D01*
X113602000Y-64530000D02*
X113602000Y-80180000D01*
X123127000Y-80180000D02*
X131127000Y-80180000D01*
X123127000Y-64530000D02*
X131127000Y-64530000D01*
X131127000Y-64530000D02*
X131127000Y-80180000D01*
X123127000Y-64530000D02*
X123127000Y-80180000D01*
X132652000Y-80180000D02*
X140652000Y-80180000D01*
X132652000Y-64530000D02*
X140652000Y-64530000D01*
X140652000Y-64530000D02*
X140652000Y-80180000D01*
X132652000Y-64530000D02*
X132652000Y-80180000D01*
X161227000Y-80180000D02*
X169227000Y-80180000D01*
X161227000Y-64530000D02*
X169227000Y-64530000D01*
X169227000Y-64530000D02*
X169227000Y-80180000D01*
X161227000Y-64530000D02*
X161227000Y-80180000D01*
X180277000Y-80180000D02*
X188277000Y-80180000D01*
X180277000Y-64530000D02*
X188277000Y-64530000D01*
X188277000Y-64530000D02*
X188277000Y-80180000D01*
X180277000Y-64530000D02*
X180277000Y-80180000D01*
X142367000Y-80390000D02*
X150367000Y-80390000D01*
X142367000Y-62230000D02*
X150367000Y-62230000D01*
X150367000Y-62230000D02*
X150367000Y-80390000D01*
X142367000Y-62230000D02*
X142367000Y-80390000D01*
X115356428Y-52522381D02*
X115356428Y-51522381D01*
X115594523Y-51522381D01*
X115737381Y-51570000D01*
X115832619Y-51665238D01*
X115880238Y-51760476D01*
X115927857Y-51950952D01*
X115927857Y-52093810D01*
X115880238Y-52284286D01*
X115832619Y-52379524D01*
X115737381Y-52474762D01*
X115594523Y-52522381D01*
X115356428Y-52522381D01*
X116356428Y-52522381D02*
X116356428Y-51522381D01*
X116737381Y-51522381D01*
X116832619Y-51570000D01*
X116880238Y-51617619D01*
X116927857Y-51712857D01*
X116927857Y-51855714D01*
X116880238Y-51950952D01*
X116832619Y-51998571D01*
X116737381Y-52046190D01*
X116356428Y-52046190D01*
X117356428Y-52522381D02*
X117356428Y-51522381D01*
X117594523Y-51522381D01*
X117737381Y-51570000D01*
X117832619Y-51665238D01*
X117880238Y-51760476D01*
X117927857Y-51950952D01*
X117927857Y-52093810D01*
X117880238Y-52284286D01*
X117832619Y-52379524D01*
X117737381Y-52474762D01*
X117594523Y-52522381D01*
X117356428Y-52522381D01*
X118213571Y-51522381D02*
X118785000Y-51522381D01*
X118499285Y-52522381D02*
X118499285Y-51522381D01*
X118880238Y-52617619D02*
X119642143Y-52617619D01*
X119880238Y-52522381D02*
X119880238Y-51522381D01*
X120261191Y-51522381D01*
X120356429Y-51570000D01*
X120404048Y-51617619D01*
X120451667Y-51712857D01*
X120451667Y-51855714D01*
X120404048Y-51950952D01*
X120356429Y-51998571D01*
X120261191Y-52046190D01*
X119880238Y-52046190D01*
X121451667Y-52427143D02*
X121404048Y-52474762D01*
X121261191Y-52522381D01*
X121165953Y-52522381D01*
X121023095Y-52474762D01*
X120927857Y-52379524D01*
X120880238Y-52284286D01*
X120832619Y-52093810D01*
X120832619Y-51950952D01*
X120880238Y-51760476D01*
X120927857Y-51665238D01*
X121023095Y-51570000D01*
X121165953Y-51522381D01*
X121261191Y-51522381D01*
X121404048Y-51570000D01*
X121451667Y-51617619D01*
X122213572Y-51998571D02*
X122356429Y-52046190D01*
X122404048Y-52093810D01*
X122451667Y-52189048D01*
X122451667Y-52331905D01*
X122404048Y-52427143D01*
X122356429Y-52474762D01*
X122261191Y-52522381D01*
X121880238Y-52522381D01*
X121880238Y-51522381D01*
X122213572Y-51522381D01*
X122308810Y-51570000D01*
X122356429Y-51617619D01*
X122404048Y-51712857D01*
X122404048Y-51808095D01*
X122356429Y-51903333D01*
X122308810Y-51950952D01*
X122213572Y-51998571D01*
X121880238Y-51998571D01*
X122642143Y-52617619D02*
X123404048Y-52617619D01*
X124213572Y-52522381D02*
X123880238Y-52046190D01*
X123642143Y-52522381D02*
X123642143Y-51522381D01*
X124023096Y-51522381D01*
X124118334Y-51570000D01*
X124165953Y-51617619D01*
X124213572Y-51712857D01*
X124213572Y-51855714D01*
X124165953Y-51950952D01*
X124118334Y-51998571D01*
X124023096Y-52046190D01*
X123642143Y-52046190D01*
X125023096Y-52474762D02*
X124927858Y-52522381D01*
X124737381Y-52522381D01*
X124642143Y-52474762D01*
X124594524Y-52379524D01*
X124594524Y-51998571D01*
X124642143Y-51903333D01*
X124737381Y-51855714D01*
X124927858Y-51855714D01*
X125023096Y-51903333D01*
X125070715Y-51998571D01*
X125070715Y-52093810D01*
X124594524Y-52189048D01*
X125642143Y-52522381D02*
X125546905Y-52474762D01*
X125499286Y-52379524D01*
X125499286Y-51522381D01*
X126451668Y-52522381D02*
X126451668Y-51998571D01*
X126404049Y-51903333D01*
X126308811Y-51855714D01*
X126118334Y-51855714D01*
X126023096Y-51903333D01*
X126451668Y-52474762D02*
X126356430Y-52522381D01*
X126118334Y-52522381D01*
X126023096Y-52474762D01*
X125975477Y-52379524D01*
X125975477Y-52284286D01*
X126023096Y-52189048D01*
X126118334Y-52141429D01*
X126356430Y-52141429D01*
X126451668Y-52093810D01*
X126832620Y-51855714D02*
X127070715Y-52522381D01*
X127308811Y-51855714D02*
X127070715Y-52522381D01*
X126975477Y-52760476D01*
X126927858Y-52808095D01*
X126832620Y-52855714D01*
X171664524Y-58022381D02*
X171664524Y-57022381D01*
X171902619Y-57022381D01*
X172045477Y-57070000D01*
X172140715Y-57165238D01*
X172188334Y-57260476D01*
X172235953Y-57450952D01*
X172235953Y-57593810D01*
X172188334Y-57784286D01*
X172140715Y-57879524D01*
X172045477Y-57974762D01*
X171902619Y-58022381D01*
X171664524Y-58022381D01*
X173188334Y-58022381D02*
X172616905Y-58022381D01*
X172902619Y-58022381D02*
X172902619Y-57022381D01*
X172807381Y-57165238D01*
X172712143Y-57260476D01*
X172616905Y-57308095D01*
X173807381Y-57022381D02*
X173902620Y-57022381D01*
X173997858Y-57070000D01*
X174045477Y-57117619D01*
X174093096Y-57212857D01*
X174140715Y-57403333D01*
X174140715Y-57641429D01*
X174093096Y-57831905D01*
X174045477Y-57927143D01*
X173997858Y-57974762D01*
X173902620Y-58022381D01*
X173807381Y-58022381D01*
X173712143Y-57974762D01*
X173664524Y-57927143D01*
X173616905Y-57831905D01*
X173569286Y-57641429D01*
X173569286Y-57403333D01*
X173616905Y-57212857D01*
X173664524Y-57117619D01*
X173712143Y-57070000D01*
X173807381Y-57022381D01*
X175093096Y-58022381D02*
X174521667Y-58022381D01*
X174807381Y-58022381D02*
X174807381Y-57022381D01*
X174712143Y-57165238D01*
X174616905Y-57260476D01*
X174521667Y-57308095D01*
X172712143Y-52102381D02*
X172235952Y-52102381D01*
X172235952Y-51102381D01*
X173045476Y-51578571D02*
X173378810Y-51578571D01*
X173521667Y-52102381D02*
X173045476Y-52102381D01*
X173045476Y-51102381D01*
X173521667Y-51102381D01*
X173950238Y-52102381D02*
X173950238Y-51102381D01*
X174188333Y-51102381D01*
X174331191Y-51150000D01*
X174426429Y-51245238D01*
X174474048Y-51340476D01*
X174521667Y-51530952D01*
X174521667Y-51673810D01*
X174474048Y-51864286D01*
X174426429Y-51959524D01*
X174331191Y-52054762D01*
X174188333Y-52102381D01*
X173950238Y-52102381D01*
X142562381Y-53760476D02*
X141562381Y-53760476D01*
X141562381Y-53522381D01*
X141610000Y-53379523D01*
X141705238Y-53284285D01*
X141800476Y-53236666D01*
X141990952Y-53189047D01*
X142133810Y-53189047D01*
X142324286Y-53236666D01*
X142419524Y-53284285D01*
X142514762Y-53379523D01*
X142562381Y-53522381D01*
X142562381Y-53760476D01*
X142562381Y-52236666D02*
X142562381Y-52808095D01*
X142562381Y-52522381D02*
X141562381Y-52522381D01*
X141705238Y-52617619D01*
X141800476Y-52712857D01*
X141848095Y-52808095D01*
X141562381Y-51617619D02*
X141562381Y-51522380D01*
X141610000Y-51427142D01*
X141657619Y-51379523D01*
X141752857Y-51331904D01*
X141943333Y-51284285D01*
X142181429Y-51284285D01*
X142371905Y-51331904D01*
X142467143Y-51379523D01*
X142514762Y-51427142D01*
X142562381Y-51522380D01*
X142562381Y-51617619D01*
X142514762Y-51712857D01*
X142467143Y-51760476D01*
X142371905Y-51808095D01*
X142181429Y-51855714D01*
X141943333Y-51855714D01*
X141752857Y-51808095D01*
X141657619Y-51760476D01*
X141610000Y-51712857D01*
X141562381Y-51617619D01*
X141657619Y-50903333D02*
X141610000Y-50855714D01*
X141562381Y-50760476D01*
X141562381Y-50522380D01*
X141610000Y-50427142D01*
X141657619Y-50379523D01*
X141752857Y-50331904D01*
X141848095Y-50331904D01*
X141990952Y-50379523D01*
X142562381Y-50950952D01*
X142562381Y-50331904D01*
X115760715Y-45597381D02*
X115760715Y-46311667D01*
X115713095Y-46454524D01*
X115617857Y-46549762D01*
X115475000Y-46597381D01*
X115379762Y-46597381D01*
X116236905Y-46597381D02*
X116236905Y-45597381D01*
X116617858Y-45597381D01*
X116713096Y-45645000D01*
X116760715Y-45692619D01*
X116808334Y-45787857D01*
X116808334Y-45930714D01*
X116760715Y-46025952D01*
X116713096Y-46073571D01*
X116617858Y-46121190D01*
X116236905Y-46121190D01*
X117808334Y-46597381D02*
X117475000Y-46121190D01*
X117236905Y-46597381D02*
X117236905Y-45597381D01*
X117617858Y-45597381D01*
X117713096Y-45645000D01*
X117760715Y-45692619D01*
X117808334Y-45787857D01*
X117808334Y-45930714D01*
X117760715Y-46025952D01*
X117713096Y-46073571D01*
X117617858Y-46121190D01*
X117236905Y-46121190D01*
X117998810Y-46692619D02*
X118760715Y-46692619D01*
X119522620Y-46597381D02*
X118951191Y-46597381D01*
X119236905Y-46597381D02*
X119236905Y-45597381D01*
X119141667Y-45740238D01*
X119046429Y-45835476D01*
X118951191Y-45883095D01*
X131000715Y-45597381D02*
X131000715Y-46311667D01*
X130953095Y-46454524D01*
X130857857Y-46549762D01*
X130715000Y-46597381D01*
X130619762Y-46597381D01*
X131476905Y-46597381D02*
X131476905Y-45597381D01*
X131857858Y-45597381D01*
X131953096Y-45645000D01*
X132000715Y-45692619D01*
X132048334Y-45787857D01*
X132048334Y-45930714D01*
X132000715Y-46025952D01*
X131953096Y-46073571D01*
X131857858Y-46121190D01*
X131476905Y-46121190D01*
X133048334Y-46597381D02*
X132715000Y-46121190D01*
X132476905Y-46597381D02*
X132476905Y-45597381D01*
X132857858Y-45597381D01*
X132953096Y-45645000D01*
X133000715Y-45692619D01*
X133048334Y-45787857D01*
X133048334Y-45930714D01*
X133000715Y-46025952D01*
X132953096Y-46073571D01*
X132857858Y-46121190D01*
X132476905Y-46121190D01*
X133238810Y-46692619D02*
X134000715Y-46692619D01*
X134191191Y-45692619D02*
X134238810Y-45645000D01*
X134334048Y-45597381D01*
X134572144Y-45597381D01*
X134667382Y-45645000D01*
X134715001Y-45692619D01*
X134762620Y-45787857D01*
X134762620Y-45883095D01*
X134715001Y-46025952D01*
X134143572Y-46597381D01*
X134762620Y-46597381D01*
X146240715Y-45597381D02*
X146240715Y-46311667D01*
X146193095Y-46454524D01*
X146097857Y-46549762D01*
X145955000Y-46597381D01*
X145859762Y-46597381D01*
X146716905Y-46597381D02*
X146716905Y-45597381D01*
X147097858Y-45597381D01*
X147193096Y-45645000D01*
X147240715Y-45692619D01*
X147288334Y-45787857D01*
X147288334Y-45930714D01*
X147240715Y-46025952D01*
X147193096Y-46073571D01*
X147097858Y-46121190D01*
X146716905Y-46121190D01*
X148288334Y-46597381D02*
X147955000Y-46121190D01*
X147716905Y-46597381D02*
X147716905Y-45597381D01*
X148097858Y-45597381D01*
X148193096Y-45645000D01*
X148240715Y-45692619D01*
X148288334Y-45787857D01*
X148288334Y-45930714D01*
X148240715Y-46025952D01*
X148193096Y-46073571D01*
X148097858Y-46121190D01*
X147716905Y-46121190D01*
X148478810Y-46692619D02*
X149240715Y-46692619D01*
X149383572Y-45597381D02*
X150002620Y-45597381D01*
X149669286Y-45978333D01*
X149812144Y-45978333D01*
X149907382Y-46025952D01*
X149955001Y-46073571D01*
X150002620Y-46168810D01*
X150002620Y-46406905D01*
X149955001Y-46502143D01*
X149907382Y-46549762D01*
X149812144Y-46597381D01*
X149526429Y-46597381D01*
X149431191Y-46549762D01*
X149383572Y-46502143D01*
X161480715Y-45597381D02*
X161480715Y-46311667D01*
X161433095Y-46454524D01*
X161337857Y-46549762D01*
X161195000Y-46597381D01*
X161099762Y-46597381D01*
X161956905Y-46597381D02*
X161956905Y-45597381D01*
X162337858Y-45597381D01*
X162433096Y-45645000D01*
X162480715Y-45692619D01*
X162528334Y-45787857D01*
X162528334Y-45930714D01*
X162480715Y-46025952D01*
X162433096Y-46073571D01*
X162337858Y-46121190D01*
X161956905Y-46121190D01*
X163528334Y-46597381D02*
X163195000Y-46121190D01*
X162956905Y-46597381D02*
X162956905Y-45597381D01*
X163337858Y-45597381D01*
X163433096Y-45645000D01*
X163480715Y-45692619D01*
X163528334Y-45787857D01*
X163528334Y-45930714D01*
X163480715Y-46025952D01*
X163433096Y-46073571D01*
X163337858Y-46121190D01*
X162956905Y-46121190D01*
X163718810Y-46692619D02*
X164480715Y-46692619D01*
X165147382Y-45930714D02*
X165147382Y-46597381D01*
X164909286Y-45549762D02*
X164671191Y-46264048D01*
X165290239Y-46264048D01*
X172466215Y-38187381D02*
X172466215Y-38901667D01*
X172418595Y-39044524D01*
X172323357Y-39139762D01*
X172180500Y-39187381D01*
X172085262Y-39187381D01*
X172942405Y-39187381D02*
X172942405Y-38187381D01*
X173323358Y-38187381D01*
X173418596Y-38235000D01*
X173466215Y-38282619D01*
X173513834Y-38377857D01*
X173513834Y-38520714D01*
X173466215Y-38615952D01*
X173418596Y-38663571D01*
X173323358Y-38711190D01*
X172942405Y-38711190D01*
X174513834Y-39187381D02*
X174180500Y-38711190D01*
X173942405Y-39187381D02*
X173942405Y-38187381D01*
X174323358Y-38187381D01*
X174418596Y-38235000D01*
X174466215Y-38282619D01*
X174513834Y-38377857D01*
X174513834Y-38520714D01*
X174466215Y-38615952D01*
X174418596Y-38663571D01*
X174323358Y-38711190D01*
X173942405Y-38711190D01*
X174704310Y-39282619D02*
X175466215Y-39282619D01*
X176180501Y-38187381D02*
X175704310Y-38187381D01*
X175656691Y-38663571D01*
X175704310Y-38615952D01*
X175799548Y-38568333D01*
X176037644Y-38568333D01*
X176132882Y-38615952D01*
X176180501Y-38663571D01*
X176228120Y-38758810D01*
X176228120Y-38996905D01*
X176180501Y-39092143D01*
X176132882Y-39139762D01*
X176037644Y-39187381D01*
X175799548Y-39187381D01*
X175704310Y-39139762D01*
X175656691Y-39092143D01*
X122110715Y-45597381D02*
X122110715Y-46311667D01*
X122063095Y-46454524D01*
X121967857Y-46549762D01*
X121825000Y-46597381D01*
X121729762Y-46597381D01*
X122586905Y-46597381D02*
X122586905Y-45597381D01*
X122967858Y-45597381D01*
X123063096Y-45645000D01*
X123110715Y-45692619D01*
X123158334Y-45787857D01*
X123158334Y-45930714D01*
X123110715Y-46025952D01*
X123063096Y-46073571D01*
X122967858Y-46121190D01*
X122586905Y-46121190D01*
X124158334Y-46597381D02*
X123825000Y-46121190D01*
X123586905Y-46597381D02*
X123586905Y-45597381D01*
X123967858Y-45597381D01*
X124063096Y-45645000D01*
X124110715Y-45692619D01*
X124158334Y-45787857D01*
X124158334Y-45930714D01*
X124110715Y-46025952D01*
X124063096Y-46073571D01*
X123967858Y-46121190D01*
X123586905Y-46121190D01*
X124348810Y-46692619D02*
X125110715Y-46692619D01*
X125777382Y-45597381D02*
X125586905Y-45597381D01*
X125491667Y-45645000D01*
X125444048Y-45692619D01*
X125348810Y-45835476D01*
X125301191Y-46025952D01*
X125301191Y-46406905D01*
X125348810Y-46502143D01*
X125396429Y-46549762D01*
X125491667Y-46597381D01*
X125682144Y-46597381D01*
X125777382Y-46549762D01*
X125825001Y-46502143D01*
X125872620Y-46406905D01*
X125872620Y-46168810D01*
X125825001Y-46073571D01*
X125777382Y-46025952D01*
X125682144Y-45978333D01*
X125491667Y-45978333D01*
X125396429Y-46025952D01*
X125348810Y-46073571D01*
X125301191Y-46168810D01*
X137350715Y-45597381D02*
X137350715Y-46311667D01*
X137303095Y-46454524D01*
X137207857Y-46549762D01*
X137065000Y-46597381D01*
X136969762Y-46597381D01*
X137826905Y-46597381D02*
X137826905Y-45597381D01*
X138207858Y-45597381D01*
X138303096Y-45645000D01*
X138350715Y-45692619D01*
X138398334Y-45787857D01*
X138398334Y-45930714D01*
X138350715Y-46025952D01*
X138303096Y-46073571D01*
X138207858Y-46121190D01*
X137826905Y-46121190D01*
X139398334Y-46597381D02*
X139065000Y-46121190D01*
X138826905Y-46597381D02*
X138826905Y-45597381D01*
X139207858Y-45597381D01*
X139303096Y-45645000D01*
X139350715Y-45692619D01*
X139398334Y-45787857D01*
X139398334Y-45930714D01*
X139350715Y-46025952D01*
X139303096Y-46073571D01*
X139207858Y-46121190D01*
X138826905Y-46121190D01*
X139588810Y-46692619D02*
X140350715Y-46692619D01*
X140493572Y-45597381D02*
X141160239Y-45597381D01*
X140731667Y-46597381D01*
X152590715Y-45597381D02*
X152590715Y-46311667D01*
X152543095Y-46454524D01*
X152447857Y-46549762D01*
X152305000Y-46597381D01*
X152209762Y-46597381D01*
X153066905Y-46597381D02*
X153066905Y-45597381D01*
X153447858Y-45597381D01*
X153543096Y-45645000D01*
X153590715Y-45692619D01*
X153638334Y-45787857D01*
X153638334Y-45930714D01*
X153590715Y-46025952D01*
X153543096Y-46073571D01*
X153447858Y-46121190D01*
X153066905Y-46121190D01*
X154638334Y-46597381D02*
X154305000Y-46121190D01*
X154066905Y-46597381D02*
X154066905Y-45597381D01*
X154447858Y-45597381D01*
X154543096Y-45645000D01*
X154590715Y-45692619D01*
X154638334Y-45787857D01*
X154638334Y-45930714D01*
X154590715Y-46025952D01*
X154543096Y-46073571D01*
X154447858Y-46121190D01*
X154066905Y-46121190D01*
X154828810Y-46692619D02*
X155590715Y-46692619D01*
X155971667Y-46025952D02*
X155876429Y-45978333D01*
X155828810Y-45930714D01*
X155781191Y-45835476D01*
X155781191Y-45787857D01*
X155828810Y-45692619D01*
X155876429Y-45645000D01*
X155971667Y-45597381D01*
X156162144Y-45597381D01*
X156257382Y-45645000D01*
X156305001Y-45692619D01*
X156352620Y-45787857D01*
X156352620Y-45835476D01*
X156305001Y-45930714D01*
X156257382Y-45978333D01*
X156162144Y-46025952D01*
X155971667Y-46025952D01*
X155876429Y-46073571D01*
X155828810Y-46121190D01*
X155781191Y-46216429D01*
X155781191Y-46406905D01*
X155828810Y-46502143D01*
X155876429Y-46549762D01*
X155971667Y-46597381D01*
X156162144Y-46597381D01*
X156257382Y-46549762D01*
X156305001Y-46502143D01*
X156352620Y-46406905D01*
X156352620Y-46216429D01*
X156305001Y-46121190D01*
X156257382Y-46073571D01*
X156162144Y-46025952D01*
X167830715Y-45597381D02*
X167830715Y-46311667D01*
X167783095Y-46454524D01*
X167687857Y-46549762D01*
X167545000Y-46597381D01*
X167449762Y-46597381D01*
X168306905Y-46597381D02*
X168306905Y-45597381D01*
X168687858Y-45597381D01*
X168783096Y-45645000D01*
X168830715Y-45692619D01*
X168878334Y-45787857D01*
X168878334Y-45930714D01*
X168830715Y-46025952D01*
X168783096Y-46073571D01*
X168687858Y-46121190D01*
X168306905Y-46121190D01*
X169878334Y-46597381D02*
X169545000Y-46121190D01*
X169306905Y-46597381D02*
X169306905Y-45597381D01*
X169687858Y-45597381D01*
X169783096Y-45645000D01*
X169830715Y-45692619D01*
X169878334Y-45787857D01*
X169878334Y-45930714D01*
X169830715Y-46025952D01*
X169783096Y-46073571D01*
X169687858Y-46121190D01*
X169306905Y-46121190D01*
X170068810Y-46692619D02*
X170830715Y-46692619D01*
X171116429Y-46597381D02*
X171306905Y-46597381D01*
X171402144Y-46549762D01*
X171449763Y-46502143D01*
X171545001Y-46359286D01*
X171592620Y-46168810D01*
X171592620Y-45787857D01*
X171545001Y-45692619D01*
X171497382Y-45645000D01*
X171402144Y-45597381D01*
X171211667Y-45597381D01*
X171116429Y-45645000D01*
X171068810Y-45692619D01*
X171021191Y-45787857D01*
X171021191Y-46025952D01*
X171068810Y-46121190D01*
X171116429Y-46168810D01*
X171211667Y-46216429D01*
X171402144Y-46216429D01*
X171497382Y-46168810D01*
X171545001Y-46121190D01*
X171592620Y-46025952D01*
X169767381Y-53189047D02*
X169291190Y-53522381D01*
X169767381Y-53760476D02*
X168767381Y-53760476D01*
X168767381Y-53379523D01*
X168815000Y-53284285D01*
X168862619Y-53236666D01*
X168957857Y-53189047D01*
X169100714Y-53189047D01*
X169195952Y-53236666D01*
X169243571Y-53284285D01*
X169291190Y-53379523D01*
X169291190Y-53760476D01*
X169767381Y-52236666D02*
X169767381Y-52808095D01*
X169767381Y-52522381D02*
X168767381Y-52522381D01*
X168910238Y-52617619D01*
X169005476Y-52712857D01*
X169053095Y-52808095D01*
X168767381Y-51617619D02*
X168767381Y-51522380D01*
X168815000Y-51427142D01*
X168862619Y-51379523D01*
X168957857Y-51331904D01*
X169148333Y-51284285D01*
X169386429Y-51284285D01*
X169576905Y-51331904D01*
X169672143Y-51379523D01*
X169719762Y-51427142D01*
X169767381Y-51522380D01*
X169767381Y-51617619D01*
X169719762Y-51712857D01*
X169672143Y-51760476D01*
X169576905Y-51808095D01*
X169386429Y-51855714D01*
X169148333Y-51855714D01*
X168957857Y-51808095D01*
X168862619Y-51760476D01*
X168815000Y-51712857D01*
X168767381Y-51617619D01*
X169767381Y-50331904D02*
X169767381Y-50903333D01*
X169767381Y-50617619D02*
X168767381Y-50617619D01*
X168910238Y-50712857D01*
X169005476Y-50808095D01*
X169053095Y-50903333D01*
X164147381Y-53046190D02*
X164147381Y-53522381D01*
X164623571Y-53570000D01*
X164575952Y-53522381D01*
X164528333Y-53427143D01*
X164528333Y-53189047D01*
X164575952Y-53093809D01*
X164623571Y-53046190D01*
X164718810Y-52998571D01*
X164956905Y-52998571D01*
X165052143Y-53046190D01*
X165099762Y-53093809D01*
X165147381Y-53189047D01*
X165147381Y-53427143D01*
X165099762Y-53522381D01*
X165052143Y-53570000D01*
X165052143Y-52570000D02*
X165099762Y-52522381D01*
X165147381Y-52570000D01*
X165099762Y-52617619D01*
X165052143Y-52570000D01*
X165147381Y-52570000D01*
X165147381Y-51570000D02*
X165147381Y-52141429D01*
X165147381Y-51855715D02*
X164147381Y-51855715D01*
X164290238Y-51950953D01*
X164385476Y-52046191D01*
X164433095Y-52141429D01*
X165147381Y-51141429D02*
X164147381Y-51141429D01*
X165147381Y-50570000D02*
X164575952Y-50998572D01*
X164147381Y-50570000D02*
X164718810Y-51141429D01*
X149447381Y-53189047D02*
X148971190Y-53522381D01*
X149447381Y-53760476D02*
X148447381Y-53760476D01*
X148447381Y-53379523D01*
X148495000Y-53284285D01*
X148542619Y-53236666D01*
X148637857Y-53189047D01*
X148780714Y-53189047D01*
X148875952Y-53236666D01*
X148923571Y-53284285D01*
X148971190Y-53379523D01*
X148971190Y-53760476D01*
X149447381Y-52236666D02*
X149447381Y-52808095D01*
X149447381Y-52522381D02*
X148447381Y-52522381D01*
X148590238Y-52617619D01*
X148685476Y-52712857D01*
X148733095Y-52808095D01*
X148447381Y-51617619D02*
X148447381Y-51522380D01*
X148495000Y-51427142D01*
X148542619Y-51379523D01*
X148637857Y-51331904D01*
X148828333Y-51284285D01*
X149066429Y-51284285D01*
X149256905Y-51331904D01*
X149352143Y-51379523D01*
X149399762Y-51427142D01*
X149447381Y-51522380D01*
X149447381Y-51617619D01*
X149399762Y-51712857D01*
X149352143Y-51760476D01*
X149256905Y-51808095D01*
X149066429Y-51855714D01*
X148828333Y-51855714D01*
X148637857Y-51808095D01*
X148542619Y-51760476D01*
X148495000Y-51712857D01*
X148447381Y-51617619D01*
X148542619Y-50903333D02*
X148495000Y-50855714D01*
X148447381Y-50760476D01*
X148447381Y-50522380D01*
X148495000Y-50427142D01*
X148542619Y-50379523D01*
X148637857Y-50331904D01*
X148733095Y-50331904D01*
X148875952Y-50379523D01*
X149447381Y-50950952D01*
X149447381Y-50331904D01*
X143827381Y-53355714D02*
X143827381Y-52736666D01*
X144208333Y-53070000D01*
X144208333Y-52927142D01*
X144255952Y-52831904D01*
X144303571Y-52784285D01*
X144398810Y-52736666D01*
X144636905Y-52736666D01*
X144732143Y-52784285D01*
X144779762Y-52831904D01*
X144827381Y-52927142D01*
X144827381Y-53212857D01*
X144779762Y-53308095D01*
X144732143Y-53355714D01*
X143827381Y-52403333D02*
X143827381Y-51784285D01*
X144208333Y-52117619D01*
X144208333Y-51974761D01*
X144255952Y-51879523D01*
X144303571Y-51831904D01*
X144398810Y-51784285D01*
X144636905Y-51784285D01*
X144732143Y-51831904D01*
X144779762Y-51879523D01*
X144827381Y-51974761D01*
X144827381Y-52260476D01*
X144779762Y-52355714D01*
X144732143Y-52403333D01*
X143827381Y-51165238D02*
X143827381Y-51069999D01*
X143875000Y-50974761D01*
X143922619Y-50927142D01*
X144017857Y-50879523D01*
X144208333Y-50831904D01*
X144446429Y-50831904D01*
X144636905Y-50879523D01*
X144732143Y-50927142D01*
X144779762Y-50974761D01*
X144827381Y-51069999D01*
X144827381Y-51165238D01*
X144779762Y-51260476D01*
X144732143Y-51308095D01*
X144636905Y-51355714D01*
X144446429Y-51403333D01*
X144208333Y-51403333D01*
X144017857Y-51355714D01*
X143922619Y-51308095D01*
X143875000Y-51260476D01*
X143827381Y-51165238D01*
X158797381Y-53189047D02*
X158321190Y-53522381D01*
X158797381Y-53760476D02*
X157797381Y-53760476D01*
X157797381Y-53379523D01*
X157845000Y-53284285D01*
X157892619Y-53236666D01*
X157987857Y-53189047D01*
X158130714Y-53189047D01*
X158225952Y-53236666D01*
X158273571Y-53284285D01*
X158321190Y-53379523D01*
X158321190Y-53760476D01*
X158797381Y-52236666D02*
X158797381Y-52808095D01*
X158797381Y-52522381D02*
X157797381Y-52522381D01*
X157940238Y-52617619D01*
X158035476Y-52712857D01*
X158083095Y-52808095D01*
X157797381Y-51617619D02*
X157797381Y-51522380D01*
X157845000Y-51427142D01*
X157892619Y-51379523D01*
X157987857Y-51331904D01*
X158178333Y-51284285D01*
X158416429Y-51284285D01*
X158606905Y-51331904D01*
X158702143Y-51379523D01*
X158749762Y-51427142D01*
X158797381Y-51522380D01*
X158797381Y-51617619D01*
X158749762Y-51712857D01*
X158702143Y-51760476D01*
X158606905Y-51808095D01*
X158416429Y-51855714D01*
X158178333Y-51855714D01*
X157987857Y-51808095D01*
X157892619Y-51760476D01*
X157845000Y-51712857D01*
X157797381Y-51617619D01*
X157797381Y-50950952D02*
X157797381Y-50331904D01*
X158178333Y-50665238D01*
X158178333Y-50522380D01*
X158225952Y-50427142D01*
X158273571Y-50379523D01*
X158368810Y-50331904D01*
X158606905Y-50331904D01*
X158702143Y-50379523D01*
X158749762Y-50427142D01*
X158797381Y-50522380D01*
X158797381Y-50808095D01*
X158749762Y-50903333D01*
X158702143Y-50950952D01*
X163417381Y-52760476D02*
X163417381Y-53331905D01*
X163417381Y-53046191D02*
X162417381Y-53046191D01*
X162560238Y-53141429D01*
X162655476Y-53236667D01*
X162703095Y-53331905D01*
X162845952Y-52189048D02*
X162798333Y-52284286D01*
X162750714Y-52331905D01*
X162655476Y-52379524D01*
X162607857Y-52379524D01*
X162512619Y-52331905D01*
X162465000Y-52284286D01*
X162417381Y-52189048D01*
X162417381Y-51998571D01*
X162465000Y-51903333D01*
X162512619Y-51855714D01*
X162607857Y-51808095D01*
X162655476Y-51808095D01*
X162750714Y-51855714D01*
X162798333Y-51903333D01*
X162845952Y-51998571D01*
X162845952Y-52189048D01*
X162893571Y-52284286D01*
X162941190Y-52331905D01*
X163036429Y-52379524D01*
X163226905Y-52379524D01*
X163322143Y-52331905D01*
X163369762Y-52284286D01*
X163417381Y-52189048D01*
X163417381Y-51998571D01*
X163369762Y-51903333D01*
X163322143Y-51855714D01*
X163226905Y-51808095D01*
X163036429Y-51808095D01*
X162941190Y-51855714D01*
X162893571Y-51903333D01*
X162845952Y-51998571D01*
X163417381Y-51379524D02*
X162417381Y-51379524D01*
X163417381Y-50808095D02*
X162845952Y-51236667D01*
X162417381Y-50808095D02*
X162988810Y-51379524D01*
X151812381Y-53189047D02*
X151336190Y-53522381D01*
X151812381Y-53760476D02*
X150812381Y-53760476D01*
X150812381Y-53379523D01*
X150860000Y-53284285D01*
X150907619Y-53236666D01*
X151002857Y-53189047D01*
X151145714Y-53189047D01*
X151240952Y-53236666D01*
X151288571Y-53284285D01*
X151336190Y-53379523D01*
X151336190Y-53760476D01*
X151812381Y-52236666D02*
X151812381Y-52808095D01*
X151812381Y-52522381D02*
X150812381Y-52522381D01*
X150955238Y-52617619D01*
X151050476Y-52712857D01*
X151098095Y-52808095D01*
X150812381Y-51617619D02*
X150812381Y-51522380D01*
X150860000Y-51427142D01*
X150907619Y-51379523D01*
X151002857Y-51331904D01*
X151193333Y-51284285D01*
X151431429Y-51284285D01*
X151621905Y-51331904D01*
X151717143Y-51379523D01*
X151764762Y-51427142D01*
X151812381Y-51522380D01*
X151812381Y-51617619D01*
X151764762Y-51712857D01*
X151717143Y-51760476D01*
X151621905Y-51808095D01*
X151431429Y-51855714D01*
X151193333Y-51855714D01*
X151002857Y-51808095D01*
X150907619Y-51760476D01*
X150860000Y-51712857D01*
X150812381Y-51617619D01*
X151145714Y-50427142D02*
X151812381Y-50427142D01*
X150764762Y-50665238D02*
X151479048Y-50903333D01*
X151479048Y-50284285D01*
X155432381Y-53379524D02*
X155432381Y-52712857D01*
X156432381Y-53141429D01*
X155432381Y-51855714D02*
X155432381Y-52331905D01*
X155908571Y-52379524D01*
X155860952Y-52331905D01*
X155813333Y-52236667D01*
X155813333Y-51998571D01*
X155860952Y-51903333D01*
X155908571Y-51855714D01*
X156003810Y-51808095D01*
X156241905Y-51808095D01*
X156337143Y-51855714D01*
X156384762Y-51903333D01*
X156432381Y-51998571D01*
X156432381Y-52236667D01*
X156384762Y-52331905D01*
X156337143Y-52379524D01*
X156432381Y-51379524D02*
X155432381Y-51379524D01*
X156432381Y-50808095D02*
X155860952Y-51236667D01*
X155432381Y-50808095D02*
X156003810Y-51379524D01*
X186245714Y-50887381D02*
X186245714Y-51696905D01*
X186293333Y-51792143D01*
X186340952Y-51839762D01*
X186436190Y-51887381D01*
X186626667Y-51887381D01*
X186721905Y-51839762D01*
X186769524Y-51792143D01*
X186817143Y-51696905D01*
X186817143Y-50887381D01*
X187817143Y-51887381D02*
X187245714Y-51887381D01*
X187531428Y-51887381D02*
X187531428Y-50887381D01*
X187436190Y-51030238D01*
X187340952Y-51125476D01*
X187245714Y-51173095D01*
X188436190Y-50887381D02*
X188531429Y-50887381D01*
X188626667Y-50935000D01*
X188674286Y-50982619D01*
X188721905Y-51077857D01*
X188769524Y-51268333D01*
X188769524Y-51506429D01*
X188721905Y-51696905D01*
X188674286Y-51792143D01*
X188626667Y-51839762D01*
X188531429Y-51887381D01*
X188436190Y-51887381D01*
X188340952Y-51839762D01*
X188293333Y-51792143D01*
X188245714Y-51696905D01*
X188198095Y-51506429D01*
X188198095Y-51268333D01*
X188245714Y-51077857D01*
X188293333Y-50982619D01*
X188340952Y-50935000D01*
X188436190Y-50887381D01*
X189721905Y-51887381D02*
X189150476Y-51887381D01*
X189436190Y-51887381D02*
X189436190Y-50887381D01*
X189340952Y-51030238D01*
X189245714Y-51125476D01*
X189150476Y-51173095D01*
X182570952Y-48347381D02*
X182094761Y-48347381D01*
X182047142Y-48823571D01*
X182094761Y-48775952D01*
X182189999Y-48728333D01*
X182428095Y-48728333D01*
X182523333Y-48775952D01*
X182570952Y-48823571D01*
X182618571Y-48918810D01*
X182618571Y-49156905D01*
X182570952Y-49252143D01*
X182523333Y-49299762D01*
X182428095Y-49347381D01*
X182189999Y-49347381D01*
X182094761Y-49299762D01*
X182047142Y-49252143D01*
X182951904Y-48680714D02*
X183189999Y-49347381D01*
X183428095Y-48680714D01*
X183570952Y-49442619D02*
X184332857Y-49442619D01*
X185142381Y-49347381D02*
X184809047Y-48871190D01*
X184570952Y-49347381D02*
X184570952Y-48347381D01*
X184951905Y-48347381D01*
X185047143Y-48395000D01*
X185094762Y-48442619D01*
X185142381Y-48537857D01*
X185142381Y-48680714D01*
X185094762Y-48775952D01*
X185047143Y-48823571D01*
X184951905Y-48871190D01*
X184570952Y-48871190D01*
X185951905Y-49299762D02*
X185856667Y-49347381D01*
X185666190Y-49347381D01*
X185570952Y-49299762D01*
X185523333Y-49204524D01*
X185523333Y-48823571D01*
X185570952Y-48728333D01*
X185666190Y-48680714D01*
X185856667Y-48680714D01*
X185951905Y-48728333D01*
X185999524Y-48823571D01*
X185999524Y-48918810D01*
X185523333Y-49014048D01*
X186856667Y-48680714D02*
X186856667Y-49490238D01*
X186809048Y-49585476D01*
X186761429Y-49633095D01*
X186666190Y-49680714D01*
X186523333Y-49680714D01*
X186428095Y-49633095D01*
X186856667Y-49299762D02*
X186761429Y-49347381D01*
X186570952Y-49347381D01*
X186475714Y-49299762D01*
X186428095Y-49252143D01*
X186380476Y-49156905D01*
X186380476Y-48871190D01*
X186428095Y-48775952D01*
X186475714Y-48728333D01*
X186570952Y-48680714D01*
X186761429Y-48680714D01*
X186856667Y-48728333D01*
X187761429Y-48680714D02*
X187761429Y-49347381D01*
X187332857Y-48680714D02*
X187332857Y-49204524D01*
X187380476Y-49299762D01*
X187475714Y-49347381D01*
X187618572Y-49347381D01*
X187713810Y-49299762D01*
X187761429Y-49252143D01*
X188380476Y-49347381D02*
X188285238Y-49299762D01*
X188237619Y-49204524D01*
X188237619Y-48347381D01*
X189190001Y-49347381D02*
X189190001Y-48823571D01*
X189142382Y-48728333D01*
X189047144Y-48680714D01*
X188856667Y-48680714D01*
X188761429Y-48728333D01*
X189190001Y-49299762D02*
X189094763Y-49347381D01*
X188856667Y-49347381D01*
X188761429Y-49299762D01*
X188713810Y-49204524D01*
X188713810Y-49109286D01*
X188761429Y-49014048D01*
X188856667Y-48966429D01*
X189094763Y-48966429D01*
X189190001Y-48918810D01*
X189523334Y-48680714D02*
X189904286Y-48680714D01*
X189666191Y-48347381D02*
X189666191Y-49204524D01*
X189713810Y-49299762D01*
X189809048Y-49347381D01*
X189904286Y-49347381D01*
X190380477Y-49347381D02*
X190285239Y-49299762D01*
X190237620Y-49252143D01*
X190190001Y-49156905D01*
X190190001Y-48871190D01*
X190237620Y-48775952D01*
X190285239Y-48728333D01*
X190380477Y-48680714D01*
X190523335Y-48680714D01*
X190618573Y-48728333D01*
X190666192Y-48775952D01*
X190713811Y-48871190D01*
X190713811Y-49156905D01*
X190666192Y-49252143D01*
X190618573Y-49299762D01*
X190523335Y-49347381D01*
X190380477Y-49347381D01*
X191142382Y-49347381D02*
X191142382Y-48680714D01*
X191142382Y-48871190D02*
X191190001Y-48775952D01*
X191237620Y-48728333D01*
X191332858Y-48680714D01*
X191428097Y-48680714D01*
X182062381Y-45846905D02*
X181062381Y-45846905D01*
X181062381Y-45465952D01*
X181110000Y-45370714D01*
X181157619Y-45323095D01*
X181252857Y-45275476D01*
X181395714Y-45275476D01*
X181490952Y-45323095D01*
X181538571Y-45370714D01*
X181586190Y-45465952D01*
X181586190Y-45846905D01*
X181110000Y-44323095D02*
X181062381Y-44418333D01*
X181062381Y-44561190D01*
X181110000Y-44704048D01*
X181205238Y-44799286D01*
X181300476Y-44846905D01*
X181490952Y-44894524D01*
X181633810Y-44894524D01*
X181824286Y-44846905D01*
X181919524Y-44799286D01*
X182014762Y-44704048D01*
X182062381Y-44561190D01*
X182062381Y-44465952D01*
X182014762Y-44323095D01*
X181967143Y-44275476D01*
X181633810Y-44275476D01*
X181633810Y-44465952D01*
X184554762Y-46918333D02*
X184602381Y-46775476D01*
X184602381Y-46537380D01*
X184554762Y-46442142D01*
X184507143Y-46394523D01*
X184411905Y-46346904D01*
X184316667Y-46346904D01*
X184221429Y-46394523D01*
X184173810Y-46442142D01*
X184126190Y-46537380D01*
X184078571Y-46727857D01*
X184030952Y-46823095D01*
X183983333Y-46870714D01*
X183888095Y-46918333D01*
X183792857Y-46918333D01*
X183697619Y-46870714D01*
X183650000Y-46823095D01*
X183602381Y-46727857D01*
X183602381Y-46489761D01*
X183650000Y-46346904D01*
X184602381Y-45918333D02*
X183602381Y-45918333D01*
X184078571Y-45918333D02*
X184078571Y-45346904D01*
X184602381Y-45346904D02*
X183602381Y-45346904D01*
X184602381Y-44870714D02*
X183602381Y-44870714D01*
X183602381Y-44632619D01*
X183650000Y-44489761D01*
X183745238Y-44394523D01*
X183840476Y-44346904D01*
X184030952Y-44299285D01*
X184173810Y-44299285D01*
X184364286Y-44346904D01*
X184459524Y-44394523D01*
X184554762Y-44489761D01*
X184602381Y-44632619D01*
X184602381Y-44870714D01*
X184602381Y-43870714D02*
X183602381Y-43870714D01*
X184602381Y-43299285D01*
X183602381Y-43299285D01*
X183430000Y-47108809D02*
X183430000Y-43061190D01*
X186142381Y-46180238D02*
X187142381Y-45846905D01*
X186142381Y-45513571D01*
X187142381Y-45180238D02*
X186142381Y-45180238D01*
X187142381Y-44704048D02*
X186142381Y-44704048D01*
X187142381Y-44132619D01*
X186142381Y-44132619D01*
X188730000Y-45846904D02*
X188682381Y-45942142D01*
X188682381Y-46084999D01*
X188730000Y-46227857D01*
X188825238Y-46323095D01*
X188920476Y-46370714D01*
X189110952Y-46418333D01*
X189253810Y-46418333D01*
X189444286Y-46370714D01*
X189539524Y-46323095D01*
X189634762Y-46227857D01*
X189682381Y-46084999D01*
X189682381Y-45989761D01*
X189634762Y-45846904D01*
X189587143Y-45799285D01*
X189253810Y-45799285D01*
X189253810Y-45989761D01*
X189682381Y-45370714D02*
X188682381Y-45370714D01*
X189682381Y-44799285D01*
X188682381Y-44799285D01*
X189682381Y-44323095D02*
X188682381Y-44323095D01*
X188682381Y-44085000D01*
X188730000Y-43942142D01*
X188825238Y-43846904D01*
X188920476Y-43799285D01*
X189110952Y-43751666D01*
X189253810Y-43751666D01*
X189444286Y-43799285D01*
X189539524Y-43846904D01*
X189634762Y-43942142D01*
X189682381Y-44085000D01*
X189682381Y-44323095D01*
X191222381Y-46846905D02*
X192222381Y-46513572D01*
X191222381Y-46180238D01*
X191222381Y-45656429D02*
X191222381Y-45465952D01*
X191270000Y-45370714D01*
X191365238Y-45275476D01*
X191555714Y-45227857D01*
X191889048Y-45227857D01*
X192079524Y-45275476D01*
X192174762Y-45370714D01*
X192222381Y-45465952D01*
X192222381Y-45656429D01*
X192174762Y-45751667D01*
X192079524Y-45846905D01*
X191889048Y-45894524D01*
X191555714Y-45894524D01*
X191365238Y-45846905D01*
X191270000Y-45751667D01*
X191222381Y-45656429D01*
X191222381Y-44799286D02*
X192031905Y-44799286D01*
X192127143Y-44751667D01*
X192174762Y-44704048D01*
X192222381Y-44608810D01*
X192222381Y-44418333D01*
X192174762Y-44323095D01*
X192127143Y-44275476D01*
X192031905Y-44227857D01*
X191222381Y-44227857D01*
X191222381Y-43894524D02*
X191222381Y-43323095D01*
X192222381Y-43608810D02*
X191222381Y-43608810D01*
X137457619Y-54387619D02*
X137410000Y-54482857D01*
X137314762Y-54578095D01*
X137171905Y-54720952D01*
X137124286Y-54816191D01*
X137124286Y-54911429D01*
X137362381Y-54863810D02*
X137314762Y-54959048D01*
X137219524Y-55054286D01*
X137029048Y-55101905D01*
X136695714Y-55101905D01*
X136505238Y-55054286D01*
X136410000Y-54959048D01*
X136362381Y-54863810D01*
X136362381Y-54673333D01*
X136410000Y-54578095D01*
X136505238Y-54482857D01*
X136695714Y-54435238D01*
X137029048Y-54435238D01*
X137219524Y-54482857D01*
X137314762Y-54578095D01*
X137362381Y-54673333D01*
X137362381Y-54863810D01*
X137362381Y-53482857D02*
X137362381Y-54054286D01*
X137362381Y-53768572D02*
X136362381Y-53768572D01*
X136505238Y-53863810D01*
X136600476Y-53959048D01*
X136648095Y-54054286D01*
X136362381Y-52863810D02*
X136362381Y-52768571D01*
X136410000Y-52673333D01*
X136457619Y-52625714D01*
X136552857Y-52578095D01*
X136743333Y-52530476D01*
X136981429Y-52530476D01*
X137171905Y-52578095D01*
X137267143Y-52625714D01*
X137314762Y-52673333D01*
X137362381Y-52768571D01*
X137362381Y-52863810D01*
X137314762Y-52959048D01*
X137267143Y-53006667D01*
X137171905Y-53054286D01*
X136981429Y-53101905D01*
X136743333Y-53101905D01*
X136552857Y-53054286D01*
X136457619Y-53006667D01*
X136410000Y-52959048D01*
X136362381Y-52863810D01*
X137362381Y-51578095D02*
X137362381Y-52149524D01*
X137362381Y-51863810D02*
X136362381Y-51863810D01*
X136505238Y-51959048D01*
X136600476Y-52054286D01*
X136648095Y-52149524D01*
X154517886Y-77735181D02*
X154517886Y-78449467D01*
X154470266Y-78592324D01*
X154375028Y-78687562D01*
X154232171Y-78735181D01*
X154136933Y-78735181D01*
X155517886Y-78735181D02*
X154946457Y-78735181D01*
X155232171Y-78735181D02*
X155232171Y-77735181D01*
X155136933Y-77878038D01*
X155041695Y-77973276D01*
X154946457Y-78020895D01*
X155898838Y-77830419D02*
X155946457Y-77782800D01*
X156041695Y-77735181D01*
X156279791Y-77735181D01*
X156375029Y-77782800D01*
X156422648Y-77830419D01*
X156470267Y-77925657D01*
X156470267Y-78020895D01*
X156422648Y-78163752D01*
X155851219Y-78735181D01*
X156470267Y-78735181D01*
X157327410Y-77735181D02*
X157136933Y-77735181D01*
X157041695Y-77782800D01*
X156994076Y-77830419D01*
X156898838Y-77973276D01*
X156851219Y-78163752D01*
X156851219Y-78544705D01*
X156898838Y-78639943D01*
X156946457Y-78687562D01*
X157041695Y-78735181D01*
X157232172Y-78735181D01*
X157327410Y-78687562D01*
X157375029Y-78639943D01*
X157422648Y-78544705D01*
X157422648Y-78306610D01*
X157375029Y-78211371D01*
X157327410Y-78163752D01*
X157232172Y-78116133D01*
X157041695Y-78116133D01*
X156946457Y-78163752D01*
X156898838Y-78211371D01*
X156851219Y-78306610D01*
X151835333Y-63458571D02*
X152168667Y-63458571D01*
X152311524Y-63982381D02*
X151835333Y-63982381D01*
X151835333Y-62982381D01*
X152311524Y-62982381D01*
X153073429Y-63458571D02*
X152740095Y-63458571D01*
X152740095Y-63982381D02*
X152740095Y-62982381D01*
X153216286Y-62982381D01*
X153597238Y-63982381D02*
X153597238Y-62982381D01*
X153835333Y-64077619D02*
X154597238Y-64077619D01*
X154835333Y-63458571D02*
X155168667Y-63458571D01*
X155311524Y-63982381D02*
X154835333Y-63982381D01*
X154835333Y-62982381D01*
X155311524Y-62982381D01*
X155740095Y-63982381D02*
X155740095Y-62982381D01*
X156311524Y-63982381D01*
X156311524Y-62982381D01*
X156549619Y-64077619D02*
X157311524Y-64077619D01*
X157502000Y-63934762D02*
X157644857Y-63982381D01*
X157882953Y-63982381D01*
X157978191Y-63934762D01*
X158025810Y-63887143D01*
X158073429Y-63791905D01*
X158073429Y-63696667D01*
X158025810Y-63601429D01*
X157978191Y-63553810D01*
X157882953Y-63506190D01*
X157692476Y-63458571D01*
X157597238Y-63410952D01*
X157549619Y-63363333D01*
X157502000Y-63268095D01*
X157502000Y-63172857D01*
X157549619Y-63077619D01*
X157597238Y-63030000D01*
X157692476Y-62982381D01*
X157930572Y-62982381D01*
X158073429Y-63030000D01*
X158406762Y-62982381D02*
X158644857Y-63982381D01*
X158835334Y-63268095D01*
X159025810Y-63982381D01*
X159263905Y-62982381D01*
D18*
X153447810Y-68764286D02*
X153924001Y-68421429D01*
X154400191Y-68764286D01*
D16*
X173567886Y-77735181D02*
X173567886Y-78449467D01*
X173520266Y-78592324D01*
X173425028Y-78687562D01*
X173282171Y-78735181D01*
X173186933Y-78735181D01*
X174567886Y-78735181D02*
X173996457Y-78735181D01*
X174282171Y-78735181D02*
X174282171Y-77735181D01*
X174186933Y-77878038D01*
X174091695Y-77973276D01*
X173996457Y-78020895D01*
X174948838Y-77830419D02*
X174996457Y-77782800D01*
X175091695Y-77735181D01*
X175329791Y-77735181D01*
X175425029Y-77782800D01*
X175472648Y-77830419D01*
X175520267Y-77925657D01*
X175520267Y-78020895D01*
X175472648Y-78163752D01*
X174901219Y-78735181D01*
X175520267Y-78735181D01*
X176425029Y-77735181D02*
X175948838Y-77735181D01*
X175901219Y-78211371D01*
X175948838Y-78163752D01*
X176044076Y-78116133D01*
X176282172Y-78116133D01*
X176377410Y-78163752D01*
X176425029Y-78211371D01*
X176472648Y-78306610D01*
X176472648Y-78544705D01*
X176425029Y-78639943D01*
X176377410Y-78687562D01*
X176282172Y-78735181D01*
X176044076Y-78735181D01*
X175948838Y-78687562D01*
X175901219Y-78639943D01*
X170480571Y-63458571D02*
X170813905Y-63458571D01*
X170956762Y-63982381D02*
X170480571Y-63982381D01*
X170480571Y-62982381D01*
X170956762Y-62982381D01*
X171718667Y-63458571D02*
X171385333Y-63458571D01*
X171385333Y-63982381D02*
X171385333Y-62982381D01*
X171861524Y-62982381D01*
X172242476Y-63982381D02*
X172242476Y-62982381D01*
X172480571Y-64077619D02*
X173242476Y-64077619D01*
X173671047Y-62982381D02*
X173861524Y-62982381D01*
X173956762Y-63030000D01*
X174052000Y-63125238D01*
X174099619Y-63315714D01*
X174099619Y-63649048D01*
X174052000Y-63839524D01*
X173956762Y-63934762D01*
X173861524Y-63982381D01*
X173671047Y-63982381D01*
X173575809Y-63934762D01*
X173480571Y-63839524D01*
X173432952Y-63649048D01*
X173432952Y-63315714D01*
X173480571Y-63125238D01*
X173575809Y-63030000D01*
X173671047Y-62982381D01*
X174528190Y-63315714D02*
X174528190Y-63982381D01*
X174528190Y-63410952D02*
X174575809Y-63363333D01*
X174671047Y-63315714D01*
X174813905Y-63315714D01*
X174909143Y-63363333D01*
X174956762Y-63458571D01*
X174956762Y-63982381D01*
X175194857Y-64077619D02*
X175956762Y-64077619D01*
X176766286Y-63887143D02*
X176718667Y-63934762D01*
X176575810Y-63982381D01*
X176480572Y-63982381D01*
X176337714Y-63934762D01*
X176242476Y-63839524D01*
X176194857Y-63744286D01*
X176147238Y-63553810D01*
X176147238Y-63410952D01*
X176194857Y-63220476D01*
X176242476Y-63125238D01*
X176337714Y-63030000D01*
X176480572Y-62982381D01*
X176575810Y-62982381D01*
X176718667Y-63030000D01*
X176766286Y-63077619D01*
X177147238Y-63696667D02*
X177623429Y-63696667D01*
X177052000Y-63982381D02*
X177385333Y-62982381D01*
X177718667Y-63982381D01*
X178052000Y-63982381D02*
X178052000Y-62982381D01*
X178623429Y-63982381D01*
X178623429Y-62982381D01*
D18*
X172497810Y-68764286D02*
X172974001Y-68421429D01*
X173450191Y-68764286D01*
D16*
X116417886Y-77735181D02*
X116417886Y-78449467D01*
X116370266Y-78592324D01*
X116275028Y-78687562D01*
X116132171Y-78735181D01*
X116036933Y-78735181D01*
X117417886Y-78735181D02*
X116846457Y-78735181D01*
X117132171Y-78735181D02*
X117132171Y-77735181D01*
X117036933Y-77878038D01*
X116941695Y-77973276D01*
X116846457Y-78020895D01*
X117798838Y-77830419D02*
X117846457Y-77782800D01*
X117941695Y-77735181D01*
X118179791Y-77735181D01*
X118275029Y-77782800D01*
X118322648Y-77830419D01*
X118370267Y-77925657D01*
X118370267Y-78020895D01*
X118322648Y-78163752D01*
X117751219Y-78735181D01*
X118370267Y-78735181D01*
X119227410Y-78068514D02*
X119227410Y-78735181D01*
X118989314Y-77687562D02*
X118751219Y-78401848D01*
X119370267Y-78401848D01*
X116483000Y-63952381D02*
X116483000Y-62952381D01*
X117054429Y-63952381D02*
X116625857Y-63380952D01*
X117054429Y-62952381D02*
X116483000Y-63523810D01*
X117483000Y-63952381D02*
X117483000Y-63285714D01*
X117483000Y-62952381D02*
X117435381Y-63000000D01*
X117483000Y-63047619D01*
X117530619Y-63000000D01*
X117483000Y-62952381D01*
X117483000Y-63047619D01*
X118102047Y-63952381D02*
X118006809Y-63904762D01*
X117959190Y-63809524D01*
X117959190Y-62952381D01*
X118625857Y-63952381D02*
X118530619Y-63904762D01*
X118483000Y-63809524D01*
X118483000Y-62952381D01*
X118911572Y-62952381D02*
X119530620Y-62952381D01*
X119197286Y-63333333D01*
X119340144Y-63333333D01*
X119435382Y-63380952D01*
X119483001Y-63428571D01*
X119530620Y-63523810D01*
X119530620Y-63761905D01*
X119483001Y-63857143D01*
X119435382Y-63904762D01*
X119340144Y-63952381D01*
X119054429Y-63952381D01*
X118959191Y-63904762D01*
X118911572Y-63857143D01*
D18*
X115347810Y-68764286D02*
X115824001Y-68421429D01*
X116300191Y-68764286D01*
D16*
X125942886Y-77735181D02*
X125942886Y-78449467D01*
X125895266Y-78592324D01*
X125800028Y-78687562D01*
X125657171Y-78735181D01*
X125561933Y-78735181D01*
X126942886Y-78735181D02*
X126371457Y-78735181D01*
X126657171Y-78735181D02*
X126657171Y-77735181D01*
X126561933Y-77878038D01*
X126466695Y-77973276D01*
X126371457Y-78020895D01*
X127323838Y-77830419D02*
X127371457Y-77782800D01*
X127466695Y-77735181D01*
X127704791Y-77735181D01*
X127800029Y-77782800D01*
X127847648Y-77830419D01*
X127895267Y-77925657D01*
X127895267Y-78020895D01*
X127847648Y-78163752D01*
X127276219Y-78735181D01*
X127895267Y-78735181D01*
X128228600Y-77735181D02*
X128847648Y-77735181D01*
X128514314Y-78116133D01*
X128657172Y-78116133D01*
X128752410Y-78163752D01*
X128800029Y-78211371D01*
X128847648Y-78306610D01*
X128847648Y-78544705D01*
X128800029Y-78639943D01*
X128752410Y-78687562D01*
X128657172Y-78735181D01*
X128371457Y-78735181D01*
X128276219Y-78687562D01*
X128228600Y-78639943D01*
X125427000Y-63982381D02*
X125427000Y-62982381D01*
X125998429Y-63982381D02*
X125569857Y-63410952D01*
X125998429Y-62982381D02*
X125427000Y-63553810D01*
X126427000Y-63982381D02*
X126427000Y-63315714D01*
X126427000Y-62982381D02*
X126379381Y-63030000D01*
X126427000Y-63077619D01*
X126474619Y-63030000D01*
X126427000Y-62982381D01*
X126427000Y-63077619D01*
X127046047Y-63982381D02*
X126950809Y-63934762D01*
X126903190Y-63839524D01*
X126903190Y-62982381D01*
X127569857Y-63982381D02*
X127474619Y-63934762D01*
X127427000Y-63839524D01*
X127427000Y-62982381D01*
X127903191Y-63077619D02*
X127950810Y-63030000D01*
X128046048Y-62982381D01*
X128284144Y-62982381D01*
X128379382Y-63030000D01*
X128427001Y-63077619D01*
X128474620Y-63172857D01*
X128474620Y-63268095D01*
X128427001Y-63410952D01*
X127855572Y-63982381D01*
X128474620Y-63982381D01*
D18*
X124872810Y-68764286D02*
X125349001Y-68421429D01*
X125825191Y-68764286D01*
D16*
X135467886Y-77735181D02*
X135467886Y-78449467D01*
X135420266Y-78592324D01*
X135325028Y-78687562D01*
X135182171Y-78735181D01*
X135086933Y-78735181D01*
X136467886Y-78735181D02*
X135896457Y-78735181D01*
X136182171Y-78735181D02*
X136182171Y-77735181D01*
X136086933Y-77878038D01*
X135991695Y-77973276D01*
X135896457Y-78020895D01*
X136848838Y-77830419D02*
X136896457Y-77782800D01*
X136991695Y-77735181D01*
X137229791Y-77735181D01*
X137325029Y-77782800D01*
X137372648Y-77830419D01*
X137420267Y-77925657D01*
X137420267Y-78020895D01*
X137372648Y-78163752D01*
X136801219Y-78735181D01*
X137420267Y-78735181D01*
X137801219Y-77830419D02*
X137848838Y-77782800D01*
X137944076Y-77735181D01*
X138182172Y-77735181D01*
X138277410Y-77782800D01*
X138325029Y-77830419D01*
X138372648Y-77925657D01*
X138372648Y-78020895D01*
X138325029Y-78163752D01*
X137753600Y-78735181D01*
X138372648Y-78735181D01*
X134952000Y-63982381D02*
X134952000Y-62982381D01*
X135523429Y-63982381D02*
X135094857Y-63410952D01*
X135523429Y-62982381D02*
X134952000Y-63553810D01*
X135952000Y-63982381D02*
X135952000Y-63315714D01*
X135952000Y-62982381D02*
X135904381Y-63030000D01*
X135952000Y-63077619D01*
X135999619Y-63030000D01*
X135952000Y-62982381D01*
X135952000Y-63077619D01*
X136571047Y-63982381D02*
X136475809Y-63934762D01*
X136428190Y-63839524D01*
X136428190Y-62982381D01*
X137094857Y-63982381D02*
X136999619Y-63934762D01*
X136952000Y-63839524D01*
X136952000Y-62982381D01*
X137999620Y-63982381D02*
X137428191Y-63982381D01*
X137713905Y-63982381D02*
X137713905Y-62982381D01*
X137618667Y-63125238D01*
X137523429Y-63220476D01*
X137428191Y-63268095D01*
D18*
X134397810Y-68764286D02*
X134874001Y-68421429D01*
X135350191Y-68764286D01*
D16*
X164042886Y-77735181D02*
X164042886Y-78449467D01*
X163995266Y-78592324D01*
X163900028Y-78687562D01*
X163757171Y-78735181D01*
X163661933Y-78735181D01*
X165042886Y-78735181D02*
X164471457Y-78735181D01*
X164757171Y-78735181D02*
X164757171Y-77735181D01*
X164661933Y-77878038D01*
X164566695Y-77973276D01*
X164471457Y-78020895D01*
X165423838Y-77830419D02*
X165471457Y-77782800D01*
X165566695Y-77735181D01*
X165804791Y-77735181D01*
X165900029Y-77782800D01*
X165947648Y-77830419D01*
X165995267Y-77925657D01*
X165995267Y-78020895D01*
X165947648Y-78163752D01*
X165376219Y-78735181D01*
X165995267Y-78735181D01*
X166947648Y-78735181D02*
X166376219Y-78735181D01*
X166661933Y-78735181D02*
X166661933Y-77735181D01*
X166566695Y-77878038D01*
X166471457Y-77973276D01*
X166376219Y-78020895D01*
X162503190Y-62982381D02*
X162693667Y-62982381D01*
X162788905Y-63030000D01*
X162884143Y-63125238D01*
X162931762Y-63315714D01*
X162931762Y-63649048D01*
X162884143Y-63839524D01*
X162788905Y-63934762D01*
X162693667Y-63982381D01*
X162503190Y-63982381D01*
X162407952Y-63934762D01*
X162312714Y-63839524D01*
X162265095Y-63649048D01*
X162265095Y-63315714D01*
X162312714Y-63125238D01*
X162407952Y-63030000D01*
X162503190Y-62982381D01*
X163312714Y-63077619D02*
X163360333Y-63030000D01*
X163455571Y-62982381D01*
X163693667Y-62982381D01*
X163788905Y-63030000D01*
X163836524Y-63077619D01*
X163884143Y-63172857D01*
X163884143Y-63268095D01*
X163836524Y-63410952D01*
X163265095Y-63982381D01*
X163884143Y-63982381D01*
X164074619Y-64077619D02*
X164836524Y-64077619D01*
X165074619Y-63982381D02*
X165074619Y-62982381D01*
X165455572Y-62982381D01*
X165550810Y-63030000D01*
X165598429Y-63077619D01*
X165646048Y-63172857D01*
X165646048Y-63315714D01*
X165598429Y-63410952D01*
X165550810Y-63458571D01*
X165455572Y-63506190D01*
X165074619Y-63506190D01*
X165979381Y-62982381D02*
X166217476Y-63982381D01*
X166407953Y-63268095D01*
X166598429Y-63982381D01*
X166836524Y-62982381D01*
X167788905Y-63982381D02*
X167455571Y-63506190D01*
X167217476Y-63982381D02*
X167217476Y-62982381D01*
X167598429Y-62982381D01*
X167693667Y-63030000D01*
X167741286Y-63077619D01*
X167788905Y-63172857D01*
X167788905Y-63315714D01*
X167741286Y-63410952D01*
X167693667Y-63458571D01*
X167598429Y-63506190D01*
X167217476Y-63506190D01*
D18*
X162972810Y-68764286D02*
X163449001Y-68421429D01*
X163925191Y-68764286D01*
D16*
X183092886Y-77735181D02*
X183092886Y-78449467D01*
X183045266Y-78592324D01*
X182950028Y-78687562D01*
X182807171Y-78735181D01*
X182711933Y-78735181D01*
X184092886Y-78735181D02*
X183521457Y-78735181D01*
X183807171Y-78735181D02*
X183807171Y-77735181D01*
X183711933Y-77878038D01*
X183616695Y-77973276D01*
X183521457Y-78020895D01*
X185045267Y-78735181D02*
X184473838Y-78735181D01*
X184759552Y-78735181D02*
X184759552Y-77735181D01*
X184664314Y-77878038D01*
X184569076Y-77973276D01*
X184473838Y-78020895D01*
X185521457Y-78735181D02*
X185711933Y-78735181D01*
X185807172Y-78687562D01*
X185854791Y-78639943D01*
X185950029Y-78497086D01*
X185997648Y-78306610D01*
X185997648Y-77925657D01*
X185950029Y-77830419D01*
X185902410Y-77782800D01*
X185807172Y-77735181D01*
X185616695Y-77735181D01*
X185521457Y-77782800D01*
X185473838Y-77830419D01*
X185426219Y-77925657D01*
X185426219Y-78163752D01*
X185473838Y-78258990D01*
X185521457Y-78306610D01*
X185616695Y-78354229D01*
X185807172Y-78354229D01*
X185902410Y-78306610D01*
X185950029Y-78258990D01*
X185997648Y-78163752D01*
X181600810Y-63982381D02*
X181600810Y-62982381D01*
X181981763Y-62982381D01*
X182077001Y-63030000D01*
X182124620Y-63077619D01*
X182172239Y-63172857D01*
X182172239Y-63315714D01*
X182124620Y-63410952D01*
X182077001Y-63458571D01*
X181981763Y-63506190D01*
X181600810Y-63506190D01*
X182505572Y-62982381D02*
X182743667Y-63982381D01*
X182934144Y-63268095D01*
X183124620Y-63982381D01*
X183362715Y-62982381D01*
X184315096Y-63982381D02*
X183981762Y-63506190D01*
X183743667Y-63982381D02*
X183743667Y-62982381D01*
X184124620Y-62982381D01*
X184219858Y-63030000D01*
X184267477Y-63077619D01*
X184315096Y-63172857D01*
X184315096Y-63315714D01*
X184267477Y-63410952D01*
X184219858Y-63458571D01*
X184124620Y-63506190D01*
X183743667Y-63506190D01*
X184505572Y-64077619D02*
X185267477Y-64077619D01*
X185505572Y-63982381D02*
X185505572Y-62982381D01*
X185981762Y-63982381D02*
X185981762Y-62982381D01*
X186553191Y-63982381D01*
X186553191Y-62982381D01*
D18*
X182022810Y-68764286D02*
X182499001Y-68421429D01*
X182975191Y-68764286D01*
D16*
X144891286Y-60412381D02*
X144891286Y-61126667D01*
X144843666Y-61269524D01*
X144748428Y-61364762D01*
X144605571Y-61412381D01*
X144510333Y-61412381D01*
X145891286Y-61412381D02*
X145319857Y-61412381D01*
X145605571Y-61412381D02*
X145605571Y-60412381D01*
X145510333Y-60555238D01*
X145415095Y-60650476D01*
X145319857Y-60698095D01*
X146272238Y-60507619D02*
X146319857Y-60460000D01*
X146415095Y-60412381D01*
X146653191Y-60412381D01*
X146748429Y-60460000D01*
X146796048Y-60507619D01*
X146843667Y-60602857D01*
X146843667Y-60698095D01*
X146796048Y-60840952D01*
X146224619Y-61412381D01*
X146843667Y-61412381D01*
X147462714Y-60412381D02*
X147557953Y-60412381D01*
X147653191Y-60460000D01*
X147700810Y-60507619D01*
X147748429Y-60602857D01*
X147796048Y-60793333D01*
X147796048Y-61031429D01*
X147748429Y-61221905D01*
X147700810Y-61317143D01*
X147653191Y-61364762D01*
X147557953Y-61412381D01*
X147462714Y-61412381D01*
X147367476Y-61364762D01*
X147319857Y-61317143D01*
X147272238Y-61221905D01*
X147224619Y-61031429D01*
X147224619Y-60793333D01*
X147272238Y-60602857D01*
X147319857Y-60507619D01*
X147367476Y-60460000D01*
X147462714Y-60412381D01*
D19*
X144085571Y-69333999D02*
X144085571Y-68405428D01*
X144657000Y-68905428D01*
X144657000Y-68691142D01*
X144728429Y-68548285D01*
X144799857Y-68476856D01*
X144942714Y-68405428D01*
X145299857Y-68405428D01*
X145442714Y-68476856D01*
X145514143Y-68548285D01*
X145585571Y-68691142D01*
X145585571Y-69119714D01*
X145514143Y-69262571D01*
X145442714Y-69333999D01*
D18*
X144176810Y-65925048D02*
X144653001Y-65567905D01*
X145129191Y-65925048D01*
M02*
