M48
;DRILL file {KiCad 4.0.6} date Saturday, February 10, 2018 'AMt' 10:41:53 AM
;FORMAT={-:-/ absolute / inch / decimal}
FMAT,2
INCH,TZ
T1C0.016
T2C0.030
T3C0.031
T4C0.035
T5C0.039
T6C0.040
T7C0.043
T8C0.120
T9C0.126
%
G90
G05
M72
T1
X4.715Y-1.47
X4.7394Y-1.2006
X4.74Y-1.395
X4.82Y-1.388
X4.9Y-1.51
X5.26Y-1.47
X5.33Y-1.425
X5.34Y-1.205
X5.4177Y-1.3944
X5.475Y-1.31
X5.485Y-1.505
X5.8596Y-1.475
X5.86Y-1.41
X5.94Y-1.18
X5.94Y-1.435
X6.025Y-1.3975
X6.08Y-1.31
X6.08Y-1.51
X6.465Y-1.47
X6.535Y-1.195
X6.545Y-1.43
X6.6181Y-1.3925
X6.685Y-1.315
X6.685Y-1.51
X7.08Y-1.465
X7.14Y-1.425
X7.355Y-1.51
T2
X7.15Y-1.625
X7.25Y-1.625
X7.35Y-1.625
X7.45Y-1.625
X7.55Y-1.625
T3
X4.6337Y-1.9437
X4.6337Y-2.1437
X4.7337Y-1.9437
X4.7337Y-2.1437
X4.8337Y-1.9437
X4.8337Y-2.1437
X5.0337Y-1.9437
X5.0337Y-2.1437
X5.25Y-2.
X5.25Y-2.1
X5.25Y-2.2
X5.775Y-1.9
X5.775Y-2.2
X6.05Y-1.9
X6.05Y-2.2
X6.325Y-1.9
X6.325Y-2.2
X6.575Y-1.9
X6.575Y-2.2
T4
X6.775Y-2.15
X6.875Y-2.15
T5
X4.575Y-1.625
X4.575Y-1.725
X4.675Y-1.625
X4.675Y-1.725
X4.825Y-1.625
X4.825Y-1.725
X4.925Y-1.625
X4.925Y-1.725
X5.175Y-1.625
X5.175Y-1.725
X5.275Y-1.625
X5.275Y-1.725
X5.425Y-1.625
X5.425Y-1.725
X5.525Y-1.625
X5.525Y-1.725
X5.775Y-1.625
X5.775Y-1.725
X5.875Y-1.625
X5.875Y-1.725
X6.025Y-1.625
X6.025Y-1.725
X6.125Y-1.625
X6.125Y-1.725
X6.375Y-1.625
X6.375Y-1.725
X6.475Y-1.625
X6.475Y-1.725
X6.625Y-1.625
X6.625Y-1.725
X6.725Y-1.625
X6.725Y-1.725
X6.9Y-1.625
X6.9Y-1.725
X7.Y-1.625
X7.Y-1.725
T6
X4.5611Y-2.639
X4.6989Y-2.639
X4.9361Y-2.639
X5.0739Y-2.639
X5.3111Y-2.639
X5.4489Y-2.639
X5.6936Y-2.5287
X5.6936Y-2.6469
X5.8314Y-2.5287
X5.8314Y-2.6469
X6.0611Y-2.639
X6.1989Y-2.639
X6.4361Y-2.639
X6.5739Y-2.639
X6.8111Y-2.639
X6.9489Y-2.639
X7.1861Y-2.639
X7.3239Y-2.639
T7
X5.5Y-1.9
X5.5Y-2.2
T8
X4.6296Y-2.9472
X5.0046Y-2.9472
X5.3796Y-2.9472
X5.7621Y-2.9591
X6.1296Y-2.9472
X6.5046Y-2.9472
X6.8796Y-2.9472
X7.2546Y-2.9472
T9
X4.225Y-1.4
X4.225Y-2.95
X7.55Y-1.4
X7.55Y-2.95
T0
M30
