G04 #@! TF.FileFunction,Copper,L2,Bot,Signal*
%FSLAX46Y46*%
G04 Gerber Fmt 4.6, Leading zero omitted, Abs format (unit mm)*
G04 Created by KiCad (PCBNEW 4.0.7) date Fri Feb 23 12:26:53 2018*
%MOMM*%
%LPD*%
G01*
G04 APERTURE LIST*
%ADD10C,0.100000*%
%ADD11R,1.206500X3.200400*%
%ADD12R,1.700022X5.299964*%
%ADD13C,1.524000*%
%ADD14R,1.800000X1.800000*%
%ADD15C,1.800000*%
%ADD16R,2.200000X2.200000*%
%ADD17O,2.200000X2.200000*%
%ADD18R,1.700000X1.700000*%
%ADD19O,1.700000X1.700000*%
%ADD20C,1.600000*%
%ADD21O,1.600000X1.600000*%
%ADD22C,6.400000*%
%ADD23C,1.520000*%
%ADD24R,1.520000X1.520000*%
%ADD25C,1.700000*%
%ADD26C,3.556000*%
%ADD27C,0.762000*%
%ADD28C,1.016000*%
%ADD29C,0.635000*%
%ADD30C,0.381000*%
%ADD31C,1.905000*%
%ADD32C,0.254000*%
G04 APERTURE END LIST*
D10*
D11*
X146860006Y-33020000D03*
X148860002Y-33020000D03*
X150859998Y-33020000D03*
X152859994Y-33020000D03*
D12*
X144159986Y-26850340D03*
X155560014Y-26850340D03*
D13*
X127855000Y-49370000D03*
X122775000Y-49370000D03*
X120235000Y-49370000D03*
X117695000Y-49370000D03*
X117695000Y-54450000D03*
X120235000Y-54450000D03*
X122775000Y-54450000D03*
X127855000Y-54450000D03*
D14*
X174625000Y-54610000D03*
D15*
X172085000Y-54610000D03*
D16*
X139700000Y-48260000D03*
D17*
X139700000Y-55880000D03*
D11*
X116380006Y-33020000D03*
X118380002Y-33020000D03*
X120379998Y-33020000D03*
X122379994Y-33020000D03*
D12*
X113679986Y-26850340D03*
X125080014Y-26850340D03*
D11*
X131620006Y-33020000D03*
X133620002Y-33020000D03*
X135619998Y-33020000D03*
X137619994Y-33020000D03*
D12*
X128919986Y-26850340D03*
X140320014Y-26850340D03*
D11*
X162100006Y-33020000D03*
X164100002Y-33020000D03*
X166099998Y-33020000D03*
X168099994Y-33020000D03*
D12*
X159399986Y-26850340D03*
X170800014Y-26850340D03*
D18*
X116205000Y-41275000D03*
D19*
X118745000Y-41275000D03*
X116205000Y-43815000D03*
X118745000Y-43815000D03*
D18*
X131445000Y-41275000D03*
D19*
X133985000Y-41275000D03*
X131445000Y-43815000D03*
X133985000Y-43815000D03*
D18*
X146685000Y-41275000D03*
D19*
X149225000Y-41275000D03*
X146685000Y-43815000D03*
X149225000Y-43815000D03*
D18*
X161925000Y-41275000D03*
D19*
X164465000Y-41275000D03*
X161925000Y-43815000D03*
X164465000Y-43815000D03*
D18*
X175260000Y-41275000D03*
D19*
X177800000Y-41275000D03*
X175260000Y-43815000D03*
X177800000Y-43815000D03*
D18*
X122555000Y-41275000D03*
D19*
X125095000Y-41275000D03*
X122555000Y-43815000D03*
X125095000Y-43815000D03*
D18*
X137795000Y-41275000D03*
D19*
X140335000Y-41275000D03*
X137795000Y-43815000D03*
X140335000Y-43815000D03*
D18*
X153035000Y-41275000D03*
D19*
X155575000Y-41275000D03*
X153035000Y-43815000D03*
X155575000Y-43815000D03*
D18*
X168275000Y-41275000D03*
D19*
X170815000Y-41275000D03*
X168275000Y-43815000D03*
X170815000Y-43815000D03*
D20*
X167005000Y-48260000D03*
D21*
X167005000Y-55880000D03*
D20*
X146685000Y-48260000D03*
D21*
X146685000Y-55880000D03*
D20*
X160655000Y-55880000D03*
D21*
X160655000Y-48260000D03*
D20*
X153670000Y-55880000D03*
D21*
X153670000Y-48260000D03*
D13*
X191770000Y-41275000D03*
X189230000Y-41275000D03*
X186690000Y-41275000D03*
X184150000Y-41275000D03*
X181610000Y-41275000D03*
D22*
X107315000Y-35560000D03*
X191770000Y-35560000D03*
X107315000Y-74930000D03*
X191770000Y-74930000D03*
D23*
X133350000Y-53340000D03*
X133350000Y-55880000D03*
D24*
X133350000Y-50800000D03*
D25*
X153952000Y-67030000D03*
X157452000Y-67030000D03*
D26*
X155692000Y-74860000D03*
D25*
X173002000Y-67030000D03*
X176502000Y-67030000D03*
D26*
X174742000Y-74860000D03*
D25*
X115852000Y-67030000D03*
X119352000Y-67030000D03*
D26*
X117592000Y-74860000D03*
D25*
X125377000Y-67030000D03*
X128877000Y-67030000D03*
D26*
X127117000Y-74860000D03*
D25*
X134902000Y-67030000D03*
X138402000Y-67030000D03*
D26*
X136642000Y-74860000D03*
D25*
X163477000Y-67030000D03*
X166977000Y-67030000D03*
D26*
X165217000Y-74860000D03*
D25*
X182527000Y-67030000D03*
X186027000Y-67030000D03*
D26*
X184267000Y-74860000D03*
D25*
X148117000Y-64230000D03*
X144617000Y-67230000D03*
X148117000Y-67230000D03*
X144617000Y-64230000D03*
D26*
X146357000Y-75160000D03*
D27*
X170180000Y-38353990D03*
X169862500Y-32385000D03*
X154432000Y-33274000D03*
X154432000Y-38353990D03*
X186817010Y-38353990D03*
X139319000Y-38227000D03*
X124460000Y-38354006D03*
X139065000Y-33274000D03*
X150876000Y-29972000D03*
X135382006Y-36195000D03*
X120396000Y-35433000D03*
X150876000Y-36449000D03*
X166243000Y-36322000D03*
X181356000Y-36195000D03*
X148907500Y-35433000D03*
X148832924Y-37465011D03*
X133604000Y-37338000D03*
X164211000Y-37338000D03*
X119761000Y-37338000D03*
X135635996Y-30607000D03*
X165989000Y-30353000D03*
X179832000Y-37211000D03*
X120379998Y-30496002D03*
X123444000Y-35242500D03*
X136461500Y-35623502D03*
X153034579Y-35496490D03*
X169100500Y-35242502D03*
D28*
X153670000Y-48260000D02*
X160655000Y-48260000D01*
X133502400Y-53301900D02*
X133515100Y-53289200D01*
X133515100Y-53289200D02*
X148640800Y-53289200D01*
X148640800Y-53289200D02*
X153670000Y-48260000D01*
X127855000Y-54450000D02*
X129285000Y-55880000D01*
X129285000Y-55880000D02*
X133350000Y-55880000D01*
X139700000Y-55880000D02*
X133350000Y-55880000D01*
X127888000Y-54483000D02*
X127855000Y-54450000D01*
D29*
X177787241Y-38353990D02*
X170180000Y-38353990D01*
X170180000Y-38353990D02*
X168656000Y-38353990D01*
X169862500Y-31846185D02*
X169862500Y-32385000D01*
X169862500Y-31528685D02*
X169862500Y-31846185D01*
X164500308Y-28384498D02*
X166718313Y-28384498D01*
X162100006Y-30784800D02*
X164500308Y-28384498D01*
X166718313Y-28384498D02*
X169862500Y-31528685D01*
X162100006Y-33020000D02*
X162100006Y-30784800D01*
X168656000Y-38353990D02*
X154432000Y-38353990D01*
X154432000Y-38353990D02*
X149353647Y-38353990D01*
X154432000Y-30383815D02*
X154432000Y-32735185D01*
X154432000Y-32735185D02*
X154432000Y-33274000D01*
X146860006Y-33020000D02*
X146860006Y-30784800D01*
X146860006Y-30784800D02*
X148942806Y-28702000D01*
X148942806Y-28702000D02*
X152750185Y-28702000D01*
X152750185Y-28702000D02*
X154432000Y-30383815D01*
D28*
X149090419Y-69405500D02*
X161101500Y-69405500D01*
X161101500Y-69405500D02*
X163477000Y-67030000D01*
X148117000Y-67230000D02*
X148117000Y-68432081D01*
X148117000Y-68432081D02*
X149090419Y-69405500D01*
D29*
X177787241Y-38353990D02*
X186817010Y-38353990D01*
X149290125Y-38417512D02*
X148375723Y-38417512D01*
X149353647Y-38353990D02*
X149290125Y-38417512D01*
X148312201Y-38353990D02*
X139827000Y-38353990D01*
X148375723Y-38417512D02*
X148312201Y-38353990D01*
X173002000Y-67030000D02*
X175516000Y-64516000D01*
X175516000Y-64516000D02*
X180013000Y-64516000D01*
X180013000Y-64516000D02*
X182527000Y-67030000D01*
X163477000Y-67030000D02*
X163477000Y-65827919D01*
X170234000Y-64262000D02*
X172152001Y-66180001D01*
X163477000Y-65827919D02*
X165042919Y-64262000D01*
X165042919Y-64262000D02*
X170234000Y-64262000D01*
X172152001Y-66180001D02*
X173002000Y-67030000D01*
X124079000Y-38353990D02*
X118986288Y-38353990D01*
X116380006Y-35255200D02*
X116380006Y-33020000D01*
X118986288Y-38353990D02*
X116380006Y-35747708D01*
X116380006Y-35747708D02*
X116380006Y-35255200D01*
D30*
X139700010Y-38227000D02*
X139319000Y-38227000D01*
X139827000Y-38353990D02*
X139700010Y-38227000D01*
X124332995Y-38227001D02*
X124460000Y-38354006D01*
X124205989Y-38227001D02*
X124332995Y-38227001D01*
X124079000Y-38353990D02*
X124205989Y-38227001D01*
D29*
X139827000Y-38353990D02*
X124079000Y-38353990D01*
D30*
X124587000Y-38353990D02*
X124460000Y-38226990D01*
D29*
X148117000Y-64230000D02*
X148117000Y-67230000D01*
X131620006Y-33020000D02*
X131620006Y-29796994D01*
X131620006Y-29796994D02*
X132842000Y-28575000D01*
X132842000Y-28575000D02*
X137414000Y-28575000D01*
X137414000Y-28575000D02*
X139192000Y-30353000D01*
X139192000Y-30353000D02*
X139192000Y-33147000D01*
X139192000Y-33147000D02*
X139065000Y-33274000D01*
D28*
X153952000Y-67030000D02*
X154114500Y-66867500D01*
X154114500Y-66867500D02*
X154114500Y-64516000D01*
X154114500Y-64516000D02*
X157988000Y-60642500D01*
D31*
X179639500Y-60642500D02*
X157988000Y-60642500D01*
X157988000Y-60642500D02*
X125739500Y-60642500D01*
X125739500Y-60642500D02*
X119352000Y-67030000D01*
X186027000Y-67030000D02*
X179639500Y-60642500D01*
D28*
X149225000Y-45974000D02*
X146621500Y-45974000D01*
X146621500Y-45974000D02*
X140081000Y-45974000D01*
X146685000Y-48260000D02*
X146685000Y-47128630D01*
X146685000Y-47128630D02*
X146621500Y-47065130D01*
X146621500Y-47065130D02*
X146621500Y-45974000D01*
X140081000Y-45974000D02*
X133985000Y-45974000D01*
X133985000Y-45974000D02*
X125031500Y-45974000D01*
X133985000Y-43815000D02*
X133985000Y-45974000D01*
X140335000Y-43815000D02*
X140335000Y-45720000D01*
X140335000Y-45720000D02*
X140081000Y-45974000D01*
X139700000Y-48260000D02*
X139700000Y-46144000D01*
X139700000Y-46144000D02*
X139870000Y-45974000D01*
X139870000Y-45974000D02*
X140081000Y-45974000D01*
X155511500Y-45974000D02*
X149225000Y-45974000D01*
X149225000Y-43815000D02*
X149225000Y-45017081D01*
X149225000Y-45017081D02*
X149225000Y-45974000D01*
X164465000Y-45974000D02*
X155511500Y-45974000D01*
X155575000Y-43815000D02*
X155575000Y-45910500D01*
X155575000Y-45910500D02*
X155511500Y-45974000D01*
X166941500Y-45974000D02*
X164465000Y-45974000D01*
X164465000Y-43815000D02*
X164465000Y-45017081D01*
X164465000Y-45017081D02*
X164465000Y-45974000D01*
X176843081Y-45974000D02*
X170815000Y-45974000D01*
X170815000Y-45974000D02*
X166941500Y-45974000D01*
X170815000Y-43815000D02*
X170815000Y-45017081D01*
X170815000Y-45017081D02*
X170815000Y-45974000D01*
X167005000Y-48260000D02*
X167005000Y-46037500D01*
X167005000Y-46037500D02*
X166941500Y-45974000D01*
X125031500Y-45974000D02*
X120904000Y-45974000D01*
X125095000Y-43815000D02*
X125095000Y-45910500D01*
X125095000Y-45910500D02*
X125031500Y-45974000D01*
X120904000Y-45974000D02*
X118745000Y-43815000D01*
X177800000Y-43815000D02*
X177800000Y-45017081D01*
X177800000Y-45017081D02*
X176843081Y-45974000D01*
X186690000Y-41275000D02*
X184150000Y-43815000D01*
X184150000Y-43815000D02*
X177800000Y-43815000D01*
X114780000Y-47780000D02*
X114780000Y-62458000D01*
X114780000Y-62458000D02*
X119352000Y-67030000D01*
X114780000Y-47780000D02*
X118745000Y-43815000D01*
D30*
X150876000Y-36449000D02*
X150337185Y-36449000D01*
X150337185Y-36449000D02*
X150146685Y-36639500D01*
X150146685Y-36639500D02*
X135826506Y-36639500D01*
X135826506Y-36639500D02*
X135763005Y-36575999D01*
X135763005Y-36575999D02*
X135382006Y-36195000D01*
X120396000Y-35433000D02*
X121158000Y-36195000D01*
X121158000Y-36195000D02*
X134843185Y-36195000D01*
D29*
X149672802Y-29972000D02*
X150876000Y-29972000D01*
X148860002Y-33020000D02*
X148860002Y-30784800D01*
X148860002Y-30784800D02*
X149672802Y-29972000D01*
X134559802Y-36195000D02*
X134843185Y-36195000D01*
X133620002Y-35255200D02*
X134559802Y-36195000D01*
X134843185Y-36195000D02*
X135382006Y-36195000D01*
X133620002Y-33020000D02*
X133620002Y-35255200D01*
X118460185Y-35306000D02*
X118587185Y-35433000D01*
X118587185Y-35433000D02*
X119857185Y-35433000D01*
X118380002Y-33020000D02*
X118380002Y-35255200D01*
X118380002Y-35255200D02*
X118430802Y-35306000D01*
X119857185Y-35433000D02*
X120396000Y-35433000D01*
X118430802Y-35306000D02*
X118460185Y-35306000D01*
X118364000Y-35271202D02*
X118398798Y-35306000D01*
X118398798Y-35306000D02*
X118460185Y-35306000D01*
D30*
X151414815Y-36449000D02*
X150876000Y-36449000D01*
X164100002Y-36305998D02*
X163957000Y-36449000D01*
X163957000Y-36449000D02*
X151414815Y-36449000D01*
X181356000Y-36195000D02*
X181229000Y-36322000D01*
X181229000Y-36322000D02*
X166243000Y-36322000D01*
X165704185Y-36322000D02*
X166243000Y-36322000D01*
X164100002Y-36305998D02*
X164116004Y-36322000D01*
X164116004Y-36322000D02*
X165704185Y-36322000D01*
X164100002Y-33020000D02*
X164100002Y-36305998D01*
D29*
X150859998Y-35255200D02*
X150682198Y-35433000D01*
X149446315Y-35433000D02*
X148907500Y-35433000D01*
X150682198Y-35433000D02*
X149446315Y-35433000D01*
X150859998Y-33020000D02*
X150859998Y-35255200D01*
D30*
X148336000Y-37338000D02*
X148705913Y-37338000D01*
X148705913Y-37338000D02*
X148832924Y-37465011D01*
X164211000Y-37338000D02*
X148336000Y-37338000D01*
X148336000Y-37338000D02*
X147574000Y-37338000D01*
X147574000Y-37338000D02*
X134239000Y-37338000D01*
X164211000Y-37338000D02*
X179166185Y-37338000D01*
X179166185Y-37338000D02*
X179293185Y-37211000D01*
X179293185Y-37211000D02*
X179832000Y-37211000D01*
X134239000Y-37338000D02*
X133604000Y-37338000D01*
X134239000Y-37338000D02*
X119761000Y-37338000D01*
X135619998Y-30622998D02*
X135635996Y-30607000D01*
X135619998Y-33020000D02*
X135619998Y-30622998D01*
D29*
X165989000Y-30353000D02*
X165989000Y-32909002D01*
X165989000Y-32909002D02*
X166099998Y-33020000D01*
X120379998Y-33020000D02*
X120379998Y-30496002D01*
X122379994Y-33020000D02*
X122379994Y-33068006D01*
X122379994Y-33068006D02*
X122364500Y-33083500D01*
X122364500Y-33083500D02*
X122364500Y-34163000D01*
X122364500Y-34163000D02*
X123444000Y-35242500D01*
X137619994Y-35255200D02*
X137251692Y-35623502D01*
X137619994Y-33020000D02*
X137619994Y-35255200D01*
X137251692Y-35623502D02*
X137000315Y-35623502D01*
X137000315Y-35623502D02*
X136461500Y-35623502D01*
X137795000Y-43815000D02*
X137795000Y-41275000D01*
X152859994Y-35321905D02*
X153034579Y-35496490D01*
X152859994Y-33020000D02*
X152859994Y-35321905D01*
X168099994Y-34241996D02*
X168719501Y-34861503D01*
X168719501Y-34861503D02*
X169100500Y-35242502D01*
X168099994Y-33020000D02*
X168099994Y-34241996D01*
X156591000Y-39497000D02*
X162814000Y-39497000D01*
X162814000Y-39497000D02*
X164465000Y-41148000D01*
X164465000Y-41275000D02*
X166243000Y-39497000D01*
X166243000Y-39497000D02*
X170815000Y-39497000D01*
X170815000Y-39497000D02*
X177673000Y-39497000D01*
X170815000Y-41275000D02*
X170815000Y-40386000D01*
X170815000Y-40386000D02*
X170815000Y-40005042D01*
X170815000Y-39497000D02*
X170815000Y-40386000D01*
X177673000Y-39497000D02*
X177800000Y-39624000D01*
X118745000Y-39497000D02*
X125095000Y-39497000D01*
X125095000Y-39497000D02*
X133985000Y-39497000D01*
X125095000Y-41275000D02*
X125095000Y-39497000D01*
X133985000Y-39497000D02*
X140335000Y-39497000D01*
X133985000Y-41275000D02*
X133985000Y-39497000D01*
X140335000Y-39497000D02*
X149225000Y-39497000D01*
X140335000Y-41275000D02*
X140335000Y-40072919D01*
X140335000Y-40072919D02*
X140335000Y-39497000D01*
X149225000Y-39497000D02*
X156591000Y-39497000D01*
X149225000Y-41275000D02*
X149225000Y-40072919D01*
X149225000Y-40072919D02*
X149225000Y-39497000D01*
X156083000Y-39497000D02*
X156591000Y-39497000D01*
X118745000Y-41275000D02*
X118745000Y-39497000D01*
X177800000Y-41275000D02*
X177800000Y-39624000D01*
X190119000Y-39624000D02*
X191770000Y-41275000D01*
X177800000Y-39624000D02*
X190119000Y-39624000D01*
X155575000Y-41275000D02*
X155575000Y-40005000D01*
X155575000Y-40005000D02*
X156083000Y-39497000D01*
D32*
G36*
X111405607Y-29500322D02*
X111503018Y-30018019D01*
X111808977Y-30493492D01*
X112275816Y-30812470D01*
X112829975Y-30924690D01*
X114529997Y-30924690D01*
X115047694Y-30827279D01*
X115523167Y-30521320D01*
X115842145Y-30054481D01*
X115954365Y-29500322D01*
X115954365Y-24459000D01*
X122805635Y-24459000D01*
X122805635Y-29500322D01*
X122898796Y-29995432D01*
X122096965Y-29995432D01*
X121888192Y-29490162D01*
X121388469Y-28989566D01*
X120735216Y-28718311D01*
X120027884Y-28717694D01*
X119374158Y-28987808D01*
X118873562Y-29487531D01*
X118662663Y-29995432D01*
X117776752Y-29995432D01*
X117259055Y-30092843D01*
X116783582Y-30398802D01*
X116464604Y-30865641D01*
X116352384Y-31419800D01*
X116352384Y-34620200D01*
X116449795Y-35137897D01*
X116700473Y-35527460D01*
X116780009Y-35927312D01*
X117151665Y-36483537D01*
X117186461Y-36518332D01*
X117186463Y-36518335D01*
X117371465Y-36641949D01*
X117374848Y-36645332D01*
X117374850Y-36645335D01*
X117931074Y-37016991D01*
X117983270Y-37027373D01*
X117982692Y-37690114D01*
X118077841Y-37920391D01*
X117532665Y-38284665D01*
X117161009Y-38840889D01*
X117126360Y-39015083D01*
X117055000Y-39000632D01*
X115355000Y-39000632D01*
X114837303Y-39098043D01*
X114361830Y-39404002D01*
X114042852Y-39870841D01*
X113930632Y-40425000D01*
X113930632Y-42125000D01*
X114028043Y-42642697D01*
X114158405Y-42845285D01*
X114085022Y-42955110D01*
X113913979Y-43815000D01*
X114085022Y-44674890D01*
X114528028Y-45337896D01*
X113432962Y-46432962D01*
X113020009Y-47050988D01*
X112875000Y-47780000D01*
X112875000Y-62458000D01*
X112973962Y-62955515D01*
X113020009Y-63187012D01*
X113432962Y-63805038D01*
X114701885Y-65073961D01*
X114580840Y-65123976D01*
X113948197Y-65755515D01*
X113605391Y-66581083D01*
X113604611Y-67474995D01*
X113945976Y-68301160D01*
X114577515Y-68933803D01*
X115403083Y-69276609D01*
X116296995Y-69277389D01*
X117123160Y-68936024D01*
X117561657Y-68498292D01*
X117690653Y-68691347D01*
X118452885Y-69200655D01*
X119352000Y-69379499D01*
X120251115Y-69200655D01*
X121013347Y-68691347D01*
X123135205Y-66569489D01*
X123130391Y-66581083D01*
X123129611Y-67474995D01*
X123470976Y-68301160D01*
X124102515Y-68933803D01*
X124928083Y-69276609D01*
X125821995Y-69277389D01*
X126648160Y-68936024D01*
X127127281Y-68457739D01*
X127602515Y-68933803D01*
X128428083Y-69276609D01*
X129321995Y-69277389D01*
X130148160Y-68936024D01*
X130780803Y-68304485D01*
X131123609Y-67478917D01*
X131123612Y-67474995D01*
X132654611Y-67474995D01*
X132995976Y-68301160D01*
X133627515Y-68933803D01*
X134453083Y-69276609D01*
X135346995Y-69277389D01*
X136173160Y-68936024D01*
X136652281Y-68457739D01*
X137127515Y-68933803D01*
X137953083Y-69276609D01*
X138846995Y-69277389D01*
X139673160Y-68936024D01*
X140305803Y-68304485D01*
X140648609Y-67478917D01*
X140649389Y-66585005D01*
X140308024Y-65758840D01*
X139676485Y-65126197D01*
X138850917Y-64783391D01*
X137957005Y-64782611D01*
X137130840Y-65123976D01*
X136651719Y-65602261D01*
X136176485Y-65126197D01*
X135350917Y-64783391D01*
X134457005Y-64782611D01*
X133630840Y-65123976D01*
X132998197Y-65755515D01*
X132655391Y-66581083D01*
X132654611Y-67474995D01*
X131123612Y-67474995D01*
X131124389Y-66585005D01*
X130783024Y-65758840D01*
X130151485Y-65126197D01*
X129325917Y-64783391D01*
X128432005Y-64782611D01*
X127605840Y-65123976D01*
X127126719Y-65602261D01*
X126651485Y-65126197D01*
X125825917Y-64783391D01*
X124932005Y-64782611D01*
X124915097Y-64789597D01*
X126712694Y-62992000D01*
X142698047Y-62992000D01*
X142370391Y-63781083D01*
X142369611Y-64674995D01*
X142710976Y-65501160D01*
X142939262Y-65729845D01*
X142713197Y-65955515D01*
X142370391Y-66781083D01*
X142369611Y-67674995D01*
X142710976Y-68501160D01*
X143342515Y-69133803D01*
X144168083Y-69476609D01*
X145061995Y-69477389D01*
X145888160Y-69136024D01*
X146520803Y-68504485D01*
X146616526Y-68273958D01*
X147252647Y-68273958D01*
X147332920Y-68525259D01*
X147888279Y-68726718D01*
X148478458Y-68700315D01*
X148901080Y-68525259D01*
X148981353Y-68273958D01*
X148117000Y-67409605D01*
X147252647Y-68273958D01*
X146616526Y-68273958D01*
X146773149Y-67896769D01*
X146821741Y-68014080D01*
X147073042Y-68094353D01*
X147937395Y-67230000D01*
X148296605Y-67230000D01*
X149160958Y-68094353D01*
X149412259Y-68014080D01*
X149613718Y-67458721D01*
X149587315Y-66868542D01*
X149412259Y-66445920D01*
X149160958Y-66365647D01*
X148296605Y-67230000D01*
X147937395Y-67230000D01*
X147073042Y-66365647D01*
X146821741Y-66445920D01*
X146776179Y-66571520D01*
X146616903Y-66186042D01*
X147252647Y-66186042D01*
X148117000Y-67050395D01*
X148981353Y-66186042D01*
X148901080Y-65934741D01*
X148345721Y-65733282D01*
X147755542Y-65759685D01*
X147332920Y-65934741D01*
X147252647Y-66186042D01*
X146616903Y-66186042D01*
X146523024Y-65958840D01*
X146294738Y-65730155D01*
X146520803Y-65504485D01*
X146616526Y-65273958D01*
X147252647Y-65273958D01*
X147332920Y-65525259D01*
X147888279Y-65726718D01*
X148478458Y-65700315D01*
X148901080Y-65525259D01*
X148981353Y-65273958D01*
X148117000Y-64409605D01*
X147252647Y-65273958D01*
X146616526Y-65273958D01*
X146773149Y-64896769D01*
X146821741Y-65014080D01*
X147073042Y-65094353D01*
X147937395Y-64230000D01*
X148296605Y-64230000D01*
X149160958Y-65094353D01*
X149412259Y-65014080D01*
X149613718Y-64458721D01*
X149587315Y-63868542D01*
X149412259Y-63445920D01*
X149160958Y-63365647D01*
X148296605Y-64230000D01*
X147937395Y-64230000D01*
X147073042Y-63365647D01*
X146821741Y-63445920D01*
X146776179Y-63571520D01*
X146536725Y-62992000D01*
X147314630Y-62992000D01*
X147252647Y-63186042D01*
X148117000Y-64050395D01*
X148981353Y-63186042D01*
X148919370Y-62992000D01*
X152944424Y-62992000D01*
X152767462Y-63168962D01*
X152354509Y-63786988D01*
X152209500Y-64516000D01*
X152209500Y-65594493D01*
X152048197Y-65755515D01*
X151705391Y-66581083D01*
X151704611Y-67474995D01*
X152045976Y-68301160D01*
X152677515Y-68933803D01*
X153503083Y-69276609D01*
X154396995Y-69277389D01*
X155223160Y-68936024D01*
X155702281Y-68457739D01*
X156177515Y-68933803D01*
X157003083Y-69276609D01*
X157896995Y-69277389D01*
X158723160Y-68936024D01*
X159355803Y-68304485D01*
X159451526Y-68073958D01*
X162612647Y-68073958D01*
X162692920Y-68325259D01*
X163248279Y-68526718D01*
X163838458Y-68500315D01*
X164261080Y-68325259D01*
X164341353Y-68073958D01*
X163477000Y-67209605D01*
X162612647Y-68073958D01*
X159451526Y-68073958D01*
X159698609Y-67478917D01*
X159699200Y-66801279D01*
X161980282Y-66801279D01*
X162006685Y-67391458D01*
X162181741Y-67814080D01*
X162433042Y-67894353D01*
X163297395Y-67030000D01*
X163656605Y-67030000D01*
X164520958Y-67894353D01*
X164772259Y-67814080D01*
X164817821Y-67688480D01*
X165070976Y-68301160D01*
X165702515Y-68933803D01*
X166528083Y-69276609D01*
X167421995Y-69277389D01*
X168248160Y-68936024D01*
X168880803Y-68304485D01*
X168976526Y-68073958D01*
X172137647Y-68073958D01*
X172217920Y-68325259D01*
X172773279Y-68526718D01*
X173363458Y-68500315D01*
X173786080Y-68325259D01*
X173866353Y-68073958D01*
X173002000Y-67209605D01*
X172137647Y-68073958D01*
X168976526Y-68073958D01*
X169223609Y-67478917D01*
X169224200Y-66801279D01*
X171505282Y-66801279D01*
X171531685Y-67391458D01*
X171706741Y-67814080D01*
X171958042Y-67894353D01*
X172822395Y-67030000D01*
X173181605Y-67030000D01*
X174045958Y-67894353D01*
X174297259Y-67814080D01*
X174342821Y-67688480D01*
X174595976Y-68301160D01*
X175227515Y-68933803D01*
X176053083Y-69276609D01*
X176946995Y-69277389D01*
X177773160Y-68936024D01*
X178405803Y-68304485D01*
X178501526Y-68073958D01*
X181662647Y-68073958D01*
X181742920Y-68325259D01*
X182298279Y-68526718D01*
X182888458Y-68500315D01*
X183311080Y-68325259D01*
X183391353Y-68073958D01*
X182527000Y-67209605D01*
X181662647Y-68073958D01*
X178501526Y-68073958D01*
X178748609Y-67478917D01*
X178749200Y-66801279D01*
X181030282Y-66801279D01*
X181056685Y-67391458D01*
X181231741Y-67814080D01*
X181483042Y-67894353D01*
X182347395Y-67030000D01*
X181483042Y-66165647D01*
X181231741Y-66245920D01*
X181030282Y-66801279D01*
X178749200Y-66801279D01*
X178749389Y-66585005D01*
X178408024Y-65758840D01*
X177776485Y-65126197D01*
X176950917Y-64783391D01*
X176057005Y-64782611D01*
X175230840Y-65123976D01*
X174598197Y-65755515D01*
X174345851Y-66363231D01*
X174297259Y-66245920D01*
X174045958Y-66165647D01*
X173181605Y-67030000D01*
X172822395Y-67030000D01*
X171958042Y-66165647D01*
X171706741Y-66245920D01*
X171505282Y-66801279D01*
X169224200Y-66801279D01*
X169224389Y-66585005D01*
X168976903Y-65986042D01*
X172137647Y-65986042D01*
X173002000Y-66850395D01*
X173866353Y-65986042D01*
X173786080Y-65734741D01*
X173230721Y-65533282D01*
X172640542Y-65559685D01*
X172217920Y-65734741D01*
X172137647Y-65986042D01*
X168976903Y-65986042D01*
X168883024Y-65758840D01*
X168251485Y-65126197D01*
X167425917Y-64783391D01*
X166532005Y-64782611D01*
X165705840Y-65123976D01*
X165073197Y-65755515D01*
X164820851Y-66363231D01*
X164772259Y-66245920D01*
X164520958Y-66165647D01*
X163656605Y-67030000D01*
X163297395Y-67030000D01*
X162433042Y-66165647D01*
X162181741Y-66245920D01*
X161980282Y-66801279D01*
X159699200Y-66801279D01*
X159699389Y-66585005D01*
X159451903Y-65986042D01*
X162612647Y-65986042D01*
X163477000Y-66850395D01*
X164341353Y-65986042D01*
X164261080Y-65734741D01*
X163705721Y-65533282D01*
X163115542Y-65559685D01*
X162692920Y-65734741D01*
X162612647Y-65986042D01*
X159451903Y-65986042D01*
X159358024Y-65758840D01*
X158726485Y-65126197D01*
X157900917Y-64783391D01*
X157007005Y-64782611D01*
X156214514Y-65110062D01*
X158332577Y-62992000D01*
X178666306Y-62992000D01*
X184365653Y-68691347D01*
X185127885Y-69200655D01*
X186027000Y-69379499D01*
X186926114Y-69200655D01*
X187688347Y-68691347D01*
X188197655Y-67929114D01*
X188376499Y-67030000D01*
X188197655Y-66130885D01*
X187688347Y-65368653D01*
X181300847Y-58981153D01*
X180538615Y-58471845D01*
X179639500Y-58293000D01*
X140368229Y-58293000D01*
X140655561Y-58235846D01*
X141465646Y-57694565D01*
X142006927Y-56884480D01*
X142197000Y-55928919D01*
X142197000Y-55831081D01*
X142070316Y-55194200D01*
X144615853Y-55194200D01*
X144488000Y-55836958D01*
X144488000Y-55923042D01*
X144655237Y-56763798D01*
X145131486Y-57476556D01*
X145844244Y-57952805D01*
X146685000Y-58120042D01*
X147525756Y-57952805D01*
X148238514Y-57476556D01*
X148714763Y-56763798D01*
X148804016Y-56315093D01*
X151472619Y-56315093D01*
X151806388Y-57122875D01*
X152423874Y-57741440D01*
X153231072Y-58076618D01*
X154105093Y-58077381D01*
X154912875Y-57743612D01*
X155531440Y-57126126D01*
X155866618Y-56318928D01*
X155866621Y-56315093D01*
X158457619Y-56315093D01*
X158791388Y-57122875D01*
X159408874Y-57741440D01*
X160216072Y-58076618D01*
X161090093Y-58077381D01*
X161897875Y-57743612D01*
X162516440Y-57126126D01*
X162851618Y-56318928D01*
X162852038Y-55836958D01*
X164808000Y-55836958D01*
X164808000Y-55923042D01*
X164975237Y-56763798D01*
X165451486Y-57476556D01*
X166164244Y-57952805D01*
X167005000Y-58120042D01*
X167845756Y-57952805D01*
X168558514Y-57476556D01*
X169034763Y-56763798D01*
X169202000Y-55923042D01*
X169202000Y-55836958D01*
X169048428Y-55064897D01*
X169787602Y-55064897D01*
X170136563Y-55909446D01*
X170782155Y-56556166D01*
X171626094Y-56906601D01*
X172539897Y-56907398D01*
X173010826Y-56712814D01*
X173170841Y-56822148D01*
X173725000Y-56934368D01*
X175525000Y-56934368D01*
X176042697Y-56836957D01*
X176518170Y-56530998D01*
X176837148Y-56064159D01*
X176949368Y-55510000D01*
X176949368Y-53710000D01*
X176851957Y-53192303D01*
X176545998Y-52716830D01*
X176079159Y-52397852D01*
X175525000Y-52285632D01*
X173725000Y-52285632D01*
X173207303Y-52383043D01*
X173012896Y-52508141D01*
X172543906Y-52313399D01*
X171630103Y-52312602D01*
X170785554Y-52661563D01*
X170138834Y-53307155D01*
X169788399Y-54151094D01*
X169787602Y-55064897D01*
X169048428Y-55064897D01*
X169034763Y-54996202D01*
X168558514Y-54283444D01*
X167845756Y-53807195D01*
X167005000Y-53639958D01*
X166164244Y-53807195D01*
X165451486Y-54283444D01*
X164975237Y-54996202D01*
X164808000Y-55836958D01*
X162852038Y-55836958D01*
X162852381Y-55444907D01*
X162518612Y-54637125D01*
X161901126Y-54018560D01*
X161093928Y-53683382D01*
X160219907Y-53682619D01*
X159412125Y-54016388D01*
X158793560Y-54633874D01*
X158458382Y-55441072D01*
X158457619Y-56315093D01*
X155866621Y-56315093D01*
X155867381Y-55444907D01*
X155533612Y-54637125D01*
X154916126Y-54018560D01*
X154108928Y-53683382D01*
X153234907Y-53682619D01*
X152427125Y-54016388D01*
X151808560Y-54633874D01*
X151473382Y-55441072D01*
X151472619Y-56315093D01*
X148804016Y-56315093D01*
X148882000Y-55923042D01*
X148882000Y-55836958D01*
X148749833Y-55172512D01*
X149369812Y-55049191D01*
X149987838Y-54636238D01*
X154236773Y-50387304D01*
X154510756Y-50332805D01*
X154761894Y-50165000D01*
X159563106Y-50165000D01*
X159814244Y-50332805D01*
X160655000Y-50500042D01*
X161495756Y-50332805D01*
X162208514Y-49856556D01*
X162684763Y-49143798D01*
X162852000Y-48303042D01*
X162852000Y-48216958D01*
X162784776Y-47879000D01*
X164808331Y-47879000D01*
X164807619Y-48695093D01*
X165141388Y-49502875D01*
X165758874Y-50121440D01*
X166566072Y-50456618D01*
X167440093Y-50457381D01*
X168247875Y-50123612D01*
X168866440Y-49506126D01*
X169201618Y-48698928D01*
X169202334Y-47879000D01*
X176843081Y-47879000D01*
X177572093Y-47733991D01*
X178190119Y-47321038D01*
X179147039Y-46364119D01*
X179559991Y-45746093D01*
X179565181Y-45720000D01*
X184150000Y-45720000D01*
X184879012Y-45574991D01*
X185497038Y-45162038D01*
X187300141Y-43358936D01*
X187911377Y-43106378D01*
X188515481Y-42503328D01*
X189022302Y-42684144D01*
X189577368Y-42656362D01*
X189945930Y-42503698D01*
X190545428Y-43104244D01*
X191338664Y-43433624D01*
X192197567Y-43434374D01*
X192991377Y-43106378D01*
X193599244Y-42499572D01*
X193600000Y-42497751D01*
X193600000Y-70712324D01*
X192688412Y-70333799D01*
X190859612Y-70332203D01*
X189169410Y-71030580D01*
X187875125Y-72322609D01*
X187263018Y-73796724D01*
X186960204Y-73063857D01*
X186067841Y-72169935D01*
X184901317Y-71685552D01*
X183638224Y-71684450D01*
X182470857Y-72166796D01*
X181576935Y-73059159D01*
X181092552Y-74225683D01*
X181091450Y-75488776D01*
X181573796Y-76656143D01*
X182466159Y-77550065D01*
X183632683Y-78034448D01*
X184895776Y-78035550D01*
X186063143Y-77553204D01*
X186957065Y-76660841D01*
X187234820Y-75991933D01*
X187870580Y-77530590D01*
X188876234Y-78538000D01*
X110207519Y-78538000D01*
X111209875Y-77537391D01*
X111911201Y-75848412D01*
X111911514Y-75488776D01*
X114416450Y-75488776D01*
X114898796Y-76656143D01*
X115791159Y-77550065D01*
X116957683Y-78034448D01*
X118220776Y-78035550D01*
X119388143Y-77553204D01*
X120282065Y-76660841D01*
X120766448Y-75494317D01*
X120766452Y-75488776D01*
X123941450Y-75488776D01*
X124423796Y-76656143D01*
X125316159Y-77550065D01*
X126482683Y-78034448D01*
X127745776Y-78035550D01*
X128913143Y-77553204D01*
X129807065Y-76660841D01*
X130291448Y-75494317D01*
X130291452Y-75488776D01*
X133466450Y-75488776D01*
X133948796Y-76656143D01*
X134841159Y-77550065D01*
X136007683Y-78034448D01*
X137270776Y-78035550D01*
X138438143Y-77553204D01*
X139332065Y-76660841D01*
X139694177Y-75788776D01*
X143181450Y-75788776D01*
X143663796Y-76956143D01*
X144556159Y-77850065D01*
X145722683Y-78334448D01*
X146985776Y-78335550D01*
X148153143Y-77853204D01*
X149047065Y-76960841D01*
X149531448Y-75794317D01*
X149531714Y-75488776D01*
X152516450Y-75488776D01*
X152998796Y-76656143D01*
X153891159Y-77550065D01*
X155057683Y-78034448D01*
X156320776Y-78035550D01*
X157488143Y-77553204D01*
X158382065Y-76660841D01*
X158866448Y-75494317D01*
X158866452Y-75488776D01*
X162041450Y-75488776D01*
X162523796Y-76656143D01*
X163416159Y-77550065D01*
X164582683Y-78034448D01*
X165845776Y-78035550D01*
X167013143Y-77553204D01*
X167907065Y-76660841D01*
X168391448Y-75494317D01*
X168391452Y-75488776D01*
X171566450Y-75488776D01*
X172048796Y-76656143D01*
X172941159Y-77550065D01*
X174107683Y-78034448D01*
X175370776Y-78035550D01*
X176538143Y-77553204D01*
X177432065Y-76660841D01*
X177916448Y-75494317D01*
X177917550Y-74231224D01*
X177435204Y-73063857D01*
X176542841Y-72169935D01*
X175376317Y-71685552D01*
X174113224Y-71684450D01*
X172945857Y-72166796D01*
X172051935Y-73059159D01*
X171567552Y-74225683D01*
X171566450Y-75488776D01*
X168391452Y-75488776D01*
X168392550Y-74231224D01*
X167910204Y-73063857D01*
X167017841Y-72169935D01*
X165851317Y-71685552D01*
X164588224Y-71684450D01*
X163420857Y-72166796D01*
X162526935Y-73059159D01*
X162042552Y-74225683D01*
X162041450Y-75488776D01*
X158866452Y-75488776D01*
X158867550Y-74231224D01*
X158385204Y-73063857D01*
X157492841Y-72169935D01*
X156326317Y-71685552D01*
X155063224Y-71684450D01*
X153895857Y-72166796D01*
X153001935Y-73059159D01*
X152517552Y-74225683D01*
X152516450Y-75488776D01*
X149531714Y-75488776D01*
X149532550Y-74531224D01*
X149050204Y-73363857D01*
X148157841Y-72469935D01*
X146991317Y-71985552D01*
X145728224Y-71984450D01*
X144560857Y-72466796D01*
X143666935Y-73359159D01*
X143182552Y-74525683D01*
X143181450Y-75788776D01*
X139694177Y-75788776D01*
X139816448Y-75494317D01*
X139817550Y-74231224D01*
X139335204Y-73063857D01*
X138442841Y-72169935D01*
X137276317Y-71685552D01*
X136013224Y-71684450D01*
X134845857Y-72166796D01*
X133951935Y-73059159D01*
X133467552Y-74225683D01*
X133466450Y-75488776D01*
X130291452Y-75488776D01*
X130292550Y-74231224D01*
X129810204Y-73063857D01*
X128917841Y-72169935D01*
X127751317Y-71685552D01*
X126488224Y-71684450D01*
X125320857Y-72166796D01*
X124426935Y-73059159D01*
X123942552Y-74225683D01*
X123941450Y-75488776D01*
X120766452Y-75488776D01*
X120767550Y-74231224D01*
X120285204Y-73063857D01*
X119392841Y-72169935D01*
X118226317Y-71685552D01*
X116963224Y-71684450D01*
X115795857Y-72166796D01*
X114901935Y-73059159D01*
X114417552Y-74225683D01*
X114416450Y-75488776D01*
X111911514Y-75488776D01*
X111912797Y-74019612D01*
X111214420Y-72329410D01*
X109922391Y-71035125D01*
X108233412Y-70333799D01*
X106404612Y-70332203D01*
X105104000Y-70869605D01*
X105104000Y-39619471D01*
X106396588Y-40156201D01*
X108225388Y-40157797D01*
X109915590Y-39459420D01*
X111209875Y-38167391D01*
X111911201Y-36478412D01*
X111912797Y-34649612D01*
X111357525Y-33305750D01*
X115141756Y-33305750D01*
X115141756Y-34746510D01*
X115238429Y-34979899D01*
X115417058Y-35158527D01*
X115650447Y-35255200D01*
X116094256Y-35255200D01*
X116253006Y-35096450D01*
X116253006Y-33147000D01*
X115300506Y-33147000D01*
X115141756Y-33305750D01*
X111357525Y-33305750D01*
X111214420Y-32959410D01*
X109922391Y-31665125D01*
X109027396Y-31293490D01*
X115141756Y-31293490D01*
X115141756Y-32734250D01*
X115300506Y-32893000D01*
X116253006Y-32893000D01*
X116253006Y-30943550D01*
X116094256Y-30784800D01*
X115650447Y-30784800D01*
X115417058Y-30881473D01*
X115238429Y-31060101D01*
X115141756Y-31293490D01*
X109027396Y-31293490D01*
X108233412Y-30963799D01*
X106404612Y-30962203D01*
X105104000Y-31499605D01*
X105104000Y-24459000D01*
X111405607Y-24459000D01*
X111405607Y-29500322D01*
X111405607Y-29500322D01*
G37*
X111405607Y-29500322D02*
X111503018Y-30018019D01*
X111808977Y-30493492D01*
X112275816Y-30812470D01*
X112829975Y-30924690D01*
X114529997Y-30924690D01*
X115047694Y-30827279D01*
X115523167Y-30521320D01*
X115842145Y-30054481D01*
X115954365Y-29500322D01*
X115954365Y-24459000D01*
X122805635Y-24459000D01*
X122805635Y-29500322D01*
X122898796Y-29995432D01*
X122096965Y-29995432D01*
X121888192Y-29490162D01*
X121388469Y-28989566D01*
X120735216Y-28718311D01*
X120027884Y-28717694D01*
X119374158Y-28987808D01*
X118873562Y-29487531D01*
X118662663Y-29995432D01*
X117776752Y-29995432D01*
X117259055Y-30092843D01*
X116783582Y-30398802D01*
X116464604Y-30865641D01*
X116352384Y-31419800D01*
X116352384Y-34620200D01*
X116449795Y-35137897D01*
X116700473Y-35527460D01*
X116780009Y-35927312D01*
X117151665Y-36483537D01*
X117186461Y-36518332D01*
X117186463Y-36518335D01*
X117371465Y-36641949D01*
X117374848Y-36645332D01*
X117374850Y-36645335D01*
X117931074Y-37016991D01*
X117983270Y-37027373D01*
X117982692Y-37690114D01*
X118077841Y-37920391D01*
X117532665Y-38284665D01*
X117161009Y-38840889D01*
X117126360Y-39015083D01*
X117055000Y-39000632D01*
X115355000Y-39000632D01*
X114837303Y-39098043D01*
X114361830Y-39404002D01*
X114042852Y-39870841D01*
X113930632Y-40425000D01*
X113930632Y-42125000D01*
X114028043Y-42642697D01*
X114158405Y-42845285D01*
X114085022Y-42955110D01*
X113913979Y-43815000D01*
X114085022Y-44674890D01*
X114528028Y-45337896D01*
X113432962Y-46432962D01*
X113020009Y-47050988D01*
X112875000Y-47780000D01*
X112875000Y-62458000D01*
X112973962Y-62955515D01*
X113020009Y-63187012D01*
X113432962Y-63805038D01*
X114701885Y-65073961D01*
X114580840Y-65123976D01*
X113948197Y-65755515D01*
X113605391Y-66581083D01*
X113604611Y-67474995D01*
X113945976Y-68301160D01*
X114577515Y-68933803D01*
X115403083Y-69276609D01*
X116296995Y-69277389D01*
X117123160Y-68936024D01*
X117561657Y-68498292D01*
X117690653Y-68691347D01*
X118452885Y-69200655D01*
X119352000Y-69379499D01*
X120251115Y-69200655D01*
X121013347Y-68691347D01*
X123135205Y-66569489D01*
X123130391Y-66581083D01*
X123129611Y-67474995D01*
X123470976Y-68301160D01*
X124102515Y-68933803D01*
X124928083Y-69276609D01*
X125821995Y-69277389D01*
X126648160Y-68936024D01*
X127127281Y-68457739D01*
X127602515Y-68933803D01*
X128428083Y-69276609D01*
X129321995Y-69277389D01*
X130148160Y-68936024D01*
X130780803Y-68304485D01*
X131123609Y-67478917D01*
X131123612Y-67474995D01*
X132654611Y-67474995D01*
X132995976Y-68301160D01*
X133627515Y-68933803D01*
X134453083Y-69276609D01*
X135346995Y-69277389D01*
X136173160Y-68936024D01*
X136652281Y-68457739D01*
X137127515Y-68933803D01*
X137953083Y-69276609D01*
X138846995Y-69277389D01*
X139673160Y-68936024D01*
X140305803Y-68304485D01*
X140648609Y-67478917D01*
X140649389Y-66585005D01*
X140308024Y-65758840D01*
X139676485Y-65126197D01*
X138850917Y-64783391D01*
X137957005Y-64782611D01*
X137130840Y-65123976D01*
X136651719Y-65602261D01*
X136176485Y-65126197D01*
X135350917Y-64783391D01*
X134457005Y-64782611D01*
X133630840Y-65123976D01*
X132998197Y-65755515D01*
X132655391Y-66581083D01*
X132654611Y-67474995D01*
X131123612Y-67474995D01*
X131124389Y-66585005D01*
X130783024Y-65758840D01*
X130151485Y-65126197D01*
X129325917Y-64783391D01*
X128432005Y-64782611D01*
X127605840Y-65123976D01*
X127126719Y-65602261D01*
X126651485Y-65126197D01*
X125825917Y-64783391D01*
X124932005Y-64782611D01*
X124915097Y-64789597D01*
X126712694Y-62992000D01*
X142698047Y-62992000D01*
X142370391Y-63781083D01*
X142369611Y-64674995D01*
X142710976Y-65501160D01*
X142939262Y-65729845D01*
X142713197Y-65955515D01*
X142370391Y-66781083D01*
X142369611Y-67674995D01*
X142710976Y-68501160D01*
X143342515Y-69133803D01*
X144168083Y-69476609D01*
X145061995Y-69477389D01*
X145888160Y-69136024D01*
X146520803Y-68504485D01*
X146616526Y-68273958D01*
X147252647Y-68273958D01*
X147332920Y-68525259D01*
X147888279Y-68726718D01*
X148478458Y-68700315D01*
X148901080Y-68525259D01*
X148981353Y-68273958D01*
X148117000Y-67409605D01*
X147252647Y-68273958D01*
X146616526Y-68273958D01*
X146773149Y-67896769D01*
X146821741Y-68014080D01*
X147073042Y-68094353D01*
X147937395Y-67230000D01*
X148296605Y-67230000D01*
X149160958Y-68094353D01*
X149412259Y-68014080D01*
X149613718Y-67458721D01*
X149587315Y-66868542D01*
X149412259Y-66445920D01*
X149160958Y-66365647D01*
X148296605Y-67230000D01*
X147937395Y-67230000D01*
X147073042Y-66365647D01*
X146821741Y-66445920D01*
X146776179Y-66571520D01*
X146616903Y-66186042D01*
X147252647Y-66186042D01*
X148117000Y-67050395D01*
X148981353Y-66186042D01*
X148901080Y-65934741D01*
X148345721Y-65733282D01*
X147755542Y-65759685D01*
X147332920Y-65934741D01*
X147252647Y-66186042D01*
X146616903Y-66186042D01*
X146523024Y-65958840D01*
X146294738Y-65730155D01*
X146520803Y-65504485D01*
X146616526Y-65273958D01*
X147252647Y-65273958D01*
X147332920Y-65525259D01*
X147888279Y-65726718D01*
X148478458Y-65700315D01*
X148901080Y-65525259D01*
X148981353Y-65273958D01*
X148117000Y-64409605D01*
X147252647Y-65273958D01*
X146616526Y-65273958D01*
X146773149Y-64896769D01*
X146821741Y-65014080D01*
X147073042Y-65094353D01*
X147937395Y-64230000D01*
X148296605Y-64230000D01*
X149160958Y-65094353D01*
X149412259Y-65014080D01*
X149613718Y-64458721D01*
X149587315Y-63868542D01*
X149412259Y-63445920D01*
X149160958Y-63365647D01*
X148296605Y-64230000D01*
X147937395Y-64230000D01*
X147073042Y-63365647D01*
X146821741Y-63445920D01*
X146776179Y-63571520D01*
X146536725Y-62992000D01*
X147314630Y-62992000D01*
X147252647Y-63186042D01*
X148117000Y-64050395D01*
X148981353Y-63186042D01*
X148919370Y-62992000D01*
X152944424Y-62992000D01*
X152767462Y-63168962D01*
X152354509Y-63786988D01*
X152209500Y-64516000D01*
X152209500Y-65594493D01*
X152048197Y-65755515D01*
X151705391Y-66581083D01*
X151704611Y-67474995D01*
X152045976Y-68301160D01*
X152677515Y-68933803D01*
X153503083Y-69276609D01*
X154396995Y-69277389D01*
X155223160Y-68936024D01*
X155702281Y-68457739D01*
X156177515Y-68933803D01*
X157003083Y-69276609D01*
X157896995Y-69277389D01*
X158723160Y-68936024D01*
X159355803Y-68304485D01*
X159451526Y-68073958D01*
X162612647Y-68073958D01*
X162692920Y-68325259D01*
X163248279Y-68526718D01*
X163838458Y-68500315D01*
X164261080Y-68325259D01*
X164341353Y-68073958D01*
X163477000Y-67209605D01*
X162612647Y-68073958D01*
X159451526Y-68073958D01*
X159698609Y-67478917D01*
X159699200Y-66801279D01*
X161980282Y-66801279D01*
X162006685Y-67391458D01*
X162181741Y-67814080D01*
X162433042Y-67894353D01*
X163297395Y-67030000D01*
X163656605Y-67030000D01*
X164520958Y-67894353D01*
X164772259Y-67814080D01*
X164817821Y-67688480D01*
X165070976Y-68301160D01*
X165702515Y-68933803D01*
X166528083Y-69276609D01*
X167421995Y-69277389D01*
X168248160Y-68936024D01*
X168880803Y-68304485D01*
X168976526Y-68073958D01*
X172137647Y-68073958D01*
X172217920Y-68325259D01*
X172773279Y-68526718D01*
X173363458Y-68500315D01*
X173786080Y-68325259D01*
X173866353Y-68073958D01*
X173002000Y-67209605D01*
X172137647Y-68073958D01*
X168976526Y-68073958D01*
X169223609Y-67478917D01*
X169224200Y-66801279D01*
X171505282Y-66801279D01*
X171531685Y-67391458D01*
X171706741Y-67814080D01*
X171958042Y-67894353D01*
X172822395Y-67030000D01*
X173181605Y-67030000D01*
X174045958Y-67894353D01*
X174297259Y-67814080D01*
X174342821Y-67688480D01*
X174595976Y-68301160D01*
X175227515Y-68933803D01*
X176053083Y-69276609D01*
X176946995Y-69277389D01*
X177773160Y-68936024D01*
X178405803Y-68304485D01*
X178501526Y-68073958D01*
X181662647Y-68073958D01*
X181742920Y-68325259D01*
X182298279Y-68526718D01*
X182888458Y-68500315D01*
X183311080Y-68325259D01*
X183391353Y-68073958D01*
X182527000Y-67209605D01*
X181662647Y-68073958D01*
X178501526Y-68073958D01*
X178748609Y-67478917D01*
X178749200Y-66801279D01*
X181030282Y-66801279D01*
X181056685Y-67391458D01*
X181231741Y-67814080D01*
X181483042Y-67894353D01*
X182347395Y-67030000D01*
X181483042Y-66165647D01*
X181231741Y-66245920D01*
X181030282Y-66801279D01*
X178749200Y-66801279D01*
X178749389Y-66585005D01*
X178408024Y-65758840D01*
X177776485Y-65126197D01*
X176950917Y-64783391D01*
X176057005Y-64782611D01*
X175230840Y-65123976D01*
X174598197Y-65755515D01*
X174345851Y-66363231D01*
X174297259Y-66245920D01*
X174045958Y-66165647D01*
X173181605Y-67030000D01*
X172822395Y-67030000D01*
X171958042Y-66165647D01*
X171706741Y-66245920D01*
X171505282Y-66801279D01*
X169224200Y-66801279D01*
X169224389Y-66585005D01*
X168976903Y-65986042D01*
X172137647Y-65986042D01*
X173002000Y-66850395D01*
X173866353Y-65986042D01*
X173786080Y-65734741D01*
X173230721Y-65533282D01*
X172640542Y-65559685D01*
X172217920Y-65734741D01*
X172137647Y-65986042D01*
X168976903Y-65986042D01*
X168883024Y-65758840D01*
X168251485Y-65126197D01*
X167425917Y-64783391D01*
X166532005Y-64782611D01*
X165705840Y-65123976D01*
X165073197Y-65755515D01*
X164820851Y-66363231D01*
X164772259Y-66245920D01*
X164520958Y-66165647D01*
X163656605Y-67030000D01*
X163297395Y-67030000D01*
X162433042Y-66165647D01*
X162181741Y-66245920D01*
X161980282Y-66801279D01*
X159699200Y-66801279D01*
X159699389Y-66585005D01*
X159451903Y-65986042D01*
X162612647Y-65986042D01*
X163477000Y-66850395D01*
X164341353Y-65986042D01*
X164261080Y-65734741D01*
X163705721Y-65533282D01*
X163115542Y-65559685D01*
X162692920Y-65734741D01*
X162612647Y-65986042D01*
X159451903Y-65986042D01*
X159358024Y-65758840D01*
X158726485Y-65126197D01*
X157900917Y-64783391D01*
X157007005Y-64782611D01*
X156214514Y-65110062D01*
X158332577Y-62992000D01*
X178666306Y-62992000D01*
X184365653Y-68691347D01*
X185127885Y-69200655D01*
X186027000Y-69379499D01*
X186926114Y-69200655D01*
X187688347Y-68691347D01*
X188197655Y-67929114D01*
X188376499Y-67030000D01*
X188197655Y-66130885D01*
X187688347Y-65368653D01*
X181300847Y-58981153D01*
X180538615Y-58471845D01*
X179639500Y-58293000D01*
X140368229Y-58293000D01*
X140655561Y-58235846D01*
X141465646Y-57694565D01*
X142006927Y-56884480D01*
X142197000Y-55928919D01*
X142197000Y-55831081D01*
X142070316Y-55194200D01*
X144615853Y-55194200D01*
X144488000Y-55836958D01*
X144488000Y-55923042D01*
X144655237Y-56763798D01*
X145131486Y-57476556D01*
X145844244Y-57952805D01*
X146685000Y-58120042D01*
X147525756Y-57952805D01*
X148238514Y-57476556D01*
X148714763Y-56763798D01*
X148804016Y-56315093D01*
X151472619Y-56315093D01*
X151806388Y-57122875D01*
X152423874Y-57741440D01*
X153231072Y-58076618D01*
X154105093Y-58077381D01*
X154912875Y-57743612D01*
X155531440Y-57126126D01*
X155866618Y-56318928D01*
X155866621Y-56315093D01*
X158457619Y-56315093D01*
X158791388Y-57122875D01*
X159408874Y-57741440D01*
X160216072Y-58076618D01*
X161090093Y-58077381D01*
X161897875Y-57743612D01*
X162516440Y-57126126D01*
X162851618Y-56318928D01*
X162852038Y-55836958D01*
X164808000Y-55836958D01*
X164808000Y-55923042D01*
X164975237Y-56763798D01*
X165451486Y-57476556D01*
X166164244Y-57952805D01*
X167005000Y-58120042D01*
X167845756Y-57952805D01*
X168558514Y-57476556D01*
X169034763Y-56763798D01*
X169202000Y-55923042D01*
X169202000Y-55836958D01*
X169048428Y-55064897D01*
X169787602Y-55064897D01*
X170136563Y-55909446D01*
X170782155Y-56556166D01*
X171626094Y-56906601D01*
X172539897Y-56907398D01*
X173010826Y-56712814D01*
X173170841Y-56822148D01*
X173725000Y-56934368D01*
X175525000Y-56934368D01*
X176042697Y-56836957D01*
X176518170Y-56530998D01*
X176837148Y-56064159D01*
X176949368Y-55510000D01*
X176949368Y-53710000D01*
X176851957Y-53192303D01*
X176545998Y-52716830D01*
X176079159Y-52397852D01*
X175525000Y-52285632D01*
X173725000Y-52285632D01*
X173207303Y-52383043D01*
X173012896Y-52508141D01*
X172543906Y-52313399D01*
X171630103Y-52312602D01*
X170785554Y-52661563D01*
X170138834Y-53307155D01*
X169788399Y-54151094D01*
X169787602Y-55064897D01*
X169048428Y-55064897D01*
X169034763Y-54996202D01*
X168558514Y-54283444D01*
X167845756Y-53807195D01*
X167005000Y-53639958D01*
X166164244Y-53807195D01*
X165451486Y-54283444D01*
X164975237Y-54996202D01*
X164808000Y-55836958D01*
X162852038Y-55836958D01*
X162852381Y-55444907D01*
X162518612Y-54637125D01*
X161901126Y-54018560D01*
X161093928Y-53683382D01*
X160219907Y-53682619D01*
X159412125Y-54016388D01*
X158793560Y-54633874D01*
X158458382Y-55441072D01*
X158457619Y-56315093D01*
X155866621Y-56315093D01*
X155867381Y-55444907D01*
X155533612Y-54637125D01*
X154916126Y-54018560D01*
X154108928Y-53683382D01*
X153234907Y-53682619D01*
X152427125Y-54016388D01*
X151808560Y-54633874D01*
X151473382Y-55441072D01*
X151472619Y-56315093D01*
X148804016Y-56315093D01*
X148882000Y-55923042D01*
X148882000Y-55836958D01*
X148749833Y-55172512D01*
X149369812Y-55049191D01*
X149987838Y-54636238D01*
X154236773Y-50387304D01*
X154510756Y-50332805D01*
X154761894Y-50165000D01*
X159563106Y-50165000D01*
X159814244Y-50332805D01*
X160655000Y-50500042D01*
X161495756Y-50332805D01*
X162208514Y-49856556D01*
X162684763Y-49143798D01*
X162852000Y-48303042D01*
X162852000Y-48216958D01*
X162784776Y-47879000D01*
X164808331Y-47879000D01*
X164807619Y-48695093D01*
X165141388Y-49502875D01*
X165758874Y-50121440D01*
X166566072Y-50456618D01*
X167440093Y-50457381D01*
X168247875Y-50123612D01*
X168866440Y-49506126D01*
X169201618Y-48698928D01*
X169202334Y-47879000D01*
X176843081Y-47879000D01*
X177572093Y-47733991D01*
X178190119Y-47321038D01*
X179147039Y-46364119D01*
X179559991Y-45746093D01*
X179565181Y-45720000D01*
X184150000Y-45720000D01*
X184879012Y-45574991D01*
X185497038Y-45162038D01*
X187300141Y-43358936D01*
X187911377Y-43106378D01*
X188515481Y-42503328D01*
X189022302Y-42684144D01*
X189577368Y-42656362D01*
X189945930Y-42503698D01*
X190545428Y-43104244D01*
X191338664Y-43433624D01*
X192197567Y-43434374D01*
X192991377Y-43106378D01*
X193599244Y-42499572D01*
X193600000Y-42497751D01*
X193600000Y-70712324D01*
X192688412Y-70333799D01*
X190859612Y-70332203D01*
X189169410Y-71030580D01*
X187875125Y-72322609D01*
X187263018Y-73796724D01*
X186960204Y-73063857D01*
X186067841Y-72169935D01*
X184901317Y-71685552D01*
X183638224Y-71684450D01*
X182470857Y-72166796D01*
X181576935Y-73059159D01*
X181092552Y-74225683D01*
X181091450Y-75488776D01*
X181573796Y-76656143D01*
X182466159Y-77550065D01*
X183632683Y-78034448D01*
X184895776Y-78035550D01*
X186063143Y-77553204D01*
X186957065Y-76660841D01*
X187234820Y-75991933D01*
X187870580Y-77530590D01*
X188876234Y-78538000D01*
X110207519Y-78538000D01*
X111209875Y-77537391D01*
X111911201Y-75848412D01*
X111911514Y-75488776D01*
X114416450Y-75488776D01*
X114898796Y-76656143D01*
X115791159Y-77550065D01*
X116957683Y-78034448D01*
X118220776Y-78035550D01*
X119388143Y-77553204D01*
X120282065Y-76660841D01*
X120766448Y-75494317D01*
X120766452Y-75488776D01*
X123941450Y-75488776D01*
X124423796Y-76656143D01*
X125316159Y-77550065D01*
X126482683Y-78034448D01*
X127745776Y-78035550D01*
X128913143Y-77553204D01*
X129807065Y-76660841D01*
X130291448Y-75494317D01*
X130291452Y-75488776D01*
X133466450Y-75488776D01*
X133948796Y-76656143D01*
X134841159Y-77550065D01*
X136007683Y-78034448D01*
X137270776Y-78035550D01*
X138438143Y-77553204D01*
X139332065Y-76660841D01*
X139694177Y-75788776D01*
X143181450Y-75788776D01*
X143663796Y-76956143D01*
X144556159Y-77850065D01*
X145722683Y-78334448D01*
X146985776Y-78335550D01*
X148153143Y-77853204D01*
X149047065Y-76960841D01*
X149531448Y-75794317D01*
X149531714Y-75488776D01*
X152516450Y-75488776D01*
X152998796Y-76656143D01*
X153891159Y-77550065D01*
X155057683Y-78034448D01*
X156320776Y-78035550D01*
X157488143Y-77553204D01*
X158382065Y-76660841D01*
X158866448Y-75494317D01*
X158866452Y-75488776D01*
X162041450Y-75488776D01*
X162523796Y-76656143D01*
X163416159Y-77550065D01*
X164582683Y-78034448D01*
X165845776Y-78035550D01*
X167013143Y-77553204D01*
X167907065Y-76660841D01*
X168391448Y-75494317D01*
X168391452Y-75488776D01*
X171566450Y-75488776D01*
X172048796Y-76656143D01*
X172941159Y-77550065D01*
X174107683Y-78034448D01*
X175370776Y-78035550D01*
X176538143Y-77553204D01*
X177432065Y-76660841D01*
X177916448Y-75494317D01*
X177917550Y-74231224D01*
X177435204Y-73063857D01*
X176542841Y-72169935D01*
X175376317Y-71685552D01*
X174113224Y-71684450D01*
X172945857Y-72166796D01*
X172051935Y-73059159D01*
X171567552Y-74225683D01*
X171566450Y-75488776D01*
X168391452Y-75488776D01*
X168392550Y-74231224D01*
X167910204Y-73063857D01*
X167017841Y-72169935D01*
X165851317Y-71685552D01*
X164588224Y-71684450D01*
X163420857Y-72166796D01*
X162526935Y-73059159D01*
X162042552Y-74225683D01*
X162041450Y-75488776D01*
X158866452Y-75488776D01*
X158867550Y-74231224D01*
X158385204Y-73063857D01*
X157492841Y-72169935D01*
X156326317Y-71685552D01*
X155063224Y-71684450D01*
X153895857Y-72166796D01*
X153001935Y-73059159D01*
X152517552Y-74225683D01*
X152516450Y-75488776D01*
X149531714Y-75488776D01*
X149532550Y-74531224D01*
X149050204Y-73363857D01*
X148157841Y-72469935D01*
X146991317Y-71985552D01*
X145728224Y-71984450D01*
X144560857Y-72466796D01*
X143666935Y-73359159D01*
X143182552Y-74525683D01*
X143181450Y-75788776D01*
X139694177Y-75788776D01*
X139816448Y-75494317D01*
X139817550Y-74231224D01*
X139335204Y-73063857D01*
X138442841Y-72169935D01*
X137276317Y-71685552D01*
X136013224Y-71684450D01*
X134845857Y-72166796D01*
X133951935Y-73059159D01*
X133467552Y-74225683D01*
X133466450Y-75488776D01*
X130291452Y-75488776D01*
X130292550Y-74231224D01*
X129810204Y-73063857D01*
X128917841Y-72169935D01*
X127751317Y-71685552D01*
X126488224Y-71684450D01*
X125320857Y-72166796D01*
X124426935Y-73059159D01*
X123942552Y-74225683D01*
X123941450Y-75488776D01*
X120766452Y-75488776D01*
X120767550Y-74231224D01*
X120285204Y-73063857D01*
X119392841Y-72169935D01*
X118226317Y-71685552D01*
X116963224Y-71684450D01*
X115795857Y-72166796D01*
X114901935Y-73059159D01*
X114417552Y-74225683D01*
X114416450Y-75488776D01*
X111911514Y-75488776D01*
X111912797Y-74019612D01*
X111214420Y-72329410D01*
X109922391Y-71035125D01*
X108233412Y-70333799D01*
X106404612Y-70332203D01*
X105104000Y-70869605D01*
X105104000Y-39619471D01*
X106396588Y-40156201D01*
X108225388Y-40157797D01*
X109915590Y-39459420D01*
X111209875Y-38167391D01*
X111911201Y-36478412D01*
X111912797Y-34649612D01*
X111357525Y-33305750D01*
X115141756Y-33305750D01*
X115141756Y-34746510D01*
X115238429Y-34979899D01*
X115417058Y-35158527D01*
X115650447Y-35255200D01*
X116094256Y-35255200D01*
X116253006Y-35096450D01*
X116253006Y-33147000D01*
X115300506Y-33147000D01*
X115141756Y-33305750D01*
X111357525Y-33305750D01*
X111214420Y-32959410D01*
X109922391Y-31665125D01*
X109027396Y-31293490D01*
X115141756Y-31293490D01*
X115141756Y-32734250D01*
X115300506Y-32893000D01*
X116253006Y-32893000D01*
X116253006Y-30943550D01*
X116094256Y-30784800D01*
X115650447Y-30784800D01*
X115417058Y-30881473D01*
X115238429Y-31060101D01*
X115141756Y-31293490D01*
X109027396Y-31293490D01*
X108233412Y-30963799D01*
X106404612Y-30962203D01*
X105104000Y-31499605D01*
X105104000Y-24459000D01*
X111405607Y-24459000D01*
X111405607Y-29500322D01*
G36*
X126025756Y-48145428D02*
X125696376Y-48938664D01*
X125695626Y-49797567D01*
X126023622Y-50591377D01*
X126630428Y-51199244D01*
X127423664Y-51528624D01*
X128282567Y-51529374D01*
X129076377Y-51201378D01*
X129684244Y-50594572D01*
X129966970Y-49913690D01*
X131955000Y-49913690D01*
X131955000Y-50514250D01*
X132113750Y-50673000D01*
X133223000Y-50673000D01*
X133223000Y-49563750D01*
X133477000Y-49563750D01*
X133477000Y-50673000D01*
X134586250Y-50673000D01*
X134745000Y-50514250D01*
X134745000Y-49913690D01*
X134648327Y-49680301D01*
X134469698Y-49501673D01*
X134236309Y-49405000D01*
X133635750Y-49405000D01*
X133477000Y-49563750D01*
X133223000Y-49563750D01*
X133064250Y-49405000D01*
X132463691Y-49405000D01*
X132230302Y-49501673D01*
X132051673Y-49680301D01*
X131955000Y-49913690D01*
X129966970Y-49913690D01*
X130013624Y-49801336D01*
X130014374Y-48942433D01*
X129686378Y-48148623D01*
X129417226Y-47879000D01*
X137175632Y-47879000D01*
X137175632Y-49360000D01*
X137273043Y-49877697D01*
X137579002Y-50353170D01*
X138045841Y-50672148D01*
X138600000Y-50784368D01*
X140800000Y-50784368D01*
X141317697Y-50686957D01*
X141793170Y-50380998D01*
X142112148Y-49914159D01*
X142224368Y-49360000D01*
X142224368Y-47879000D01*
X144488331Y-47879000D01*
X144487619Y-48695093D01*
X144821388Y-49502875D01*
X145438874Y-50121440D01*
X146246072Y-50456618D01*
X147120093Y-50457381D01*
X147927875Y-50123612D01*
X148546440Y-49506126D01*
X148881618Y-48698928D01*
X148882334Y-47879000D01*
X151356923Y-47879000D01*
X147851724Y-51384200D01*
X134745000Y-51384200D01*
X134745000Y-51085750D01*
X134586250Y-50927000D01*
X133477000Y-50927000D01*
X133477000Y-50947000D01*
X133223000Y-50947000D01*
X133223000Y-50927000D01*
X132113750Y-50927000D01*
X131955000Y-51085750D01*
X131955000Y-51684767D01*
X131522451Y-52116562D01*
X131193375Y-52909064D01*
X131192627Y-53767171D01*
X131278500Y-53975000D01*
X130074077Y-53975000D01*
X129938936Y-53839860D01*
X129686378Y-53228623D01*
X129079572Y-52620756D01*
X128286336Y-52291376D01*
X127427433Y-52290626D01*
X126633623Y-52618622D01*
X126025756Y-53225428D01*
X125696376Y-54018664D01*
X125695626Y-54877567D01*
X126023622Y-55671377D01*
X126630428Y-56279244D01*
X127245615Y-56534692D01*
X127937961Y-57227038D01*
X128555987Y-57639991D01*
X128676938Y-57664049D01*
X129285000Y-57785000D01*
X132313084Y-57785000D01*
X132919064Y-58036625D01*
X133777171Y-58037373D01*
X134387962Y-57785000D01*
X138069700Y-57785000D01*
X138744439Y-58235846D01*
X139031771Y-58293000D01*
X125739500Y-58293000D01*
X124840385Y-58471845D01*
X124078153Y-58981153D01*
X119037691Y-64021615D01*
X116685000Y-61668924D01*
X116685000Y-56368342D01*
X117263664Y-56608624D01*
X118122567Y-56609374D01*
X118916377Y-56281378D01*
X118964552Y-56233287D01*
X119010428Y-56279244D01*
X119803664Y-56608624D01*
X120662567Y-56609374D01*
X121456377Y-56281378D01*
X121504552Y-56233287D01*
X121550428Y-56279244D01*
X122343664Y-56608624D01*
X123202567Y-56609374D01*
X123996377Y-56281378D01*
X124604244Y-55674572D01*
X124933624Y-54881336D01*
X124934374Y-54022433D01*
X124606378Y-53228623D01*
X123999572Y-52620756D01*
X123206336Y-52291376D01*
X122347433Y-52290626D01*
X121553623Y-52618622D01*
X121505448Y-52666713D01*
X121459572Y-52620756D01*
X120666336Y-52291376D01*
X119807433Y-52290626D01*
X119013623Y-52618622D01*
X118965448Y-52666713D01*
X118919572Y-52620756D01*
X118126336Y-52291376D01*
X117267433Y-52290626D01*
X116685000Y-52531283D01*
X116685000Y-51288342D01*
X117263664Y-51528624D01*
X118122567Y-51529374D01*
X118916377Y-51201378D01*
X118964552Y-51153287D01*
X119010428Y-51199244D01*
X119803664Y-51528624D01*
X120662567Y-51529374D01*
X121456377Y-51201378D01*
X121504552Y-51153287D01*
X121550428Y-51199244D01*
X122343664Y-51528624D01*
X123202567Y-51529374D01*
X123996377Y-51201378D01*
X124604244Y-50594572D01*
X124933624Y-49801336D01*
X124934374Y-48942433D01*
X124606378Y-48148623D01*
X124337226Y-47879000D01*
X126292650Y-47879000D01*
X126025756Y-48145428D01*
X126025756Y-48145428D01*
G37*
X126025756Y-48145428D02*
X125696376Y-48938664D01*
X125695626Y-49797567D01*
X126023622Y-50591377D01*
X126630428Y-51199244D01*
X127423664Y-51528624D01*
X128282567Y-51529374D01*
X129076377Y-51201378D01*
X129684244Y-50594572D01*
X129966970Y-49913690D01*
X131955000Y-49913690D01*
X131955000Y-50514250D01*
X132113750Y-50673000D01*
X133223000Y-50673000D01*
X133223000Y-49563750D01*
X133477000Y-49563750D01*
X133477000Y-50673000D01*
X134586250Y-50673000D01*
X134745000Y-50514250D01*
X134745000Y-49913690D01*
X134648327Y-49680301D01*
X134469698Y-49501673D01*
X134236309Y-49405000D01*
X133635750Y-49405000D01*
X133477000Y-49563750D01*
X133223000Y-49563750D01*
X133064250Y-49405000D01*
X132463691Y-49405000D01*
X132230302Y-49501673D01*
X132051673Y-49680301D01*
X131955000Y-49913690D01*
X129966970Y-49913690D01*
X130013624Y-49801336D01*
X130014374Y-48942433D01*
X129686378Y-48148623D01*
X129417226Y-47879000D01*
X137175632Y-47879000D01*
X137175632Y-49360000D01*
X137273043Y-49877697D01*
X137579002Y-50353170D01*
X138045841Y-50672148D01*
X138600000Y-50784368D01*
X140800000Y-50784368D01*
X141317697Y-50686957D01*
X141793170Y-50380998D01*
X142112148Y-49914159D01*
X142224368Y-49360000D01*
X142224368Y-47879000D01*
X144488331Y-47879000D01*
X144487619Y-48695093D01*
X144821388Y-49502875D01*
X145438874Y-50121440D01*
X146246072Y-50456618D01*
X147120093Y-50457381D01*
X147927875Y-50123612D01*
X148546440Y-49506126D01*
X148881618Y-48698928D01*
X148882334Y-47879000D01*
X151356923Y-47879000D01*
X147851724Y-51384200D01*
X134745000Y-51384200D01*
X134745000Y-51085750D01*
X134586250Y-50927000D01*
X133477000Y-50927000D01*
X133477000Y-50947000D01*
X133223000Y-50947000D01*
X133223000Y-50927000D01*
X132113750Y-50927000D01*
X131955000Y-51085750D01*
X131955000Y-51684767D01*
X131522451Y-52116562D01*
X131193375Y-52909064D01*
X131192627Y-53767171D01*
X131278500Y-53975000D01*
X130074077Y-53975000D01*
X129938936Y-53839860D01*
X129686378Y-53228623D01*
X129079572Y-52620756D01*
X128286336Y-52291376D01*
X127427433Y-52290626D01*
X126633623Y-52618622D01*
X126025756Y-53225428D01*
X125696376Y-54018664D01*
X125695626Y-54877567D01*
X126023622Y-55671377D01*
X126630428Y-56279244D01*
X127245615Y-56534692D01*
X127937961Y-57227038D01*
X128555987Y-57639991D01*
X128676938Y-57664049D01*
X129285000Y-57785000D01*
X132313084Y-57785000D01*
X132919064Y-58036625D01*
X133777171Y-58037373D01*
X134387962Y-57785000D01*
X138069700Y-57785000D01*
X138744439Y-58235846D01*
X139031771Y-58293000D01*
X125739500Y-58293000D01*
X124840385Y-58471845D01*
X124078153Y-58981153D01*
X119037691Y-64021615D01*
X116685000Y-61668924D01*
X116685000Y-56368342D01*
X117263664Y-56608624D01*
X118122567Y-56609374D01*
X118916377Y-56281378D01*
X118964552Y-56233287D01*
X119010428Y-56279244D01*
X119803664Y-56608624D01*
X120662567Y-56609374D01*
X121456377Y-56281378D01*
X121504552Y-56233287D01*
X121550428Y-56279244D01*
X122343664Y-56608624D01*
X123202567Y-56609374D01*
X123996377Y-56281378D01*
X124604244Y-55674572D01*
X124933624Y-54881336D01*
X124934374Y-54022433D01*
X124606378Y-53228623D01*
X123999572Y-52620756D01*
X123206336Y-52291376D01*
X122347433Y-52290626D01*
X121553623Y-52618622D01*
X121505448Y-52666713D01*
X121459572Y-52620756D01*
X120666336Y-52291376D01*
X119807433Y-52290626D01*
X119013623Y-52618622D01*
X118965448Y-52666713D01*
X118919572Y-52620756D01*
X118126336Y-52291376D01*
X117267433Y-52290626D01*
X116685000Y-52531283D01*
X116685000Y-51288342D01*
X117263664Y-51528624D01*
X118122567Y-51529374D01*
X118916377Y-51201378D01*
X118964552Y-51153287D01*
X119010428Y-51199244D01*
X119803664Y-51528624D01*
X120662567Y-51529374D01*
X121456377Y-51201378D01*
X121504552Y-51153287D01*
X121550428Y-51199244D01*
X122343664Y-51528624D01*
X123202567Y-51529374D01*
X123996377Y-51201378D01*
X124604244Y-50594572D01*
X124933624Y-49801336D01*
X124934374Y-48942433D01*
X124606378Y-48148623D01*
X124337226Y-47879000D01*
X126292650Y-47879000D01*
X126025756Y-48145428D01*
G36*
X153285635Y-29500322D02*
X153378796Y-29995432D01*
X152653980Y-29995432D01*
X152654308Y-29619886D01*
X152384194Y-28966160D01*
X151884471Y-28465564D01*
X151231218Y-28194309D01*
X150523886Y-28193692D01*
X150369459Y-28257500D01*
X149672807Y-28257500D01*
X149672802Y-28257499D01*
X149125548Y-28366356D01*
X149016691Y-28388009D01*
X148460467Y-28759665D01*
X148460465Y-28759668D01*
X147647667Y-29572465D01*
X147276011Y-30128689D01*
X147276011Y-30128690D01*
X147205321Y-30484070D01*
X146944604Y-30865641D01*
X146832384Y-31419800D01*
X146832384Y-33167000D01*
X146733006Y-33167000D01*
X146733006Y-33147000D01*
X145780506Y-33147000D01*
X145621756Y-33305750D01*
X145621756Y-34746510D01*
X145718429Y-34979899D01*
X145790531Y-35052001D01*
X139560170Y-35052001D01*
X139647612Y-34620200D01*
X139647612Y-31419800D01*
X139623846Y-31293490D01*
X145621756Y-31293490D01*
X145621756Y-32734250D01*
X145780506Y-32893000D01*
X146733006Y-32893000D01*
X146733006Y-30943550D01*
X146574256Y-30784800D01*
X146130447Y-30784800D01*
X145897058Y-30881473D01*
X145718429Y-31060101D01*
X145621756Y-31293490D01*
X139623846Y-31293490D01*
X139554451Y-30924690D01*
X141170025Y-30924690D01*
X141687722Y-30827279D01*
X142163195Y-30521320D01*
X142237194Y-30413019D01*
X142288977Y-30493492D01*
X142755816Y-30812470D01*
X143309975Y-30924690D01*
X145009997Y-30924690D01*
X145527694Y-30827279D01*
X146003167Y-30521320D01*
X146322145Y-30054481D01*
X146434365Y-29500322D01*
X146434365Y-24459000D01*
X153285635Y-24459000D01*
X153285635Y-29500322D01*
X153285635Y-29500322D01*
G37*
X153285635Y-29500322D02*
X153378796Y-29995432D01*
X152653980Y-29995432D01*
X152654308Y-29619886D01*
X152384194Y-28966160D01*
X151884471Y-28465564D01*
X151231218Y-28194309D01*
X150523886Y-28193692D01*
X150369459Y-28257500D01*
X149672807Y-28257500D01*
X149672802Y-28257499D01*
X149125548Y-28366356D01*
X149016691Y-28388009D01*
X148460467Y-28759665D01*
X148460465Y-28759668D01*
X147647667Y-29572465D01*
X147276011Y-30128689D01*
X147276011Y-30128690D01*
X147205321Y-30484070D01*
X146944604Y-30865641D01*
X146832384Y-31419800D01*
X146832384Y-33167000D01*
X146733006Y-33167000D01*
X146733006Y-33147000D01*
X145780506Y-33147000D01*
X145621756Y-33305750D01*
X145621756Y-34746510D01*
X145718429Y-34979899D01*
X145790531Y-35052001D01*
X139560170Y-35052001D01*
X139647612Y-34620200D01*
X139647612Y-31419800D01*
X139623846Y-31293490D01*
X145621756Y-31293490D01*
X145621756Y-32734250D01*
X145780506Y-32893000D01*
X146733006Y-32893000D01*
X146733006Y-30943550D01*
X146574256Y-30784800D01*
X146130447Y-30784800D01*
X145897058Y-30881473D01*
X145718429Y-31060101D01*
X145621756Y-31293490D01*
X139623846Y-31293490D01*
X139554451Y-30924690D01*
X141170025Y-30924690D01*
X141687722Y-30827279D01*
X142163195Y-30521320D01*
X142237194Y-30413019D01*
X142288977Y-30493492D01*
X142755816Y-30812470D01*
X143309975Y-30924690D01*
X145009997Y-30924690D01*
X145527694Y-30827279D01*
X146003167Y-30521320D01*
X146322145Y-30054481D01*
X146434365Y-29500322D01*
X146434365Y-24459000D01*
X153285635Y-24459000D01*
X153285635Y-29500322D01*
G36*
X168525635Y-29500322D02*
X168618796Y-29995432D01*
X167765054Y-29995432D01*
X167497194Y-29347160D01*
X166997471Y-28846564D01*
X166344218Y-28575309D01*
X165636886Y-28574692D01*
X164983160Y-28844806D01*
X164482564Y-29344529D01*
X164212285Y-29995432D01*
X163496752Y-29995432D01*
X162979055Y-30092843D01*
X162503582Y-30398802D01*
X162184604Y-30865641D01*
X162072384Y-31419800D01*
X162072384Y-33167000D01*
X161973006Y-33167000D01*
X161973006Y-33147000D01*
X161020506Y-33147000D01*
X160861756Y-33305750D01*
X160861756Y-34746510D01*
X160909386Y-34861500D01*
X154838748Y-34861500D01*
X154887612Y-34620200D01*
X154887612Y-31419800D01*
X154863846Y-31293490D01*
X160861756Y-31293490D01*
X160861756Y-32734250D01*
X161020506Y-32893000D01*
X161973006Y-32893000D01*
X161973006Y-30943550D01*
X161814256Y-30784800D01*
X161370447Y-30784800D01*
X161137058Y-30881473D01*
X160958429Y-31060101D01*
X160861756Y-31293490D01*
X154863846Y-31293490D01*
X154794451Y-30924690D01*
X156410025Y-30924690D01*
X156927722Y-30827279D01*
X157403195Y-30521320D01*
X157477194Y-30413019D01*
X157528977Y-30493492D01*
X157995816Y-30812470D01*
X158549975Y-30924690D01*
X160249997Y-30924690D01*
X160767694Y-30827279D01*
X161243167Y-30521320D01*
X161562145Y-30054481D01*
X161674365Y-29500322D01*
X161674365Y-24459000D01*
X168525635Y-24459000D01*
X168525635Y-29500322D01*
X168525635Y-29500322D01*
G37*
X168525635Y-29500322D02*
X168618796Y-29995432D01*
X167765054Y-29995432D01*
X167497194Y-29347160D01*
X166997471Y-28846564D01*
X166344218Y-28575309D01*
X165636886Y-28574692D01*
X164983160Y-28844806D01*
X164482564Y-29344529D01*
X164212285Y-29995432D01*
X163496752Y-29995432D01*
X162979055Y-30092843D01*
X162503582Y-30398802D01*
X162184604Y-30865641D01*
X162072384Y-31419800D01*
X162072384Y-33167000D01*
X161973006Y-33167000D01*
X161973006Y-33147000D01*
X161020506Y-33147000D01*
X160861756Y-33305750D01*
X160861756Y-34746510D01*
X160909386Y-34861500D01*
X154838748Y-34861500D01*
X154887612Y-34620200D01*
X154887612Y-31419800D01*
X154863846Y-31293490D01*
X160861756Y-31293490D01*
X160861756Y-32734250D01*
X161020506Y-32893000D01*
X161973006Y-32893000D01*
X161973006Y-30943550D01*
X161814256Y-30784800D01*
X161370447Y-30784800D01*
X161137058Y-30881473D01*
X160958429Y-31060101D01*
X160861756Y-31293490D01*
X154863846Y-31293490D01*
X154794451Y-30924690D01*
X156410025Y-30924690D01*
X156927722Y-30827279D01*
X157403195Y-30521320D01*
X157477194Y-30413019D01*
X157528977Y-30493492D01*
X157995816Y-30812470D01*
X158549975Y-30924690D01*
X160249997Y-30924690D01*
X160767694Y-30827279D01*
X161243167Y-30521320D01*
X161562145Y-30054481D01*
X161674365Y-29500322D01*
X161674365Y-24459000D01*
X168525635Y-24459000D01*
X168525635Y-29500322D01*
G36*
X138045635Y-29500322D02*
X138138796Y-29995432D01*
X137307100Y-29995432D01*
X137144190Y-29601160D01*
X136644467Y-29100564D01*
X135991214Y-28829309D01*
X135283882Y-28828692D01*
X134630156Y-29098806D01*
X134129560Y-29598529D01*
X133964751Y-29995432D01*
X133016752Y-29995432D01*
X132499055Y-30092843D01*
X132023582Y-30398802D01*
X131704604Y-30865641D01*
X131592384Y-31419800D01*
X131592384Y-33167000D01*
X131493006Y-33167000D01*
X131493006Y-33147000D01*
X130540506Y-33147000D01*
X130381756Y-33305750D01*
X130381756Y-34746510D01*
X130403085Y-34798002D01*
X125184136Y-34798002D01*
X124952194Y-34236660D01*
X124452471Y-33736064D01*
X124407612Y-33717437D01*
X124407612Y-31419800D01*
X124383846Y-31293490D01*
X130381756Y-31293490D01*
X130381756Y-32734250D01*
X130540506Y-32893000D01*
X131493006Y-32893000D01*
X131493006Y-30943550D01*
X131334256Y-30784800D01*
X130890447Y-30784800D01*
X130657058Y-30881473D01*
X130478429Y-31060101D01*
X130381756Y-31293490D01*
X124383846Y-31293490D01*
X124314451Y-30924690D01*
X125930025Y-30924690D01*
X126447722Y-30827279D01*
X126923195Y-30521320D01*
X126997194Y-30413019D01*
X127048977Y-30493492D01*
X127515816Y-30812470D01*
X128069975Y-30924690D01*
X129769997Y-30924690D01*
X130287694Y-30827279D01*
X130763167Y-30521320D01*
X131082145Y-30054481D01*
X131194365Y-29500322D01*
X131194365Y-24459000D01*
X138045635Y-24459000D01*
X138045635Y-29500322D01*
X138045635Y-29500322D01*
G37*
X138045635Y-29500322D02*
X138138796Y-29995432D01*
X137307100Y-29995432D01*
X137144190Y-29601160D01*
X136644467Y-29100564D01*
X135991214Y-28829309D01*
X135283882Y-28828692D01*
X134630156Y-29098806D01*
X134129560Y-29598529D01*
X133964751Y-29995432D01*
X133016752Y-29995432D01*
X132499055Y-30092843D01*
X132023582Y-30398802D01*
X131704604Y-30865641D01*
X131592384Y-31419800D01*
X131592384Y-33167000D01*
X131493006Y-33167000D01*
X131493006Y-33147000D01*
X130540506Y-33147000D01*
X130381756Y-33305750D01*
X130381756Y-34746510D01*
X130403085Y-34798002D01*
X125184136Y-34798002D01*
X124952194Y-34236660D01*
X124452471Y-33736064D01*
X124407612Y-33717437D01*
X124407612Y-31419800D01*
X124383846Y-31293490D01*
X130381756Y-31293490D01*
X130381756Y-32734250D01*
X130540506Y-32893000D01*
X131493006Y-32893000D01*
X131493006Y-30943550D01*
X131334256Y-30784800D01*
X130890447Y-30784800D01*
X130657058Y-30881473D01*
X130478429Y-31060101D01*
X130381756Y-31293490D01*
X124383846Y-31293490D01*
X124314451Y-30924690D01*
X125930025Y-30924690D01*
X126447722Y-30827279D01*
X126923195Y-30521320D01*
X126997194Y-30413019D01*
X127048977Y-30493492D01*
X127515816Y-30812470D01*
X128069975Y-30924690D01*
X129769997Y-30924690D01*
X130287694Y-30827279D01*
X130763167Y-30521320D01*
X131082145Y-30054481D01*
X131194365Y-29500322D01*
X131194365Y-24459000D01*
X138045635Y-24459000D01*
X138045635Y-29500322D01*
M02*
