M48
;DRILL file {KiCad 4.0.6} date Saturday, February 03, 2018 'PMt' 12:02:20 PM
;FORMAT={-:-/ absolute / inch / decimal}
FMAT,2
INCH,TZ
T1C0.016
T2C0.030
T3C0.031
T4C0.035
T5C0.039
T6C0.040
T7C0.043
T8C0.120
T9C0.126
%
G90
G05
M72
T1
X4.715Y-1.47
X4.7394Y-1.2006
X4.74Y-1.395
X4.82Y-1.388
X4.9Y-1.51
X5.26Y-1.47
X5.33Y-1.425
X5.34Y-1.205
X5.4177Y-1.3944
X5.475Y-1.31
X5.485Y-1.505
X5.8596Y-1.475
X5.86Y-1.41
X5.94Y-1.18
X5.94Y-1.435
X6.025Y-1.3975
X6.08Y-1.31
X6.08Y-1.51
X6.465Y-1.47
X6.535Y-1.195
X6.545Y-1.43
X6.6181Y-1.3925
X6.685Y-1.315
X6.685Y-1.51
X7.08Y-1.465
X7.14Y-1.425
T2
X7.15Y-1.625
X7.25Y-1.625
X7.35Y-1.625
X7.45Y-1.625
X7.55Y-1.625
T3
X4.6337Y-1.9437
X4.6337Y-2.1437
X4.7337Y-1.9437
X4.7337Y-2.1437
X4.8337Y-1.9437
X4.8337Y-2.1437
X5.0337Y-1.9437
X5.0337Y-2.1437
X5.25Y-2.
X5.25Y-2.1
X5.25Y-2.2
X5.775Y-1.9
X5.775Y-2.2
X6.05Y-1.9
X6.05Y-2.2
X6.325Y-1.9
X6.325Y-2.2
X6.575Y-1.9
X6.575Y-2.2
T4
X6.775Y-2.15
X6.875Y-2.15
T5
X4.575Y-1.625
X4.575Y-1.725
X4.675Y-1.625
X4.675Y-1.725
X4.825Y-1.625
X4.825Y-1.725
X4.925Y-1.625
X4.925Y-1.725
X5.175Y-1.625
X5.175Y-1.725
X5.275Y-1.625
X5.275Y-1.725
X5.425Y-1.625
X5.425Y-1.725
X5.525Y-1.625
X5.525Y-1.725
X5.775Y-1.625
X5.775Y-1.725
X5.875Y-1.625
X5.875Y-1.725
X6.025Y-1.625
X6.025Y-1.725
X6.125Y-1.625
X6.125Y-1.725
X6.375Y-1.625
X6.375Y-1.725
X6.475Y-1.625
X6.475Y-1.725
X6.625Y-1.625
X6.625Y-1.725
X6.725Y-1.625
X6.725Y-1.725
X6.9Y-1.625
X6.9Y-1.725
X7.Y-1.625
X7.Y-1.725
T6
X4.3811Y-2.639
X4.5189Y-2.639
X4.7561Y-2.639
X4.8939Y-2.639
X5.1311Y-2.639
X5.2689Y-2.639
X5.5136Y-2.5287
X5.5136Y-2.6469
X5.6514Y-2.5287
X5.6514Y-2.6469
X5.8811Y-2.639
X6.0189Y-2.639
X6.2561Y-2.639
X6.3939Y-2.639
X6.6311Y-2.639
X6.7689Y-2.639
X7.0061Y-2.639
X7.1439Y-2.639
T7
X5.5Y-1.9
X5.5Y-2.2
T8
X4.4496Y-2.9472
X4.8246Y-2.9472
X5.1996Y-2.9472
X5.5821Y-2.9591
X5.9496Y-2.9472
X6.3246Y-2.9472
X6.6996Y-2.9472
X7.0746Y-2.9472
T9
X3.975Y-1.075
X3.975Y-2.95
X7.6Y-1.075
X7.6Y-2.95
T0
M30
