G04 #@! TF.FileFunction,Legend,Bot*
%FSLAX46Y46*%
G04 Gerber Fmt 4.6, Leading zero omitted, Abs format (unit mm)*
G04 Created by KiCad (PCBNEW 4.0.6) date Saturday, February 10, 2018 'AMt' 10:41:33 AM*
%MOMM*%
%LPD*%
G01*
G04 APERTURE LIST*
%ADD10C,0.100000*%
%ADD11C,0.300000*%
%ADD12C,0.150000*%
G04 APERTURE END LIST*
D10*
D11*
X188506857Y-58128143D02*
X188292571Y-58199571D01*
X187935428Y-58199571D01*
X187792571Y-58128143D01*
X187721142Y-58056714D01*
X187649714Y-57913857D01*
X187649714Y-57771000D01*
X187721142Y-57628143D01*
X187792571Y-57556714D01*
X187935428Y-57485286D01*
X188221142Y-57413857D01*
X188364000Y-57342429D01*
X188435428Y-57271000D01*
X188506857Y-57128143D01*
X188506857Y-56985286D01*
X188435428Y-56842429D01*
X188364000Y-56771000D01*
X188221142Y-56699571D01*
X187864000Y-56699571D01*
X187649714Y-56771000D01*
X186364000Y-57199571D02*
X186364000Y-58199571D01*
X187006857Y-57199571D02*
X187006857Y-57985286D01*
X186935429Y-58128143D01*
X186792571Y-58199571D01*
X186578286Y-58199571D01*
X186435429Y-58128143D01*
X186364000Y-58056714D01*
X185649714Y-57199571D02*
X185649714Y-58699571D01*
X185649714Y-57271000D02*
X185506857Y-57199571D01*
X185221143Y-57199571D01*
X185078286Y-57271000D01*
X185006857Y-57342429D01*
X184935428Y-57485286D01*
X184935428Y-57913857D01*
X185006857Y-58056714D01*
X185078286Y-58128143D01*
X185221143Y-58199571D01*
X185506857Y-58199571D01*
X185649714Y-58128143D01*
X183721143Y-58128143D02*
X183864000Y-58199571D01*
X184149714Y-58199571D01*
X184292571Y-58128143D01*
X184364000Y-57985286D01*
X184364000Y-57413857D01*
X184292571Y-57271000D01*
X184149714Y-57199571D01*
X183864000Y-57199571D01*
X183721143Y-57271000D01*
X183649714Y-57413857D01*
X183649714Y-57556714D01*
X184364000Y-57699571D01*
X183006857Y-58199571D02*
X183006857Y-57199571D01*
X183006857Y-57485286D02*
X182935429Y-57342429D01*
X182864000Y-57271000D01*
X182721143Y-57199571D01*
X182578286Y-57199571D01*
X182078286Y-58199571D02*
X182078286Y-57199571D01*
X182078286Y-57342429D02*
X182006858Y-57271000D01*
X181864000Y-57199571D01*
X181649715Y-57199571D01*
X181506858Y-57271000D01*
X181435429Y-57413857D01*
X181435429Y-58199571D01*
X181435429Y-57413857D02*
X181364000Y-57271000D01*
X181221143Y-57199571D01*
X181006858Y-57199571D01*
X180864000Y-57271000D01*
X180792572Y-57413857D01*
X180792572Y-58199571D01*
X180078286Y-58199571D02*
X180078286Y-57199571D01*
X180078286Y-56699571D02*
X180149715Y-56771000D01*
X180078286Y-56842429D01*
X180006858Y-56771000D01*
X180078286Y-56699571D01*
X180078286Y-56842429D01*
X179149714Y-58199571D02*
X179292572Y-58128143D01*
X179364000Y-57985286D01*
X179364000Y-56699571D01*
X177935429Y-58199571D02*
X177935429Y-57413857D01*
X178006858Y-57271000D01*
X178149715Y-57199571D01*
X178435429Y-57199571D01*
X178578286Y-57271000D01*
X177935429Y-58128143D02*
X178078286Y-58199571D01*
X178435429Y-58199571D01*
X178578286Y-58128143D01*
X178649715Y-57985286D01*
X178649715Y-57842429D01*
X178578286Y-57699571D01*
X178435429Y-57628143D01*
X178078286Y-57628143D01*
X177935429Y-57556714D01*
X176578286Y-57199571D02*
X176578286Y-58413857D01*
X176649715Y-58556714D01*
X176721143Y-58628143D01*
X176864000Y-58699571D01*
X177078286Y-58699571D01*
X177221143Y-58628143D01*
X176578286Y-58128143D02*
X176721143Y-58199571D01*
X177006857Y-58199571D01*
X177149715Y-58128143D01*
X177221143Y-58056714D01*
X177292572Y-57913857D01*
X177292572Y-57485286D01*
X177221143Y-57342429D01*
X177149715Y-57271000D01*
X177006857Y-57199571D01*
X176721143Y-57199571D01*
X176578286Y-57271000D01*
X175292572Y-58128143D02*
X175435429Y-58199571D01*
X175721143Y-58199571D01*
X175864000Y-58128143D01*
X175935429Y-57985286D01*
X175935429Y-57413857D01*
X175864000Y-57271000D01*
X175721143Y-57199571D01*
X175435429Y-57199571D01*
X175292572Y-57271000D01*
X175221143Y-57413857D01*
X175221143Y-57556714D01*
X175935429Y-57699571D01*
X184114000Y-61321000D02*
X184185428Y-61249571D01*
X184328285Y-61035286D01*
X184399714Y-60892429D01*
X184471143Y-60678143D01*
X184542571Y-60321000D01*
X184542571Y-60035286D01*
X184471143Y-59678143D01*
X184399714Y-59463857D01*
X184328285Y-59321000D01*
X184185428Y-59106714D01*
X184114000Y-59035286D01*
X183614000Y-60678143D02*
X183399714Y-60749571D01*
X183042571Y-60749571D01*
X182899714Y-60678143D01*
X182828285Y-60606714D01*
X182756857Y-60463857D01*
X182756857Y-60321000D01*
X182828285Y-60178143D01*
X182899714Y-60106714D01*
X183042571Y-60035286D01*
X183328285Y-59963857D01*
X183471143Y-59892429D01*
X183542571Y-59821000D01*
X183614000Y-59678143D01*
X183614000Y-59535286D01*
X183542571Y-59392429D01*
X183471143Y-59321000D01*
X183328285Y-59249571D01*
X182971143Y-59249571D01*
X182756857Y-59321000D01*
X182185429Y-60321000D02*
X181471143Y-60321000D01*
X182328286Y-60749571D02*
X181828286Y-59249571D01*
X181328286Y-60749571D01*
X180828286Y-59963857D02*
X180328286Y-59963857D01*
X180114000Y-60749571D02*
X180828286Y-60749571D01*
X180828286Y-59249571D01*
X180114000Y-59249571D01*
X179614000Y-61321000D02*
X179542572Y-61249571D01*
X179399715Y-61035286D01*
X179328286Y-60892429D01*
X179256857Y-60678143D01*
X179185429Y-60321000D01*
X179185429Y-60035286D01*
X179256857Y-59678143D01*
X179328286Y-59463857D01*
X179399715Y-59321000D01*
X179542572Y-59106714D01*
X179614000Y-59035286D01*
X192685428Y-63228143D02*
X192471142Y-63299571D01*
X192113999Y-63299571D01*
X191971142Y-63228143D01*
X191899713Y-63156714D01*
X191828285Y-63013857D01*
X191828285Y-62871000D01*
X191899713Y-62728143D01*
X191971142Y-62656714D01*
X192113999Y-62585286D01*
X192399713Y-62513857D01*
X192542571Y-62442429D01*
X192613999Y-62371000D01*
X192685428Y-62228143D01*
X192685428Y-62085286D01*
X192613999Y-61942429D01*
X192542571Y-61871000D01*
X192399713Y-61799571D01*
X192042571Y-61799571D01*
X191828285Y-61871000D01*
X191185428Y-63299571D02*
X191185428Y-61799571D01*
X190542571Y-63299571D02*
X190542571Y-62513857D01*
X190614000Y-62371000D01*
X190756857Y-62299571D01*
X190971142Y-62299571D01*
X191114000Y-62371000D01*
X191185428Y-62442429D01*
X189256857Y-63228143D02*
X189399714Y-63299571D01*
X189685428Y-63299571D01*
X189828285Y-63228143D01*
X189899714Y-63085286D01*
X189899714Y-62513857D01*
X189828285Y-62371000D01*
X189685428Y-62299571D01*
X189399714Y-62299571D01*
X189256857Y-62371000D01*
X189185428Y-62513857D01*
X189185428Y-62656714D01*
X189899714Y-62799571D01*
X188328285Y-63299571D02*
X188471143Y-63228143D01*
X188542571Y-63085286D01*
X188542571Y-61799571D01*
X187542571Y-63299571D02*
X187685429Y-63228143D01*
X187756857Y-63085286D01*
X187756857Y-61799571D01*
X185828286Y-62513857D02*
X185328286Y-62513857D01*
X185114000Y-63299571D02*
X185828286Y-63299571D01*
X185828286Y-61799571D01*
X185114000Y-61799571D01*
X183828286Y-63228143D02*
X183971143Y-63299571D01*
X184256857Y-63299571D01*
X184399715Y-63228143D01*
X184471143Y-63156714D01*
X184542572Y-63013857D01*
X184542572Y-62585286D01*
X184471143Y-62442429D01*
X184399715Y-62371000D01*
X184256857Y-62299571D01*
X183971143Y-62299571D01*
X183828286Y-62371000D01*
X182971143Y-63299571D02*
X183114001Y-63228143D01*
X183185429Y-63156714D01*
X183256858Y-63013857D01*
X183256858Y-62585286D01*
X183185429Y-62442429D01*
X183114001Y-62371000D01*
X182971143Y-62299571D01*
X182756858Y-62299571D01*
X182614001Y-62371000D01*
X182542572Y-62442429D01*
X182471143Y-62585286D01*
X182471143Y-63013857D01*
X182542572Y-63156714D01*
X182614001Y-63228143D01*
X182756858Y-63299571D01*
X182971143Y-63299571D01*
X180685429Y-63299571D02*
X180685429Y-61799571D01*
X180185429Y-62871000D01*
X179685429Y-61799571D01*
X179685429Y-63299571D01*
X178328286Y-63299571D02*
X178328286Y-62513857D01*
X178399715Y-62371000D01*
X178542572Y-62299571D01*
X178828286Y-62299571D01*
X178971143Y-62371000D01*
X178328286Y-63228143D02*
X178471143Y-63299571D01*
X178828286Y-63299571D01*
X178971143Y-63228143D01*
X179042572Y-63085286D01*
X179042572Y-62942429D01*
X178971143Y-62799571D01*
X178828286Y-62728143D01*
X178471143Y-62728143D01*
X178328286Y-62656714D01*
X177614000Y-63299571D02*
X177614000Y-62299571D01*
X177614000Y-62585286D02*
X177542572Y-62442429D01*
X177471143Y-62371000D01*
X177328286Y-62299571D01*
X177185429Y-62299571D01*
X176042572Y-63299571D02*
X176042572Y-62513857D01*
X176114001Y-62371000D01*
X176256858Y-62299571D01*
X176542572Y-62299571D01*
X176685429Y-62371000D01*
X176042572Y-63228143D02*
X176185429Y-63299571D01*
X176542572Y-63299571D01*
X176685429Y-63228143D01*
X176756858Y-63085286D01*
X176756858Y-62942429D01*
X176685429Y-62799571D01*
X176542572Y-62728143D01*
X176185429Y-62728143D01*
X176042572Y-62656714D01*
X175542572Y-62299571D02*
X174971143Y-62299571D01*
X175328286Y-61799571D02*
X175328286Y-63085286D01*
X175256858Y-63228143D01*
X175114000Y-63299571D01*
X174971143Y-63299571D01*
X174471143Y-63299571D02*
X174471143Y-61799571D01*
X173828286Y-63299571D02*
X173828286Y-62513857D01*
X173899715Y-62371000D01*
X174042572Y-62299571D01*
X174256857Y-62299571D01*
X174399715Y-62371000D01*
X174471143Y-62442429D01*
X172899714Y-63299571D02*
X173042572Y-63228143D01*
X173114000Y-63156714D01*
X173185429Y-63013857D01*
X173185429Y-62585286D01*
X173114000Y-62442429D01*
X173042572Y-62371000D01*
X172899714Y-62299571D01*
X172685429Y-62299571D01*
X172542572Y-62371000D01*
X172471143Y-62442429D01*
X172399714Y-62585286D01*
X172399714Y-63013857D01*
X172471143Y-63156714D01*
X172542572Y-63228143D01*
X172685429Y-63299571D01*
X172899714Y-63299571D01*
X171756857Y-62299571D02*
X171756857Y-63299571D01*
X171756857Y-62442429D02*
X171685429Y-62371000D01*
X171542571Y-62299571D01*
X171328286Y-62299571D01*
X171185429Y-62371000D01*
X171114000Y-62513857D01*
X171114000Y-63299571D01*
X186375714Y-24944571D02*
X186018571Y-26444571D01*
X185732857Y-25373143D01*
X185447143Y-26444571D01*
X185090000Y-24944571D01*
X184518571Y-26444571D02*
X184518571Y-25444571D01*
X184518571Y-25730286D02*
X184447143Y-25587429D01*
X184375714Y-25516000D01*
X184232857Y-25444571D01*
X184090000Y-25444571D01*
X183590000Y-26444571D02*
X183590000Y-25444571D01*
X183590000Y-24944571D02*
X183661429Y-25016000D01*
X183590000Y-25087429D01*
X183518572Y-25016000D01*
X183590000Y-24944571D01*
X183590000Y-25087429D01*
X183090000Y-25444571D02*
X182518571Y-25444571D01*
X182875714Y-24944571D02*
X182875714Y-26230286D01*
X182804286Y-26373143D01*
X182661428Y-26444571D01*
X182518571Y-26444571D01*
X182232857Y-25444571D02*
X181661428Y-25444571D01*
X182018571Y-24944571D02*
X182018571Y-26230286D01*
X181947143Y-26373143D01*
X181804285Y-26444571D01*
X181661428Y-26444571D01*
X180590000Y-26373143D02*
X180732857Y-26444571D01*
X181018571Y-26444571D01*
X181161428Y-26373143D01*
X181232857Y-26230286D01*
X181232857Y-25658857D01*
X181161428Y-25516000D01*
X181018571Y-25444571D01*
X180732857Y-25444571D01*
X180590000Y-25516000D01*
X180518571Y-25658857D01*
X180518571Y-25801714D01*
X181232857Y-25944571D01*
X179875714Y-25444571D02*
X179875714Y-26444571D01*
X179875714Y-25587429D02*
X179804286Y-25516000D01*
X179661428Y-25444571D01*
X179447143Y-25444571D01*
X179304286Y-25516000D01*
X179232857Y-25658857D01*
X179232857Y-26444571D01*
X177375714Y-26444571D02*
X177375714Y-24944571D01*
X177375714Y-25516000D02*
X177232857Y-25444571D01*
X176947143Y-25444571D01*
X176804286Y-25516000D01*
X176732857Y-25587429D01*
X176661428Y-25730286D01*
X176661428Y-26158857D01*
X176732857Y-26301714D01*
X176804286Y-26373143D01*
X176947143Y-26444571D01*
X177232857Y-26444571D01*
X177375714Y-26373143D01*
X176161428Y-25444571D02*
X175804285Y-26444571D01*
X175447143Y-25444571D02*
X175804285Y-26444571D01*
X175947143Y-26801714D01*
X176018571Y-26873143D01*
X176161428Y-26944571D01*
X186375715Y-27494571D02*
X185518572Y-27494571D01*
X185947143Y-28994571D02*
X185947143Y-27494571D01*
X185018572Y-28994571D02*
X185018572Y-27994571D01*
X185018572Y-27494571D02*
X185090001Y-27566000D01*
X185018572Y-27637429D01*
X184947144Y-27566000D01*
X185018572Y-27494571D01*
X185018572Y-27637429D01*
X184304286Y-27994571D02*
X184304286Y-28994571D01*
X184304286Y-28137429D02*
X184232858Y-28066000D01*
X184090000Y-27994571D01*
X183875715Y-27994571D01*
X183732858Y-28066000D01*
X183661429Y-28208857D01*
X183661429Y-28994571D01*
X182375715Y-28923143D02*
X182518572Y-28994571D01*
X182804286Y-28994571D01*
X182947143Y-28923143D01*
X183018572Y-28780286D01*
X183018572Y-28208857D01*
X182947143Y-28066000D01*
X182804286Y-27994571D01*
X182518572Y-27994571D01*
X182375715Y-28066000D01*
X182304286Y-28208857D01*
X182304286Y-28351714D01*
X183018572Y-28494571D01*
X181661429Y-28994571D02*
X181661429Y-27494571D01*
X181518572Y-28423143D02*
X181090001Y-28994571D01*
X181090001Y-27994571D02*
X181661429Y-28566000D01*
X179804286Y-28994571D02*
X179804286Y-28208857D01*
X179875715Y-28066000D01*
X180018572Y-27994571D01*
X180304286Y-27994571D01*
X180447143Y-28066000D01*
X179804286Y-28923143D02*
X179947143Y-28994571D01*
X180304286Y-28994571D01*
X180447143Y-28923143D01*
X180518572Y-28780286D01*
X180518572Y-28637429D01*
X180447143Y-28494571D01*
X180304286Y-28423143D01*
X179947143Y-28423143D01*
X179804286Y-28351714D01*
X178090000Y-27494571D02*
X177732857Y-28994571D01*
X177447143Y-27923143D01*
X177161429Y-28994571D01*
X176804286Y-27494571D01*
X176232857Y-28994571D02*
X176232857Y-27994571D01*
X176232857Y-27494571D02*
X176304286Y-27566000D01*
X176232857Y-27637429D01*
X176161429Y-27566000D01*
X176232857Y-27494571D01*
X176232857Y-27637429D01*
X175732857Y-27994571D02*
X175161428Y-27994571D01*
X175518571Y-27494571D02*
X175518571Y-28780286D01*
X175447143Y-28923143D01*
X175304285Y-28994571D01*
X175161428Y-28994571D01*
X174875714Y-27994571D02*
X174304285Y-27994571D01*
X174661428Y-27494571D02*
X174661428Y-28780286D01*
X174590000Y-28923143D01*
X174447142Y-28994571D01*
X174304285Y-28994571D01*
X186982856Y-31544571D02*
X186982856Y-30044571D01*
X186625713Y-30044571D01*
X186411428Y-30116000D01*
X186268570Y-30258857D01*
X186197142Y-30401714D01*
X186125713Y-30687429D01*
X186125713Y-30901714D01*
X186197142Y-31187429D01*
X186268570Y-31330286D01*
X186411428Y-31473143D01*
X186625713Y-31544571D01*
X186982856Y-31544571D01*
X185482856Y-31544571D02*
X185482856Y-30544571D01*
X185482856Y-30044571D02*
X185554285Y-30116000D01*
X185482856Y-30187429D01*
X185411428Y-30116000D01*
X185482856Y-30044571D01*
X185482856Y-30187429D01*
X184768570Y-31544571D02*
X184768570Y-30544571D01*
X184768570Y-30830286D02*
X184697142Y-30687429D01*
X184625713Y-30616000D01*
X184482856Y-30544571D01*
X184339999Y-30544571D01*
X183268571Y-31473143D02*
X183411428Y-31544571D01*
X183697142Y-31544571D01*
X183839999Y-31473143D01*
X183911428Y-31330286D01*
X183911428Y-30758857D01*
X183839999Y-30616000D01*
X183697142Y-30544571D01*
X183411428Y-30544571D01*
X183268571Y-30616000D01*
X183197142Y-30758857D01*
X183197142Y-30901714D01*
X183911428Y-31044571D01*
X181911428Y-31473143D02*
X182054285Y-31544571D01*
X182339999Y-31544571D01*
X182482857Y-31473143D01*
X182554285Y-31401714D01*
X182625714Y-31258857D01*
X182625714Y-30830286D01*
X182554285Y-30687429D01*
X182482857Y-30616000D01*
X182339999Y-30544571D01*
X182054285Y-30544571D01*
X181911428Y-30616000D01*
X181482857Y-30544571D02*
X180911428Y-30544571D01*
X181268571Y-30044571D02*
X181268571Y-31330286D01*
X181197143Y-31473143D01*
X181054285Y-31544571D01*
X180911428Y-31544571D01*
X179840000Y-31473143D02*
X179982857Y-31544571D01*
X180268571Y-31544571D01*
X180411428Y-31473143D01*
X180482857Y-31330286D01*
X180482857Y-30758857D01*
X180411428Y-30616000D01*
X180268571Y-30544571D01*
X179982857Y-30544571D01*
X179840000Y-30616000D01*
X179768571Y-30758857D01*
X179768571Y-30901714D01*
X180482857Y-31044571D01*
X178482857Y-31544571D02*
X178482857Y-30044571D01*
X178482857Y-31473143D02*
X178625714Y-31544571D01*
X178911428Y-31544571D01*
X179054286Y-31473143D01*
X179125714Y-31401714D01*
X179197143Y-31258857D01*
X179197143Y-30830286D01*
X179125714Y-30687429D01*
X179054286Y-30616000D01*
X178911428Y-30544571D01*
X178625714Y-30544571D01*
X178482857Y-30616000D01*
X176625714Y-31544571D02*
X176625714Y-30044571D01*
X176625714Y-30616000D02*
X176482857Y-30544571D01*
X176197143Y-30544571D01*
X176054286Y-30616000D01*
X175982857Y-30687429D01*
X175911428Y-30830286D01*
X175911428Y-31258857D01*
X175982857Y-31401714D01*
X176054286Y-31473143D01*
X176197143Y-31544571D01*
X176482857Y-31544571D01*
X176625714Y-31473143D01*
X175411428Y-30544571D02*
X175054285Y-31544571D01*
X174697143Y-30544571D02*
X175054285Y-31544571D01*
X175197143Y-31901714D01*
X175268571Y-31973143D01*
X175411428Y-32044571D01*
X187018571Y-34023143D02*
X186804285Y-34094571D01*
X186447142Y-34094571D01*
X186304285Y-34023143D01*
X186232856Y-33951714D01*
X186161428Y-33808857D01*
X186161428Y-33666000D01*
X186232856Y-33523143D01*
X186304285Y-33451714D01*
X186447142Y-33380286D01*
X186732856Y-33308857D01*
X186875714Y-33237429D01*
X186947142Y-33166000D01*
X187018571Y-33023143D01*
X187018571Y-32880286D01*
X186947142Y-32737429D01*
X186875714Y-32666000D01*
X186732856Y-32594571D01*
X186375714Y-32594571D01*
X186161428Y-32666000D01*
X184875714Y-34094571D02*
X184875714Y-33308857D01*
X184947143Y-33166000D01*
X185090000Y-33094571D01*
X185375714Y-33094571D01*
X185518571Y-33166000D01*
X184875714Y-34023143D02*
X185018571Y-34094571D01*
X185375714Y-34094571D01*
X185518571Y-34023143D01*
X185590000Y-33880286D01*
X185590000Y-33737429D01*
X185518571Y-33594571D01*
X185375714Y-33523143D01*
X185018571Y-33523143D01*
X184875714Y-33451714D01*
X184161428Y-34094571D02*
X184161428Y-33094571D01*
X184161428Y-33237429D02*
X184090000Y-33166000D01*
X183947142Y-33094571D01*
X183732857Y-33094571D01*
X183590000Y-33166000D01*
X183518571Y-33308857D01*
X183518571Y-34094571D01*
X183518571Y-33308857D02*
X183447142Y-33166000D01*
X183304285Y-33094571D01*
X183090000Y-33094571D01*
X182947142Y-33166000D01*
X182875714Y-33308857D01*
X182875714Y-34094571D01*
X181018571Y-33308857D02*
X180518571Y-33308857D01*
X180304285Y-34094571D02*
X181018571Y-34094571D01*
X181018571Y-32594571D01*
X180304285Y-32594571D01*
X179447142Y-34094571D02*
X179590000Y-34023143D01*
X179661428Y-33880286D01*
X179661428Y-32594571D01*
X178661428Y-34094571D02*
X178804286Y-34023143D01*
X178875714Y-33880286D01*
X178875714Y-32594571D01*
X178090000Y-34094571D02*
X178090000Y-33094571D01*
X178090000Y-32594571D02*
X178161429Y-32666000D01*
X178090000Y-32737429D01*
X178018572Y-32666000D01*
X178090000Y-32594571D01*
X178090000Y-32737429D01*
X176732857Y-34023143D02*
X176875714Y-34094571D01*
X177161428Y-34094571D01*
X177304286Y-34023143D01*
X177375714Y-33951714D01*
X177447143Y-33808857D01*
X177447143Y-33380286D01*
X177375714Y-33237429D01*
X177304286Y-33166000D01*
X177161428Y-33094571D01*
X176875714Y-33094571D01*
X176732857Y-33166000D01*
X175875714Y-34094571D02*
X176018572Y-34023143D01*
X176090000Y-33951714D01*
X176161429Y-33808857D01*
X176161429Y-33380286D01*
X176090000Y-33237429D01*
X176018572Y-33166000D01*
X175875714Y-33094571D01*
X175661429Y-33094571D01*
X175518572Y-33166000D01*
X175447143Y-33237429D01*
X175375714Y-33380286D01*
X175375714Y-33808857D01*
X175447143Y-33951714D01*
X175518572Y-34023143D01*
X175661429Y-34094571D01*
X175875714Y-34094571D01*
X174947143Y-33094571D02*
X174375714Y-33094571D01*
X174732857Y-32594571D02*
X174732857Y-33880286D01*
X174661429Y-34023143D01*
X174518571Y-34094571D01*
X174375714Y-34094571D01*
X174090000Y-33094571D02*
X173518571Y-33094571D01*
X173875714Y-32594571D02*
X173875714Y-33880286D01*
X173804286Y-34023143D01*
X173661428Y-34094571D01*
X173518571Y-34094571D01*
X113846999Y-41821571D02*
X113846999Y-40321571D01*
X113275571Y-40321571D01*
X113132713Y-40393000D01*
X113061285Y-40464429D01*
X112989856Y-40607286D01*
X112989856Y-40821571D01*
X113061285Y-40964429D01*
X113132713Y-41035857D01*
X113275571Y-41107286D01*
X113846999Y-41107286D01*
X112346999Y-41821571D02*
X112346999Y-40821571D01*
X112346999Y-41107286D02*
X112275571Y-40964429D01*
X112204142Y-40893000D01*
X112061285Y-40821571D01*
X111918428Y-40821571D01*
X111204142Y-41821571D02*
X111347000Y-41750143D01*
X111418428Y-41678714D01*
X111489857Y-41535857D01*
X111489857Y-41107286D01*
X111418428Y-40964429D01*
X111347000Y-40893000D01*
X111204142Y-40821571D01*
X110989857Y-40821571D01*
X110847000Y-40893000D01*
X110775571Y-40964429D01*
X110704142Y-41107286D01*
X110704142Y-41535857D01*
X110775571Y-41678714D01*
X110847000Y-41750143D01*
X110989857Y-41821571D01*
X111204142Y-41821571D01*
X110204142Y-40821571D02*
X109846999Y-41821571D01*
X109489857Y-40821571D01*
X108347000Y-41750143D02*
X108489857Y-41821571D01*
X108775571Y-41821571D01*
X108918428Y-41750143D01*
X108989857Y-41607286D01*
X108989857Y-41035857D01*
X108918428Y-40893000D01*
X108775571Y-40821571D01*
X108489857Y-40821571D01*
X108347000Y-40893000D01*
X108275571Y-41035857D01*
X108275571Y-41178714D01*
X108989857Y-41321571D01*
X107632714Y-41821571D02*
X107632714Y-40821571D01*
X107632714Y-41107286D02*
X107561286Y-40964429D01*
X107489857Y-40893000D01*
X107347000Y-40821571D01*
X107204143Y-40821571D01*
X106704143Y-41821571D02*
X106704143Y-40321571D01*
X106704143Y-40893000D02*
X106561286Y-40821571D01*
X106275572Y-40821571D01*
X106132715Y-40893000D01*
X106061286Y-40964429D01*
X105989857Y-41107286D01*
X105989857Y-41535857D01*
X106061286Y-41678714D01*
X106132715Y-41750143D01*
X106275572Y-41821571D01*
X106561286Y-41821571D01*
X106704143Y-41750143D01*
X105418429Y-41750143D02*
X105275572Y-41821571D01*
X104989857Y-41821571D01*
X104847000Y-41750143D01*
X104775572Y-41607286D01*
X104775572Y-41535857D01*
X104847000Y-41393000D01*
X104989857Y-41321571D01*
X105204143Y-41321571D01*
X105347000Y-41250143D01*
X105418429Y-41107286D01*
X105418429Y-41035857D01*
X105347000Y-40893000D01*
X105204143Y-40821571D01*
X104989857Y-40821571D01*
X104847000Y-40893000D01*
X111561285Y-43014429D02*
X111489856Y-42943000D01*
X111346999Y-42871571D01*
X110989856Y-42871571D01*
X110846999Y-42943000D01*
X110775570Y-43014429D01*
X110704142Y-43157286D01*
X110704142Y-43300143D01*
X110775570Y-43514429D01*
X111632713Y-44371571D01*
X110704142Y-44371571D01*
X109346999Y-42871571D02*
X110061285Y-42871571D01*
X110132714Y-43585857D01*
X110061285Y-43514429D01*
X109918428Y-43443000D01*
X109561285Y-43443000D01*
X109418428Y-43514429D01*
X109346999Y-43585857D01*
X109275571Y-43728714D01*
X109275571Y-44085857D01*
X109346999Y-44228714D01*
X109418428Y-44300143D01*
X109561285Y-44371571D01*
X109918428Y-44371571D01*
X110061285Y-44300143D01*
X110132714Y-44228714D01*
X108632714Y-44228714D02*
X108561286Y-44300143D01*
X108632714Y-44371571D01*
X108704143Y-44300143D01*
X108632714Y-44228714D01*
X108632714Y-44371571D01*
X108632714Y-43443000D02*
X108561286Y-43514429D01*
X108632714Y-43585857D01*
X108704143Y-43514429D01*
X108632714Y-43443000D01*
X108632714Y-43585857D01*
X107989857Y-43014429D02*
X107918428Y-42943000D01*
X107775571Y-42871571D01*
X107418428Y-42871571D01*
X107275571Y-42943000D01*
X107204142Y-43014429D01*
X107132714Y-43157286D01*
X107132714Y-43300143D01*
X107204142Y-43514429D01*
X108061285Y-44371571D01*
X107132714Y-44371571D01*
X191875856Y-48663714D02*
X191947285Y-48735143D01*
X192161571Y-48806571D01*
X192304428Y-48806571D01*
X192518713Y-48735143D01*
X192661571Y-48592286D01*
X192732999Y-48449429D01*
X192804428Y-48163714D01*
X192804428Y-47949429D01*
X192732999Y-47663714D01*
X192661571Y-47520857D01*
X192518713Y-47378000D01*
X192304428Y-47306571D01*
X192161571Y-47306571D01*
X191947285Y-47378000D01*
X191875856Y-47449429D01*
X190661571Y-48735143D02*
X190804428Y-48806571D01*
X191090142Y-48806571D01*
X191232999Y-48735143D01*
X191304428Y-48592286D01*
X191304428Y-48020857D01*
X191232999Y-47878000D01*
X191090142Y-47806571D01*
X190804428Y-47806571D01*
X190661571Y-47878000D01*
X190590142Y-48020857D01*
X190590142Y-48163714D01*
X191304428Y-48306571D01*
X189304428Y-48806571D02*
X189304428Y-47306571D01*
X189304428Y-48735143D02*
X189447285Y-48806571D01*
X189732999Y-48806571D01*
X189875857Y-48735143D01*
X189947285Y-48663714D01*
X190018714Y-48520857D01*
X190018714Y-48092286D01*
X189947285Y-47949429D01*
X189875857Y-47878000D01*
X189732999Y-47806571D01*
X189447285Y-47806571D01*
X189304428Y-47878000D01*
X187947285Y-48806571D02*
X187947285Y-48020857D01*
X188018714Y-47878000D01*
X188161571Y-47806571D01*
X188447285Y-47806571D01*
X188590142Y-47878000D01*
X187947285Y-48735143D02*
X188090142Y-48806571D01*
X188447285Y-48806571D01*
X188590142Y-48735143D01*
X188661571Y-48592286D01*
X188661571Y-48449429D01*
X188590142Y-48306571D01*
X188447285Y-48235143D01*
X188090142Y-48235143D01*
X187947285Y-48163714D01*
X187232999Y-48806571D02*
X187232999Y-47806571D01*
X187232999Y-48092286D02*
X187161571Y-47949429D01*
X187090142Y-47878000D01*
X186947285Y-47806571D01*
X186804428Y-47806571D01*
X186447285Y-47806571D02*
X186090142Y-48806571D01*
X185733000Y-47806571D01*
X185161571Y-48806571D02*
X185161571Y-47806571D01*
X185161571Y-47306571D02*
X185233000Y-47378000D01*
X185161571Y-47449429D01*
X185090143Y-47378000D01*
X185161571Y-47306571D01*
X185161571Y-47449429D01*
X184232999Y-48806571D02*
X184375857Y-48735143D01*
X184447285Y-48592286D01*
X184447285Y-47306571D01*
X183447285Y-48806571D02*
X183590143Y-48735143D01*
X183661571Y-48592286D01*
X183661571Y-47306571D01*
X182304429Y-48735143D02*
X182447286Y-48806571D01*
X182733000Y-48806571D01*
X182875857Y-48735143D01*
X182947286Y-48592286D01*
X182947286Y-48020857D01*
X182875857Y-47878000D01*
X182733000Y-47806571D01*
X182447286Y-47806571D01*
X182304429Y-47878000D01*
X182233000Y-48020857D01*
X182233000Y-48163714D01*
X182947286Y-48306571D01*
X180447286Y-47306571D02*
X180447286Y-48520857D01*
X180375858Y-48663714D01*
X180304429Y-48735143D01*
X180161572Y-48806571D01*
X179875858Y-48806571D01*
X179733000Y-48735143D01*
X179661572Y-48663714D01*
X179590143Y-48520857D01*
X179590143Y-47306571D01*
X178875857Y-47806571D02*
X178875857Y-48806571D01*
X178875857Y-47949429D02*
X178804429Y-47878000D01*
X178661571Y-47806571D01*
X178447286Y-47806571D01*
X178304429Y-47878000D01*
X178233000Y-48020857D01*
X178233000Y-48806571D01*
X177518714Y-48806571D02*
X177518714Y-47806571D01*
X177518714Y-47306571D02*
X177590143Y-47378000D01*
X177518714Y-47449429D01*
X177447286Y-47378000D01*
X177518714Y-47306571D01*
X177518714Y-47449429D01*
X176947285Y-47806571D02*
X176590142Y-48806571D01*
X176233000Y-47806571D01*
X175090143Y-48735143D02*
X175233000Y-48806571D01*
X175518714Y-48806571D01*
X175661571Y-48735143D01*
X175733000Y-48592286D01*
X175733000Y-48020857D01*
X175661571Y-47878000D01*
X175518714Y-47806571D01*
X175233000Y-47806571D01*
X175090143Y-47878000D01*
X175018714Y-48020857D01*
X175018714Y-48163714D01*
X175733000Y-48306571D01*
X174375857Y-48806571D02*
X174375857Y-47806571D01*
X174375857Y-48092286D02*
X174304429Y-47949429D01*
X174233000Y-47878000D01*
X174090143Y-47806571D01*
X173947286Y-47806571D01*
X173518715Y-48735143D02*
X173375858Y-48806571D01*
X173090143Y-48806571D01*
X172947286Y-48735143D01*
X172875858Y-48592286D01*
X172875858Y-48520857D01*
X172947286Y-48378000D01*
X173090143Y-48306571D01*
X173304429Y-48306571D01*
X173447286Y-48235143D01*
X173518715Y-48092286D01*
X173518715Y-48020857D01*
X173447286Y-47878000D01*
X173304429Y-47806571D01*
X173090143Y-47806571D01*
X172947286Y-47878000D01*
X172233000Y-48806571D02*
X172233000Y-47806571D01*
X172233000Y-47306571D02*
X172304429Y-47378000D01*
X172233000Y-47449429D01*
X172161572Y-47378000D01*
X172233000Y-47306571D01*
X172233000Y-47449429D01*
X171733000Y-47806571D02*
X171161571Y-47806571D01*
X171518714Y-47306571D02*
X171518714Y-48592286D01*
X171447286Y-48735143D01*
X171304428Y-48806571D01*
X171161571Y-48806571D01*
X170804428Y-47806571D02*
X170447285Y-48806571D01*
X170090143Y-47806571D02*
X170447285Y-48806571D01*
X170590143Y-49163714D01*
X170661571Y-49235143D01*
X170804428Y-49306571D01*
X184268714Y-49999429D02*
X184197285Y-49928000D01*
X184054428Y-49856571D01*
X183697285Y-49856571D01*
X183554428Y-49928000D01*
X183482999Y-49999429D01*
X183411571Y-50142286D01*
X183411571Y-50285143D01*
X183482999Y-50499429D01*
X184340142Y-51356571D01*
X183411571Y-51356571D01*
X182768714Y-50785143D02*
X181625857Y-50785143D01*
X180125857Y-51356571D02*
X180983000Y-51356571D01*
X180554428Y-51356571D02*
X180554428Y-49856571D01*
X180697285Y-50070857D01*
X180840143Y-50213714D01*
X180983000Y-50285143D01*
X179268714Y-50499429D02*
X179411572Y-50428000D01*
X179483000Y-50356571D01*
X179554429Y-50213714D01*
X179554429Y-50142286D01*
X179483000Y-49999429D01*
X179411572Y-49928000D01*
X179268714Y-49856571D01*
X178983000Y-49856571D01*
X178840143Y-49928000D01*
X178768714Y-49999429D01*
X178697286Y-50142286D01*
X178697286Y-50213714D01*
X178768714Y-50356571D01*
X178840143Y-50428000D01*
X178983000Y-50499429D01*
X179268714Y-50499429D01*
X179411572Y-50570857D01*
X179483000Y-50642286D01*
X179554429Y-50785143D01*
X179554429Y-51070857D01*
X179483000Y-51213714D01*
X179411572Y-51285143D01*
X179268714Y-51356571D01*
X178983000Y-51356571D01*
X178840143Y-51285143D01*
X178768714Y-51213714D01*
X178697286Y-51070857D01*
X178697286Y-50785143D01*
X178768714Y-50642286D01*
X178840143Y-50570857D01*
X178983000Y-50499429D01*
X125850685Y-33468571D02*
X126136399Y-33468571D01*
X126279256Y-33540000D01*
X126350685Y-33611429D01*
X126493542Y-33825714D01*
X126564971Y-34111429D01*
X126564971Y-34682857D01*
X126493542Y-34825714D01*
X126422114Y-34897143D01*
X126279256Y-34968571D01*
X125993542Y-34968571D01*
X125850685Y-34897143D01*
X125779256Y-34825714D01*
X125707828Y-34682857D01*
X125707828Y-34325714D01*
X125779256Y-34182857D01*
X125850685Y-34111429D01*
X125993542Y-34040000D01*
X126279256Y-34040000D01*
X126422114Y-34111429D01*
X126493542Y-34182857D01*
X126564971Y-34325714D01*
X172040514Y-35273371D02*
X171754799Y-35273371D01*
X171611942Y-35201943D01*
X171540514Y-35130514D01*
X171397656Y-34916229D01*
X171326228Y-34630514D01*
X171326228Y-34059086D01*
X171397656Y-33916229D01*
X171469085Y-33844800D01*
X171611942Y-33773371D01*
X171897656Y-33773371D01*
X172040514Y-33844800D01*
X172111942Y-33916229D01*
X172183371Y-34059086D01*
X172183371Y-34416229D01*
X172111942Y-34559086D01*
X172040514Y-34630514D01*
X171897656Y-34701943D01*
X171611942Y-34701943D01*
X171469085Y-34630514D01*
X171397656Y-34559086D01*
X171326228Y-34416229D01*
D12*
X146860000Y-35020000D02*
X147360000Y-35520000D01*
X146360000Y-35520000D02*
X146860000Y-35020000D01*
X142860000Y-31520000D02*
X142860000Y-23770000D01*
X144110000Y-33520000D02*
X142860000Y-31520000D01*
X144110000Y-34820000D02*
X144110000Y-33520000D01*
X155610000Y-34820000D02*
X144110000Y-34820000D01*
X155610000Y-33520000D02*
X155610000Y-34820000D01*
X156860000Y-31520000D02*
X155610000Y-33520000D01*
X156860000Y-23770000D02*
X156860000Y-31520000D01*
X142860000Y-23770000D02*
X156860000Y-23770000D01*
X116380000Y-35020000D02*
X116880000Y-35520000D01*
X115880000Y-35520000D02*
X116380000Y-35020000D01*
X112380000Y-31520000D02*
X112380000Y-23770000D01*
X113630000Y-33520000D02*
X112380000Y-31520000D01*
X113630000Y-34820000D02*
X113630000Y-33520000D01*
X125130000Y-34820000D02*
X113630000Y-34820000D01*
X125130000Y-33520000D02*
X125130000Y-34820000D01*
X126380000Y-31520000D02*
X125130000Y-33520000D01*
X126380000Y-23770000D02*
X126380000Y-31520000D01*
X112380000Y-23770000D02*
X126380000Y-23770000D01*
X131620000Y-35020000D02*
X132120000Y-35520000D01*
X131120000Y-35520000D02*
X131620000Y-35020000D01*
X127620000Y-31520000D02*
X127620000Y-23770000D01*
X128870000Y-33520000D02*
X127620000Y-31520000D01*
X128870000Y-34820000D02*
X128870000Y-33520000D01*
X140370000Y-34820000D02*
X128870000Y-34820000D01*
X140370000Y-33520000D02*
X140370000Y-34820000D01*
X141620000Y-31520000D02*
X140370000Y-33520000D01*
X141620000Y-23770000D02*
X141620000Y-31520000D01*
X127620000Y-23770000D02*
X141620000Y-23770000D01*
X162100000Y-35020000D02*
X162600000Y-35520000D01*
X161600000Y-35520000D02*
X162100000Y-35020000D01*
X158100000Y-31520000D02*
X158100000Y-23770000D01*
X159350000Y-33520000D02*
X158100000Y-31520000D01*
X159350000Y-34820000D02*
X159350000Y-33520000D01*
X170850000Y-34820000D02*
X159350000Y-34820000D01*
X170850000Y-33520000D02*
X170850000Y-34820000D01*
X172100000Y-31520000D02*
X170850000Y-33520000D01*
X172100000Y-23770000D02*
X172100000Y-31520000D01*
X158100000Y-23770000D02*
X172100000Y-23770000D01*
M02*
