G04 #@! TF.GenerationSoftware,KiCad,Pcbnew,(5.0.0-rc2-dev-670-ga3770bf6e)*
G04 #@! TF.CreationDate,2018-05-07T21:03:45-05:00*
G04 #@! TF.ProjectId,KarkPower,4B61726B506F7765722E6B696361645F,rev?*
G04 #@! TF.SameCoordinates,Original*
G04 #@! TF.FileFunction,Legend,Bot*
G04 #@! TF.FilePolarity,Positive*
%FSLAX46Y46*%
G04 Gerber Fmt 4.6, Leading zero omitted, Abs format (unit mm)*
G04 Created by KiCad (PCBNEW (5.0.0-rc2-dev-670-ga3770bf6e)) date Mon May  7 21:03:45 2018*
%MOMM*%
%LPD*%
G01*
G04 APERTURE LIST*
%ADD10C,0.300000*%
%ADD11C,0.150000*%
G04 APERTURE END LIST*
D10*
X157673714Y-47941571D02*
X156816571Y-47941571D01*
X157245142Y-49441571D02*
X157245142Y-47941571D01*
X156316571Y-49441571D02*
X156316571Y-48441571D01*
X156316571Y-47941571D02*
X156388000Y-48013000D01*
X156316571Y-48084428D01*
X156245142Y-48013000D01*
X156316571Y-47941571D01*
X156316571Y-48084428D01*
X155602285Y-48441571D02*
X155602285Y-49441571D01*
X155602285Y-48584428D02*
X155530857Y-48513000D01*
X155388000Y-48441571D01*
X155173714Y-48441571D01*
X155030857Y-48513000D01*
X154959428Y-48655857D01*
X154959428Y-49441571D01*
X153673714Y-49370142D02*
X153816571Y-49441571D01*
X154102285Y-49441571D01*
X154245142Y-49370142D01*
X154316571Y-49227285D01*
X154316571Y-48655857D01*
X154245142Y-48513000D01*
X154102285Y-48441571D01*
X153816571Y-48441571D01*
X153673714Y-48513000D01*
X153602285Y-48655857D01*
X153602285Y-48798714D01*
X154316571Y-48941571D01*
X152959428Y-49441571D02*
X152959428Y-47941571D01*
X152816571Y-48870142D02*
X152388000Y-49441571D01*
X152388000Y-48441571D02*
X152959428Y-49013000D01*
X151102285Y-49441571D02*
X151102285Y-48655857D01*
X151173714Y-48513000D01*
X151316571Y-48441571D01*
X151602285Y-48441571D01*
X151745142Y-48513000D01*
X151102285Y-49370142D02*
X151245142Y-49441571D01*
X151602285Y-49441571D01*
X151745142Y-49370142D01*
X151816571Y-49227285D01*
X151816571Y-49084428D01*
X151745142Y-48941571D01*
X151602285Y-48870142D01*
X151245142Y-48870142D01*
X151102285Y-48798714D01*
X149388000Y-47941571D02*
X149030857Y-49441571D01*
X148745142Y-48370142D01*
X148459428Y-49441571D01*
X148102285Y-47941571D01*
X147530857Y-49441571D02*
X147530857Y-48441571D01*
X147530857Y-47941571D02*
X147602285Y-48013000D01*
X147530857Y-48084428D01*
X147459428Y-48013000D01*
X147530857Y-47941571D01*
X147530857Y-48084428D01*
X147030857Y-48441571D02*
X146459428Y-48441571D01*
X146816571Y-47941571D02*
X146816571Y-49227285D01*
X146745142Y-49370142D01*
X146602285Y-49441571D01*
X146459428Y-49441571D01*
X146173714Y-48441571D02*
X145602285Y-48441571D01*
X145959428Y-47941571D02*
X145959428Y-49227285D01*
X145888000Y-49370142D01*
X145745142Y-49441571D01*
X145602285Y-49441571D01*
X158316571Y-51920142D02*
X158102285Y-51991571D01*
X157745142Y-51991571D01*
X157602285Y-51920142D01*
X157530857Y-51848714D01*
X157459428Y-51705857D01*
X157459428Y-51563000D01*
X157530857Y-51420142D01*
X157602285Y-51348714D01*
X157745142Y-51277285D01*
X158030857Y-51205857D01*
X158173714Y-51134428D01*
X158245142Y-51063000D01*
X158316571Y-50920142D01*
X158316571Y-50777285D01*
X158245142Y-50634428D01*
X158173714Y-50563000D01*
X158030857Y-50491571D01*
X157673714Y-50491571D01*
X157459428Y-50563000D01*
X156173714Y-51991571D02*
X156173714Y-51205857D01*
X156245142Y-51063000D01*
X156388000Y-50991571D01*
X156673714Y-50991571D01*
X156816571Y-51063000D01*
X156173714Y-51920142D02*
X156316571Y-51991571D01*
X156673714Y-51991571D01*
X156816571Y-51920142D01*
X156888000Y-51777285D01*
X156888000Y-51634428D01*
X156816571Y-51491571D01*
X156673714Y-51420142D01*
X156316571Y-51420142D01*
X156173714Y-51348714D01*
X155459428Y-51991571D02*
X155459428Y-50991571D01*
X155459428Y-51134428D02*
X155388000Y-51063000D01*
X155245142Y-50991571D01*
X155030857Y-50991571D01*
X154888000Y-51063000D01*
X154816571Y-51205857D01*
X154816571Y-51991571D01*
X154816571Y-51205857D02*
X154745142Y-51063000D01*
X154602285Y-50991571D01*
X154388000Y-50991571D01*
X154245142Y-51063000D01*
X154173714Y-51205857D01*
X154173714Y-51991571D01*
X152316571Y-51205857D02*
X151816571Y-51205857D01*
X151602285Y-51991571D02*
X152316571Y-51991571D01*
X152316571Y-50491571D01*
X151602285Y-50491571D01*
X150745142Y-51991571D02*
X150888000Y-51920142D01*
X150959428Y-51777285D01*
X150959428Y-50491571D01*
X149959428Y-51991571D02*
X150102285Y-51920142D01*
X150173714Y-51777285D01*
X150173714Y-50491571D01*
X149388000Y-51991571D02*
X149388000Y-50991571D01*
X149388000Y-50491571D02*
X149459428Y-50563000D01*
X149388000Y-50634428D01*
X149316571Y-50563000D01*
X149388000Y-50491571D01*
X149388000Y-50634428D01*
X148030857Y-51920142D02*
X148173714Y-51991571D01*
X148459428Y-51991571D01*
X148602285Y-51920142D01*
X148673714Y-51848714D01*
X148745142Y-51705857D01*
X148745142Y-51277285D01*
X148673714Y-51134428D01*
X148602285Y-51063000D01*
X148459428Y-50991571D01*
X148173714Y-50991571D01*
X148030857Y-51063000D01*
X147173714Y-51991571D02*
X147316571Y-51920142D01*
X147388000Y-51848714D01*
X147459428Y-51705857D01*
X147459428Y-51277285D01*
X147388000Y-51134428D01*
X147316571Y-51063000D01*
X147173714Y-50991571D01*
X146959428Y-50991571D01*
X146816571Y-51063000D01*
X146745142Y-51134428D01*
X146673714Y-51277285D01*
X146673714Y-51705857D01*
X146745142Y-51848714D01*
X146816571Y-51920142D01*
X146959428Y-51991571D01*
X147173714Y-51991571D01*
X146245142Y-50991571D02*
X145673714Y-50991571D01*
X146030857Y-50491571D02*
X146030857Y-51777285D01*
X145959428Y-51920142D01*
X145816571Y-51991571D01*
X145673714Y-51991571D01*
X145388000Y-50991571D02*
X144816571Y-50991571D01*
X145173714Y-50491571D02*
X145173714Y-51777285D01*
X145102285Y-51920142D01*
X144959428Y-51991571D01*
X144816571Y-51991571D01*
D11*
X103632000Y-22987000D02*
X195072000Y-22987000D01*
X103632000Y-80010000D02*
X195072000Y-80010000D01*
D10*
X113847000Y-41821571D02*
X113847000Y-40321571D01*
X113275571Y-40321571D01*
X113132714Y-40393000D01*
X113061285Y-40464428D01*
X112989857Y-40607285D01*
X112989857Y-40821571D01*
X113061285Y-40964428D01*
X113132714Y-41035857D01*
X113275571Y-41107285D01*
X113847000Y-41107285D01*
X112347000Y-41821571D02*
X112347000Y-40821571D01*
X112347000Y-41107285D02*
X112275571Y-40964428D01*
X112204142Y-40893000D01*
X112061285Y-40821571D01*
X111918428Y-40821571D01*
X111204142Y-41821571D02*
X111347000Y-41750142D01*
X111418428Y-41678714D01*
X111489857Y-41535857D01*
X111489857Y-41107285D01*
X111418428Y-40964428D01*
X111347000Y-40893000D01*
X111204142Y-40821571D01*
X110989857Y-40821571D01*
X110847000Y-40893000D01*
X110775571Y-40964428D01*
X110704142Y-41107285D01*
X110704142Y-41535857D01*
X110775571Y-41678714D01*
X110847000Y-41750142D01*
X110989857Y-41821571D01*
X111204142Y-41821571D01*
X110204142Y-40821571D02*
X109847000Y-41821571D01*
X109489857Y-40821571D01*
X108347000Y-41750142D02*
X108489857Y-41821571D01*
X108775571Y-41821571D01*
X108918428Y-41750142D01*
X108989857Y-41607285D01*
X108989857Y-41035857D01*
X108918428Y-40893000D01*
X108775571Y-40821571D01*
X108489857Y-40821571D01*
X108347000Y-40893000D01*
X108275571Y-41035857D01*
X108275571Y-41178714D01*
X108989857Y-41321571D01*
X107632714Y-41821571D02*
X107632714Y-40821571D01*
X107632714Y-41107285D02*
X107561285Y-40964428D01*
X107489857Y-40893000D01*
X107347000Y-40821571D01*
X107204142Y-40821571D01*
X106704142Y-41821571D02*
X106704142Y-40321571D01*
X106704142Y-40893000D02*
X106561285Y-40821571D01*
X106275571Y-40821571D01*
X106132714Y-40893000D01*
X106061285Y-40964428D01*
X105989857Y-41107285D01*
X105989857Y-41535857D01*
X106061285Y-41678714D01*
X106132714Y-41750142D01*
X106275571Y-41821571D01*
X106561285Y-41821571D01*
X106704142Y-41750142D01*
X105418428Y-41750142D02*
X105275571Y-41821571D01*
X104989857Y-41821571D01*
X104847000Y-41750142D01*
X104775571Y-41607285D01*
X104775571Y-41535857D01*
X104847000Y-41393000D01*
X104989857Y-41321571D01*
X105204142Y-41321571D01*
X105347000Y-41250142D01*
X105418428Y-41107285D01*
X105418428Y-41035857D01*
X105347000Y-40893000D01*
X105204142Y-40821571D01*
X104989857Y-40821571D01*
X104847000Y-40893000D01*
X111561285Y-43014428D02*
X111489857Y-42943000D01*
X111347000Y-42871571D01*
X110989857Y-42871571D01*
X110847000Y-42943000D01*
X110775571Y-43014428D01*
X110704142Y-43157285D01*
X110704142Y-43300142D01*
X110775571Y-43514428D01*
X111632714Y-44371571D01*
X110704142Y-44371571D01*
X109347000Y-42871571D02*
X110061285Y-42871571D01*
X110132714Y-43585857D01*
X110061285Y-43514428D01*
X109918428Y-43443000D01*
X109561285Y-43443000D01*
X109418428Y-43514428D01*
X109347000Y-43585857D01*
X109275571Y-43728714D01*
X109275571Y-44085857D01*
X109347000Y-44228714D01*
X109418428Y-44300142D01*
X109561285Y-44371571D01*
X109918428Y-44371571D01*
X110061285Y-44300142D01*
X110132714Y-44228714D01*
X108632714Y-44228714D02*
X108561285Y-44300142D01*
X108632714Y-44371571D01*
X108704142Y-44300142D01*
X108632714Y-44228714D01*
X108632714Y-44371571D01*
X108632714Y-43443000D02*
X108561285Y-43514428D01*
X108632714Y-43585857D01*
X108704142Y-43514428D01*
X108632714Y-43443000D01*
X108632714Y-43585857D01*
X107989857Y-43014428D02*
X107918428Y-42943000D01*
X107775571Y-42871571D01*
X107418428Y-42871571D01*
X107275571Y-42943000D01*
X107204142Y-43014428D01*
X107132714Y-43157285D01*
X107132714Y-43300142D01*
X107204142Y-43514428D01*
X108061285Y-44371571D01*
X107132714Y-44371571D01*
X124102857Y-36008571D02*
X124817142Y-36008571D01*
X124888571Y-36722857D01*
X124817142Y-36651428D01*
X124674285Y-36580000D01*
X124317142Y-36580000D01*
X124174285Y-36651428D01*
X124102857Y-36722857D01*
X124031428Y-36865714D01*
X124031428Y-37222857D01*
X124102857Y-37365714D01*
X124174285Y-37437142D01*
X124317142Y-37508571D01*
X124674285Y-37508571D01*
X124817142Y-37437142D01*
X124888571Y-37365714D01*
X139414285Y-36508571D02*
X139414285Y-37508571D01*
X139771428Y-35937142D02*
X140128571Y-37008571D01*
X139200000Y-37008571D01*
D11*
X103632000Y-22987000D02*
X103632000Y-80010000D01*
X195072000Y-22987000D02*
X195072000Y-80010000D01*
X123015000Y-68485000D02*
X122515000Y-67985000D01*
X123515000Y-67985000D02*
X123015000Y-68485000D01*
X127015000Y-71985000D02*
X127015000Y-79735000D01*
X125765000Y-69985000D02*
X127015000Y-71985000D01*
X125765000Y-68685000D02*
X125765000Y-69985000D01*
X114265000Y-68685000D02*
X125765000Y-68685000D01*
X114265000Y-69985000D02*
X114265000Y-68685000D01*
X113015000Y-71985000D02*
X114265000Y-69985000D01*
X113015000Y-79735000D02*
X113015000Y-71985000D01*
X127015000Y-79735000D02*
X113015000Y-79735000D01*
X116380000Y-35020000D02*
X116880000Y-35520000D01*
X115880000Y-35520000D02*
X116380000Y-35020000D01*
X112380000Y-31520000D02*
X112380000Y-23770000D01*
X113630000Y-33520000D02*
X112380000Y-31520000D01*
X113630000Y-34820000D02*
X113630000Y-33520000D01*
X125130000Y-34820000D02*
X113630000Y-34820000D01*
X125130000Y-33520000D02*
X125130000Y-34820000D01*
X126380000Y-31520000D02*
X125130000Y-33520000D01*
X126380000Y-23770000D02*
X126380000Y-31520000D01*
X112380000Y-23770000D02*
X126380000Y-23770000D01*
X131620000Y-35020000D02*
X132120000Y-35520000D01*
X131120000Y-35520000D02*
X131620000Y-35020000D01*
X127620000Y-31520000D02*
X127620000Y-23770000D01*
X128870000Y-33520000D02*
X127620000Y-31520000D01*
X128870000Y-34820000D02*
X128870000Y-33520000D01*
X140370000Y-34820000D02*
X128870000Y-34820000D01*
X140370000Y-33520000D02*
X140370000Y-34820000D01*
X141620000Y-31520000D02*
X140370000Y-33520000D01*
X141620000Y-23770000D02*
X141620000Y-31520000D01*
X127620000Y-23770000D02*
X141620000Y-23770000D01*
X146860000Y-35020000D02*
X147360000Y-35520000D01*
X146360000Y-35520000D02*
X146860000Y-35020000D01*
X142860000Y-31520000D02*
X142860000Y-23770000D01*
X144110000Y-33520000D02*
X142860000Y-31520000D01*
X144110000Y-34820000D02*
X144110000Y-33520000D01*
X155610000Y-34820000D02*
X144110000Y-34820000D01*
X155610000Y-33520000D02*
X155610000Y-34820000D01*
X156860000Y-31520000D02*
X155610000Y-33520000D01*
X156860000Y-23770000D02*
X156860000Y-31520000D01*
X142860000Y-23770000D02*
X156860000Y-23770000D01*
M02*
