G04 #@! TF.FileFunction,Copper,L2,Bot,Signal*
%FSLAX46Y46*%
G04 Gerber Fmt 4.6, Leading zero omitted, Abs format (unit mm)*
G04 Created by KiCad (PCBNEW 4.0.6) date Saturday, February 10, 2018 'AMt' 10:41:33 AM*
%MOMM*%
%LPD*%
G01*
G04 APERTURE LIST*
%ADD10C,0.100000*%
%ADD11R,1.206500X3.200400*%
%ADD12R,1.700022X5.299964*%
%ADD13C,1.524000*%
%ADD14R,1.800000X1.800000*%
%ADD15C,1.800000*%
%ADD16R,2.200000X2.200000*%
%ADD17O,2.200000X2.200000*%
%ADD18R,1.700000X1.700000*%
%ADD19O,1.700000X1.700000*%
%ADD20C,1.600000*%
%ADD21O,1.600000X1.600000*%
%ADD22C,6.400000*%
%ADD23C,1.520000*%
%ADD24R,1.520000X1.520000*%
%ADD25C,1.700000*%
%ADD26C,3.556000*%
%ADD27C,0.762000*%
%ADD28C,1.016000*%
%ADD29C,0.635000*%
%ADD30C,0.381000*%
%ADD31C,0.254000*%
G04 APERTURE END LIST*
D10*
D11*
X146860006Y-33020000D03*
X148860002Y-33020000D03*
X150859998Y-33020000D03*
X152859994Y-33020000D03*
D12*
X144159986Y-26850340D03*
X155560014Y-26850340D03*
D13*
X127855000Y-49370000D03*
X122775000Y-49370000D03*
X120235000Y-49370000D03*
X117695000Y-49370000D03*
X117695000Y-54450000D03*
X120235000Y-54450000D03*
X122775000Y-54450000D03*
X127855000Y-54450000D03*
D14*
X174625000Y-54610000D03*
D15*
X172085000Y-54610000D03*
D16*
X139700000Y-48260000D03*
D17*
X139700000Y-55880000D03*
D11*
X116380006Y-33020000D03*
X118380002Y-33020000D03*
X120379998Y-33020000D03*
X122379994Y-33020000D03*
D12*
X113679986Y-26850340D03*
X125080014Y-26850340D03*
D11*
X131620006Y-33020000D03*
X133620002Y-33020000D03*
X135619998Y-33020000D03*
X137619994Y-33020000D03*
D12*
X128919986Y-26850340D03*
X140320014Y-26850340D03*
D11*
X162100006Y-33020000D03*
X164100002Y-33020000D03*
X166099998Y-33020000D03*
X168099994Y-33020000D03*
D12*
X159399986Y-26850340D03*
X170800014Y-26850340D03*
D18*
X116205000Y-41275000D03*
D19*
X118745000Y-41275000D03*
X116205000Y-43815000D03*
X118745000Y-43815000D03*
D18*
X131445000Y-41275000D03*
D19*
X133985000Y-41275000D03*
X131445000Y-43815000D03*
X133985000Y-43815000D03*
D18*
X146685000Y-41275000D03*
D19*
X149225000Y-41275000D03*
X146685000Y-43815000D03*
X149225000Y-43815000D03*
D18*
X161925000Y-41275000D03*
D19*
X164465000Y-41275000D03*
X161925000Y-43815000D03*
X164465000Y-43815000D03*
D18*
X175260000Y-41275000D03*
D19*
X177800000Y-41275000D03*
X175260000Y-43815000D03*
X177800000Y-43815000D03*
D18*
X122555000Y-41275000D03*
D19*
X125095000Y-41275000D03*
X122555000Y-43815000D03*
X125095000Y-43815000D03*
D18*
X137795000Y-41275000D03*
D19*
X140335000Y-41275000D03*
X137795000Y-43815000D03*
X140335000Y-43815000D03*
D18*
X153035000Y-41275000D03*
D19*
X155575000Y-41275000D03*
X153035000Y-43815000D03*
X155575000Y-43815000D03*
D18*
X168275000Y-41275000D03*
D19*
X170815000Y-41275000D03*
X168275000Y-43815000D03*
X170815000Y-43815000D03*
D20*
X167005000Y-48260000D03*
D21*
X167005000Y-55880000D03*
D20*
X146685000Y-48260000D03*
D21*
X146685000Y-55880000D03*
D20*
X160655000Y-55880000D03*
D21*
X160655000Y-48260000D03*
D20*
X153670000Y-55880000D03*
D21*
X153670000Y-48260000D03*
D13*
X191770000Y-41275000D03*
X189230000Y-41275000D03*
X186690000Y-41275000D03*
X184150000Y-41275000D03*
X181610000Y-41275000D03*
D22*
X107315000Y-35560000D03*
X191770000Y-35560000D03*
X107315000Y-74930000D03*
X191770000Y-74930000D03*
D23*
X133350000Y-53340000D03*
X133350000Y-55880000D03*
D24*
X133350000Y-50800000D03*
D25*
X153952000Y-67030000D03*
X157452000Y-67030000D03*
D26*
X155692000Y-74860000D03*
D25*
X173002000Y-67030000D03*
X176502000Y-67030000D03*
D26*
X174742000Y-74860000D03*
D25*
X115852000Y-67030000D03*
X119352000Y-67030000D03*
D26*
X117592000Y-74860000D03*
D25*
X125377000Y-67030000D03*
X128877000Y-67030000D03*
D26*
X127117000Y-74860000D03*
D25*
X134902000Y-67030000D03*
X138402000Y-67030000D03*
D26*
X136642000Y-74860000D03*
D25*
X163477000Y-67030000D03*
X166977000Y-67030000D03*
D26*
X165217000Y-74860000D03*
D25*
X182527000Y-67030000D03*
X186027000Y-67030000D03*
D26*
X184267000Y-74860000D03*
D25*
X148117000Y-64230000D03*
X144617000Y-67230000D03*
X148117000Y-67230000D03*
X144617000Y-64230000D03*
D26*
X146357000Y-75160000D03*
D27*
X186817010Y-38353990D03*
X169799000Y-38354002D03*
X139319000Y-38227000D03*
X124460000Y-38354006D03*
X169799000Y-33401000D03*
X154432000Y-33274000D03*
X154432000Y-38354000D03*
X139065000Y-33274000D03*
X150876000Y-29972000D03*
X135382006Y-36195000D03*
X120396000Y-35433000D03*
X150876000Y-36449000D03*
X166243000Y-36322000D03*
X181356000Y-36195000D03*
X148844000Y-35814000D03*
X148832924Y-37465011D03*
X133604000Y-37338000D03*
X164211000Y-37338000D03*
X119761000Y-37338000D03*
X135635996Y-30607000D03*
X165989000Y-30353000D03*
X179832000Y-37211000D03*
X120379998Y-30496002D03*
X122428000Y-35255214D03*
X137608881Y-35418370D03*
X153034579Y-35496490D03*
X168098889Y-35369490D03*
D28*
X133502400Y-53301900D02*
X133515100Y-53289200D01*
X133515100Y-53289200D02*
X148640800Y-53289200D01*
X148640800Y-53289200D02*
X153670000Y-48260000D01*
X153670000Y-48260000D02*
X160655000Y-48260000D01*
X127855000Y-54450000D02*
X129285000Y-55880000D01*
X129285000Y-55880000D02*
X133350000Y-55880000D01*
X139700000Y-55880000D02*
X133350000Y-55880000D01*
X127888000Y-54483000D02*
X127855000Y-54450000D01*
D29*
X177787241Y-38353990D02*
X186817010Y-38353990D01*
X149290125Y-38417512D02*
X148375723Y-38417512D01*
X149353647Y-38353990D02*
X149290125Y-38417512D01*
X168656000Y-38353990D02*
X149353647Y-38353990D01*
X148312201Y-38353990D02*
X139827000Y-38353990D01*
X148375723Y-38417512D02*
X148312201Y-38353990D01*
D30*
X168656000Y-38353990D02*
X168656012Y-38354002D01*
X169260185Y-38354002D02*
X169799000Y-38354002D01*
X168656012Y-38354002D02*
X169260185Y-38354002D01*
D29*
X177787241Y-38353990D02*
X168656000Y-38353990D01*
X173002000Y-67030000D02*
X175516000Y-64516000D01*
X175516000Y-64516000D02*
X180013000Y-64516000D01*
X180013000Y-64516000D02*
X182527000Y-67030000D01*
X163477000Y-67030000D02*
X163477000Y-65827919D01*
X170234000Y-64262000D02*
X172152001Y-66180001D01*
X163477000Y-65827919D02*
X165042919Y-64262000D01*
X165042919Y-64262000D02*
X170234000Y-64262000D01*
X172152001Y-66180001D02*
X173002000Y-67030000D01*
X124079000Y-38353990D02*
X118986288Y-38353990D01*
X116380006Y-35255200D02*
X116380006Y-33020000D01*
X118986288Y-38353990D02*
X116380006Y-35747708D01*
X116380006Y-35747708D02*
X116380006Y-35255200D01*
D30*
X139700010Y-38227000D02*
X139319000Y-38227000D01*
X139827000Y-38353990D02*
X139700010Y-38227000D01*
X124332995Y-38227001D02*
X124460000Y-38354006D01*
X124205989Y-38227001D02*
X124332995Y-38227001D01*
X124079000Y-38353990D02*
X124205989Y-38227001D01*
D29*
X139827000Y-38353990D02*
X124079000Y-38353990D01*
X169799000Y-32862185D02*
X169799000Y-33401000D01*
X169799000Y-31465185D02*
X169799000Y-32862185D01*
X166718313Y-28384498D02*
X169799000Y-31465185D01*
X164500308Y-28384498D02*
X166718313Y-28384498D01*
X162100006Y-33020000D02*
X162100006Y-30784800D01*
X162100006Y-30784800D02*
X164500308Y-28384498D01*
X154432000Y-32735185D02*
X154432000Y-33274000D01*
X154432000Y-30383815D02*
X154432000Y-32735185D01*
X152750185Y-28702000D02*
X154432000Y-30383815D01*
X148942806Y-28702000D02*
X152750185Y-28702000D01*
X146860006Y-30784800D02*
X148942806Y-28702000D01*
X146860006Y-33020000D02*
X146860006Y-30784800D01*
D30*
X124587000Y-38353990D02*
X124460000Y-38226990D01*
D29*
X148117000Y-64230000D02*
X160677000Y-64230000D01*
X160677000Y-64230000D02*
X163477000Y-67030000D01*
X148117000Y-64230000D02*
X148117000Y-67230000D01*
X131620006Y-33020000D02*
X131620006Y-29796994D01*
X131620006Y-29796994D02*
X132842000Y-28575000D01*
X132842000Y-28575000D02*
X137414000Y-28575000D01*
X137414000Y-28575000D02*
X139192000Y-30353000D01*
X139192000Y-30353000D02*
X139192000Y-33147000D01*
X139192000Y-33147000D02*
X139065000Y-33274000D01*
D28*
X114780000Y-47780000D02*
X114780000Y-62458000D01*
X114780000Y-62458000D02*
X119352000Y-67030000D01*
D29*
X133985000Y-43815000D02*
X133985000Y-45427001D01*
X133858000Y-45466000D02*
X133858000Y-45427001D01*
X133946001Y-45466000D02*
X133858000Y-45466000D01*
X133985000Y-45427001D02*
X133946001Y-45466000D01*
X125095000Y-43815000D02*
X125095000Y-45427001D01*
X124968000Y-45466000D02*
X124968000Y-45427001D01*
X125056001Y-45466000D02*
X124968000Y-45466000D01*
X125095000Y-45427001D02*
X125056001Y-45466000D01*
X118745000Y-43815000D02*
X118745000Y-45085000D01*
X138722999Y-45427001D02*
X140335000Y-43815000D01*
X119087001Y-45427001D02*
X124968000Y-45427001D01*
X124968000Y-45427001D02*
X133858000Y-45427001D01*
X133858000Y-45427001D02*
X138722999Y-45427001D01*
X118745000Y-45085000D02*
X119087001Y-45427001D01*
D28*
X170815000Y-45427001D02*
X177800000Y-45427001D01*
X177800000Y-45427001D02*
X182537999Y-45427001D01*
X177800000Y-43815000D02*
X177800000Y-45427001D01*
X167259000Y-45427001D02*
X170815000Y-45427001D01*
X170815000Y-43815000D02*
X170815000Y-45427001D01*
X165100000Y-45427001D02*
X167259000Y-45427001D01*
X167005000Y-48260000D02*
X167005000Y-45681001D01*
X167005000Y-45681001D02*
X167259000Y-45427001D01*
X155829000Y-45427001D02*
X165100000Y-45427001D01*
X164465000Y-43815000D02*
X164465000Y-45017081D01*
X164465000Y-45017081D02*
X164874920Y-45427001D01*
X164874920Y-45427001D02*
X165100000Y-45427001D01*
X140335000Y-45427001D02*
X149479000Y-45427001D01*
X140335000Y-43815000D02*
X140335000Y-45427001D01*
X149479000Y-45427001D02*
X155829000Y-45427001D01*
X149225000Y-43815000D02*
X149225000Y-45173001D01*
X149225000Y-45173001D02*
X149479000Y-45427001D01*
X155829000Y-45271081D02*
X155829000Y-45427001D01*
X155575000Y-43815000D02*
X155575000Y-45017081D01*
X155575000Y-45017081D02*
X155829000Y-45271081D01*
X182537999Y-45427001D02*
X185928001Y-42036999D01*
X185928001Y-42036999D02*
X186690000Y-41275000D01*
X114780000Y-47780000D02*
X118745000Y-43815000D01*
D30*
X135826507Y-36639501D02*
X135763005Y-36575999D01*
X135763005Y-36575999D02*
X135382006Y-36195000D01*
X150876000Y-36449000D02*
X150337185Y-36449000D01*
X150337185Y-36449000D02*
X150146684Y-36639501D01*
X150146684Y-36639501D02*
X135826507Y-36639501D01*
D29*
X149672802Y-29972000D02*
X150876000Y-29972000D01*
X148860002Y-33020000D02*
X148860002Y-30784800D01*
X148860002Y-30784800D02*
X149672802Y-29972000D01*
D30*
X120396000Y-35433000D02*
X121158000Y-36195000D01*
D29*
X134559802Y-36195000D02*
X134843185Y-36195000D01*
D30*
X121158000Y-36195000D02*
X134843185Y-36195000D01*
D29*
X133620002Y-35255200D02*
X134559802Y-36195000D01*
X134843185Y-36195000D02*
X135382006Y-36195000D01*
X133620002Y-33020000D02*
X133620002Y-35255200D01*
X118460185Y-35306000D02*
X118587185Y-35433000D01*
X118587185Y-35433000D02*
X119857185Y-35433000D01*
X118380002Y-33020000D02*
X118380002Y-35255200D01*
X118380002Y-35255200D02*
X118430802Y-35306000D01*
X119857185Y-35433000D02*
X120396000Y-35433000D01*
X118430802Y-35306000D02*
X118460185Y-35306000D01*
X118364000Y-35271202D02*
X118398798Y-35306000D01*
X118398798Y-35306000D02*
X118460185Y-35306000D01*
D30*
X151414815Y-36449000D02*
X150876000Y-36449000D01*
X164100002Y-36305998D02*
X163957000Y-36449000D01*
X163957000Y-36449000D02*
X151414815Y-36449000D01*
X181356000Y-36195000D02*
X181229000Y-36322000D01*
X181229000Y-36322000D02*
X166243000Y-36322000D01*
X165704185Y-36322000D02*
X166243000Y-36322000D01*
X164100002Y-36305998D02*
X164116004Y-36322000D01*
X164116004Y-36322000D02*
X165704185Y-36322000D01*
X164100002Y-33020000D02*
X164100002Y-36305998D01*
D29*
X150859998Y-33020000D02*
X150859998Y-34336817D01*
X150859998Y-34336817D02*
X149382815Y-35814000D01*
X149382815Y-35814000D02*
X148844000Y-35814000D01*
D30*
X148336000Y-37338000D02*
X148705913Y-37338000D01*
X148705913Y-37338000D02*
X148832924Y-37465011D01*
X164211000Y-37338000D02*
X148336000Y-37338000D01*
X148336000Y-37338000D02*
X147574000Y-37338000D01*
X147574000Y-37338000D02*
X134239000Y-37338000D01*
X164211000Y-37338000D02*
X179166185Y-37338000D01*
X179166185Y-37338000D02*
X179293185Y-37211000D01*
X179293185Y-37211000D02*
X179832000Y-37211000D01*
X134239000Y-37338000D02*
X133604000Y-37338000D01*
X134239000Y-37338000D02*
X119761000Y-37338000D01*
X135619998Y-30622998D02*
X135635996Y-30607000D01*
X135619998Y-33020000D02*
X135619998Y-30622998D01*
D29*
X165989000Y-30353000D02*
X165989000Y-32909002D01*
X165989000Y-32909002D02*
X166099998Y-33020000D01*
X120379998Y-33020000D02*
X120379998Y-30496002D01*
X122380008Y-35255214D02*
X122428000Y-35255214D01*
X122379994Y-33020000D02*
X122379994Y-35255200D01*
X122379994Y-35255200D02*
X122380008Y-35255214D01*
X137795000Y-43815000D02*
X137795000Y-41275000D01*
X137619994Y-35407257D02*
X137608881Y-35418370D01*
X137619994Y-33020000D02*
X137619994Y-35407257D01*
X152859994Y-35321905D02*
X153034579Y-35496490D01*
X152859994Y-33020000D02*
X152859994Y-35321905D01*
X168099994Y-35368385D02*
X168098889Y-35369490D01*
X168099994Y-33020000D02*
X168099994Y-35368385D01*
X156591000Y-39497000D02*
X162814000Y-39497000D01*
X162814000Y-39497000D02*
X164465000Y-41148000D01*
X164465000Y-41275000D02*
X166243000Y-39497000D01*
X166243000Y-39497000D02*
X170815000Y-39497000D01*
X170815000Y-39497000D02*
X177673000Y-39497000D01*
X170815000Y-41275000D02*
X170815000Y-40386000D01*
X170815000Y-40386000D02*
X170815000Y-40005042D01*
X170815000Y-39497000D02*
X170815000Y-40386000D01*
X177673000Y-39497000D02*
X177800000Y-39624000D01*
X118745000Y-39497000D02*
X125095000Y-39497000D01*
X125095000Y-39497000D02*
X133985000Y-39497000D01*
X125095000Y-41275000D02*
X125095000Y-39497000D01*
X133985000Y-39497000D02*
X140335000Y-39497000D01*
X133985000Y-41275000D02*
X133985000Y-39497000D01*
X140335000Y-39497000D02*
X149225000Y-39497000D01*
X140335000Y-41275000D02*
X140335000Y-40072919D01*
X140335000Y-40072919D02*
X140335000Y-39497000D01*
X149225000Y-39497000D02*
X156591000Y-39497000D01*
X149225000Y-41275000D02*
X149225000Y-40072919D01*
X149225000Y-40072919D02*
X149225000Y-39497000D01*
X156083000Y-39497000D02*
X156591000Y-39497000D01*
X118745000Y-41275000D02*
X118745000Y-39497000D01*
X177800000Y-41275000D02*
X177800000Y-39624000D01*
X190119000Y-39624000D02*
X191770000Y-41275000D01*
X177800000Y-39624000D02*
X190119000Y-39624000D01*
X155575000Y-41275000D02*
X155575000Y-40005000D01*
X155575000Y-40005000D02*
X156083000Y-39497000D01*
X144617000Y-67230000D02*
X144617000Y-68432081D01*
X144617000Y-68432081D02*
X144836420Y-68651501D01*
X144836420Y-68651501D02*
X165355499Y-68651501D01*
X165355499Y-68651501D02*
X166127001Y-67879999D01*
X166127001Y-67879999D02*
X166977000Y-67030000D01*
D31*
G36*
X112182535Y-29500322D02*
X112226813Y-29735639D01*
X112365885Y-29951763D01*
X112578085Y-30096753D01*
X112829975Y-30147762D01*
X114529997Y-30147762D01*
X114765314Y-30103484D01*
X114981438Y-29964412D01*
X115126428Y-29752212D01*
X115177437Y-29500322D01*
X115177437Y-24257000D01*
X123582563Y-24257000D01*
X123582563Y-29500322D01*
X123626841Y-29735639D01*
X123765913Y-29951763D01*
X123978113Y-30096753D01*
X124230003Y-30147762D01*
X125930025Y-30147762D01*
X126165342Y-30103484D01*
X126381466Y-29964412D01*
X126526456Y-29752212D01*
X126577465Y-29500322D01*
X126577465Y-24257000D01*
X127422535Y-24257000D01*
X127422535Y-29500322D01*
X127466813Y-29735639D01*
X127605885Y-29951763D01*
X127818085Y-30096753D01*
X128069975Y-30147762D01*
X129769997Y-30147762D01*
X130005314Y-30103484D01*
X130221438Y-29964412D01*
X130366428Y-29752212D01*
X130417437Y-29500322D01*
X130417437Y-24257000D01*
X138822563Y-24257000D01*
X138822563Y-29500322D01*
X138866841Y-29735639D01*
X139005913Y-29951763D01*
X139218113Y-30096753D01*
X139470003Y-30147762D01*
X141170025Y-30147762D01*
X141405342Y-30103484D01*
X141621466Y-29964412D01*
X141766456Y-29752212D01*
X141817465Y-29500322D01*
X141817465Y-24257000D01*
X142662535Y-24257000D01*
X142662535Y-29500322D01*
X142706813Y-29735639D01*
X142845885Y-29951763D01*
X143058085Y-30096753D01*
X143309975Y-30147762D01*
X145009997Y-30147762D01*
X145245314Y-30103484D01*
X145461438Y-29964412D01*
X145606428Y-29752212D01*
X145657437Y-29500322D01*
X145657437Y-24257000D01*
X154062563Y-24257000D01*
X154062563Y-29500322D01*
X154106841Y-29735639D01*
X154245913Y-29951763D01*
X154458113Y-30096753D01*
X154710003Y-30147762D01*
X156410025Y-30147762D01*
X156645342Y-30103484D01*
X156861466Y-29964412D01*
X157006456Y-29752212D01*
X157057465Y-29500322D01*
X157057465Y-24257000D01*
X157902535Y-24257000D01*
X157902535Y-29500322D01*
X157946813Y-29735639D01*
X158085885Y-29951763D01*
X158298085Y-30096753D01*
X158549975Y-30147762D01*
X160249997Y-30147762D01*
X160485314Y-30103484D01*
X160701438Y-29964412D01*
X160846428Y-29752212D01*
X160897437Y-29500322D01*
X160897437Y-24257000D01*
X169302563Y-24257000D01*
X169302563Y-29500322D01*
X169346841Y-29735639D01*
X169485913Y-29951763D01*
X169698113Y-30096753D01*
X169950003Y-30147762D01*
X171650025Y-30147762D01*
X171885342Y-30103484D01*
X172101466Y-29964412D01*
X172246456Y-29752212D01*
X172297465Y-29500322D01*
X172297465Y-24257000D01*
X194362000Y-24257000D01*
X194362000Y-32728280D01*
X193945189Y-32310741D01*
X192536175Y-31725667D01*
X191010518Y-31724336D01*
X189600485Y-32306950D01*
X188520741Y-33384811D01*
X187935667Y-34793825D01*
X187934336Y-36319482D01*
X188516950Y-37729515D01*
X189457292Y-38671500D01*
X178119063Y-38671500D01*
X178037506Y-38617005D01*
X177673000Y-38544500D01*
X166243000Y-38544500D01*
X165878494Y-38617005D01*
X165569481Y-38823481D01*
X164584899Y-39808063D01*
X164494093Y-39790000D01*
X164454038Y-39790000D01*
X163487519Y-38823481D01*
X163178506Y-38617005D01*
X162814000Y-38544500D01*
X118745000Y-38544500D01*
X118380494Y-38617005D01*
X118071481Y-38823481D01*
X117865005Y-39132494D01*
X117792500Y-39497000D01*
X117792500Y-40140323D01*
X117665853Y-40224946D01*
X117665029Y-40226179D01*
X117658162Y-40189683D01*
X117519090Y-39973559D01*
X117306890Y-39828569D01*
X117055000Y-39777560D01*
X115355000Y-39777560D01*
X115119683Y-39821838D01*
X114903559Y-39960910D01*
X114758569Y-40173110D01*
X114707560Y-40425000D01*
X114707560Y-42125000D01*
X114751838Y-42360317D01*
X114890910Y-42576441D01*
X115103110Y-42721431D01*
X115170541Y-42735086D01*
X115125853Y-42764946D01*
X114803946Y-43246715D01*
X114690907Y-43815000D01*
X114803946Y-44383285D01*
X115125853Y-44865054D01*
X115607622Y-45186961D01*
X115731877Y-45211677D01*
X113971777Y-46971777D01*
X113724006Y-47342593D01*
X113637000Y-47780000D01*
X113637000Y-62458000D01*
X113724006Y-62895407D01*
X113971777Y-63266223D01*
X116323335Y-65617781D01*
X116148681Y-65545258D01*
X115557911Y-65544743D01*
X115011914Y-65770344D01*
X114593812Y-66187717D01*
X114367258Y-66733319D01*
X114366743Y-67324089D01*
X114592344Y-67870086D01*
X115009717Y-68288188D01*
X115555319Y-68514742D01*
X116146089Y-68515257D01*
X116692086Y-68289656D01*
X117110188Y-67872283D01*
X117336742Y-67326681D01*
X117337257Y-66735911D01*
X117263881Y-66558327D01*
X117866885Y-67161331D01*
X117866743Y-67324089D01*
X118092344Y-67870086D01*
X118509717Y-68288188D01*
X119055319Y-68514742D01*
X119646089Y-68515257D01*
X120192086Y-68289656D01*
X120610188Y-67872283D01*
X120836742Y-67326681D01*
X120836744Y-67324089D01*
X123891743Y-67324089D01*
X124117344Y-67870086D01*
X124534717Y-68288188D01*
X125080319Y-68514742D01*
X125671089Y-68515257D01*
X126217086Y-68289656D01*
X126635188Y-67872283D01*
X126861742Y-67326681D01*
X126861744Y-67324089D01*
X127391743Y-67324089D01*
X127617344Y-67870086D01*
X128034717Y-68288188D01*
X128580319Y-68514742D01*
X129171089Y-68515257D01*
X129717086Y-68289656D01*
X130135188Y-67872283D01*
X130361742Y-67326681D01*
X130361744Y-67324089D01*
X133416743Y-67324089D01*
X133642344Y-67870086D01*
X134059717Y-68288188D01*
X134605319Y-68514742D01*
X135196089Y-68515257D01*
X135742086Y-68289656D01*
X136160188Y-67872283D01*
X136386742Y-67326681D01*
X136386744Y-67324089D01*
X136916743Y-67324089D01*
X137142344Y-67870086D01*
X137559717Y-68288188D01*
X138105319Y-68514742D01*
X138696089Y-68515257D01*
X139242086Y-68289656D01*
X139660188Y-67872283D01*
X139804770Y-67524089D01*
X143131743Y-67524089D01*
X143357344Y-68070086D01*
X143664500Y-68377778D01*
X143664500Y-68432081D01*
X143737005Y-68796587D01*
X143943481Y-69105600D01*
X144162901Y-69325020D01*
X144471914Y-69531496D01*
X144836420Y-69604001D01*
X165355499Y-69604001D01*
X165720005Y-69531496D01*
X166029018Y-69325020D01*
X166839158Y-68514880D01*
X167271089Y-68515257D01*
X167817086Y-68289656D01*
X168033160Y-68073958D01*
X172137647Y-68073958D01*
X172217920Y-68325259D01*
X172773279Y-68526718D01*
X173363458Y-68500315D01*
X173786080Y-68325259D01*
X173866353Y-68073958D01*
X173002000Y-67209605D01*
X172137647Y-68073958D01*
X168033160Y-68073958D01*
X168235188Y-67872283D01*
X168461742Y-67326681D01*
X168462200Y-66801279D01*
X171505282Y-66801279D01*
X171531685Y-67391458D01*
X171706741Y-67814080D01*
X171958042Y-67894353D01*
X172822395Y-67030000D01*
X173181605Y-67030000D01*
X174045958Y-67894353D01*
X174297259Y-67814080D01*
X174475005Y-67324089D01*
X175016743Y-67324089D01*
X175242344Y-67870086D01*
X175659717Y-68288188D01*
X176205319Y-68514742D01*
X176796089Y-68515257D01*
X177342086Y-68289656D01*
X177558160Y-68073958D01*
X181662647Y-68073958D01*
X181742920Y-68325259D01*
X182298279Y-68526718D01*
X182888458Y-68500315D01*
X183311080Y-68325259D01*
X183391353Y-68073958D01*
X182527000Y-67209605D01*
X181662647Y-68073958D01*
X177558160Y-68073958D01*
X177760188Y-67872283D01*
X177986742Y-67326681D01*
X177987200Y-66801279D01*
X181030282Y-66801279D01*
X181056685Y-67391458D01*
X181231741Y-67814080D01*
X181483042Y-67894353D01*
X182347395Y-67030000D01*
X182706605Y-67030000D01*
X183570958Y-67894353D01*
X183822259Y-67814080D01*
X184000005Y-67324089D01*
X184541743Y-67324089D01*
X184767344Y-67870086D01*
X185184717Y-68288188D01*
X185730319Y-68514742D01*
X186321089Y-68515257D01*
X186867086Y-68289656D01*
X187285188Y-67872283D01*
X187511742Y-67326681D01*
X187512257Y-66735911D01*
X187286656Y-66189914D01*
X186869283Y-65771812D01*
X186323681Y-65545258D01*
X185732911Y-65544743D01*
X185186914Y-65770344D01*
X184768812Y-66187717D01*
X184542258Y-66733319D01*
X184541743Y-67324089D01*
X184000005Y-67324089D01*
X184023718Y-67258721D01*
X183997315Y-66668542D01*
X183822259Y-66245920D01*
X183570958Y-66165647D01*
X182706605Y-67030000D01*
X182347395Y-67030000D01*
X181483042Y-66165647D01*
X181231741Y-66245920D01*
X181030282Y-66801279D01*
X177987200Y-66801279D01*
X177987257Y-66735911D01*
X177761656Y-66189914D01*
X177558140Y-65986042D01*
X181662647Y-65986042D01*
X182527000Y-66850395D01*
X183391353Y-65986042D01*
X183311080Y-65734741D01*
X182755721Y-65533282D01*
X182165542Y-65559685D01*
X181742920Y-65734741D01*
X181662647Y-65986042D01*
X177558140Y-65986042D01*
X177344283Y-65771812D01*
X176798681Y-65545258D01*
X176207911Y-65544743D01*
X175661914Y-65770344D01*
X175243812Y-66187717D01*
X175017258Y-66733319D01*
X175016743Y-67324089D01*
X174475005Y-67324089D01*
X174498718Y-67258721D01*
X174472315Y-66668542D01*
X174297259Y-66245920D01*
X174045958Y-66165647D01*
X173181605Y-67030000D01*
X172822395Y-67030000D01*
X171958042Y-66165647D01*
X171706741Y-66245920D01*
X171505282Y-66801279D01*
X168462200Y-66801279D01*
X168462257Y-66735911D01*
X168236656Y-66189914D01*
X168033140Y-65986042D01*
X172137647Y-65986042D01*
X173002000Y-66850395D01*
X173866353Y-65986042D01*
X173786080Y-65734741D01*
X173230721Y-65533282D01*
X172640542Y-65559685D01*
X172217920Y-65734741D01*
X172137647Y-65986042D01*
X168033140Y-65986042D01*
X167819283Y-65771812D01*
X167273681Y-65545258D01*
X166682911Y-65544743D01*
X166136914Y-65770344D01*
X165718812Y-66187717D01*
X165492258Y-66733319D01*
X165491879Y-67168083D01*
X164960961Y-67699001D01*
X164814004Y-67699001D01*
X164973718Y-67258721D01*
X164947315Y-66668542D01*
X164772259Y-66245920D01*
X164520958Y-66165647D01*
X163656605Y-67030000D01*
X163670748Y-67044143D01*
X163491143Y-67223748D01*
X163477000Y-67209605D01*
X163462858Y-67223748D01*
X163283253Y-67044143D01*
X163297395Y-67030000D01*
X162433042Y-66165647D01*
X162181741Y-66245920D01*
X161980282Y-66801279D01*
X162006685Y-67391458D01*
X162134074Y-67699001D01*
X158782141Y-67699001D01*
X158936742Y-67326681D01*
X158937257Y-66735911D01*
X158711656Y-66189914D01*
X158508140Y-65986042D01*
X162612647Y-65986042D01*
X163477000Y-66850395D01*
X164341353Y-65986042D01*
X164261080Y-65734741D01*
X163705721Y-65533282D01*
X163115542Y-65559685D01*
X162692920Y-65734741D01*
X162612647Y-65986042D01*
X158508140Y-65986042D01*
X158294283Y-65771812D01*
X157748681Y-65545258D01*
X157157911Y-65544743D01*
X156611914Y-65770344D01*
X156193812Y-66187717D01*
X155967258Y-66733319D01*
X155966743Y-67324089D01*
X156121653Y-67699001D01*
X155282141Y-67699001D01*
X155436742Y-67326681D01*
X155437257Y-66735911D01*
X155211656Y-66189914D01*
X154794283Y-65771812D01*
X154248681Y-65545258D01*
X153657911Y-65544743D01*
X153111914Y-65770344D01*
X152693812Y-66187717D01*
X152467258Y-66733319D01*
X152466743Y-67324089D01*
X152621653Y-67699001D01*
X149526555Y-67699001D01*
X149613718Y-67458721D01*
X149587315Y-66868542D01*
X149412259Y-66445920D01*
X149160958Y-66365647D01*
X148296605Y-67230000D01*
X148310748Y-67244143D01*
X148131143Y-67423748D01*
X148117000Y-67409605D01*
X148102858Y-67423748D01*
X147923253Y-67244143D01*
X147937395Y-67230000D01*
X147073042Y-66365647D01*
X146821741Y-66445920D01*
X146620282Y-67001279D01*
X146646685Y-67591458D01*
X146691231Y-67699001D01*
X146030188Y-67699001D01*
X146101742Y-67526681D01*
X146102257Y-66935911D01*
X145876656Y-66389914D01*
X145673140Y-66186042D01*
X147252647Y-66186042D01*
X148117000Y-67050395D01*
X148981353Y-66186042D01*
X148901080Y-65934741D01*
X148345721Y-65733282D01*
X147755542Y-65759685D01*
X147332920Y-65934741D01*
X147252647Y-66186042D01*
X145673140Y-66186042D01*
X145459283Y-65971812D01*
X144913681Y-65745258D01*
X144322911Y-65744743D01*
X143776914Y-65970344D01*
X143358812Y-66387717D01*
X143132258Y-66933319D01*
X143131743Y-67524089D01*
X139804770Y-67524089D01*
X139886742Y-67326681D01*
X139887257Y-66735911D01*
X139661656Y-66189914D01*
X139244283Y-65771812D01*
X138698681Y-65545258D01*
X138107911Y-65544743D01*
X137561914Y-65770344D01*
X137143812Y-66187717D01*
X136917258Y-66733319D01*
X136916743Y-67324089D01*
X136386744Y-67324089D01*
X136387257Y-66735911D01*
X136161656Y-66189914D01*
X135744283Y-65771812D01*
X135198681Y-65545258D01*
X134607911Y-65544743D01*
X134061914Y-65770344D01*
X133643812Y-66187717D01*
X133417258Y-66733319D01*
X133416743Y-67324089D01*
X130361744Y-67324089D01*
X130362257Y-66735911D01*
X130136656Y-66189914D01*
X129719283Y-65771812D01*
X129173681Y-65545258D01*
X128582911Y-65544743D01*
X128036914Y-65770344D01*
X127618812Y-66187717D01*
X127392258Y-66733319D01*
X127391743Y-67324089D01*
X126861744Y-67324089D01*
X126862257Y-66735911D01*
X126636656Y-66189914D01*
X126219283Y-65771812D01*
X125673681Y-65545258D01*
X125082911Y-65544743D01*
X124536914Y-65770344D01*
X124118812Y-66187717D01*
X123892258Y-66733319D01*
X123891743Y-67324089D01*
X120836744Y-67324089D01*
X120837257Y-66735911D01*
X120611656Y-66189914D01*
X120194283Y-65771812D01*
X119648681Y-65545258D01*
X119483560Y-65545114D01*
X118462535Y-64524089D01*
X143131743Y-64524089D01*
X143357344Y-65070086D01*
X143774717Y-65488188D01*
X144320319Y-65714742D01*
X144911089Y-65715257D01*
X145457086Y-65489656D01*
X145673160Y-65273958D01*
X147252647Y-65273958D01*
X147332920Y-65525259D01*
X147888279Y-65726718D01*
X148478458Y-65700315D01*
X148901080Y-65525259D01*
X148981353Y-65273958D01*
X148117000Y-64409605D01*
X147252647Y-65273958D01*
X145673160Y-65273958D01*
X145875188Y-65072283D01*
X146101742Y-64526681D01*
X146102200Y-64001279D01*
X146620282Y-64001279D01*
X146646685Y-64591458D01*
X146821741Y-65014080D01*
X147073042Y-65094353D01*
X147937395Y-64230000D01*
X148296605Y-64230000D01*
X149160958Y-65094353D01*
X149412259Y-65014080D01*
X149613718Y-64458721D01*
X149587315Y-63868542D01*
X149412259Y-63445920D01*
X149160958Y-63365647D01*
X148296605Y-64230000D01*
X147937395Y-64230000D01*
X147073042Y-63365647D01*
X146821741Y-63445920D01*
X146620282Y-64001279D01*
X146102200Y-64001279D01*
X146102257Y-63935911D01*
X145876656Y-63389914D01*
X145673140Y-63186042D01*
X147252647Y-63186042D01*
X148117000Y-64050395D01*
X148981353Y-63186042D01*
X148901080Y-62934741D01*
X148345721Y-62733282D01*
X147755542Y-62759685D01*
X147332920Y-62934741D01*
X147252647Y-63186042D01*
X145673140Y-63186042D01*
X145459283Y-62971812D01*
X144913681Y-62745258D01*
X144322911Y-62744743D01*
X143776914Y-62970344D01*
X143358812Y-63387717D01*
X143132258Y-63933319D01*
X143131743Y-64524089D01*
X118462535Y-64524089D01*
X115923000Y-61984554D01*
X115923000Y-54726661D01*
X116297758Y-54726661D01*
X116509990Y-55240303D01*
X116902630Y-55633629D01*
X117415900Y-55846757D01*
X117971661Y-55847242D01*
X118485303Y-55635010D01*
X118878629Y-55242370D01*
X118964949Y-55034488D01*
X119049990Y-55240303D01*
X119442630Y-55633629D01*
X119955900Y-55846757D01*
X120511661Y-55847242D01*
X121025303Y-55635010D01*
X121418629Y-55242370D01*
X121504949Y-55034488D01*
X121589990Y-55240303D01*
X121982630Y-55633629D01*
X122495900Y-55846757D01*
X123051661Y-55847242D01*
X123565303Y-55635010D01*
X123958629Y-55242370D01*
X124171757Y-54729100D01*
X124171759Y-54726661D01*
X126457758Y-54726661D01*
X126669990Y-55240303D01*
X127062630Y-55633629D01*
X127575900Y-55846757D01*
X127635363Y-55846809D01*
X128476777Y-56688223D01*
X128847593Y-56935994D01*
X129285000Y-57023000D01*
X132519898Y-57023000D01*
X132558764Y-57061934D01*
X133071300Y-57274758D01*
X133626265Y-57275242D01*
X134139172Y-57063313D01*
X134179555Y-57023000D01*
X138394444Y-57023000D01*
X138473170Y-57140821D01*
X139036044Y-57516922D01*
X139700000Y-57648991D01*
X140363956Y-57516922D01*
X140926830Y-57140821D01*
X141302931Y-56577947D01*
X141435000Y-55913991D01*
X141435000Y-55846009D01*
X141302931Y-55182053D01*
X140926830Y-54619179D01*
X140646997Y-54432200D01*
X146608016Y-54432200D01*
X146135849Y-54526120D01*
X145670302Y-54837189D01*
X145359233Y-55302736D01*
X145250000Y-55851887D01*
X145250000Y-55908113D01*
X145359233Y-56457264D01*
X145670302Y-56922811D01*
X146135849Y-57233880D01*
X146685000Y-57343113D01*
X147234151Y-57233880D01*
X147699698Y-56922811D01*
X148010767Y-56457264D01*
X148069063Y-56164187D01*
X152234752Y-56164187D01*
X152452757Y-56691800D01*
X152856077Y-57095824D01*
X153383309Y-57314750D01*
X153954187Y-57315248D01*
X154481800Y-57097243D01*
X154885824Y-56693923D01*
X155104750Y-56166691D01*
X155104752Y-56164187D01*
X159219752Y-56164187D01*
X159437757Y-56691800D01*
X159841077Y-57095824D01*
X160368309Y-57314750D01*
X160939187Y-57315248D01*
X161466800Y-57097243D01*
X161870824Y-56693923D01*
X162089750Y-56166691D01*
X162090024Y-55851887D01*
X165570000Y-55851887D01*
X165570000Y-55908113D01*
X165679233Y-56457264D01*
X165990302Y-56922811D01*
X166455849Y-57233880D01*
X167005000Y-57343113D01*
X167554151Y-57233880D01*
X168019698Y-56922811D01*
X168330767Y-56457264D01*
X168440000Y-55908113D01*
X168440000Y-55851887D01*
X168330767Y-55302736D01*
X168071016Y-54913991D01*
X170549735Y-54913991D01*
X170782932Y-55478371D01*
X171214357Y-55910551D01*
X171778330Y-56144733D01*
X172388991Y-56145265D01*
X172953371Y-55912068D01*
X173121613Y-55744120D01*
X173121838Y-55745317D01*
X173260910Y-55961441D01*
X173473110Y-56106431D01*
X173725000Y-56157440D01*
X175525000Y-56157440D01*
X175760317Y-56113162D01*
X175976441Y-55974090D01*
X176121431Y-55761890D01*
X176172440Y-55510000D01*
X176172440Y-53710000D01*
X176128162Y-53474683D01*
X175989090Y-53258559D01*
X175776890Y-53113569D01*
X175525000Y-53062560D01*
X173725000Y-53062560D01*
X173489683Y-53106838D01*
X173273559Y-53245910D01*
X173128569Y-53458110D01*
X173124433Y-53478534D01*
X172955643Y-53309449D01*
X172391670Y-53075267D01*
X171781009Y-53074735D01*
X171216629Y-53307932D01*
X170784449Y-53739357D01*
X170550267Y-54303330D01*
X170549735Y-54913991D01*
X168071016Y-54913991D01*
X168019698Y-54837189D01*
X167554151Y-54526120D01*
X167005000Y-54416887D01*
X166455849Y-54526120D01*
X165990302Y-54837189D01*
X165679233Y-55302736D01*
X165570000Y-55851887D01*
X162090024Y-55851887D01*
X162090248Y-55595813D01*
X161872243Y-55068200D01*
X161468923Y-54664176D01*
X160941691Y-54445250D01*
X160370813Y-54444752D01*
X159843200Y-54662757D01*
X159439176Y-55066077D01*
X159220250Y-55593309D01*
X159219752Y-56164187D01*
X155104752Y-56164187D01*
X155105248Y-55595813D01*
X154887243Y-55068200D01*
X154483923Y-54664176D01*
X153956691Y-54445250D01*
X153385813Y-54444752D01*
X152858200Y-54662757D01*
X152454176Y-55066077D01*
X152235250Y-55593309D01*
X152234752Y-56164187D01*
X148069063Y-56164187D01*
X148120000Y-55908113D01*
X148120000Y-55851887D01*
X148010767Y-55302736D01*
X147699698Y-54837189D01*
X147234151Y-54526120D01*
X146761984Y-54432200D01*
X148640800Y-54432200D01*
X149078207Y-54345194D01*
X149449023Y-54097423D01*
X153861406Y-49685040D01*
X154219151Y-49613880D01*
X154534755Y-49403000D01*
X159790245Y-49403000D01*
X160105849Y-49613880D01*
X160655000Y-49723113D01*
X161204151Y-49613880D01*
X161669698Y-49302811D01*
X161980767Y-48837264D01*
X162090000Y-48288113D01*
X162090000Y-48231887D01*
X161980767Y-47682736D01*
X161669698Y-47217189D01*
X161204151Y-46906120D01*
X160655000Y-46796887D01*
X160105849Y-46906120D01*
X159790245Y-47117000D01*
X154534755Y-47117000D01*
X154219151Y-46906120D01*
X153670000Y-46796887D01*
X153120849Y-46906120D01*
X152655302Y-47217189D01*
X152344233Y-47682736D01*
X152273073Y-48040481D01*
X148167354Y-52146200D01*
X134354122Y-52146200D01*
X134469698Y-52098327D01*
X134648327Y-51919699D01*
X134745000Y-51686310D01*
X134745000Y-51085750D01*
X134586250Y-50927000D01*
X133477000Y-50927000D01*
X133477000Y-50947000D01*
X133223000Y-50947000D01*
X133223000Y-50927000D01*
X132113750Y-50927000D01*
X131955000Y-51085750D01*
X131955000Y-51686310D01*
X132051673Y-51919699D01*
X132230302Y-52098327D01*
X132463691Y-52195000D01*
X132522448Y-52195000D01*
X132168066Y-52548764D01*
X131955242Y-53061300D01*
X131954758Y-53616265D01*
X132166687Y-54129172D01*
X132558764Y-54521934D01*
X132770738Y-54609954D01*
X132560828Y-54696687D01*
X132520445Y-54737000D01*
X129758446Y-54737000D01*
X129252192Y-54230746D01*
X129252242Y-54173339D01*
X129040010Y-53659697D01*
X128647370Y-53266371D01*
X128134100Y-53053243D01*
X127578339Y-53052758D01*
X127064697Y-53264990D01*
X126671371Y-53657630D01*
X126458243Y-54170900D01*
X126457758Y-54726661D01*
X124171759Y-54726661D01*
X124172242Y-54173339D01*
X123960010Y-53659697D01*
X123567370Y-53266371D01*
X123054100Y-53053243D01*
X122498339Y-53052758D01*
X121984697Y-53264990D01*
X121591371Y-53657630D01*
X121505051Y-53865512D01*
X121420010Y-53659697D01*
X121027370Y-53266371D01*
X120514100Y-53053243D01*
X119958339Y-53052758D01*
X119444697Y-53264990D01*
X119051371Y-53657630D01*
X118965051Y-53865512D01*
X118880010Y-53659697D01*
X118487370Y-53266371D01*
X117974100Y-53053243D01*
X117418339Y-53052758D01*
X116904697Y-53264990D01*
X116511371Y-53657630D01*
X116298243Y-54170900D01*
X116297758Y-54726661D01*
X115923000Y-54726661D01*
X115923000Y-49646661D01*
X116297758Y-49646661D01*
X116509990Y-50160303D01*
X116902630Y-50553629D01*
X117415900Y-50766757D01*
X117971661Y-50767242D01*
X118485303Y-50555010D01*
X118878629Y-50162370D01*
X118964949Y-49954488D01*
X119049990Y-50160303D01*
X119442630Y-50553629D01*
X119955900Y-50766757D01*
X120511661Y-50767242D01*
X121025303Y-50555010D01*
X121418629Y-50162370D01*
X121504949Y-49954488D01*
X121589990Y-50160303D01*
X121982630Y-50553629D01*
X122495900Y-50766757D01*
X123051661Y-50767242D01*
X123565303Y-50555010D01*
X123958629Y-50162370D01*
X124171757Y-49649100D01*
X124171759Y-49646661D01*
X126457758Y-49646661D01*
X126669990Y-50160303D01*
X127062630Y-50553629D01*
X127575900Y-50766757D01*
X128131661Y-50767242D01*
X128645303Y-50555010D01*
X129038629Y-50162370D01*
X129141889Y-49913690D01*
X131955000Y-49913690D01*
X131955000Y-50514250D01*
X132113750Y-50673000D01*
X133223000Y-50673000D01*
X133223000Y-49563750D01*
X133477000Y-49563750D01*
X133477000Y-50673000D01*
X134586250Y-50673000D01*
X134745000Y-50514250D01*
X134745000Y-49913690D01*
X134648327Y-49680301D01*
X134469698Y-49501673D01*
X134236309Y-49405000D01*
X133635750Y-49405000D01*
X133477000Y-49563750D01*
X133223000Y-49563750D01*
X133064250Y-49405000D01*
X132463691Y-49405000D01*
X132230302Y-49501673D01*
X132051673Y-49680301D01*
X131955000Y-49913690D01*
X129141889Y-49913690D01*
X129251757Y-49649100D01*
X129252242Y-49093339D01*
X129040010Y-48579697D01*
X128647370Y-48186371D01*
X128134100Y-47973243D01*
X127578339Y-47972758D01*
X127064697Y-48184990D01*
X126671371Y-48577630D01*
X126458243Y-49090900D01*
X126457758Y-49646661D01*
X124171759Y-49646661D01*
X124172242Y-49093339D01*
X123960010Y-48579697D01*
X123567370Y-48186371D01*
X123054100Y-47973243D01*
X122498339Y-47972758D01*
X121984697Y-48184990D01*
X121591371Y-48577630D01*
X121505051Y-48785512D01*
X121420010Y-48579697D01*
X121027370Y-48186371D01*
X120514100Y-47973243D01*
X119958339Y-47972758D01*
X119444697Y-48184990D01*
X119051371Y-48577630D01*
X118965051Y-48785512D01*
X118880010Y-48579697D01*
X118487370Y-48186371D01*
X117974100Y-47973243D01*
X117418339Y-47972758D01*
X116904697Y-48184990D01*
X116511371Y-48577630D01*
X116298243Y-49090900D01*
X116297758Y-49646661D01*
X115923000Y-49646661D01*
X115923000Y-48253446D01*
X118244704Y-45931742D01*
X118413481Y-46100520D01*
X118722495Y-46306996D01*
X119087001Y-46379501D01*
X124771939Y-46379501D01*
X124968000Y-46418500D01*
X125056001Y-46418500D01*
X125252062Y-46379501D01*
X133661939Y-46379501D01*
X133858000Y-46418500D01*
X133946001Y-46418500D01*
X134142062Y-46379501D01*
X138722999Y-46379501D01*
X139087505Y-46306996D01*
X139396518Y-46100520D01*
X139420648Y-46076390D01*
X139526777Y-46235224D01*
X139897593Y-46482995D01*
X140046226Y-46512560D01*
X138600000Y-46512560D01*
X138364683Y-46556838D01*
X138148559Y-46695910D01*
X138003569Y-46908110D01*
X137952560Y-47160000D01*
X137952560Y-49360000D01*
X137996838Y-49595317D01*
X138135910Y-49811441D01*
X138348110Y-49956431D01*
X138600000Y-50007440D01*
X140800000Y-50007440D01*
X141035317Y-49963162D01*
X141251441Y-49824090D01*
X141396431Y-49611890D01*
X141447440Y-49360000D01*
X141447440Y-48544187D01*
X145249752Y-48544187D01*
X145467757Y-49071800D01*
X145871077Y-49475824D01*
X146398309Y-49694750D01*
X146969187Y-49695248D01*
X147496800Y-49477243D01*
X147900824Y-49073923D01*
X148119750Y-48546691D01*
X148120248Y-47975813D01*
X147902243Y-47448200D01*
X147498923Y-47044176D01*
X146971691Y-46825250D01*
X146400813Y-46824752D01*
X145873200Y-47042757D01*
X145469176Y-47446077D01*
X145250250Y-47973309D01*
X145249752Y-48544187D01*
X141447440Y-48544187D01*
X141447440Y-47160000D01*
X141403162Y-46924683D01*
X141264090Y-46708559D01*
X141061304Y-46570001D01*
X165862000Y-46570001D01*
X165862000Y-47373380D01*
X165789176Y-47446077D01*
X165570250Y-47973309D01*
X165569752Y-48544187D01*
X165787757Y-49071800D01*
X166191077Y-49475824D01*
X166718309Y-49694750D01*
X167289187Y-49695248D01*
X167816800Y-49477243D01*
X168220824Y-49073923D01*
X168439750Y-48546691D01*
X168440248Y-47975813D01*
X168222243Y-47448200D01*
X168148000Y-47373827D01*
X168148000Y-46570001D01*
X182537999Y-46570001D01*
X182975406Y-46482995D01*
X183346222Y-46235224D01*
X186909254Y-42672192D01*
X186966661Y-42672242D01*
X187480303Y-42460010D01*
X187685457Y-42255213D01*
X188429392Y-42255213D01*
X188498857Y-42497397D01*
X189022302Y-42684144D01*
X189577368Y-42656362D01*
X189961143Y-42497397D01*
X190030608Y-42255213D01*
X189230000Y-41454605D01*
X188429392Y-42255213D01*
X187685457Y-42255213D01*
X187873629Y-42067370D01*
X187953395Y-41875273D01*
X188007603Y-42006143D01*
X188249787Y-42075608D01*
X189050395Y-41275000D01*
X189036253Y-41260858D01*
X189215858Y-41081253D01*
X189230000Y-41095395D01*
X189244143Y-41081253D01*
X189423748Y-41260858D01*
X189409605Y-41275000D01*
X190210213Y-42075608D01*
X190452397Y-42006143D01*
X190502509Y-41865682D01*
X190584990Y-42065303D01*
X190977630Y-42458629D01*
X191490900Y-42671757D01*
X192046661Y-42672242D01*
X192560303Y-42460010D01*
X192953629Y-42067370D01*
X193166757Y-41554100D01*
X193167242Y-40998339D01*
X192955010Y-40484697D01*
X192562370Y-40091371D01*
X192049100Y-39878243D01*
X191719994Y-39877956D01*
X191236574Y-39394536D01*
X192529482Y-39395664D01*
X193939515Y-38813050D01*
X194362000Y-38391302D01*
X194362000Y-72098280D01*
X193945189Y-71680741D01*
X192536175Y-71095667D01*
X191010518Y-71094336D01*
X189600485Y-71676950D01*
X188520741Y-72754811D01*
X187935667Y-74163825D01*
X187934336Y-75689482D01*
X188516950Y-77099515D01*
X189594811Y-78179259D01*
X190639375Y-78613000D01*
X108443957Y-78613000D01*
X109484515Y-78183050D01*
X110564259Y-77105189D01*
X111149333Y-75696175D01*
X111149645Y-75337870D01*
X115178583Y-75337870D01*
X115545166Y-76225069D01*
X116223361Y-76904449D01*
X117109919Y-77272580D01*
X118069870Y-77273417D01*
X118957069Y-76906834D01*
X119636449Y-76228639D01*
X120004580Y-75342081D01*
X120004583Y-75337870D01*
X124703583Y-75337870D01*
X125070166Y-76225069D01*
X125748361Y-76904449D01*
X126634919Y-77272580D01*
X127594870Y-77273417D01*
X128482069Y-76906834D01*
X129161449Y-76228639D01*
X129529580Y-75342081D01*
X129529583Y-75337870D01*
X134228583Y-75337870D01*
X134595166Y-76225069D01*
X135273361Y-76904449D01*
X136159919Y-77272580D01*
X137119870Y-77273417D01*
X138007069Y-76906834D01*
X138686449Y-76228639D01*
X138931757Y-75637870D01*
X143943583Y-75637870D01*
X144310166Y-76525069D01*
X144988361Y-77204449D01*
X145874919Y-77572580D01*
X146834870Y-77573417D01*
X147722069Y-77206834D01*
X148401449Y-76528639D01*
X148769580Y-75642081D01*
X148769845Y-75337870D01*
X153278583Y-75337870D01*
X153645166Y-76225069D01*
X154323361Y-76904449D01*
X155209919Y-77272580D01*
X156169870Y-77273417D01*
X157057069Y-76906834D01*
X157736449Y-76228639D01*
X158104580Y-75342081D01*
X158104583Y-75337870D01*
X162803583Y-75337870D01*
X163170166Y-76225069D01*
X163848361Y-76904449D01*
X164734919Y-77272580D01*
X165694870Y-77273417D01*
X166582069Y-76906834D01*
X167261449Y-76228639D01*
X167629580Y-75342081D01*
X167629583Y-75337870D01*
X172328583Y-75337870D01*
X172695166Y-76225069D01*
X173373361Y-76904449D01*
X174259919Y-77272580D01*
X175219870Y-77273417D01*
X176107069Y-76906834D01*
X176786449Y-76228639D01*
X177154580Y-75342081D01*
X177154583Y-75337870D01*
X181853583Y-75337870D01*
X182220166Y-76225069D01*
X182898361Y-76904449D01*
X183784919Y-77272580D01*
X184744870Y-77273417D01*
X185632069Y-76906834D01*
X186311449Y-76228639D01*
X186679580Y-75342081D01*
X186680417Y-74382130D01*
X186313834Y-73494931D01*
X185635639Y-72815551D01*
X184749081Y-72447420D01*
X183789130Y-72446583D01*
X182901931Y-72813166D01*
X182222551Y-73491361D01*
X181854420Y-74377919D01*
X181853583Y-75337870D01*
X177154583Y-75337870D01*
X177155417Y-74382130D01*
X176788834Y-73494931D01*
X176110639Y-72815551D01*
X175224081Y-72447420D01*
X174264130Y-72446583D01*
X173376931Y-72813166D01*
X172697551Y-73491361D01*
X172329420Y-74377919D01*
X172328583Y-75337870D01*
X167629583Y-75337870D01*
X167630417Y-74382130D01*
X167263834Y-73494931D01*
X166585639Y-72815551D01*
X165699081Y-72447420D01*
X164739130Y-72446583D01*
X163851931Y-72813166D01*
X163172551Y-73491361D01*
X162804420Y-74377919D01*
X162803583Y-75337870D01*
X158104583Y-75337870D01*
X158105417Y-74382130D01*
X157738834Y-73494931D01*
X157060639Y-72815551D01*
X156174081Y-72447420D01*
X155214130Y-72446583D01*
X154326931Y-72813166D01*
X153647551Y-73491361D01*
X153279420Y-74377919D01*
X153278583Y-75337870D01*
X148769845Y-75337870D01*
X148770417Y-74682130D01*
X148403834Y-73794931D01*
X147725639Y-73115551D01*
X146839081Y-72747420D01*
X145879130Y-72746583D01*
X144991931Y-73113166D01*
X144312551Y-73791361D01*
X143944420Y-74677919D01*
X143943583Y-75637870D01*
X138931757Y-75637870D01*
X139054580Y-75342081D01*
X139055417Y-74382130D01*
X138688834Y-73494931D01*
X138010639Y-72815551D01*
X137124081Y-72447420D01*
X136164130Y-72446583D01*
X135276931Y-72813166D01*
X134597551Y-73491361D01*
X134229420Y-74377919D01*
X134228583Y-75337870D01*
X129529583Y-75337870D01*
X129530417Y-74382130D01*
X129163834Y-73494931D01*
X128485639Y-72815551D01*
X127599081Y-72447420D01*
X126639130Y-72446583D01*
X125751931Y-72813166D01*
X125072551Y-73491361D01*
X124704420Y-74377919D01*
X124703583Y-75337870D01*
X120004583Y-75337870D01*
X120005417Y-74382130D01*
X119638834Y-73494931D01*
X118960639Y-72815551D01*
X118074081Y-72447420D01*
X117114130Y-72446583D01*
X116226931Y-72813166D01*
X115547551Y-73491361D01*
X115179420Y-74377919D01*
X115178583Y-75337870D01*
X111149645Y-75337870D01*
X111150664Y-74170518D01*
X110568050Y-72760485D01*
X109490189Y-71680741D01*
X108081175Y-71095667D01*
X106555518Y-71094336D01*
X105145485Y-71676950D01*
X104342000Y-72479034D01*
X104342000Y-38010054D01*
X105139811Y-38809259D01*
X106548825Y-39394333D01*
X108074482Y-39395664D01*
X109484515Y-38813050D01*
X110564259Y-37735189D01*
X111149333Y-36326175D01*
X111150664Y-34800518D01*
X110568050Y-33390485D01*
X110483463Y-33305750D01*
X115141756Y-33305750D01*
X115141756Y-34746510D01*
X115238429Y-34979899D01*
X115417058Y-35158527D01*
X115650447Y-35255200D01*
X116094256Y-35255200D01*
X116253006Y-35096450D01*
X116253006Y-33147000D01*
X115300506Y-33147000D01*
X115141756Y-33305750D01*
X110483463Y-33305750D01*
X109490189Y-32310741D01*
X108081175Y-31725667D01*
X106555518Y-31724336D01*
X105145485Y-32306950D01*
X104342000Y-33109034D01*
X104342000Y-31293490D01*
X115141756Y-31293490D01*
X115141756Y-32734250D01*
X115300506Y-32893000D01*
X116253006Y-32893000D01*
X116253006Y-30943550D01*
X116507006Y-30943550D01*
X116507006Y-32893000D01*
X116527006Y-32893000D01*
X116527006Y-33147000D01*
X116507006Y-33147000D01*
X116507006Y-35096450D01*
X116665756Y-35255200D01*
X117109565Y-35255200D01*
X117342954Y-35158527D01*
X117382275Y-35119206D01*
X117427502Y-35150108D01*
X117427502Y-35190755D01*
X117411500Y-35271202D01*
X117484005Y-35635708D01*
X117690481Y-35944721D01*
X117725279Y-35979519D01*
X117910279Y-36103132D01*
X117913666Y-36106519D01*
X118222679Y-36312995D01*
X118587185Y-36385500D01*
X119405684Y-36385500D01*
X119186234Y-36476175D01*
X118900179Y-36761731D01*
X118745176Y-37135018D01*
X118744824Y-37539208D01*
X118899175Y-37912766D01*
X119184731Y-38198821D01*
X119558018Y-38353824D01*
X119962208Y-38354176D01*
X120335766Y-38199825D01*
X120372154Y-38163500D01*
X132992472Y-38163500D01*
X133027731Y-38198821D01*
X133401018Y-38353824D01*
X133805208Y-38354176D01*
X134178766Y-38199825D01*
X134215154Y-38163500D01*
X148094606Y-38163500D01*
X148256655Y-38325832D01*
X148629942Y-38480835D01*
X149034132Y-38481187D01*
X149407690Y-38326836D01*
X149571311Y-38163500D01*
X163599472Y-38163500D01*
X163634731Y-38198821D01*
X164008018Y-38353824D01*
X164412208Y-38354176D01*
X164785766Y-38199825D01*
X164822154Y-38163500D01*
X179166185Y-38163500D01*
X179376007Y-38121764D01*
X179629018Y-38226824D01*
X180033208Y-38227176D01*
X180406766Y-38072825D01*
X180692821Y-37787269D01*
X180847824Y-37413982D01*
X180848056Y-37147500D01*
X181000518Y-37147500D01*
X181153018Y-37210824D01*
X181557208Y-37211176D01*
X181930766Y-37056825D01*
X182216821Y-36771269D01*
X182371824Y-36397982D01*
X182372176Y-35993792D01*
X182217825Y-35620234D01*
X181932269Y-35334179D01*
X181558982Y-35179176D01*
X181154792Y-35178824D01*
X180781234Y-35333175D01*
X180617624Y-35496500D01*
X169114779Y-35496500D01*
X169115065Y-35168282D01*
X169095971Y-35122071D01*
X169154685Y-35084290D01*
X169299675Y-34872090D01*
X169350684Y-34620200D01*
X169350684Y-31419800D01*
X169306406Y-31184483D01*
X169167334Y-30968359D01*
X168955134Y-30823369D01*
X168703244Y-30772360D01*
X167496744Y-30772360D01*
X167261427Y-30816638D01*
X167098617Y-30921404D01*
X166955138Y-30823369D01*
X166941500Y-30820607D01*
X166941500Y-30708482D01*
X167004824Y-30555982D01*
X167005176Y-30151792D01*
X166850825Y-29778234D01*
X166565269Y-29492179D01*
X166191982Y-29337176D01*
X165787792Y-29336824D01*
X165414234Y-29491175D01*
X165128179Y-29776731D01*
X164973176Y-30150018D01*
X164972824Y-30554208D01*
X165036500Y-30708316D01*
X165036500Y-30878959D01*
X164955142Y-30823369D01*
X164703252Y-30772360D01*
X163496752Y-30772360D01*
X163261435Y-30816638D01*
X163101217Y-30919736D01*
X163062954Y-30881473D01*
X162829565Y-30784800D01*
X162385756Y-30784800D01*
X162227006Y-30943550D01*
X162227006Y-32893000D01*
X162247006Y-32893000D01*
X162247006Y-33147000D01*
X162227006Y-33147000D01*
X162227006Y-35096450D01*
X162385756Y-35255200D01*
X162829565Y-35255200D01*
X163062954Y-35158527D01*
X163102275Y-35119206D01*
X163244862Y-35216631D01*
X163274502Y-35222633D01*
X163274502Y-35623500D01*
X154050469Y-35623500D01*
X154050755Y-35295282D01*
X153945151Y-35039701D01*
X154059675Y-34872090D01*
X154110684Y-34620200D01*
X154110684Y-33305750D01*
X160861756Y-33305750D01*
X160861756Y-34746510D01*
X160958429Y-34979899D01*
X161137058Y-35158527D01*
X161370447Y-35255200D01*
X161814256Y-35255200D01*
X161973006Y-35096450D01*
X161973006Y-33147000D01*
X161020506Y-33147000D01*
X160861756Y-33305750D01*
X154110684Y-33305750D01*
X154110684Y-31419800D01*
X154086918Y-31293490D01*
X160861756Y-31293490D01*
X160861756Y-32734250D01*
X161020506Y-32893000D01*
X161973006Y-32893000D01*
X161973006Y-30943550D01*
X161814256Y-30784800D01*
X161370447Y-30784800D01*
X161137058Y-30881473D01*
X160958429Y-31060101D01*
X160861756Y-31293490D01*
X154086918Y-31293490D01*
X154066406Y-31184483D01*
X153927334Y-30968359D01*
X153715134Y-30823369D01*
X153463244Y-30772360D01*
X152256744Y-30772360D01*
X152021427Y-30816638D01*
X151858617Y-30921404D01*
X151715138Y-30823369D01*
X151504059Y-30780625D01*
X151736821Y-30548269D01*
X151891824Y-30174982D01*
X151892176Y-29770792D01*
X151737825Y-29397234D01*
X151452269Y-29111179D01*
X151078982Y-28956176D01*
X150674792Y-28955824D01*
X150520684Y-29019500D01*
X149672802Y-29019500D01*
X149308296Y-29092005D01*
X148999283Y-29298481D01*
X148186483Y-30111281D01*
X147980007Y-30420294D01*
X147907502Y-30784800D01*
X147907502Y-30889952D01*
X147861217Y-30919736D01*
X147822954Y-30881473D01*
X147589565Y-30784800D01*
X147145756Y-30784800D01*
X146987006Y-30943550D01*
X146987006Y-32893000D01*
X147007006Y-32893000D01*
X147007006Y-33147000D01*
X146987006Y-33147000D01*
X146987006Y-35096450D01*
X147145756Y-35255200D01*
X147589565Y-35255200D01*
X147822954Y-35158527D01*
X147862275Y-35119206D01*
X148004538Y-35216409D01*
X147983179Y-35237731D01*
X147828176Y-35611018D01*
X147827999Y-35814001D01*
X138544710Y-35814001D01*
X138624705Y-35621352D01*
X138625057Y-35217162D01*
X138592110Y-35137425D01*
X138674685Y-35084290D01*
X138819675Y-34872090D01*
X138870684Y-34620200D01*
X138870684Y-33305750D01*
X145621756Y-33305750D01*
X145621756Y-34746510D01*
X145718429Y-34979899D01*
X145897058Y-35158527D01*
X146130447Y-35255200D01*
X146574256Y-35255200D01*
X146733006Y-35096450D01*
X146733006Y-33147000D01*
X145780506Y-33147000D01*
X145621756Y-33305750D01*
X138870684Y-33305750D01*
X138870684Y-31419800D01*
X138846918Y-31293490D01*
X145621756Y-31293490D01*
X145621756Y-32734250D01*
X145780506Y-32893000D01*
X146733006Y-32893000D01*
X146733006Y-30943550D01*
X146574256Y-30784800D01*
X146130447Y-30784800D01*
X145897058Y-30881473D01*
X145718429Y-31060101D01*
X145621756Y-31293490D01*
X138846918Y-31293490D01*
X138826406Y-31184483D01*
X138687334Y-30968359D01*
X138475134Y-30823369D01*
X138223244Y-30772360D01*
X137016744Y-30772360D01*
X136781427Y-30816638D01*
X136618617Y-30921404D01*
X136608441Y-30914451D01*
X136651820Y-30809982D01*
X136652172Y-30405792D01*
X136497821Y-30032234D01*
X136212265Y-29746179D01*
X135838978Y-29591176D01*
X135434788Y-29590824D01*
X135061230Y-29745175D01*
X134775175Y-30030731D01*
X134620172Y-30404018D01*
X134619820Y-30808208D01*
X134656516Y-30897019D01*
X134618621Y-30921404D01*
X134475142Y-30823369D01*
X134223252Y-30772360D01*
X133016752Y-30772360D01*
X132781435Y-30816638D01*
X132621217Y-30919736D01*
X132582954Y-30881473D01*
X132349565Y-30784800D01*
X131905756Y-30784800D01*
X131747006Y-30943550D01*
X131747006Y-32893000D01*
X131767006Y-32893000D01*
X131767006Y-33147000D01*
X131747006Y-33147000D01*
X131747006Y-35096450D01*
X131905756Y-35255200D01*
X132349565Y-35255200D01*
X132582954Y-35158527D01*
X132622275Y-35119206D01*
X132667502Y-35150108D01*
X132667502Y-35255200D01*
X132690238Y-35369500D01*
X123443901Y-35369500D01*
X123444162Y-35070420D01*
X123579675Y-34872090D01*
X123630684Y-34620200D01*
X123630684Y-33305750D01*
X130381756Y-33305750D01*
X130381756Y-34746510D01*
X130478429Y-34979899D01*
X130657058Y-35158527D01*
X130890447Y-35255200D01*
X131334256Y-35255200D01*
X131493006Y-35096450D01*
X131493006Y-33147000D01*
X130540506Y-33147000D01*
X130381756Y-33305750D01*
X123630684Y-33305750D01*
X123630684Y-31419800D01*
X123606918Y-31293490D01*
X130381756Y-31293490D01*
X130381756Y-32734250D01*
X130540506Y-32893000D01*
X131493006Y-32893000D01*
X131493006Y-30943550D01*
X131334256Y-30784800D01*
X130890447Y-30784800D01*
X130657058Y-30881473D01*
X130478429Y-31060101D01*
X130381756Y-31293490D01*
X123606918Y-31293490D01*
X123586406Y-31184483D01*
X123447334Y-30968359D01*
X123235134Y-30823369D01*
X122983244Y-30772360D01*
X121776744Y-30772360D01*
X121541427Y-30816638D01*
X121378617Y-30921404D01*
X121332498Y-30889892D01*
X121332498Y-30851484D01*
X121395822Y-30698984D01*
X121396174Y-30294794D01*
X121241823Y-29921236D01*
X120956267Y-29635181D01*
X120582980Y-29480178D01*
X120178790Y-29479826D01*
X119805232Y-29634177D01*
X119519177Y-29919733D01*
X119364174Y-30293020D01*
X119363822Y-30697210D01*
X119427498Y-30851318D01*
X119427498Y-30889952D01*
X119378621Y-30921404D01*
X119235142Y-30823369D01*
X118983252Y-30772360D01*
X117776752Y-30772360D01*
X117541435Y-30816638D01*
X117381217Y-30919736D01*
X117342954Y-30881473D01*
X117109565Y-30784800D01*
X116665756Y-30784800D01*
X116507006Y-30943550D01*
X116253006Y-30943550D01*
X116094256Y-30784800D01*
X115650447Y-30784800D01*
X115417058Y-30881473D01*
X115238429Y-31060101D01*
X115141756Y-31293490D01*
X104342000Y-31293490D01*
X104342000Y-24257000D01*
X112182535Y-24257000D01*
X112182535Y-29500322D01*
X112182535Y-29500322D01*
G37*
X112182535Y-29500322D02*
X112226813Y-29735639D01*
X112365885Y-29951763D01*
X112578085Y-30096753D01*
X112829975Y-30147762D01*
X114529997Y-30147762D01*
X114765314Y-30103484D01*
X114981438Y-29964412D01*
X115126428Y-29752212D01*
X115177437Y-29500322D01*
X115177437Y-24257000D01*
X123582563Y-24257000D01*
X123582563Y-29500322D01*
X123626841Y-29735639D01*
X123765913Y-29951763D01*
X123978113Y-30096753D01*
X124230003Y-30147762D01*
X125930025Y-30147762D01*
X126165342Y-30103484D01*
X126381466Y-29964412D01*
X126526456Y-29752212D01*
X126577465Y-29500322D01*
X126577465Y-24257000D01*
X127422535Y-24257000D01*
X127422535Y-29500322D01*
X127466813Y-29735639D01*
X127605885Y-29951763D01*
X127818085Y-30096753D01*
X128069975Y-30147762D01*
X129769997Y-30147762D01*
X130005314Y-30103484D01*
X130221438Y-29964412D01*
X130366428Y-29752212D01*
X130417437Y-29500322D01*
X130417437Y-24257000D01*
X138822563Y-24257000D01*
X138822563Y-29500322D01*
X138866841Y-29735639D01*
X139005913Y-29951763D01*
X139218113Y-30096753D01*
X139470003Y-30147762D01*
X141170025Y-30147762D01*
X141405342Y-30103484D01*
X141621466Y-29964412D01*
X141766456Y-29752212D01*
X141817465Y-29500322D01*
X141817465Y-24257000D01*
X142662535Y-24257000D01*
X142662535Y-29500322D01*
X142706813Y-29735639D01*
X142845885Y-29951763D01*
X143058085Y-30096753D01*
X143309975Y-30147762D01*
X145009997Y-30147762D01*
X145245314Y-30103484D01*
X145461438Y-29964412D01*
X145606428Y-29752212D01*
X145657437Y-29500322D01*
X145657437Y-24257000D01*
X154062563Y-24257000D01*
X154062563Y-29500322D01*
X154106841Y-29735639D01*
X154245913Y-29951763D01*
X154458113Y-30096753D01*
X154710003Y-30147762D01*
X156410025Y-30147762D01*
X156645342Y-30103484D01*
X156861466Y-29964412D01*
X157006456Y-29752212D01*
X157057465Y-29500322D01*
X157057465Y-24257000D01*
X157902535Y-24257000D01*
X157902535Y-29500322D01*
X157946813Y-29735639D01*
X158085885Y-29951763D01*
X158298085Y-30096753D01*
X158549975Y-30147762D01*
X160249997Y-30147762D01*
X160485314Y-30103484D01*
X160701438Y-29964412D01*
X160846428Y-29752212D01*
X160897437Y-29500322D01*
X160897437Y-24257000D01*
X169302563Y-24257000D01*
X169302563Y-29500322D01*
X169346841Y-29735639D01*
X169485913Y-29951763D01*
X169698113Y-30096753D01*
X169950003Y-30147762D01*
X171650025Y-30147762D01*
X171885342Y-30103484D01*
X172101466Y-29964412D01*
X172246456Y-29752212D01*
X172297465Y-29500322D01*
X172297465Y-24257000D01*
X194362000Y-24257000D01*
X194362000Y-32728280D01*
X193945189Y-32310741D01*
X192536175Y-31725667D01*
X191010518Y-31724336D01*
X189600485Y-32306950D01*
X188520741Y-33384811D01*
X187935667Y-34793825D01*
X187934336Y-36319482D01*
X188516950Y-37729515D01*
X189457292Y-38671500D01*
X178119063Y-38671500D01*
X178037506Y-38617005D01*
X177673000Y-38544500D01*
X166243000Y-38544500D01*
X165878494Y-38617005D01*
X165569481Y-38823481D01*
X164584899Y-39808063D01*
X164494093Y-39790000D01*
X164454038Y-39790000D01*
X163487519Y-38823481D01*
X163178506Y-38617005D01*
X162814000Y-38544500D01*
X118745000Y-38544500D01*
X118380494Y-38617005D01*
X118071481Y-38823481D01*
X117865005Y-39132494D01*
X117792500Y-39497000D01*
X117792500Y-40140323D01*
X117665853Y-40224946D01*
X117665029Y-40226179D01*
X117658162Y-40189683D01*
X117519090Y-39973559D01*
X117306890Y-39828569D01*
X117055000Y-39777560D01*
X115355000Y-39777560D01*
X115119683Y-39821838D01*
X114903559Y-39960910D01*
X114758569Y-40173110D01*
X114707560Y-40425000D01*
X114707560Y-42125000D01*
X114751838Y-42360317D01*
X114890910Y-42576441D01*
X115103110Y-42721431D01*
X115170541Y-42735086D01*
X115125853Y-42764946D01*
X114803946Y-43246715D01*
X114690907Y-43815000D01*
X114803946Y-44383285D01*
X115125853Y-44865054D01*
X115607622Y-45186961D01*
X115731877Y-45211677D01*
X113971777Y-46971777D01*
X113724006Y-47342593D01*
X113637000Y-47780000D01*
X113637000Y-62458000D01*
X113724006Y-62895407D01*
X113971777Y-63266223D01*
X116323335Y-65617781D01*
X116148681Y-65545258D01*
X115557911Y-65544743D01*
X115011914Y-65770344D01*
X114593812Y-66187717D01*
X114367258Y-66733319D01*
X114366743Y-67324089D01*
X114592344Y-67870086D01*
X115009717Y-68288188D01*
X115555319Y-68514742D01*
X116146089Y-68515257D01*
X116692086Y-68289656D01*
X117110188Y-67872283D01*
X117336742Y-67326681D01*
X117337257Y-66735911D01*
X117263881Y-66558327D01*
X117866885Y-67161331D01*
X117866743Y-67324089D01*
X118092344Y-67870086D01*
X118509717Y-68288188D01*
X119055319Y-68514742D01*
X119646089Y-68515257D01*
X120192086Y-68289656D01*
X120610188Y-67872283D01*
X120836742Y-67326681D01*
X120836744Y-67324089D01*
X123891743Y-67324089D01*
X124117344Y-67870086D01*
X124534717Y-68288188D01*
X125080319Y-68514742D01*
X125671089Y-68515257D01*
X126217086Y-68289656D01*
X126635188Y-67872283D01*
X126861742Y-67326681D01*
X126861744Y-67324089D01*
X127391743Y-67324089D01*
X127617344Y-67870086D01*
X128034717Y-68288188D01*
X128580319Y-68514742D01*
X129171089Y-68515257D01*
X129717086Y-68289656D01*
X130135188Y-67872283D01*
X130361742Y-67326681D01*
X130361744Y-67324089D01*
X133416743Y-67324089D01*
X133642344Y-67870086D01*
X134059717Y-68288188D01*
X134605319Y-68514742D01*
X135196089Y-68515257D01*
X135742086Y-68289656D01*
X136160188Y-67872283D01*
X136386742Y-67326681D01*
X136386744Y-67324089D01*
X136916743Y-67324089D01*
X137142344Y-67870086D01*
X137559717Y-68288188D01*
X138105319Y-68514742D01*
X138696089Y-68515257D01*
X139242086Y-68289656D01*
X139660188Y-67872283D01*
X139804770Y-67524089D01*
X143131743Y-67524089D01*
X143357344Y-68070086D01*
X143664500Y-68377778D01*
X143664500Y-68432081D01*
X143737005Y-68796587D01*
X143943481Y-69105600D01*
X144162901Y-69325020D01*
X144471914Y-69531496D01*
X144836420Y-69604001D01*
X165355499Y-69604001D01*
X165720005Y-69531496D01*
X166029018Y-69325020D01*
X166839158Y-68514880D01*
X167271089Y-68515257D01*
X167817086Y-68289656D01*
X168033160Y-68073958D01*
X172137647Y-68073958D01*
X172217920Y-68325259D01*
X172773279Y-68526718D01*
X173363458Y-68500315D01*
X173786080Y-68325259D01*
X173866353Y-68073958D01*
X173002000Y-67209605D01*
X172137647Y-68073958D01*
X168033160Y-68073958D01*
X168235188Y-67872283D01*
X168461742Y-67326681D01*
X168462200Y-66801279D01*
X171505282Y-66801279D01*
X171531685Y-67391458D01*
X171706741Y-67814080D01*
X171958042Y-67894353D01*
X172822395Y-67030000D01*
X173181605Y-67030000D01*
X174045958Y-67894353D01*
X174297259Y-67814080D01*
X174475005Y-67324089D01*
X175016743Y-67324089D01*
X175242344Y-67870086D01*
X175659717Y-68288188D01*
X176205319Y-68514742D01*
X176796089Y-68515257D01*
X177342086Y-68289656D01*
X177558160Y-68073958D01*
X181662647Y-68073958D01*
X181742920Y-68325259D01*
X182298279Y-68526718D01*
X182888458Y-68500315D01*
X183311080Y-68325259D01*
X183391353Y-68073958D01*
X182527000Y-67209605D01*
X181662647Y-68073958D01*
X177558160Y-68073958D01*
X177760188Y-67872283D01*
X177986742Y-67326681D01*
X177987200Y-66801279D01*
X181030282Y-66801279D01*
X181056685Y-67391458D01*
X181231741Y-67814080D01*
X181483042Y-67894353D01*
X182347395Y-67030000D01*
X182706605Y-67030000D01*
X183570958Y-67894353D01*
X183822259Y-67814080D01*
X184000005Y-67324089D01*
X184541743Y-67324089D01*
X184767344Y-67870086D01*
X185184717Y-68288188D01*
X185730319Y-68514742D01*
X186321089Y-68515257D01*
X186867086Y-68289656D01*
X187285188Y-67872283D01*
X187511742Y-67326681D01*
X187512257Y-66735911D01*
X187286656Y-66189914D01*
X186869283Y-65771812D01*
X186323681Y-65545258D01*
X185732911Y-65544743D01*
X185186914Y-65770344D01*
X184768812Y-66187717D01*
X184542258Y-66733319D01*
X184541743Y-67324089D01*
X184000005Y-67324089D01*
X184023718Y-67258721D01*
X183997315Y-66668542D01*
X183822259Y-66245920D01*
X183570958Y-66165647D01*
X182706605Y-67030000D01*
X182347395Y-67030000D01*
X181483042Y-66165647D01*
X181231741Y-66245920D01*
X181030282Y-66801279D01*
X177987200Y-66801279D01*
X177987257Y-66735911D01*
X177761656Y-66189914D01*
X177558140Y-65986042D01*
X181662647Y-65986042D01*
X182527000Y-66850395D01*
X183391353Y-65986042D01*
X183311080Y-65734741D01*
X182755721Y-65533282D01*
X182165542Y-65559685D01*
X181742920Y-65734741D01*
X181662647Y-65986042D01*
X177558140Y-65986042D01*
X177344283Y-65771812D01*
X176798681Y-65545258D01*
X176207911Y-65544743D01*
X175661914Y-65770344D01*
X175243812Y-66187717D01*
X175017258Y-66733319D01*
X175016743Y-67324089D01*
X174475005Y-67324089D01*
X174498718Y-67258721D01*
X174472315Y-66668542D01*
X174297259Y-66245920D01*
X174045958Y-66165647D01*
X173181605Y-67030000D01*
X172822395Y-67030000D01*
X171958042Y-66165647D01*
X171706741Y-66245920D01*
X171505282Y-66801279D01*
X168462200Y-66801279D01*
X168462257Y-66735911D01*
X168236656Y-66189914D01*
X168033140Y-65986042D01*
X172137647Y-65986042D01*
X173002000Y-66850395D01*
X173866353Y-65986042D01*
X173786080Y-65734741D01*
X173230721Y-65533282D01*
X172640542Y-65559685D01*
X172217920Y-65734741D01*
X172137647Y-65986042D01*
X168033140Y-65986042D01*
X167819283Y-65771812D01*
X167273681Y-65545258D01*
X166682911Y-65544743D01*
X166136914Y-65770344D01*
X165718812Y-66187717D01*
X165492258Y-66733319D01*
X165491879Y-67168083D01*
X164960961Y-67699001D01*
X164814004Y-67699001D01*
X164973718Y-67258721D01*
X164947315Y-66668542D01*
X164772259Y-66245920D01*
X164520958Y-66165647D01*
X163656605Y-67030000D01*
X163670748Y-67044143D01*
X163491143Y-67223748D01*
X163477000Y-67209605D01*
X163462858Y-67223748D01*
X163283253Y-67044143D01*
X163297395Y-67030000D01*
X162433042Y-66165647D01*
X162181741Y-66245920D01*
X161980282Y-66801279D01*
X162006685Y-67391458D01*
X162134074Y-67699001D01*
X158782141Y-67699001D01*
X158936742Y-67326681D01*
X158937257Y-66735911D01*
X158711656Y-66189914D01*
X158508140Y-65986042D01*
X162612647Y-65986042D01*
X163477000Y-66850395D01*
X164341353Y-65986042D01*
X164261080Y-65734741D01*
X163705721Y-65533282D01*
X163115542Y-65559685D01*
X162692920Y-65734741D01*
X162612647Y-65986042D01*
X158508140Y-65986042D01*
X158294283Y-65771812D01*
X157748681Y-65545258D01*
X157157911Y-65544743D01*
X156611914Y-65770344D01*
X156193812Y-66187717D01*
X155967258Y-66733319D01*
X155966743Y-67324089D01*
X156121653Y-67699001D01*
X155282141Y-67699001D01*
X155436742Y-67326681D01*
X155437257Y-66735911D01*
X155211656Y-66189914D01*
X154794283Y-65771812D01*
X154248681Y-65545258D01*
X153657911Y-65544743D01*
X153111914Y-65770344D01*
X152693812Y-66187717D01*
X152467258Y-66733319D01*
X152466743Y-67324089D01*
X152621653Y-67699001D01*
X149526555Y-67699001D01*
X149613718Y-67458721D01*
X149587315Y-66868542D01*
X149412259Y-66445920D01*
X149160958Y-66365647D01*
X148296605Y-67230000D01*
X148310748Y-67244143D01*
X148131143Y-67423748D01*
X148117000Y-67409605D01*
X148102858Y-67423748D01*
X147923253Y-67244143D01*
X147937395Y-67230000D01*
X147073042Y-66365647D01*
X146821741Y-66445920D01*
X146620282Y-67001279D01*
X146646685Y-67591458D01*
X146691231Y-67699001D01*
X146030188Y-67699001D01*
X146101742Y-67526681D01*
X146102257Y-66935911D01*
X145876656Y-66389914D01*
X145673140Y-66186042D01*
X147252647Y-66186042D01*
X148117000Y-67050395D01*
X148981353Y-66186042D01*
X148901080Y-65934741D01*
X148345721Y-65733282D01*
X147755542Y-65759685D01*
X147332920Y-65934741D01*
X147252647Y-66186042D01*
X145673140Y-66186042D01*
X145459283Y-65971812D01*
X144913681Y-65745258D01*
X144322911Y-65744743D01*
X143776914Y-65970344D01*
X143358812Y-66387717D01*
X143132258Y-66933319D01*
X143131743Y-67524089D01*
X139804770Y-67524089D01*
X139886742Y-67326681D01*
X139887257Y-66735911D01*
X139661656Y-66189914D01*
X139244283Y-65771812D01*
X138698681Y-65545258D01*
X138107911Y-65544743D01*
X137561914Y-65770344D01*
X137143812Y-66187717D01*
X136917258Y-66733319D01*
X136916743Y-67324089D01*
X136386744Y-67324089D01*
X136387257Y-66735911D01*
X136161656Y-66189914D01*
X135744283Y-65771812D01*
X135198681Y-65545258D01*
X134607911Y-65544743D01*
X134061914Y-65770344D01*
X133643812Y-66187717D01*
X133417258Y-66733319D01*
X133416743Y-67324089D01*
X130361744Y-67324089D01*
X130362257Y-66735911D01*
X130136656Y-66189914D01*
X129719283Y-65771812D01*
X129173681Y-65545258D01*
X128582911Y-65544743D01*
X128036914Y-65770344D01*
X127618812Y-66187717D01*
X127392258Y-66733319D01*
X127391743Y-67324089D01*
X126861744Y-67324089D01*
X126862257Y-66735911D01*
X126636656Y-66189914D01*
X126219283Y-65771812D01*
X125673681Y-65545258D01*
X125082911Y-65544743D01*
X124536914Y-65770344D01*
X124118812Y-66187717D01*
X123892258Y-66733319D01*
X123891743Y-67324089D01*
X120836744Y-67324089D01*
X120837257Y-66735911D01*
X120611656Y-66189914D01*
X120194283Y-65771812D01*
X119648681Y-65545258D01*
X119483560Y-65545114D01*
X118462535Y-64524089D01*
X143131743Y-64524089D01*
X143357344Y-65070086D01*
X143774717Y-65488188D01*
X144320319Y-65714742D01*
X144911089Y-65715257D01*
X145457086Y-65489656D01*
X145673160Y-65273958D01*
X147252647Y-65273958D01*
X147332920Y-65525259D01*
X147888279Y-65726718D01*
X148478458Y-65700315D01*
X148901080Y-65525259D01*
X148981353Y-65273958D01*
X148117000Y-64409605D01*
X147252647Y-65273958D01*
X145673160Y-65273958D01*
X145875188Y-65072283D01*
X146101742Y-64526681D01*
X146102200Y-64001279D01*
X146620282Y-64001279D01*
X146646685Y-64591458D01*
X146821741Y-65014080D01*
X147073042Y-65094353D01*
X147937395Y-64230000D01*
X148296605Y-64230000D01*
X149160958Y-65094353D01*
X149412259Y-65014080D01*
X149613718Y-64458721D01*
X149587315Y-63868542D01*
X149412259Y-63445920D01*
X149160958Y-63365647D01*
X148296605Y-64230000D01*
X147937395Y-64230000D01*
X147073042Y-63365647D01*
X146821741Y-63445920D01*
X146620282Y-64001279D01*
X146102200Y-64001279D01*
X146102257Y-63935911D01*
X145876656Y-63389914D01*
X145673140Y-63186042D01*
X147252647Y-63186042D01*
X148117000Y-64050395D01*
X148981353Y-63186042D01*
X148901080Y-62934741D01*
X148345721Y-62733282D01*
X147755542Y-62759685D01*
X147332920Y-62934741D01*
X147252647Y-63186042D01*
X145673140Y-63186042D01*
X145459283Y-62971812D01*
X144913681Y-62745258D01*
X144322911Y-62744743D01*
X143776914Y-62970344D01*
X143358812Y-63387717D01*
X143132258Y-63933319D01*
X143131743Y-64524089D01*
X118462535Y-64524089D01*
X115923000Y-61984554D01*
X115923000Y-54726661D01*
X116297758Y-54726661D01*
X116509990Y-55240303D01*
X116902630Y-55633629D01*
X117415900Y-55846757D01*
X117971661Y-55847242D01*
X118485303Y-55635010D01*
X118878629Y-55242370D01*
X118964949Y-55034488D01*
X119049990Y-55240303D01*
X119442630Y-55633629D01*
X119955900Y-55846757D01*
X120511661Y-55847242D01*
X121025303Y-55635010D01*
X121418629Y-55242370D01*
X121504949Y-55034488D01*
X121589990Y-55240303D01*
X121982630Y-55633629D01*
X122495900Y-55846757D01*
X123051661Y-55847242D01*
X123565303Y-55635010D01*
X123958629Y-55242370D01*
X124171757Y-54729100D01*
X124171759Y-54726661D01*
X126457758Y-54726661D01*
X126669990Y-55240303D01*
X127062630Y-55633629D01*
X127575900Y-55846757D01*
X127635363Y-55846809D01*
X128476777Y-56688223D01*
X128847593Y-56935994D01*
X129285000Y-57023000D01*
X132519898Y-57023000D01*
X132558764Y-57061934D01*
X133071300Y-57274758D01*
X133626265Y-57275242D01*
X134139172Y-57063313D01*
X134179555Y-57023000D01*
X138394444Y-57023000D01*
X138473170Y-57140821D01*
X139036044Y-57516922D01*
X139700000Y-57648991D01*
X140363956Y-57516922D01*
X140926830Y-57140821D01*
X141302931Y-56577947D01*
X141435000Y-55913991D01*
X141435000Y-55846009D01*
X141302931Y-55182053D01*
X140926830Y-54619179D01*
X140646997Y-54432200D01*
X146608016Y-54432200D01*
X146135849Y-54526120D01*
X145670302Y-54837189D01*
X145359233Y-55302736D01*
X145250000Y-55851887D01*
X145250000Y-55908113D01*
X145359233Y-56457264D01*
X145670302Y-56922811D01*
X146135849Y-57233880D01*
X146685000Y-57343113D01*
X147234151Y-57233880D01*
X147699698Y-56922811D01*
X148010767Y-56457264D01*
X148069063Y-56164187D01*
X152234752Y-56164187D01*
X152452757Y-56691800D01*
X152856077Y-57095824D01*
X153383309Y-57314750D01*
X153954187Y-57315248D01*
X154481800Y-57097243D01*
X154885824Y-56693923D01*
X155104750Y-56166691D01*
X155104752Y-56164187D01*
X159219752Y-56164187D01*
X159437757Y-56691800D01*
X159841077Y-57095824D01*
X160368309Y-57314750D01*
X160939187Y-57315248D01*
X161466800Y-57097243D01*
X161870824Y-56693923D01*
X162089750Y-56166691D01*
X162090024Y-55851887D01*
X165570000Y-55851887D01*
X165570000Y-55908113D01*
X165679233Y-56457264D01*
X165990302Y-56922811D01*
X166455849Y-57233880D01*
X167005000Y-57343113D01*
X167554151Y-57233880D01*
X168019698Y-56922811D01*
X168330767Y-56457264D01*
X168440000Y-55908113D01*
X168440000Y-55851887D01*
X168330767Y-55302736D01*
X168071016Y-54913991D01*
X170549735Y-54913991D01*
X170782932Y-55478371D01*
X171214357Y-55910551D01*
X171778330Y-56144733D01*
X172388991Y-56145265D01*
X172953371Y-55912068D01*
X173121613Y-55744120D01*
X173121838Y-55745317D01*
X173260910Y-55961441D01*
X173473110Y-56106431D01*
X173725000Y-56157440D01*
X175525000Y-56157440D01*
X175760317Y-56113162D01*
X175976441Y-55974090D01*
X176121431Y-55761890D01*
X176172440Y-55510000D01*
X176172440Y-53710000D01*
X176128162Y-53474683D01*
X175989090Y-53258559D01*
X175776890Y-53113569D01*
X175525000Y-53062560D01*
X173725000Y-53062560D01*
X173489683Y-53106838D01*
X173273559Y-53245910D01*
X173128569Y-53458110D01*
X173124433Y-53478534D01*
X172955643Y-53309449D01*
X172391670Y-53075267D01*
X171781009Y-53074735D01*
X171216629Y-53307932D01*
X170784449Y-53739357D01*
X170550267Y-54303330D01*
X170549735Y-54913991D01*
X168071016Y-54913991D01*
X168019698Y-54837189D01*
X167554151Y-54526120D01*
X167005000Y-54416887D01*
X166455849Y-54526120D01*
X165990302Y-54837189D01*
X165679233Y-55302736D01*
X165570000Y-55851887D01*
X162090024Y-55851887D01*
X162090248Y-55595813D01*
X161872243Y-55068200D01*
X161468923Y-54664176D01*
X160941691Y-54445250D01*
X160370813Y-54444752D01*
X159843200Y-54662757D01*
X159439176Y-55066077D01*
X159220250Y-55593309D01*
X159219752Y-56164187D01*
X155104752Y-56164187D01*
X155105248Y-55595813D01*
X154887243Y-55068200D01*
X154483923Y-54664176D01*
X153956691Y-54445250D01*
X153385813Y-54444752D01*
X152858200Y-54662757D01*
X152454176Y-55066077D01*
X152235250Y-55593309D01*
X152234752Y-56164187D01*
X148069063Y-56164187D01*
X148120000Y-55908113D01*
X148120000Y-55851887D01*
X148010767Y-55302736D01*
X147699698Y-54837189D01*
X147234151Y-54526120D01*
X146761984Y-54432200D01*
X148640800Y-54432200D01*
X149078207Y-54345194D01*
X149449023Y-54097423D01*
X153861406Y-49685040D01*
X154219151Y-49613880D01*
X154534755Y-49403000D01*
X159790245Y-49403000D01*
X160105849Y-49613880D01*
X160655000Y-49723113D01*
X161204151Y-49613880D01*
X161669698Y-49302811D01*
X161980767Y-48837264D01*
X162090000Y-48288113D01*
X162090000Y-48231887D01*
X161980767Y-47682736D01*
X161669698Y-47217189D01*
X161204151Y-46906120D01*
X160655000Y-46796887D01*
X160105849Y-46906120D01*
X159790245Y-47117000D01*
X154534755Y-47117000D01*
X154219151Y-46906120D01*
X153670000Y-46796887D01*
X153120849Y-46906120D01*
X152655302Y-47217189D01*
X152344233Y-47682736D01*
X152273073Y-48040481D01*
X148167354Y-52146200D01*
X134354122Y-52146200D01*
X134469698Y-52098327D01*
X134648327Y-51919699D01*
X134745000Y-51686310D01*
X134745000Y-51085750D01*
X134586250Y-50927000D01*
X133477000Y-50927000D01*
X133477000Y-50947000D01*
X133223000Y-50947000D01*
X133223000Y-50927000D01*
X132113750Y-50927000D01*
X131955000Y-51085750D01*
X131955000Y-51686310D01*
X132051673Y-51919699D01*
X132230302Y-52098327D01*
X132463691Y-52195000D01*
X132522448Y-52195000D01*
X132168066Y-52548764D01*
X131955242Y-53061300D01*
X131954758Y-53616265D01*
X132166687Y-54129172D01*
X132558764Y-54521934D01*
X132770738Y-54609954D01*
X132560828Y-54696687D01*
X132520445Y-54737000D01*
X129758446Y-54737000D01*
X129252192Y-54230746D01*
X129252242Y-54173339D01*
X129040010Y-53659697D01*
X128647370Y-53266371D01*
X128134100Y-53053243D01*
X127578339Y-53052758D01*
X127064697Y-53264990D01*
X126671371Y-53657630D01*
X126458243Y-54170900D01*
X126457758Y-54726661D01*
X124171759Y-54726661D01*
X124172242Y-54173339D01*
X123960010Y-53659697D01*
X123567370Y-53266371D01*
X123054100Y-53053243D01*
X122498339Y-53052758D01*
X121984697Y-53264990D01*
X121591371Y-53657630D01*
X121505051Y-53865512D01*
X121420010Y-53659697D01*
X121027370Y-53266371D01*
X120514100Y-53053243D01*
X119958339Y-53052758D01*
X119444697Y-53264990D01*
X119051371Y-53657630D01*
X118965051Y-53865512D01*
X118880010Y-53659697D01*
X118487370Y-53266371D01*
X117974100Y-53053243D01*
X117418339Y-53052758D01*
X116904697Y-53264990D01*
X116511371Y-53657630D01*
X116298243Y-54170900D01*
X116297758Y-54726661D01*
X115923000Y-54726661D01*
X115923000Y-49646661D01*
X116297758Y-49646661D01*
X116509990Y-50160303D01*
X116902630Y-50553629D01*
X117415900Y-50766757D01*
X117971661Y-50767242D01*
X118485303Y-50555010D01*
X118878629Y-50162370D01*
X118964949Y-49954488D01*
X119049990Y-50160303D01*
X119442630Y-50553629D01*
X119955900Y-50766757D01*
X120511661Y-50767242D01*
X121025303Y-50555010D01*
X121418629Y-50162370D01*
X121504949Y-49954488D01*
X121589990Y-50160303D01*
X121982630Y-50553629D01*
X122495900Y-50766757D01*
X123051661Y-50767242D01*
X123565303Y-50555010D01*
X123958629Y-50162370D01*
X124171757Y-49649100D01*
X124171759Y-49646661D01*
X126457758Y-49646661D01*
X126669990Y-50160303D01*
X127062630Y-50553629D01*
X127575900Y-50766757D01*
X128131661Y-50767242D01*
X128645303Y-50555010D01*
X129038629Y-50162370D01*
X129141889Y-49913690D01*
X131955000Y-49913690D01*
X131955000Y-50514250D01*
X132113750Y-50673000D01*
X133223000Y-50673000D01*
X133223000Y-49563750D01*
X133477000Y-49563750D01*
X133477000Y-50673000D01*
X134586250Y-50673000D01*
X134745000Y-50514250D01*
X134745000Y-49913690D01*
X134648327Y-49680301D01*
X134469698Y-49501673D01*
X134236309Y-49405000D01*
X133635750Y-49405000D01*
X133477000Y-49563750D01*
X133223000Y-49563750D01*
X133064250Y-49405000D01*
X132463691Y-49405000D01*
X132230302Y-49501673D01*
X132051673Y-49680301D01*
X131955000Y-49913690D01*
X129141889Y-49913690D01*
X129251757Y-49649100D01*
X129252242Y-49093339D01*
X129040010Y-48579697D01*
X128647370Y-48186371D01*
X128134100Y-47973243D01*
X127578339Y-47972758D01*
X127064697Y-48184990D01*
X126671371Y-48577630D01*
X126458243Y-49090900D01*
X126457758Y-49646661D01*
X124171759Y-49646661D01*
X124172242Y-49093339D01*
X123960010Y-48579697D01*
X123567370Y-48186371D01*
X123054100Y-47973243D01*
X122498339Y-47972758D01*
X121984697Y-48184990D01*
X121591371Y-48577630D01*
X121505051Y-48785512D01*
X121420010Y-48579697D01*
X121027370Y-48186371D01*
X120514100Y-47973243D01*
X119958339Y-47972758D01*
X119444697Y-48184990D01*
X119051371Y-48577630D01*
X118965051Y-48785512D01*
X118880010Y-48579697D01*
X118487370Y-48186371D01*
X117974100Y-47973243D01*
X117418339Y-47972758D01*
X116904697Y-48184990D01*
X116511371Y-48577630D01*
X116298243Y-49090900D01*
X116297758Y-49646661D01*
X115923000Y-49646661D01*
X115923000Y-48253446D01*
X118244704Y-45931742D01*
X118413481Y-46100520D01*
X118722495Y-46306996D01*
X119087001Y-46379501D01*
X124771939Y-46379501D01*
X124968000Y-46418500D01*
X125056001Y-46418500D01*
X125252062Y-46379501D01*
X133661939Y-46379501D01*
X133858000Y-46418500D01*
X133946001Y-46418500D01*
X134142062Y-46379501D01*
X138722999Y-46379501D01*
X139087505Y-46306996D01*
X139396518Y-46100520D01*
X139420648Y-46076390D01*
X139526777Y-46235224D01*
X139897593Y-46482995D01*
X140046226Y-46512560D01*
X138600000Y-46512560D01*
X138364683Y-46556838D01*
X138148559Y-46695910D01*
X138003569Y-46908110D01*
X137952560Y-47160000D01*
X137952560Y-49360000D01*
X137996838Y-49595317D01*
X138135910Y-49811441D01*
X138348110Y-49956431D01*
X138600000Y-50007440D01*
X140800000Y-50007440D01*
X141035317Y-49963162D01*
X141251441Y-49824090D01*
X141396431Y-49611890D01*
X141447440Y-49360000D01*
X141447440Y-48544187D01*
X145249752Y-48544187D01*
X145467757Y-49071800D01*
X145871077Y-49475824D01*
X146398309Y-49694750D01*
X146969187Y-49695248D01*
X147496800Y-49477243D01*
X147900824Y-49073923D01*
X148119750Y-48546691D01*
X148120248Y-47975813D01*
X147902243Y-47448200D01*
X147498923Y-47044176D01*
X146971691Y-46825250D01*
X146400813Y-46824752D01*
X145873200Y-47042757D01*
X145469176Y-47446077D01*
X145250250Y-47973309D01*
X145249752Y-48544187D01*
X141447440Y-48544187D01*
X141447440Y-47160000D01*
X141403162Y-46924683D01*
X141264090Y-46708559D01*
X141061304Y-46570001D01*
X165862000Y-46570001D01*
X165862000Y-47373380D01*
X165789176Y-47446077D01*
X165570250Y-47973309D01*
X165569752Y-48544187D01*
X165787757Y-49071800D01*
X166191077Y-49475824D01*
X166718309Y-49694750D01*
X167289187Y-49695248D01*
X167816800Y-49477243D01*
X168220824Y-49073923D01*
X168439750Y-48546691D01*
X168440248Y-47975813D01*
X168222243Y-47448200D01*
X168148000Y-47373827D01*
X168148000Y-46570001D01*
X182537999Y-46570001D01*
X182975406Y-46482995D01*
X183346222Y-46235224D01*
X186909254Y-42672192D01*
X186966661Y-42672242D01*
X187480303Y-42460010D01*
X187685457Y-42255213D01*
X188429392Y-42255213D01*
X188498857Y-42497397D01*
X189022302Y-42684144D01*
X189577368Y-42656362D01*
X189961143Y-42497397D01*
X190030608Y-42255213D01*
X189230000Y-41454605D01*
X188429392Y-42255213D01*
X187685457Y-42255213D01*
X187873629Y-42067370D01*
X187953395Y-41875273D01*
X188007603Y-42006143D01*
X188249787Y-42075608D01*
X189050395Y-41275000D01*
X189036253Y-41260858D01*
X189215858Y-41081253D01*
X189230000Y-41095395D01*
X189244143Y-41081253D01*
X189423748Y-41260858D01*
X189409605Y-41275000D01*
X190210213Y-42075608D01*
X190452397Y-42006143D01*
X190502509Y-41865682D01*
X190584990Y-42065303D01*
X190977630Y-42458629D01*
X191490900Y-42671757D01*
X192046661Y-42672242D01*
X192560303Y-42460010D01*
X192953629Y-42067370D01*
X193166757Y-41554100D01*
X193167242Y-40998339D01*
X192955010Y-40484697D01*
X192562370Y-40091371D01*
X192049100Y-39878243D01*
X191719994Y-39877956D01*
X191236574Y-39394536D01*
X192529482Y-39395664D01*
X193939515Y-38813050D01*
X194362000Y-38391302D01*
X194362000Y-72098280D01*
X193945189Y-71680741D01*
X192536175Y-71095667D01*
X191010518Y-71094336D01*
X189600485Y-71676950D01*
X188520741Y-72754811D01*
X187935667Y-74163825D01*
X187934336Y-75689482D01*
X188516950Y-77099515D01*
X189594811Y-78179259D01*
X190639375Y-78613000D01*
X108443957Y-78613000D01*
X109484515Y-78183050D01*
X110564259Y-77105189D01*
X111149333Y-75696175D01*
X111149645Y-75337870D01*
X115178583Y-75337870D01*
X115545166Y-76225069D01*
X116223361Y-76904449D01*
X117109919Y-77272580D01*
X118069870Y-77273417D01*
X118957069Y-76906834D01*
X119636449Y-76228639D01*
X120004580Y-75342081D01*
X120004583Y-75337870D01*
X124703583Y-75337870D01*
X125070166Y-76225069D01*
X125748361Y-76904449D01*
X126634919Y-77272580D01*
X127594870Y-77273417D01*
X128482069Y-76906834D01*
X129161449Y-76228639D01*
X129529580Y-75342081D01*
X129529583Y-75337870D01*
X134228583Y-75337870D01*
X134595166Y-76225069D01*
X135273361Y-76904449D01*
X136159919Y-77272580D01*
X137119870Y-77273417D01*
X138007069Y-76906834D01*
X138686449Y-76228639D01*
X138931757Y-75637870D01*
X143943583Y-75637870D01*
X144310166Y-76525069D01*
X144988361Y-77204449D01*
X145874919Y-77572580D01*
X146834870Y-77573417D01*
X147722069Y-77206834D01*
X148401449Y-76528639D01*
X148769580Y-75642081D01*
X148769845Y-75337870D01*
X153278583Y-75337870D01*
X153645166Y-76225069D01*
X154323361Y-76904449D01*
X155209919Y-77272580D01*
X156169870Y-77273417D01*
X157057069Y-76906834D01*
X157736449Y-76228639D01*
X158104580Y-75342081D01*
X158104583Y-75337870D01*
X162803583Y-75337870D01*
X163170166Y-76225069D01*
X163848361Y-76904449D01*
X164734919Y-77272580D01*
X165694870Y-77273417D01*
X166582069Y-76906834D01*
X167261449Y-76228639D01*
X167629580Y-75342081D01*
X167629583Y-75337870D01*
X172328583Y-75337870D01*
X172695166Y-76225069D01*
X173373361Y-76904449D01*
X174259919Y-77272580D01*
X175219870Y-77273417D01*
X176107069Y-76906834D01*
X176786449Y-76228639D01*
X177154580Y-75342081D01*
X177154583Y-75337870D01*
X181853583Y-75337870D01*
X182220166Y-76225069D01*
X182898361Y-76904449D01*
X183784919Y-77272580D01*
X184744870Y-77273417D01*
X185632069Y-76906834D01*
X186311449Y-76228639D01*
X186679580Y-75342081D01*
X186680417Y-74382130D01*
X186313834Y-73494931D01*
X185635639Y-72815551D01*
X184749081Y-72447420D01*
X183789130Y-72446583D01*
X182901931Y-72813166D01*
X182222551Y-73491361D01*
X181854420Y-74377919D01*
X181853583Y-75337870D01*
X177154583Y-75337870D01*
X177155417Y-74382130D01*
X176788834Y-73494931D01*
X176110639Y-72815551D01*
X175224081Y-72447420D01*
X174264130Y-72446583D01*
X173376931Y-72813166D01*
X172697551Y-73491361D01*
X172329420Y-74377919D01*
X172328583Y-75337870D01*
X167629583Y-75337870D01*
X167630417Y-74382130D01*
X167263834Y-73494931D01*
X166585639Y-72815551D01*
X165699081Y-72447420D01*
X164739130Y-72446583D01*
X163851931Y-72813166D01*
X163172551Y-73491361D01*
X162804420Y-74377919D01*
X162803583Y-75337870D01*
X158104583Y-75337870D01*
X158105417Y-74382130D01*
X157738834Y-73494931D01*
X157060639Y-72815551D01*
X156174081Y-72447420D01*
X155214130Y-72446583D01*
X154326931Y-72813166D01*
X153647551Y-73491361D01*
X153279420Y-74377919D01*
X153278583Y-75337870D01*
X148769845Y-75337870D01*
X148770417Y-74682130D01*
X148403834Y-73794931D01*
X147725639Y-73115551D01*
X146839081Y-72747420D01*
X145879130Y-72746583D01*
X144991931Y-73113166D01*
X144312551Y-73791361D01*
X143944420Y-74677919D01*
X143943583Y-75637870D01*
X138931757Y-75637870D01*
X139054580Y-75342081D01*
X139055417Y-74382130D01*
X138688834Y-73494931D01*
X138010639Y-72815551D01*
X137124081Y-72447420D01*
X136164130Y-72446583D01*
X135276931Y-72813166D01*
X134597551Y-73491361D01*
X134229420Y-74377919D01*
X134228583Y-75337870D01*
X129529583Y-75337870D01*
X129530417Y-74382130D01*
X129163834Y-73494931D01*
X128485639Y-72815551D01*
X127599081Y-72447420D01*
X126639130Y-72446583D01*
X125751931Y-72813166D01*
X125072551Y-73491361D01*
X124704420Y-74377919D01*
X124703583Y-75337870D01*
X120004583Y-75337870D01*
X120005417Y-74382130D01*
X119638834Y-73494931D01*
X118960639Y-72815551D01*
X118074081Y-72447420D01*
X117114130Y-72446583D01*
X116226931Y-72813166D01*
X115547551Y-73491361D01*
X115179420Y-74377919D01*
X115178583Y-75337870D01*
X111149645Y-75337870D01*
X111150664Y-74170518D01*
X110568050Y-72760485D01*
X109490189Y-71680741D01*
X108081175Y-71095667D01*
X106555518Y-71094336D01*
X105145485Y-71676950D01*
X104342000Y-72479034D01*
X104342000Y-38010054D01*
X105139811Y-38809259D01*
X106548825Y-39394333D01*
X108074482Y-39395664D01*
X109484515Y-38813050D01*
X110564259Y-37735189D01*
X111149333Y-36326175D01*
X111150664Y-34800518D01*
X110568050Y-33390485D01*
X110483463Y-33305750D01*
X115141756Y-33305750D01*
X115141756Y-34746510D01*
X115238429Y-34979899D01*
X115417058Y-35158527D01*
X115650447Y-35255200D01*
X116094256Y-35255200D01*
X116253006Y-35096450D01*
X116253006Y-33147000D01*
X115300506Y-33147000D01*
X115141756Y-33305750D01*
X110483463Y-33305750D01*
X109490189Y-32310741D01*
X108081175Y-31725667D01*
X106555518Y-31724336D01*
X105145485Y-32306950D01*
X104342000Y-33109034D01*
X104342000Y-31293490D01*
X115141756Y-31293490D01*
X115141756Y-32734250D01*
X115300506Y-32893000D01*
X116253006Y-32893000D01*
X116253006Y-30943550D01*
X116507006Y-30943550D01*
X116507006Y-32893000D01*
X116527006Y-32893000D01*
X116527006Y-33147000D01*
X116507006Y-33147000D01*
X116507006Y-35096450D01*
X116665756Y-35255200D01*
X117109565Y-35255200D01*
X117342954Y-35158527D01*
X117382275Y-35119206D01*
X117427502Y-35150108D01*
X117427502Y-35190755D01*
X117411500Y-35271202D01*
X117484005Y-35635708D01*
X117690481Y-35944721D01*
X117725279Y-35979519D01*
X117910279Y-36103132D01*
X117913666Y-36106519D01*
X118222679Y-36312995D01*
X118587185Y-36385500D01*
X119405684Y-36385500D01*
X119186234Y-36476175D01*
X118900179Y-36761731D01*
X118745176Y-37135018D01*
X118744824Y-37539208D01*
X118899175Y-37912766D01*
X119184731Y-38198821D01*
X119558018Y-38353824D01*
X119962208Y-38354176D01*
X120335766Y-38199825D01*
X120372154Y-38163500D01*
X132992472Y-38163500D01*
X133027731Y-38198821D01*
X133401018Y-38353824D01*
X133805208Y-38354176D01*
X134178766Y-38199825D01*
X134215154Y-38163500D01*
X148094606Y-38163500D01*
X148256655Y-38325832D01*
X148629942Y-38480835D01*
X149034132Y-38481187D01*
X149407690Y-38326836D01*
X149571311Y-38163500D01*
X163599472Y-38163500D01*
X163634731Y-38198821D01*
X164008018Y-38353824D01*
X164412208Y-38354176D01*
X164785766Y-38199825D01*
X164822154Y-38163500D01*
X179166185Y-38163500D01*
X179376007Y-38121764D01*
X179629018Y-38226824D01*
X180033208Y-38227176D01*
X180406766Y-38072825D01*
X180692821Y-37787269D01*
X180847824Y-37413982D01*
X180848056Y-37147500D01*
X181000518Y-37147500D01*
X181153018Y-37210824D01*
X181557208Y-37211176D01*
X181930766Y-37056825D01*
X182216821Y-36771269D01*
X182371824Y-36397982D01*
X182372176Y-35993792D01*
X182217825Y-35620234D01*
X181932269Y-35334179D01*
X181558982Y-35179176D01*
X181154792Y-35178824D01*
X180781234Y-35333175D01*
X180617624Y-35496500D01*
X169114779Y-35496500D01*
X169115065Y-35168282D01*
X169095971Y-35122071D01*
X169154685Y-35084290D01*
X169299675Y-34872090D01*
X169350684Y-34620200D01*
X169350684Y-31419800D01*
X169306406Y-31184483D01*
X169167334Y-30968359D01*
X168955134Y-30823369D01*
X168703244Y-30772360D01*
X167496744Y-30772360D01*
X167261427Y-30816638D01*
X167098617Y-30921404D01*
X166955138Y-30823369D01*
X166941500Y-30820607D01*
X166941500Y-30708482D01*
X167004824Y-30555982D01*
X167005176Y-30151792D01*
X166850825Y-29778234D01*
X166565269Y-29492179D01*
X166191982Y-29337176D01*
X165787792Y-29336824D01*
X165414234Y-29491175D01*
X165128179Y-29776731D01*
X164973176Y-30150018D01*
X164972824Y-30554208D01*
X165036500Y-30708316D01*
X165036500Y-30878959D01*
X164955142Y-30823369D01*
X164703252Y-30772360D01*
X163496752Y-30772360D01*
X163261435Y-30816638D01*
X163101217Y-30919736D01*
X163062954Y-30881473D01*
X162829565Y-30784800D01*
X162385756Y-30784800D01*
X162227006Y-30943550D01*
X162227006Y-32893000D01*
X162247006Y-32893000D01*
X162247006Y-33147000D01*
X162227006Y-33147000D01*
X162227006Y-35096450D01*
X162385756Y-35255200D01*
X162829565Y-35255200D01*
X163062954Y-35158527D01*
X163102275Y-35119206D01*
X163244862Y-35216631D01*
X163274502Y-35222633D01*
X163274502Y-35623500D01*
X154050469Y-35623500D01*
X154050755Y-35295282D01*
X153945151Y-35039701D01*
X154059675Y-34872090D01*
X154110684Y-34620200D01*
X154110684Y-33305750D01*
X160861756Y-33305750D01*
X160861756Y-34746510D01*
X160958429Y-34979899D01*
X161137058Y-35158527D01*
X161370447Y-35255200D01*
X161814256Y-35255200D01*
X161973006Y-35096450D01*
X161973006Y-33147000D01*
X161020506Y-33147000D01*
X160861756Y-33305750D01*
X154110684Y-33305750D01*
X154110684Y-31419800D01*
X154086918Y-31293490D01*
X160861756Y-31293490D01*
X160861756Y-32734250D01*
X161020506Y-32893000D01*
X161973006Y-32893000D01*
X161973006Y-30943550D01*
X161814256Y-30784800D01*
X161370447Y-30784800D01*
X161137058Y-30881473D01*
X160958429Y-31060101D01*
X160861756Y-31293490D01*
X154086918Y-31293490D01*
X154066406Y-31184483D01*
X153927334Y-30968359D01*
X153715134Y-30823369D01*
X153463244Y-30772360D01*
X152256744Y-30772360D01*
X152021427Y-30816638D01*
X151858617Y-30921404D01*
X151715138Y-30823369D01*
X151504059Y-30780625D01*
X151736821Y-30548269D01*
X151891824Y-30174982D01*
X151892176Y-29770792D01*
X151737825Y-29397234D01*
X151452269Y-29111179D01*
X151078982Y-28956176D01*
X150674792Y-28955824D01*
X150520684Y-29019500D01*
X149672802Y-29019500D01*
X149308296Y-29092005D01*
X148999283Y-29298481D01*
X148186483Y-30111281D01*
X147980007Y-30420294D01*
X147907502Y-30784800D01*
X147907502Y-30889952D01*
X147861217Y-30919736D01*
X147822954Y-30881473D01*
X147589565Y-30784800D01*
X147145756Y-30784800D01*
X146987006Y-30943550D01*
X146987006Y-32893000D01*
X147007006Y-32893000D01*
X147007006Y-33147000D01*
X146987006Y-33147000D01*
X146987006Y-35096450D01*
X147145756Y-35255200D01*
X147589565Y-35255200D01*
X147822954Y-35158527D01*
X147862275Y-35119206D01*
X148004538Y-35216409D01*
X147983179Y-35237731D01*
X147828176Y-35611018D01*
X147827999Y-35814001D01*
X138544710Y-35814001D01*
X138624705Y-35621352D01*
X138625057Y-35217162D01*
X138592110Y-35137425D01*
X138674685Y-35084290D01*
X138819675Y-34872090D01*
X138870684Y-34620200D01*
X138870684Y-33305750D01*
X145621756Y-33305750D01*
X145621756Y-34746510D01*
X145718429Y-34979899D01*
X145897058Y-35158527D01*
X146130447Y-35255200D01*
X146574256Y-35255200D01*
X146733006Y-35096450D01*
X146733006Y-33147000D01*
X145780506Y-33147000D01*
X145621756Y-33305750D01*
X138870684Y-33305750D01*
X138870684Y-31419800D01*
X138846918Y-31293490D01*
X145621756Y-31293490D01*
X145621756Y-32734250D01*
X145780506Y-32893000D01*
X146733006Y-32893000D01*
X146733006Y-30943550D01*
X146574256Y-30784800D01*
X146130447Y-30784800D01*
X145897058Y-30881473D01*
X145718429Y-31060101D01*
X145621756Y-31293490D01*
X138846918Y-31293490D01*
X138826406Y-31184483D01*
X138687334Y-30968359D01*
X138475134Y-30823369D01*
X138223244Y-30772360D01*
X137016744Y-30772360D01*
X136781427Y-30816638D01*
X136618617Y-30921404D01*
X136608441Y-30914451D01*
X136651820Y-30809982D01*
X136652172Y-30405792D01*
X136497821Y-30032234D01*
X136212265Y-29746179D01*
X135838978Y-29591176D01*
X135434788Y-29590824D01*
X135061230Y-29745175D01*
X134775175Y-30030731D01*
X134620172Y-30404018D01*
X134619820Y-30808208D01*
X134656516Y-30897019D01*
X134618621Y-30921404D01*
X134475142Y-30823369D01*
X134223252Y-30772360D01*
X133016752Y-30772360D01*
X132781435Y-30816638D01*
X132621217Y-30919736D01*
X132582954Y-30881473D01*
X132349565Y-30784800D01*
X131905756Y-30784800D01*
X131747006Y-30943550D01*
X131747006Y-32893000D01*
X131767006Y-32893000D01*
X131767006Y-33147000D01*
X131747006Y-33147000D01*
X131747006Y-35096450D01*
X131905756Y-35255200D01*
X132349565Y-35255200D01*
X132582954Y-35158527D01*
X132622275Y-35119206D01*
X132667502Y-35150108D01*
X132667502Y-35255200D01*
X132690238Y-35369500D01*
X123443901Y-35369500D01*
X123444162Y-35070420D01*
X123579675Y-34872090D01*
X123630684Y-34620200D01*
X123630684Y-33305750D01*
X130381756Y-33305750D01*
X130381756Y-34746510D01*
X130478429Y-34979899D01*
X130657058Y-35158527D01*
X130890447Y-35255200D01*
X131334256Y-35255200D01*
X131493006Y-35096450D01*
X131493006Y-33147000D01*
X130540506Y-33147000D01*
X130381756Y-33305750D01*
X123630684Y-33305750D01*
X123630684Y-31419800D01*
X123606918Y-31293490D01*
X130381756Y-31293490D01*
X130381756Y-32734250D01*
X130540506Y-32893000D01*
X131493006Y-32893000D01*
X131493006Y-30943550D01*
X131334256Y-30784800D01*
X130890447Y-30784800D01*
X130657058Y-30881473D01*
X130478429Y-31060101D01*
X130381756Y-31293490D01*
X123606918Y-31293490D01*
X123586406Y-31184483D01*
X123447334Y-30968359D01*
X123235134Y-30823369D01*
X122983244Y-30772360D01*
X121776744Y-30772360D01*
X121541427Y-30816638D01*
X121378617Y-30921404D01*
X121332498Y-30889892D01*
X121332498Y-30851484D01*
X121395822Y-30698984D01*
X121396174Y-30294794D01*
X121241823Y-29921236D01*
X120956267Y-29635181D01*
X120582980Y-29480178D01*
X120178790Y-29479826D01*
X119805232Y-29634177D01*
X119519177Y-29919733D01*
X119364174Y-30293020D01*
X119363822Y-30697210D01*
X119427498Y-30851318D01*
X119427498Y-30889952D01*
X119378621Y-30921404D01*
X119235142Y-30823369D01*
X118983252Y-30772360D01*
X117776752Y-30772360D01*
X117541435Y-30816638D01*
X117381217Y-30919736D01*
X117342954Y-30881473D01*
X117109565Y-30784800D01*
X116665756Y-30784800D01*
X116507006Y-30943550D01*
X116253006Y-30943550D01*
X116094256Y-30784800D01*
X115650447Y-30784800D01*
X115417058Y-30881473D01*
X115238429Y-31060101D01*
X115141756Y-31293490D01*
X104342000Y-31293490D01*
X104342000Y-24257000D01*
X112182535Y-24257000D01*
X112182535Y-29500322D01*
M02*
