G04 #@! TF.GenerationSoftware,KiCad,Pcbnew,(5.0.0-rc2-dev-670-ga3770bf6e)*
G04 #@! TF.CreationDate,2018-05-07T21:03:45-05:00*
G04 #@! TF.ProjectId,KarkPower,4B61726B506F7765722E6B696361645F,rev?*
G04 #@! TF.SameCoordinates,Original*
G04 #@! TF.FileFunction,Soldermask,Bot*
G04 #@! TF.FilePolarity,Negative*
%FSLAX46Y46*%
G04 Gerber Fmt 4.6, Leading zero omitted, Abs format (unit mm)*
G04 Created by KiCad (PCBNEW (5.0.0-rc2-dev-670-ga3770bf6e)) date Mon May  7 21:03:45 2018*
%MOMM*%
%LPD*%
G01*
G04 APERTURE LIST*
%ADD10C,0.150000*%
%ADD11R,1.606500X3.600400*%
%ADD12R,2.100022X5.699964*%
%ADD13C,2.100000*%
%ADD14C,3.956000*%
%ADD15C,1.924000*%
%ADD16R,2.200000X2.200000*%
%ADD17C,2.200000*%
%ADD18R,2.100000X2.100000*%
%ADD19O,2.100000X2.100000*%
%ADD20C,6.800000*%
%ADD21C,1.920000*%
%ADD22R,1.920000X1.920000*%
%ADD23C,1.800000*%
%ADD24O,1.800000X1.800000*%
%ADD25R,2.000000X2.000000*%
%ADD26O,2.000000X2.000000*%
%ADD27C,1.670000*%
G04 APERTURE END LIST*
D10*
X103632000Y-22987000D02*
X195072000Y-22987000D01*
X103632000Y-80010000D02*
X195072000Y-80010000D01*
X103632000Y-22987000D02*
X103632000Y-80010000D01*
X195072000Y-22987000D02*
X195072000Y-80010000D01*
D11*
X123014994Y-70485000D03*
X121014998Y-70485000D03*
X119015002Y-70485000D03*
X117015006Y-70485000D03*
D12*
X125715014Y-76654660D03*
X114314986Y-76654660D03*
D11*
X116380006Y-33020000D03*
X118380002Y-33020000D03*
X120379998Y-33020000D03*
X122379994Y-33020000D03*
D12*
X113679986Y-26850340D03*
X125080014Y-26850340D03*
D11*
X131620006Y-33020000D03*
X133620002Y-33020000D03*
X135619998Y-33020000D03*
X137619994Y-33020000D03*
D12*
X128919986Y-26850340D03*
X140320014Y-26850340D03*
D11*
X146860006Y-33020000D03*
X148860002Y-33020000D03*
X150859998Y-33020000D03*
X152859994Y-33020000D03*
D12*
X144159986Y-26850340D03*
X155560014Y-26850340D03*
D13*
X162070000Y-36965000D03*
X165570000Y-33965000D03*
X162070000Y-33965000D03*
X165570000Y-36965000D03*
D14*
X163830000Y-26035000D03*
D13*
X152555000Y-67030000D03*
X156055000Y-67030000D03*
D14*
X154295000Y-74860000D03*
D13*
X143020000Y-66960000D03*
X146520000Y-66960000D03*
D14*
X144760000Y-74790000D03*
D13*
X133495000Y-66960000D03*
X136995000Y-66960000D03*
D14*
X135235000Y-74790000D03*
D13*
X175095000Y-33865000D03*
X171595000Y-33865000D03*
D14*
X173355000Y-26035000D03*
D13*
X171605000Y-67030000D03*
X175105000Y-67030000D03*
D14*
X173345000Y-74860000D03*
D13*
X181120000Y-66960000D03*
X184620000Y-66960000D03*
D14*
X182860000Y-74790000D03*
D13*
X184630000Y-33935000D03*
X181130000Y-33935000D03*
D14*
X182890000Y-26105000D03*
D13*
X162070000Y-66960000D03*
X165570000Y-66960000D03*
D14*
X163810000Y-74790000D03*
D15*
X173990000Y-48895000D03*
X168910000Y-48895000D03*
X166370000Y-48895000D03*
X163830000Y-48895000D03*
X163830000Y-43815000D03*
X166370000Y-43815000D03*
X168910000Y-43815000D03*
X173990000Y-43815000D03*
D16*
X134620000Y-57785000D03*
D17*
X134620000Y-55245000D03*
D18*
X116205000Y-41275000D03*
D19*
X118745000Y-41275000D03*
X116205000Y-43815000D03*
X118745000Y-43815000D03*
D18*
X131445000Y-41275000D03*
D19*
X133985000Y-41275000D03*
X131445000Y-43815000D03*
X133985000Y-43815000D03*
D18*
X123190000Y-41275000D03*
D19*
X125730000Y-41275000D03*
X123190000Y-43815000D03*
X125730000Y-43815000D03*
D18*
X138430000Y-41275000D03*
D19*
X140970000Y-41275000D03*
X138430000Y-43815000D03*
X140970000Y-43815000D03*
D18*
X123190000Y-65405000D03*
D19*
X120650000Y-65405000D03*
X123190000Y-62865000D03*
X120650000Y-62865000D03*
D15*
X114935000Y-57785000D03*
X114935000Y-55245000D03*
X114935000Y-52705000D03*
X114935000Y-50165000D03*
X114935000Y-47625000D03*
D20*
X107315000Y-35560000D03*
X191770000Y-35560000D03*
X107315000Y-74930000D03*
X191770000Y-74930000D03*
D21*
X183515000Y-52705000D03*
X180975000Y-52705000D03*
D22*
X186055000Y-52705000D03*
D21*
X183515000Y-57785000D03*
X180975000Y-57785000D03*
D22*
X186055000Y-57785000D03*
D18*
X192405000Y-52705000D03*
D19*
X189865000Y-52705000D03*
D18*
X192405000Y-46355000D03*
D19*
X189865000Y-46355000D03*
D23*
X134620000Y-47625000D03*
D24*
X134620000Y-52705000D03*
D23*
X179705000Y-48895000D03*
D24*
X179705000Y-43815000D03*
D23*
X184785000Y-43815000D03*
D24*
X184785000Y-48895000D03*
D23*
X177165000Y-48895000D03*
D24*
X177165000Y-43815000D03*
D23*
X172085000Y-58420000D03*
D24*
X177165000Y-58420000D03*
D23*
X182245000Y-43815000D03*
D24*
X182245000Y-48895000D03*
D25*
X170815000Y-52705000D03*
D26*
X178435000Y-52705000D03*
X178435000Y-55880000D03*
D25*
X170815000Y-55880000D03*
D27*
X122428000Y-29718000D03*
X137668000Y-29718000D03*
X144526000Y-32512000D03*
X152908000Y-28702000D03*
X116332000Y-62738000D03*
X147002510Y-29844468D03*
X120650000Y-73660000D03*
X132588000Y-36068000D03*
X147319996Y-36068000D03*
X119888000Y-28194000D03*
X116840000Y-67564000D03*
X148590012Y-37465000D03*
X148590000Y-29845000D03*
X133350000Y-29845000D03*
X118968010Y-74600829D03*
X133549802Y-37504180D03*
X118300510Y-29828289D03*
X129032000Y-33782000D03*
X129032000Y-40132000D03*
X173990000Y-55245004D03*
M02*
