G04 #@! TF.FileFunction,Legend,Top*
%FSLAX46Y46*%
G04 Gerber Fmt 4.6, Leading zero omitted, Abs format (unit mm)*
G04 Created by KiCad (PCBNEW 4.0.2+dfsg1-stable) date Wed 10 Aug 2016 05:05:02 PM CDT*
%MOMM*%
G01*
G04 APERTURE LIST*
%ADD10C,0.090000*%
%ADD11C,0.150000*%
G04 APERTURE END LIST*
D10*
D11*
X143602000Y-140940000D02*
X143602000Y-141640000D01*
X142402000Y-141640000D02*
X142402000Y-140940000D01*
X142078000Y-140940000D02*
X142078000Y-141640000D01*
X140878000Y-141640000D02*
X140878000Y-140940000D01*
X140554000Y-140940000D02*
X140554000Y-141640000D01*
X139354000Y-141640000D02*
X139354000Y-140940000D01*
X162780000Y-138969860D02*
X162780000Y-142569860D01*
X164880000Y-138969860D02*
X164880000Y-142569860D01*
X164130000Y-141019860D02*
X163530000Y-141019860D01*
X163530000Y-141019860D02*
X163830000Y-140719860D01*
X163830000Y-140719860D02*
X164030000Y-140919860D01*
X164030000Y-140919860D02*
X163780000Y-140919860D01*
X163780000Y-140919860D02*
X163830000Y-140869860D01*
X164330000Y-140619860D02*
X163330000Y-140619860D01*
X163830000Y-141119860D02*
X163830000Y-141619860D01*
X163830000Y-140619860D02*
X164330000Y-141119860D01*
X164330000Y-141119860D02*
X163330000Y-141119860D01*
X163330000Y-141119860D02*
X163830000Y-140619860D01*
X160240000Y-138969860D02*
X160240000Y-142569860D01*
X162340000Y-138969860D02*
X162340000Y-142569860D01*
X161590000Y-141019860D02*
X160990000Y-141019860D01*
X160990000Y-141019860D02*
X161290000Y-140719860D01*
X161290000Y-140719860D02*
X161490000Y-140919860D01*
X161490000Y-140919860D02*
X161240000Y-140919860D01*
X161240000Y-140919860D02*
X161290000Y-140869860D01*
X161790000Y-140619860D02*
X160790000Y-140619860D01*
X161290000Y-141119860D02*
X161290000Y-141619860D01*
X161290000Y-140619860D02*
X161790000Y-141119860D01*
X161790000Y-141119860D02*
X160790000Y-141119860D01*
X160790000Y-141119860D02*
X161290000Y-140619860D01*
X137179000Y-144682000D02*
X137179000Y-146082000D01*
X137179000Y-146082000D02*
X133979000Y-146082000D01*
X133979000Y-146082000D02*
X133979000Y-149982000D01*
X133979000Y-149982000D02*
X145929000Y-149982000D01*
X145929000Y-149982000D02*
X145929000Y-146082000D01*
X145929000Y-146082000D02*
X144929000Y-146082000D01*
X138079000Y-144182000D02*
X137579000Y-143682000D01*
X137579000Y-143682000D02*
X138579000Y-143682000D01*
X138579000Y-143682000D02*
X138079000Y-144182000D01*
X149625000Y-144682000D02*
X149625000Y-146082000D01*
X149625000Y-146082000D02*
X146425000Y-146082000D01*
X146425000Y-146082000D02*
X146425000Y-149982000D01*
X146425000Y-149982000D02*
X158375000Y-149982000D01*
X158375000Y-149982000D02*
X158375000Y-146082000D01*
X158375000Y-146082000D02*
X157375000Y-146082000D01*
X150525000Y-144182000D02*
X150025000Y-143682000D01*
X150025000Y-143682000D02*
X151025000Y-143682000D01*
X151025000Y-143682000D02*
X150525000Y-144182000D01*
X161954000Y-144682000D02*
X161954000Y-146082000D01*
X161954000Y-146082000D02*
X158754000Y-146082000D01*
X158754000Y-146082000D02*
X158754000Y-149982000D01*
X158754000Y-149982000D02*
X170704000Y-149982000D01*
X170704000Y-149982000D02*
X170704000Y-146082000D01*
X170704000Y-146082000D02*
X169704000Y-146082000D01*
X162854000Y-144182000D02*
X162354000Y-143682000D01*
X162354000Y-143682000D02*
X163354000Y-143682000D01*
X163354000Y-143682000D02*
X162854000Y-144182000D01*
X133858000Y-143002000D02*
X133858000Y-137922000D01*
X133858000Y-137922000D02*
X131318000Y-137922000D01*
X131318000Y-137922000D02*
X131318000Y-143002000D01*
X131038000Y-145822000D02*
X131038000Y-144272000D01*
X131318000Y-143002000D02*
X133858000Y-143002000D01*
X134138000Y-144272000D02*
X134138000Y-145822000D01*
X134138000Y-145822000D02*
X131038000Y-145822000D01*
X177178000Y-144360000D02*
X177178000Y-135660000D01*
X170773000Y-144360000D02*
X170773000Y-135660000D01*
X170773000Y-135660000D02*
X177178000Y-135660000D01*
X175948000Y-135660000D02*
X175948000Y-144360000D01*
X177178000Y-144360000D02*
X170773000Y-144360000D01*
X167768000Y-133956000D02*
X167768000Y-132556000D01*
X167768000Y-132556000D02*
X170968000Y-132556000D01*
X170968000Y-132556000D02*
X170968000Y-128656000D01*
X170968000Y-128656000D02*
X159018000Y-128656000D01*
X159018000Y-128656000D02*
X159018000Y-132556000D01*
X159018000Y-132556000D02*
X160018000Y-132556000D01*
X166868000Y-134456000D02*
X167368000Y-134956000D01*
X167368000Y-134956000D02*
X166368000Y-134956000D01*
X166368000Y-134956000D02*
X166868000Y-134456000D01*
X155830000Y-133956000D02*
X155830000Y-132556000D01*
X155830000Y-132556000D02*
X159030000Y-132556000D01*
X159030000Y-132556000D02*
X159030000Y-128656000D01*
X159030000Y-128656000D02*
X147080000Y-128656000D01*
X147080000Y-128656000D02*
X147080000Y-132556000D01*
X147080000Y-132556000D02*
X148080000Y-132556000D01*
X154930000Y-134456000D02*
X155430000Y-134956000D01*
X155430000Y-134956000D02*
X154430000Y-134956000D01*
X154430000Y-134956000D02*
X154930000Y-134456000D01*
X147661000Y-141808000D02*
X147661000Y-140808000D01*
X149011000Y-140808000D02*
X149011000Y-141808000D01*
X151217000Y-141808000D02*
X151217000Y-140808000D01*
X152567000Y-140808000D02*
X152567000Y-141808000D01*
X154773000Y-141808000D02*
X154773000Y-140808000D01*
X156123000Y-140808000D02*
X156123000Y-141808000D01*
X145883000Y-141808000D02*
X145883000Y-140808000D01*
X147233000Y-140808000D02*
X147233000Y-141808000D01*
X149439000Y-141808000D02*
X149439000Y-140808000D01*
X150789000Y-140808000D02*
X150789000Y-141808000D01*
X152995000Y-141808000D02*
X152995000Y-140808000D01*
X154345000Y-140808000D02*
X154345000Y-141808000D01*
X168823000Y-137252000D02*
X168823000Y-138252000D01*
X167473000Y-138252000D02*
X167473000Y-137252000D01*
X144105000Y-141808000D02*
X144105000Y-140808000D01*
X145455000Y-140808000D02*
X145455000Y-141808000D01*
X153832000Y-136057000D02*
X152832000Y-136057000D01*
X152832000Y-134707000D02*
X153832000Y-134707000D01*
X157901000Y-140894000D02*
X157901000Y-141894000D01*
X156551000Y-141894000D02*
X156551000Y-140894000D01*
X159679000Y-140894000D02*
X159679000Y-141894000D01*
X158329000Y-141894000D02*
X158329000Y-140894000D01*
X139445680Y-131275780D02*
X141945680Y-131275780D01*
X141945680Y-131275780D02*
X141945680Y-132375780D01*
X141945680Y-132375780D02*
X139445680Y-132375780D01*
X139445680Y-132375780D02*
X139445680Y-131275780D01*
X139195680Y-132625780D02*
X142195680Y-132625780D01*
X139195680Y-131025780D02*
X142195680Y-131025780D01*
X142195680Y-131025780D02*
X142195680Y-132625780D01*
X139195680Y-131025780D02*
X139195680Y-132625780D01*
X137695680Y-133575780D02*
X143695680Y-133575780D01*
X137695680Y-130075780D02*
X143695680Y-130075780D01*
X137695680Y-130075780D02*
X137695680Y-133575780D01*
X143695680Y-130075780D02*
X143695680Y-133575780D01*
X141955890Y-136440220D02*
X139455890Y-136440220D01*
X139455890Y-136440220D02*
X139455890Y-135340220D01*
X139455890Y-135340220D02*
X141955890Y-135340220D01*
X141955890Y-135340220D02*
X141955890Y-136440220D01*
X142205890Y-135090220D02*
X139205890Y-135090220D01*
X142205890Y-136690220D02*
X139205890Y-136690220D01*
X139205890Y-136690220D02*
X139205890Y-135090220D01*
X142205890Y-136690220D02*
X142205890Y-135090220D01*
X143705890Y-134140220D02*
X137705890Y-134140220D01*
X143705890Y-137640220D02*
X137705890Y-137640220D01*
X143705890Y-137640220D02*
X143705890Y-134140220D01*
X137705890Y-137640220D02*
X137705890Y-134140220D01*
X143359143Y-138596666D02*
X143406762Y-138644285D01*
X143454381Y-138787142D01*
X143454381Y-138882380D01*
X143406762Y-139025238D01*
X143311524Y-139120476D01*
X143216286Y-139168095D01*
X143025810Y-139215714D01*
X142882952Y-139215714D01*
X142692476Y-139168095D01*
X142597238Y-139120476D01*
X142502000Y-139025238D01*
X142454381Y-138882380D01*
X142454381Y-138787142D01*
X142502000Y-138644285D01*
X142549619Y-138596666D01*
X142882952Y-138025238D02*
X142835333Y-138120476D01*
X142787714Y-138168095D01*
X142692476Y-138215714D01*
X142644857Y-138215714D01*
X142549619Y-138168095D01*
X142502000Y-138120476D01*
X142454381Y-138025238D01*
X142454381Y-137834761D01*
X142502000Y-137739523D01*
X142549619Y-137691904D01*
X142644857Y-137644285D01*
X142692476Y-137644285D01*
X142787714Y-137691904D01*
X142835333Y-137739523D01*
X142882952Y-137834761D01*
X142882952Y-138025238D01*
X142930571Y-138120476D01*
X142978190Y-138168095D01*
X143073429Y-138215714D01*
X143263905Y-138215714D01*
X143359143Y-138168095D01*
X143406762Y-138120476D01*
X143454381Y-138025238D01*
X143454381Y-137834761D01*
X143406762Y-137739523D01*
X143359143Y-137691904D01*
X143263905Y-137644285D01*
X143073429Y-137644285D01*
X142978190Y-137691904D01*
X142930571Y-137739523D01*
X142882952Y-137834761D01*
X139692143Y-138787143D02*
X139644524Y-138834762D01*
X139501667Y-138882381D01*
X139406429Y-138882381D01*
X139263571Y-138834762D01*
X139168333Y-138739524D01*
X139120714Y-138644286D01*
X139073095Y-138453810D01*
X139073095Y-138310952D01*
X139120714Y-138120476D01*
X139168333Y-138025238D01*
X139263571Y-137930000D01*
X139406429Y-137882381D01*
X139501667Y-137882381D01*
X139644524Y-137930000D01*
X139692143Y-137977619D01*
X140644524Y-138882381D02*
X140073095Y-138882381D01*
X140358809Y-138882381D02*
X140358809Y-137882381D01*
X140263571Y-138025238D01*
X140168333Y-138120476D01*
X140073095Y-138168095D01*
X140977857Y-137882381D02*
X141596905Y-137882381D01*
X141263571Y-138263333D01*
X141406429Y-138263333D01*
X141501667Y-138310952D01*
X141549286Y-138358571D01*
X141596905Y-138453810D01*
X141596905Y-138691905D01*
X141549286Y-138787143D01*
X141501667Y-138834762D01*
X141406429Y-138882381D01*
X141120714Y-138882381D01*
X141025476Y-138834762D01*
X140977857Y-138787143D01*
X138787143Y-141612857D02*
X138834762Y-141660476D01*
X138882381Y-141803333D01*
X138882381Y-141898571D01*
X138834762Y-142041429D01*
X138739524Y-142136667D01*
X138644286Y-142184286D01*
X138453810Y-142231905D01*
X138310952Y-142231905D01*
X138120476Y-142184286D01*
X138025238Y-142136667D01*
X137930000Y-142041429D01*
X137882381Y-141898571D01*
X137882381Y-141803333D01*
X137930000Y-141660476D01*
X137977619Y-141612857D01*
X138882381Y-140660476D02*
X138882381Y-141231905D01*
X138882381Y-140946191D02*
X137882381Y-140946191D01*
X138025238Y-141041429D01*
X138120476Y-141136667D01*
X138168095Y-141231905D01*
X138215714Y-139803333D02*
X138882381Y-139803333D01*
X137834762Y-140041429D02*
X138549048Y-140279524D01*
X138549048Y-139660476D01*
X164282381Y-137771047D02*
X164282381Y-138247238D01*
X163282381Y-138247238D01*
X163758571Y-137437714D02*
X163758571Y-137104380D01*
X164282381Y-136961523D02*
X164282381Y-137437714D01*
X163282381Y-137437714D01*
X163282381Y-136961523D01*
X164282381Y-136532952D02*
X163282381Y-136532952D01*
X163282381Y-136294857D01*
X163330000Y-136151999D01*
X163425238Y-136056761D01*
X163520476Y-136009142D01*
X163710952Y-135961523D01*
X163853810Y-135961523D01*
X164044286Y-136009142D01*
X164139524Y-136056761D01*
X164234762Y-136151999D01*
X164282381Y-136294857D01*
X164282381Y-136532952D01*
X164282381Y-135009142D02*
X164282381Y-135580571D01*
X164282381Y-135294857D02*
X163282381Y-135294857D01*
X163425238Y-135390095D01*
X163520476Y-135485333D01*
X163568095Y-135580571D01*
X161742381Y-137771047D02*
X161742381Y-138247238D01*
X160742381Y-138247238D01*
X161218571Y-137437714D02*
X161218571Y-137104380D01*
X161742381Y-136961523D02*
X161742381Y-137437714D01*
X160742381Y-137437714D01*
X160742381Y-136961523D01*
X161742381Y-136532952D02*
X160742381Y-136532952D01*
X160742381Y-136294857D01*
X160790000Y-136151999D01*
X160885238Y-136056761D01*
X160980476Y-136009142D01*
X161170952Y-135961523D01*
X161313810Y-135961523D01*
X161504286Y-136009142D01*
X161599524Y-136056761D01*
X161694762Y-136151999D01*
X161742381Y-136294857D01*
X161742381Y-136532952D01*
X160837619Y-135580571D02*
X160790000Y-135532952D01*
X160742381Y-135437714D01*
X160742381Y-135199618D01*
X160790000Y-135104380D01*
X160837619Y-135056761D01*
X160932857Y-135009142D01*
X161028095Y-135009142D01*
X161170952Y-135056761D01*
X161742381Y-135628190D01*
X161742381Y-135009142D01*
X143145000Y-145232381D02*
X143145000Y-144232381D01*
X143811666Y-144232381D02*
X144002143Y-144232381D01*
X144097381Y-144280000D01*
X144192619Y-144375238D01*
X144240238Y-144565714D01*
X144240238Y-144899048D01*
X144192619Y-145089524D01*
X144097381Y-145184762D01*
X144002143Y-145232381D01*
X143811666Y-145232381D01*
X143716428Y-145184762D01*
X143621190Y-145089524D01*
X143573571Y-144899048D01*
X143573571Y-144565714D01*
X143621190Y-144375238D01*
X143716428Y-144280000D01*
X143811666Y-144232381D01*
X145192619Y-145232381D02*
X144621190Y-145232381D01*
X144906904Y-145232381D02*
X144906904Y-144232381D01*
X144811666Y-144375238D01*
X144716428Y-144470476D01*
X144621190Y-144518095D01*
X155845000Y-145232381D02*
X155845000Y-144232381D01*
X156511666Y-144232381D02*
X156702143Y-144232381D01*
X156797381Y-144280000D01*
X156892619Y-144375238D01*
X156940238Y-144565714D01*
X156940238Y-144899048D01*
X156892619Y-145089524D01*
X156797381Y-145184762D01*
X156702143Y-145232381D01*
X156511666Y-145232381D01*
X156416428Y-145184762D01*
X156321190Y-145089524D01*
X156273571Y-144899048D01*
X156273571Y-144565714D01*
X156321190Y-144375238D01*
X156416428Y-144280000D01*
X156511666Y-144232381D01*
X157321190Y-144327619D02*
X157368809Y-144280000D01*
X157464047Y-144232381D01*
X157702143Y-144232381D01*
X157797381Y-144280000D01*
X157845000Y-144327619D01*
X157892619Y-144422857D01*
X157892619Y-144518095D01*
X157845000Y-144660952D01*
X157273571Y-145232381D01*
X157892619Y-145232381D01*
X167910000Y-145232381D02*
X167910000Y-144232381D01*
X168576666Y-144232381D02*
X168767143Y-144232381D01*
X168862381Y-144280000D01*
X168957619Y-144375238D01*
X169005238Y-144565714D01*
X169005238Y-144899048D01*
X168957619Y-145089524D01*
X168862381Y-145184762D01*
X168767143Y-145232381D01*
X168576666Y-145232381D01*
X168481428Y-145184762D01*
X168386190Y-145089524D01*
X168338571Y-144899048D01*
X168338571Y-144565714D01*
X168386190Y-144375238D01*
X168481428Y-144280000D01*
X168576666Y-144232381D01*
X169338571Y-144232381D02*
X169957619Y-144232381D01*
X169624285Y-144613333D01*
X169767143Y-144613333D01*
X169862381Y-144660952D01*
X169910000Y-144708571D01*
X169957619Y-144803810D01*
X169957619Y-145041905D01*
X169910000Y-145137143D01*
X169862381Y-145184762D01*
X169767143Y-145232381D01*
X169481428Y-145232381D01*
X169386190Y-145184762D01*
X169338571Y-145137143D01*
X148788381Y-138510666D02*
X148312190Y-138844000D01*
X148788381Y-139082095D02*
X147788381Y-139082095D01*
X147788381Y-138701142D01*
X147836000Y-138605904D01*
X147883619Y-138558285D01*
X147978857Y-138510666D01*
X148121714Y-138510666D01*
X148216952Y-138558285D01*
X148264571Y-138605904D01*
X148312190Y-138701142D01*
X148312190Y-139082095D01*
X147883619Y-138129714D02*
X147836000Y-138082095D01*
X147788381Y-137986857D01*
X147788381Y-137748761D01*
X147836000Y-137653523D01*
X147883619Y-137605904D01*
X147978857Y-137558285D01*
X148074095Y-137558285D01*
X148216952Y-137605904D01*
X148788381Y-138177333D01*
X148788381Y-137558285D01*
X152344381Y-138342666D02*
X151868190Y-138676000D01*
X152344381Y-138914095D02*
X151344381Y-138914095D01*
X151344381Y-138533142D01*
X151392000Y-138437904D01*
X151439619Y-138390285D01*
X151534857Y-138342666D01*
X151677714Y-138342666D01*
X151772952Y-138390285D01*
X151820571Y-138437904D01*
X151868190Y-138533142D01*
X151868190Y-138914095D01*
X151344381Y-138009333D02*
X151344381Y-137390285D01*
X151725333Y-137723619D01*
X151725333Y-137580761D01*
X151772952Y-137485523D01*
X151820571Y-137437904D01*
X151915810Y-137390285D01*
X152153905Y-137390285D01*
X152249143Y-137437904D01*
X152296762Y-137485523D01*
X152344381Y-137580761D01*
X152344381Y-137866476D01*
X152296762Y-137961714D01*
X152249143Y-138009333D01*
X155900381Y-138256666D02*
X155424190Y-138590000D01*
X155900381Y-138828095D02*
X154900381Y-138828095D01*
X154900381Y-138447142D01*
X154948000Y-138351904D01*
X154995619Y-138304285D01*
X155090857Y-138256666D01*
X155233714Y-138256666D01*
X155328952Y-138304285D01*
X155376571Y-138351904D01*
X155424190Y-138447142D01*
X155424190Y-138828095D01*
X155233714Y-137399523D02*
X155900381Y-137399523D01*
X154852762Y-137637619D02*
X155567048Y-137875714D01*
X155567048Y-137256666D01*
X147010381Y-138426666D02*
X146534190Y-138760000D01*
X147010381Y-138998095D02*
X146010381Y-138998095D01*
X146010381Y-138617142D01*
X146058000Y-138521904D01*
X146105619Y-138474285D01*
X146200857Y-138426666D01*
X146343714Y-138426666D01*
X146438952Y-138474285D01*
X146486571Y-138521904D01*
X146534190Y-138617142D01*
X146534190Y-138998095D01*
X146010381Y-137521904D02*
X146010381Y-137998095D01*
X146486571Y-138045714D01*
X146438952Y-137998095D01*
X146391333Y-137902857D01*
X146391333Y-137664761D01*
X146438952Y-137569523D01*
X146486571Y-137521904D01*
X146581810Y-137474285D01*
X146819905Y-137474285D01*
X146915143Y-137521904D01*
X146962762Y-137569523D01*
X147010381Y-137664761D01*
X147010381Y-137902857D01*
X146962762Y-137998095D01*
X146915143Y-138045714D01*
X150693381Y-138383666D02*
X150217190Y-138717000D01*
X150693381Y-138955095D02*
X149693381Y-138955095D01*
X149693381Y-138574142D01*
X149741000Y-138478904D01*
X149788619Y-138431285D01*
X149883857Y-138383666D01*
X150026714Y-138383666D01*
X150121952Y-138431285D01*
X150169571Y-138478904D01*
X150217190Y-138574142D01*
X150217190Y-138955095D01*
X149693381Y-137526523D02*
X149693381Y-137717000D01*
X149741000Y-137812238D01*
X149788619Y-137859857D01*
X149931476Y-137955095D01*
X150121952Y-138002714D01*
X150502905Y-138002714D01*
X150598143Y-137955095D01*
X150645762Y-137907476D01*
X150693381Y-137812238D01*
X150693381Y-137621761D01*
X150645762Y-137526523D01*
X150598143Y-137478904D01*
X150502905Y-137431285D01*
X150264810Y-137431285D01*
X150169571Y-137478904D01*
X150121952Y-137526523D01*
X150074333Y-137621761D01*
X150074333Y-137812238D01*
X150121952Y-137907476D01*
X150169571Y-137955095D01*
X150264810Y-138002714D01*
X154122381Y-138256666D02*
X153646190Y-138590000D01*
X154122381Y-138828095D02*
X153122381Y-138828095D01*
X153122381Y-138447142D01*
X153170000Y-138351904D01*
X153217619Y-138304285D01*
X153312857Y-138256666D01*
X153455714Y-138256666D01*
X153550952Y-138304285D01*
X153598571Y-138351904D01*
X153646190Y-138447142D01*
X153646190Y-138828095D01*
X153122381Y-137923333D02*
X153122381Y-137256666D01*
X154122381Y-137685238D01*
X166700381Y-137918666D02*
X166224190Y-138252000D01*
X166700381Y-138490095D02*
X165700381Y-138490095D01*
X165700381Y-138109142D01*
X165748000Y-138013904D01*
X165795619Y-137966285D01*
X165890857Y-137918666D01*
X166033714Y-137918666D01*
X166128952Y-137966285D01*
X166176571Y-138013904D01*
X166224190Y-138109142D01*
X166224190Y-138490095D01*
X166128952Y-137347238D02*
X166081333Y-137442476D01*
X166033714Y-137490095D01*
X165938476Y-137537714D01*
X165890857Y-137537714D01*
X165795619Y-137490095D01*
X165748000Y-137442476D01*
X165700381Y-137347238D01*
X165700381Y-137156761D01*
X165748000Y-137061523D01*
X165795619Y-137013904D01*
X165890857Y-136966285D01*
X165938476Y-136966285D01*
X166033714Y-137013904D01*
X166081333Y-137061523D01*
X166128952Y-137156761D01*
X166128952Y-137347238D01*
X166176571Y-137442476D01*
X166224190Y-137490095D01*
X166319429Y-137537714D01*
X166509905Y-137537714D01*
X166605143Y-137490095D01*
X166652762Y-137442476D01*
X166700381Y-137347238D01*
X166700381Y-137156761D01*
X166652762Y-137061523D01*
X166605143Y-137013904D01*
X166509905Y-136966285D01*
X166319429Y-136966285D01*
X166224190Y-137013904D01*
X166176571Y-137061523D01*
X166128952Y-137156761D01*
X145232381Y-138342666D02*
X144756190Y-138676000D01*
X145232381Y-138914095D02*
X144232381Y-138914095D01*
X144232381Y-138533142D01*
X144280000Y-138437904D01*
X144327619Y-138390285D01*
X144422857Y-138342666D01*
X144565714Y-138342666D01*
X144660952Y-138390285D01*
X144708571Y-138437904D01*
X144756190Y-138533142D01*
X144756190Y-138914095D01*
X145232381Y-137866476D02*
X145232381Y-137676000D01*
X145184762Y-137580761D01*
X145137143Y-137533142D01*
X144994286Y-137437904D01*
X144803810Y-137390285D01*
X144422857Y-137390285D01*
X144327619Y-137437904D01*
X144280000Y-137485523D01*
X144232381Y-137580761D01*
X144232381Y-137771238D01*
X144280000Y-137866476D01*
X144327619Y-137914095D01*
X144422857Y-137961714D01*
X144660952Y-137961714D01*
X144756190Y-137914095D01*
X144803810Y-137866476D01*
X144851429Y-137771238D01*
X144851429Y-137580761D01*
X144803810Y-137485523D01*
X144756190Y-137437904D01*
X144660952Y-137390285D01*
X152689143Y-133934381D02*
X152355809Y-133458190D01*
X152117714Y-133934381D02*
X152117714Y-132934381D01*
X152498667Y-132934381D01*
X152593905Y-132982000D01*
X152641524Y-133029619D01*
X152689143Y-133124857D01*
X152689143Y-133267714D01*
X152641524Y-133362952D01*
X152593905Y-133410571D01*
X152498667Y-133458190D01*
X152117714Y-133458190D01*
X153641524Y-133934381D02*
X153070095Y-133934381D01*
X153355809Y-133934381D02*
X153355809Y-132934381D01*
X153260571Y-133077238D01*
X153165333Y-133172476D01*
X153070095Y-133220095D01*
X154260571Y-132934381D02*
X154355810Y-132934381D01*
X154451048Y-132982000D01*
X154498667Y-133029619D01*
X154546286Y-133124857D01*
X154593905Y-133315333D01*
X154593905Y-133553429D01*
X154546286Y-133743905D01*
X154498667Y-133839143D01*
X154451048Y-133886762D01*
X154355810Y-133934381D01*
X154260571Y-133934381D01*
X154165333Y-133886762D01*
X154117714Y-133839143D01*
X154070095Y-133743905D01*
X154022476Y-133553429D01*
X154022476Y-133315333D01*
X154070095Y-133124857D01*
X154117714Y-133029619D01*
X154165333Y-132982000D01*
X154260571Y-132934381D01*
X157678381Y-138564857D02*
X157202190Y-138898191D01*
X157678381Y-139136286D02*
X156678381Y-139136286D01*
X156678381Y-138755333D01*
X156726000Y-138660095D01*
X156773619Y-138612476D01*
X156868857Y-138564857D01*
X157011714Y-138564857D01*
X157106952Y-138612476D01*
X157154571Y-138660095D01*
X157202190Y-138755333D01*
X157202190Y-139136286D01*
X157678381Y-137612476D02*
X157678381Y-138183905D01*
X157678381Y-137898191D02*
X156678381Y-137898191D01*
X156821238Y-137993429D01*
X156916476Y-138088667D01*
X156964095Y-138183905D01*
X157678381Y-136660095D02*
X157678381Y-137231524D01*
X157678381Y-136945810D02*
X156678381Y-136945810D01*
X156821238Y-137041048D01*
X156916476Y-137136286D01*
X156964095Y-137231524D01*
X159710381Y-138564857D02*
X159234190Y-138898191D01*
X159710381Y-139136286D02*
X158710381Y-139136286D01*
X158710381Y-138755333D01*
X158758000Y-138660095D01*
X158805619Y-138612476D01*
X158900857Y-138564857D01*
X159043714Y-138564857D01*
X159138952Y-138612476D01*
X159186571Y-138660095D01*
X159234190Y-138755333D01*
X159234190Y-139136286D01*
X159710381Y-137612476D02*
X159710381Y-138183905D01*
X159710381Y-137898191D02*
X158710381Y-137898191D01*
X158853238Y-137993429D01*
X158948476Y-138088667D01*
X158996095Y-138183905D01*
X158805619Y-137231524D02*
X158758000Y-137183905D01*
X158710381Y-137088667D01*
X158710381Y-136850571D01*
X158758000Y-136755333D01*
X158805619Y-136707714D01*
X158900857Y-136660095D01*
X158996095Y-136660095D01*
X159138952Y-136707714D01*
X159710381Y-137279143D01*
X159710381Y-136660095D01*
X134437381Y-132897381D02*
X133961190Y-133230715D01*
X134437381Y-133468810D02*
X133437381Y-133468810D01*
X133437381Y-133087857D01*
X133485000Y-132992619D01*
X133532619Y-132945000D01*
X133627857Y-132897381D01*
X133770714Y-132897381D01*
X133865952Y-132945000D01*
X133913571Y-132992619D01*
X133961190Y-133087857D01*
X133961190Y-133468810D01*
X133913571Y-132468810D02*
X133913571Y-132135476D01*
X134437381Y-131992619D02*
X134437381Y-132468810D01*
X133437381Y-132468810D01*
X133437381Y-131992619D01*
X134389762Y-131611667D02*
X134437381Y-131468810D01*
X134437381Y-131230714D01*
X134389762Y-131135476D01*
X134342143Y-131087857D01*
X134246905Y-131040238D01*
X134151667Y-131040238D01*
X134056429Y-131087857D01*
X134008810Y-131135476D01*
X133961190Y-131230714D01*
X133913571Y-131421191D01*
X133865952Y-131516429D01*
X133818333Y-131564048D01*
X133723095Y-131611667D01*
X133627857Y-131611667D01*
X133532619Y-131564048D01*
X133485000Y-131516429D01*
X133437381Y-131421191D01*
X133437381Y-131183095D01*
X133485000Y-131040238D01*
X133913571Y-130611667D02*
X133913571Y-130278333D01*
X134437381Y-130135476D02*
X134437381Y-130611667D01*
X133437381Y-130611667D01*
X133437381Y-130135476D01*
X133437381Y-129849762D02*
X133437381Y-129278333D01*
X134437381Y-129564048D02*
X133437381Y-129564048D01*
X133913571Y-137247142D02*
X133961190Y-137104285D01*
X134008810Y-137056666D01*
X134104048Y-137009047D01*
X134246905Y-137009047D01*
X134342143Y-137056666D01*
X134389762Y-137104285D01*
X134437381Y-137199523D01*
X134437381Y-137580476D01*
X133437381Y-137580476D01*
X133437381Y-137247142D01*
X133485000Y-137151904D01*
X133532619Y-137104285D01*
X133627857Y-137056666D01*
X133723095Y-137056666D01*
X133818333Y-137104285D01*
X133865952Y-137151904D01*
X133913571Y-137247142D01*
X133913571Y-137580476D01*
X133437381Y-136390000D02*
X133437381Y-136199523D01*
X133485000Y-136104285D01*
X133580238Y-136009047D01*
X133770714Y-135961428D01*
X134104048Y-135961428D01*
X134294524Y-136009047D01*
X134389762Y-136104285D01*
X134437381Y-136199523D01*
X134437381Y-136390000D01*
X134389762Y-136485238D01*
X134294524Y-136580476D01*
X134104048Y-136628095D01*
X133770714Y-136628095D01*
X133580238Y-136580476D01*
X133485000Y-136485238D01*
X133437381Y-136390000D01*
X133437381Y-135342381D02*
X133437381Y-135151904D01*
X133485000Y-135056666D01*
X133580238Y-134961428D01*
X133770714Y-134913809D01*
X134104048Y-134913809D01*
X134294524Y-134961428D01*
X134389762Y-135056666D01*
X134437381Y-135151904D01*
X134437381Y-135342381D01*
X134389762Y-135437619D01*
X134294524Y-135532857D01*
X134104048Y-135580476D01*
X133770714Y-135580476D01*
X133580238Y-135532857D01*
X133485000Y-135437619D01*
X133437381Y-135342381D01*
X133437381Y-134628095D02*
X133437381Y-134056666D01*
X134437381Y-134342381D02*
X133437381Y-134342381D01*
M02*
