M48
;DRILL file {KiCad 4.0.2+dfsg1-stable} date Wed 10 Aug 2016 05:05:15 PM CDT
;FORMAT={-:-/ absolute / inch / decimal}
FMAT,2
INCH,TZ
T1C0.012
T2C0.020
T3C0.022
T4C0.040
%
G90
G05
M72
T1
X5.37Y-5.52
X5.38Y-5.73
X5.4309Y-5.5609
X5.44Y-5.46
X5.4479Y-5.4098
X5.47Y-5.66
X5.52Y-5.39
X5.5699Y-5.4676
X5.58Y-5.88
X5.6628Y-5.5175
X5.664Y-5.5825
X5.72Y-5.4075
X5.7357Y-5.53
X5.75Y-5.4015
X5.8Y-5.56
X5.84Y-5.34
X5.87Y-5.69
X5.91Y-5.4725
X5.92Y-5.34
X5.96Y-5.14
X5.9939Y-5.8197
X6.0143Y-5.52
X6.0475Y-5.8173
X6.08Y-5.52
X6.0899Y-5.5699
X6.2302Y-5.4698
X6.35Y-5.7217
X6.36Y-5.4625
X6.38Y-5.83
X6.4Y-5.16
X6.4022Y-5.5446
X6.42Y-5.3075
X6.42Y-5.77
X6.47Y-5.2975
X6.5204Y-5.2996
X6.55Y-5.33
X6.62Y-5.72
X6.67Y-5.7315
X6.71Y-5.72
T4
X5.22Y-5.48
X5.22Y-5.58
X5.22Y-5.68
T2
X6.8828Y-5.3744G85X6.8572Y-5.3744
G05
X6.8828Y-5.65G85X6.8572Y-5.65
G05
T3
X6.7637Y-5.4197G85X6.7637Y-5.4079
G05
X6.7637Y-5.6165G85X6.7637Y-5.6047
G05
T0
M30
