G04 #@! TF.FileFunction,Copper,L1,Top,Signal*
%FSLAX46Y46*%
G04 Gerber Fmt 4.6, Leading zero omitted, Abs format (unit mm)*
G04 Created by KiCad (PCBNEW 4.0.2+dfsg1-stable) date Wed 10 Aug 2016 05:05:02 PM CDT*
%MOMM*%
G01*
G04 APERTURE LIST*
%ADD10C,0.090000*%
%ADD11R,0.750000X1.200000*%
%ADD12R,1.800860X1.597660*%
%ADD13R,0.800000X1.300000*%
%ADD14R,2.100000X3.000000*%
%ADD15R,2.032000X1.727200*%
%ADD16O,2.032000X1.727200*%
%ADD17R,1.350000X0.400000*%
%ADD18O,0.950000X1.250000*%
%ADD19O,1.550000X1.000000*%
%ADD20R,0.900000X1.200000*%
%ADD21R,1.200000X0.900000*%
%ADD22R,2.180000X1.600000*%
%ADD23C,0.558800*%
%ADD24C,0.228600*%
%ADD25C,0.250000*%
G04 APERTURE END LIST*
D10*
D11*
X143002000Y-140340000D03*
X143002000Y-142240000D03*
X141478000Y-140340000D03*
X141478000Y-142240000D03*
X139954000Y-140340000D03*
X139954000Y-142240000D03*
D12*
X163830000Y-142539720D03*
X163830000Y-139700000D03*
X161290000Y-142539720D03*
X161290000Y-139700000D03*
D13*
X138079000Y-145332000D03*
X139329000Y-145332000D03*
X140579000Y-145332000D03*
X141829000Y-145332000D03*
D14*
X135529000Y-148082000D03*
X144379000Y-148082000D03*
D13*
X150525000Y-145332000D03*
X151775000Y-145332000D03*
X153025000Y-145332000D03*
X154275000Y-145332000D03*
D14*
X147975000Y-148082000D03*
X156825000Y-148082000D03*
D13*
X162854000Y-145332000D03*
X164104000Y-145332000D03*
X165354000Y-145332000D03*
X166604000Y-145332000D03*
D14*
X160304000Y-148082000D03*
X169154000Y-148082000D03*
D15*
X132588000Y-144272000D03*
D16*
X132588000Y-141732000D03*
X132588000Y-139192000D03*
D17*
X171798000Y-141310000D03*
X171798000Y-140660000D03*
X171798000Y-140010000D03*
X171798000Y-139360000D03*
X171798000Y-138710000D03*
D18*
X171798000Y-142510000D03*
X171798000Y-137510000D03*
D19*
X174498000Y-143510000D03*
X174498000Y-136510000D03*
D13*
X166868000Y-133306000D03*
X165618000Y-133306000D03*
X164368000Y-133306000D03*
X163118000Y-133306000D03*
D14*
X169418000Y-130556000D03*
X160568000Y-130556000D03*
D13*
X154930000Y-133306000D03*
X153680000Y-133306000D03*
X152430000Y-133306000D03*
X151180000Y-133306000D03*
D14*
X157480000Y-130556000D03*
X148630000Y-130556000D03*
D20*
X148336000Y-140208000D03*
X148336000Y-142408000D03*
X151892000Y-140208000D03*
X151892000Y-142408000D03*
X155448000Y-140208000D03*
X155448000Y-142408000D03*
X146558000Y-140208000D03*
X146558000Y-142408000D03*
X150114000Y-140208000D03*
X150114000Y-142408000D03*
X153670000Y-140208000D03*
X153670000Y-142408000D03*
X168148000Y-138852000D03*
X168148000Y-136652000D03*
X144780000Y-140208000D03*
X144780000Y-142408000D03*
D21*
X152232000Y-135382000D03*
X154432000Y-135382000D03*
D20*
X157226000Y-142494000D03*
X157226000Y-140294000D03*
X159004000Y-142494000D03*
X159004000Y-140294000D03*
D22*
X136083140Y-131823680D03*
X145288000Y-131828320D03*
X145318430Y-135892320D03*
X136113570Y-135887680D03*
D23*
X161544000Y-138747520D03*
X150368000Y-135636000D03*
X152245589Y-147820121D03*
X147320000Y-141224000D03*
X166370000Y-135382000D03*
X162560000Y-131064000D03*
X151384000Y-130556000D03*
X138938000Y-143764000D03*
X162052000Y-148082000D03*
X170434000Y-145288000D03*
X158247916Y-138931883D03*
X163068000Y-146558000D03*
X162617097Y-140832588D03*
X161290000Y-145332000D03*
X168148000Y-145288000D03*
X148336000Y-135636000D03*
X141732000Y-149352000D03*
X153606480Y-147759019D03*
X136652000Y-145542000D03*
X154683897Y-141475776D03*
X149098000Y-144525958D03*
X140208000Y-136906000D03*
X143864860Y-141795520D03*
X145687202Y-140462000D03*
X141476409Y-138876359D03*
X152762798Y-140208000D03*
X154432000Y-140208000D03*
X150114000Y-139001510D03*
X163068000Y-134810480D03*
X145288000Y-137350480D03*
X146050000Y-137198069D03*
X165618000Y-134610000D03*
X164338000Y-134556490D03*
X138176000Y-138683994D03*
X143834202Y-140144480D03*
X138376397Y-137408255D03*
X137945125Y-141247125D03*
X136398000Y-140208000D03*
X169418000Y-145580121D03*
D24*
X160327747Y-135636000D02*
X165598000Y-135636000D01*
X150487899Y-135755899D02*
X151262512Y-136530512D01*
X161544000Y-139446000D02*
X161544000Y-139142651D01*
X151262512Y-136530512D02*
X152855229Y-136530512D01*
X155887286Y-136651998D02*
X159311749Y-136651998D01*
X155602361Y-136936923D02*
X155887286Y-136651998D01*
X153261639Y-136936923D02*
X155602361Y-136936923D01*
X159311749Y-136651998D02*
X160327747Y-135636000D01*
X152855229Y-136530512D02*
X153261639Y-136936923D01*
X165598000Y-135636000D02*
X166868000Y-134366000D01*
X161290000Y-139700000D02*
X161544000Y-139446000D01*
X161544000Y-139142651D02*
X161544000Y-138747520D01*
X150368000Y-135636000D02*
X150487899Y-135755899D01*
X150525000Y-145582000D02*
X152245589Y-147302589D01*
X150525000Y-145332000D02*
X150525000Y-145582000D01*
X152245589Y-147302589D02*
X152245589Y-147820121D01*
X143002000Y-142240000D02*
X143170000Y-142408000D01*
X143170000Y-142408000D02*
X144101400Y-142408000D01*
X144101400Y-142408000D02*
X144780000Y-142408000D01*
X137145582Y-129895589D02*
X139078312Y-131828320D01*
X134701039Y-137465681D02*
X133705589Y-136470232D01*
X132740400Y-144272000D02*
X134701039Y-142311361D01*
X139078312Y-131828320D02*
X143969400Y-131828320D01*
X133705589Y-136470232D02*
X133705589Y-130641660D01*
X133705589Y-130641660D02*
X134451660Y-129895589D01*
X132588000Y-144272000D02*
X132740400Y-144272000D01*
X134701039Y-142311361D02*
X134701039Y-137465681D01*
X134451660Y-129895589D02*
X137145582Y-129895589D01*
X143969400Y-131828320D02*
X145288000Y-131828320D01*
X150487899Y-132422319D02*
X150487899Y-135755899D01*
X150546319Y-132363899D02*
X150487899Y-132422319D01*
X146913400Y-141224000D02*
X147320000Y-141224000D01*
X146558000Y-142408000D02*
X146558000Y-141579400D01*
X146558000Y-141579400D02*
X146913400Y-141224000D01*
X162052000Y-147686869D02*
X162052000Y-148082000D01*
X162052000Y-146384000D02*
X162052000Y-147686869D01*
X162854000Y-145582000D02*
X162052000Y-146384000D01*
X162854000Y-145332000D02*
X162854000Y-145582000D01*
X166868000Y-134366000D02*
X166868000Y-135382000D01*
X166868000Y-135382000D02*
X166868000Y-136050600D01*
X166370000Y-135382000D02*
X166868000Y-135382000D01*
X165504600Y-131064000D02*
X162560000Y-131064000D01*
X166868000Y-133306000D02*
X166868000Y-132427400D01*
X166868000Y-132427400D02*
X165504600Y-131064000D01*
X154237899Y-132363899D02*
X151384000Y-132363899D01*
X151384000Y-132363899D02*
X150546319Y-132363899D01*
X151384000Y-130556000D02*
X151384000Y-132363899D01*
X161290000Y-139700000D02*
X162419030Y-139700000D01*
X162419030Y-139700000D02*
X163830000Y-139700000D01*
X171798000Y-137510000D02*
X171798000Y-138710000D01*
X145288000Y-131828320D02*
X145578000Y-131828320D01*
X145578000Y-131828320D02*
X146113579Y-132363899D01*
X146113579Y-132363899D02*
X150546319Y-132363899D01*
X155384000Y-144272000D02*
X153670000Y-142558000D01*
X153670000Y-142558000D02*
X153670000Y-142408000D01*
X159819209Y-144443473D02*
X159647736Y-144272000D01*
X159647736Y-144272000D02*
X155384000Y-144272000D01*
X161965473Y-144443473D02*
X159819209Y-144443473D01*
X162854000Y-145332000D02*
X161965473Y-144443473D01*
X138684000Y-144018000D02*
X138938000Y-143764000D01*
X138079000Y-144018000D02*
X138079000Y-143511400D01*
X138079000Y-145332000D02*
X138079000Y-144018000D01*
X138079000Y-144018000D02*
X138684000Y-144018000D01*
X166868000Y-133306000D02*
X166868000Y-134366000D01*
X154930000Y-133056000D02*
X154237899Y-132363899D01*
X154930000Y-133306000D02*
X154930000Y-133056000D01*
X166868000Y-133056000D02*
X166868000Y-133306000D01*
X168148000Y-136802000D02*
X168148000Y-136652000D01*
X166868000Y-136050600D02*
X167469400Y-136652000D01*
X167469400Y-136652000D02*
X168148000Y-136652000D01*
X150525000Y-145332000D02*
X150525000Y-142819000D01*
X150525000Y-142819000D02*
X150114000Y-142408000D01*
X138079000Y-143511400D02*
X139350400Y-142240000D01*
X139350400Y-142240000D02*
X139954000Y-142240000D01*
X144780000Y-142408000D02*
X146558000Y-142408000D01*
X141478000Y-142240000D02*
X143002000Y-142240000D01*
X139954000Y-142240000D02*
X141478000Y-142240000D01*
X170434000Y-142199000D02*
X170434000Y-145288000D01*
X171798000Y-141310000D02*
X171323000Y-141310000D01*
X171323000Y-141310000D02*
X170434000Y-142199000D01*
X159217665Y-138931883D02*
X158643047Y-138931883D01*
X158643047Y-138931883D02*
X158247916Y-138931883D01*
X159746101Y-139460319D02*
X159217665Y-138931883D01*
X166604000Y-142474000D02*
X164920931Y-140790931D01*
X159746101Y-140381143D02*
X159746101Y-139460319D01*
X160155889Y-140790931D02*
X159746101Y-140381143D01*
X166604000Y-145332000D02*
X166604000Y-142474000D01*
X164920931Y-140790931D02*
X160155889Y-140790931D01*
X141829000Y-145582000D02*
X142457600Y-146210600D01*
X141829000Y-145332000D02*
X141829000Y-145582000D01*
X152038878Y-148996411D02*
X154854340Y-148996411D01*
X154854340Y-148996411D02*
X155346409Y-148504341D01*
X154275000Y-145582000D02*
X154275000Y-145332000D01*
X155346409Y-148504341D02*
X155346409Y-146653409D01*
X142457600Y-146210600D02*
X149253068Y-146210600D01*
X149253068Y-146210600D02*
X152038878Y-148996411D01*
X155346409Y-146653409D02*
X154275000Y-145582000D01*
X166256600Y-146558000D02*
X163068000Y-146558000D01*
X166604000Y-145332000D02*
X166604000Y-146210600D01*
X166604000Y-146210600D02*
X166256600Y-146558000D01*
X161500000Y-145332000D02*
X161290000Y-145332000D01*
X154275000Y-145332000D02*
X161500000Y-145332000D01*
X168104000Y-145332000D02*
X168148000Y-145288000D01*
X166604000Y-145332000D02*
X168104000Y-145332000D01*
X164964111Y-141448789D02*
X155956000Y-141448789D01*
X165022532Y-144121932D02*
X165022532Y-141507210D01*
X165022532Y-141507210D02*
X164964111Y-141448789D01*
X155956000Y-141448789D02*
X154940000Y-141448789D01*
X165354000Y-144453400D02*
X165022532Y-144121932D01*
X165354000Y-145332000D02*
X165354000Y-144453400D01*
X148079680Y-135892320D02*
X148336000Y-135636000D01*
X145318430Y-135892320D02*
X148079680Y-135892320D01*
X141478000Y-149098000D02*
X141732000Y-149352000D01*
X141478000Y-147109600D02*
X141478000Y-149098000D01*
X140579000Y-145332000D02*
X140579000Y-146210600D01*
X140579000Y-146210600D02*
X141478000Y-147109600D01*
X153025000Y-145332000D02*
X153025000Y-147177539D01*
X153025000Y-147177539D02*
X153327081Y-147479620D01*
X153327081Y-147479620D02*
X153606480Y-147759019D01*
X134620000Y-130302000D02*
X134112000Y-130810000D01*
X140208000Y-136906000D02*
X140208000Y-133532758D01*
X140208000Y-133532758D02*
X136977242Y-130302000D01*
X138150108Y-140340000D02*
X139350400Y-140340000D01*
X136977242Y-130302000D02*
X134620000Y-130302000D01*
X134112000Y-130810000D02*
X134112000Y-136301892D01*
X134112000Y-136301892D02*
X138150108Y-140340000D01*
X139350400Y-140340000D02*
X139954000Y-140340000D01*
X137386899Y-146215681D02*
X137386899Y-145542000D01*
X137386899Y-145542000D02*
X137386899Y-143132101D01*
X136652000Y-145542000D02*
X137386899Y-145542000D01*
X154940000Y-141448789D02*
X152759631Y-141448789D01*
D25*
X154683897Y-141475776D02*
X154913013Y-141475776D01*
X154913013Y-141475776D02*
X154940000Y-141448789D01*
D24*
X149098000Y-141848218D02*
X149098000Y-144130827D01*
X149098000Y-144130827D02*
X149098000Y-144525958D01*
X149430319Y-141515899D02*
X149098000Y-141848218D01*
X152575681Y-141515899D02*
X149430319Y-141515899D01*
X152634101Y-141574319D02*
X152575681Y-141515899D01*
X140716000Y-137414000D02*
X140208000Y-136906000D01*
X142478150Y-137414000D02*
X140716000Y-137414000D01*
X145318430Y-135892320D02*
X143999830Y-135892320D01*
X143999830Y-135892320D02*
X142478150Y-137414000D01*
X152759631Y-141448789D02*
X152634101Y-141574319D01*
X153025000Y-145332000D02*
X153025000Y-144453400D01*
X153025000Y-144453400D02*
X152634101Y-144062501D01*
X152634101Y-144062501D02*
X152634101Y-141574319D01*
X141478000Y-140565000D02*
X141478000Y-140340000D01*
X139954000Y-140340000D02*
X141478000Y-140340000D01*
X140579000Y-145332000D02*
X140579000Y-145657782D01*
X140579000Y-145657782D02*
X139962681Y-146274101D01*
X139962681Y-146274101D02*
X137445319Y-146274101D01*
X137445319Y-146274101D02*
X137386899Y-146215681D01*
X137386899Y-143132101D02*
X139954000Y-140565000D01*
X139954000Y-140565000D02*
X139954000Y-140340000D01*
X140293721Y-139447899D02*
X142334899Y-139447899D01*
X138272401Y-138112499D02*
X138958321Y-138112499D01*
X137804877Y-134574017D02*
X137804877Y-137644975D01*
X136083140Y-131823680D02*
X136083140Y-132852280D01*
X137804877Y-137644975D02*
X138272401Y-138112499D01*
X138958321Y-138112499D02*
X140293721Y-139447899D01*
X142334899Y-139447899D02*
X143002000Y-140115000D01*
X136083140Y-132852280D02*
X137804877Y-134574017D01*
X143002000Y-140115000D02*
X143002000Y-140340000D01*
X143801340Y-141732000D02*
X143864860Y-141795520D01*
X143764000Y-141732000D02*
X143801340Y-141732000D01*
X143002000Y-140565000D02*
X143864860Y-141427860D01*
X143864860Y-141427860D02*
X143864860Y-141795520D01*
X143002000Y-140340000D02*
X143002000Y-140565000D01*
X145796000Y-140291400D02*
X145796000Y-140353202D01*
X145796000Y-140353202D02*
X145687202Y-140462000D01*
X146558000Y-140208000D02*
X145879400Y-140208000D01*
X145879400Y-140208000D02*
X145796000Y-140291400D01*
X146558000Y-140208000D02*
X148336000Y-140208000D01*
X141871540Y-138876359D02*
X141476409Y-138876359D01*
X148932337Y-138876337D02*
X141871562Y-138876337D01*
X150114000Y-140208000D02*
X150114000Y-140058000D01*
X141871562Y-138876337D02*
X141871540Y-138876359D01*
X150114000Y-140058000D02*
X148932337Y-138876337D01*
X152762798Y-140208000D02*
X151892000Y-140208000D01*
X150114000Y-140208000D02*
X151892000Y-140208000D01*
X154432000Y-140208000D02*
X155448000Y-140208000D01*
X152550000Y-138938000D02*
X150177510Y-138938000D01*
X150177510Y-138938000D02*
X150114000Y-139001510D01*
X153670000Y-140208000D02*
X153670000Y-140058000D01*
X153670000Y-140058000D02*
X152550000Y-138938000D01*
X153670000Y-140208000D02*
X155448000Y-140208000D01*
X153429979Y-136530512D02*
X155434021Y-136530512D01*
X155434021Y-136530512D02*
X155718946Y-136245587D01*
X155718946Y-136245587D02*
X159143409Y-136245587D01*
X151180000Y-133306000D02*
X151180000Y-135873250D01*
X151180000Y-135873250D02*
X151430851Y-136124101D01*
X162489400Y-133306000D02*
X163118000Y-133306000D01*
X153023570Y-136124102D02*
X153429979Y-136530512D01*
X151430851Y-136124101D02*
X153023570Y-136124102D01*
X159143409Y-136245587D02*
X162082996Y-133306000D01*
X162082996Y-133306000D02*
X162489400Y-133306000D01*
X163118000Y-133306000D02*
X163118000Y-134760480D01*
X163118000Y-134760480D02*
X163068000Y-134810480D01*
X162637469Y-143630651D02*
X163728400Y-142539720D01*
X163728400Y-142539720D02*
X163830000Y-142539720D01*
X160155889Y-143630651D02*
X162637469Y-143630651D01*
X157226000Y-142644000D02*
X158041178Y-143459178D01*
X158041178Y-143459178D02*
X159984416Y-143459178D01*
X159984416Y-143459178D02*
X160155889Y-143630651D01*
X157226000Y-142494000D02*
X157226000Y-142644000D01*
X159004000Y-142494000D02*
X161244280Y-142494000D01*
X161244280Y-142494000D02*
X161290000Y-142539720D01*
X139329000Y-145332000D02*
X139329000Y-144453400D01*
X139329000Y-144453400D02*
X140482299Y-143300101D01*
X140482299Y-143300101D02*
X147593899Y-143300101D01*
X147593899Y-143300101D02*
X148336000Y-142558000D01*
X148336000Y-142558000D02*
X148336000Y-142408000D01*
X151775000Y-145332000D02*
X151775000Y-142525000D01*
X151775000Y-142525000D02*
X151892000Y-142408000D01*
X155448000Y-142558000D02*
X155448000Y-142408000D01*
X159987549Y-144037062D02*
X159816076Y-143865589D01*
X156755589Y-143865589D02*
X155448000Y-142558000D01*
X164104000Y-145332000D02*
X164104000Y-145082000D01*
X159816076Y-143865589D02*
X156755589Y-143865589D01*
X163059062Y-144037062D02*
X159987549Y-144037062D01*
X164104000Y-145082000D02*
X163059062Y-144037062D01*
X145567399Y-137629879D02*
X145288000Y-137350480D01*
X145707109Y-137769589D02*
X145567399Y-137629879D01*
X164699382Y-137769589D02*
X145707109Y-137769589D01*
X167589793Y-140660000D02*
X164699382Y-137769589D01*
X171798000Y-140660000D02*
X167589793Y-140660000D01*
X167514544Y-140010000D02*
X164847878Y-137343334D01*
X146590396Y-137343334D02*
X146445131Y-137198069D01*
X171798000Y-140010000D02*
X167514544Y-140010000D01*
X164847878Y-137343334D02*
X146590396Y-137343334D01*
X146445131Y-137198069D02*
X146050000Y-137198069D01*
X171798000Y-139360000D02*
X168656000Y-139360000D01*
X168656000Y-139360000D02*
X168148000Y-138852000D01*
X164519489Y-131957489D02*
X165618000Y-133056000D01*
X165618000Y-133056000D02*
X165618000Y-133306000D01*
X158857494Y-135382000D02*
X162282005Y-131957489D01*
X162282005Y-131957489D02*
X164519489Y-131957489D01*
X154432000Y-135382000D02*
X158857494Y-135382000D01*
X165618000Y-133306000D02*
X165618000Y-134610000D01*
X153680000Y-133306000D02*
X153680000Y-134630000D01*
X153680000Y-134630000D02*
X154432000Y-135382000D01*
X158975069Y-135839176D02*
X162450346Y-132363899D01*
X164368000Y-133056000D02*
X164368000Y-133306000D01*
X152856218Y-135382000D02*
X153598319Y-136124101D01*
X163675899Y-132363899D02*
X164368000Y-133056000D01*
X162450346Y-132363899D02*
X163675899Y-132363899D01*
X152232000Y-135382000D02*
X152856218Y-135382000D01*
X155265681Y-136124101D02*
X155550606Y-135839176D01*
X153598319Y-136124101D02*
X155265681Y-136124101D01*
X155550606Y-135839176D02*
X158975069Y-135839176D01*
X164338000Y-134556490D02*
X164338000Y-133336000D01*
X164338000Y-133336000D02*
X164368000Y-133306000D01*
X152430000Y-133306000D02*
X152430000Y-135184000D01*
X152430000Y-135184000D02*
X152232000Y-135382000D01*
X136113570Y-135887680D02*
X136113570Y-136916280D01*
X137881284Y-138683994D02*
X138176000Y-138683994D01*
X136113570Y-136916280D02*
X137881284Y-138683994D01*
X143897722Y-140208000D02*
X143834202Y-140144480D01*
X144780000Y-140208000D02*
X143897722Y-140208000D01*
X141875874Y-138430000D02*
X141750731Y-138304857D01*
X157226000Y-140144000D02*
X155512000Y-138430000D01*
X141076944Y-138430000D02*
X139850573Y-138430000D01*
X155512000Y-138430000D02*
X141875874Y-138430000D01*
X157226000Y-140294000D02*
X157226000Y-140144000D01*
X141750731Y-138304857D02*
X141202087Y-138304857D01*
X141202087Y-138304857D02*
X141076944Y-138430000D01*
X139850573Y-138430000D02*
X138828828Y-137408255D01*
X138828828Y-137408255D02*
X138771528Y-137408255D01*
X138771528Y-137408255D02*
X138376397Y-137408255D01*
X137665726Y-140967726D02*
X137945125Y-141247125D01*
X136906000Y-140208000D02*
X137665726Y-140967726D01*
X136398000Y-140208000D02*
X136906000Y-140208000D01*
X169418000Y-145184990D02*
X169418000Y-145580121D01*
X164531042Y-138176000D02*
X169418000Y-143062958D01*
X159004000Y-140294000D02*
X158801782Y-140294000D01*
X158801782Y-140294000D02*
X157480000Y-138972218D01*
X157480000Y-138972218D02*
X157480000Y-138684000D01*
X157480000Y-138684000D02*
X157988000Y-138176000D01*
X157988000Y-138176000D02*
X164531042Y-138176000D01*
X169418000Y-143062958D02*
X169418000Y-145184990D01*
M02*
