G04 #@! TF.FileFunction,Legend,Bot*
%FSLAX46Y46*%
G04 Gerber Fmt 4.6, Leading zero omitted, Abs format (unit mm)*
G04 Created by KiCad (PCBNEW 4.0.2+dfsg1-stable) date Wed 10 Aug 2016 05:05:02 PM CDT*
%MOMM*%
G01*
G04 APERTURE LIST*
%ADD10C,0.090000*%
%ADD11C,0.150000*%
G04 APERTURE END LIST*
D10*
D11*
X147865000Y-143797000D02*
X147340000Y-143797000D01*
X147865000Y-136547000D02*
X147340000Y-136547000D01*
X140615000Y-136547000D02*
X141140000Y-136547000D01*
X140615000Y-143797000D02*
X141140000Y-143797000D01*
X147865000Y-143797000D02*
X147865000Y-143272000D01*
X140615000Y-143797000D02*
X140615000Y-143272000D01*
X140615000Y-136547000D02*
X140615000Y-137072000D01*
X147865000Y-136547000D02*
X147865000Y-137072000D01*
X147340000Y-143797000D02*
X147340000Y-145172000D01*
X167261452Y-138838852D02*
X167261452Y-139538852D01*
X168461452Y-139538852D02*
X168461452Y-138838852D01*
X168785452Y-138838852D02*
X168785452Y-139538852D01*
X169985452Y-139538852D02*
X169985452Y-138838852D01*
X169985452Y-143348852D02*
X169985452Y-142648852D01*
X168785452Y-142648852D02*
X168785452Y-143348852D01*
X168461452Y-143348852D02*
X168461452Y-142648852D01*
X167261452Y-142648852D02*
X167261452Y-143348852D01*
X164463452Y-144868852D02*
X165163452Y-144868852D01*
X165163452Y-143668852D02*
X164463452Y-143668852D01*
X161099452Y-143668852D02*
X160399452Y-143668852D01*
X160399452Y-144868852D02*
X161099452Y-144868852D01*
X157355452Y-142648852D02*
X157355452Y-143348852D01*
X158555452Y-143348852D02*
X158555452Y-142648852D01*
X155831452Y-142648852D02*
X155831452Y-143348852D01*
X157031452Y-143348852D02*
X157031452Y-142648852D01*
X151292000Y-135606000D02*
X151292000Y-136306000D01*
X152492000Y-136306000D02*
X152492000Y-135606000D01*
X136560000Y-135413000D02*
X136560000Y-136113000D01*
X137760000Y-136113000D02*
X137760000Y-135413000D01*
X135036000Y-135474000D02*
X135036000Y-136174000D01*
X136236000Y-136174000D02*
X136236000Y-135474000D01*
X150841000Y-144368000D02*
X150841000Y-143668000D01*
X149641000Y-143668000D02*
X149641000Y-144368000D01*
X152492000Y-144368000D02*
X152492000Y-143668000D01*
X151292000Y-143668000D02*
X151292000Y-144368000D01*
X148940000Y-132750000D02*
X148240000Y-132750000D01*
X148240000Y-133950000D02*
X148940000Y-133950000D01*
X149006000Y-131226000D02*
X148306000Y-131226000D01*
X148306000Y-132426000D02*
X149006000Y-132426000D01*
X139906500Y-148082000D02*
X140287500Y-148082000D01*
X138890500Y-148082000D02*
X139271500Y-148082000D01*
X139271500Y-148082000D02*
X139906500Y-148463000D01*
X139906500Y-148463000D02*
X139906500Y-147701000D01*
X139906500Y-147701000D02*
X139271500Y-148082000D01*
X139271500Y-148590000D02*
X139271500Y-147574000D01*
X137589000Y-147182000D02*
X141129000Y-147182000D01*
X137589000Y-148982000D02*
X141129000Y-148982000D01*
X157400500Y-148082000D02*
X157781500Y-148082000D01*
X156384500Y-148082000D02*
X156765500Y-148082000D01*
X156765500Y-148082000D02*
X157400500Y-148463000D01*
X157400500Y-148463000D02*
X157400500Y-147701000D01*
X157400500Y-147701000D02*
X156765500Y-148082000D01*
X156765500Y-148590000D02*
X156765500Y-147574000D01*
X155083000Y-147182000D02*
X158623000Y-147182000D01*
X155083000Y-148982000D02*
X158623000Y-148982000D01*
X162004500Y-148082000D02*
X162385500Y-148082000D01*
X160988500Y-148082000D02*
X161369500Y-148082000D01*
X161369500Y-148082000D02*
X162004500Y-148463000D01*
X162004500Y-148463000D02*
X162004500Y-147701000D01*
X162004500Y-147701000D02*
X161369500Y-148082000D01*
X161369500Y-148590000D02*
X161369500Y-147574000D01*
X159687000Y-147182000D02*
X163227000Y-147182000D01*
X159687000Y-148982000D02*
X163227000Y-148982000D01*
X164059452Y-139863852D02*
X165059452Y-139863852D01*
X165059452Y-138513852D02*
X164059452Y-138513852D01*
X165213452Y-140028852D02*
G75*
G03X165213452Y-140028852I-100000J0D01*
G01*
X164563452Y-140278852D02*
X165063452Y-140278852D01*
X164563452Y-143178852D02*
X164563452Y-140278852D01*
X165063452Y-143178852D02*
X164563452Y-143178852D01*
X165063452Y-140278852D02*
X165063452Y-143178852D01*
X161233452Y-140028852D02*
G75*
G03X161233452Y-140028852I-100000J0D01*
G01*
X160583452Y-140278852D02*
X161083452Y-140278852D01*
X160583452Y-143178852D02*
X160583452Y-140278852D01*
X161083452Y-143178852D02*
X160583452Y-143178852D01*
X161083452Y-140278852D02*
X161083452Y-143178852D01*
X159258000Y-138938000D02*
X159258000Y-133858000D01*
X159258000Y-133858000D02*
X154686000Y-133858000D01*
X154686000Y-133858000D02*
X154686000Y-138938000D01*
X154686000Y-138938000D02*
X159258000Y-138938000D01*
X157734000Y-138938000D02*
X157734000Y-138430000D01*
X157734000Y-138430000D02*
X156464000Y-138430000D01*
X156464000Y-138430000D02*
X156464000Y-138938000D01*
X135334500Y-148082000D02*
X135715500Y-148082000D01*
X134318500Y-148082000D02*
X134699500Y-148082000D01*
X134699500Y-148082000D02*
X135334500Y-148463000D01*
X135334500Y-148463000D02*
X135334500Y-147701000D01*
X135334500Y-147701000D02*
X134699500Y-148082000D01*
X134699500Y-148590000D02*
X134699500Y-147574000D01*
X133017000Y-147182000D02*
X136557000Y-147182000D01*
X133017000Y-148982000D02*
X136557000Y-148982000D01*
X144700500Y-148082000D02*
X145081500Y-148082000D01*
X143684500Y-148082000D02*
X144065500Y-148082000D01*
X144065500Y-148082000D02*
X144700500Y-148463000D01*
X144700500Y-148463000D02*
X144700500Y-147701000D01*
X144700500Y-147701000D02*
X144065500Y-148082000D01*
X144065500Y-148590000D02*
X144065500Y-147574000D01*
X142383000Y-147182000D02*
X145923000Y-147182000D01*
X142383000Y-148982000D02*
X145923000Y-148982000D01*
X149304500Y-148082000D02*
X149685500Y-148082000D01*
X148288500Y-148082000D02*
X148669500Y-148082000D01*
X148669500Y-148082000D02*
X149304500Y-148463000D01*
X149304500Y-148463000D02*
X149304500Y-147701000D01*
X149304500Y-147701000D02*
X148669500Y-148082000D01*
X148669500Y-148590000D02*
X148669500Y-147574000D01*
X146987000Y-147182000D02*
X150527000Y-147182000D01*
X146987000Y-148982000D02*
X150527000Y-148982000D01*
X163987952Y-136902852D02*
X163606952Y-136902852D01*
X165003952Y-136902852D02*
X164622952Y-136902852D01*
X164622952Y-136902852D02*
X163987952Y-136521852D01*
X163987952Y-136521852D02*
X163987952Y-137283852D01*
X163987952Y-137283852D02*
X164622952Y-136902852D01*
X164622952Y-136394852D02*
X164622952Y-137410852D01*
X166305452Y-137802852D02*
X162765452Y-137802852D01*
X166305452Y-136002852D02*
X162765452Y-136002852D01*
X140969905Y-133619381D02*
X140969905Y-134428905D01*
X140922286Y-134524143D01*
X140874667Y-134571762D01*
X140779429Y-134619381D01*
X140588952Y-134619381D01*
X140493714Y-134571762D01*
X140446095Y-134524143D01*
X140398476Y-134428905D01*
X140398476Y-133619381D01*
X140017524Y-133619381D02*
X139398476Y-133619381D01*
X139731810Y-134000333D01*
X139588952Y-134000333D01*
X139493714Y-134047952D01*
X139446095Y-134095571D01*
X139398476Y-134190810D01*
X139398476Y-134428905D01*
X139446095Y-134524143D01*
X139493714Y-134571762D01*
X139588952Y-134619381D01*
X139874667Y-134619381D01*
X139969905Y-134571762D01*
X140017524Y-134524143D01*
X168218595Y-135974186D02*
X168266214Y-135926567D01*
X168313833Y-135783710D01*
X168313833Y-135688472D01*
X168266214Y-135545614D01*
X168170976Y-135450376D01*
X168075738Y-135402757D01*
X167885262Y-135355138D01*
X167742404Y-135355138D01*
X167551928Y-135402757D01*
X167456690Y-135450376D01*
X167361452Y-135545614D01*
X167313833Y-135688472D01*
X167313833Y-135783710D01*
X167361452Y-135926567D01*
X167409071Y-135974186D01*
X168313833Y-136926567D02*
X168313833Y-136355138D01*
X168313833Y-136640852D02*
X167313833Y-136640852D01*
X167456690Y-136545614D01*
X167551928Y-136450376D01*
X167599547Y-136355138D01*
X169742595Y-135974186D02*
X169790214Y-135926567D01*
X169837833Y-135783710D01*
X169837833Y-135688472D01*
X169790214Y-135545614D01*
X169694976Y-135450376D01*
X169599738Y-135402757D01*
X169409262Y-135355138D01*
X169266404Y-135355138D01*
X169075928Y-135402757D01*
X168980690Y-135450376D01*
X168885452Y-135545614D01*
X168837833Y-135688472D01*
X168837833Y-135783710D01*
X168885452Y-135926567D01*
X168933071Y-135974186D01*
X168933071Y-136355138D02*
X168885452Y-136402757D01*
X168837833Y-136497995D01*
X168837833Y-136736091D01*
X168885452Y-136831329D01*
X168933071Y-136878948D01*
X169028309Y-136926567D01*
X169123547Y-136926567D01*
X169266404Y-136878948D01*
X169837833Y-136307519D01*
X169837833Y-136926567D01*
X169742595Y-145880186D02*
X169790214Y-145832567D01*
X169837833Y-145689710D01*
X169837833Y-145594472D01*
X169790214Y-145451614D01*
X169694976Y-145356376D01*
X169599738Y-145308757D01*
X169409262Y-145261138D01*
X169266404Y-145261138D01*
X169075928Y-145308757D01*
X168980690Y-145356376D01*
X168885452Y-145451614D01*
X168837833Y-145594472D01*
X168837833Y-145689710D01*
X168885452Y-145832567D01*
X168933071Y-145880186D01*
X168837833Y-146213519D02*
X168837833Y-146832567D01*
X169218785Y-146499233D01*
X169218785Y-146642091D01*
X169266404Y-146737329D01*
X169314023Y-146784948D01*
X169409262Y-146832567D01*
X169647357Y-146832567D01*
X169742595Y-146784948D01*
X169790214Y-146737329D01*
X169837833Y-146642091D01*
X169837833Y-146356376D01*
X169790214Y-146261138D01*
X169742595Y-146213519D01*
X168218595Y-145880186D02*
X168266214Y-145832567D01*
X168313833Y-145689710D01*
X168313833Y-145594472D01*
X168266214Y-145451614D01*
X168170976Y-145356376D01*
X168075738Y-145308757D01*
X167885262Y-145261138D01*
X167742404Y-145261138D01*
X167551928Y-145308757D01*
X167456690Y-145356376D01*
X167361452Y-145451614D01*
X167313833Y-145594472D01*
X167313833Y-145689710D01*
X167361452Y-145832567D01*
X167409071Y-145880186D01*
X167647166Y-146737329D02*
X168313833Y-146737329D01*
X167266214Y-146499233D02*
X167980500Y-146261138D01*
X167980500Y-146880186D01*
X165012666Y-146153143D02*
X165060285Y-146200762D01*
X165203142Y-146248381D01*
X165298380Y-146248381D01*
X165441238Y-146200762D01*
X165536476Y-146105524D01*
X165584095Y-146010286D01*
X165631714Y-145819810D01*
X165631714Y-145676952D01*
X165584095Y-145486476D01*
X165536476Y-145391238D01*
X165441238Y-145296000D01*
X165298380Y-145248381D01*
X165203142Y-145248381D01*
X165060285Y-145296000D01*
X165012666Y-145343619D01*
X164107904Y-145248381D02*
X164584095Y-145248381D01*
X164631714Y-145724571D01*
X164584095Y-145676952D01*
X164488857Y-145629333D01*
X164250761Y-145629333D01*
X164155523Y-145676952D01*
X164107904Y-145724571D01*
X164060285Y-145819810D01*
X164060285Y-146057905D01*
X164107904Y-146153143D01*
X164155523Y-146200762D01*
X164250761Y-146248381D01*
X164488857Y-146248381D01*
X164584095Y-146200762D01*
X164631714Y-146153143D01*
X160948666Y-146153143D02*
X160996285Y-146200762D01*
X161139142Y-146248381D01*
X161234380Y-146248381D01*
X161377238Y-146200762D01*
X161472476Y-146105524D01*
X161520095Y-146010286D01*
X161567714Y-145819810D01*
X161567714Y-145676952D01*
X161520095Y-145486476D01*
X161472476Y-145391238D01*
X161377238Y-145296000D01*
X161234380Y-145248381D01*
X161139142Y-145248381D01*
X160996285Y-145296000D01*
X160948666Y-145343619D01*
X160091523Y-145248381D02*
X160282000Y-145248381D01*
X160377238Y-145296000D01*
X160424857Y-145343619D01*
X160520095Y-145486476D01*
X160567714Y-145676952D01*
X160567714Y-146057905D01*
X160520095Y-146153143D01*
X160472476Y-146200762D01*
X160377238Y-146248381D01*
X160186761Y-146248381D01*
X160091523Y-146200762D01*
X160043904Y-146153143D01*
X159996285Y-146057905D01*
X159996285Y-145819810D01*
X160043904Y-145724571D01*
X160091523Y-145676952D01*
X160186761Y-145629333D01*
X160377238Y-145629333D01*
X160472476Y-145676952D01*
X160520095Y-145724571D01*
X160567714Y-145819810D01*
X158312595Y-145880186D02*
X158360214Y-145832567D01*
X158407833Y-145689710D01*
X158407833Y-145594472D01*
X158360214Y-145451614D01*
X158264976Y-145356376D01*
X158169738Y-145308757D01*
X157979262Y-145261138D01*
X157836404Y-145261138D01*
X157645928Y-145308757D01*
X157550690Y-145356376D01*
X157455452Y-145451614D01*
X157407833Y-145594472D01*
X157407833Y-145689710D01*
X157455452Y-145832567D01*
X157503071Y-145880186D01*
X157407833Y-146213519D02*
X157407833Y-146880186D01*
X158407833Y-146451614D01*
X156788595Y-145880186D02*
X156836214Y-145832567D01*
X156883833Y-145689710D01*
X156883833Y-145594472D01*
X156836214Y-145451614D01*
X156740976Y-145356376D01*
X156645738Y-145308757D01*
X156455262Y-145261138D01*
X156312404Y-145261138D01*
X156121928Y-145308757D01*
X156026690Y-145356376D01*
X155931452Y-145451614D01*
X155883833Y-145594472D01*
X155883833Y-145689710D01*
X155931452Y-145832567D01*
X155979071Y-145880186D01*
X156883833Y-146356376D02*
X156883833Y-146546852D01*
X156836214Y-146642091D01*
X156788595Y-146689710D01*
X156645738Y-146784948D01*
X156455262Y-146832567D01*
X156074309Y-146832567D01*
X155979071Y-146784948D01*
X155931452Y-146737329D01*
X155883833Y-146642091D01*
X155883833Y-146451614D01*
X155931452Y-146356376D01*
X155979071Y-146308757D01*
X156074309Y-146261138D01*
X156312404Y-146261138D01*
X156407642Y-146308757D01*
X156455262Y-146356376D01*
X156502881Y-146451614D01*
X156502881Y-146642091D01*
X156455262Y-146737329D01*
X156407642Y-146784948D01*
X156312404Y-146832567D01*
X152249143Y-131945143D02*
X152296762Y-131897524D01*
X152344381Y-131754667D01*
X152344381Y-131659429D01*
X152296762Y-131516571D01*
X152201524Y-131421333D01*
X152106286Y-131373714D01*
X151915810Y-131326095D01*
X151772952Y-131326095D01*
X151582476Y-131373714D01*
X151487238Y-131421333D01*
X151392000Y-131516571D01*
X151344381Y-131659429D01*
X151344381Y-131754667D01*
X151392000Y-131897524D01*
X151439619Y-131945143D01*
X152344381Y-132897524D02*
X152344381Y-132326095D01*
X152344381Y-132611809D02*
X151344381Y-132611809D01*
X151487238Y-132516571D01*
X151582476Y-132421333D01*
X151630095Y-132326095D01*
X151344381Y-133516571D02*
X151344381Y-133611810D01*
X151392000Y-133707048D01*
X151439619Y-133754667D01*
X151534857Y-133802286D01*
X151725333Y-133849905D01*
X151963429Y-133849905D01*
X152153905Y-133802286D01*
X152249143Y-133754667D01*
X152296762Y-133707048D01*
X152344381Y-133611810D01*
X152344381Y-133516571D01*
X152296762Y-133421333D01*
X152249143Y-133373714D01*
X152153905Y-133326095D01*
X151963429Y-133278476D01*
X151725333Y-133278476D01*
X151534857Y-133326095D01*
X151439619Y-133373714D01*
X151392000Y-133421333D01*
X151344381Y-133516571D01*
X137517143Y-138930143D02*
X137564762Y-138882524D01*
X137612381Y-138739667D01*
X137612381Y-138644429D01*
X137564762Y-138501571D01*
X137469524Y-138406333D01*
X137374286Y-138358714D01*
X137183810Y-138311095D01*
X137040952Y-138311095D01*
X136850476Y-138358714D01*
X136755238Y-138406333D01*
X136660000Y-138501571D01*
X136612381Y-138644429D01*
X136612381Y-138739667D01*
X136660000Y-138882524D01*
X136707619Y-138930143D01*
X137612381Y-139882524D02*
X137612381Y-139311095D01*
X137612381Y-139596809D02*
X136612381Y-139596809D01*
X136755238Y-139501571D01*
X136850476Y-139406333D01*
X136898095Y-139311095D01*
X137612381Y-140834905D02*
X137612381Y-140263476D01*
X137612381Y-140549190D02*
X136612381Y-140549190D01*
X136755238Y-140453952D01*
X136850476Y-140358714D01*
X136898095Y-140263476D01*
X135993143Y-138991143D02*
X136040762Y-138943524D01*
X136088381Y-138800667D01*
X136088381Y-138705429D01*
X136040762Y-138562571D01*
X135945524Y-138467333D01*
X135850286Y-138419714D01*
X135659810Y-138372095D01*
X135516952Y-138372095D01*
X135326476Y-138419714D01*
X135231238Y-138467333D01*
X135136000Y-138562571D01*
X135088381Y-138705429D01*
X135088381Y-138800667D01*
X135136000Y-138943524D01*
X135183619Y-138991143D01*
X136088381Y-139943524D02*
X136088381Y-139372095D01*
X136088381Y-139657809D02*
X135088381Y-139657809D01*
X135231238Y-139562571D01*
X135326476Y-139467333D01*
X135374095Y-139372095D01*
X135183619Y-140324476D02*
X135136000Y-140372095D01*
X135088381Y-140467333D01*
X135088381Y-140705429D01*
X135136000Y-140800667D01*
X135183619Y-140848286D01*
X135278857Y-140895905D01*
X135374095Y-140895905D01*
X135516952Y-140848286D01*
X136088381Y-140276857D01*
X136088381Y-140895905D01*
X150725143Y-139819143D02*
X150772762Y-139771524D01*
X150820381Y-139628667D01*
X150820381Y-139533429D01*
X150772762Y-139390571D01*
X150677524Y-139295333D01*
X150582286Y-139247714D01*
X150391810Y-139200095D01*
X150248952Y-139200095D01*
X150058476Y-139247714D01*
X149963238Y-139295333D01*
X149868000Y-139390571D01*
X149820381Y-139533429D01*
X149820381Y-139628667D01*
X149868000Y-139771524D01*
X149915619Y-139819143D01*
X150820381Y-140771524D02*
X150820381Y-140200095D01*
X150820381Y-140485809D02*
X149820381Y-140485809D01*
X149963238Y-140390571D01*
X150058476Y-140295333D01*
X150106095Y-140200095D01*
X149820381Y-141676286D02*
X149820381Y-141200095D01*
X150296571Y-141152476D01*
X150248952Y-141200095D01*
X150201333Y-141295333D01*
X150201333Y-141533429D01*
X150248952Y-141628667D01*
X150296571Y-141676286D01*
X150391810Y-141723905D01*
X150629905Y-141723905D01*
X150725143Y-141676286D01*
X150772762Y-141628667D01*
X150820381Y-141533429D01*
X150820381Y-141295333D01*
X150772762Y-141200095D01*
X150725143Y-141152476D01*
X152249143Y-139819143D02*
X152296762Y-139771524D01*
X152344381Y-139628667D01*
X152344381Y-139533429D01*
X152296762Y-139390571D01*
X152201524Y-139295333D01*
X152106286Y-139247714D01*
X151915810Y-139200095D01*
X151772952Y-139200095D01*
X151582476Y-139247714D01*
X151487238Y-139295333D01*
X151392000Y-139390571D01*
X151344381Y-139533429D01*
X151344381Y-139628667D01*
X151392000Y-139771524D01*
X151439619Y-139819143D01*
X152344381Y-140771524D02*
X152344381Y-140200095D01*
X152344381Y-140485809D02*
X151344381Y-140485809D01*
X151487238Y-140390571D01*
X151582476Y-140295333D01*
X151630095Y-140200095D01*
X151344381Y-141628667D02*
X151344381Y-141438190D01*
X151392000Y-141342952D01*
X151439619Y-141295333D01*
X151582476Y-141200095D01*
X151772952Y-141152476D01*
X152153905Y-141152476D01*
X152249143Y-141200095D01*
X152296762Y-141247714D01*
X152344381Y-141342952D01*
X152344381Y-141533429D01*
X152296762Y-141628667D01*
X152249143Y-141676286D01*
X152153905Y-141723905D01*
X151915810Y-141723905D01*
X151820571Y-141676286D01*
X151772952Y-141628667D01*
X151725333Y-141533429D01*
X151725333Y-141342952D01*
X151772952Y-141247714D01*
X151820571Y-141200095D01*
X151915810Y-141152476D01*
X145930857Y-133707143D02*
X145978476Y-133754762D01*
X146121333Y-133802381D01*
X146216571Y-133802381D01*
X146359429Y-133754762D01*
X146454667Y-133659524D01*
X146502286Y-133564286D01*
X146549905Y-133373810D01*
X146549905Y-133230952D01*
X146502286Y-133040476D01*
X146454667Y-132945238D01*
X146359429Y-132850000D01*
X146216571Y-132802381D01*
X146121333Y-132802381D01*
X145978476Y-132850000D01*
X145930857Y-132897619D01*
X144978476Y-133802381D02*
X145549905Y-133802381D01*
X145264191Y-133802381D02*
X145264191Y-132802381D01*
X145359429Y-132945238D01*
X145454667Y-133040476D01*
X145549905Y-133088095D01*
X144645143Y-132802381D02*
X143978476Y-132802381D01*
X144407048Y-133802381D01*
X145930857Y-132183143D02*
X145978476Y-132230762D01*
X146121333Y-132278381D01*
X146216571Y-132278381D01*
X146359429Y-132230762D01*
X146454667Y-132135524D01*
X146502286Y-132040286D01*
X146549905Y-131849810D01*
X146549905Y-131706952D01*
X146502286Y-131516476D01*
X146454667Y-131421238D01*
X146359429Y-131326000D01*
X146216571Y-131278381D01*
X146121333Y-131278381D01*
X145978476Y-131326000D01*
X145930857Y-131373619D01*
X144978476Y-132278381D02*
X145549905Y-132278381D01*
X145264191Y-132278381D02*
X145264191Y-131278381D01*
X145359429Y-131421238D01*
X145454667Y-131516476D01*
X145549905Y-131564095D01*
X144407048Y-131706952D02*
X144502286Y-131659333D01*
X144549905Y-131611714D01*
X144597524Y-131516476D01*
X144597524Y-131468857D01*
X144549905Y-131373619D01*
X144502286Y-131326000D01*
X144407048Y-131278381D01*
X144216571Y-131278381D01*
X144121333Y-131326000D01*
X144073714Y-131373619D01*
X144026095Y-131468857D01*
X144026095Y-131516476D01*
X144073714Y-131611714D01*
X144121333Y-131659333D01*
X144216571Y-131706952D01*
X144407048Y-131706952D01*
X144502286Y-131754571D01*
X144549905Y-131802190D01*
X144597524Y-131897429D01*
X144597524Y-132087905D01*
X144549905Y-132183143D01*
X144502286Y-132230762D01*
X144407048Y-132278381D01*
X144216571Y-132278381D01*
X144121333Y-132230762D01*
X144073714Y-132183143D01*
X144026095Y-132087905D01*
X144026095Y-131897429D01*
X144073714Y-131802190D01*
X144121333Y-131754571D01*
X144216571Y-131706952D01*
X140327095Y-150534381D02*
X140327095Y-149534381D01*
X140089000Y-149534381D01*
X139946142Y-149582000D01*
X139850904Y-149677238D01*
X139803285Y-149772476D01*
X139755666Y-149962952D01*
X139755666Y-150105810D01*
X139803285Y-150296286D01*
X139850904Y-150391524D01*
X139946142Y-150486762D01*
X140089000Y-150534381D01*
X140327095Y-150534381D01*
X139374714Y-149629619D02*
X139327095Y-149582000D01*
X139231857Y-149534381D01*
X138993761Y-149534381D01*
X138898523Y-149582000D01*
X138850904Y-149629619D01*
X138803285Y-149724857D01*
X138803285Y-149820095D01*
X138850904Y-149962952D01*
X139422333Y-150534381D01*
X138803285Y-150534381D01*
X157821095Y-150534381D02*
X157821095Y-149534381D01*
X157583000Y-149534381D01*
X157440142Y-149582000D01*
X157344904Y-149677238D01*
X157297285Y-149772476D01*
X157249666Y-149962952D01*
X157249666Y-150105810D01*
X157297285Y-150296286D01*
X157344904Y-150391524D01*
X157440142Y-150486762D01*
X157583000Y-150534381D01*
X157821095Y-150534381D01*
X156344904Y-149534381D02*
X156821095Y-149534381D01*
X156868714Y-150010571D01*
X156821095Y-149962952D01*
X156725857Y-149915333D01*
X156487761Y-149915333D01*
X156392523Y-149962952D01*
X156344904Y-150010571D01*
X156297285Y-150105810D01*
X156297285Y-150343905D01*
X156344904Y-150439143D01*
X156392523Y-150486762D01*
X156487761Y-150534381D01*
X156725857Y-150534381D01*
X156821095Y-150486762D01*
X156868714Y-150439143D01*
X162425095Y-150534381D02*
X162425095Y-149534381D01*
X162187000Y-149534381D01*
X162044142Y-149582000D01*
X161948904Y-149677238D01*
X161901285Y-149772476D01*
X161853666Y-149962952D01*
X161853666Y-150105810D01*
X161901285Y-150296286D01*
X161948904Y-150391524D01*
X162044142Y-150486762D01*
X162187000Y-150534381D01*
X162425095Y-150534381D01*
X160996523Y-149534381D02*
X161187000Y-149534381D01*
X161282238Y-149582000D01*
X161329857Y-149629619D01*
X161425095Y-149772476D01*
X161472714Y-149962952D01*
X161472714Y-150343905D01*
X161425095Y-150439143D01*
X161377476Y-150486762D01*
X161282238Y-150534381D01*
X161091761Y-150534381D01*
X160996523Y-150486762D01*
X160948904Y-150439143D01*
X160901285Y-150343905D01*
X160901285Y-150105810D01*
X160948904Y-150010571D01*
X160996523Y-149962952D01*
X161091761Y-149915333D01*
X161282238Y-149915333D01*
X161377476Y-149962952D01*
X161425095Y-150010571D01*
X161472714Y-150105810D01*
X161678118Y-139641233D02*
X162011452Y-139165042D01*
X162249547Y-139641233D02*
X162249547Y-138641233D01*
X161868594Y-138641233D01*
X161773356Y-138688852D01*
X161725737Y-138736471D01*
X161678118Y-138831709D01*
X161678118Y-138974566D01*
X161725737Y-139069804D01*
X161773356Y-139117423D01*
X161868594Y-139165042D01*
X162249547Y-139165042D01*
X160725737Y-139641233D02*
X161297166Y-139641233D01*
X161011452Y-139641233D02*
X161011452Y-138641233D01*
X161106690Y-138784090D01*
X161201928Y-138879328D01*
X161297166Y-138926947D01*
X165353905Y-141184381D02*
X165353905Y-141993905D01*
X165306286Y-142089143D01*
X165258667Y-142136762D01*
X165163429Y-142184381D01*
X164972952Y-142184381D01*
X164877714Y-142136762D01*
X164830095Y-142089143D01*
X164782476Y-141993905D01*
X164782476Y-141184381D01*
X163782476Y-142184381D02*
X164353905Y-142184381D01*
X164068191Y-142184381D02*
X164068191Y-141184381D01*
X164163429Y-141327238D01*
X164258667Y-141422476D01*
X164353905Y-141470095D01*
X158749905Y-139660381D02*
X158749905Y-140469905D01*
X158702286Y-140565143D01*
X158654667Y-140612762D01*
X158559429Y-140660381D01*
X158368952Y-140660381D01*
X158273714Y-140612762D01*
X158226095Y-140565143D01*
X158178476Y-140469905D01*
X158178476Y-139660381D01*
X157749905Y-139755619D02*
X157702286Y-139708000D01*
X157607048Y-139660381D01*
X157368952Y-139660381D01*
X157273714Y-139708000D01*
X157226095Y-139755619D01*
X157178476Y-139850857D01*
X157178476Y-139946095D01*
X157226095Y-140088952D01*
X157797524Y-140660381D01*
X157178476Y-140660381D01*
X157733905Y-132548381D02*
X157733905Y-133357905D01*
X157686286Y-133453143D01*
X157638667Y-133500762D01*
X157543429Y-133548381D01*
X157352952Y-133548381D01*
X157257714Y-133500762D01*
X157210095Y-133453143D01*
X157162476Y-133357905D01*
X157162476Y-132548381D01*
X156257714Y-132881714D02*
X156257714Y-133548381D01*
X156495810Y-132500762D02*
X156733905Y-133215048D01*
X156114857Y-133215048D01*
X135755095Y-150534381D02*
X135755095Y-149534381D01*
X135517000Y-149534381D01*
X135374142Y-149582000D01*
X135278904Y-149677238D01*
X135231285Y-149772476D01*
X135183666Y-149962952D01*
X135183666Y-150105810D01*
X135231285Y-150296286D01*
X135278904Y-150391524D01*
X135374142Y-150486762D01*
X135517000Y-150534381D01*
X135755095Y-150534381D01*
X134231285Y-150534381D02*
X134802714Y-150534381D01*
X134517000Y-150534381D02*
X134517000Y-149534381D01*
X134612238Y-149677238D01*
X134707476Y-149772476D01*
X134802714Y-149820095D01*
X145121095Y-150534381D02*
X145121095Y-149534381D01*
X144883000Y-149534381D01*
X144740142Y-149582000D01*
X144644904Y-149677238D01*
X144597285Y-149772476D01*
X144549666Y-149962952D01*
X144549666Y-150105810D01*
X144597285Y-150296286D01*
X144644904Y-150391524D01*
X144740142Y-150486762D01*
X144883000Y-150534381D01*
X145121095Y-150534381D01*
X144216333Y-149534381D02*
X143597285Y-149534381D01*
X143930619Y-149915333D01*
X143787761Y-149915333D01*
X143692523Y-149962952D01*
X143644904Y-150010571D01*
X143597285Y-150105810D01*
X143597285Y-150343905D01*
X143644904Y-150439143D01*
X143692523Y-150486762D01*
X143787761Y-150534381D01*
X144073476Y-150534381D01*
X144168714Y-150486762D01*
X144216333Y-150439143D01*
X149725095Y-150534381D02*
X149725095Y-149534381D01*
X149487000Y-149534381D01*
X149344142Y-149582000D01*
X149248904Y-149677238D01*
X149201285Y-149772476D01*
X149153666Y-149962952D01*
X149153666Y-150105810D01*
X149201285Y-150296286D01*
X149248904Y-150391524D01*
X149344142Y-150486762D01*
X149487000Y-150534381D01*
X149725095Y-150534381D01*
X148296523Y-149867714D02*
X148296523Y-150534381D01*
X148534619Y-149486762D02*
X148772714Y-150201048D01*
X148153666Y-150201048D01*
X165076095Y-135580381D02*
X165076095Y-134580381D01*
X164838000Y-134580381D01*
X164695142Y-134628000D01*
X164599904Y-134723238D01*
X164552285Y-134818476D01*
X164504666Y-135008952D01*
X164504666Y-135151810D01*
X164552285Y-135342286D01*
X164599904Y-135437524D01*
X164695142Y-135532762D01*
X164838000Y-135580381D01*
X165076095Y-135580381D01*
X164171333Y-134580381D02*
X163504666Y-134580381D01*
X163933238Y-135580381D01*
M02*
