G04 #@! TF.FileFunction,Copper,L1,Top,Signal*
%FSLAX46Y46*%
G04 Gerber Fmt 4.6, Leading zero omitted, Abs format (unit mm)*
G04 Created by KiCad (PCBNEW 4.0.2+dfsg1-stable) date Wed 23 Nov 2016 09:34:03 PM CST*
%MOMM*%
G01*
G04 APERTURE LIST*
%ADD10C,0.090000*%
%ADD11R,1.200000X0.750000*%
%ADD12R,0.750000X1.200000*%
%ADD13R,1.206500X3.200400*%
%ADD14R,1.700022X5.299964*%
%ADD15R,2.032000X1.727200*%
%ADD16O,2.032000X1.727200*%
%ADD17R,0.400000X1.350000*%
%ADD18O,1.250000X0.950000*%
%ADD19O,1.000000X1.550000*%
%ADD20R,0.900000X1.200000*%
%ADD21R,1.200000X0.900000*%
%ADD22R,0.508000X1.143000*%
%ADD23R,1.143000X0.508000*%
%ADD24R,1.300000X0.250000*%
%ADD25R,0.250000X1.300000*%
%ADD26C,1.700000*%
%ADD27R,2.032000X2.032000*%
%ADD28O,2.032000X2.032000*%
%ADD29R,0.650000X1.060000*%
%ADD30R,3.200000X1.000000*%
%ADD31R,1.727200X1.727200*%
%ADD32O,1.727200X1.727200*%
%ADD33R,1.200000X3.200000*%
%ADD34R,2.000000X2.000000*%
%ADD35C,2.000000*%
%ADD36C,0.762000*%
%ADD37C,0.228600*%
%ADD38C,0.381000*%
%ADD39C,0.254000*%
%ADD40C,0.177800*%
%ADD41C,0.635000*%
%ADD42C,0.400000*%
%ADD43C,0.502000*%
G04 APERTURE END LIST*
D10*
D11*
X205100000Y-119634000D03*
X203200000Y-119634000D03*
X205100000Y-118110000D03*
X203200000Y-118110000D03*
D12*
X203200000Y-114300000D03*
X203200000Y-112400000D03*
D11*
X167005000Y-83820000D03*
X168905000Y-83820000D03*
D13*
X192786000Y-74114660D03*
X190786004Y-74114660D03*
X188786008Y-74114660D03*
X186786012Y-74114660D03*
D14*
X195486020Y-67945000D03*
X184085992Y-67945000D03*
D13*
X178147980Y-74114660D03*
X176147984Y-74114660D03*
X174147988Y-74114660D03*
X172147992Y-74114660D03*
D14*
X180848000Y-67945000D03*
X169447972Y-67945000D03*
D15*
X205232000Y-97028000D03*
D16*
X205232000Y-94488000D03*
X205232000Y-91948000D03*
D17*
X203270000Y-69375000D03*
X202620000Y-69375000D03*
X201970000Y-69375000D03*
X201320000Y-69375000D03*
X200670000Y-69375000D03*
D18*
X204470000Y-69375000D03*
X199470000Y-69375000D03*
D19*
X205470000Y-66675000D03*
X198470000Y-66675000D03*
D20*
X182880000Y-96860000D03*
X182880000Y-99060000D03*
D21*
X201930000Y-109220000D03*
X204130000Y-109220000D03*
X173736000Y-78740000D03*
X171536000Y-78740000D03*
X186014000Y-78994000D03*
X188214000Y-78994000D03*
X186014000Y-80772000D03*
X188214000Y-80772000D03*
D22*
X152400000Y-105410000D03*
X153670000Y-105410000D03*
X154940000Y-105410000D03*
X156210000Y-105410000D03*
X157480000Y-105410000D03*
X158750000Y-105410000D03*
X160020000Y-105410000D03*
X161290000Y-105410000D03*
X161290000Y-95250000D03*
X160020000Y-95250000D03*
X158750000Y-95250000D03*
X157480000Y-95250000D03*
X156210000Y-95250000D03*
X154940000Y-95250000D03*
X153670000Y-95250000D03*
X152400000Y-95250000D03*
X171450000Y-105410000D03*
X172720000Y-105410000D03*
X173990000Y-105410000D03*
X175260000Y-105410000D03*
X176530000Y-105410000D03*
X177800000Y-105410000D03*
X179070000Y-105410000D03*
X180340000Y-105410000D03*
X180340000Y-95250000D03*
X179070000Y-95250000D03*
X177800000Y-95250000D03*
X176530000Y-95250000D03*
X175260000Y-95250000D03*
X173990000Y-95250000D03*
X172720000Y-95250000D03*
X171450000Y-95250000D03*
D23*
X190500000Y-112395000D03*
X190500000Y-113665000D03*
X190500000Y-114935000D03*
X190500000Y-116205000D03*
X190500000Y-117475000D03*
X190500000Y-118745000D03*
X190500000Y-120015000D03*
X190500000Y-121285000D03*
X200660000Y-121285000D03*
X200660000Y-120015000D03*
X200660000Y-118745000D03*
X200660000Y-117475000D03*
X200660000Y-116205000D03*
X200660000Y-114935000D03*
X200660000Y-113665000D03*
X200660000Y-112395000D03*
D24*
X187940000Y-87960000D03*
X187940000Y-88460000D03*
X187940000Y-88960000D03*
X187940000Y-89460000D03*
X187940000Y-89960000D03*
X187940000Y-90460000D03*
X187940000Y-90960000D03*
X187940000Y-91460000D03*
X187940000Y-91960000D03*
X187940000Y-92460000D03*
X187940000Y-92960000D03*
X187940000Y-93460000D03*
D25*
X189540000Y-95060000D03*
X190040000Y-95060000D03*
X190540000Y-95060000D03*
X191040000Y-95060000D03*
X191540000Y-95060000D03*
X192040000Y-95060000D03*
X192540000Y-95060000D03*
X193040000Y-95060000D03*
X193540000Y-95060000D03*
X194040000Y-95060000D03*
X194540000Y-95060000D03*
X195040000Y-95060000D03*
D24*
X196640000Y-93460000D03*
X196640000Y-92960000D03*
X196640000Y-92460000D03*
X196640000Y-91960000D03*
X196640000Y-91460000D03*
X196640000Y-90960000D03*
X196640000Y-90460000D03*
X196640000Y-89960000D03*
X196640000Y-89460000D03*
X196640000Y-88960000D03*
X196640000Y-88460000D03*
X196640000Y-87960000D03*
D25*
X195040000Y-86360000D03*
X194540000Y-86360000D03*
X194040000Y-86360000D03*
X193540000Y-86360000D03*
X193040000Y-86360000D03*
X192540000Y-86360000D03*
X192040000Y-86360000D03*
X191540000Y-86360000D03*
X191040000Y-86360000D03*
X190540000Y-86360000D03*
X190040000Y-86360000D03*
X189540000Y-86360000D03*
D26*
X157010000Y-112820000D03*
X160510000Y-112820000D03*
X169710000Y-112750000D03*
X173210000Y-112750000D03*
X182400000Y-112750000D03*
X185900000Y-112750000D03*
D27*
X171450000Y-81280000D03*
D28*
X173990000Y-81280000D03*
D29*
X202438000Y-74930000D03*
X201488000Y-74930000D03*
X200538000Y-74930000D03*
X200538000Y-77130000D03*
X202438000Y-77130000D03*
D30*
X167005000Y-85725000D03*
X160205000Y-85725000D03*
X160205000Y-89725000D03*
X167005000Y-89725000D03*
X178885000Y-85725000D03*
X172085000Y-85725000D03*
X172085000Y-89725000D03*
X178885000Y-89725000D03*
D20*
X163830000Y-96774000D03*
X163830000Y-98974000D03*
X163830000Y-101600000D03*
X163830000Y-103800000D03*
X182880000Y-101600000D03*
X182880000Y-103800000D03*
D21*
X197020000Y-109220000D03*
X199220000Y-109220000D03*
D31*
X186944000Y-99314000D03*
D32*
X189484000Y-99314000D03*
X186944000Y-101854000D03*
X189484000Y-101854000D03*
X186944000Y-104394000D03*
X189484000Y-104394000D03*
D13*
X163415980Y-74168000D03*
X161415984Y-74168000D03*
X159415988Y-74168000D03*
X157415992Y-74168000D03*
D14*
X166116000Y-67998340D03*
X152715972Y-67998340D03*
D33*
X155415986Y-74168000D03*
D34*
X183134000Y-84836000D03*
D35*
X185674000Y-84836000D03*
D34*
X183134000Y-89154000D03*
D35*
X185674000Y-89154000D03*
D36*
X189484000Y-84582000D03*
X201951116Y-104590716D03*
X192913000Y-76581000D03*
X179834734Y-99936235D03*
X179940311Y-101384057D03*
X171648530Y-96438792D03*
X173101000Y-91313000D03*
X167005000Y-88265000D03*
X168275000Y-82423000D03*
X195072000Y-101600000D03*
X194902471Y-88766492D03*
X167894000Y-76707994D03*
X167894000Y-75946000D03*
X167894000Y-75184000D03*
X200660000Y-70866000D03*
X200660000Y-78740000D03*
X179832000Y-73914000D03*
X192786000Y-71628000D03*
X180340000Y-93980014D03*
X162052000Y-102108000D03*
X199136000Y-112268000D03*
X152400000Y-96520000D03*
X162306000Y-95250000D03*
X189484000Y-88900000D03*
X195072000Y-90932000D03*
X189484000Y-90932000D03*
X160020000Y-93980000D03*
X158750000Y-93980000D03*
X168529000Y-93853000D03*
X170134894Y-96022802D03*
X199009000Y-114935000D03*
X175514000Y-91694000D03*
X160909000Y-100457000D03*
X175514000Y-93218000D03*
X199136000Y-74930000D03*
X203454000Y-70866000D03*
X201676000Y-73152000D03*
X155309376Y-96920388D03*
X173990000Y-96520000D03*
X177800000Y-93980000D03*
X181102000Y-86868000D03*
X199136000Y-72136000D03*
X196469003Y-86867997D03*
X202438000Y-78740000D03*
X189448005Y-87651158D03*
X195326000Y-92710000D03*
X189484000Y-92625400D03*
X186436000Y-71882000D03*
X190754000Y-71882000D03*
X188722000Y-68580000D03*
X181102000Y-72644000D03*
X174498000Y-71120000D03*
X180340000Y-72644000D03*
X173736000Y-71120000D03*
X195707000Y-84328000D03*
X195326000Y-89662000D03*
X200582470Y-66509920D03*
X193000315Y-110472537D03*
X161417000Y-77597000D03*
X169037000Y-95885000D03*
X159512000Y-82677000D03*
X157480000Y-82423000D03*
X157988000Y-91440000D03*
X190246000Y-80518000D03*
X193548000Y-83566000D03*
X194263920Y-84582000D03*
X190246000Y-81788000D03*
X162052000Y-111125000D03*
X160020000Y-110236000D03*
X161290000Y-110236000D03*
X161925000Y-109347000D03*
X160655000Y-109347000D03*
X161925000Y-107696000D03*
X160655000Y-107696000D03*
X159385000Y-107696004D03*
X158115000Y-107696006D03*
X158750000Y-108585000D03*
X160020000Y-108585000D03*
X161290000Y-108585000D03*
X158750000Y-106680000D03*
X160020000Y-106680000D03*
X161290000Y-106680000D03*
X178435000Y-113538000D03*
X179070000Y-112394966D03*
X177800004Y-112395000D03*
X177165000Y-113538000D03*
X176022000Y-113538000D03*
X175260000Y-112395000D03*
X176530000Y-112395000D03*
X177038000Y-111125000D03*
X178435000Y-111125000D03*
X179070000Y-109855000D03*
X177800000Y-109855000D03*
X177038000Y-108585000D03*
X178435000Y-108585000D03*
X179705000Y-108585000D03*
X180340000Y-107315000D03*
X179070000Y-107315000D03*
X177800000Y-107315000D03*
X186436000Y-114554000D03*
X186436000Y-117348000D03*
X186436000Y-115951000D03*
X185420000Y-115189000D03*
X185420000Y-116713000D03*
X185420000Y-118110000D03*
X187198000Y-118110000D03*
X187198000Y-119380000D03*
X187198000Y-120650000D03*
X188595000Y-117475000D03*
X188595000Y-118745000D03*
X188595000Y-120015000D03*
X188595000Y-121285000D03*
X184150000Y-76708000D03*
X189230000Y-82550000D03*
X153035000Y-114300000D03*
X154305000Y-114300000D03*
X154940000Y-113030000D03*
X153670000Y-113030000D03*
X156210000Y-110490000D03*
X154305000Y-111760000D03*
X153035000Y-111760000D03*
X153670000Y-110490000D03*
X154940000Y-110490000D03*
X155575000Y-109220000D03*
X154305000Y-109220000D03*
X153035000Y-109220000D03*
X153670000Y-107950000D03*
X154940000Y-107950000D03*
X155575000Y-106807000D03*
X154305000Y-106807000D03*
X153035000Y-106807000D03*
X156337000Y-100330000D03*
X168402000Y-113792000D03*
X170815000Y-110998000D03*
X169545000Y-110998000D03*
X168275000Y-110998000D03*
X174752000Y-108585000D03*
X173990000Y-109855000D03*
X172720000Y-109855000D03*
X171450000Y-109855000D03*
X170180000Y-109855000D03*
X168910000Y-109855000D03*
X168275000Y-106045000D03*
X169545000Y-106045000D03*
X170180000Y-107315000D03*
X168910000Y-107315000D03*
X168275000Y-108585000D03*
X169545000Y-108585000D03*
X173355782Y-108592886D03*
X172090070Y-108589965D03*
X170815000Y-108585000D03*
X170815000Y-108585000D03*
X173990000Y-107315000D03*
X172720000Y-107315000D03*
X171450000Y-107315000D03*
X171450000Y-107315000D03*
X175260000Y-100330000D03*
X187833000Y-109220000D03*
X188849000Y-110109000D03*
X182880000Y-108712000D03*
X184150000Y-108712000D03*
X185420000Y-108712000D03*
X186690000Y-108712000D03*
X181610000Y-110363000D03*
X183515000Y-110363000D03*
X184785000Y-110363000D03*
X186055000Y-110363000D03*
X187579000Y-110363000D03*
X188595000Y-112395000D03*
X188595000Y-111379000D03*
X189611000Y-111379000D03*
X188595000Y-113665000D03*
X188595000Y-114935000D03*
X188595000Y-115824000D03*
X193294020Y-114554000D03*
X179070000Y-93980014D03*
X172085000Y-90830380D03*
X188214000Y-96266000D03*
X186182000Y-93472000D03*
X183515000Y-106553000D03*
X164973000Y-102616000D03*
X156718000Y-98298000D03*
X196596000Y-115824000D03*
D37*
X189484000Y-84582000D02*
X190040000Y-85138000D01*
X190040000Y-85138000D02*
X190040000Y-86360000D01*
X183134000Y-89154000D02*
X183134000Y-84836000D01*
D38*
X204130000Y-109220000D02*
X204130000Y-106769600D01*
X204130000Y-106769600D02*
X201951116Y-104590716D01*
X192913000Y-76581000D02*
X192913000Y-74241660D01*
X192913000Y-74241660D02*
X192786000Y-74114660D01*
D37*
X182880000Y-103800000D02*
X182880000Y-103650000D01*
X180479126Y-101384057D02*
X179940311Y-101384057D01*
X182880000Y-103650000D02*
X180614057Y-101384057D01*
X180614057Y-101384057D02*
X180479126Y-101384057D01*
D39*
X179940311Y-101384057D02*
X179940311Y-100041812D01*
X179940311Y-100041812D02*
X179834734Y-99936235D01*
D37*
X171450000Y-95250000D02*
X171450000Y-96240262D01*
X171450000Y-96240262D02*
X171648530Y-96438792D01*
D39*
X168093000Y-91567000D02*
X172847000Y-91567000D01*
X172847000Y-91567000D02*
X173101000Y-91313000D01*
X167005000Y-89725000D02*
X167005000Y-90479000D01*
X167005000Y-90479000D02*
X168093000Y-91567000D01*
D40*
X167005000Y-89725000D02*
X167005000Y-88265000D01*
X168905000Y-83820000D02*
X168905000Y-83053000D01*
X168905000Y-83053000D02*
X168275000Y-82423000D01*
X195072000Y-101600000D02*
X194540000Y-101068000D01*
X194540000Y-101068000D02*
X194540000Y-95060000D01*
X167005000Y-89725000D02*
X160205000Y-89725000D01*
X161290000Y-95250000D02*
X161290000Y-90810000D01*
X161290000Y-90810000D02*
X160205000Y-89725000D01*
D37*
X200660000Y-78740000D02*
X196486810Y-82913190D01*
X196486810Y-82913190D02*
X196486810Y-85834190D01*
X196486810Y-85834190D02*
X196469000Y-85852000D01*
X194902471Y-87871153D02*
X194902471Y-88227677D01*
X196469000Y-85852000D02*
X196413605Y-85852000D01*
X194902471Y-88227677D02*
X194902471Y-88766492D01*
X196413605Y-85852000D02*
X195709164Y-86556441D01*
X195709164Y-86556441D02*
X195709164Y-87064460D01*
X195709164Y-87064460D02*
X194902471Y-87871153D01*
X195208963Y-88460000D02*
X194902471Y-88766492D01*
X196640000Y-88460000D02*
X195208963Y-88460000D01*
D41*
X167894000Y-75946000D02*
X167894000Y-76707994D01*
X167894000Y-75184000D02*
X167894000Y-75946000D01*
X167894000Y-75184000D02*
X164431980Y-75184000D01*
X164431980Y-75184000D02*
X163415980Y-74168000D01*
D37*
X200660000Y-70866000D02*
X200660000Y-69385000D01*
X200660000Y-69385000D02*
X200670000Y-69375000D01*
X201488000Y-74930000D02*
X201488000Y-76733600D01*
X201488000Y-76733600D02*
X201091600Y-77130000D01*
X201091600Y-77130000D02*
X200538000Y-77130000D01*
X200660000Y-78010600D02*
X200660000Y-78740000D01*
X200538000Y-77130000D02*
X200538000Y-77888600D01*
X200538000Y-77888600D02*
X200660000Y-78010600D01*
X179832000Y-73914000D02*
X178348640Y-73914000D01*
X178348640Y-73914000D02*
X178147980Y-74114660D01*
X192786000Y-71628000D02*
X192786000Y-74114660D01*
X162052000Y-102646815D02*
X162052000Y-102108000D01*
X163151400Y-103800000D02*
X162052000Y-102700600D01*
X162052000Y-102700600D02*
X162052000Y-102646815D01*
X163830000Y-103800000D02*
X163151400Y-103800000D01*
X180340000Y-95250000D02*
X180340000Y-93980014D01*
X205100000Y-113660000D02*
X203840000Y-112400000D01*
X203840000Y-112400000D02*
X203200000Y-112400000D01*
X205100000Y-118110000D02*
X205100000Y-113660000D01*
X199136000Y-112268000D02*
X200533000Y-112268000D01*
X200533000Y-112268000D02*
X200660000Y-112395000D01*
X152400000Y-96520000D02*
X152400000Y-95250000D01*
X161290000Y-95250000D02*
X162306000Y-95250000D01*
X205486000Y-68509000D02*
X205470000Y-68493000D01*
X205470000Y-68493000D02*
X205470000Y-66675000D01*
X204470000Y-69375000D02*
X204620000Y-69375000D01*
X204620000Y-69375000D02*
X205486000Y-68509000D01*
X198870600Y-68072000D02*
X198863400Y-68072000D01*
X198863400Y-68072000D02*
X198470000Y-67678600D01*
X198470000Y-67678600D02*
X198470000Y-66675000D01*
X199470000Y-69375000D02*
X199470000Y-68671400D01*
X199470000Y-68671400D02*
X198870600Y-68072000D01*
X200670000Y-69375000D02*
X199470000Y-69375000D01*
X189864999Y-88519001D02*
X189484000Y-88900000D01*
X190207902Y-87352901D02*
X190207902Y-88176098D01*
X190040000Y-87184999D02*
X190207902Y-87352901D01*
X190040000Y-86360000D02*
X190040000Y-87184999D01*
X190207902Y-88176098D02*
X189864999Y-88519001D01*
X195072000Y-91892626D02*
X195072000Y-90932000D01*
X194540000Y-95060000D02*
X194540000Y-94181400D01*
X194582790Y-94138610D02*
X194582792Y-92381834D01*
X194540000Y-94181400D02*
X194582790Y-94138610D01*
X194582792Y-92381834D02*
X195072000Y-91892626D01*
X188956000Y-91460000D02*
X189484000Y-90932000D01*
X187940000Y-91460000D02*
X188956000Y-91460000D01*
X200660000Y-121285000D02*
X204052600Y-121285000D01*
X204052600Y-121285000D02*
X205100000Y-120237600D01*
X205100000Y-120237600D02*
X205100000Y-119634000D01*
X205100000Y-118110000D02*
X205100000Y-119634000D01*
X200660000Y-112395000D02*
X203195000Y-112395000D01*
X203195000Y-112395000D02*
X203200000Y-112400000D01*
X200660000Y-112395000D02*
X200977500Y-112395000D01*
X200977500Y-112395000D02*
X204130000Y-109242500D01*
X204130000Y-109242500D02*
X204130000Y-109220000D01*
X160020000Y-93980000D02*
X160020000Y-95250000D01*
X158750000Y-93980000D02*
X158750000Y-95250000D01*
D39*
X171394092Y-97282000D02*
X170515893Y-96403801D01*
X170515893Y-96403801D02*
X170134894Y-96022802D01*
X173228000Y-97282000D02*
X171394092Y-97282000D01*
X173990000Y-96520000D02*
X173228000Y-97282000D01*
X200660000Y-114935000D02*
X199009000Y-114935000D01*
D40*
X160909000Y-100457000D02*
X161289999Y-100076001D01*
X161289999Y-100076001D02*
X161289999Y-99892499D01*
X161289999Y-99892499D02*
X163392498Y-97790000D01*
X163392498Y-97790000D02*
X164719000Y-97790000D01*
X164719000Y-97790000D02*
X169545000Y-92964000D01*
X175006000Y-91694000D02*
X175514000Y-91694000D01*
X169545000Y-92964000D02*
X173736000Y-92964000D01*
X173736000Y-92964000D02*
X175006000Y-91694000D01*
X175272700Y-93218000D02*
X175514000Y-93218000D01*
X173990000Y-94500700D02*
X175272700Y-93218000D01*
X173990000Y-95250000D02*
X173990000Y-94500700D01*
D37*
X200538000Y-74930000D02*
X199136000Y-74930000D01*
X203454000Y-70612000D02*
X203270000Y-70428000D01*
X203270000Y-70428000D02*
X203270000Y-69375000D01*
X203454000Y-70866000D02*
X203454000Y-70612000D01*
X200538000Y-74930000D02*
X200538000Y-74171400D01*
X200538000Y-74171400D02*
X201557400Y-73152000D01*
X201557400Y-73152000D02*
X201676000Y-73152000D01*
X201676000Y-73152000D02*
X202438000Y-73914000D01*
X202438000Y-73914000D02*
X202438000Y-74930000D01*
X155086388Y-96920388D02*
X155309376Y-96920388D01*
X154940000Y-96774000D02*
X155086388Y-96920388D01*
X154940000Y-95250000D02*
X154940000Y-96774000D01*
X173990000Y-96520000D02*
X173990000Y-95250000D01*
X200660000Y-114935000D02*
X202565000Y-114935000D01*
X202565000Y-114935000D02*
X203200000Y-114300000D01*
X177800000Y-95250000D02*
X177800000Y-93980000D01*
X181102000Y-86868000D02*
X181102000Y-86113400D01*
X181102000Y-86113400D02*
X180713600Y-85725000D01*
X180713600Y-85725000D02*
X178885000Y-85725000D01*
D40*
X203962000Y-76581000D02*
X203413000Y-77130000D01*
X203413000Y-77130000D02*
X202438000Y-77130000D01*
X203962000Y-74422000D02*
X203962000Y-76581000D01*
X201676000Y-72136000D02*
X203962000Y-74422000D01*
X199136000Y-72136000D02*
X201676000Y-72136000D01*
X172085000Y-85725000D02*
X178885000Y-85725000D01*
D37*
X196850002Y-86486998D02*
X196469003Y-86867997D01*
X196944021Y-84233979D02*
X196944021Y-86392979D01*
X196640000Y-87038994D02*
X196469003Y-86867997D01*
X196640000Y-87960000D02*
X196640000Y-87038994D01*
X202438000Y-78740000D02*
X196944021Y-84233979D01*
X196944021Y-86392979D02*
X196850002Y-86486998D01*
X202438000Y-78740000D02*
X202438000Y-77130000D01*
X189540000Y-87574000D02*
X189462842Y-87651158D01*
X189462842Y-87651158D02*
X189448005Y-87651158D01*
X189540000Y-86360000D02*
X189540000Y-87574000D01*
X195040000Y-92742000D02*
X195072000Y-92710000D01*
X195072000Y-92710000D02*
X195326000Y-92710000D01*
X195040000Y-95060000D02*
X195040000Y-92742000D01*
X187940000Y-91960000D02*
X188818600Y-91960000D01*
X188818600Y-91960000D02*
X189484000Y-92625400D01*
D40*
X167005000Y-85725000D02*
X167005000Y-86402800D01*
X167005000Y-86402800D02*
X167724200Y-87122000D01*
X181318617Y-90295901D02*
X181982716Y-90960000D01*
X167724200Y-87122000D02*
X179809570Y-87122000D01*
X179809570Y-87122000D02*
X181318617Y-88631047D01*
X181318617Y-88631047D02*
X181318617Y-90295901D01*
X181982716Y-90960000D02*
X187940000Y-90960000D01*
X167005000Y-83820000D02*
X167005000Y-85725000D01*
X160205000Y-85725000D02*
X167005000Y-85725000D01*
D37*
X184404000Y-82151787D02*
X184404000Y-80454000D01*
X184404000Y-80454000D02*
X185864000Y-78994000D01*
X185864000Y-78994000D02*
X186014000Y-78994000D01*
X185674000Y-84836000D02*
X185674000Y-83421787D01*
X185674000Y-83421787D02*
X184404000Y-82151787D01*
X186014000Y-80772000D02*
X186014000Y-81450600D01*
X186014000Y-81450600D02*
X187016901Y-82453501D01*
X187016901Y-82453501D02*
X187016901Y-86396886D01*
X187016901Y-86396886D02*
X185674000Y-87739787D01*
X185674000Y-87739787D02*
X185674000Y-89154000D01*
X173990000Y-81280000D02*
X175893984Y-79376016D01*
X175893984Y-79376016D02*
X175893984Y-74114660D01*
X176297844Y-71882000D02*
X186436000Y-71882000D01*
X175893984Y-74114660D02*
X175893984Y-72285860D01*
X175893984Y-72285860D02*
X176297844Y-71882000D01*
X190754000Y-71882000D02*
X190754000Y-74082656D01*
X190754000Y-74082656D02*
X190786004Y-74114660D01*
X173736000Y-78740000D02*
X173736000Y-74272648D01*
X173736000Y-74272648D02*
X173893988Y-74114660D01*
X188722000Y-68580000D02*
X188722000Y-71120000D01*
X188722000Y-71120000D02*
X188722000Y-74050652D01*
X173893988Y-74114660D02*
X173893988Y-73117710D01*
X173893988Y-73117710D02*
X175891698Y-71120000D01*
X175891698Y-71120000D02*
X188722000Y-71120000D01*
X188722000Y-74050652D02*
X188786008Y-74114660D01*
D42*
X184483502Y-72644000D02*
X181102000Y-72644000D01*
D41*
X173736000Y-71120000D02*
X174498000Y-71120000D01*
D37*
X155415986Y-74168000D02*
X155415986Y-73168000D01*
D42*
X155415986Y-73168000D02*
X157463986Y-71120000D01*
X173197185Y-71120000D02*
X173736000Y-71120000D01*
X157463986Y-71120000D02*
X173197185Y-71120000D01*
X171893992Y-74114660D02*
X171893992Y-72454008D01*
X173228000Y-71120000D02*
X173736000Y-71120000D01*
X171893992Y-72454008D02*
X173228000Y-71120000D01*
X185954162Y-74114660D02*
X184483502Y-72644000D01*
X186786012Y-74114660D02*
X185954162Y-74114660D01*
D37*
X195326001Y-84708999D02*
X195707000Y-84328000D01*
X195040000Y-86360000D02*
X195040000Y-84995000D01*
X195040000Y-84995000D02*
X195326001Y-84708999D01*
X195647099Y-89340901D02*
X195326000Y-89662000D01*
X195647099Y-89074301D02*
X195647099Y-89340901D01*
X195761400Y-88960000D02*
X195647099Y-89074301D01*
X196640000Y-88960000D02*
X195761400Y-88960000D01*
X199196432Y-85196227D02*
X199196432Y-85029568D01*
X205232000Y-78994000D02*
X205232000Y-73914000D01*
X197858443Y-86534216D02*
X199196432Y-85196227D01*
X198118552Y-87487286D02*
X197929777Y-87298511D01*
X197929777Y-87188533D02*
X197858443Y-87117199D01*
X197858443Y-87117199D02*
X197858443Y-86534216D01*
X202620000Y-70278600D02*
X202620000Y-69375000D01*
X198118552Y-89520263D02*
X198118552Y-87487286D01*
X197678815Y-89960000D02*
X198118552Y-89520263D01*
X199196432Y-85029568D02*
X205232000Y-78994000D01*
X197929777Y-87298511D02*
X197929777Y-87188533D01*
X205232000Y-73914000D02*
X202620000Y-71302000D01*
X196640000Y-89960000D02*
X197678815Y-89960000D01*
X202620000Y-71302000D02*
X202620000Y-70278600D01*
X197472566Y-87377915D02*
X197401232Y-87306581D01*
X197401232Y-87306581D02*
X197401232Y-86344834D01*
X197401232Y-86344834D02*
X198129129Y-85616937D01*
X201970000Y-70278600D02*
X201970000Y-69375000D01*
X198129129Y-85450279D02*
X204724000Y-78855408D01*
X197661341Y-89317259D02*
X197661341Y-87676668D01*
X204724000Y-74168000D02*
X201970000Y-71414000D01*
X197661341Y-87676668D02*
X197472566Y-87487893D01*
X196640000Y-89460000D02*
X197518600Y-89460000D01*
X197518600Y-89460000D02*
X197661341Y-89317259D01*
X201970000Y-71414000D02*
X201970000Y-70278600D01*
X198129129Y-85616937D02*
X198129129Y-85450279D01*
X197472566Y-87487893D02*
X197472566Y-87377915D01*
X204724000Y-78855408D02*
X204724000Y-74168000D01*
X201320000Y-67247450D02*
X200963469Y-66890919D01*
X201320000Y-69375000D02*
X201320000Y-67247450D01*
X200963469Y-66890919D02*
X200582470Y-66509920D01*
X197020000Y-109220000D02*
X197020000Y-109898600D01*
X197020000Y-109898600D02*
X198285099Y-111163699D01*
X198285099Y-111163699D02*
X198285099Y-115417599D01*
X198285099Y-115417599D02*
X200342500Y-117475000D01*
X200342500Y-117475000D02*
X200660000Y-117475000D01*
D40*
X197020000Y-109220000D02*
X196870000Y-109220000D01*
X195617463Y-110472537D02*
X193539130Y-110472537D01*
X196870000Y-109220000D02*
X195617463Y-110472537D01*
X193539130Y-110472537D02*
X193000315Y-110472537D01*
X161417000Y-77597000D02*
X161417000Y-74169016D01*
X161417000Y-74169016D02*
X161415984Y-74168000D01*
X170339696Y-97726511D02*
X169037000Y-96423815D01*
X174370989Y-97726511D02*
X170339696Y-97726511D01*
X169037000Y-96423815D02*
X169037000Y-95885000D01*
X176530000Y-95567500D02*
X174370989Y-97726511D01*
X176530000Y-95250000D02*
X176530000Y-95567500D01*
X159512000Y-82677000D02*
X159512000Y-74264012D01*
X159512000Y-74264012D02*
X159415988Y-74168000D01*
D37*
X182880000Y-96860000D02*
X182201400Y-96860000D01*
X182115400Y-96774000D02*
X177292000Y-96774000D01*
X182201400Y-96860000D02*
X182115400Y-96774000D01*
X177292000Y-96774000D02*
X176530000Y-96012000D01*
X176530000Y-96012000D02*
X176530000Y-95250000D01*
X190540000Y-96734000D02*
X190540000Y-95060000D01*
X184762000Y-97028000D02*
X190246000Y-97028000D01*
X190246000Y-97028000D02*
X190540000Y-96734000D01*
X182880000Y-99060000D02*
X182880000Y-98910000D01*
X182880000Y-98910000D02*
X184762000Y-97028000D01*
D38*
X182880000Y-99060000D02*
X182880000Y-101600000D01*
D40*
X157480000Y-82423000D02*
X157480000Y-74232008D01*
X157480000Y-74232008D02*
X157415992Y-74168000D01*
X157480000Y-91948000D02*
X157988000Y-91440000D01*
X157480000Y-95250000D02*
X157480000Y-91948000D01*
D37*
X157480000Y-95250000D02*
X157734000Y-94996000D01*
X157480000Y-95567500D02*
X158686500Y-96774000D01*
X158686500Y-96774000D02*
X163830000Y-96774000D01*
X157480000Y-95250000D02*
X157480000Y-95567500D01*
X163830000Y-98974000D02*
X164508600Y-98974000D01*
X164508600Y-98974000D02*
X169502600Y-93980000D01*
X173680624Y-93980000D02*
X175166526Y-92494098D01*
X169502600Y-93980000D02*
X173680624Y-93980000D01*
X175166526Y-92494098D02*
X182283098Y-92494098D01*
X184849000Y-95060000D02*
X189186400Y-95060000D01*
X182283098Y-92494098D02*
X184849000Y-95060000D01*
X189186400Y-95060000D02*
X189540000Y-95060000D01*
X163830000Y-98974000D02*
X163830000Y-101600000D01*
X171536000Y-78740000D02*
X171536000Y-81194000D01*
X171536000Y-81194000D02*
X171450000Y-81280000D01*
X190246000Y-80518000D02*
X188722000Y-78994000D01*
X188722000Y-78994000D02*
X188214000Y-78994000D01*
X193540000Y-83574000D02*
X193548000Y-83566000D01*
X193540000Y-86360000D02*
X193540000Y-83574000D01*
X193548000Y-86352000D02*
X193540000Y-86360000D01*
X194040000Y-84805920D02*
X194263920Y-84582000D01*
X194040000Y-86360000D02*
X194040000Y-84805920D01*
X190058600Y-81788000D02*
X190246000Y-81788000D01*
X188214000Y-80772000D02*
X189042600Y-80772000D01*
X189042600Y-80772000D02*
X190058600Y-81788000D01*
D38*
X162052000Y-111125000D02*
X162052000Y-111278000D01*
X162052000Y-111278000D02*
X160510000Y-112820000D01*
X161290000Y-110236000D02*
X160020000Y-110236000D01*
X160655000Y-109347000D02*
X161925000Y-109347000D01*
X161163000Y-107696000D02*
X161386185Y-107696000D01*
X160909000Y-107442000D02*
X161163000Y-107696000D01*
X161386185Y-107696000D02*
X161925000Y-107696000D01*
X160655000Y-107696000D02*
X161925000Y-107696000D01*
X158115000Y-107315000D02*
X158115000Y-107696006D01*
X158750000Y-106680000D02*
X158115000Y-107315000D01*
X160751185Y-108585000D02*
X160020000Y-108585000D01*
X161290000Y-108585000D02*
X160751185Y-108585000D01*
X160020000Y-106680000D02*
X158750000Y-106680000D01*
X161290000Y-105410000D02*
X161290000Y-106680000D01*
X177165000Y-113538000D02*
X178435000Y-113538000D01*
X177038000Y-111125000D02*
X177800004Y-111887004D01*
X177800004Y-111887004D02*
X177800004Y-112395000D01*
X176530000Y-112395000D02*
X177800004Y-112395000D01*
X175260000Y-112395000D02*
X175260000Y-112776000D01*
X175260000Y-112776000D02*
X176022000Y-113538000D01*
X179070000Y-109855000D02*
X179070000Y-110490000D01*
X179070000Y-110490000D02*
X178435000Y-111125000D01*
X177038000Y-108585000D02*
X177038000Y-109093000D01*
X177038000Y-109093000D02*
X177800000Y-109855000D01*
X179705000Y-108585000D02*
X178435000Y-108585000D01*
X179070000Y-107315000D02*
X180340000Y-107315000D01*
X177800000Y-105410000D02*
X177800000Y-107315000D01*
X186436000Y-114554000D02*
X186436000Y-113286000D01*
X186436000Y-113286000D02*
X185900000Y-112750000D01*
X186436000Y-115951000D02*
X186436000Y-114554000D01*
X186182000Y-115951000D02*
X186436000Y-115951000D01*
X185420000Y-115189000D02*
X186182000Y-115951000D01*
X185420000Y-116713000D02*
X185420000Y-115189000D01*
X185420000Y-118110000D02*
X185420000Y-116713000D01*
X187421185Y-120650000D02*
X187198000Y-120650000D01*
X188595000Y-121285000D02*
X188056185Y-121285000D01*
X188056185Y-121285000D02*
X187421185Y-120650000D01*
X189547500Y-117475000D02*
X188595000Y-117475000D01*
X190500000Y-117475000D02*
X189547500Y-117475000D01*
X189547500Y-118745000D02*
X188595000Y-118745000D01*
X190500000Y-118745000D02*
X189547500Y-118745000D01*
X189547500Y-120015000D02*
X188595000Y-120015000D01*
X190500000Y-120015000D02*
X189547500Y-120015000D01*
X189547500Y-121285000D02*
X188595000Y-121285000D01*
X190500000Y-121285000D02*
X189547500Y-121285000D01*
D41*
X190500000Y-117475000D02*
X190182500Y-117475000D01*
X190182500Y-117475000D02*
X190055500Y-117602000D01*
D37*
X184688815Y-76708000D02*
X184150000Y-76708000D01*
X191040000Y-79267329D02*
X188480671Y-76708000D01*
X191040000Y-86360000D02*
X191040000Y-79267329D01*
X188480671Y-76708000D02*
X184688815Y-76708000D01*
X190540000Y-83860000D02*
X189230000Y-82550000D01*
X190540000Y-86360000D02*
X190540000Y-83860000D01*
D38*
X154305000Y-114300000D02*
X153035000Y-114300000D01*
X153670000Y-113030000D02*
X154940000Y-113030000D01*
X154305000Y-111760000D02*
X154940000Y-111760000D01*
X154940000Y-111760000D02*
X156210000Y-110490000D01*
X153670000Y-110490000D02*
X153670000Y-111125000D01*
X153670000Y-111125000D02*
X153035000Y-111760000D01*
X155575000Y-109220000D02*
X155575000Y-109855000D01*
X155575000Y-109855000D02*
X154940000Y-110490000D01*
X153035000Y-109220000D02*
X154305000Y-109220000D01*
X154940000Y-107950000D02*
X153670000Y-107950000D01*
X154114500Y-106807000D02*
X154305000Y-106807000D01*
X153670000Y-105410000D02*
X153670000Y-106362500D01*
X153670000Y-106362500D02*
X154114500Y-106807000D01*
X152844500Y-106807000D02*
X153035000Y-106807000D01*
X152400000Y-105410000D02*
X152400000Y-106362500D01*
X152400000Y-106362500D02*
X152844500Y-106807000D01*
X155194000Y-101473000D02*
X156337000Y-100330000D01*
X155194000Y-104203500D02*
X155194000Y-101473000D01*
X154940000Y-105410000D02*
X154940000Y-104457500D01*
X154940000Y-104457500D02*
X155194000Y-104203500D01*
X167894001Y-113411001D02*
X168275000Y-113792000D01*
X168275000Y-113792000D02*
X168402000Y-113792000D01*
X168275000Y-110998000D02*
X167894001Y-111378999D01*
X167894001Y-111378999D02*
X167894001Y-113411001D01*
X168275000Y-110998000D02*
X169545000Y-110998000D01*
X173990000Y-109855000D02*
X173990000Y-109347000D01*
X173990000Y-109347000D02*
X174752000Y-108585000D01*
X171450000Y-109855000D02*
X172720000Y-109855000D01*
X168910000Y-109855000D02*
X170180000Y-109855000D01*
X169545000Y-106045000D02*
X168275000Y-106045000D01*
X168910000Y-107315000D02*
X170180000Y-107315000D01*
X169545000Y-108585000D02*
X168275000Y-108585000D01*
X173990000Y-107958668D02*
X173736781Y-108211887D01*
X173990000Y-107315000D02*
X173990000Y-107958668D01*
X173736781Y-108211887D02*
X173355782Y-108592886D01*
X172085105Y-108585000D02*
X172090070Y-108589965D01*
X170815000Y-108585000D02*
X172085105Y-108585000D01*
X172720000Y-107315000D02*
X173990000Y-107315000D01*
X171450000Y-105410000D02*
X171450000Y-107315000D01*
D39*
X174371000Y-100330000D02*
X175260000Y-100330000D01*
X173990000Y-100711000D02*
X174371000Y-100330000D01*
X173990000Y-105410000D02*
X173990000Y-100711000D01*
D38*
X188849000Y-110363000D02*
X188849000Y-110109000D01*
X187579000Y-110363000D02*
X188849000Y-110363000D01*
X187579000Y-109474000D02*
X186817000Y-108712000D01*
X186817000Y-108712000D02*
X186690000Y-108712000D01*
X187579000Y-110363000D02*
X187579000Y-109474000D01*
X188595000Y-110363000D02*
X188595000Y-111379000D01*
X183515000Y-110363000D02*
X181610000Y-110363000D01*
X184785000Y-110363000D02*
X183515000Y-110363000D01*
X186055000Y-110363000D02*
X184785000Y-110363000D01*
X187579000Y-110363000D02*
X186055000Y-110363000D01*
X188595000Y-110363000D02*
X187579000Y-110363000D01*
X190500000Y-112395000D02*
X189547500Y-112395000D01*
X189547500Y-112395000D02*
X188595000Y-112395000D01*
X188595000Y-111379000D02*
X189133815Y-111379000D01*
X189133815Y-111379000D02*
X189611000Y-111379000D01*
X189547500Y-113665000D02*
X188595000Y-113665000D01*
X190500000Y-113665000D02*
X189547500Y-113665000D01*
X190500000Y-114935000D02*
X188595000Y-114935000D01*
X189166500Y-115824000D02*
X188595000Y-115824000D01*
X190500000Y-116205000D02*
X189547500Y-116205000D01*
X189547500Y-116205000D02*
X189166500Y-115824000D01*
D41*
X192913021Y-114934999D02*
X193294020Y-114554000D01*
X190500000Y-114935000D02*
X192913021Y-114934999D01*
X190500000Y-116205000D02*
X190182500Y-116205000D01*
X190500000Y-112395000D02*
X190182500Y-112395000D01*
X190182500Y-112395000D02*
X190055500Y-112268000D01*
D37*
X179070000Y-95250000D02*
X179070000Y-93980014D01*
X200660000Y-120015000D02*
X202819000Y-120015000D01*
X202819000Y-120015000D02*
X203200000Y-119634000D01*
X202095100Y-118110000D02*
X203200000Y-118110000D01*
X200660000Y-118745000D02*
X201460100Y-118745000D01*
X201460100Y-118745000D02*
X202095100Y-118110000D01*
D40*
X181626411Y-91366411D02*
X179985000Y-89725000D01*
X188595000Y-94361000D02*
X185801000Y-94361000D01*
X185801000Y-94361000D02*
X182806413Y-91366411D01*
X189230000Y-93726000D02*
X188595000Y-94361000D01*
X182806413Y-91366411D02*
X181626411Y-91366411D01*
X192533800Y-93726000D02*
X189230000Y-93726000D01*
X179985000Y-89725000D02*
X178885000Y-89725000D01*
X193040000Y-95060000D02*
X193040000Y-94232200D01*
X193040000Y-94232200D02*
X192533800Y-93726000D01*
X172085000Y-89725000D02*
X172085000Y-90830380D01*
X172085000Y-89725000D02*
X178885000Y-89725000D01*
D37*
X188214000Y-96266000D02*
X189726222Y-96266000D01*
X189726222Y-96266000D02*
X190040000Y-95952222D01*
X190040000Y-95952222D02*
X190040000Y-95938600D01*
X190040000Y-95938600D02*
X190040000Y-95060000D01*
X186182000Y-93472000D02*
X187928000Y-93472000D01*
X187928000Y-93472000D02*
X187940000Y-93460000D01*
X191040000Y-95060000D02*
X191040000Y-102838000D01*
X191040000Y-102838000D02*
X189484000Y-104394000D01*
X185166000Y-104140000D02*
X185166000Y-99999800D01*
X185166000Y-99999800D02*
X185851800Y-99314000D01*
X185851800Y-99314000D02*
X186944000Y-99314000D01*
X183515000Y-105791000D02*
X185166000Y-104140000D01*
X183515000Y-106553000D02*
X183515000Y-105791000D01*
X163178778Y-102616000D02*
X164973000Y-102616000D01*
X157098999Y-98678999D02*
X156718000Y-98298000D01*
X162394901Y-101180901D02*
X159600901Y-101180901D01*
X163178778Y-102616000D02*
X162814000Y-102251222D01*
X162814000Y-102251222D02*
X162814000Y-101600000D01*
X162814000Y-101600000D02*
X162394901Y-101180901D01*
X159600901Y-101180901D02*
X157098999Y-98678999D01*
X196596000Y-115824000D02*
X186944000Y-106172000D01*
X186944000Y-106172000D02*
X186944000Y-104394000D01*
X199220000Y-109220000D02*
X199070000Y-109220000D01*
X199070000Y-109220000D02*
X191540000Y-101690000D01*
X191540000Y-101690000D02*
X191540000Y-95938600D01*
X191540000Y-95938600D02*
X191540000Y-95060000D01*
X199220000Y-109220000D02*
X200048600Y-109220000D01*
X200048600Y-109220000D02*
X201930000Y-109220000D01*
D39*
G36*
X186093748Y-112735858D02*
X186079605Y-112750000D01*
X186943958Y-113614353D01*
X187071000Y-113573772D01*
X187071000Y-117094000D01*
X187081006Y-117143410D01*
X187109447Y-117185035D01*
X187151841Y-117212315D01*
X187198000Y-117221000D01*
X189325250Y-117221000D01*
X189452250Y-117348000D01*
X190373000Y-117348000D01*
X190373000Y-117328000D01*
X190627000Y-117328000D01*
X190627000Y-117348000D01*
X190647000Y-117348000D01*
X190647000Y-117602000D01*
X190627000Y-117602000D01*
X190627000Y-118618000D01*
X190647000Y-118618000D01*
X190647000Y-118872000D01*
X190627000Y-118872000D01*
X190627000Y-119888000D01*
X190647000Y-119888000D01*
X190647000Y-120142000D01*
X190627000Y-120142000D01*
X190627000Y-121158000D01*
X190647000Y-121158000D01*
X190647000Y-121412000D01*
X190627000Y-121412000D01*
X190627000Y-121432000D01*
X190373000Y-121432000D01*
X190373000Y-121412000D01*
X189452250Y-121412000D01*
X189293500Y-121570750D01*
X189293500Y-121665309D01*
X189390173Y-121898698D01*
X189411475Y-121920000D01*
X185857861Y-121920000D01*
X185971786Y-121806274D01*
X186301624Y-121011935D01*
X186302244Y-120300750D01*
X189293500Y-120300750D01*
X189293500Y-120395309D01*
X189390173Y-120628698D01*
X189411475Y-120650000D01*
X189390173Y-120671302D01*
X189293500Y-120904691D01*
X189293500Y-120999250D01*
X189452250Y-121158000D01*
X190373000Y-121158000D01*
X190373000Y-120142000D01*
X189452250Y-120142000D01*
X189293500Y-120300750D01*
X186302244Y-120300750D01*
X186302374Y-120151838D01*
X185973923Y-119356925D01*
X185648318Y-119030750D01*
X189293500Y-119030750D01*
X189293500Y-119125309D01*
X189390173Y-119358698D01*
X189411475Y-119380000D01*
X189390173Y-119401302D01*
X189293500Y-119634691D01*
X189293500Y-119729250D01*
X189452250Y-119888000D01*
X190373000Y-119888000D01*
X190373000Y-118872000D01*
X189452250Y-118872000D01*
X189293500Y-119030750D01*
X185648318Y-119030750D01*
X185366274Y-118748214D01*
X184658000Y-118454113D01*
X184658000Y-117760750D01*
X189293500Y-117760750D01*
X189293500Y-117855309D01*
X189390173Y-118088698D01*
X189411475Y-118110000D01*
X189390173Y-118131302D01*
X189293500Y-118364691D01*
X189293500Y-118459250D01*
X189452250Y-118618000D01*
X190373000Y-118618000D01*
X190373000Y-117602000D01*
X189452250Y-117602000D01*
X189293500Y-117760750D01*
X184658000Y-117760750D01*
X184658000Y-113793958D01*
X185035647Y-113793958D01*
X185115920Y-114045259D01*
X185671279Y-114246718D01*
X186261458Y-114220315D01*
X186684080Y-114045259D01*
X186764353Y-113793958D01*
X185900000Y-112929605D01*
X185035647Y-113793958D01*
X184658000Y-113793958D01*
X184658000Y-113551093D01*
X184856042Y-113614353D01*
X185720395Y-112750000D01*
X185706253Y-112735858D01*
X185885858Y-112556253D01*
X185900000Y-112570395D01*
X185914143Y-112556253D01*
X186093748Y-112735858D01*
X186093748Y-112735858D01*
G37*
X186093748Y-112735858D02*
X186079605Y-112750000D01*
X186943958Y-113614353D01*
X187071000Y-113573772D01*
X187071000Y-117094000D01*
X187081006Y-117143410D01*
X187109447Y-117185035D01*
X187151841Y-117212315D01*
X187198000Y-117221000D01*
X189325250Y-117221000D01*
X189452250Y-117348000D01*
X190373000Y-117348000D01*
X190373000Y-117328000D01*
X190627000Y-117328000D01*
X190627000Y-117348000D01*
X190647000Y-117348000D01*
X190647000Y-117602000D01*
X190627000Y-117602000D01*
X190627000Y-118618000D01*
X190647000Y-118618000D01*
X190647000Y-118872000D01*
X190627000Y-118872000D01*
X190627000Y-119888000D01*
X190647000Y-119888000D01*
X190647000Y-120142000D01*
X190627000Y-120142000D01*
X190627000Y-121158000D01*
X190647000Y-121158000D01*
X190647000Y-121412000D01*
X190627000Y-121412000D01*
X190627000Y-121432000D01*
X190373000Y-121432000D01*
X190373000Y-121412000D01*
X189452250Y-121412000D01*
X189293500Y-121570750D01*
X189293500Y-121665309D01*
X189390173Y-121898698D01*
X189411475Y-121920000D01*
X185857861Y-121920000D01*
X185971786Y-121806274D01*
X186301624Y-121011935D01*
X186302244Y-120300750D01*
X189293500Y-120300750D01*
X189293500Y-120395309D01*
X189390173Y-120628698D01*
X189411475Y-120650000D01*
X189390173Y-120671302D01*
X189293500Y-120904691D01*
X189293500Y-120999250D01*
X189452250Y-121158000D01*
X190373000Y-121158000D01*
X190373000Y-120142000D01*
X189452250Y-120142000D01*
X189293500Y-120300750D01*
X186302244Y-120300750D01*
X186302374Y-120151838D01*
X185973923Y-119356925D01*
X185648318Y-119030750D01*
X189293500Y-119030750D01*
X189293500Y-119125309D01*
X189390173Y-119358698D01*
X189411475Y-119380000D01*
X189390173Y-119401302D01*
X189293500Y-119634691D01*
X189293500Y-119729250D01*
X189452250Y-119888000D01*
X190373000Y-119888000D01*
X190373000Y-118872000D01*
X189452250Y-118872000D01*
X189293500Y-119030750D01*
X185648318Y-119030750D01*
X185366274Y-118748214D01*
X184658000Y-118454113D01*
X184658000Y-117760750D01*
X189293500Y-117760750D01*
X189293500Y-117855309D01*
X189390173Y-118088698D01*
X189411475Y-118110000D01*
X189390173Y-118131302D01*
X189293500Y-118364691D01*
X189293500Y-118459250D01*
X189452250Y-118618000D01*
X190373000Y-118618000D01*
X190373000Y-117602000D01*
X189452250Y-117602000D01*
X189293500Y-117760750D01*
X184658000Y-117760750D01*
X184658000Y-113793958D01*
X185035647Y-113793958D01*
X185115920Y-114045259D01*
X185671279Y-114246718D01*
X186261458Y-114220315D01*
X186684080Y-114045259D01*
X186764353Y-113793958D01*
X185900000Y-112929605D01*
X185035647Y-113793958D01*
X184658000Y-113793958D01*
X184658000Y-113551093D01*
X184856042Y-113614353D01*
X185720395Y-112750000D01*
X185706253Y-112735858D01*
X185885858Y-112556253D01*
X185900000Y-112570395D01*
X185914143Y-112556253D01*
X186093748Y-112735858D01*
G36*
X190500000Y-111050606D02*
X190500000Y-116205000D01*
X188087000Y-116205000D01*
X188087000Y-115220750D01*
X189293500Y-115220750D01*
X189293500Y-115315309D01*
X189390173Y-115548698D01*
X189411475Y-115570000D01*
X189390173Y-115591302D01*
X189293500Y-115824691D01*
X189293500Y-115919250D01*
X189452250Y-116078000D01*
X190373000Y-116078000D01*
X190373000Y-115062000D01*
X189452250Y-115062000D01*
X189293500Y-115220750D01*
X188087000Y-115220750D01*
X188087000Y-113950750D01*
X189293500Y-113950750D01*
X189293500Y-114045309D01*
X189390173Y-114278698D01*
X189411475Y-114300000D01*
X189390173Y-114321302D01*
X189293500Y-114554691D01*
X189293500Y-114649250D01*
X189452250Y-114808000D01*
X190373000Y-114808000D01*
X190373000Y-113792000D01*
X189452250Y-113792000D01*
X189293500Y-113950750D01*
X188087000Y-113950750D01*
X188087000Y-112680750D01*
X189293500Y-112680750D01*
X189293500Y-112775309D01*
X189390173Y-113008698D01*
X189411475Y-113030000D01*
X189390173Y-113051302D01*
X189293500Y-113284691D01*
X189293500Y-113379250D01*
X189452250Y-113538000D01*
X190373000Y-113538000D01*
X190373000Y-112522000D01*
X189452250Y-112522000D01*
X189293500Y-112680750D01*
X188087000Y-112680750D01*
X188087000Y-112014691D01*
X189293500Y-112014691D01*
X189293500Y-112109250D01*
X189452250Y-112268000D01*
X190373000Y-112268000D01*
X190373000Y-111664750D01*
X190214250Y-111506000D01*
X189802190Y-111506000D01*
X189568801Y-111602673D01*
X189390173Y-111781302D01*
X189293500Y-112014691D01*
X188087000Y-112014691D01*
X188087000Y-111125000D01*
X188076994Y-111075590D01*
X188048553Y-111033965D01*
X188006159Y-111006685D01*
X187960000Y-110998000D01*
X183769000Y-110998000D01*
X183719590Y-111008006D01*
X183677965Y-111036447D01*
X183650685Y-111078841D01*
X183642000Y-111125000D01*
X183642000Y-111948907D01*
X183443958Y-111885647D01*
X182579605Y-112750000D01*
X183443958Y-113614353D01*
X183642000Y-113551093D01*
X183642000Y-114173000D01*
X182875686Y-114173000D01*
X183184080Y-114045259D01*
X183264353Y-113793958D01*
X182400000Y-112929605D01*
X181535647Y-113793958D01*
X181615920Y-114045259D01*
X181968062Y-114173000D01*
X180467000Y-114173000D01*
X180467000Y-112521279D01*
X180903282Y-112521279D01*
X180929685Y-113111458D01*
X181104741Y-113534080D01*
X181356042Y-113614353D01*
X182220395Y-112750000D01*
X181356042Y-111885647D01*
X181104741Y-111965920D01*
X180903282Y-112521279D01*
X180467000Y-112521279D01*
X180467000Y-111706042D01*
X181535647Y-111706042D01*
X182400000Y-112570395D01*
X183264353Y-111706042D01*
X183184080Y-111454741D01*
X182628721Y-111253282D01*
X182038542Y-111279685D01*
X181615920Y-111454741D01*
X181535647Y-111706042D01*
X180467000Y-111706042D01*
X180467000Y-110415606D01*
X182805606Y-108077000D01*
X187526394Y-108077000D01*
X190500000Y-111050606D01*
X190500000Y-111050606D01*
G37*
X190500000Y-111050606D02*
X190500000Y-116205000D01*
X188087000Y-116205000D01*
X188087000Y-115220750D01*
X189293500Y-115220750D01*
X189293500Y-115315309D01*
X189390173Y-115548698D01*
X189411475Y-115570000D01*
X189390173Y-115591302D01*
X189293500Y-115824691D01*
X189293500Y-115919250D01*
X189452250Y-116078000D01*
X190373000Y-116078000D01*
X190373000Y-115062000D01*
X189452250Y-115062000D01*
X189293500Y-115220750D01*
X188087000Y-115220750D01*
X188087000Y-113950750D01*
X189293500Y-113950750D01*
X189293500Y-114045309D01*
X189390173Y-114278698D01*
X189411475Y-114300000D01*
X189390173Y-114321302D01*
X189293500Y-114554691D01*
X189293500Y-114649250D01*
X189452250Y-114808000D01*
X190373000Y-114808000D01*
X190373000Y-113792000D01*
X189452250Y-113792000D01*
X189293500Y-113950750D01*
X188087000Y-113950750D01*
X188087000Y-112680750D01*
X189293500Y-112680750D01*
X189293500Y-112775309D01*
X189390173Y-113008698D01*
X189411475Y-113030000D01*
X189390173Y-113051302D01*
X189293500Y-113284691D01*
X189293500Y-113379250D01*
X189452250Y-113538000D01*
X190373000Y-113538000D01*
X190373000Y-112522000D01*
X189452250Y-112522000D01*
X189293500Y-112680750D01*
X188087000Y-112680750D01*
X188087000Y-112014691D01*
X189293500Y-112014691D01*
X189293500Y-112109250D01*
X189452250Y-112268000D01*
X190373000Y-112268000D01*
X190373000Y-111664750D01*
X190214250Y-111506000D01*
X189802190Y-111506000D01*
X189568801Y-111602673D01*
X189390173Y-111781302D01*
X189293500Y-112014691D01*
X188087000Y-112014691D01*
X188087000Y-111125000D01*
X188076994Y-111075590D01*
X188048553Y-111033965D01*
X188006159Y-111006685D01*
X187960000Y-110998000D01*
X183769000Y-110998000D01*
X183719590Y-111008006D01*
X183677965Y-111036447D01*
X183650685Y-111078841D01*
X183642000Y-111125000D01*
X183642000Y-111948907D01*
X183443958Y-111885647D01*
X182579605Y-112750000D01*
X183443958Y-113614353D01*
X183642000Y-113551093D01*
X183642000Y-114173000D01*
X182875686Y-114173000D01*
X183184080Y-114045259D01*
X183264353Y-113793958D01*
X182400000Y-112929605D01*
X181535647Y-113793958D01*
X181615920Y-114045259D01*
X181968062Y-114173000D01*
X180467000Y-114173000D01*
X180467000Y-112521279D01*
X180903282Y-112521279D01*
X180929685Y-113111458D01*
X181104741Y-113534080D01*
X181356042Y-113614353D01*
X182220395Y-112750000D01*
X181356042Y-111885647D01*
X181104741Y-111965920D01*
X180903282Y-112521279D01*
X180467000Y-112521279D01*
X180467000Y-111706042D01*
X181535647Y-111706042D01*
X182400000Y-112570395D01*
X183264353Y-111706042D01*
X183184080Y-111454741D01*
X182628721Y-111253282D01*
X182038542Y-111279685D01*
X181615920Y-111454741D01*
X181535647Y-111706042D01*
X180467000Y-111706042D01*
X180467000Y-110415606D01*
X182805606Y-108077000D01*
X187526394Y-108077000D01*
X190500000Y-111050606D01*
G36*
X176657000Y-105283000D02*
X177673000Y-105283000D01*
X177673000Y-105263000D01*
X177927000Y-105263000D01*
X177927000Y-105283000D01*
X178943000Y-105283000D01*
X178943000Y-105263000D01*
X179197000Y-105263000D01*
X179197000Y-105283000D01*
X180213000Y-105283000D01*
X180213000Y-105263000D01*
X180467000Y-105263000D01*
X180467000Y-105283000D01*
X180487000Y-105283000D01*
X180487000Y-105537000D01*
X180467000Y-105537000D01*
X180467000Y-106457750D01*
X180594000Y-106584750D01*
X180594000Y-108786394D01*
X179488197Y-109892197D01*
X179460334Y-109934211D01*
X179451000Y-109982000D01*
X179451000Y-114808000D01*
X172085000Y-114808000D01*
X172085000Y-113793958D01*
X172345647Y-113793958D01*
X172425920Y-114045259D01*
X172981279Y-114246718D01*
X173571458Y-114220315D01*
X173994080Y-114045259D01*
X174074353Y-113793958D01*
X173210000Y-112929605D01*
X172345647Y-113793958D01*
X172085000Y-113793958D01*
X172085000Y-113588466D01*
X172166042Y-113614353D01*
X173030395Y-112750000D01*
X173389605Y-112750000D01*
X174253958Y-113614353D01*
X174505259Y-113534080D01*
X174706718Y-112978721D01*
X174680315Y-112388542D01*
X174505259Y-111965920D01*
X174253958Y-111885647D01*
X173389605Y-112750000D01*
X173030395Y-112750000D01*
X173016253Y-112735858D01*
X173195858Y-112556253D01*
X173210000Y-112570395D01*
X174074353Y-111706042D01*
X174010454Y-111506000D01*
X176403000Y-111506000D01*
X176452410Y-111495994D01*
X176494035Y-111467553D01*
X176521315Y-111425159D01*
X176530000Y-111379000D01*
X176530000Y-105537000D01*
X176657000Y-105537000D01*
X176657000Y-106457750D01*
X176815750Y-106616500D01*
X176910309Y-106616500D01*
X177143698Y-106519827D01*
X177165000Y-106498525D01*
X177186302Y-106519827D01*
X177419691Y-106616500D01*
X177514250Y-106616500D01*
X177673000Y-106457750D01*
X177673000Y-105537000D01*
X177927000Y-105537000D01*
X177927000Y-106457750D01*
X178085750Y-106616500D01*
X178180309Y-106616500D01*
X178413698Y-106519827D01*
X178435000Y-106498525D01*
X178456302Y-106519827D01*
X178689691Y-106616500D01*
X178784250Y-106616500D01*
X178943000Y-106457750D01*
X178943000Y-105537000D01*
X179197000Y-105537000D01*
X179197000Y-106457750D01*
X179355750Y-106616500D01*
X179450309Y-106616500D01*
X179683698Y-106519827D01*
X179705000Y-106498525D01*
X179726302Y-106519827D01*
X179959691Y-106616500D01*
X180054250Y-106616500D01*
X180213000Y-106457750D01*
X180213000Y-105537000D01*
X179197000Y-105537000D01*
X178943000Y-105537000D01*
X177927000Y-105537000D01*
X177673000Y-105537000D01*
X176657000Y-105537000D01*
X176530000Y-105537000D01*
X176530000Y-105263000D01*
X176657000Y-105263000D01*
X176657000Y-105283000D01*
X176657000Y-105283000D01*
G37*
X176657000Y-105283000D02*
X177673000Y-105283000D01*
X177673000Y-105263000D01*
X177927000Y-105263000D01*
X177927000Y-105283000D01*
X178943000Y-105283000D01*
X178943000Y-105263000D01*
X179197000Y-105263000D01*
X179197000Y-105283000D01*
X180213000Y-105283000D01*
X180213000Y-105263000D01*
X180467000Y-105263000D01*
X180467000Y-105283000D01*
X180487000Y-105283000D01*
X180487000Y-105537000D01*
X180467000Y-105537000D01*
X180467000Y-106457750D01*
X180594000Y-106584750D01*
X180594000Y-108786394D01*
X179488197Y-109892197D01*
X179460334Y-109934211D01*
X179451000Y-109982000D01*
X179451000Y-114808000D01*
X172085000Y-114808000D01*
X172085000Y-113793958D01*
X172345647Y-113793958D01*
X172425920Y-114045259D01*
X172981279Y-114246718D01*
X173571458Y-114220315D01*
X173994080Y-114045259D01*
X174074353Y-113793958D01*
X173210000Y-112929605D01*
X172345647Y-113793958D01*
X172085000Y-113793958D01*
X172085000Y-113588466D01*
X172166042Y-113614353D01*
X173030395Y-112750000D01*
X173389605Y-112750000D01*
X174253958Y-113614353D01*
X174505259Y-113534080D01*
X174706718Y-112978721D01*
X174680315Y-112388542D01*
X174505259Y-111965920D01*
X174253958Y-111885647D01*
X173389605Y-112750000D01*
X173030395Y-112750000D01*
X173016253Y-112735858D01*
X173195858Y-112556253D01*
X173210000Y-112570395D01*
X174074353Y-111706042D01*
X174010454Y-111506000D01*
X176403000Y-111506000D01*
X176452410Y-111495994D01*
X176494035Y-111467553D01*
X176521315Y-111425159D01*
X176530000Y-111379000D01*
X176530000Y-105537000D01*
X176657000Y-105537000D01*
X176657000Y-106457750D01*
X176815750Y-106616500D01*
X176910309Y-106616500D01*
X177143698Y-106519827D01*
X177165000Y-106498525D01*
X177186302Y-106519827D01*
X177419691Y-106616500D01*
X177514250Y-106616500D01*
X177673000Y-106457750D01*
X177673000Y-105537000D01*
X177927000Y-105537000D01*
X177927000Y-106457750D01*
X178085750Y-106616500D01*
X178180309Y-106616500D01*
X178413698Y-106519827D01*
X178435000Y-106498525D01*
X178456302Y-106519827D01*
X178689691Y-106616500D01*
X178784250Y-106616500D01*
X178943000Y-106457750D01*
X178943000Y-105537000D01*
X179197000Y-105537000D01*
X179197000Y-106457750D01*
X179355750Y-106616500D01*
X179450309Y-106616500D01*
X179683698Y-106519827D01*
X179705000Y-106498525D01*
X179726302Y-106519827D01*
X179959691Y-106616500D01*
X180054250Y-106616500D01*
X180213000Y-106457750D01*
X180213000Y-105537000D01*
X179197000Y-105537000D01*
X178943000Y-105537000D01*
X177927000Y-105537000D01*
X177673000Y-105537000D01*
X176657000Y-105537000D01*
X176530000Y-105537000D01*
X176530000Y-105263000D01*
X176657000Y-105263000D01*
X176657000Y-105283000D01*
D43*
G36*
X170437000Y-105217250D02*
X170626750Y-105407000D01*
X171447000Y-105407000D01*
X171447000Y-105387000D01*
X171453000Y-105387000D01*
X171453000Y-105407000D01*
X172717000Y-105407000D01*
X172717000Y-105387000D01*
X172723000Y-105387000D01*
X172723000Y-105407000D01*
X173987000Y-105407000D01*
X173987000Y-105387000D01*
X173993000Y-105387000D01*
X173993000Y-105407000D01*
X175257000Y-105407000D01*
X175257000Y-105387000D01*
X175263000Y-105387000D01*
X175263000Y-109858000D01*
X171196000Y-109858000D01*
X171098347Y-109877775D01*
X171016081Y-109933985D01*
X170962166Y-110017772D01*
X170945000Y-110109000D01*
X170945000Y-111768835D01*
X170737970Y-111726273D01*
X169714243Y-112750000D01*
X170737970Y-113773727D01*
X170945000Y-113731165D01*
X170945000Y-114684000D01*
X167891000Y-114684000D01*
X167891000Y-113777970D01*
X168686273Y-113777970D01*
X168748154Y-114078971D01*
X169329946Y-114345892D01*
X169969597Y-114369852D01*
X170569727Y-114147206D01*
X170671846Y-114078971D01*
X170733727Y-113777970D01*
X169710000Y-112754243D01*
X168686273Y-113777970D01*
X167891000Y-113777970D01*
X167891000Y-113009597D01*
X168090148Y-113009597D01*
X168312794Y-113609727D01*
X168381029Y-113711846D01*
X168682030Y-113773727D01*
X169705757Y-112750000D01*
X168682030Y-111726273D01*
X168381029Y-111788154D01*
X168114108Y-112369946D01*
X168090148Y-113009597D01*
X167891000Y-113009597D01*
X167891000Y-111722030D01*
X168686273Y-111722030D01*
X169710000Y-112745757D01*
X170733727Y-111722030D01*
X170671846Y-111421029D01*
X170090054Y-111154108D01*
X169450403Y-111130148D01*
X168850273Y-111352794D01*
X168748154Y-111421029D01*
X168686273Y-111722030D01*
X167891000Y-111722030D01*
X167891000Y-105602750D01*
X170437000Y-105602750D01*
X170437000Y-106132474D01*
X170552551Y-106411439D01*
X170766061Y-106624949D01*
X171045025Y-106740500D01*
X171257250Y-106740500D01*
X171447000Y-106550750D01*
X171447000Y-105413000D01*
X171453000Y-105413000D01*
X171453000Y-106550750D01*
X171642750Y-106740500D01*
X171854975Y-106740500D01*
X172085000Y-106645220D01*
X172315025Y-106740500D01*
X172527250Y-106740500D01*
X172717000Y-106550750D01*
X172717000Y-105413000D01*
X172723000Y-105413000D01*
X172723000Y-106550750D01*
X172912750Y-106740500D01*
X173124975Y-106740500D01*
X173355000Y-106645220D01*
X173585025Y-106740500D01*
X173797250Y-106740500D01*
X173987000Y-106550750D01*
X173987000Y-105413000D01*
X173993000Y-105413000D01*
X173993000Y-106550750D01*
X174182750Y-106740500D01*
X174394975Y-106740500D01*
X174625000Y-106645220D01*
X174855025Y-106740500D01*
X175067250Y-106740500D01*
X175257000Y-106550750D01*
X175257000Y-105413000D01*
X173993000Y-105413000D01*
X173987000Y-105413000D01*
X172723000Y-105413000D01*
X172717000Y-105413000D01*
X171453000Y-105413000D01*
X171447000Y-105413000D01*
X170626750Y-105413000D01*
X170437000Y-105602750D01*
X167891000Y-105602750D01*
X167891000Y-104899000D01*
X170437000Y-104899000D01*
X170437000Y-105217250D01*
X170437000Y-105217250D01*
G37*
X170437000Y-105217250D02*
X170626750Y-105407000D01*
X171447000Y-105407000D01*
X171447000Y-105387000D01*
X171453000Y-105387000D01*
X171453000Y-105407000D01*
X172717000Y-105407000D01*
X172717000Y-105387000D01*
X172723000Y-105387000D01*
X172723000Y-105407000D01*
X173987000Y-105407000D01*
X173987000Y-105387000D01*
X173993000Y-105387000D01*
X173993000Y-105407000D01*
X175257000Y-105407000D01*
X175257000Y-105387000D01*
X175263000Y-105387000D01*
X175263000Y-109858000D01*
X171196000Y-109858000D01*
X171098347Y-109877775D01*
X171016081Y-109933985D01*
X170962166Y-110017772D01*
X170945000Y-110109000D01*
X170945000Y-111768835D01*
X170737970Y-111726273D01*
X169714243Y-112750000D01*
X170737970Y-113773727D01*
X170945000Y-113731165D01*
X170945000Y-114684000D01*
X167891000Y-114684000D01*
X167891000Y-113777970D01*
X168686273Y-113777970D01*
X168748154Y-114078971D01*
X169329946Y-114345892D01*
X169969597Y-114369852D01*
X170569727Y-114147206D01*
X170671846Y-114078971D01*
X170733727Y-113777970D01*
X169710000Y-112754243D01*
X168686273Y-113777970D01*
X167891000Y-113777970D01*
X167891000Y-113009597D01*
X168090148Y-113009597D01*
X168312794Y-113609727D01*
X168381029Y-113711846D01*
X168682030Y-113773727D01*
X169705757Y-112750000D01*
X168682030Y-111726273D01*
X168381029Y-111788154D01*
X168114108Y-112369946D01*
X168090148Y-113009597D01*
X167891000Y-113009597D01*
X167891000Y-111722030D01*
X168686273Y-111722030D01*
X169710000Y-112745757D01*
X170733727Y-111722030D01*
X170671846Y-111421029D01*
X170090054Y-111154108D01*
X169450403Y-111130148D01*
X168850273Y-111352794D01*
X168748154Y-111421029D01*
X168686273Y-111722030D01*
X167891000Y-111722030D01*
X167891000Y-105602750D01*
X170437000Y-105602750D01*
X170437000Y-106132474D01*
X170552551Y-106411439D01*
X170766061Y-106624949D01*
X171045025Y-106740500D01*
X171257250Y-106740500D01*
X171447000Y-106550750D01*
X171447000Y-105413000D01*
X171453000Y-105413000D01*
X171453000Y-106550750D01*
X171642750Y-106740500D01*
X171854975Y-106740500D01*
X172085000Y-106645220D01*
X172315025Y-106740500D01*
X172527250Y-106740500D01*
X172717000Y-106550750D01*
X172717000Y-105413000D01*
X172723000Y-105413000D01*
X172723000Y-106550750D01*
X172912750Y-106740500D01*
X173124975Y-106740500D01*
X173355000Y-106645220D01*
X173585025Y-106740500D01*
X173797250Y-106740500D01*
X173987000Y-106550750D01*
X173987000Y-105413000D01*
X173993000Y-105413000D01*
X173993000Y-106550750D01*
X174182750Y-106740500D01*
X174394975Y-106740500D01*
X174625000Y-106645220D01*
X174855025Y-106740500D01*
X175067250Y-106740500D01*
X175257000Y-106550750D01*
X175257000Y-105413000D01*
X173993000Y-105413000D01*
X173987000Y-105413000D01*
X172723000Y-105413000D01*
X172717000Y-105413000D01*
X171453000Y-105413000D01*
X171447000Y-105413000D01*
X170626750Y-105413000D01*
X170437000Y-105602750D01*
X167891000Y-105602750D01*
X167891000Y-104899000D01*
X170437000Y-104899000D01*
X170437000Y-105217250D01*
G36*
X152403000Y-105407000D02*
X153667000Y-105407000D01*
X153667000Y-105387000D01*
X153673000Y-105387000D01*
X153673000Y-105407000D01*
X154937000Y-105407000D01*
X154937000Y-105387000D01*
X154943000Y-105387000D01*
X154943000Y-105407000D01*
X156207000Y-105407000D01*
X156207000Y-105387000D01*
X156213000Y-105387000D01*
X156213000Y-110109000D01*
X156232775Y-110206653D01*
X156288985Y-110288919D01*
X156372772Y-110342834D01*
X156464000Y-110360000D01*
X158245000Y-110360000D01*
X158245000Y-111838835D01*
X158037970Y-111796273D01*
X157014243Y-112820000D01*
X158037970Y-113843727D01*
X158245000Y-113801165D01*
X158245000Y-114683954D01*
X152270000Y-114682859D01*
X152270000Y-113847970D01*
X155986273Y-113847970D01*
X156048154Y-114148971D01*
X156629946Y-114415892D01*
X157269597Y-114439852D01*
X157869727Y-114217206D01*
X157971846Y-114148971D01*
X158033727Y-113847970D01*
X157010000Y-112824243D01*
X155986273Y-113847970D01*
X152270000Y-113847970D01*
X152270000Y-113079597D01*
X155390148Y-113079597D01*
X155612794Y-113679727D01*
X155681029Y-113781846D01*
X155982030Y-113843727D01*
X157005757Y-112820000D01*
X155982030Y-111796273D01*
X155681029Y-111858154D01*
X155414108Y-112439946D01*
X155390148Y-113079597D01*
X152270000Y-113079597D01*
X152270000Y-111792030D01*
X155986273Y-111792030D01*
X157010000Y-112815757D01*
X158033727Y-111792030D01*
X157971846Y-111491029D01*
X157390054Y-111224108D01*
X156750403Y-111200148D01*
X156150273Y-111422794D01*
X156048154Y-111491029D01*
X155986273Y-111792030D01*
X152270000Y-111792030D01*
X152270000Y-106677750D01*
X152397000Y-106550750D01*
X152397000Y-105413000D01*
X152403000Y-105413000D01*
X152403000Y-106550750D01*
X152592750Y-106740500D01*
X152804975Y-106740500D01*
X153035000Y-106645220D01*
X153265025Y-106740500D01*
X153477250Y-106740500D01*
X153667000Y-106550750D01*
X153667000Y-105413000D01*
X153673000Y-105413000D01*
X153673000Y-106550750D01*
X153862750Y-106740500D01*
X154074975Y-106740500D01*
X154305000Y-106645220D01*
X154535025Y-106740500D01*
X154747250Y-106740500D01*
X154937000Y-106550750D01*
X154937000Y-105413000D01*
X154943000Y-105413000D01*
X154943000Y-106550750D01*
X155132750Y-106740500D01*
X155344975Y-106740500D01*
X155575000Y-106645220D01*
X155805025Y-106740500D01*
X156017250Y-106740500D01*
X156207000Y-106550750D01*
X156207000Y-105413000D01*
X154943000Y-105413000D01*
X154937000Y-105413000D01*
X153673000Y-105413000D01*
X153667000Y-105413000D01*
X152403000Y-105413000D01*
X152397000Y-105413000D01*
X152377000Y-105413000D01*
X152377000Y-105407000D01*
X152397000Y-105407000D01*
X152397000Y-105387000D01*
X152403000Y-105387000D01*
X152403000Y-105407000D01*
X152403000Y-105407000D01*
G37*
X152403000Y-105407000D02*
X153667000Y-105407000D01*
X153667000Y-105387000D01*
X153673000Y-105387000D01*
X153673000Y-105407000D01*
X154937000Y-105407000D01*
X154937000Y-105387000D01*
X154943000Y-105387000D01*
X154943000Y-105407000D01*
X156207000Y-105407000D01*
X156207000Y-105387000D01*
X156213000Y-105387000D01*
X156213000Y-110109000D01*
X156232775Y-110206653D01*
X156288985Y-110288919D01*
X156372772Y-110342834D01*
X156464000Y-110360000D01*
X158245000Y-110360000D01*
X158245000Y-111838835D01*
X158037970Y-111796273D01*
X157014243Y-112820000D01*
X158037970Y-113843727D01*
X158245000Y-113801165D01*
X158245000Y-114683954D01*
X152270000Y-114682859D01*
X152270000Y-113847970D01*
X155986273Y-113847970D01*
X156048154Y-114148971D01*
X156629946Y-114415892D01*
X157269597Y-114439852D01*
X157869727Y-114217206D01*
X157971846Y-114148971D01*
X158033727Y-113847970D01*
X157010000Y-112824243D01*
X155986273Y-113847970D01*
X152270000Y-113847970D01*
X152270000Y-113079597D01*
X155390148Y-113079597D01*
X155612794Y-113679727D01*
X155681029Y-113781846D01*
X155982030Y-113843727D01*
X157005757Y-112820000D01*
X155982030Y-111796273D01*
X155681029Y-111858154D01*
X155414108Y-112439946D01*
X155390148Y-113079597D01*
X152270000Y-113079597D01*
X152270000Y-111792030D01*
X155986273Y-111792030D01*
X157010000Y-112815757D01*
X158033727Y-111792030D01*
X157971846Y-111491029D01*
X157390054Y-111224108D01*
X156750403Y-111200148D01*
X156150273Y-111422794D01*
X156048154Y-111491029D01*
X155986273Y-111792030D01*
X152270000Y-111792030D01*
X152270000Y-106677750D01*
X152397000Y-106550750D01*
X152397000Y-105413000D01*
X152403000Y-105413000D01*
X152403000Y-106550750D01*
X152592750Y-106740500D01*
X152804975Y-106740500D01*
X153035000Y-106645220D01*
X153265025Y-106740500D01*
X153477250Y-106740500D01*
X153667000Y-106550750D01*
X153667000Y-105413000D01*
X153673000Y-105413000D01*
X153673000Y-106550750D01*
X153862750Y-106740500D01*
X154074975Y-106740500D01*
X154305000Y-106645220D01*
X154535025Y-106740500D01*
X154747250Y-106740500D01*
X154937000Y-106550750D01*
X154937000Y-105413000D01*
X154943000Y-105413000D01*
X154943000Y-106550750D01*
X155132750Y-106740500D01*
X155344975Y-106740500D01*
X155575000Y-106645220D01*
X155805025Y-106740500D01*
X156017250Y-106740500D01*
X156207000Y-106550750D01*
X156207000Y-105413000D01*
X154943000Y-105413000D01*
X154937000Y-105413000D01*
X153673000Y-105413000D01*
X153667000Y-105413000D01*
X152403000Y-105413000D01*
X152397000Y-105413000D01*
X152377000Y-105413000D01*
X152377000Y-105407000D01*
X152397000Y-105407000D01*
X152397000Y-105387000D01*
X152403000Y-105387000D01*
X152403000Y-105407000D01*
D39*
G36*
X162455850Y-114808000D02*
X159258000Y-114808000D01*
X159258000Y-113863958D01*
X159645647Y-113863958D01*
X159725920Y-114115259D01*
X160281279Y-114316718D01*
X160871458Y-114290315D01*
X161294080Y-114115259D01*
X161374353Y-113863958D01*
X160510000Y-112999605D01*
X159645647Y-113863958D01*
X159258000Y-113863958D01*
X159258000Y-113617898D01*
X159466042Y-113684353D01*
X160330395Y-112820000D01*
X160689605Y-112820000D01*
X161553958Y-113684353D01*
X161805259Y-113604080D01*
X162006718Y-113048721D01*
X161980315Y-112458542D01*
X161805259Y-112035920D01*
X161553958Y-111955647D01*
X160689605Y-112820000D01*
X160330395Y-112820000D01*
X159466042Y-111955647D01*
X159258000Y-112022102D01*
X159258000Y-111776042D01*
X159645647Y-111776042D01*
X160510000Y-112640395D01*
X161374353Y-111776042D01*
X161294080Y-111524741D01*
X160738721Y-111323282D01*
X160148542Y-111349685D01*
X159725920Y-111524741D01*
X159645647Y-111776042D01*
X159258000Y-111776042D01*
X159258000Y-109220000D01*
X159247994Y-109170590D01*
X159219553Y-109128965D01*
X159177159Y-109101685D01*
X159131000Y-109093000D01*
X157353000Y-109093000D01*
X157353000Y-105537000D01*
X157607000Y-105537000D01*
X157607000Y-106457750D01*
X157765750Y-106616500D01*
X157860309Y-106616500D01*
X158093698Y-106519827D01*
X158115000Y-106498525D01*
X158136302Y-106519827D01*
X158369691Y-106616500D01*
X158464250Y-106616500D01*
X158623000Y-106457750D01*
X158623000Y-105537000D01*
X158877000Y-105537000D01*
X158877000Y-106457750D01*
X159035750Y-106616500D01*
X159130309Y-106616500D01*
X159363698Y-106519827D01*
X159385000Y-106498525D01*
X159406302Y-106519827D01*
X159639691Y-106616500D01*
X159734250Y-106616500D01*
X159893000Y-106457750D01*
X159893000Y-105537000D01*
X160147000Y-105537000D01*
X160147000Y-106457750D01*
X160305750Y-106616500D01*
X160400309Y-106616500D01*
X160633698Y-106519827D01*
X160655000Y-106498525D01*
X160676302Y-106519827D01*
X160909691Y-106616500D01*
X161004250Y-106616500D01*
X161163000Y-106457750D01*
X161163000Y-105537000D01*
X161417000Y-105537000D01*
X161417000Y-106457750D01*
X161575750Y-106616500D01*
X161670309Y-106616500D01*
X161903698Y-106519827D01*
X162082327Y-106341199D01*
X162179000Y-106107810D01*
X162179000Y-105695750D01*
X162020250Y-105537000D01*
X161417000Y-105537000D01*
X161163000Y-105537000D01*
X160147000Y-105537000D01*
X159893000Y-105537000D01*
X158877000Y-105537000D01*
X158623000Y-105537000D01*
X157607000Y-105537000D01*
X157353000Y-105537000D01*
X157353000Y-105263000D01*
X157607000Y-105263000D01*
X157607000Y-105283000D01*
X158623000Y-105283000D01*
X158623000Y-105263000D01*
X158877000Y-105263000D01*
X158877000Y-105283000D01*
X159893000Y-105283000D01*
X159893000Y-105263000D01*
X160147000Y-105263000D01*
X160147000Y-105283000D01*
X161163000Y-105283000D01*
X161163000Y-105263000D01*
X161417000Y-105263000D01*
X161417000Y-105283000D01*
X162020250Y-105283000D01*
X162179000Y-105124250D01*
X162179000Y-104775000D01*
X162433285Y-104775000D01*
X162455850Y-114808000D01*
X162455850Y-114808000D01*
G37*
X162455850Y-114808000D02*
X159258000Y-114808000D01*
X159258000Y-113863958D01*
X159645647Y-113863958D01*
X159725920Y-114115259D01*
X160281279Y-114316718D01*
X160871458Y-114290315D01*
X161294080Y-114115259D01*
X161374353Y-113863958D01*
X160510000Y-112999605D01*
X159645647Y-113863958D01*
X159258000Y-113863958D01*
X159258000Y-113617898D01*
X159466042Y-113684353D01*
X160330395Y-112820000D01*
X160689605Y-112820000D01*
X161553958Y-113684353D01*
X161805259Y-113604080D01*
X162006718Y-113048721D01*
X161980315Y-112458542D01*
X161805259Y-112035920D01*
X161553958Y-111955647D01*
X160689605Y-112820000D01*
X160330395Y-112820000D01*
X159466042Y-111955647D01*
X159258000Y-112022102D01*
X159258000Y-111776042D01*
X159645647Y-111776042D01*
X160510000Y-112640395D01*
X161374353Y-111776042D01*
X161294080Y-111524741D01*
X160738721Y-111323282D01*
X160148542Y-111349685D01*
X159725920Y-111524741D01*
X159645647Y-111776042D01*
X159258000Y-111776042D01*
X159258000Y-109220000D01*
X159247994Y-109170590D01*
X159219553Y-109128965D01*
X159177159Y-109101685D01*
X159131000Y-109093000D01*
X157353000Y-109093000D01*
X157353000Y-105537000D01*
X157607000Y-105537000D01*
X157607000Y-106457750D01*
X157765750Y-106616500D01*
X157860309Y-106616500D01*
X158093698Y-106519827D01*
X158115000Y-106498525D01*
X158136302Y-106519827D01*
X158369691Y-106616500D01*
X158464250Y-106616500D01*
X158623000Y-106457750D01*
X158623000Y-105537000D01*
X158877000Y-105537000D01*
X158877000Y-106457750D01*
X159035750Y-106616500D01*
X159130309Y-106616500D01*
X159363698Y-106519827D01*
X159385000Y-106498525D01*
X159406302Y-106519827D01*
X159639691Y-106616500D01*
X159734250Y-106616500D01*
X159893000Y-106457750D01*
X159893000Y-105537000D01*
X160147000Y-105537000D01*
X160147000Y-106457750D01*
X160305750Y-106616500D01*
X160400309Y-106616500D01*
X160633698Y-106519827D01*
X160655000Y-106498525D01*
X160676302Y-106519827D01*
X160909691Y-106616500D01*
X161004250Y-106616500D01*
X161163000Y-106457750D01*
X161163000Y-105537000D01*
X161417000Y-105537000D01*
X161417000Y-106457750D01*
X161575750Y-106616500D01*
X161670309Y-106616500D01*
X161903698Y-106519827D01*
X162082327Y-106341199D01*
X162179000Y-106107810D01*
X162179000Y-105695750D01*
X162020250Y-105537000D01*
X161417000Y-105537000D01*
X161163000Y-105537000D01*
X160147000Y-105537000D01*
X159893000Y-105537000D01*
X158877000Y-105537000D01*
X158623000Y-105537000D01*
X157607000Y-105537000D01*
X157353000Y-105537000D01*
X157353000Y-105263000D01*
X157607000Y-105263000D01*
X157607000Y-105283000D01*
X158623000Y-105283000D01*
X158623000Y-105263000D01*
X158877000Y-105263000D01*
X158877000Y-105283000D01*
X159893000Y-105283000D01*
X159893000Y-105263000D01*
X160147000Y-105263000D01*
X160147000Y-105283000D01*
X161163000Y-105283000D01*
X161163000Y-105263000D01*
X161417000Y-105263000D01*
X161417000Y-105283000D01*
X162020250Y-105283000D01*
X162179000Y-105124250D01*
X162179000Y-104775000D01*
X162433285Y-104775000D01*
X162455850Y-114808000D01*
D43*
G36*
X199700363Y-86489005D02*
X199700364Y-86652100D01*
X199700363Y-86815195D01*
X199956546Y-88103116D01*
X199978108Y-88155171D01*
X200081374Y-88404478D01*
X200810923Y-89496325D01*
X201041575Y-89726977D01*
X202133422Y-90456525D01*
X202133423Y-90456526D01*
X202434784Y-90581354D01*
X203722705Y-90837537D01*
X203805045Y-90837537D01*
X203862757Y-90849017D01*
X203543852Y-91326292D01*
X203420187Y-91948000D01*
X203543852Y-92569708D01*
X203896021Y-93096766D01*
X204077460Y-93218000D01*
X203896021Y-93339234D01*
X203543852Y-93866292D01*
X203420187Y-94488000D01*
X203543852Y-95109708D01*
X203811575Y-95510383D01*
X203786061Y-95520951D01*
X203572551Y-95734461D01*
X203457000Y-96013426D01*
X203457000Y-96835250D01*
X203646750Y-97025000D01*
X205229000Y-97025000D01*
X205229000Y-97005000D01*
X205235000Y-97005000D01*
X205235000Y-97025000D01*
X205255000Y-97025000D01*
X205255000Y-97031000D01*
X205235000Y-97031000D01*
X205235000Y-98460850D01*
X205424750Y-98650600D01*
X206351800Y-98650600D01*
X206351800Y-117325222D01*
X206343449Y-117305061D01*
X206129939Y-117091551D01*
X205850975Y-116976000D01*
X205292750Y-116976000D01*
X205103000Y-117165750D01*
X205103000Y-118107000D01*
X205123000Y-118107000D01*
X205123000Y-118113000D01*
X205103000Y-118113000D01*
X205103000Y-119631000D01*
X205123000Y-119631000D01*
X205123000Y-119637000D01*
X205103000Y-119637000D01*
X205103000Y-120578250D01*
X205292750Y-120768000D01*
X205850975Y-120768000D01*
X206129939Y-120652449D01*
X206343449Y-120438939D01*
X206351800Y-120418778D01*
X206351800Y-121947600D01*
X201883788Y-121947600D01*
X201990500Y-121689975D01*
X201990500Y-121477750D01*
X201800750Y-121288000D01*
X200663000Y-121288000D01*
X200663000Y-121308000D01*
X200657000Y-121308000D01*
X200657000Y-121288000D01*
X199519250Y-121288000D01*
X199329500Y-121477750D01*
X199329500Y-121689975D01*
X199436212Y-121947600D01*
X192275000Y-121947600D01*
X192275000Y-116013499D01*
X192913021Y-116013499D01*
X193325745Y-115931403D01*
X193675636Y-115697614D01*
X193787510Y-115585740D01*
X193940066Y-115522705D01*
X194261596Y-115201736D01*
X194400751Y-114866612D01*
X195453916Y-115919777D01*
X195453802Y-116050161D01*
X195627295Y-116470046D01*
X195948264Y-116791576D01*
X196367846Y-116965801D01*
X196822161Y-116966198D01*
X197242046Y-116792705D01*
X197563576Y-116471736D01*
X197721368Y-116091730D01*
X199312592Y-117682953D01*
X199312592Y-117729000D01*
X199365656Y-118011009D01*
X199428595Y-118108820D01*
X199373723Y-118189128D01*
X199312592Y-118491000D01*
X199312592Y-118999000D01*
X199365656Y-119281009D01*
X199428595Y-119378820D01*
X199373723Y-119459128D01*
X199312592Y-119761000D01*
X199312592Y-120269000D01*
X199365656Y-120551009D01*
X199426571Y-120645675D01*
X199329500Y-120880025D01*
X199329500Y-121092250D01*
X199519250Y-121282000D01*
X200657000Y-121282000D01*
X200657000Y-121262000D01*
X200663000Y-121262000D01*
X200663000Y-121282000D01*
X201800750Y-121282000D01*
X201990500Y-121092250D01*
X201990500Y-120890300D01*
X202818995Y-120890300D01*
X202819000Y-120890301D01*
X203153963Y-120823672D01*
X203211978Y-120784908D01*
X203800000Y-120784908D01*
X204082009Y-120731844D01*
X204152394Y-120686553D01*
X204349025Y-120768000D01*
X204907250Y-120768000D01*
X205097000Y-120578250D01*
X205097000Y-119637000D01*
X205077000Y-119637000D01*
X205077000Y-119631000D01*
X205097000Y-119631000D01*
X205097000Y-118113000D01*
X205077000Y-118113000D01*
X205077000Y-118107000D01*
X205097000Y-118107000D01*
X205097000Y-117165750D01*
X204907250Y-116976000D01*
X204349025Y-116976000D01*
X204154858Y-117056427D01*
X204101872Y-117020223D01*
X203800000Y-116959092D01*
X202600000Y-116959092D01*
X202317991Y-117012156D01*
X202058982Y-117178823D01*
X202009118Y-117251802D01*
X202007408Y-117252142D01*
X202007408Y-117221000D01*
X201954344Y-116938991D01*
X201891405Y-116841180D01*
X201946277Y-116760872D01*
X202007408Y-116459000D01*
X202007408Y-115951000D01*
X201980933Y-115810300D01*
X202564995Y-115810300D01*
X202565000Y-115810301D01*
X202899963Y-115743672D01*
X203001379Y-115675908D01*
X203575000Y-115675908D01*
X203857009Y-115622844D01*
X204116018Y-115456177D01*
X204289777Y-115201872D01*
X204350908Y-114900000D01*
X204350908Y-113700000D01*
X204297844Y-113417991D01*
X204252553Y-113347606D01*
X204334000Y-113150975D01*
X204334000Y-112592750D01*
X204144250Y-112403000D01*
X203203000Y-112403000D01*
X203203000Y-112423000D01*
X203197000Y-112423000D01*
X203197000Y-112403000D01*
X202255750Y-112403000D01*
X202066000Y-112592750D01*
X202066000Y-113150975D01*
X202146427Y-113345142D01*
X202110223Y-113398128D01*
X202049092Y-113700000D01*
X202049092Y-114059700D01*
X201978915Y-114059700D01*
X202007408Y-113919000D01*
X202007408Y-113411000D01*
X201954344Y-113128991D01*
X201893429Y-113034325D01*
X201990500Y-112799975D01*
X201990500Y-112587750D01*
X201800750Y-112398000D01*
X200663000Y-112398000D01*
X200663000Y-112418000D01*
X200657000Y-112418000D01*
X200657000Y-112398000D01*
X199519250Y-112398000D01*
X199329500Y-112587750D01*
X199329500Y-112799975D01*
X199425915Y-113032742D01*
X199373723Y-113109128D01*
X199312592Y-113411000D01*
X199312592Y-113824523D01*
X199237154Y-113793199D01*
X199160399Y-113793132D01*
X199160399Y-111990025D01*
X199329500Y-111990025D01*
X199329500Y-112202250D01*
X199519250Y-112392000D01*
X200657000Y-112392000D01*
X200657000Y-111571750D01*
X200663000Y-111571750D01*
X200663000Y-112392000D01*
X201800750Y-112392000D01*
X201990500Y-112202250D01*
X201990500Y-111990025D01*
X201874949Y-111711061D01*
X201812913Y-111649025D01*
X202066000Y-111649025D01*
X202066000Y-112207250D01*
X202255750Y-112397000D01*
X203197000Y-112397000D01*
X203197000Y-111230750D01*
X203203000Y-111230750D01*
X203203000Y-112397000D01*
X204144250Y-112397000D01*
X204334000Y-112207250D01*
X204334000Y-111649025D01*
X204218449Y-111370061D01*
X204004939Y-111156551D01*
X203725974Y-111041000D01*
X203392750Y-111041000D01*
X203203000Y-111230750D01*
X203197000Y-111230750D01*
X203007250Y-111041000D01*
X202674026Y-111041000D01*
X202395061Y-111156551D01*
X202181551Y-111370061D01*
X202066000Y-111649025D01*
X201812913Y-111649025D01*
X201661439Y-111497551D01*
X201382474Y-111382000D01*
X200852750Y-111382000D01*
X200663000Y-111571750D01*
X200657000Y-111571750D01*
X200467250Y-111382000D01*
X199937526Y-111382000D01*
X199658561Y-111497551D01*
X199445051Y-111711061D01*
X199329500Y-111990025D01*
X199160399Y-111990025D01*
X199160399Y-111163699D01*
X199093771Y-110828736D01*
X198904030Y-110544768D01*
X198904027Y-110544766D01*
X198805169Y-110445908D01*
X199820000Y-110445908D01*
X200102009Y-110392844D01*
X200361018Y-110226177D01*
X200450442Y-110095300D01*
X200699361Y-110095300D01*
X200773823Y-110211018D01*
X201028128Y-110384777D01*
X201330000Y-110445908D01*
X202530000Y-110445908D01*
X202812009Y-110392844D01*
X203035588Y-110248976D01*
X203100061Y-110313449D01*
X203379025Y-110429000D01*
X203937250Y-110429000D01*
X204127000Y-110239250D01*
X204127000Y-109223000D01*
X204133000Y-109223000D01*
X204133000Y-110239250D01*
X204322750Y-110429000D01*
X204880975Y-110429000D01*
X205159939Y-110313449D01*
X205373449Y-110099939D01*
X205489000Y-109820974D01*
X205489000Y-109412750D01*
X205299250Y-109223000D01*
X204133000Y-109223000D01*
X204127000Y-109223000D01*
X204107000Y-109223000D01*
X204107000Y-109217000D01*
X204127000Y-109217000D01*
X204127000Y-108200750D01*
X204133000Y-108200750D01*
X204133000Y-109217000D01*
X205299250Y-109217000D01*
X205489000Y-109027250D01*
X205489000Y-108619026D01*
X205373449Y-108340061D01*
X205159939Y-108126551D01*
X204880975Y-108011000D01*
X204322750Y-108011000D01*
X204133000Y-108200750D01*
X204127000Y-108200750D01*
X203937250Y-108011000D01*
X203379025Y-108011000D01*
X203100061Y-108126551D01*
X203033573Y-108193039D01*
X202831872Y-108055223D01*
X202530000Y-107994092D01*
X201330000Y-107994092D01*
X201047991Y-108047156D01*
X200788982Y-108213823D01*
X200699558Y-108344700D01*
X200450639Y-108344700D01*
X200376177Y-108228982D01*
X200121872Y-108055223D01*
X199820000Y-107994092D01*
X199081953Y-107994092D01*
X192415300Y-101327438D01*
X192415300Y-97220750D01*
X203457000Y-97220750D01*
X203457000Y-98042574D01*
X203572551Y-98321539D01*
X203786061Y-98535049D01*
X204065025Y-98650600D01*
X205039250Y-98650600D01*
X205229000Y-98460850D01*
X205229000Y-97031000D01*
X203646750Y-97031000D01*
X203457000Y-97220750D01*
X192415300Y-97220750D01*
X192415300Y-96485908D01*
X192665000Y-96485908D01*
X192794589Y-96461524D01*
X192915000Y-96485908D01*
X193165000Y-96485908D01*
X193294589Y-96461524D01*
X193415000Y-96485908D01*
X193665000Y-96485908D01*
X193794589Y-96461524D01*
X193915000Y-96485908D01*
X194165000Y-96485908D01*
X194261162Y-96467814D01*
X194264026Y-96469000D01*
X194347250Y-96469000D01*
X194368664Y-96447586D01*
X194447009Y-96432844D01*
X194538640Y-96373881D01*
X194613128Y-96424777D01*
X194707673Y-96443923D01*
X194732750Y-96469000D01*
X194815974Y-96469000D01*
X194821074Y-96466887D01*
X194915000Y-96485908D01*
X195165000Y-96485908D01*
X195447009Y-96432844D01*
X195706018Y-96266177D01*
X195879777Y-96011872D01*
X195940908Y-95710000D01*
X195940908Y-94410000D01*
X195929360Y-94348628D01*
X195990000Y-94360908D01*
X197290000Y-94360908D01*
X197572009Y-94307844D01*
X197831018Y-94141177D01*
X198004777Y-93886872D01*
X198065908Y-93585000D01*
X198065908Y-93335000D01*
X198041524Y-93205411D01*
X198065908Y-93085000D01*
X198065908Y-92835000D01*
X198041524Y-92705411D01*
X198065908Y-92585000D01*
X198065908Y-92335000D01*
X198041524Y-92205411D01*
X198065908Y-92085000D01*
X198065908Y-91835000D01*
X198041524Y-91705411D01*
X198065908Y-91585000D01*
X198065908Y-91335000D01*
X198041524Y-91205411D01*
X198065908Y-91085000D01*
X198065908Y-90835000D01*
X198048999Y-90745138D01*
X198297746Y-90578931D01*
X198737483Y-90139194D01*
X198927224Y-89855226D01*
X198993853Y-89520263D01*
X198993852Y-89520258D01*
X198993852Y-87487286D01*
X198927224Y-87152323D01*
X198747370Y-86883151D01*
X199815360Y-85815160D01*
X199815363Y-85815158D01*
X199842468Y-85774592D01*
X199700363Y-86489005D01*
X199700363Y-86489005D01*
G37*
X199700363Y-86489005D02*
X199700364Y-86652100D01*
X199700363Y-86815195D01*
X199956546Y-88103116D01*
X199978108Y-88155171D01*
X200081374Y-88404478D01*
X200810923Y-89496325D01*
X201041575Y-89726977D01*
X202133422Y-90456525D01*
X202133423Y-90456526D01*
X202434784Y-90581354D01*
X203722705Y-90837537D01*
X203805045Y-90837537D01*
X203862757Y-90849017D01*
X203543852Y-91326292D01*
X203420187Y-91948000D01*
X203543852Y-92569708D01*
X203896021Y-93096766D01*
X204077460Y-93218000D01*
X203896021Y-93339234D01*
X203543852Y-93866292D01*
X203420187Y-94488000D01*
X203543852Y-95109708D01*
X203811575Y-95510383D01*
X203786061Y-95520951D01*
X203572551Y-95734461D01*
X203457000Y-96013426D01*
X203457000Y-96835250D01*
X203646750Y-97025000D01*
X205229000Y-97025000D01*
X205229000Y-97005000D01*
X205235000Y-97005000D01*
X205235000Y-97025000D01*
X205255000Y-97025000D01*
X205255000Y-97031000D01*
X205235000Y-97031000D01*
X205235000Y-98460850D01*
X205424750Y-98650600D01*
X206351800Y-98650600D01*
X206351800Y-117325222D01*
X206343449Y-117305061D01*
X206129939Y-117091551D01*
X205850975Y-116976000D01*
X205292750Y-116976000D01*
X205103000Y-117165750D01*
X205103000Y-118107000D01*
X205123000Y-118107000D01*
X205123000Y-118113000D01*
X205103000Y-118113000D01*
X205103000Y-119631000D01*
X205123000Y-119631000D01*
X205123000Y-119637000D01*
X205103000Y-119637000D01*
X205103000Y-120578250D01*
X205292750Y-120768000D01*
X205850975Y-120768000D01*
X206129939Y-120652449D01*
X206343449Y-120438939D01*
X206351800Y-120418778D01*
X206351800Y-121947600D01*
X201883788Y-121947600D01*
X201990500Y-121689975D01*
X201990500Y-121477750D01*
X201800750Y-121288000D01*
X200663000Y-121288000D01*
X200663000Y-121308000D01*
X200657000Y-121308000D01*
X200657000Y-121288000D01*
X199519250Y-121288000D01*
X199329500Y-121477750D01*
X199329500Y-121689975D01*
X199436212Y-121947600D01*
X192275000Y-121947600D01*
X192275000Y-116013499D01*
X192913021Y-116013499D01*
X193325745Y-115931403D01*
X193675636Y-115697614D01*
X193787510Y-115585740D01*
X193940066Y-115522705D01*
X194261596Y-115201736D01*
X194400751Y-114866612D01*
X195453916Y-115919777D01*
X195453802Y-116050161D01*
X195627295Y-116470046D01*
X195948264Y-116791576D01*
X196367846Y-116965801D01*
X196822161Y-116966198D01*
X197242046Y-116792705D01*
X197563576Y-116471736D01*
X197721368Y-116091730D01*
X199312592Y-117682953D01*
X199312592Y-117729000D01*
X199365656Y-118011009D01*
X199428595Y-118108820D01*
X199373723Y-118189128D01*
X199312592Y-118491000D01*
X199312592Y-118999000D01*
X199365656Y-119281009D01*
X199428595Y-119378820D01*
X199373723Y-119459128D01*
X199312592Y-119761000D01*
X199312592Y-120269000D01*
X199365656Y-120551009D01*
X199426571Y-120645675D01*
X199329500Y-120880025D01*
X199329500Y-121092250D01*
X199519250Y-121282000D01*
X200657000Y-121282000D01*
X200657000Y-121262000D01*
X200663000Y-121262000D01*
X200663000Y-121282000D01*
X201800750Y-121282000D01*
X201990500Y-121092250D01*
X201990500Y-120890300D01*
X202818995Y-120890300D01*
X202819000Y-120890301D01*
X203153963Y-120823672D01*
X203211978Y-120784908D01*
X203800000Y-120784908D01*
X204082009Y-120731844D01*
X204152394Y-120686553D01*
X204349025Y-120768000D01*
X204907250Y-120768000D01*
X205097000Y-120578250D01*
X205097000Y-119637000D01*
X205077000Y-119637000D01*
X205077000Y-119631000D01*
X205097000Y-119631000D01*
X205097000Y-118113000D01*
X205077000Y-118113000D01*
X205077000Y-118107000D01*
X205097000Y-118107000D01*
X205097000Y-117165750D01*
X204907250Y-116976000D01*
X204349025Y-116976000D01*
X204154858Y-117056427D01*
X204101872Y-117020223D01*
X203800000Y-116959092D01*
X202600000Y-116959092D01*
X202317991Y-117012156D01*
X202058982Y-117178823D01*
X202009118Y-117251802D01*
X202007408Y-117252142D01*
X202007408Y-117221000D01*
X201954344Y-116938991D01*
X201891405Y-116841180D01*
X201946277Y-116760872D01*
X202007408Y-116459000D01*
X202007408Y-115951000D01*
X201980933Y-115810300D01*
X202564995Y-115810300D01*
X202565000Y-115810301D01*
X202899963Y-115743672D01*
X203001379Y-115675908D01*
X203575000Y-115675908D01*
X203857009Y-115622844D01*
X204116018Y-115456177D01*
X204289777Y-115201872D01*
X204350908Y-114900000D01*
X204350908Y-113700000D01*
X204297844Y-113417991D01*
X204252553Y-113347606D01*
X204334000Y-113150975D01*
X204334000Y-112592750D01*
X204144250Y-112403000D01*
X203203000Y-112403000D01*
X203203000Y-112423000D01*
X203197000Y-112423000D01*
X203197000Y-112403000D01*
X202255750Y-112403000D01*
X202066000Y-112592750D01*
X202066000Y-113150975D01*
X202146427Y-113345142D01*
X202110223Y-113398128D01*
X202049092Y-113700000D01*
X202049092Y-114059700D01*
X201978915Y-114059700D01*
X202007408Y-113919000D01*
X202007408Y-113411000D01*
X201954344Y-113128991D01*
X201893429Y-113034325D01*
X201990500Y-112799975D01*
X201990500Y-112587750D01*
X201800750Y-112398000D01*
X200663000Y-112398000D01*
X200663000Y-112418000D01*
X200657000Y-112418000D01*
X200657000Y-112398000D01*
X199519250Y-112398000D01*
X199329500Y-112587750D01*
X199329500Y-112799975D01*
X199425915Y-113032742D01*
X199373723Y-113109128D01*
X199312592Y-113411000D01*
X199312592Y-113824523D01*
X199237154Y-113793199D01*
X199160399Y-113793132D01*
X199160399Y-111990025D01*
X199329500Y-111990025D01*
X199329500Y-112202250D01*
X199519250Y-112392000D01*
X200657000Y-112392000D01*
X200657000Y-111571750D01*
X200663000Y-111571750D01*
X200663000Y-112392000D01*
X201800750Y-112392000D01*
X201990500Y-112202250D01*
X201990500Y-111990025D01*
X201874949Y-111711061D01*
X201812913Y-111649025D01*
X202066000Y-111649025D01*
X202066000Y-112207250D01*
X202255750Y-112397000D01*
X203197000Y-112397000D01*
X203197000Y-111230750D01*
X203203000Y-111230750D01*
X203203000Y-112397000D01*
X204144250Y-112397000D01*
X204334000Y-112207250D01*
X204334000Y-111649025D01*
X204218449Y-111370061D01*
X204004939Y-111156551D01*
X203725974Y-111041000D01*
X203392750Y-111041000D01*
X203203000Y-111230750D01*
X203197000Y-111230750D01*
X203007250Y-111041000D01*
X202674026Y-111041000D01*
X202395061Y-111156551D01*
X202181551Y-111370061D01*
X202066000Y-111649025D01*
X201812913Y-111649025D01*
X201661439Y-111497551D01*
X201382474Y-111382000D01*
X200852750Y-111382000D01*
X200663000Y-111571750D01*
X200657000Y-111571750D01*
X200467250Y-111382000D01*
X199937526Y-111382000D01*
X199658561Y-111497551D01*
X199445051Y-111711061D01*
X199329500Y-111990025D01*
X199160399Y-111990025D01*
X199160399Y-111163699D01*
X199093771Y-110828736D01*
X198904030Y-110544768D01*
X198904027Y-110544766D01*
X198805169Y-110445908D01*
X199820000Y-110445908D01*
X200102009Y-110392844D01*
X200361018Y-110226177D01*
X200450442Y-110095300D01*
X200699361Y-110095300D01*
X200773823Y-110211018D01*
X201028128Y-110384777D01*
X201330000Y-110445908D01*
X202530000Y-110445908D01*
X202812009Y-110392844D01*
X203035588Y-110248976D01*
X203100061Y-110313449D01*
X203379025Y-110429000D01*
X203937250Y-110429000D01*
X204127000Y-110239250D01*
X204127000Y-109223000D01*
X204133000Y-109223000D01*
X204133000Y-110239250D01*
X204322750Y-110429000D01*
X204880975Y-110429000D01*
X205159939Y-110313449D01*
X205373449Y-110099939D01*
X205489000Y-109820974D01*
X205489000Y-109412750D01*
X205299250Y-109223000D01*
X204133000Y-109223000D01*
X204127000Y-109223000D01*
X204107000Y-109223000D01*
X204107000Y-109217000D01*
X204127000Y-109217000D01*
X204127000Y-108200750D01*
X204133000Y-108200750D01*
X204133000Y-109217000D01*
X205299250Y-109217000D01*
X205489000Y-109027250D01*
X205489000Y-108619026D01*
X205373449Y-108340061D01*
X205159939Y-108126551D01*
X204880975Y-108011000D01*
X204322750Y-108011000D01*
X204133000Y-108200750D01*
X204127000Y-108200750D01*
X203937250Y-108011000D01*
X203379025Y-108011000D01*
X203100061Y-108126551D01*
X203033573Y-108193039D01*
X202831872Y-108055223D01*
X202530000Y-107994092D01*
X201330000Y-107994092D01*
X201047991Y-108047156D01*
X200788982Y-108213823D01*
X200699558Y-108344700D01*
X200450639Y-108344700D01*
X200376177Y-108228982D01*
X200121872Y-108055223D01*
X199820000Y-107994092D01*
X199081953Y-107994092D01*
X192415300Y-101327438D01*
X192415300Y-97220750D01*
X203457000Y-97220750D01*
X203457000Y-98042574D01*
X203572551Y-98321539D01*
X203786061Y-98535049D01*
X204065025Y-98650600D01*
X205039250Y-98650600D01*
X205229000Y-98460850D01*
X205229000Y-97031000D01*
X203646750Y-97031000D01*
X203457000Y-97220750D01*
X192415300Y-97220750D01*
X192415300Y-96485908D01*
X192665000Y-96485908D01*
X192794589Y-96461524D01*
X192915000Y-96485908D01*
X193165000Y-96485908D01*
X193294589Y-96461524D01*
X193415000Y-96485908D01*
X193665000Y-96485908D01*
X193794589Y-96461524D01*
X193915000Y-96485908D01*
X194165000Y-96485908D01*
X194261162Y-96467814D01*
X194264026Y-96469000D01*
X194347250Y-96469000D01*
X194368664Y-96447586D01*
X194447009Y-96432844D01*
X194538640Y-96373881D01*
X194613128Y-96424777D01*
X194707673Y-96443923D01*
X194732750Y-96469000D01*
X194815974Y-96469000D01*
X194821074Y-96466887D01*
X194915000Y-96485908D01*
X195165000Y-96485908D01*
X195447009Y-96432844D01*
X195706018Y-96266177D01*
X195879777Y-96011872D01*
X195940908Y-95710000D01*
X195940908Y-94410000D01*
X195929360Y-94348628D01*
X195990000Y-94360908D01*
X197290000Y-94360908D01*
X197572009Y-94307844D01*
X197831018Y-94141177D01*
X198004777Y-93886872D01*
X198065908Y-93585000D01*
X198065908Y-93335000D01*
X198041524Y-93205411D01*
X198065908Y-93085000D01*
X198065908Y-92835000D01*
X198041524Y-92705411D01*
X198065908Y-92585000D01*
X198065908Y-92335000D01*
X198041524Y-92205411D01*
X198065908Y-92085000D01*
X198065908Y-91835000D01*
X198041524Y-91705411D01*
X198065908Y-91585000D01*
X198065908Y-91335000D01*
X198041524Y-91205411D01*
X198065908Y-91085000D01*
X198065908Y-90835000D01*
X198048999Y-90745138D01*
X198297746Y-90578931D01*
X198737483Y-90139194D01*
X198927224Y-89855226D01*
X198993853Y-89520263D01*
X198993852Y-89520258D01*
X198993852Y-87487286D01*
X198927224Y-87152323D01*
X198747370Y-86883151D01*
X199815360Y-85815160D01*
X199815363Y-85815158D01*
X199842468Y-85774592D01*
X199700363Y-86489005D01*
G36*
X185365623Y-98148528D02*
X185304492Y-98450400D01*
X185304492Y-98647212D01*
X185232869Y-98695069D01*
X185232867Y-98695072D01*
X184547069Y-99380869D01*
X184357328Y-99664837D01*
X184290699Y-99999800D01*
X184290700Y-99999805D01*
X184290700Y-103777439D01*
X184082194Y-103985944D01*
X183899250Y-103803000D01*
X182883000Y-103803000D01*
X182883000Y-104969250D01*
X182990944Y-105077194D01*
X182896069Y-105172069D01*
X182706328Y-105456037D01*
X182639699Y-105791000D01*
X182639700Y-105791005D01*
X182639700Y-105813149D01*
X182547424Y-105905264D01*
X182373199Y-106324846D01*
X182372886Y-106683000D01*
X181861000Y-106683000D01*
X181861000Y-104904388D01*
X182000061Y-105043449D01*
X182279026Y-105159000D01*
X182687250Y-105159000D01*
X182877000Y-104969250D01*
X182877000Y-103803000D01*
X182857000Y-103803000D01*
X182857000Y-103797000D01*
X182877000Y-103797000D01*
X182877000Y-103777000D01*
X182883000Y-103777000D01*
X182883000Y-103797000D01*
X183899250Y-103797000D01*
X184089000Y-103607250D01*
X184089000Y-103049025D01*
X183973449Y-102770061D01*
X183906961Y-102703573D01*
X184044777Y-102501872D01*
X184105908Y-102200000D01*
X184105908Y-101000000D01*
X184052844Y-100717991D01*
X183886177Y-100458982D01*
X183831500Y-100421623D01*
X183831500Y-100241606D01*
X183871018Y-100216177D01*
X184044777Y-99961872D01*
X184105908Y-99660000D01*
X184105908Y-98921954D01*
X185124562Y-97903300D01*
X185533180Y-97903300D01*
X185365623Y-98148528D01*
X185365623Y-98148528D01*
G37*
X185365623Y-98148528D02*
X185304492Y-98450400D01*
X185304492Y-98647212D01*
X185232869Y-98695069D01*
X185232867Y-98695072D01*
X184547069Y-99380869D01*
X184357328Y-99664837D01*
X184290699Y-99999800D01*
X184290700Y-99999805D01*
X184290700Y-103777439D01*
X184082194Y-103985944D01*
X183899250Y-103803000D01*
X182883000Y-103803000D01*
X182883000Y-104969250D01*
X182990944Y-105077194D01*
X182896069Y-105172069D01*
X182706328Y-105456037D01*
X182639699Y-105791000D01*
X182639700Y-105791005D01*
X182639700Y-105813149D01*
X182547424Y-105905264D01*
X182373199Y-106324846D01*
X182372886Y-106683000D01*
X181861000Y-106683000D01*
X181861000Y-104904388D01*
X182000061Y-105043449D01*
X182279026Y-105159000D01*
X182687250Y-105159000D01*
X182877000Y-104969250D01*
X182877000Y-103803000D01*
X182857000Y-103803000D01*
X182857000Y-103797000D01*
X182877000Y-103797000D01*
X182877000Y-103777000D01*
X182883000Y-103777000D01*
X182883000Y-103797000D01*
X183899250Y-103797000D01*
X184089000Y-103607250D01*
X184089000Y-103049025D01*
X183973449Y-102770061D01*
X183906961Y-102703573D01*
X184044777Y-102501872D01*
X184105908Y-102200000D01*
X184105908Y-101000000D01*
X184052844Y-100717991D01*
X183886177Y-100458982D01*
X183831500Y-100421623D01*
X183831500Y-100241606D01*
X183871018Y-100216177D01*
X184044777Y-99961872D01*
X184105908Y-99660000D01*
X184105908Y-98921954D01*
X185124562Y-97903300D01*
X185533180Y-97903300D01*
X185365623Y-98148528D01*
G36*
X168243301Y-96706358D02*
X168251795Y-96749058D01*
X168366274Y-96920388D01*
X168436030Y-97024785D01*
X169738726Y-98327481D01*
X170014453Y-98511716D01*
X170339696Y-98576411D01*
X174370989Y-98576411D01*
X174696232Y-98511716D01*
X174971959Y-98327481D01*
X176289789Y-97009651D01*
X176673067Y-97392928D01*
X176673069Y-97392931D01*
X176817338Y-97489328D01*
X176957037Y-97582672D01*
X177292000Y-97649301D01*
X177292005Y-97649300D01*
X181689711Y-97649300D01*
X181707156Y-97742009D01*
X181848966Y-97962389D01*
X181715223Y-98158128D01*
X181654092Y-98460000D01*
X181654092Y-99660000D01*
X181707156Y-99942009D01*
X181873823Y-100201018D01*
X181928500Y-100238377D01*
X181928500Y-100418394D01*
X181888982Y-100443823D01*
X181715223Y-100698128D01*
X181654092Y-101000000D01*
X181654092Y-102200000D01*
X181707156Y-102482009D01*
X181851024Y-102705588D01*
X181786551Y-102770061D01*
X181671000Y-103049025D01*
X181671000Y-103138478D01*
X181610000Y-103127000D01*
X174878000Y-103127000D01*
X174878000Y-101407919D01*
X175031846Y-101471801D01*
X175486161Y-101472198D01*
X175906046Y-101298705D01*
X176227576Y-100977736D01*
X176401801Y-100558154D01*
X176402198Y-100103839D01*
X176228705Y-99683954D01*
X175907736Y-99362424D01*
X175488154Y-99188199D01*
X175033839Y-99187802D01*
X174613954Y-99361295D01*
X174533108Y-99442000D01*
X174371000Y-99442000D01*
X174031177Y-99509595D01*
X173743089Y-99702089D01*
X173362089Y-100083089D01*
X173169595Y-100371177D01*
X173102000Y-100711000D01*
X173102000Y-103127000D01*
X165997354Y-103127000D01*
X166114801Y-102844154D01*
X166115198Y-102389839D01*
X165941705Y-101969954D01*
X165620736Y-101648424D01*
X165201154Y-101474199D01*
X165055908Y-101474072D01*
X165055908Y-101000000D01*
X165002844Y-100717991D01*
X164836177Y-100458982D01*
X164705300Y-100369558D01*
X164705300Y-100204639D01*
X164821018Y-100130177D01*
X164994777Y-99875872D01*
X165040267Y-99651239D01*
X165127531Y-99592931D01*
X168128802Y-96591659D01*
X168243301Y-96706358D01*
X168243301Y-96706358D01*
G37*
X168243301Y-96706358D02*
X168251795Y-96749058D01*
X168366274Y-96920388D01*
X168436030Y-97024785D01*
X169738726Y-98327481D01*
X170014453Y-98511716D01*
X170339696Y-98576411D01*
X174370989Y-98576411D01*
X174696232Y-98511716D01*
X174971959Y-98327481D01*
X176289789Y-97009651D01*
X176673067Y-97392928D01*
X176673069Y-97392931D01*
X176817338Y-97489328D01*
X176957037Y-97582672D01*
X177292000Y-97649301D01*
X177292005Y-97649300D01*
X181689711Y-97649300D01*
X181707156Y-97742009D01*
X181848966Y-97962389D01*
X181715223Y-98158128D01*
X181654092Y-98460000D01*
X181654092Y-99660000D01*
X181707156Y-99942009D01*
X181873823Y-100201018D01*
X181928500Y-100238377D01*
X181928500Y-100418394D01*
X181888982Y-100443823D01*
X181715223Y-100698128D01*
X181654092Y-101000000D01*
X181654092Y-102200000D01*
X181707156Y-102482009D01*
X181851024Y-102705588D01*
X181786551Y-102770061D01*
X181671000Y-103049025D01*
X181671000Y-103138478D01*
X181610000Y-103127000D01*
X174878000Y-103127000D01*
X174878000Y-101407919D01*
X175031846Y-101471801D01*
X175486161Y-101472198D01*
X175906046Y-101298705D01*
X176227576Y-100977736D01*
X176401801Y-100558154D01*
X176402198Y-100103839D01*
X176228705Y-99683954D01*
X175907736Y-99362424D01*
X175488154Y-99188199D01*
X175033839Y-99187802D01*
X174613954Y-99361295D01*
X174533108Y-99442000D01*
X174371000Y-99442000D01*
X174031177Y-99509595D01*
X173743089Y-99702089D01*
X173362089Y-100083089D01*
X173169595Y-100371177D01*
X173102000Y-100711000D01*
X173102000Y-103127000D01*
X165997354Y-103127000D01*
X166114801Y-102844154D01*
X166115198Y-102389839D01*
X165941705Y-101969954D01*
X165620736Y-101648424D01*
X165201154Y-101474199D01*
X165055908Y-101474072D01*
X165055908Y-101000000D01*
X165002844Y-100717991D01*
X164836177Y-100458982D01*
X164705300Y-100369558D01*
X164705300Y-100204639D01*
X164821018Y-100130177D01*
X164994777Y-99875872D01*
X165040267Y-99651239D01*
X165127531Y-99592931D01*
X168128802Y-96591659D01*
X168243301Y-96706358D01*
G36*
X164848823Y-86766018D02*
X165103128Y-86939777D01*
X165405000Y-87000908D01*
X166402118Y-87000908D01*
X166404030Y-87003770D01*
X167123230Y-87722970D01*
X167398957Y-87907205D01*
X167724200Y-87971900D01*
X179457530Y-87971900D01*
X179934722Y-88449092D01*
X177285000Y-88449092D01*
X177002991Y-88502156D01*
X176743982Y-88668823D01*
X176603039Y-88875100D01*
X174364158Y-88875100D01*
X174241177Y-88683982D01*
X173986872Y-88510223D01*
X173685000Y-88449092D01*
X170485000Y-88449092D01*
X170202991Y-88502156D01*
X169943982Y-88668823D01*
X169770223Y-88923128D01*
X169709092Y-89225000D01*
X169709092Y-90225000D01*
X169762156Y-90507009D01*
X169928823Y-90766018D01*
X170183128Y-90939777D01*
X170485000Y-91000908D01*
X170942851Y-91000908D01*
X170942802Y-91056541D01*
X171116295Y-91476426D01*
X171437264Y-91797956D01*
X171856846Y-91972181D01*
X172311161Y-91972578D01*
X172731046Y-91799085D01*
X173052576Y-91478116D01*
X173226801Y-91058534D01*
X173226851Y-91000908D01*
X173685000Y-91000908D01*
X173967009Y-90947844D01*
X174226018Y-90781177D01*
X174366961Y-90574900D01*
X175231938Y-90574900D01*
X174867954Y-90725295D01*
X174684973Y-90907956D01*
X174680757Y-90908795D01*
X174475020Y-91046264D01*
X174405030Y-91093030D01*
X173383960Y-92114100D01*
X169545000Y-92114100D01*
X169219758Y-92178794D01*
X168944030Y-92363030D01*
X168596002Y-92711058D01*
X168302839Y-92710802D01*
X167882954Y-92884295D01*
X167561424Y-93205264D01*
X167387199Y-93624846D01*
X167386941Y-93920119D01*
X165055908Y-96251152D01*
X165055908Y-96174000D01*
X165002844Y-95891991D01*
X164836177Y-95632982D01*
X164581872Y-95459223D01*
X164280000Y-95398092D01*
X163380000Y-95398092D01*
X163097991Y-95451156D01*
X162838982Y-95617823D01*
X162665223Y-95872128D01*
X162659842Y-95898700D01*
X162303000Y-95898700D01*
X162303000Y-95442750D01*
X162113250Y-95253000D01*
X161293000Y-95253000D01*
X161293000Y-95273000D01*
X161287000Y-95273000D01*
X161287000Y-95253000D01*
X161267000Y-95253000D01*
X161267000Y-95247000D01*
X161287000Y-95247000D01*
X161287000Y-94109250D01*
X161293000Y-94109250D01*
X161293000Y-95247000D01*
X162113250Y-95247000D01*
X162303000Y-95057250D01*
X162303000Y-94527526D01*
X162187449Y-94248561D01*
X161973939Y-94035051D01*
X161694975Y-93919500D01*
X161482750Y-93919500D01*
X161293000Y-94109250D01*
X161287000Y-94109250D01*
X161161997Y-93984247D01*
X161162198Y-93753839D01*
X160988705Y-93333954D01*
X160667736Y-93012424D01*
X160248154Y-92838199D01*
X159793839Y-92837802D01*
X159384511Y-93006933D01*
X158978154Y-92838199D01*
X158523839Y-92837802D01*
X158329900Y-92917936D01*
X158329900Y-92534376D01*
X158634046Y-92408705D01*
X158955576Y-92087736D01*
X159129801Y-91668154D01*
X159130198Y-91213839D01*
X159035230Y-90984000D01*
X160012250Y-90984000D01*
X160202000Y-90794250D01*
X160202000Y-89728000D01*
X160208000Y-89728000D01*
X160208000Y-90794250D01*
X160397750Y-90984000D01*
X161955975Y-90984000D01*
X162234939Y-90868449D01*
X162448449Y-90654939D01*
X162564000Y-90375974D01*
X162564000Y-89917750D01*
X164646000Y-89917750D01*
X164646000Y-90375974D01*
X164761551Y-90654939D01*
X164975061Y-90868449D01*
X165254025Y-90984000D01*
X166812250Y-90984000D01*
X167002000Y-90794250D01*
X167002000Y-89728000D01*
X167008000Y-89728000D01*
X167008000Y-90794250D01*
X167197750Y-90984000D01*
X168755975Y-90984000D01*
X169034939Y-90868449D01*
X169248449Y-90654939D01*
X169364000Y-90375974D01*
X169364000Y-89917750D01*
X169174250Y-89728000D01*
X167008000Y-89728000D01*
X167002000Y-89728000D01*
X164835750Y-89728000D01*
X164646000Y-89917750D01*
X162564000Y-89917750D01*
X162374250Y-89728000D01*
X160208000Y-89728000D01*
X160202000Y-89728000D01*
X158035750Y-89728000D01*
X157846000Y-89917750D01*
X157846000Y-90297876D01*
X157761839Y-90297802D01*
X157341954Y-90471295D01*
X157020424Y-90792264D01*
X156846199Y-91211846D01*
X156846038Y-91396406D01*
X156694795Y-91622757D01*
X156630100Y-91948000D01*
X156630100Y-93936228D01*
X156464000Y-93902592D01*
X155956000Y-93902592D01*
X155673991Y-93955656D01*
X155576180Y-94018595D01*
X155495872Y-93963723D01*
X155194000Y-93902592D01*
X154686000Y-93902592D01*
X154403991Y-93955656D01*
X154306180Y-94018595D01*
X154225872Y-93963723D01*
X153924000Y-93902592D01*
X153416000Y-93902592D01*
X153133991Y-93955656D01*
X153039325Y-94016571D01*
X152804975Y-93919500D01*
X152592750Y-93919500D01*
X152403000Y-94109250D01*
X152403000Y-95247000D01*
X152423000Y-95247000D01*
X152423000Y-95253000D01*
X152403000Y-95253000D01*
X152403000Y-96390750D01*
X152592750Y-96580500D01*
X152804975Y-96580500D01*
X153037742Y-96484085D01*
X153114128Y-96536277D01*
X153416000Y-96597408D01*
X153924000Y-96597408D01*
X154064700Y-96570933D01*
X154064700Y-96773995D01*
X154064699Y-96774000D01*
X154131328Y-97108963D01*
X154184575Y-97188653D01*
X154340671Y-97566434D01*
X154661640Y-97887964D01*
X155081222Y-98062189D01*
X155535537Y-98062586D01*
X155588259Y-98040802D01*
X155576199Y-98069846D01*
X155575802Y-98524161D01*
X155749295Y-98944046D01*
X156027146Y-99222383D01*
X155690954Y-99361295D01*
X155369424Y-99682264D01*
X155195199Y-100101846D01*
X155195178Y-100126198D01*
X154521188Y-100800188D01*
X154314929Y-101108877D01*
X154242500Y-101473000D01*
X154242500Y-103127000D01*
X151635800Y-103127000D01*
X151635800Y-96384688D01*
X151716061Y-96464949D01*
X151995025Y-96580500D01*
X152207250Y-96580500D01*
X152397000Y-96390750D01*
X152397000Y-95253000D01*
X152377000Y-95253000D01*
X152377000Y-95247000D01*
X152397000Y-95247000D01*
X152397000Y-94109250D01*
X152207250Y-93919500D01*
X151995025Y-93919500D01*
X151716061Y-94035051D01*
X151635800Y-94115312D01*
X151635800Y-90853600D01*
X154101800Y-90853600D01*
X154182555Y-90837537D01*
X154264895Y-90837537D01*
X155552816Y-90581354D01*
X155641083Y-90544792D01*
X155854178Y-90456526D01*
X156946025Y-89726977D01*
X157176677Y-89496325D01*
X157458847Y-89074026D01*
X157846000Y-89074026D01*
X157846000Y-89532250D01*
X158035750Y-89722000D01*
X160202000Y-89722000D01*
X160202000Y-88655750D01*
X160208000Y-88655750D01*
X160208000Y-89722000D01*
X162374250Y-89722000D01*
X162564000Y-89532250D01*
X162564000Y-89074026D01*
X164646000Y-89074026D01*
X164646000Y-89532250D01*
X164835750Y-89722000D01*
X167002000Y-89722000D01*
X167002000Y-88655750D01*
X167008000Y-88655750D01*
X167008000Y-89722000D01*
X169174250Y-89722000D01*
X169364000Y-89532250D01*
X169364000Y-89074026D01*
X169248449Y-88795061D01*
X169034939Y-88581551D01*
X168755975Y-88466000D01*
X167197750Y-88466000D01*
X167008000Y-88655750D01*
X167002000Y-88655750D01*
X166812250Y-88466000D01*
X165254025Y-88466000D01*
X164975061Y-88581551D01*
X164761551Y-88795061D01*
X164646000Y-89074026D01*
X162564000Y-89074026D01*
X162448449Y-88795061D01*
X162234939Y-88581551D01*
X161955975Y-88466000D01*
X160397750Y-88466000D01*
X160208000Y-88655750D01*
X160202000Y-88655750D01*
X160012250Y-88466000D01*
X158454025Y-88466000D01*
X158175061Y-88581551D01*
X157961551Y-88795061D01*
X157846000Y-89074026D01*
X157458847Y-89074026D01*
X157906225Y-88404478D01*
X157906226Y-88404477D01*
X158031054Y-88103116D01*
X158267322Y-86915312D01*
X158303128Y-86939777D01*
X158605000Y-87000908D01*
X161805000Y-87000908D01*
X162087009Y-86947844D01*
X162346018Y-86781177D01*
X162486961Y-86574900D01*
X164725842Y-86574900D01*
X164848823Y-86766018D01*
X164848823Y-86766018D01*
G37*
X164848823Y-86766018D02*
X165103128Y-86939777D01*
X165405000Y-87000908D01*
X166402118Y-87000908D01*
X166404030Y-87003770D01*
X167123230Y-87722970D01*
X167398957Y-87907205D01*
X167724200Y-87971900D01*
X179457530Y-87971900D01*
X179934722Y-88449092D01*
X177285000Y-88449092D01*
X177002991Y-88502156D01*
X176743982Y-88668823D01*
X176603039Y-88875100D01*
X174364158Y-88875100D01*
X174241177Y-88683982D01*
X173986872Y-88510223D01*
X173685000Y-88449092D01*
X170485000Y-88449092D01*
X170202991Y-88502156D01*
X169943982Y-88668823D01*
X169770223Y-88923128D01*
X169709092Y-89225000D01*
X169709092Y-90225000D01*
X169762156Y-90507009D01*
X169928823Y-90766018D01*
X170183128Y-90939777D01*
X170485000Y-91000908D01*
X170942851Y-91000908D01*
X170942802Y-91056541D01*
X171116295Y-91476426D01*
X171437264Y-91797956D01*
X171856846Y-91972181D01*
X172311161Y-91972578D01*
X172731046Y-91799085D01*
X173052576Y-91478116D01*
X173226801Y-91058534D01*
X173226851Y-91000908D01*
X173685000Y-91000908D01*
X173967009Y-90947844D01*
X174226018Y-90781177D01*
X174366961Y-90574900D01*
X175231938Y-90574900D01*
X174867954Y-90725295D01*
X174684973Y-90907956D01*
X174680757Y-90908795D01*
X174475020Y-91046264D01*
X174405030Y-91093030D01*
X173383960Y-92114100D01*
X169545000Y-92114100D01*
X169219758Y-92178794D01*
X168944030Y-92363030D01*
X168596002Y-92711058D01*
X168302839Y-92710802D01*
X167882954Y-92884295D01*
X167561424Y-93205264D01*
X167387199Y-93624846D01*
X167386941Y-93920119D01*
X165055908Y-96251152D01*
X165055908Y-96174000D01*
X165002844Y-95891991D01*
X164836177Y-95632982D01*
X164581872Y-95459223D01*
X164280000Y-95398092D01*
X163380000Y-95398092D01*
X163097991Y-95451156D01*
X162838982Y-95617823D01*
X162665223Y-95872128D01*
X162659842Y-95898700D01*
X162303000Y-95898700D01*
X162303000Y-95442750D01*
X162113250Y-95253000D01*
X161293000Y-95253000D01*
X161293000Y-95273000D01*
X161287000Y-95273000D01*
X161287000Y-95253000D01*
X161267000Y-95253000D01*
X161267000Y-95247000D01*
X161287000Y-95247000D01*
X161287000Y-94109250D01*
X161293000Y-94109250D01*
X161293000Y-95247000D01*
X162113250Y-95247000D01*
X162303000Y-95057250D01*
X162303000Y-94527526D01*
X162187449Y-94248561D01*
X161973939Y-94035051D01*
X161694975Y-93919500D01*
X161482750Y-93919500D01*
X161293000Y-94109250D01*
X161287000Y-94109250D01*
X161161997Y-93984247D01*
X161162198Y-93753839D01*
X160988705Y-93333954D01*
X160667736Y-93012424D01*
X160248154Y-92838199D01*
X159793839Y-92837802D01*
X159384511Y-93006933D01*
X158978154Y-92838199D01*
X158523839Y-92837802D01*
X158329900Y-92917936D01*
X158329900Y-92534376D01*
X158634046Y-92408705D01*
X158955576Y-92087736D01*
X159129801Y-91668154D01*
X159130198Y-91213839D01*
X159035230Y-90984000D01*
X160012250Y-90984000D01*
X160202000Y-90794250D01*
X160202000Y-89728000D01*
X160208000Y-89728000D01*
X160208000Y-90794250D01*
X160397750Y-90984000D01*
X161955975Y-90984000D01*
X162234939Y-90868449D01*
X162448449Y-90654939D01*
X162564000Y-90375974D01*
X162564000Y-89917750D01*
X164646000Y-89917750D01*
X164646000Y-90375974D01*
X164761551Y-90654939D01*
X164975061Y-90868449D01*
X165254025Y-90984000D01*
X166812250Y-90984000D01*
X167002000Y-90794250D01*
X167002000Y-89728000D01*
X167008000Y-89728000D01*
X167008000Y-90794250D01*
X167197750Y-90984000D01*
X168755975Y-90984000D01*
X169034939Y-90868449D01*
X169248449Y-90654939D01*
X169364000Y-90375974D01*
X169364000Y-89917750D01*
X169174250Y-89728000D01*
X167008000Y-89728000D01*
X167002000Y-89728000D01*
X164835750Y-89728000D01*
X164646000Y-89917750D01*
X162564000Y-89917750D01*
X162374250Y-89728000D01*
X160208000Y-89728000D01*
X160202000Y-89728000D01*
X158035750Y-89728000D01*
X157846000Y-89917750D01*
X157846000Y-90297876D01*
X157761839Y-90297802D01*
X157341954Y-90471295D01*
X157020424Y-90792264D01*
X156846199Y-91211846D01*
X156846038Y-91396406D01*
X156694795Y-91622757D01*
X156630100Y-91948000D01*
X156630100Y-93936228D01*
X156464000Y-93902592D01*
X155956000Y-93902592D01*
X155673991Y-93955656D01*
X155576180Y-94018595D01*
X155495872Y-93963723D01*
X155194000Y-93902592D01*
X154686000Y-93902592D01*
X154403991Y-93955656D01*
X154306180Y-94018595D01*
X154225872Y-93963723D01*
X153924000Y-93902592D01*
X153416000Y-93902592D01*
X153133991Y-93955656D01*
X153039325Y-94016571D01*
X152804975Y-93919500D01*
X152592750Y-93919500D01*
X152403000Y-94109250D01*
X152403000Y-95247000D01*
X152423000Y-95247000D01*
X152423000Y-95253000D01*
X152403000Y-95253000D01*
X152403000Y-96390750D01*
X152592750Y-96580500D01*
X152804975Y-96580500D01*
X153037742Y-96484085D01*
X153114128Y-96536277D01*
X153416000Y-96597408D01*
X153924000Y-96597408D01*
X154064700Y-96570933D01*
X154064700Y-96773995D01*
X154064699Y-96774000D01*
X154131328Y-97108963D01*
X154184575Y-97188653D01*
X154340671Y-97566434D01*
X154661640Y-97887964D01*
X155081222Y-98062189D01*
X155535537Y-98062586D01*
X155588259Y-98040802D01*
X155576199Y-98069846D01*
X155575802Y-98524161D01*
X155749295Y-98944046D01*
X156027146Y-99222383D01*
X155690954Y-99361295D01*
X155369424Y-99682264D01*
X155195199Y-100101846D01*
X155195178Y-100126198D01*
X154521188Y-100800188D01*
X154314929Y-101108877D01*
X154242500Y-101473000D01*
X154242500Y-103127000D01*
X151635800Y-103127000D01*
X151635800Y-96384688D01*
X151716061Y-96464949D01*
X151995025Y-96580500D01*
X152207250Y-96580500D01*
X152397000Y-96390750D01*
X152397000Y-95253000D01*
X152377000Y-95253000D01*
X152377000Y-95247000D01*
X152397000Y-95247000D01*
X152397000Y-94109250D01*
X152207250Y-93919500D01*
X151995025Y-93919500D01*
X151716061Y-94035051D01*
X151635800Y-94115312D01*
X151635800Y-90853600D01*
X154101800Y-90853600D01*
X154182555Y-90837537D01*
X154264895Y-90837537D01*
X155552816Y-90581354D01*
X155641083Y-90544792D01*
X155854178Y-90456526D01*
X156946025Y-89726977D01*
X157176677Y-89496325D01*
X157458847Y-89074026D01*
X157846000Y-89074026D01*
X157846000Y-89532250D01*
X158035750Y-89722000D01*
X160202000Y-89722000D01*
X160202000Y-88655750D01*
X160208000Y-88655750D01*
X160208000Y-89722000D01*
X162374250Y-89722000D01*
X162564000Y-89532250D01*
X162564000Y-89074026D01*
X164646000Y-89074026D01*
X164646000Y-89532250D01*
X164835750Y-89722000D01*
X167002000Y-89722000D01*
X167002000Y-88655750D01*
X167008000Y-88655750D01*
X167008000Y-89722000D01*
X169174250Y-89722000D01*
X169364000Y-89532250D01*
X169364000Y-89074026D01*
X169248449Y-88795061D01*
X169034939Y-88581551D01*
X168755975Y-88466000D01*
X167197750Y-88466000D01*
X167008000Y-88655750D01*
X167002000Y-88655750D01*
X166812250Y-88466000D01*
X165254025Y-88466000D01*
X164975061Y-88581551D01*
X164761551Y-88795061D01*
X164646000Y-89074026D01*
X162564000Y-89074026D01*
X162448449Y-88795061D01*
X162234939Y-88581551D01*
X161955975Y-88466000D01*
X160397750Y-88466000D01*
X160208000Y-88655750D01*
X160202000Y-88655750D01*
X160012250Y-88466000D01*
X158454025Y-88466000D01*
X158175061Y-88581551D01*
X157961551Y-88795061D01*
X157846000Y-89074026D01*
X157458847Y-89074026D01*
X157906225Y-88404478D01*
X157906226Y-88404477D01*
X158031054Y-88103116D01*
X158267322Y-86915312D01*
X158303128Y-86939777D01*
X158605000Y-87000908D01*
X161805000Y-87000908D01*
X162087009Y-86947844D01*
X162346018Y-86781177D01*
X162486961Y-86574900D01*
X164725842Y-86574900D01*
X164848823Y-86766018D01*
G36*
X158981968Y-101799829D02*
X158981970Y-101799832D01*
X159156216Y-101916259D01*
X159265938Y-101989573D01*
X159600901Y-102056202D01*
X159600906Y-102056201D01*
X161938700Y-102056201D01*
X161938700Y-102251217D01*
X161938699Y-102251222D01*
X162005328Y-102586185D01*
X162195069Y-102870153D01*
X162451916Y-103127000D01*
X156145500Y-103127000D01*
X156145500Y-101867124D01*
X156540446Y-101472178D01*
X156563161Y-101472198D01*
X156983046Y-101298705D01*
X157304576Y-100977736D01*
X157478801Y-100558154D01*
X157479029Y-100296891D01*
X158981968Y-101799829D01*
X158981968Y-101799829D01*
G37*
X158981968Y-101799829D02*
X158981970Y-101799832D01*
X159156216Y-101916259D01*
X159265938Y-101989573D01*
X159600901Y-102056202D01*
X159600906Y-102056201D01*
X161938700Y-102056201D01*
X161938700Y-102251217D01*
X161938699Y-102251222D01*
X162005328Y-102586185D01*
X162195069Y-102870153D01*
X162451916Y-103127000D01*
X156145500Y-103127000D01*
X156145500Y-101867124D01*
X156540446Y-101472178D01*
X156563161Y-101472198D01*
X156983046Y-101298705D01*
X157304576Y-100977736D01*
X157478801Y-100558154D01*
X157479029Y-100296891D01*
X158981968Y-101799829D01*
G36*
X184230067Y-95678928D02*
X184230069Y-95678931D01*
X184514037Y-95868672D01*
X184849000Y-95935300D01*
X187114780Y-95935300D01*
X187072199Y-96037846D01*
X187072099Y-96152700D01*
X184762005Y-96152700D01*
X184762000Y-96152699D01*
X184427037Y-96219328D01*
X184143069Y-96409069D01*
X184105908Y-96446230D01*
X184105908Y-96260000D01*
X184052844Y-95977991D01*
X183886177Y-95718982D01*
X183631872Y-95545223D01*
X183330000Y-95484092D01*
X182430000Y-95484092D01*
X182147991Y-95537156D01*
X181888982Y-95703823D01*
X181755828Y-95898700D01*
X181353000Y-95898700D01*
X181353000Y-95442750D01*
X181163250Y-95253000D01*
X180343000Y-95253000D01*
X180343000Y-95273000D01*
X180337000Y-95273000D01*
X180337000Y-95253000D01*
X180317000Y-95253000D01*
X180317000Y-95247000D01*
X180337000Y-95247000D01*
X180337000Y-94109250D01*
X180343000Y-94109250D01*
X180343000Y-95247000D01*
X181163250Y-95247000D01*
X181353000Y-95057250D01*
X181353000Y-94527526D01*
X181237449Y-94248561D01*
X181023939Y-94035051D01*
X180744975Y-93919500D01*
X180532750Y-93919500D01*
X180343000Y-94109250D01*
X180337000Y-94109250D01*
X180211997Y-93984247D01*
X180212198Y-93753853D01*
X180053344Y-93369398D01*
X181920536Y-93369398D01*
X184230067Y-95678928D01*
X184230067Y-95678928D01*
G37*
X184230067Y-95678928D02*
X184230069Y-95678931D01*
X184514037Y-95868672D01*
X184849000Y-95935300D01*
X187114780Y-95935300D01*
X187072199Y-96037846D01*
X187072099Y-96152700D01*
X184762005Y-96152700D01*
X184762000Y-96152699D01*
X184427037Y-96219328D01*
X184143069Y-96409069D01*
X184105908Y-96446230D01*
X184105908Y-96260000D01*
X184052844Y-95977991D01*
X183886177Y-95718982D01*
X183631872Y-95545223D01*
X183330000Y-95484092D01*
X182430000Y-95484092D01*
X182147991Y-95537156D01*
X181888982Y-95703823D01*
X181755828Y-95898700D01*
X181353000Y-95898700D01*
X181353000Y-95442750D01*
X181163250Y-95253000D01*
X180343000Y-95253000D01*
X180343000Y-95273000D01*
X180337000Y-95273000D01*
X180337000Y-95253000D01*
X180317000Y-95253000D01*
X180317000Y-95247000D01*
X180337000Y-95247000D01*
X180337000Y-94109250D01*
X180343000Y-94109250D01*
X180343000Y-95247000D01*
X181163250Y-95247000D01*
X181353000Y-95057250D01*
X181353000Y-94527526D01*
X181237449Y-94248561D01*
X181023939Y-94035051D01*
X180744975Y-93919500D01*
X180532750Y-93919500D01*
X180343000Y-94109250D01*
X180337000Y-94109250D01*
X180211997Y-93984247D01*
X180212198Y-93753853D01*
X180053344Y-93369398D01*
X181920536Y-93369398D01*
X184230067Y-95678928D01*
G36*
X171453000Y-95247000D02*
X171473000Y-95247000D01*
X171473000Y-95253000D01*
X171453000Y-95253000D01*
X171453000Y-95273000D01*
X171447000Y-95273000D01*
X171447000Y-95253000D01*
X171427000Y-95253000D01*
X171427000Y-95247000D01*
X171447000Y-95247000D01*
X171447000Y-95227000D01*
X171453000Y-95227000D01*
X171453000Y-95247000D01*
X171453000Y-95247000D01*
G37*
X171453000Y-95247000D02*
X171473000Y-95247000D01*
X171473000Y-95253000D01*
X171453000Y-95253000D01*
X171453000Y-95273000D01*
X171447000Y-95273000D01*
X171447000Y-95253000D01*
X171427000Y-95253000D01*
X171427000Y-95247000D01*
X171447000Y-95247000D01*
X171447000Y-95227000D01*
X171453000Y-95227000D01*
X171453000Y-95247000D01*
G36*
X194915000Y-87785908D02*
X195165000Y-87785908D01*
X195226372Y-87774360D01*
X195214092Y-87835000D01*
X195214092Y-88085000D01*
X195232186Y-88181162D01*
X195231000Y-88184026D01*
X195231000Y-88267250D01*
X195239791Y-88276041D01*
X195142469Y-88341069D01*
X195028168Y-88455370D01*
X194941363Y-88585283D01*
X194679954Y-88693295D01*
X194358424Y-89014264D01*
X194184199Y-89433846D01*
X194183802Y-89888161D01*
X194357295Y-90308046D01*
X194678264Y-90629576D01*
X195097846Y-90803801D01*
X195220388Y-90803908D01*
X195214092Y-90835000D01*
X195214092Y-91085000D01*
X195238476Y-91214589D01*
X195214092Y-91335000D01*
X195214092Y-91567902D01*
X195099839Y-91567802D01*
X194679954Y-91741295D01*
X194358424Y-92062264D01*
X194184199Y-92481846D01*
X194184057Y-92644683D01*
X194164699Y-92742000D01*
X194164700Y-92742005D01*
X194164700Y-93634092D01*
X193915000Y-93634092D01*
X193785411Y-93658476D01*
X193665000Y-93634092D01*
X193642882Y-93634092D01*
X193640970Y-93631230D01*
X193134770Y-93125030D01*
X193104344Y-93104700D01*
X192859043Y-92940795D01*
X192533800Y-92876100D01*
X190616439Y-92876100D01*
X190625801Y-92853554D01*
X190626198Y-92399239D01*
X190452705Y-91979354D01*
X190131736Y-91657824D01*
X189712154Y-91483599D01*
X189579945Y-91483483D01*
X189437531Y-91341069D01*
X189340209Y-91276041D01*
X189349000Y-91267250D01*
X189349000Y-91184026D01*
X189346887Y-91178926D01*
X189365908Y-91085000D01*
X189365908Y-90835000D01*
X189341524Y-90705411D01*
X189365908Y-90585000D01*
X189365908Y-90335000D01*
X189341524Y-90205411D01*
X189365908Y-90085000D01*
X189365908Y-89835000D01*
X189341524Y-89705411D01*
X189365908Y-89585000D01*
X189365908Y-89335000D01*
X189341524Y-89205411D01*
X189365908Y-89085000D01*
X189365908Y-88835000D01*
X189358020Y-88793080D01*
X189674166Y-88793356D01*
X190094051Y-88619863D01*
X190415581Y-88298894D01*
X190589806Y-87879312D01*
X190589888Y-87785908D01*
X190665000Y-87785908D01*
X190794589Y-87761524D01*
X190915000Y-87785908D01*
X191165000Y-87785908D01*
X191294589Y-87761524D01*
X191415000Y-87785908D01*
X191665000Y-87785908D01*
X191794589Y-87761524D01*
X191915000Y-87785908D01*
X192165000Y-87785908D01*
X192294589Y-87761524D01*
X192415000Y-87785908D01*
X192665000Y-87785908D01*
X192794589Y-87761524D01*
X192915000Y-87785908D01*
X193165000Y-87785908D01*
X193294589Y-87761524D01*
X193415000Y-87785908D01*
X193665000Y-87785908D01*
X193794589Y-87761524D01*
X193915000Y-87785908D01*
X194165000Y-87785908D01*
X194294589Y-87761524D01*
X194415000Y-87785908D01*
X194665000Y-87785908D01*
X194794589Y-87761524D01*
X194915000Y-87785908D01*
X194915000Y-87785908D01*
G37*
X194915000Y-87785908D02*
X195165000Y-87785908D01*
X195226372Y-87774360D01*
X195214092Y-87835000D01*
X195214092Y-88085000D01*
X195232186Y-88181162D01*
X195231000Y-88184026D01*
X195231000Y-88267250D01*
X195239791Y-88276041D01*
X195142469Y-88341069D01*
X195028168Y-88455370D01*
X194941363Y-88585283D01*
X194679954Y-88693295D01*
X194358424Y-89014264D01*
X194184199Y-89433846D01*
X194183802Y-89888161D01*
X194357295Y-90308046D01*
X194678264Y-90629576D01*
X195097846Y-90803801D01*
X195220388Y-90803908D01*
X195214092Y-90835000D01*
X195214092Y-91085000D01*
X195238476Y-91214589D01*
X195214092Y-91335000D01*
X195214092Y-91567902D01*
X195099839Y-91567802D01*
X194679954Y-91741295D01*
X194358424Y-92062264D01*
X194184199Y-92481846D01*
X194184057Y-92644683D01*
X194164699Y-92742000D01*
X194164700Y-92742005D01*
X194164700Y-93634092D01*
X193915000Y-93634092D01*
X193785411Y-93658476D01*
X193665000Y-93634092D01*
X193642882Y-93634092D01*
X193640970Y-93631230D01*
X193134770Y-93125030D01*
X193104344Y-93104700D01*
X192859043Y-92940795D01*
X192533800Y-92876100D01*
X190616439Y-92876100D01*
X190625801Y-92853554D01*
X190626198Y-92399239D01*
X190452705Y-91979354D01*
X190131736Y-91657824D01*
X189712154Y-91483599D01*
X189579945Y-91483483D01*
X189437531Y-91341069D01*
X189340209Y-91276041D01*
X189349000Y-91267250D01*
X189349000Y-91184026D01*
X189346887Y-91178926D01*
X189365908Y-91085000D01*
X189365908Y-90835000D01*
X189341524Y-90705411D01*
X189365908Y-90585000D01*
X189365908Y-90335000D01*
X189341524Y-90205411D01*
X189365908Y-90085000D01*
X189365908Y-89835000D01*
X189341524Y-89705411D01*
X189365908Y-89585000D01*
X189365908Y-89335000D01*
X189341524Y-89205411D01*
X189365908Y-89085000D01*
X189365908Y-88835000D01*
X189358020Y-88793080D01*
X189674166Y-88793356D01*
X190094051Y-88619863D01*
X190415581Y-88298894D01*
X190589806Y-87879312D01*
X190589888Y-87785908D01*
X190665000Y-87785908D01*
X190794589Y-87761524D01*
X190915000Y-87785908D01*
X191165000Y-87785908D01*
X191294589Y-87761524D01*
X191415000Y-87785908D01*
X191665000Y-87785908D01*
X191794589Y-87761524D01*
X191915000Y-87785908D01*
X192165000Y-87785908D01*
X192294589Y-87761524D01*
X192415000Y-87785908D01*
X192665000Y-87785908D01*
X192794589Y-87761524D01*
X192915000Y-87785908D01*
X193165000Y-87785908D01*
X193294589Y-87761524D01*
X193415000Y-87785908D01*
X193665000Y-87785908D01*
X193794589Y-87761524D01*
X193915000Y-87785908D01*
X194165000Y-87785908D01*
X194294589Y-87761524D01*
X194415000Y-87785908D01*
X194665000Y-87785908D01*
X194794589Y-87761524D01*
X194915000Y-87785908D01*
G36*
X164490081Y-70159000D02*
X157463986Y-70159000D01*
X157096227Y-70232152D01*
X156784456Y-70440470D01*
X156784454Y-70440473D01*
X155432834Y-71792092D01*
X154815986Y-71792092D01*
X154533977Y-71845156D01*
X154274968Y-72011823D01*
X154101209Y-72266128D01*
X154040078Y-72568000D01*
X154040078Y-75768000D01*
X154093142Y-76050009D01*
X154259809Y-76309018D01*
X154514114Y-76482777D01*
X154815986Y-76543908D01*
X156015986Y-76543908D01*
X156297995Y-76490844D01*
X156413554Y-76416484D01*
X156510870Y-76482977D01*
X156630100Y-76507122D01*
X156630100Y-81657793D01*
X156512424Y-81775264D01*
X156338199Y-82194846D01*
X156337802Y-82649161D01*
X156511295Y-83069046D01*
X156832264Y-83390576D01*
X157251846Y-83564801D01*
X157706161Y-83565198D01*
X158126046Y-83391705D01*
X158441535Y-83076767D01*
X158543295Y-83323046D01*
X158864264Y-83644576D01*
X159283846Y-83818801D01*
X159738161Y-83819198D01*
X160158046Y-83645705D01*
X160479576Y-83324736D01*
X160653801Y-82905154D01*
X160654198Y-82450839D01*
X160480705Y-82030954D01*
X160361900Y-81911941D01*
X160361900Y-80417572D01*
X162738591Y-80417572D01*
X163097274Y-81285652D01*
X163760855Y-81950392D01*
X164628308Y-82310590D01*
X165567572Y-82311409D01*
X166435652Y-81952726D01*
X167100392Y-81289145D01*
X167460590Y-80421692D01*
X167461409Y-79482428D01*
X167102726Y-78614348D01*
X166439145Y-77949608D01*
X165571692Y-77589410D01*
X164632428Y-77588591D01*
X163764348Y-77947274D01*
X163099608Y-78610855D01*
X162739410Y-79478308D01*
X162738591Y-80417572D01*
X160361900Y-80417572D01*
X160361900Y-78033954D01*
X160448295Y-78243046D01*
X160769264Y-78564576D01*
X161188846Y-78738801D01*
X161643161Y-78739198D01*
X162063046Y-78565705D01*
X162384576Y-78244736D01*
X162558801Y-77825154D01*
X162559198Y-77370839D01*
X162385705Y-76950954D01*
X162266900Y-76831941D01*
X162266900Y-76497506D01*
X162301243Y-76491044D01*
X162408243Y-76422192D01*
X162661755Y-76527200D01*
X163223230Y-76527200D01*
X163412980Y-76337450D01*
X163412980Y-74171000D01*
X163418980Y-74171000D01*
X163418980Y-76337450D01*
X163608730Y-76527200D01*
X164170205Y-76527200D01*
X164449169Y-76411649D01*
X164662679Y-76198139D01*
X164778230Y-75919174D01*
X164778230Y-74360750D01*
X164588480Y-74171000D01*
X163418980Y-74171000D01*
X163412980Y-74171000D01*
X163392980Y-74171000D01*
X163392980Y-74165000D01*
X163412980Y-74165000D01*
X163412980Y-74145000D01*
X163418980Y-74145000D01*
X163418980Y-74165000D01*
X164588480Y-74165000D01*
X164778230Y-73975250D01*
X164778230Y-72416826D01*
X164662679Y-72137861D01*
X164605818Y-72081000D01*
X170919875Y-72081000D01*
X170829965Y-72212588D01*
X170768834Y-72514460D01*
X170768834Y-75714860D01*
X170821898Y-75996869D01*
X170988565Y-76255878D01*
X171242870Y-76429637D01*
X171544742Y-76490768D01*
X172751242Y-76490768D01*
X172860700Y-76470172D01*
X172860700Y-77565894D01*
X172853991Y-77567156D01*
X172633611Y-77708966D01*
X172437872Y-77575223D01*
X172136000Y-77514092D01*
X170936000Y-77514092D01*
X170653991Y-77567156D01*
X170394982Y-77733823D01*
X170221223Y-77988128D01*
X170160092Y-78290000D01*
X170160092Y-79190000D01*
X170213156Y-79472009D01*
X170246239Y-79523422D01*
X170151991Y-79541156D01*
X169892982Y-79707823D01*
X169719223Y-79962128D01*
X169658092Y-80264000D01*
X169658092Y-82296000D01*
X169711156Y-82578009D01*
X169825951Y-82756407D01*
X169655975Y-82686000D01*
X169097750Y-82686000D01*
X168908000Y-82875750D01*
X168908000Y-83817000D01*
X170074250Y-83817000D01*
X170206225Y-83685025D01*
X181375000Y-83685025D01*
X181375000Y-84643250D01*
X181564750Y-84833000D01*
X183131000Y-84833000D01*
X183131000Y-83266750D01*
X182941250Y-83077000D01*
X181983026Y-83077000D01*
X181704061Y-83192551D01*
X181490551Y-83406061D01*
X181375000Y-83685025D01*
X170206225Y-83685025D01*
X170264000Y-83627250D01*
X170264000Y-83294026D01*
X170148449Y-83015061D01*
X170147222Y-83013834D01*
X170434000Y-83071908D01*
X172466000Y-83071908D01*
X172748009Y-83018844D01*
X173007018Y-82852177D01*
X173053017Y-82784855D01*
X173309972Y-82956547D01*
X173990000Y-83091813D01*
X174670028Y-82956547D01*
X175246529Y-82571342D01*
X175631734Y-81994841D01*
X175767000Y-81314813D01*
X175767000Y-81245187D01*
X175683327Y-80824535D01*
X176512915Y-79994947D01*
X176702656Y-79710979D01*
X176769285Y-79376016D01*
X176769284Y-79376011D01*
X176769284Y-76487372D01*
X177033243Y-76437704D01*
X177140243Y-76368852D01*
X177393755Y-76473860D01*
X177955230Y-76473860D01*
X178144980Y-76284110D01*
X178144980Y-74117660D01*
X178150980Y-74117660D01*
X178150980Y-76284110D01*
X178340730Y-76473860D01*
X178902205Y-76473860D01*
X179181169Y-76358309D01*
X179394679Y-76144799D01*
X179510230Y-75865834D01*
X179510230Y-74307410D01*
X179320480Y-74117660D01*
X178150980Y-74117660D01*
X178144980Y-74117660D01*
X178124980Y-74117660D01*
X178124980Y-74111660D01*
X178144980Y-74111660D01*
X178144980Y-74091660D01*
X178150980Y-74091660D01*
X178150980Y-74111660D01*
X179320480Y-74111660D01*
X179510230Y-73921910D01*
X179510230Y-73429224D01*
X179692264Y-73611576D01*
X180111846Y-73785801D01*
X180566161Y-73786198D01*
X180720862Y-73722277D01*
X180873846Y-73785801D01*
X181328161Y-73786198D01*
X181748046Y-73612705D01*
X181755764Y-73605000D01*
X184085442Y-73605000D01*
X185274630Y-74794187D01*
X185274632Y-74794190D01*
X185406854Y-74882538D01*
X185406854Y-75714860D01*
X185429027Y-75832700D01*
X184889851Y-75832700D01*
X184797736Y-75740424D01*
X184378154Y-75566199D01*
X183923839Y-75565802D01*
X183503954Y-75739295D01*
X183182424Y-76060264D01*
X183008199Y-76479846D01*
X183007802Y-76934161D01*
X183181295Y-77354046D01*
X183502264Y-77675576D01*
X183921846Y-77849801D01*
X184376161Y-77850198D01*
X184796046Y-77676705D01*
X184889614Y-77583300D01*
X188118109Y-77583300D01*
X188302901Y-77768092D01*
X187614000Y-77768092D01*
X187331991Y-77821156D01*
X187111611Y-77962966D01*
X186915872Y-77829223D01*
X186614000Y-77768092D01*
X185414000Y-77768092D01*
X185131991Y-77821156D01*
X184872982Y-77987823D01*
X184699223Y-78242128D01*
X184638092Y-78544000D01*
X184638092Y-78982047D01*
X183785069Y-79835069D01*
X183595328Y-80119037D01*
X183528699Y-80454000D01*
X183528700Y-80454005D01*
X183528700Y-82151782D01*
X183528699Y-82151787D01*
X183595328Y-82486750D01*
X183785069Y-82770718D01*
X184091351Y-83077000D01*
X183326750Y-83077000D01*
X183137000Y-83266750D01*
X183137000Y-84833000D01*
X183157000Y-84833000D01*
X183157000Y-84839000D01*
X183137000Y-84839000D01*
X183137000Y-86405250D01*
X183326750Y-86595000D01*
X184284974Y-86595000D01*
X184563939Y-86479449D01*
X184703565Y-86339823D01*
X185322179Y-86596694D01*
X185579007Y-86596918D01*
X185055069Y-87120856D01*
X184865328Y-87404824D01*
X184826771Y-87598663D01*
X184703136Y-87649748D01*
X184563939Y-87510551D01*
X184284974Y-87395000D01*
X183326750Y-87395000D01*
X183137000Y-87584750D01*
X183137000Y-89151000D01*
X183157000Y-89151000D01*
X183157000Y-89157000D01*
X183137000Y-89157000D01*
X183137000Y-89177000D01*
X183131000Y-89177000D01*
X183131000Y-89157000D01*
X183111000Y-89157000D01*
X183111000Y-89151000D01*
X183131000Y-89151000D01*
X183131000Y-87584750D01*
X182941250Y-87395000D01*
X182119710Y-87395000D01*
X182243801Y-87096154D01*
X182244198Y-86641839D01*
X182224845Y-86595000D01*
X182941250Y-86595000D01*
X183131000Y-86405250D01*
X183131000Y-84839000D01*
X181564750Y-84839000D01*
X181375000Y-85028750D01*
X181375000Y-85148538D01*
X181332531Y-85106069D01*
X181225011Y-85034227D01*
X181207844Y-84942991D01*
X181041177Y-84683982D01*
X180786872Y-84510223D01*
X180485000Y-84449092D01*
X177285000Y-84449092D01*
X177002991Y-84502156D01*
X176743982Y-84668823D01*
X176603039Y-84875100D01*
X174364158Y-84875100D01*
X174241177Y-84683982D01*
X173986872Y-84510223D01*
X173685000Y-84449092D01*
X170485000Y-84449092D01*
X170202991Y-84502156D01*
X170197969Y-84505388D01*
X170264000Y-84345974D01*
X170264000Y-84012750D01*
X170074250Y-83823000D01*
X168908000Y-83823000D01*
X168908000Y-83843000D01*
X168902000Y-83843000D01*
X168902000Y-83823000D01*
X168882000Y-83823000D01*
X168882000Y-83817000D01*
X168902000Y-83817000D01*
X168902000Y-82875750D01*
X168712250Y-82686000D01*
X168154025Y-82686000D01*
X167959858Y-82766427D01*
X167906872Y-82730223D01*
X167605000Y-82669092D01*
X166405000Y-82669092D01*
X166122991Y-82722156D01*
X165863982Y-82888823D01*
X165690223Y-83143128D01*
X165629092Y-83445000D01*
X165629092Y-84195000D01*
X165676903Y-84449092D01*
X165405000Y-84449092D01*
X165122991Y-84502156D01*
X164863982Y-84668823D01*
X164723039Y-84875100D01*
X162484158Y-84875100D01*
X162361177Y-84683982D01*
X162106872Y-84510223D01*
X161805000Y-84449092D01*
X158605000Y-84449092D01*
X158322991Y-84502156D01*
X158063982Y-84668823D01*
X157906220Y-84899715D01*
X157176677Y-83807875D01*
X156946025Y-83577223D01*
X155854178Y-82847674D01*
X155614129Y-82748243D01*
X155552816Y-82722846D01*
X154264895Y-82466663D01*
X154182555Y-82466663D01*
X154101800Y-82450600D01*
X151635800Y-82450600D01*
X151635800Y-71377621D01*
X151865961Y-71424230D01*
X153565983Y-71424230D01*
X153847992Y-71371166D01*
X154107001Y-71204499D01*
X154280760Y-70950194D01*
X154341891Y-70648322D01*
X154341891Y-65961600D01*
X164490081Y-65961600D01*
X164490081Y-70159000D01*
X164490081Y-70159000D01*
G37*
X164490081Y-70159000D02*
X157463986Y-70159000D01*
X157096227Y-70232152D01*
X156784456Y-70440470D01*
X156784454Y-70440473D01*
X155432834Y-71792092D01*
X154815986Y-71792092D01*
X154533977Y-71845156D01*
X154274968Y-72011823D01*
X154101209Y-72266128D01*
X154040078Y-72568000D01*
X154040078Y-75768000D01*
X154093142Y-76050009D01*
X154259809Y-76309018D01*
X154514114Y-76482777D01*
X154815986Y-76543908D01*
X156015986Y-76543908D01*
X156297995Y-76490844D01*
X156413554Y-76416484D01*
X156510870Y-76482977D01*
X156630100Y-76507122D01*
X156630100Y-81657793D01*
X156512424Y-81775264D01*
X156338199Y-82194846D01*
X156337802Y-82649161D01*
X156511295Y-83069046D01*
X156832264Y-83390576D01*
X157251846Y-83564801D01*
X157706161Y-83565198D01*
X158126046Y-83391705D01*
X158441535Y-83076767D01*
X158543295Y-83323046D01*
X158864264Y-83644576D01*
X159283846Y-83818801D01*
X159738161Y-83819198D01*
X160158046Y-83645705D01*
X160479576Y-83324736D01*
X160653801Y-82905154D01*
X160654198Y-82450839D01*
X160480705Y-82030954D01*
X160361900Y-81911941D01*
X160361900Y-80417572D01*
X162738591Y-80417572D01*
X163097274Y-81285652D01*
X163760855Y-81950392D01*
X164628308Y-82310590D01*
X165567572Y-82311409D01*
X166435652Y-81952726D01*
X167100392Y-81289145D01*
X167460590Y-80421692D01*
X167461409Y-79482428D01*
X167102726Y-78614348D01*
X166439145Y-77949608D01*
X165571692Y-77589410D01*
X164632428Y-77588591D01*
X163764348Y-77947274D01*
X163099608Y-78610855D01*
X162739410Y-79478308D01*
X162738591Y-80417572D01*
X160361900Y-80417572D01*
X160361900Y-78033954D01*
X160448295Y-78243046D01*
X160769264Y-78564576D01*
X161188846Y-78738801D01*
X161643161Y-78739198D01*
X162063046Y-78565705D01*
X162384576Y-78244736D01*
X162558801Y-77825154D01*
X162559198Y-77370839D01*
X162385705Y-76950954D01*
X162266900Y-76831941D01*
X162266900Y-76497506D01*
X162301243Y-76491044D01*
X162408243Y-76422192D01*
X162661755Y-76527200D01*
X163223230Y-76527200D01*
X163412980Y-76337450D01*
X163412980Y-74171000D01*
X163418980Y-74171000D01*
X163418980Y-76337450D01*
X163608730Y-76527200D01*
X164170205Y-76527200D01*
X164449169Y-76411649D01*
X164662679Y-76198139D01*
X164778230Y-75919174D01*
X164778230Y-74360750D01*
X164588480Y-74171000D01*
X163418980Y-74171000D01*
X163412980Y-74171000D01*
X163392980Y-74171000D01*
X163392980Y-74165000D01*
X163412980Y-74165000D01*
X163412980Y-74145000D01*
X163418980Y-74145000D01*
X163418980Y-74165000D01*
X164588480Y-74165000D01*
X164778230Y-73975250D01*
X164778230Y-72416826D01*
X164662679Y-72137861D01*
X164605818Y-72081000D01*
X170919875Y-72081000D01*
X170829965Y-72212588D01*
X170768834Y-72514460D01*
X170768834Y-75714860D01*
X170821898Y-75996869D01*
X170988565Y-76255878D01*
X171242870Y-76429637D01*
X171544742Y-76490768D01*
X172751242Y-76490768D01*
X172860700Y-76470172D01*
X172860700Y-77565894D01*
X172853991Y-77567156D01*
X172633611Y-77708966D01*
X172437872Y-77575223D01*
X172136000Y-77514092D01*
X170936000Y-77514092D01*
X170653991Y-77567156D01*
X170394982Y-77733823D01*
X170221223Y-77988128D01*
X170160092Y-78290000D01*
X170160092Y-79190000D01*
X170213156Y-79472009D01*
X170246239Y-79523422D01*
X170151991Y-79541156D01*
X169892982Y-79707823D01*
X169719223Y-79962128D01*
X169658092Y-80264000D01*
X169658092Y-82296000D01*
X169711156Y-82578009D01*
X169825951Y-82756407D01*
X169655975Y-82686000D01*
X169097750Y-82686000D01*
X168908000Y-82875750D01*
X168908000Y-83817000D01*
X170074250Y-83817000D01*
X170206225Y-83685025D01*
X181375000Y-83685025D01*
X181375000Y-84643250D01*
X181564750Y-84833000D01*
X183131000Y-84833000D01*
X183131000Y-83266750D01*
X182941250Y-83077000D01*
X181983026Y-83077000D01*
X181704061Y-83192551D01*
X181490551Y-83406061D01*
X181375000Y-83685025D01*
X170206225Y-83685025D01*
X170264000Y-83627250D01*
X170264000Y-83294026D01*
X170148449Y-83015061D01*
X170147222Y-83013834D01*
X170434000Y-83071908D01*
X172466000Y-83071908D01*
X172748009Y-83018844D01*
X173007018Y-82852177D01*
X173053017Y-82784855D01*
X173309972Y-82956547D01*
X173990000Y-83091813D01*
X174670028Y-82956547D01*
X175246529Y-82571342D01*
X175631734Y-81994841D01*
X175767000Y-81314813D01*
X175767000Y-81245187D01*
X175683327Y-80824535D01*
X176512915Y-79994947D01*
X176702656Y-79710979D01*
X176769285Y-79376016D01*
X176769284Y-79376011D01*
X176769284Y-76487372D01*
X177033243Y-76437704D01*
X177140243Y-76368852D01*
X177393755Y-76473860D01*
X177955230Y-76473860D01*
X178144980Y-76284110D01*
X178144980Y-74117660D01*
X178150980Y-74117660D01*
X178150980Y-76284110D01*
X178340730Y-76473860D01*
X178902205Y-76473860D01*
X179181169Y-76358309D01*
X179394679Y-76144799D01*
X179510230Y-75865834D01*
X179510230Y-74307410D01*
X179320480Y-74117660D01*
X178150980Y-74117660D01*
X178144980Y-74117660D01*
X178124980Y-74117660D01*
X178124980Y-74111660D01*
X178144980Y-74111660D01*
X178144980Y-74091660D01*
X178150980Y-74091660D01*
X178150980Y-74111660D01*
X179320480Y-74111660D01*
X179510230Y-73921910D01*
X179510230Y-73429224D01*
X179692264Y-73611576D01*
X180111846Y-73785801D01*
X180566161Y-73786198D01*
X180720862Y-73722277D01*
X180873846Y-73785801D01*
X181328161Y-73786198D01*
X181748046Y-73612705D01*
X181755764Y-73605000D01*
X184085442Y-73605000D01*
X185274630Y-74794187D01*
X185274632Y-74794190D01*
X185406854Y-74882538D01*
X185406854Y-75714860D01*
X185429027Y-75832700D01*
X184889851Y-75832700D01*
X184797736Y-75740424D01*
X184378154Y-75566199D01*
X183923839Y-75565802D01*
X183503954Y-75739295D01*
X183182424Y-76060264D01*
X183008199Y-76479846D01*
X183007802Y-76934161D01*
X183181295Y-77354046D01*
X183502264Y-77675576D01*
X183921846Y-77849801D01*
X184376161Y-77850198D01*
X184796046Y-77676705D01*
X184889614Y-77583300D01*
X188118109Y-77583300D01*
X188302901Y-77768092D01*
X187614000Y-77768092D01*
X187331991Y-77821156D01*
X187111611Y-77962966D01*
X186915872Y-77829223D01*
X186614000Y-77768092D01*
X185414000Y-77768092D01*
X185131991Y-77821156D01*
X184872982Y-77987823D01*
X184699223Y-78242128D01*
X184638092Y-78544000D01*
X184638092Y-78982047D01*
X183785069Y-79835069D01*
X183595328Y-80119037D01*
X183528699Y-80454000D01*
X183528700Y-80454005D01*
X183528700Y-82151782D01*
X183528699Y-82151787D01*
X183595328Y-82486750D01*
X183785069Y-82770718D01*
X184091351Y-83077000D01*
X183326750Y-83077000D01*
X183137000Y-83266750D01*
X183137000Y-84833000D01*
X183157000Y-84833000D01*
X183157000Y-84839000D01*
X183137000Y-84839000D01*
X183137000Y-86405250D01*
X183326750Y-86595000D01*
X184284974Y-86595000D01*
X184563939Y-86479449D01*
X184703565Y-86339823D01*
X185322179Y-86596694D01*
X185579007Y-86596918D01*
X185055069Y-87120856D01*
X184865328Y-87404824D01*
X184826771Y-87598663D01*
X184703136Y-87649748D01*
X184563939Y-87510551D01*
X184284974Y-87395000D01*
X183326750Y-87395000D01*
X183137000Y-87584750D01*
X183137000Y-89151000D01*
X183157000Y-89151000D01*
X183157000Y-89157000D01*
X183137000Y-89157000D01*
X183137000Y-89177000D01*
X183131000Y-89177000D01*
X183131000Y-89157000D01*
X183111000Y-89157000D01*
X183111000Y-89151000D01*
X183131000Y-89151000D01*
X183131000Y-87584750D01*
X182941250Y-87395000D01*
X182119710Y-87395000D01*
X182243801Y-87096154D01*
X182244198Y-86641839D01*
X182224845Y-86595000D01*
X182941250Y-86595000D01*
X183131000Y-86405250D01*
X183131000Y-84839000D01*
X181564750Y-84839000D01*
X181375000Y-85028750D01*
X181375000Y-85148538D01*
X181332531Y-85106069D01*
X181225011Y-85034227D01*
X181207844Y-84942991D01*
X181041177Y-84683982D01*
X180786872Y-84510223D01*
X180485000Y-84449092D01*
X177285000Y-84449092D01*
X177002991Y-84502156D01*
X176743982Y-84668823D01*
X176603039Y-84875100D01*
X174364158Y-84875100D01*
X174241177Y-84683982D01*
X173986872Y-84510223D01*
X173685000Y-84449092D01*
X170485000Y-84449092D01*
X170202991Y-84502156D01*
X170197969Y-84505388D01*
X170264000Y-84345974D01*
X170264000Y-84012750D01*
X170074250Y-83823000D01*
X168908000Y-83823000D01*
X168908000Y-83843000D01*
X168902000Y-83843000D01*
X168902000Y-83823000D01*
X168882000Y-83823000D01*
X168882000Y-83817000D01*
X168902000Y-83817000D01*
X168902000Y-82875750D01*
X168712250Y-82686000D01*
X168154025Y-82686000D01*
X167959858Y-82766427D01*
X167906872Y-82730223D01*
X167605000Y-82669092D01*
X166405000Y-82669092D01*
X166122991Y-82722156D01*
X165863982Y-82888823D01*
X165690223Y-83143128D01*
X165629092Y-83445000D01*
X165629092Y-84195000D01*
X165676903Y-84449092D01*
X165405000Y-84449092D01*
X165122991Y-84502156D01*
X164863982Y-84668823D01*
X164723039Y-84875100D01*
X162484158Y-84875100D01*
X162361177Y-84683982D01*
X162106872Y-84510223D01*
X161805000Y-84449092D01*
X158605000Y-84449092D01*
X158322991Y-84502156D01*
X158063982Y-84668823D01*
X157906220Y-84899715D01*
X157176677Y-83807875D01*
X156946025Y-83577223D01*
X155854178Y-82847674D01*
X155614129Y-82748243D01*
X155552816Y-82722846D01*
X154264895Y-82466663D01*
X154182555Y-82466663D01*
X154101800Y-82450600D01*
X151635800Y-82450600D01*
X151635800Y-71377621D01*
X151865961Y-71424230D01*
X153565983Y-71424230D01*
X153847992Y-71371166D01*
X154107001Y-71204499D01*
X154280760Y-70950194D01*
X154341891Y-70648322D01*
X154341891Y-65961600D01*
X164490081Y-65961600D01*
X164490081Y-70159000D01*
G36*
X188088199Y-82321846D02*
X188087802Y-82776161D01*
X188261295Y-83196046D01*
X188582264Y-83517576D01*
X189001846Y-83691801D01*
X189134055Y-83691917D01*
X189664700Y-84222561D01*
X189664700Y-84934092D01*
X189415000Y-84934092D01*
X189132991Y-84987156D01*
X188873982Y-85153823D01*
X188700223Y-85408128D01*
X188639092Y-85710000D01*
X188639092Y-86845036D01*
X188480429Y-87003422D01*
X188457313Y-87059092D01*
X187592556Y-87059092D01*
X187635829Y-87015819D01*
X187635832Y-87015817D01*
X187825573Y-86731849D01*
X187835174Y-86683582D01*
X187892202Y-86396886D01*
X187892201Y-86396881D01*
X187892201Y-82453501D01*
X187825573Y-82118538D01*
X187744971Y-81997908D01*
X188222709Y-81997908D01*
X188088199Y-82321846D01*
X188088199Y-82321846D01*
G37*
X188088199Y-82321846D02*
X188087802Y-82776161D01*
X188261295Y-83196046D01*
X188582264Y-83517576D01*
X189001846Y-83691801D01*
X189134055Y-83691917D01*
X189664700Y-84222561D01*
X189664700Y-84934092D01*
X189415000Y-84934092D01*
X189132991Y-84987156D01*
X188873982Y-85153823D01*
X188700223Y-85408128D01*
X188639092Y-85710000D01*
X188639092Y-86845036D01*
X188480429Y-87003422D01*
X188457313Y-87059092D01*
X187592556Y-87059092D01*
X187635829Y-87015819D01*
X187635832Y-87015817D01*
X187825573Y-86731849D01*
X187835174Y-86683582D01*
X187892202Y-86396886D01*
X187892201Y-86396881D01*
X187892201Y-82453501D01*
X187825573Y-82118538D01*
X187744971Y-81997908D01*
X188222709Y-81997908D01*
X188088199Y-82321846D01*
G36*
X193860101Y-70594982D02*
X193913165Y-70876991D01*
X194079832Y-71136000D01*
X194334137Y-71309759D01*
X194636009Y-71370890D01*
X196336031Y-71370890D01*
X196618040Y-71317826D01*
X196877049Y-71151159D01*
X197050808Y-70896854D01*
X197111939Y-70594982D01*
X197111939Y-69571003D01*
X198101666Y-69571003D01*
X198178785Y-69844459D01*
X198445309Y-70245448D01*
X198844997Y-70513919D01*
X199317000Y-70609000D01*
X199467000Y-70609000D01*
X199467000Y-69378000D01*
X198275754Y-69378000D01*
X198101666Y-69571003D01*
X197111939Y-69571003D01*
X197111939Y-69178997D01*
X198101666Y-69178997D01*
X198275754Y-69372000D01*
X199467000Y-69372000D01*
X199467000Y-68141000D01*
X199317000Y-68141000D01*
X198844997Y-68236081D01*
X198445309Y-68504552D01*
X198178785Y-68905541D01*
X198101666Y-69178997D01*
X197111939Y-69178997D01*
X197111939Y-66678000D01*
X197211000Y-66678000D01*
X197211000Y-66953000D01*
X197307984Y-67434570D01*
X197581874Y-67842369D01*
X197990973Y-68114313D01*
X198270087Y-68193026D01*
X198467000Y-68019246D01*
X198467000Y-66678000D01*
X197211000Y-66678000D01*
X197111939Y-66678000D01*
X197111939Y-65961600D01*
X197298686Y-65961600D01*
X197211000Y-66397000D01*
X197211000Y-66672000D01*
X198467000Y-66672000D01*
X198467000Y-66652000D01*
X198473000Y-66652000D01*
X198473000Y-66672000D01*
X198493000Y-66672000D01*
X198493000Y-66678000D01*
X198473000Y-66678000D01*
X198473000Y-68019246D01*
X198669913Y-68193026D01*
X198949027Y-68114313D01*
X199358126Y-67842369D01*
X199632016Y-67434570D01*
X199675641Y-67217950D01*
X199934734Y-67477496D01*
X200354316Y-67651721D01*
X200444700Y-67651800D01*
X200444700Y-67941000D01*
X200319026Y-67941000D01*
X200040061Y-68056551D01*
X199899844Y-68196768D01*
X199623000Y-68141000D01*
X199473000Y-68141000D01*
X199473000Y-69372000D01*
X199493000Y-69372000D01*
X199493000Y-69378000D01*
X199473000Y-69378000D01*
X199473000Y-70609000D01*
X199623000Y-70609000D01*
X199899844Y-70553232D01*
X200040061Y-70693449D01*
X200319026Y-70809000D01*
X200477250Y-70809000D01*
X200641891Y-70644359D01*
X200818128Y-70764777D01*
X200818628Y-70764878D01*
X200862750Y-70809000D01*
X201020974Y-70809000D01*
X201026074Y-70806887D01*
X201094700Y-70820785D01*
X201094700Y-71286100D01*
X199901207Y-71286100D01*
X199783736Y-71168424D01*
X199364154Y-70994199D01*
X198909839Y-70993802D01*
X198489954Y-71167295D01*
X198168424Y-71488264D01*
X197994199Y-71907846D01*
X197993802Y-72362161D01*
X198167295Y-72782046D01*
X198488264Y-73103576D01*
X198907846Y-73277801D01*
X199362161Y-73278198D01*
X199782046Y-73104705D01*
X199901059Y-72985900D01*
X200485639Y-72985900D01*
X199919069Y-73552469D01*
X199763924Y-73784660D01*
X199671982Y-73843823D01*
X199633555Y-73900063D01*
X199364154Y-73788199D01*
X198909839Y-73787802D01*
X198489954Y-73961295D01*
X198168424Y-74282264D01*
X197994199Y-74701846D01*
X197993802Y-75156161D01*
X198167295Y-75576046D01*
X198488264Y-75897576D01*
X198907846Y-76071801D01*
X199362161Y-76072198D01*
X199631116Y-75961068D01*
X199656823Y-76001018D01*
X199705402Y-76034210D01*
X199569551Y-76170061D01*
X199454000Y-76449025D01*
X199454000Y-76937250D01*
X199643750Y-77127000D01*
X200535000Y-77127000D01*
X200535000Y-77107000D01*
X200541000Y-77107000D01*
X200541000Y-77127000D01*
X200561000Y-77127000D01*
X200561000Y-77133000D01*
X200541000Y-77133000D01*
X200541000Y-78229250D01*
X200730750Y-78419000D01*
X201013974Y-78419000D01*
X201292939Y-78303449D01*
X201446494Y-78149894D01*
X201296199Y-78511846D01*
X201296083Y-78644055D01*
X196467127Y-83473011D01*
X196354736Y-83360424D01*
X195935154Y-83186199D01*
X195480839Y-83185802D01*
X195060954Y-83359295D01*
X194836600Y-83583258D01*
X194690038Y-83522401D01*
X194690198Y-83339839D01*
X194516705Y-82919954D01*
X194195736Y-82598424D01*
X193776154Y-82424199D01*
X193321839Y-82423802D01*
X192901954Y-82597295D01*
X192580424Y-82918264D01*
X192406199Y-83337846D01*
X192405802Y-83792161D01*
X192579295Y-84212046D01*
X192664700Y-84297600D01*
X192664700Y-84934092D01*
X192415000Y-84934092D01*
X192285411Y-84958476D01*
X192165000Y-84934092D01*
X191915300Y-84934092D01*
X191915300Y-82014523D01*
X192628308Y-82310590D01*
X193567572Y-82311409D01*
X194435652Y-81952726D01*
X195100392Y-81289145D01*
X195460590Y-80421692D01*
X195461409Y-79482428D01*
X195102726Y-78614348D01*
X194439145Y-77949608D01*
X193571692Y-77589410D01*
X192632428Y-77588591D01*
X191764348Y-77947274D01*
X191360725Y-78350193D01*
X190333283Y-77322750D01*
X199454000Y-77322750D01*
X199454000Y-77810975D01*
X199569551Y-78089939D01*
X199783061Y-78303449D01*
X200062026Y-78419000D01*
X200345250Y-78419000D01*
X200535000Y-78229250D01*
X200535000Y-77133000D01*
X199643750Y-77133000D01*
X199454000Y-77322750D01*
X190333283Y-77322750D01*
X189483557Y-76473024D01*
X189671267Y-76437704D01*
X189785298Y-76364327D01*
X189880882Y-76429637D01*
X190182754Y-76490768D01*
X191389254Y-76490768D01*
X191671263Y-76437704D01*
X191778263Y-76368852D01*
X192031775Y-76473860D01*
X192593250Y-76473860D01*
X192783000Y-76284110D01*
X192783000Y-74117660D01*
X192789000Y-74117660D01*
X192789000Y-76284110D01*
X192978750Y-76473860D01*
X193540225Y-76473860D01*
X193819189Y-76358309D01*
X194032699Y-76144799D01*
X194148250Y-75865834D01*
X194148250Y-74307410D01*
X193958500Y-74117660D01*
X192789000Y-74117660D01*
X192783000Y-74117660D01*
X192763000Y-74117660D01*
X192763000Y-74111660D01*
X192783000Y-74111660D01*
X192783000Y-71945210D01*
X192789000Y-71945210D01*
X192789000Y-74111660D01*
X193958500Y-74111660D01*
X194148250Y-73921910D01*
X194148250Y-72363486D01*
X194032699Y-72084521D01*
X193819189Y-71871011D01*
X193540225Y-71755460D01*
X192978750Y-71755460D01*
X192789000Y-71945210D01*
X192783000Y-71945210D01*
X192593250Y-71755460D01*
X192031775Y-71755460D01*
X191896062Y-71811674D01*
X191896198Y-71655839D01*
X191722705Y-71235954D01*
X191401736Y-70914424D01*
X190982154Y-70740199D01*
X190527839Y-70739802D01*
X190107954Y-70913295D01*
X189786424Y-71234264D01*
X189612199Y-71653846D01*
X189612086Y-71783676D01*
X189597300Y-71780682D01*
X189597300Y-69319851D01*
X189689576Y-69227736D01*
X189863801Y-68808154D01*
X189864198Y-68353839D01*
X189690705Y-67933954D01*
X189369736Y-67612424D01*
X188950154Y-67438199D01*
X188495839Y-67437802D01*
X188075954Y-67611295D01*
X187754424Y-67932264D01*
X187580199Y-68351846D01*
X187579802Y-68806161D01*
X187753295Y-69226046D01*
X187846700Y-69319614D01*
X187846700Y-70244700D01*
X185711911Y-70244700D01*
X185711911Y-65961600D01*
X193860101Y-65961600D01*
X193860101Y-70594982D01*
X193860101Y-70594982D01*
G37*
X193860101Y-70594982D02*
X193913165Y-70876991D01*
X194079832Y-71136000D01*
X194334137Y-71309759D01*
X194636009Y-71370890D01*
X196336031Y-71370890D01*
X196618040Y-71317826D01*
X196877049Y-71151159D01*
X197050808Y-70896854D01*
X197111939Y-70594982D01*
X197111939Y-69571003D01*
X198101666Y-69571003D01*
X198178785Y-69844459D01*
X198445309Y-70245448D01*
X198844997Y-70513919D01*
X199317000Y-70609000D01*
X199467000Y-70609000D01*
X199467000Y-69378000D01*
X198275754Y-69378000D01*
X198101666Y-69571003D01*
X197111939Y-69571003D01*
X197111939Y-69178997D01*
X198101666Y-69178997D01*
X198275754Y-69372000D01*
X199467000Y-69372000D01*
X199467000Y-68141000D01*
X199317000Y-68141000D01*
X198844997Y-68236081D01*
X198445309Y-68504552D01*
X198178785Y-68905541D01*
X198101666Y-69178997D01*
X197111939Y-69178997D01*
X197111939Y-66678000D01*
X197211000Y-66678000D01*
X197211000Y-66953000D01*
X197307984Y-67434570D01*
X197581874Y-67842369D01*
X197990973Y-68114313D01*
X198270087Y-68193026D01*
X198467000Y-68019246D01*
X198467000Y-66678000D01*
X197211000Y-66678000D01*
X197111939Y-66678000D01*
X197111939Y-65961600D01*
X197298686Y-65961600D01*
X197211000Y-66397000D01*
X197211000Y-66672000D01*
X198467000Y-66672000D01*
X198467000Y-66652000D01*
X198473000Y-66652000D01*
X198473000Y-66672000D01*
X198493000Y-66672000D01*
X198493000Y-66678000D01*
X198473000Y-66678000D01*
X198473000Y-68019246D01*
X198669913Y-68193026D01*
X198949027Y-68114313D01*
X199358126Y-67842369D01*
X199632016Y-67434570D01*
X199675641Y-67217950D01*
X199934734Y-67477496D01*
X200354316Y-67651721D01*
X200444700Y-67651800D01*
X200444700Y-67941000D01*
X200319026Y-67941000D01*
X200040061Y-68056551D01*
X199899844Y-68196768D01*
X199623000Y-68141000D01*
X199473000Y-68141000D01*
X199473000Y-69372000D01*
X199493000Y-69372000D01*
X199493000Y-69378000D01*
X199473000Y-69378000D01*
X199473000Y-70609000D01*
X199623000Y-70609000D01*
X199899844Y-70553232D01*
X200040061Y-70693449D01*
X200319026Y-70809000D01*
X200477250Y-70809000D01*
X200641891Y-70644359D01*
X200818128Y-70764777D01*
X200818628Y-70764878D01*
X200862750Y-70809000D01*
X201020974Y-70809000D01*
X201026074Y-70806887D01*
X201094700Y-70820785D01*
X201094700Y-71286100D01*
X199901207Y-71286100D01*
X199783736Y-71168424D01*
X199364154Y-70994199D01*
X198909839Y-70993802D01*
X198489954Y-71167295D01*
X198168424Y-71488264D01*
X197994199Y-71907846D01*
X197993802Y-72362161D01*
X198167295Y-72782046D01*
X198488264Y-73103576D01*
X198907846Y-73277801D01*
X199362161Y-73278198D01*
X199782046Y-73104705D01*
X199901059Y-72985900D01*
X200485639Y-72985900D01*
X199919069Y-73552469D01*
X199763924Y-73784660D01*
X199671982Y-73843823D01*
X199633555Y-73900063D01*
X199364154Y-73788199D01*
X198909839Y-73787802D01*
X198489954Y-73961295D01*
X198168424Y-74282264D01*
X197994199Y-74701846D01*
X197993802Y-75156161D01*
X198167295Y-75576046D01*
X198488264Y-75897576D01*
X198907846Y-76071801D01*
X199362161Y-76072198D01*
X199631116Y-75961068D01*
X199656823Y-76001018D01*
X199705402Y-76034210D01*
X199569551Y-76170061D01*
X199454000Y-76449025D01*
X199454000Y-76937250D01*
X199643750Y-77127000D01*
X200535000Y-77127000D01*
X200535000Y-77107000D01*
X200541000Y-77107000D01*
X200541000Y-77127000D01*
X200561000Y-77127000D01*
X200561000Y-77133000D01*
X200541000Y-77133000D01*
X200541000Y-78229250D01*
X200730750Y-78419000D01*
X201013974Y-78419000D01*
X201292939Y-78303449D01*
X201446494Y-78149894D01*
X201296199Y-78511846D01*
X201296083Y-78644055D01*
X196467127Y-83473011D01*
X196354736Y-83360424D01*
X195935154Y-83186199D01*
X195480839Y-83185802D01*
X195060954Y-83359295D01*
X194836600Y-83583258D01*
X194690038Y-83522401D01*
X194690198Y-83339839D01*
X194516705Y-82919954D01*
X194195736Y-82598424D01*
X193776154Y-82424199D01*
X193321839Y-82423802D01*
X192901954Y-82597295D01*
X192580424Y-82918264D01*
X192406199Y-83337846D01*
X192405802Y-83792161D01*
X192579295Y-84212046D01*
X192664700Y-84297600D01*
X192664700Y-84934092D01*
X192415000Y-84934092D01*
X192285411Y-84958476D01*
X192165000Y-84934092D01*
X191915300Y-84934092D01*
X191915300Y-82014523D01*
X192628308Y-82310590D01*
X193567572Y-82311409D01*
X194435652Y-81952726D01*
X195100392Y-81289145D01*
X195460590Y-80421692D01*
X195461409Y-79482428D01*
X195102726Y-78614348D01*
X194439145Y-77949608D01*
X193571692Y-77589410D01*
X192632428Y-77588591D01*
X191764348Y-77947274D01*
X191360725Y-78350193D01*
X190333283Y-77322750D01*
X199454000Y-77322750D01*
X199454000Y-77810975D01*
X199569551Y-78089939D01*
X199783061Y-78303449D01*
X200062026Y-78419000D01*
X200345250Y-78419000D01*
X200535000Y-78229250D01*
X200535000Y-77133000D01*
X199643750Y-77133000D01*
X199454000Y-77322750D01*
X190333283Y-77322750D01*
X189483557Y-76473024D01*
X189671267Y-76437704D01*
X189785298Y-76364327D01*
X189880882Y-76429637D01*
X190182754Y-76490768D01*
X191389254Y-76490768D01*
X191671263Y-76437704D01*
X191778263Y-76368852D01*
X192031775Y-76473860D01*
X192593250Y-76473860D01*
X192783000Y-76284110D01*
X192783000Y-74117660D01*
X192789000Y-74117660D01*
X192789000Y-76284110D01*
X192978750Y-76473860D01*
X193540225Y-76473860D01*
X193819189Y-76358309D01*
X194032699Y-76144799D01*
X194148250Y-75865834D01*
X194148250Y-74307410D01*
X193958500Y-74117660D01*
X192789000Y-74117660D01*
X192783000Y-74117660D01*
X192763000Y-74117660D01*
X192763000Y-74111660D01*
X192783000Y-74111660D01*
X192783000Y-71945210D01*
X192789000Y-71945210D01*
X192789000Y-74111660D01*
X193958500Y-74111660D01*
X194148250Y-73921910D01*
X194148250Y-72363486D01*
X194032699Y-72084521D01*
X193819189Y-71871011D01*
X193540225Y-71755460D01*
X192978750Y-71755460D01*
X192789000Y-71945210D01*
X192783000Y-71945210D01*
X192593250Y-71755460D01*
X192031775Y-71755460D01*
X191896062Y-71811674D01*
X191896198Y-71655839D01*
X191722705Y-71235954D01*
X191401736Y-70914424D01*
X190982154Y-70740199D01*
X190527839Y-70739802D01*
X190107954Y-70913295D01*
X189786424Y-71234264D01*
X189612199Y-71653846D01*
X189612086Y-71783676D01*
X189597300Y-71780682D01*
X189597300Y-69319851D01*
X189689576Y-69227736D01*
X189863801Y-68808154D01*
X189864198Y-68353839D01*
X189690705Y-67933954D01*
X189369736Y-67612424D01*
X188950154Y-67438199D01*
X188495839Y-67437802D01*
X188075954Y-67611295D01*
X187754424Y-67932264D01*
X187580199Y-68351846D01*
X187579802Y-68806161D01*
X187753295Y-69226046D01*
X187846700Y-69319614D01*
X187846700Y-70244700D01*
X185711911Y-70244700D01*
X185711911Y-65961600D01*
X193860101Y-65961600D01*
X193860101Y-70594982D01*
G36*
X204211000Y-66397000D02*
X204211000Y-66672000D01*
X205467000Y-66672000D01*
X205467000Y-66652000D01*
X205473000Y-66652000D01*
X205473000Y-66672000D01*
X205493000Y-66672000D01*
X205493000Y-66678000D01*
X205473000Y-66678000D01*
X205473000Y-68019246D01*
X205669913Y-68193026D01*
X205949027Y-68114313D01*
X206351800Y-67846574D01*
X206351800Y-82450600D01*
X203885800Y-82450600D01*
X203805045Y-82466663D01*
X202817054Y-82646808D01*
X205850928Y-79612933D01*
X205850931Y-79612931D01*
X206040672Y-79328963D01*
X206068240Y-79190371D01*
X206107301Y-78994000D01*
X206107300Y-78993995D01*
X206107300Y-73914005D01*
X206107301Y-73914000D01*
X206040672Y-73579037D01*
X205979150Y-73486963D01*
X205850931Y-73295069D01*
X205850928Y-73295067D01*
X204245433Y-71689572D01*
X204421576Y-71513736D01*
X204595801Y-71094154D01*
X204596198Y-70639839D01*
X204583456Y-70609000D01*
X204623000Y-70609000D01*
X205095003Y-70513919D01*
X205494691Y-70245448D01*
X205761215Y-69844459D01*
X205838334Y-69571003D01*
X205664246Y-69378000D01*
X204473000Y-69378000D01*
X204473000Y-69398000D01*
X204467000Y-69398000D01*
X204467000Y-69378000D01*
X204447000Y-69378000D01*
X204447000Y-69372000D01*
X204467000Y-69372000D01*
X204467000Y-68141000D01*
X204473000Y-68141000D01*
X204473000Y-69372000D01*
X205664246Y-69372000D01*
X205838334Y-69178997D01*
X205761215Y-68905541D01*
X205494691Y-68504552D01*
X205095003Y-68236081D01*
X204623000Y-68141000D01*
X204473000Y-68141000D01*
X204467000Y-68141000D01*
X204317000Y-68141000D01*
X204049305Y-68194925D01*
X204026177Y-68158982D01*
X203771872Y-67985223D01*
X203470000Y-67924092D01*
X203070000Y-67924092D01*
X202940411Y-67948476D01*
X202820000Y-67924092D01*
X202420000Y-67924092D01*
X202290411Y-67948476D01*
X202195300Y-67929215D01*
X202195300Y-67247455D01*
X202195301Y-67247450D01*
X202128672Y-66912487D01*
X201971994Y-66678000D01*
X204211000Y-66678000D01*
X204211000Y-66953000D01*
X204307984Y-67434570D01*
X204581874Y-67842369D01*
X204990973Y-68114313D01*
X205270087Y-68193026D01*
X205467000Y-68019246D01*
X205467000Y-66678000D01*
X204211000Y-66678000D01*
X201971994Y-66678000D01*
X201938931Y-66628519D01*
X201724554Y-66414142D01*
X201724668Y-66283759D01*
X201591555Y-65961600D01*
X204298686Y-65961600D01*
X204211000Y-66397000D01*
X204211000Y-66397000D01*
G37*
X204211000Y-66397000D02*
X204211000Y-66672000D01*
X205467000Y-66672000D01*
X205467000Y-66652000D01*
X205473000Y-66652000D01*
X205473000Y-66672000D01*
X205493000Y-66672000D01*
X205493000Y-66678000D01*
X205473000Y-66678000D01*
X205473000Y-68019246D01*
X205669913Y-68193026D01*
X205949027Y-68114313D01*
X206351800Y-67846574D01*
X206351800Y-82450600D01*
X203885800Y-82450600D01*
X203805045Y-82466663D01*
X202817054Y-82646808D01*
X205850928Y-79612933D01*
X205850931Y-79612931D01*
X206040672Y-79328963D01*
X206068240Y-79190371D01*
X206107301Y-78994000D01*
X206107300Y-78993995D01*
X206107300Y-73914005D01*
X206107301Y-73914000D01*
X206040672Y-73579037D01*
X205979150Y-73486963D01*
X205850931Y-73295069D01*
X205850928Y-73295067D01*
X204245433Y-71689572D01*
X204421576Y-71513736D01*
X204595801Y-71094154D01*
X204596198Y-70639839D01*
X204583456Y-70609000D01*
X204623000Y-70609000D01*
X205095003Y-70513919D01*
X205494691Y-70245448D01*
X205761215Y-69844459D01*
X205838334Y-69571003D01*
X205664246Y-69378000D01*
X204473000Y-69378000D01*
X204473000Y-69398000D01*
X204467000Y-69398000D01*
X204467000Y-69378000D01*
X204447000Y-69378000D01*
X204447000Y-69372000D01*
X204467000Y-69372000D01*
X204467000Y-68141000D01*
X204473000Y-68141000D01*
X204473000Y-69372000D01*
X205664246Y-69372000D01*
X205838334Y-69178997D01*
X205761215Y-68905541D01*
X205494691Y-68504552D01*
X205095003Y-68236081D01*
X204623000Y-68141000D01*
X204473000Y-68141000D01*
X204467000Y-68141000D01*
X204317000Y-68141000D01*
X204049305Y-68194925D01*
X204026177Y-68158982D01*
X203771872Y-67985223D01*
X203470000Y-67924092D01*
X203070000Y-67924092D01*
X202940411Y-67948476D01*
X202820000Y-67924092D01*
X202420000Y-67924092D01*
X202290411Y-67948476D01*
X202195300Y-67929215D01*
X202195300Y-67247455D01*
X202195301Y-67247450D01*
X202128672Y-66912487D01*
X201971994Y-66678000D01*
X204211000Y-66678000D01*
X204211000Y-66953000D01*
X204307984Y-67434570D01*
X204581874Y-67842369D01*
X204990973Y-68114313D01*
X205270087Y-68193026D01*
X205467000Y-68019246D01*
X205467000Y-66678000D01*
X204211000Y-66678000D01*
X201971994Y-66678000D01*
X201938931Y-66628519D01*
X201724554Y-66414142D01*
X201724668Y-66283759D01*
X201591555Y-65961600D01*
X204298686Y-65961600D01*
X204211000Y-66397000D01*
M02*
