M48
;DRILL file {KiCad 4.0.2+dfsg1-stable} date Wed 23 Nov 2016 09:33:59 PM CST
;FORMAT={-:-/ absolute / inch / decimal}
FMAT,2
INCH,TZ
T1C0.013
T2C0.020
T3C0.022
T4C0.039
T5C0.040
T6C0.040
%
G90
G05
M72
T1
X6.Y-3.8
X6.025Y-4.205
X6.025Y-4.3
X6.025Y-4.4
X6.025Y-4.5
X6.05Y-4.25
X6.05Y-4.35
X6.05Y-4.45
X6.075Y-4.205
X6.075Y-4.3
X6.075Y-4.4
X6.075Y-4.5
X6.1Y-4.25
X6.1Y-4.35
X6.1Y-4.45
X6.1145Y-3.8158
X6.125Y-4.205
X6.125Y-4.3
X6.15Y-4.35
X6.155Y-3.95
X6.17Y-3.87
X6.2Y-3.245
X6.22Y-3.6
X6.225Y-4.24
X6.25Y-3.7
X6.25Y-4.2
X6.25Y-4.275
X6.275Y-4.24
X6.28Y-3.255
X6.3Y-3.7
X6.3Y-4.2
X6.3Y-4.275
X6.3Y-4.34
X6.325Y-4.24
X6.325Y-4.305
X6.335Y-3.955
X6.35Y-4.2
X6.35Y-4.275
X6.35Y-4.34
X6.355Y-3.055
X6.375Y-4.24
X6.375Y-4.305
X6.38Y-4.02
X6.38Y-4.375
X6.39Y-3.75
X6.495Y-4.04
X6.575Y-3.475
X6.61Y-2.96
X6.61Y-2.99
X6.61Y-3.02
X6.625Y-3.245
X6.625Y-4.175
X6.625Y-4.275
X6.625Y-4.37
X6.63Y-4.48
X6.635Y-3.695
X6.65Y-4.225
X6.65Y-4.325
X6.655Y-3.775
X6.675Y-4.175
X6.675Y-4.275
X6.675Y-4.37
X6.6982Y-3.7804
X6.7Y-4.225
X6.7Y-4.325
X6.725Y-4.275
X6.725Y-4.275
X6.725Y-4.37
X6.75Y-4.225
X6.75Y-4.225
X6.75Y-4.325
X6.7578Y-3.7968
X6.775Y-3.576
X6.7752Y-4.2752
X6.8Y-4.225
X6.8Y-4.325
X6.815Y-3.595
X6.825Y-4.2753
X6.84Y-2.8
X6.85Y-3.8
X6.85Y-4.225
X6.85Y-4.325
X6.87Y-2.8
X6.88Y-4.275
X6.9Y-3.95
X6.9Y-4.425
X6.91Y-3.61
X6.91Y-3.67
X6.93Y-4.47
X6.95Y-4.425
X6.97Y-4.275
X6.97Y-4.375
X6.975Y-4.47
X7.Y-3.7
X7.Y-4.225
X7.Y-4.325
X7.Y-4.425
X7.025Y-4.275
X7.025Y-4.375
X7.025Y-4.47
X7.05Y-3.7
X7.05Y-4.225
X7.05Y-4.325
X7.05Y-4.425
X7.075Y-4.275
X7.08Y-2.91
X7.0801Y-3.9345
X7.0843Y-3.9915
X7.1Y-2.86
X7.1Y-3.7
X7.1Y-4.225
X7.13Y-2.86
X7.13Y-3.42
X7.15Y-4.345
X7.2Y-4.28
X7.225Y-4.195
X7.225Y-4.345
X7.25Y-3.02
X7.25Y-4.28
X7.275Y-4.345
X7.3Y-4.28
X7.3Y-4.535
X7.3Y-4.595
X7.3Y-4.65
X7.325Y-4.345
X7.33Y-3.68
X7.34Y-2.83
X7.34Y-4.51
X7.34Y-4.565
X7.34Y-4.62
X7.35Y-4.28
X7.37Y-4.65
X7.37Y-4.7
X7.37Y-4.75
X7.385Y-4.345
X7.395Y-4.3
X7.41Y-3.79
X7.425Y-4.385
X7.425Y-4.425
X7.425Y-4.475
X7.425Y-4.525
X7.425Y-4.56
X7.425Y-4.625
X7.425Y-4.675
X7.425Y-4.725
X7.425Y-4.775
X7.43Y-2.7
X7.435Y-4.335
X7.45Y-3.25
X7.4586Y-3.4508
X7.46Y-3.33
X7.46Y-3.5
X7.46Y-3.58
X7.46Y-3.6467
X7.465Y-4.385
X7.49Y-3.17
X7.49Y-3.22
X7.51Y-2.83
X7.59Y-2.82
X7.595Y-3.015
X7.5984Y-4.3493
X7.61Y-4.51
X7.62Y-3.29
X7.6482Y-3.33
X7.6733Y-3.4947
X7.68Y-3.58
X7.68Y-4.
X7.69Y-3.53
X7.69Y-3.65
X7.705Y-3.32
X7.735Y-3.42
X7.74Y-4.56
X7.835Y-4.525
X7.84Y-2.84
X7.84Y-2.95
X7.84Y-4.42
X7.8969Y-2.6185
X7.9Y-2.79
X7.9Y-3.1
X7.94Y-2.88
X7.9508Y-4.1177
X7.97Y-3.1
X8.01Y-2.79
T4
X7.21Y-3.34
X7.21Y-3.51
X7.31Y-3.34
X7.31Y-3.51
T5
X6.75Y-3.2
X6.85Y-3.2
X7.36Y-3.91
X7.36Y-4.01
X7.36Y-4.11
X7.46Y-3.91
X7.46Y-4.01
X7.46Y-4.11
X8.08Y-3.62
X8.08Y-3.72
X8.08Y-3.82
T6
X6.1815Y-4.4417
X6.3193Y-4.4417
X6.6815Y-4.439
X6.8193Y-4.439
X7.1811Y-4.439
X7.3189Y-4.439
T2
X7.8138Y-2.6122G85X7.8138Y-2.6378
G05
X8.0894Y-2.6122G85X8.0894Y-2.6378
G05
T3
X7.8591Y-2.7313G85X7.8472Y-2.7313
G05
X8.0559Y-2.7313G85X8.0441Y-2.7313
G05
T0
M30
