G04 #@! TF.FileFunction,Copper,L2,Bot,Signal*
%FSLAX46Y46*%
G04 Gerber Fmt 4.6, Leading zero omitted, Abs format (unit mm)*
G04 Created by KiCad (PCBNEW 4.0.2+dfsg1-stable) date Wed 23 Nov 2016 09:34:03 PM CST*
%MOMM*%
G01*
G04 APERTURE LIST*
%ADD10C,0.090000*%
%ADD11R,1.200000X0.750000*%
%ADD12R,0.750000X1.200000*%
%ADD13R,2.032000X1.727200*%
%ADD14O,2.032000X1.727200*%
%ADD15O,1.250000X0.950000*%
%ADD16O,1.000000X1.550000*%
%ADD17R,0.900000X1.200000*%
%ADD18R,1.200000X0.900000*%
%ADD19R,0.650000X1.060000*%
%ADD20R,0.508000X1.143000*%
%ADD21C,1.700000*%
%ADD22R,2.032000X2.032000*%
%ADD23O,2.032000X2.032000*%
%ADD24R,0.800100X1.800860*%
%ADD25R,1.220000X0.910000*%
%ADD26R,1.727200X1.727200*%
%ADD27O,1.727200X1.727200*%
%ADD28R,2.000000X2.000000*%
%ADD29C,2.000000*%
%ADD30C,0.762000*%
%ADD31C,0.228600*%
%ADD32C,0.381000*%
%ADD33C,0.254000*%
%ADD34C,0.177800*%
%ADD35C,0.635000*%
%ADD36C,0.400000*%
%ADD37C,0.502000*%
G04 APERTURE END LIST*
D10*
D11*
X161920000Y-96266000D03*
X160020000Y-96266000D03*
X161920000Y-97790000D03*
X160020000Y-97790000D03*
X160020000Y-99314000D03*
X161920000Y-99314000D03*
X179070000Y-78232000D03*
X177170000Y-78232000D03*
D12*
X181102000Y-81910000D03*
X181102000Y-80010000D03*
X182626000Y-81910000D03*
X182626000Y-80010000D03*
D11*
X179578000Y-96012000D03*
X177678000Y-96012000D03*
X179578000Y-97536000D03*
X177678000Y-97536000D03*
X202560000Y-74676000D03*
X200660000Y-74676000D03*
X177678000Y-99060000D03*
X179578000Y-99060000D03*
X202560000Y-76200000D03*
X200660000Y-76200000D03*
X186060000Y-78740000D03*
X187960000Y-78740000D03*
D12*
X191770000Y-87000000D03*
X191770000Y-88900000D03*
X193040000Y-87000000D03*
X193040000Y-88900000D03*
X194310000Y-87000000D03*
X194310000Y-88900000D03*
X190500000Y-92710000D03*
X190500000Y-90810000D03*
X191770000Y-92710000D03*
X191770000Y-90810000D03*
X193040000Y-92710000D03*
X193040000Y-90810000D03*
X194310000Y-92710000D03*
X194310000Y-90810000D03*
D13*
X205232000Y-97028000D03*
D14*
X205232000Y-94488000D03*
X205232000Y-91948000D03*
D15*
X204470000Y-69375000D03*
X199470000Y-69375000D03*
D16*
X205470000Y-66675000D03*
X198470000Y-66675000D03*
D17*
X174244000Y-100330000D03*
X174244000Y-98130000D03*
X172720000Y-98130000D03*
X172720000Y-100330000D03*
X155194000Y-100330000D03*
X155194000Y-98130000D03*
X153670000Y-98130000D03*
X153670000Y-100330000D03*
D18*
X170520000Y-92710000D03*
X172720000Y-92710000D03*
D19*
X177170000Y-80010000D03*
X178120000Y-80010000D03*
X179070000Y-80010000D03*
X179070000Y-82210000D03*
X177170000Y-82210000D03*
D20*
X188976000Y-70358000D03*
X187706000Y-70358000D03*
X186436000Y-70358000D03*
X185166000Y-70358000D03*
X185166000Y-76708000D03*
X186436000Y-76708000D03*
X187706000Y-76708000D03*
X188976000Y-76708000D03*
D21*
X157010000Y-112820000D03*
X160510000Y-112820000D03*
X169710000Y-112750000D03*
X173210000Y-112750000D03*
X182400000Y-112750000D03*
X185900000Y-112750000D03*
D22*
X171450000Y-81280000D03*
D23*
X173990000Y-81280000D03*
D24*
X179004000Y-75392280D03*
X177104000Y-75392280D03*
X178054000Y-72390000D03*
D11*
X177292000Y-84074000D03*
X179192000Y-84074000D03*
X202560000Y-77724000D03*
X200660000Y-77724000D03*
D12*
X190500000Y-87000000D03*
X190500000Y-88900000D03*
D18*
X200660000Y-67310000D03*
X202860000Y-67310000D03*
X194310000Y-114554000D03*
X196510000Y-114554000D03*
X196510000Y-113030000D03*
X194310000Y-113030000D03*
D25*
X203200000Y-99854000D03*
X203200000Y-103124000D03*
X201168000Y-99854000D03*
X201168000Y-103124000D03*
X199136000Y-99854000D03*
X199136000Y-103124000D03*
X197104000Y-99854000D03*
X197104000Y-103124000D03*
X195072000Y-99854000D03*
X195072000Y-103124000D03*
X192867488Y-99854000D03*
X192867488Y-103124000D03*
D26*
X186944000Y-99314000D03*
D27*
X189484000Y-99314000D03*
X186944000Y-101854000D03*
X189484000Y-101854000D03*
X186944000Y-104394000D03*
X189484000Y-104394000D03*
D28*
X183134000Y-84836000D03*
D29*
X185674000Y-84836000D03*
D28*
X183134000Y-89154000D03*
D29*
X185674000Y-89154000D03*
D30*
X189484000Y-84582000D03*
X201951116Y-104590716D03*
X192913000Y-76581000D03*
X179834734Y-99936235D03*
X179940311Y-101384057D03*
X171648530Y-96438792D03*
X173101000Y-91313000D03*
X167005000Y-88265000D03*
X168275000Y-82423000D03*
X195072000Y-101600000D03*
X194902471Y-88766492D03*
X167894000Y-76707994D03*
X167894000Y-75946000D03*
X167894000Y-75184000D03*
X200660000Y-70866000D03*
X200660000Y-78740000D03*
X179832000Y-73914000D03*
X192786000Y-71628000D03*
X180340000Y-93980014D03*
X162052000Y-102108000D03*
X199136000Y-112268000D03*
X152400000Y-96520000D03*
X162306000Y-95250000D03*
X189484000Y-88900000D03*
X195072000Y-90932000D03*
X189484000Y-90932000D03*
X160020000Y-93980000D03*
X158750000Y-93980000D03*
X168529000Y-93853000D03*
X170134894Y-96022802D03*
X199009000Y-114935000D03*
X175514000Y-91694000D03*
X160909000Y-100457000D03*
X175514000Y-93218000D03*
X199136000Y-74930000D03*
X203454000Y-70866000D03*
X201676000Y-73152000D03*
X155309376Y-96920388D03*
X173990000Y-96520000D03*
X177800000Y-93980000D03*
X181102000Y-86868000D03*
X199136000Y-72136000D03*
X196469003Y-86867997D03*
X202438000Y-78740000D03*
X189448005Y-87651158D03*
X195326000Y-92710000D03*
X189484000Y-92625400D03*
X186436000Y-71882000D03*
X190754000Y-71882000D03*
X188722000Y-68580000D03*
X181102000Y-72644000D03*
X174498000Y-71120000D03*
X180340000Y-72644000D03*
X173736000Y-71120000D03*
X195707000Y-84328000D03*
X195326000Y-89662000D03*
X200582470Y-66509920D03*
X193000315Y-110472537D03*
X161417000Y-77597000D03*
X169037000Y-95885000D03*
X159512000Y-82677000D03*
X157480000Y-82423000D03*
X157988000Y-91440000D03*
X190246000Y-80518000D03*
X193548000Y-83566000D03*
X194263920Y-84582000D03*
X190246000Y-81788000D03*
X162052000Y-111125000D03*
X160020000Y-110236000D03*
X161290000Y-110236000D03*
X161925000Y-109347000D03*
X160655000Y-109347000D03*
X161925000Y-107696000D03*
X160655000Y-107696000D03*
X159385000Y-107696004D03*
X158115000Y-107696006D03*
X158750000Y-108585000D03*
X160020000Y-108585000D03*
X161290000Y-108585000D03*
X158750000Y-106680000D03*
X160020000Y-106680000D03*
X161290000Y-106680000D03*
X178435000Y-113538000D03*
X179070000Y-112394966D03*
X177800004Y-112395000D03*
X177165000Y-113538000D03*
X176022000Y-113538000D03*
X175260000Y-112395000D03*
X176530000Y-112395000D03*
X177038000Y-111125000D03*
X178435000Y-111125000D03*
X179070000Y-109855000D03*
X177800000Y-109855000D03*
X177038000Y-108585000D03*
X178435000Y-108585000D03*
X179705000Y-108585000D03*
X180340000Y-107315000D03*
X179070000Y-107315000D03*
X177800000Y-107315000D03*
X186436000Y-114554000D03*
X186436000Y-117348000D03*
X186436000Y-115951000D03*
X185420000Y-115189000D03*
X185420000Y-116713000D03*
X185420000Y-118110000D03*
X187198000Y-118110000D03*
X187198000Y-119380000D03*
X187198000Y-120650000D03*
X188595000Y-117475000D03*
X188595000Y-118745000D03*
X188595000Y-120015000D03*
X188595000Y-121285000D03*
X184150000Y-76708000D03*
X189230000Y-82550000D03*
X153035000Y-114300000D03*
X154305000Y-114300000D03*
X154940000Y-113030000D03*
X153670000Y-113030000D03*
X156210000Y-110490000D03*
X154305000Y-111760000D03*
X153035000Y-111760000D03*
X153670000Y-110490000D03*
X154940000Y-110490000D03*
X155575000Y-109220000D03*
X154305000Y-109220000D03*
X153035000Y-109220000D03*
X153670000Y-107950000D03*
X154940000Y-107950000D03*
X155575000Y-106807000D03*
X154305000Y-106807000D03*
X153035000Y-106807000D03*
X156337000Y-100330000D03*
X168402000Y-113792000D03*
X170815000Y-110998000D03*
X169545000Y-110998000D03*
X168275000Y-110998000D03*
X174752000Y-108585000D03*
X173990000Y-109855000D03*
X172720000Y-109855000D03*
X171450000Y-109855000D03*
X170180000Y-109855000D03*
X168910000Y-109855000D03*
X168275000Y-106045000D03*
X169545000Y-106045000D03*
X170180000Y-107315000D03*
X168910000Y-107315000D03*
X168275000Y-108585000D03*
X169545000Y-108585000D03*
X173355782Y-108592886D03*
X172090070Y-108589965D03*
X170815000Y-108585000D03*
X170815000Y-108585000D03*
X173990000Y-107315000D03*
X172720000Y-107315000D03*
X171450000Y-107315000D03*
X171450000Y-107315000D03*
X175260000Y-100330000D03*
X187833000Y-109220000D03*
X188849000Y-110109000D03*
X182880000Y-108712000D03*
X184150000Y-108712000D03*
X185420000Y-108712000D03*
X186690000Y-108712000D03*
X181610000Y-110363000D03*
X183515000Y-110363000D03*
X184785000Y-110363000D03*
X186055000Y-110363000D03*
X187579000Y-110363000D03*
X188595000Y-112395000D03*
X188595000Y-111379000D03*
X189611000Y-111379000D03*
X188595000Y-113665000D03*
X188595000Y-114935000D03*
X188595000Y-115824000D03*
X193294020Y-114554000D03*
X179070000Y-93980014D03*
X172085000Y-90830380D03*
X188214000Y-96266000D03*
X186182000Y-93472000D03*
X183515000Y-106553000D03*
X164973000Y-102616000D03*
X156718000Y-98298000D03*
X196596000Y-115824000D03*
D31*
X183134000Y-84836000D02*
X183134000Y-86064600D01*
X183134000Y-86064600D02*
X183248301Y-86178901D01*
X183248301Y-86178901D02*
X187887099Y-86178901D01*
X187887099Y-86178901D02*
X189484000Y-84582000D01*
X197104000Y-103807600D02*
X197104000Y-103124000D01*
X197906311Y-104609911D02*
X197104000Y-103807600D01*
X200365689Y-104609911D02*
X197906311Y-104609911D01*
X201168000Y-103807600D02*
X200365689Y-104609911D01*
X205232000Y-97028000D02*
X205232000Y-103720068D01*
X204742351Y-104209717D02*
X204361352Y-104590716D01*
X201951116Y-104590716D02*
X203822537Y-104590716D01*
X203822537Y-104590716D02*
X204361352Y-104590716D01*
X205232000Y-103720068D02*
X204742351Y-104209717D01*
X201168000Y-103807600D02*
X201951116Y-104590716D01*
X194310000Y-113030000D02*
X194310000Y-112351400D01*
X194310000Y-112351400D02*
X194901400Y-111760000D01*
X194901400Y-111760000D02*
X198628000Y-111760000D01*
X198628000Y-111760000D02*
X199136000Y-112268000D01*
D32*
X187706000Y-76708000D02*
X187706000Y-75946000D01*
X187706000Y-75946000D02*
X188468000Y-75184000D01*
X188468000Y-75184000D02*
X191516000Y-75184000D01*
X191516000Y-75184000D02*
X192913000Y-76581000D01*
D33*
X179825235Y-99936235D02*
X179834734Y-99936235D01*
X172720000Y-100330000D02*
X172720000Y-101184000D01*
X179578000Y-99060000D02*
X179578000Y-99689000D01*
X179578000Y-99689000D02*
X179825235Y-99936235D01*
X179185553Y-101600000D02*
X179401496Y-101384057D01*
X172720000Y-101184000D02*
X173136000Y-101600000D01*
X173136000Y-101600000D02*
X179185553Y-101600000D01*
X179401496Y-101384057D02*
X179940311Y-101384057D01*
D34*
X172720000Y-92710000D02*
X172720000Y-95367322D01*
D31*
X172720000Y-100330000D02*
X172720000Y-100180000D01*
X171648530Y-99108530D02*
X171648530Y-96977607D01*
X171648530Y-96977607D02*
X171648530Y-96438792D01*
D34*
X172029529Y-96057793D02*
X171648530Y-96438792D01*
D31*
X172720000Y-100180000D02*
X171648530Y-99108530D01*
D34*
X172720000Y-95367322D02*
X172029529Y-96057793D01*
D33*
X173101000Y-91313000D02*
X173101000Y-92329000D01*
X173101000Y-92329000D02*
X172720000Y-92710000D01*
D34*
X167005000Y-88265000D02*
X167005000Y-86487000D01*
X167005000Y-86487000D02*
X169672000Y-83820000D01*
D35*
X169672000Y-83820000D02*
X168275000Y-82423000D01*
X168275000Y-82423000D02*
X167894000Y-82042000D01*
D34*
X195425000Y-101600000D02*
X195072000Y-101600000D01*
X196949000Y-103124000D02*
X195425000Y-101600000D01*
D31*
X194363656Y-88766492D02*
X194902471Y-88766492D01*
X194310000Y-88900000D02*
X194310000Y-88820148D01*
X194310000Y-88820148D02*
X194363656Y-88766492D01*
D35*
X167894000Y-82042000D02*
X167894000Y-75184000D01*
X174244000Y-83820000D02*
X169672000Y-83820000D01*
X176022000Y-85598000D02*
X174244000Y-83820000D01*
X178678000Y-85598000D02*
X176022000Y-85598000D01*
X179192000Y-84074000D02*
X179192000Y-85084000D01*
X179192000Y-85084000D02*
X178678000Y-85598000D01*
D31*
X179004000Y-75392280D02*
X182925720Y-75392280D01*
X182925720Y-75392280D02*
X184912000Y-73406000D01*
X184912000Y-73406000D02*
X192786000Y-73406000D01*
X192786000Y-73406000D02*
X200660000Y-73406000D01*
X192786000Y-71628000D02*
X192786000Y-73406000D01*
X200660000Y-74676000D02*
X200660000Y-73406000D01*
X200660000Y-73406000D02*
X200660000Y-70866000D01*
X200660000Y-78740000D02*
X200660000Y-77724000D01*
X200660000Y-76200000D02*
X200660000Y-74676000D01*
X200660000Y-77724000D02*
X200660000Y-76200000D01*
X179353250Y-73914000D02*
X179832000Y-73914000D01*
X179004000Y-75392280D02*
X179004000Y-74263250D01*
X179004000Y-74263250D02*
X179353250Y-73914000D01*
X187706000Y-76708000D02*
X187706000Y-78486000D01*
X187706000Y-78486000D02*
X187960000Y-78740000D01*
X182626000Y-80010000D02*
X181102000Y-80010000D01*
X178120000Y-83227000D02*
X178120000Y-81026000D01*
X178120000Y-81026000D02*
X178120000Y-80768600D01*
X181102000Y-80010000D02*
X180498400Y-80010000D01*
X180498400Y-80010000D02*
X179482400Y-81026000D01*
X179482400Y-81026000D02*
X178120000Y-81026000D01*
X179192000Y-84074000D02*
X178967000Y-84074000D01*
X178967000Y-84074000D02*
X178120000Y-83227000D01*
X178120000Y-80768600D02*
X178120000Y-80010000D01*
X178120000Y-80010000D02*
X178120000Y-78957000D01*
X178120000Y-78957000D02*
X177395000Y-78232000D01*
X177395000Y-78232000D02*
X177170000Y-78232000D01*
X177170000Y-78232000D02*
X177170000Y-77226280D01*
X177170000Y-77226280D02*
X177434280Y-76962000D01*
X177934660Y-76962000D02*
X179004000Y-75892660D01*
X177434280Y-76962000D02*
X177934660Y-76962000D01*
X179004000Y-75892660D02*
X179004000Y-75392280D01*
X191516000Y-70358000D02*
X192786000Y-71628000D01*
X188976000Y-70358000D02*
X191516000Y-70358000D01*
X201168000Y-103124000D02*
X201168000Y-103807600D01*
X195425000Y-104648000D02*
X196949000Y-103124000D01*
X196949000Y-103124000D02*
X197104000Y-103124000D01*
X193707888Y-104648000D02*
X195425000Y-104648000D01*
X192867488Y-103124000D02*
X192867488Y-103807600D01*
X192867488Y-103807600D02*
X193707888Y-104648000D01*
X179959001Y-94361013D02*
X180340000Y-93980014D01*
X179578000Y-96012000D02*
X179578000Y-94742014D01*
X179578000Y-94742014D02*
X179959001Y-94361013D01*
D32*
X153670000Y-101600000D02*
X153670000Y-100330000D01*
X154178000Y-102108000D02*
X153670000Y-101600000D01*
X162052000Y-102108000D02*
X154178000Y-102108000D01*
D31*
X161920000Y-99314000D02*
X161920000Y-101976000D01*
X161920000Y-101976000D02*
X162052000Y-102108000D01*
X161920000Y-97790000D02*
X161920000Y-96266000D01*
X161920000Y-99314000D02*
X161920000Y-97790000D01*
X152400000Y-99738600D02*
X152400000Y-96520000D01*
X153670000Y-100330000D02*
X152991400Y-100330000D01*
X152991400Y-100330000D02*
X152400000Y-99738600D01*
X161920000Y-96266000D02*
X161920000Y-95636000D01*
X161920000Y-95636000D02*
X162306000Y-95250000D01*
X179578000Y-99060000D02*
X179578000Y-97536000D01*
X179578000Y-96012000D02*
X179578000Y-97536000D01*
X202014600Y-65786000D02*
X200087600Y-65786000D01*
X200087600Y-65786000D02*
X199198600Y-66675000D01*
X199198600Y-66675000D02*
X198470000Y-66675000D01*
X202860000Y-67310000D02*
X202860000Y-66631400D01*
X202860000Y-66631400D02*
X202014600Y-65786000D01*
X202860000Y-67310000D02*
X204835000Y-67310000D01*
X204835000Y-67310000D02*
X205470000Y-66675000D01*
X189484000Y-88900000D02*
X190500000Y-88900000D01*
X195072000Y-90932000D02*
X194432000Y-90932000D01*
X194432000Y-90932000D02*
X194310000Y-90810000D01*
X189484000Y-90932000D02*
X190378000Y-90932000D01*
X190378000Y-90932000D02*
X190500000Y-90810000D01*
D32*
X190500000Y-88900000D02*
X190500000Y-90810000D01*
X191770000Y-88900000D02*
X191770000Y-90810000D01*
X193040000Y-88900000D02*
X193040000Y-90810000D01*
X194310000Y-88900000D02*
X194310000Y-90810000D01*
X193040000Y-88900000D02*
X194310000Y-88900000D01*
X191770000Y-88900000D02*
X193040000Y-88900000D01*
X190500000Y-88900000D02*
X191770000Y-88900000D01*
X191770000Y-90810000D02*
X190500000Y-90810000D01*
X193040000Y-90810000D02*
X191770000Y-90810000D01*
X194310000Y-90810000D02*
X193040000Y-90810000D01*
D31*
X160020000Y-96266000D02*
X160020000Y-93980000D01*
X160020000Y-97790000D02*
X159385000Y-97790000D01*
X159385000Y-97790000D02*
X158750000Y-97155000D01*
X158750000Y-97155000D02*
X158750000Y-93980000D01*
D33*
X186060000Y-78740000D02*
X185206000Y-78740000D01*
X185206000Y-78740000D02*
X184444000Y-77978000D01*
X184444000Y-77978000D02*
X184150000Y-77978000D01*
X184150000Y-77978000D02*
X183388000Y-77216000D01*
X183388000Y-75692000D02*
X184150000Y-74930000D01*
X183388000Y-77216000D02*
X183388000Y-75692000D01*
X184150000Y-74930000D02*
X187706000Y-74930000D01*
D31*
X187985411Y-74650589D02*
X187706000Y-74930000D01*
X188086999Y-74549001D02*
X187985411Y-74650589D01*
X198755001Y-74549001D02*
X188086999Y-74549001D01*
X199136000Y-74930000D02*
X198755001Y-74549001D01*
D33*
X192278000Y-110617000D02*
X187765356Y-106104356D01*
X192278000Y-115824000D02*
X192278000Y-110617000D01*
X180661642Y-102527088D02*
X172787642Y-102527088D01*
X184238910Y-106104356D02*
X180661642Y-102527088D01*
X199009000Y-114935000D02*
X197104000Y-116840000D01*
X197104000Y-116840000D02*
X193294000Y-116840000D01*
X170134894Y-99874340D02*
X170134894Y-96561617D01*
X193294000Y-116840000D02*
X192278000Y-115824000D01*
X187765356Y-106104356D02*
X184238910Y-106104356D01*
X172787642Y-102527088D02*
X170134894Y-99874340D01*
X170134894Y-96561617D02*
X170134894Y-96022802D01*
D31*
X169753895Y-95077895D02*
X168529000Y-93853000D01*
X170134894Y-96022802D02*
X169753895Y-95641803D01*
X169753895Y-95641803D02*
X169753895Y-95077895D01*
D34*
X175514000Y-93218000D02*
X175514000Y-91694000D01*
X175514000Y-91694000D02*
X175514000Y-88392000D01*
X160610200Y-100457000D02*
X160909000Y-100457000D01*
X160020000Y-99314000D02*
X160020000Y-99866800D01*
X160020000Y-99866800D02*
X160610200Y-100457000D01*
X178943000Y-86487000D02*
X181102000Y-84328000D01*
X181102000Y-84328000D02*
X181102000Y-81910000D01*
X177419000Y-86487000D02*
X178943000Y-86487000D01*
X175514000Y-88392000D02*
X177419000Y-86487000D01*
D33*
X184282000Y-81910000D02*
X186060000Y-80132000D01*
X186060000Y-80132000D02*
X186060000Y-78740000D01*
X182626000Y-81910000D02*
X184282000Y-81910000D01*
D31*
X187706000Y-74930000D02*
X186436000Y-76200000D01*
X186436000Y-76200000D02*
X186436000Y-76708000D01*
X203454000Y-71374000D02*
X203454000Y-70866000D01*
X201676000Y-73152000D02*
X203454000Y-71374000D01*
X201676000Y-73188400D02*
X201676000Y-73152000D01*
X202560000Y-74676000D02*
X202560000Y-74072400D01*
X202560000Y-74072400D02*
X201676000Y-73188400D01*
X186436000Y-76708000D02*
X186436000Y-78364000D01*
X186436000Y-78364000D02*
X186060000Y-78740000D01*
X181102000Y-81910000D02*
X182626000Y-81910000D01*
X179070000Y-82210000D02*
X180802000Y-82210000D01*
X180802000Y-82210000D02*
X181102000Y-81910000D01*
X155848191Y-96920388D02*
X155309376Y-96920388D01*
X157401388Y-96920388D02*
X155848191Y-96920388D01*
X159795000Y-99314000D02*
X157401388Y-96920388D01*
X160020000Y-99314000D02*
X159795000Y-99314000D01*
X177453000Y-99060000D02*
X174913000Y-96520000D01*
X174913000Y-96520000D02*
X173990000Y-96520000D01*
X177678000Y-99060000D02*
X177453000Y-99060000D01*
X177170000Y-82210000D02*
X177170000Y-83952000D01*
X177170000Y-83952000D02*
X177292000Y-84074000D01*
X177170000Y-82210000D02*
X177170000Y-80010000D01*
X175514000Y-78994000D02*
X176530000Y-80010000D01*
X176530000Y-80010000D02*
X177170000Y-80010000D01*
X175514000Y-76353630D02*
X175514000Y-78994000D01*
X177104000Y-75392280D02*
X176475350Y-75392280D01*
X176475350Y-75392280D02*
X175514000Y-76353630D01*
X179070000Y-78232000D02*
X179070000Y-80010000D01*
X177453000Y-97536000D02*
X176530000Y-96613000D01*
X176530000Y-96613000D02*
X176530000Y-95250000D01*
X176530000Y-95250000D02*
X177419001Y-94360999D01*
X177419001Y-94360999D02*
X177800000Y-93980000D01*
X177678000Y-97536000D02*
X177453000Y-97536000D01*
X189448005Y-87651158D02*
X181885158Y-87651158D01*
X181885158Y-87651158D02*
X181102000Y-86868000D01*
D33*
X200152000Y-101553600D02*
X200152000Y-104140000D01*
X196850000Y-101600000D02*
X195104000Y-99854000D01*
X197612000Y-101600000D02*
X196850000Y-101600000D01*
X198120000Y-102108000D02*
X197612000Y-101600000D01*
X198120000Y-103813082D02*
X198120000Y-102108000D01*
X198446918Y-104140000D02*
X198120000Y-103813082D01*
X200152000Y-104140000D02*
X198446918Y-104140000D01*
X195104000Y-99854000D02*
X195072000Y-99854000D01*
D31*
X204307099Y-103921901D02*
X204470000Y-103759000D01*
X201279822Y-101553600D02*
X202247099Y-102520877D01*
X202247099Y-102520877D02*
X202247099Y-103853321D01*
X202315679Y-103921901D02*
X204307099Y-103921901D01*
X202247099Y-103853321D02*
X202315679Y-103921901D01*
X204470000Y-101807600D02*
X203200000Y-100537600D01*
X204470000Y-103759000D02*
X204470000Y-101807600D01*
X203200000Y-100537600D02*
X203200000Y-99854000D01*
D34*
X185166000Y-70358000D02*
X185166000Y-70040500D01*
X185166000Y-70040500D02*
X187515500Y-67691000D01*
X187515500Y-67691000D02*
X190881000Y-67691000D01*
X190881000Y-67691000D02*
X195326000Y-72136000D01*
X195326000Y-72136000D02*
X199136000Y-72136000D01*
X188595000Y-87757000D02*
X188595000Y-91736400D01*
X188595000Y-91736400D02*
X189484000Y-92625400D01*
X188700842Y-87651158D02*
X188595000Y-87757000D01*
X189448005Y-87651158D02*
X188700842Y-87651158D01*
D31*
X196337000Y-87000000D02*
X196469003Y-86867997D01*
X194310000Y-87000000D02*
X196337000Y-87000000D01*
X202560000Y-78618000D02*
X202438000Y-78740000D01*
X202560000Y-77724000D02*
X202560000Y-78618000D01*
X202560000Y-77724000D02*
X202560000Y-76200000D01*
X199136000Y-99854000D02*
X199136000Y-100537600D01*
X203200000Y-99854000D02*
X203200000Y-99170400D01*
X203200000Y-99170400D02*
X196739600Y-92710000D01*
X196739600Y-92710000D02*
X195864815Y-92710000D01*
X195864815Y-92710000D02*
X195326000Y-92710000D01*
X189448005Y-87651158D02*
X189848842Y-87651158D01*
X189848842Y-87651158D02*
X190500000Y-87000000D01*
X195326000Y-92710000D02*
X194310000Y-92710000D01*
X189484000Y-92625400D02*
X190415400Y-92625400D01*
X190415400Y-92625400D02*
X190500000Y-92710000D01*
D32*
X193040000Y-87000000D02*
X194310000Y-87000000D01*
X191770000Y-87000000D02*
X193040000Y-87000000D01*
X190500000Y-87000000D02*
X191770000Y-87000000D01*
X193040000Y-92710000D02*
X194310000Y-92710000D01*
X191770000Y-92710000D02*
X193040000Y-92710000D01*
X190500000Y-92710000D02*
X191770000Y-92710000D01*
D31*
X200152000Y-101553600D02*
X201279822Y-101553600D01*
X199136000Y-100537600D02*
X200152000Y-101553600D01*
X186436000Y-71882000D02*
X186436000Y-70358000D01*
X187642500Y-71882000D02*
X190754000Y-71882000D01*
X186436000Y-70358000D02*
X186436000Y-70675500D01*
X186436000Y-70675500D02*
X187642500Y-71882000D01*
X187706000Y-69596000D02*
X188722000Y-68580000D01*
X187706000Y-70358000D02*
X187706000Y-69596000D01*
D35*
X181102000Y-72644000D02*
X180340000Y-72644000D01*
D36*
X174498000Y-71120000D02*
X177284380Y-71120000D01*
X180340000Y-72644000D02*
X178308000Y-72644000D01*
D31*
X178308000Y-72644000D02*
X178054000Y-72390000D01*
D36*
X177284380Y-71120000D02*
X178054000Y-71889620D01*
D31*
X178054000Y-71889620D02*
X178054000Y-72390000D01*
X197192904Y-87206523D02*
X197192904Y-85813904D01*
X200664381Y-90678000D02*
X197192904Y-87206523D01*
X196087999Y-84708999D02*
X195707000Y-84328000D01*
X197192904Y-85813904D02*
X196087999Y-84708999D01*
X206756000Y-93116400D02*
X206756000Y-91613338D01*
X205384400Y-94488000D02*
X206756000Y-93116400D01*
X205820662Y-90678000D02*
X200664381Y-90678000D01*
X205232000Y-94488000D02*
X205384400Y-94488000D01*
X206756000Y-91613338D02*
X205820662Y-90678000D01*
X195326000Y-89662000D02*
X198374000Y-89662000D01*
X198374000Y-89662000D02*
X200660000Y-91948000D01*
X200660000Y-91948000D02*
X203987400Y-91948000D01*
X203987400Y-91948000D02*
X205232000Y-91948000D01*
X200660000Y-66587450D02*
X200582470Y-66509920D01*
X200660000Y-67310000D02*
X200660000Y-66587450D01*
D34*
X192619316Y-110091538D02*
X193000315Y-110472537D01*
X188082845Y-105659845D02*
X192514538Y-110091538D01*
X192514538Y-110091538D02*
X192619316Y-110091538D01*
X172971763Y-102082577D02*
X180845764Y-102082577D01*
X184423032Y-105659845D02*
X188082845Y-105659845D01*
X170833395Y-99944209D02*
X172971763Y-102082577D01*
X161417000Y-85228502D02*
X170833395Y-94644897D01*
X161417000Y-77597000D02*
X161417000Y-85228502D01*
X180845764Y-102082577D02*
X184423032Y-105659845D01*
X170833395Y-94644897D02*
X170833395Y-99944209D01*
X159512000Y-86360000D02*
X168656001Y-95504001D01*
X168656001Y-95504001D02*
X169037000Y-95885000D01*
X159512000Y-82677000D02*
X159512000Y-86360000D01*
X158369000Y-83312000D02*
X157480000Y-82423000D01*
X158369000Y-90520185D02*
X158369000Y-83312000D01*
X157988000Y-91440000D02*
X157988000Y-90901185D01*
X157988000Y-90901185D02*
X158369000Y-90520185D01*
D31*
X193548000Y-83566000D02*
X190500000Y-80518000D01*
X190500000Y-80518000D02*
X190246000Y-80518000D01*
X193725105Y-84582000D02*
X194263920Y-84582000D01*
X193040000Y-84582000D02*
X193725105Y-84582000D01*
X190246000Y-81788000D02*
X193040000Y-84582000D01*
D32*
X160020000Y-110236000D02*
X161163000Y-110236000D01*
X161163000Y-110236000D02*
X162052000Y-111125000D01*
X161925000Y-109347000D02*
X161925000Y-109601000D01*
X161925000Y-109601000D02*
X161290000Y-110236000D01*
X160020000Y-108585000D02*
X160020000Y-108712000D01*
X160020000Y-108712000D02*
X160655000Y-109347000D01*
X161925000Y-107950000D02*
X161925000Y-107696000D01*
X161290000Y-108585000D02*
X161925000Y-107950000D01*
X160654996Y-107696004D02*
X160655000Y-107696000D01*
X159385000Y-107696004D02*
X160654996Y-107696004D01*
X160116185Y-107696000D02*
X160655000Y-107696000D01*
X159639004Y-107442000D02*
X159893004Y-107696000D01*
X159893004Y-107696000D02*
X160116185Y-107696000D01*
X158115000Y-107696006D02*
X159384998Y-107696006D01*
X159384998Y-107696006D02*
X159385000Y-107696004D01*
X160020000Y-108585000D02*
X158750000Y-108585000D01*
X160751185Y-106680000D02*
X160020000Y-106680000D01*
X161290000Y-106680000D02*
X160751185Y-106680000D01*
X179069966Y-112395000D02*
X179070000Y-112394966D01*
X177800004Y-112395000D02*
X179069966Y-112395000D01*
X176022000Y-113538000D02*
X177165000Y-113538000D01*
X176530000Y-112395000D02*
X175260000Y-112395000D01*
X178435000Y-111125000D02*
X177038000Y-111125000D01*
X177800000Y-109855000D02*
X179070000Y-109855000D01*
X178435000Y-108585000D02*
X177038000Y-108585000D01*
X180340000Y-107315000D02*
X180340000Y-107950000D01*
X180340000Y-107950000D02*
X179705000Y-108585000D01*
X177800000Y-107315000D02*
X179070000Y-107315000D01*
X186436000Y-116489815D02*
X186436000Y-117348000D01*
X186436000Y-115951000D02*
X186436000Y-116489815D01*
X186659185Y-118110000D02*
X185420000Y-118110000D01*
X187198000Y-118110000D02*
X186659185Y-118110000D01*
X187198000Y-119380000D02*
X187198000Y-118110000D01*
X187198000Y-120650000D02*
X187198000Y-119380000D01*
X188595000Y-118745000D02*
X188722000Y-118745000D01*
X188722000Y-118745000D02*
X188976000Y-118491000D01*
D31*
X184150000Y-76708000D02*
X185166000Y-76708000D01*
X189230000Y-82550000D02*
X189230000Y-76962000D01*
X189230000Y-76962000D02*
X188976000Y-76708000D01*
D32*
X154940000Y-113030000D02*
X154940000Y-113665000D01*
X154940000Y-113665000D02*
X154305000Y-114300000D01*
X156210000Y-110490000D02*
X153670000Y-113030000D01*
X153035000Y-111760000D02*
X154305000Y-111760000D01*
X154940000Y-110490000D02*
X153670000Y-110490000D01*
X154843815Y-109220000D02*
X155575000Y-109220000D01*
X154305000Y-109220000D02*
X154843815Y-109220000D01*
X153670000Y-107950000D02*
X153670000Y-108585000D01*
X153670000Y-108585000D02*
X153035000Y-109220000D01*
X155575000Y-106807000D02*
X155575000Y-107315000D01*
X155575000Y-107315000D02*
X154940000Y-107950000D01*
X154305000Y-106807000D02*
X155575000Y-106807000D01*
X156337000Y-100330000D02*
X155194000Y-100330000D01*
X168402000Y-113792000D02*
X168668000Y-113792000D01*
X168668000Y-113792000D02*
X169710000Y-112750000D01*
X169545000Y-110998000D02*
X170815000Y-110998000D01*
X168910000Y-109855000D02*
X168910000Y-110363000D01*
X168910000Y-110363000D02*
X168275000Y-110998000D01*
X172720000Y-109855000D02*
X173990000Y-109855000D01*
X170180000Y-109855000D02*
X171450000Y-109855000D01*
X168275000Y-108585000D02*
X168275000Y-109220000D01*
X168275000Y-109220000D02*
X168910000Y-109855000D01*
X170180000Y-107315000D02*
X170180000Y-106680000D01*
X170180000Y-106680000D02*
X169545000Y-106045000D01*
X168275000Y-108585000D02*
X168275000Y-107950000D01*
X168275000Y-107950000D02*
X168910000Y-107315000D01*
X170815000Y-108585000D02*
X169545000Y-108585000D01*
X172090070Y-108589965D02*
X173352861Y-108589965D01*
X173352861Y-108589965D02*
X173355782Y-108592886D01*
X171450000Y-107315000D02*
X172720000Y-107315000D01*
D33*
X175260000Y-100330000D02*
X174244000Y-100330000D01*
D32*
X187833000Y-109570185D02*
X187833000Y-109220000D01*
X187579000Y-110363000D02*
X187579000Y-109824185D01*
X187579000Y-109824185D02*
X187833000Y-109570185D01*
X184150000Y-108712000D02*
X182880000Y-108712000D01*
X185420000Y-108712000D02*
X184150000Y-108712000D01*
X186690000Y-108712000D02*
X185420000Y-108712000D01*
X188595000Y-112395000D02*
X188595000Y-111856185D01*
X188595000Y-111856185D02*
X188595000Y-111379000D01*
X194310000Y-114554000D02*
X193294020Y-114554000D01*
D31*
X177678000Y-95372014D02*
X178689001Y-94361013D01*
X178689001Y-94361013D02*
X179070000Y-93980014D01*
X177678000Y-96012000D02*
X177678000Y-95372014D01*
D34*
X172085000Y-91295000D02*
X172085000Y-90830380D01*
X170670000Y-92710000D02*
X172085000Y-91295000D01*
X170520000Y-92710000D02*
X170670000Y-92710000D01*
D31*
X199136000Y-101731000D02*
X199136000Y-102440400D01*
X197104000Y-99854000D02*
X197259000Y-99854000D01*
X197259000Y-99854000D02*
X199136000Y-101731000D01*
X199136000Y-102440400D02*
X199136000Y-103124000D01*
X197104000Y-99854000D02*
X196949000Y-99854000D01*
X196949000Y-99854000D02*
X195878949Y-98783949D01*
X191856349Y-98783949D02*
X190347599Y-100292699D01*
X195878949Y-98783949D02*
X191856349Y-98783949D01*
X190347599Y-100292699D02*
X190347599Y-100990401D01*
X190347599Y-100990401D02*
X189484000Y-101854000D01*
X188214000Y-100584000D02*
X188214000Y-96266000D01*
X189484000Y-101854000D02*
X188214000Y-100584000D01*
D33*
X203200000Y-103124000D02*
X203200000Y-101854000D01*
X203200000Y-101854000D02*
X201200000Y-99854000D01*
X201200000Y-99854000D02*
X201168000Y-99854000D01*
D31*
X200041600Y-98044000D02*
X190754000Y-98044000D01*
X190754000Y-98044000D02*
X189484000Y-99314000D01*
X201168000Y-99854000D02*
X201168000Y-99170400D01*
X201168000Y-99170400D02*
X200041600Y-98044000D01*
X187706000Y-93472000D02*
X186182000Y-93472000D01*
X189484000Y-95250000D02*
X187706000Y-93472000D01*
X189484000Y-99314000D02*
X189484000Y-95250000D01*
X189484000Y-104394000D02*
X190347599Y-103530401D01*
X190347599Y-103530401D02*
X190411575Y-103530401D01*
X190411575Y-103530401D02*
X192867488Y-101074488D01*
X192867488Y-99854000D02*
X192867488Y-101074488D01*
X192867488Y-101074488D02*
X194917000Y-103124000D01*
X194917000Y-103124000D02*
X195072000Y-103124000D01*
X180466999Y-102996999D02*
X183515000Y-106045000D01*
X183515000Y-106045000D02*
X183515000Y-106553000D01*
X165353999Y-102996999D02*
X180466999Y-102996999D01*
X164973000Y-102616000D02*
X165353999Y-102996999D01*
X156718000Y-98298000D02*
X155362000Y-98298000D01*
X155362000Y-98298000D02*
X155194000Y-98130000D01*
X153670000Y-98130000D02*
X155194000Y-98130000D01*
X177452755Y-100660155D02*
X185750155Y-100660155D01*
X185750155Y-100660155D02*
X186080401Y-100990401D01*
X174244000Y-98130000D02*
X174922600Y-98130000D01*
X174922600Y-98130000D02*
X177452755Y-100660155D01*
X186080401Y-100990401D02*
X186944000Y-101854000D01*
X172720000Y-98130000D02*
X174244000Y-98130000D01*
X196596000Y-115064600D02*
X196596000Y-115824000D01*
X196510000Y-114300000D02*
X196510000Y-114978600D01*
X196510000Y-114978600D02*
X196596000Y-115064600D01*
X196510000Y-114300000D02*
X196510000Y-113030000D01*
D37*
G36*
X185918385Y-112735858D02*
X185904243Y-112750000D01*
X186927970Y-113773727D01*
X187074000Y-113743706D01*
X187074000Y-117094000D01*
X187093775Y-117191653D01*
X187149985Y-117273919D01*
X187233772Y-117327834D01*
X187325000Y-117345000D01*
X188979000Y-117345000D01*
X188979000Y-121796000D01*
X186110316Y-121796000D01*
X186425602Y-121036708D01*
X186426396Y-120127281D01*
X186079106Y-119286777D01*
X185436605Y-118643154D01*
X184655000Y-118318603D01*
X184655000Y-113777970D01*
X184876273Y-113777970D01*
X184938154Y-114078971D01*
X185519946Y-114345892D01*
X186159597Y-114369852D01*
X186759727Y-114147206D01*
X186861846Y-114078971D01*
X186923727Y-113777970D01*
X185900000Y-112754243D01*
X184876273Y-113777970D01*
X184655000Y-113777970D01*
X184655000Y-113729109D01*
X184872030Y-113773727D01*
X185895757Y-112750000D01*
X185881615Y-112735858D01*
X185885858Y-112731615D01*
X185900000Y-112745757D01*
X185914142Y-112731615D01*
X185918385Y-112735858D01*
X185918385Y-112735858D01*
G37*
X185918385Y-112735858D02*
X185904243Y-112750000D01*
X186927970Y-113773727D01*
X187074000Y-113743706D01*
X187074000Y-117094000D01*
X187093775Y-117191653D01*
X187149985Y-117273919D01*
X187233772Y-117327834D01*
X187325000Y-117345000D01*
X188979000Y-117345000D01*
X188979000Y-121796000D01*
X186110316Y-121796000D01*
X186425602Y-121036708D01*
X186426396Y-120127281D01*
X186079106Y-119286777D01*
X185436605Y-118643154D01*
X184655000Y-118318603D01*
X184655000Y-113777970D01*
X184876273Y-113777970D01*
X184938154Y-114078971D01*
X185519946Y-114345892D01*
X186159597Y-114369852D01*
X186759727Y-114147206D01*
X186861846Y-114078971D01*
X186923727Y-113777970D01*
X185900000Y-112754243D01*
X184876273Y-113777970D01*
X184655000Y-113777970D01*
X184655000Y-113729109D01*
X184872030Y-113773727D01*
X185895757Y-112750000D01*
X185881615Y-112735858D01*
X185885858Y-112731615D01*
X185900000Y-112745757D01*
X185914142Y-112731615D01*
X185918385Y-112735858D01*
D33*
G36*
X190458387Y-111050606D02*
X190458387Y-116205000D01*
X188087000Y-116205000D01*
X188087000Y-111125000D01*
X188076994Y-111075590D01*
X188048553Y-111033965D01*
X188006159Y-111006685D01*
X187960000Y-110998000D01*
X183727387Y-110998000D01*
X183677977Y-111008006D01*
X183636352Y-111036447D01*
X183609072Y-111078841D01*
X183600387Y-111125000D01*
X183600387Y-111935615D01*
X183443958Y-111885647D01*
X182579605Y-112750000D01*
X183443958Y-113614353D01*
X183600387Y-113564385D01*
X183600387Y-114173000D01*
X182875686Y-114173000D01*
X183184080Y-114045259D01*
X183264353Y-113793958D01*
X182400000Y-112929605D01*
X181535647Y-113793958D01*
X181615920Y-114045259D01*
X181968062Y-114173000D01*
X180425387Y-114173000D01*
X180425387Y-112521279D01*
X180903282Y-112521279D01*
X180929685Y-113111458D01*
X181104741Y-113534080D01*
X181356042Y-113614353D01*
X182220395Y-112750000D01*
X181356042Y-111885647D01*
X181104741Y-111965920D01*
X180903282Y-112521279D01*
X180425387Y-112521279D01*
X180425387Y-111706042D01*
X181535647Y-111706042D01*
X182400000Y-112570395D01*
X183264353Y-111706042D01*
X183184080Y-111454741D01*
X182628721Y-111253282D01*
X182038542Y-111279685D01*
X181615920Y-111454741D01*
X181535647Y-111706042D01*
X180425387Y-111706042D01*
X180425387Y-110415606D01*
X182763993Y-108077000D01*
X187484781Y-108077000D01*
X190458387Y-111050606D01*
X190458387Y-111050606D01*
G37*
X190458387Y-111050606D02*
X190458387Y-116205000D01*
X188087000Y-116205000D01*
X188087000Y-111125000D01*
X188076994Y-111075590D01*
X188048553Y-111033965D01*
X188006159Y-111006685D01*
X187960000Y-110998000D01*
X183727387Y-110998000D01*
X183677977Y-111008006D01*
X183636352Y-111036447D01*
X183609072Y-111078841D01*
X183600387Y-111125000D01*
X183600387Y-111935615D01*
X183443958Y-111885647D01*
X182579605Y-112750000D01*
X183443958Y-113614353D01*
X183600387Y-113564385D01*
X183600387Y-114173000D01*
X182875686Y-114173000D01*
X183184080Y-114045259D01*
X183264353Y-113793958D01*
X182400000Y-112929605D01*
X181535647Y-113793958D01*
X181615920Y-114045259D01*
X181968062Y-114173000D01*
X180425387Y-114173000D01*
X180425387Y-112521279D01*
X180903282Y-112521279D01*
X180929685Y-113111458D01*
X181104741Y-113534080D01*
X181356042Y-113614353D01*
X182220395Y-112750000D01*
X181356042Y-111885647D01*
X181104741Y-111965920D01*
X180903282Y-112521279D01*
X180425387Y-112521279D01*
X180425387Y-111706042D01*
X181535647Y-111706042D01*
X182400000Y-112570395D01*
X183264353Y-111706042D01*
X183184080Y-111454741D01*
X182628721Y-111253282D01*
X182038542Y-111279685D01*
X181615920Y-111454741D01*
X181535647Y-111706042D01*
X180425387Y-111706042D01*
X180425387Y-110415606D01*
X182763993Y-108077000D01*
X187484781Y-108077000D01*
X190458387Y-111050606D01*
G36*
X180592873Y-108786394D02*
X179487070Y-109892197D01*
X179459207Y-109934211D01*
X179449873Y-109982000D01*
X179449873Y-114808000D01*
X172083873Y-114808000D01*
X172083873Y-113793958D01*
X172345647Y-113793958D01*
X172425920Y-114045259D01*
X172981279Y-114246718D01*
X173571458Y-114220315D01*
X173994080Y-114045259D01*
X174074353Y-113793958D01*
X173210000Y-112929605D01*
X172345647Y-113793958D01*
X172083873Y-113793958D01*
X172083873Y-113588106D01*
X172166042Y-113614353D01*
X173030395Y-112750000D01*
X173389605Y-112750000D01*
X174253958Y-113614353D01*
X174505259Y-113534080D01*
X174706718Y-112978721D01*
X174680315Y-112388542D01*
X174505259Y-111965920D01*
X174253958Y-111885647D01*
X173389605Y-112750000D01*
X173030395Y-112750000D01*
X173016253Y-112735858D01*
X173195858Y-112556253D01*
X173210000Y-112570395D01*
X174074353Y-111706042D01*
X174010454Y-111506000D01*
X176401873Y-111506000D01*
X176451283Y-111495994D01*
X176492908Y-111467553D01*
X176520188Y-111425159D01*
X176528873Y-111379000D01*
X176528873Y-104775000D01*
X180592873Y-104775000D01*
X180592873Y-108786394D01*
X180592873Y-108786394D01*
G37*
X180592873Y-108786394D02*
X179487070Y-109892197D01*
X179459207Y-109934211D01*
X179449873Y-109982000D01*
X179449873Y-114808000D01*
X172083873Y-114808000D01*
X172083873Y-113793958D01*
X172345647Y-113793958D01*
X172425920Y-114045259D01*
X172981279Y-114246718D01*
X173571458Y-114220315D01*
X173994080Y-114045259D01*
X174074353Y-113793958D01*
X173210000Y-112929605D01*
X172345647Y-113793958D01*
X172083873Y-113793958D01*
X172083873Y-113588106D01*
X172166042Y-113614353D01*
X173030395Y-112750000D01*
X173389605Y-112750000D01*
X174253958Y-113614353D01*
X174505259Y-113534080D01*
X174706718Y-112978721D01*
X174680315Y-112388542D01*
X174505259Y-111965920D01*
X174253958Y-111885647D01*
X173389605Y-112750000D01*
X173030395Y-112750000D01*
X173016253Y-112735858D01*
X173195858Y-112556253D01*
X173210000Y-112570395D01*
X174074353Y-111706042D01*
X174010454Y-111506000D01*
X176401873Y-111506000D01*
X176451283Y-111495994D01*
X176492908Y-111467553D01*
X176520188Y-111425159D01*
X176528873Y-111379000D01*
X176528873Y-104775000D01*
X180592873Y-104775000D01*
X180592873Y-108786394D01*
D37*
G36*
X175263000Y-109858000D02*
X171196000Y-109858000D01*
X171098347Y-109877775D01*
X171016081Y-109933985D01*
X170962166Y-110017772D01*
X170945000Y-110109000D01*
X170945000Y-111768835D01*
X170737970Y-111726273D01*
X169714243Y-112750000D01*
X170737970Y-113773727D01*
X170945000Y-113731165D01*
X170945000Y-114684000D01*
X167891000Y-114684000D01*
X167891000Y-113777970D01*
X168686273Y-113777970D01*
X168748154Y-114078971D01*
X169329946Y-114345892D01*
X169969597Y-114369852D01*
X170569727Y-114147206D01*
X170671846Y-114078971D01*
X170733727Y-113777970D01*
X169710000Y-112754243D01*
X168686273Y-113777970D01*
X167891000Y-113777970D01*
X167891000Y-113009597D01*
X168090148Y-113009597D01*
X168312794Y-113609727D01*
X168381029Y-113711846D01*
X168682030Y-113773727D01*
X169705757Y-112750000D01*
X168682030Y-111726273D01*
X168381029Y-111788154D01*
X168114108Y-112369946D01*
X168090148Y-113009597D01*
X167891000Y-113009597D01*
X167891000Y-111722030D01*
X168686273Y-111722030D01*
X169710000Y-112745757D01*
X170733727Y-111722030D01*
X170671846Y-111421029D01*
X170090054Y-111154108D01*
X169450403Y-111130148D01*
X168850273Y-111352794D01*
X168748154Y-111421029D01*
X168686273Y-111722030D01*
X167891000Y-111722030D01*
X167891000Y-104899000D01*
X175263000Y-104899000D01*
X175263000Y-109858000D01*
X175263000Y-109858000D01*
G37*
X175263000Y-109858000D02*
X171196000Y-109858000D01*
X171098347Y-109877775D01*
X171016081Y-109933985D01*
X170962166Y-110017772D01*
X170945000Y-110109000D01*
X170945000Y-111768835D01*
X170737970Y-111726273D01*
X169714243Y-112750000D01*
X170737970Y-113773727D01*
X170945000Y-113731165D01*
X170945000Y-114684000D01*
X167891000Y-114684000D01*
X167891000Y-113777970D01*
X168686273Y-113777970D01*
X168748154Y-114078971D01*
X169329946Y-114345892D01*
X169969597Y-114369852D01*
X170569727Y-114147206D01*
X170671846Y-114078971D01*
X170733727Y-113777970D01*
X169710000Y-112754243D01*
X168686273Y-113777970D01*
X167891000Y-113777970D01*
X167891000Y-113009597D01*
X168090148Y-113009597D01*
X168312794Y-113609727D01*
X168381029Y-113711846D01*
X168682030Y-113773727D01*
X169705757Y-112750000D01*
X168682030Y-111726273D01*
X168381029Y-111788154D01*
X168114108Y-112369946D01*
X168090148Y-113009597D01*
X167891000Y-113009597D01*
X167891000Y-111722030D01*
X168686273Y-111722030D01*
X169710000Y-112745757D01*
X170733727Y-111722030D01*
X170671846Y-111421029D01*
X170090054Y-111154108D01*
X169450403Y-111130148D01*
X168850273Y-111352794D01*
X168748154Y-111421029D01*
X168686273Y-111722030D01*
X167891000Y-111722030D01*
X167891000Y-104899000D01*
X175263000Y-104899000D01*
X175263000Y-109858000D01*
D33*
G36*
X162455850Y-114808000D02*
X159258000Y-114808000D01*
X159258000Y-113863958D01*
X159645647Y-113863958D01*
X159725920Y-114115259D01*
X160281279Y-114316718D01*
X160871458Y-114290315D01*
X161294080Y-114115259D01*
X161374353Y-113863958D01*
X160510000Y-112999605D01*
X159645647Y-113863958D01*
X159258000Y-113863958D01*
X159258000Y-113617898D01*
X159466042Y-113684353D01*
X160330395Y-112820000D01*
X160689605Y-112820000D01*
X161553958Y-113684353D01*
X161805259Y-113604080D01*
X162006718Y-113048721D01*
X161980315Y-112458542D01*
X161805259Y-112035920D01*
X161553958Y-111955647D01*
X160689605Y-112820000D01*
X160330395Y-112820000D01*
X159466042Y-111955647D01*
X159258000Y-112022102D01*
X159258000Y-111776042D01*
X159645647Y-111776042D01*
X160510000Y-112640395D01*
X161374353Y-111776042D01*
X161294080Y-111524741D01*
X160738721Y-111323282D01*
X160148542Y-111349685D01*
X159725920Y-111524741D01*
X159645647Y-111776042D01*
X159258000Y-111776042D01*
X159258000Y-109220000D01*
X159247994Y-109170590D01*
X159219553Y-109128965D01*
X159177159Y-109101685D01*
X159131000Y-109093000D01*
X157353000Y-109093000D01*
X157353000Y-104775000D01*
X162433285Y-104775000D01*
X162455850Y-114808000D01*
X162455850Y-114808000D01*
G37*
X162455850Y-114808000D02*
X159258000Y-114808000D01*
X159258000Y-113863958D01*
X159645647Y-113863958D01*
X159725920Y-114115259D01*
X160281279Y-114316718D01*
X160871458Y-114290315D01*
X161294080Y-114115259D01*
X161374353Y-113863958D01*
X160510000Y-112999605D01*
X159645647Y-113863958D01*
X159258000Y-113863958D01*
X159258000Y-113617898D01*
X159466042Y-113684353D01*
X160330395Y-112820000D01*
X160689605Y-112820000D01*
X161553958Y-113684353D01*
X161805259Y-113604080D01*
X162006718Y-113048721D01*
X161980315Y-112458542D01*
X161805259Y-112035920D01*
X161553958Y-111955647D01*
X160689605Y-112820000D01*
X160330395Y-112820000D01*
X159466042Y-111955647D01*
X159258000Y-112022102D01*
X159258000Y-111776042D01*
X159645647Y-111776042D01*
X160510000Y-112640395D01*
X161374353Y-111776042D01*
X161294080Y-111524741D01*
X160738721Y-111323282D01*
X160148542Y-111349685D01*
X159725920Y-111524741D01*
X159645647Y-111776042D01*
X159258000Y-111776042D01*
X159258000Y-109220000D01*
X159247994Y-109170590D01*
X159219553Y-109128965D01*
X159177159Y-109101685D01*
X159131000Y-109093000D01*
X157353000Y-109093000D01*
X157353000Y-104775000D01*
X162433285Y-104775000D01*
X162455850Y-114808000D01*
D37*
G36*
X156213000Y-104898933D02*
X156213000Y-110109000D01*
X156232775Y-110206653D01*
X156288985Y-110288919D01*
X156372772Y-110342834D01*
X156464000Y-110360000D01*
X158245000Y-110360000D01*
X158245000Y-111838835D01*
X158037970Y-111796273D01*
X157014243Y-112820000D01*
X158037970Y-113843727D01*
X158245000Y-113801165D01*
X158245000Y-114683954D01*
X152270000Y-114682859D01*
X152270000Y-113847970D01*
X155986273Y-113847970D01*
X156048154Y-114148971D01*
X156629946Y-114415892D01*
X157269597Y-114439852D01*
X157869727Y-114217206D01*
X157971846Y-114148971D01*
X158033727Y-113847970D01*
X157010000Y-112824243D01*
X155986273Y-113847970D01*
X152270000Y-113847970D01*
X152270000Y-113079597D01*
X155390148Y-113079597D01*
X155612794Y-113679727D01*
X155681029Y-113781846D01*
X155982030Y-113843727D01*
X157005757Y-112820000D01*
X155982030Y-111796273D01*
X155681029Y-111858154D01*
X155414108Y-112439946D01*
X155390148Y-113079597D01*
X152270000Y-113079597D01*
X152270000Y-111792030D01*
X155986273Y-111792030D01*
X157010000Y-112815757D01*
X158033727Y-111792030D01*
X157971846Y-111491029D01*
X157390054Y-111224108D01*
X156750403Y-111200148D01*
X156150273Y-111422794D01*
X156048154Y-111491029D01*
X155986273Y-111792030D01*
X152270000Y-111792030D01*
X152270000Y-104897880D01*
X156213000Y-104898933D01*
X156213000Y-104898933D01*
G37*
X156213000Y-104898933D02*
X156213000Y-110109000D01*
X156232775Y-110206653D01*
X156288985Y-110288919D01*
X156372772Y-110342834D01*
X156464000Y-110360000D01*
X158245000Y-110360000D01*
X158245000Y-111838835D01*
X158037970Y-111796273D01*
X157014243Y-112820000D01*
X158037970Y-113843727D01*
X158245000Y-113801165D01*
X158245000Y-114683954D01*
X152270000Y-114682859D01*
X152270000Y-113847970D01*
X155986273Y-113847970D01*
X156048154Y-114148971D01*
X156629946Y-114415892D01*
X157269597Y-114439852D01*
X157869727Y-114217206D01*
X157971846Y-114148971D01*
X158033727Y-113847970D01*
X157010000Y-112824243D01*
X155986273Y-113847970D01*
X152270000Y-113847970D01*
X152270000Y-113079597D01*
X155390148Y-113079597D01*
X155612794Y-113679727D01*
X155681029Y-113781846D01*
X155982030Y-113843727D01*
X157005757Y-112820000D01*
X155982030Y-111796273D01*
X155681029Y-111858154D01*
X155414108Y-112439946D01*
X155390148Y-113079597D01*
X152270000Y-113079597D01*
X152270000Y-111792030D01*
X155986273Y-111792030D01*
X157010000Y-112815757D01*
X158033727Y-111792030D01*
X157971846Y-111491029D01*
X157390054Y-111224108D01*
X156750403Y-111200148D01*
X156150273Y-111422794D01*
X156048154Y-111491029D01*
X155986273Y-111792030D01*
X152270000Y-111792030D01*
X152270000Y-104897880D01*
X156213000Y-104898933D01*
G36*
X190503000Y-88897000D02*
X191767000Y-88897000D01*
X191767000Y-88877000D01*
X191773000Y-88877000D01*
X191773000Y-88897000D01*
X193037000Y-88897000D01*
X193037000Y-88877000D01*
X193043000Y-88877000D01*
X193043000Y-88897000D01*
X194307000Y-88897000D01*
X194307000Y-88877000D01*
X194313000Y-88877000D01*
X194313000Y-88897000D01*
X194333000Y-88897000D01*
X194333000Y-88903000D01*
X194313000Y-88903000D01*
X194313000Y-89123658D01*
X194307000Y-89138107D01*
X194307000Y-88903000D01*
X193043000Y-88903000D01*
X193043000Y-90807000D01*
X194307000Y-90807000D01*
X194307000Y-90787000D01*
X194313000Y-90787000D01*
X194313000Y-90807000D01*
X195254250Y-90807000D01*
X195257310Y-90803940D01*
X195552161Y-90804198D01*
X195972046Y-90630705D01*
X196065614Y-90537300D01*
X198011438Y-90537300D01*
X200041067Y-92566928D01*
X200041069Y-92566931D01*
X200256388Y-92710802D01*
X200325037Y-92756672D01*
X200660000Y-92823300D01*
X203713297Y-92823300D01*
X203896021Y-93096766D01*
X204077460Y-93218000D01*
X203896021Y-93339234D01*
X203543852Y-93866292D01*
X203420187Y-94488000D01*
X203543852Y-95109708D01*
X203811575Y-95510383D01*
X203786061Y-95520951D01*
X203572551Y-95734461D01*
X203457000Y-96013426D01*
X203457000Y-96835250D01*
X203646750Y-97025000D01*
X205229000Y-97025000D01*
X205229000Y-97005000D01*
X205235000Y-97005000D01*
X205235000Y-97025000D01*
X205255000Y-97025000D01*
X205255000Y-97031000D01*
X205235000Y-97031000D01*
X205235000Y-98460850D01*
X205424750Y-98650600D01*
X206351800Y-98650600D01*
X206351800Y-121947600D01*
X192275000Y-121947600D01*
X192275000Y-117076822D01*
X192666089Y-117467911D01*
X192954177Y-117660405D01*
X193294000Y-117728000D01*
X197104000Y-117728000D01*
X197443823Y-117660405D01*
X197731911Y-117467911D01*
X199122722Y-116077100D01*
X199235161Y-116077198D01*
X199655046Y-115903705D01*
X199976576Y-115582736D01*
X200150801Y-115163154D01*
X200151198Y-114708839D01*
X199977705Y-114288954D01*
X199656736Y-113967424D01*
X199237154Y-113793199D01*
X198782839Y-113792802D01*
X198362954Y-113966295D01*
X198041424Y-114287264D01*
X197885908Y-114661790D01*
X197885908Y-114104000D01*
X197832844Y-113821991D01*
X197815636Y-113795250D01*
X197824777Y-113781872D01*
X197885908Y-113480000D01*
X197885908Y-112580000D01*
X197832844Y-112297991D01*
X197666177Y-112038982D01*
X197411872Y-111865223D01*
X197110000Y-111804092D01*
X195910000Y-111804092D01*
X195627991Y-111857156D01*
X195404412Y-112001024D01*
X195339939Y-111936551D01*
X195060975Y-111821000D01*
X194502750Y-111821000D01*
X194313000Y-112010750D01*
X194313000Y-113027000D01*
X194333000Y-113027000D01*
X194333000Y-113033000D01*
X194313000Y-113033000D01*
X194313000Y-113053000D01*
X194307000Y-113053000D01*
X194307000Y-113033000D01*
X194287000Y-113033000D01*
X194287000Y-113027000D01*
X194307000Y-113027000D01*
X194307000Y-112010750D01*
X194117250Y-111821000D01*
X193559025Y-111821000D01*
X193280061Y-111936551D01*
X193166000Y-112050612D01*
X193166000Y-111614682D01*
X193226476Y-111614735D01*
X193646361Y-111441242D01*
X193967891Y-111120273D01*
X194142116Y-110700691D01*
X194142513Y-110246376D01*
X194081622Y-110099008D01*
X194435652Y-109952726D01*
X195100392Y-109289145D01*
X195460590Y-108421692D01*
X195461409Y-107482428D01*
X195102726Y-106614348D01*
X194439145Y-105949608D01*
X193571692Y-105589410D01*
X192632428Y-105588591D01*
X191764348Y-105947274D01*
X191099608Y-106610855D01*
X190846162Y-107221222D01*
X189622351Y-105997411D01*
X190137536Y-105894935D01*
X190664594Y-105542766D01*
X191016763Y-105015708D01*
X191140428Y-104394000D01*
X191081598Y-104098240D01*
X191498488Y-103681350D01*
X191498488Y-103729975D01*
X191614039Y-104008939D01*
X191827549Y-104222449D01*
X192106514Y-104338000D01*
X192674738Y-104338000D01*
X192864488Y-104148250D01*
X192864488Y-103127000D01*
X192844488Y-103127000D01*
X192844488Y-103121000D01*
X192864488Y-103121000D01*
X192864488Y-103101000D01*
X192870488Y-103101000D01*
X192870488Y-103121000D01*
X192890488Y-103121000D01*
X192890488Y-103127000D01*
X192870488Y-103127000D01*
X192870488Y-104148250D01*
X193060238Y-104338000D01*
X193628462Y-104338000D01*
X193907427Y-104222449D01*
X193967628Y-104162248D01*
X194160128Y-104293777D01*
X194462000Y-104354908D01*
X195682000Y-104354908D01*
X195964009Y-104301844D01*
X196078256Y-104228329D01*
X196343026Y-104338000D01*
X196911250Y-104338000D01*
X197101000Y-104148250D01*
X197101000Y-103127000D01*
X197081000Y-103127000D01*
X197081000Y-103121000D01*
X197101000Y-103121000D01*
X197101000Y-103101000D01*
X197107000Y-103101000D01*
X197107000Y-103121000D01*
X197127000Y-103121000D01*
X197127000Y-103127000D01*
X197107000Y-103127000D01*
X197107000Y-104148250D01*
X197296750Y-104338000D01*
X197423271Y-104338000D01*
X197492089Y-104440993D01*
X197819007Y-104767911D01*
X198107095Y-104960405D01*
X198446918Y-105028000D01*
X200152000Y-105028000D01*
X200491823Y-104960405D01*
X200779911Y-104767911D01*
X200972405Y-104479823D01*
X201006914Y-104306336D01*
X201165000Y-104148250D01*
X201165000Y-103127000D01*
X201145000Y-103127000D01*
X201145000Y-103121000D01*
X201165000Y-103121000D01*
X201165000Y-103101000D01*
X201171000Y-103101000D01*
X201171000Y-103121000D01*
X201191000Y-103121000D01*
X201191000Y-103127000D01*
X201171000Y-103127000D01*
X201171000Y-104148250D01*
X201360750Y-104338000D01*
X201538464Y-104338000D01*
X201628168Y-104472252D01*
X201696746Y-104540829D01*
X201696748Y-104540832D01*
X201878079Y-104661993D01*
X201980716Y-104730573D01*
X202315679Y-104797202D01*
X202315684Y-104797201D01*
X204307094Y-104797201D01*
X204307099Y-104797202D01*
X204642062Y-104730573D01*
X204926030Y-104540832D01*
X205088928Y-104377933D01*
X205088931Y-104377931D01*
X205278672Y-104093963D01*
X205285619Y-104059037D01*
X205345301Y-103759000D01*
X205345300Y-103758995D01*
X205345300Y-101807600D01*
X205278672Y-101472637D01*
X205088931Y-101188669D01*
X205088928Y-101188667D01*
X204519239Y-100618977D01*
X204524777Y-100610872D01*
X204585908Y-100309000D01*
X204585908Y-99399000D01*
X204532844Y-99116991D01*
X204366177Y-98857982D01*
X204111872Y-98684223D01*
X203875674Y-98636391D01*
X203818931Y-98551469D01*
X203818928Y-98551467D01*
X203814141Y-98546680D01*
X204065025Y-98650600D01*
X205039250Y-98650600D01*
X205229000Y-98460850D01*
X205229000Y-97031000D01*
X203646750Y-97031000D01*
X203457000Y-97220750D01*
X203457000Y-98042574D01*
X203560920Y-98293459D01*
X197358531Y-92091069D01*
X197074563Y-91901328D01*
X196739600Y-91834699D01*
X196739595Y-91834700D01*
X196065851Y-91834700D01*
X195973736Y-91742424D01*
X195554154Y-91568199D01*
X195441049Y-91568100D01*
X195444000Y-91560975D01*
X195444000Y-91002750D01*
X195254250Y-90813000D01*
X194313000Y-90813000D01*
X194313000Y-90833000D01*
X194307000Y-90833000D01*
X194307000Y-90813000D01*
X193043000Y-90813000D01*
X193043000Y-90833000D01*
X193037000Y-90833000D01*
X193037000Y-90813000D01*
X191773000Y-90813000D01*
X191773000Y-90833000D01*
X191767000Y-90833000D01*
X191767000Y-90813000D01*
X190503000Y-90813000D01*
X190503000Y-90833000D01*
X190497000Y-90833000D01*
X190497000Y-90813000D01*
X190477000Y-90813000D01*
X190477000Y-90807000D01*
X190497000Y-90807000D01*
X190497000Y-88903000D01*
X190503000Y-88903000D01*
X190503000Y-90807000D01*
X191767000Y-90807000D01*
X191767000Y-88903000D01*
X191773000Y-88903000D01*
X191773000Y-90807000D01*
X193037000Y-90807000D01*
X193037000Y-88903000D01*
X191773000Y-88903000D01*
X191767000Y-88903000D01*
X190503000Y-88903000D01*
X190497000Y-88903000D01*
X190477000Y-88903000D01*
X190477000Y-88897000D01*
X190497000Y-88897000D01*
X190497000Y-88877000D01*
X190503000Y-88877000D01*
X190503000Y-88897000D01*
X190503000Y-88897000D01*
G37*
X190503000Y-88897000D02*
X191767000Y-88897000D01*
X191767000Y-88877000D01*
X191773000Y-88877000D01*
X191773000Y-88897000D01*
X193037000Y-88897000D01*
X193037000Y-88877000D01*
X193043000Y-88877000D01*
X193043000Y-88897000D01*
X194307000Y-88897000D01*
X194307000Y-88877000D01*
X194313000Y-88877000D01*
X194313000Y-88897000D01*
X194333000Y-88897000D01*
X194333000Y-88903000D01*
X194313000Y-88903000D01*
X194313000Y-89123658D01*
X194307000Y-89138107D01*
X194307000Y-88903000D01*
X193043000Y-88903000D01*
X193043000Y-90807000D01*
X194307000Y-90807000D01*
X194307000Y-90787000D01*
X194313000Y-90787000D01*
X194313000Y-90807000D01*
X195254250Y-90807000D01*
X195257310Y-90803940D01*
X195552161Y-90804198D01*
X195972046Y-90630705D01*
X196065614Y-90537300D01*
X198011438Y-90537300D01*
X200041067Y-92566928D01*
X200041069Y-92566931D01*
X200256388Y-92710802D01*
X200325037Y-92756672D01*
X200660000Y-92823300D01*
X203713297Y-92823300D01*
X203896021Y-93096766D01*
X204077460Y-93218000D01*
X203896021Y-93339234D01*
X203543852Y-93866292D01*
X203420187Y-94488000D01*
X203543852Y-95109708D01*
X203811575Y-95510383D01*
X203786061Y-95520951D01*
X203572551Y-95734461D01*
X203457000Y-96013426D01*
X203457000Y-96835250D01*
X203646750Y-97025000D01*
X205229000Y-97025000D01*
X205229000Y-97005000D01*
X205235000Y-97005000D01*
X205235000Y-97025000D01*
X205255000Y-97025000D01*
X205255000Y-97031000D01*
X205235000Y-97031000D01*
X205235000Y-98460850D01*
X205424750Y-98650600D01*
X206351800Y-98650600D01*
X206351800Y-121947600D01*
X192275000Y-121947600D01*
X192275000Y-117076822D01*
X192666089Y-117467911D01*
X192954177Y-117660405D01*
X193294000Y-117728000D01*
X197104000Y-117728000D01*
X197443823Y-117660405D01*
X197731911Y-117467911D01*
X199122722Y-116077100D01*
X199235161Y-116077198D01*
X199655046Y-115903705D01*
X199976576Y-115582736D01*
X200150801Y-115163154D01*
X200151198Y-114708839D01*
X199977705Y-114288954D01*
X199656736Y-113967424D01*
X199237154Y-113793199D01*
X198782839Y-113792802D01*
X198362954Y-113966295D01*
X198041424Y-114287264D01*
X197885908Y-114661790D01*
X197885908Y-114104000D01*
X197832844Y-113821991D01*
X197815636Y-113795250D01*
X197824777Y-113781872D01*
X197885908Y-113480000D01*
X197885908Y-112580000D01*
X197832844Y-112297991D01*
X197666177Y-112038982D01*
X197411872Y-111865223D01*
X197110000Y-111804092D01*
X195910000Y-111804092D01*
X195627991Y-111857156D01*
X195404412Y-112001024D01*
X195339939Y-111936551D01*
X195060975Y-111821000D01*
X194502750Y-111821000D01*
X194313000Y-112010750D01*
X194313000Y-113027000D01*
X194333000Y-113027000D01*
X194333000Y-113033000D01*
X194313000Y-113033000D01*
X194313000Y-113053000D01*
X194307000Y-113053000D01*
X194307000Y-113033000D01*
X194287000Y-113033000D01*
X194287000Y-113027000D01*
X194307000Y-113027000D01*
X194307000Y-112010750D01*
X194117250Y-111821000D01*
X193559025Y-111821000D01*
X193280061Y-111936551D01*
X193166000Y-112050612D01*
X193166000Y-111614682D01*
X193226476Y-111614735D01*
X193646361Y-111441242D01*
X193967891Y-111120273D01*
X194142116Y-110700691D01*
X194142513Y-110246376D01*
X194081622Y-110099008D01*
X194435652Y-109952726D01*
X195100392Y-109289145D01*
X195460590Y-108421692D01*
X195461409Y-107482428D01*
X195102726Y-106614348D01*
X194439145Y-105949608D01*
X193571692Y-105589410D01*
X192632428Y-105588591D01*
X191764348Y-105947274D01*
X191099608Y-106610855D01*
X190846162Y-107221222D01*
X189622351Y-105997411D01*
X190137536Y-105894935D01*
X190664594Y-105542766D01*
X191016763Y-105015708D01*
X191140428Y-104394000D01*
X191081598Y-104098240D01*
X191498488Y-103681350D01*
X191498488Y-103729975D01*
X191614039Y-104008939D01*
X191827549Y-104222449D01*
X192106514Y-104338000D01*
X192674738Y-104338000D01*
X192864488Y-104148250D01*
X192864488Y-103127000D01*
X192844488Y-103127000D01*
X192844488Y-103121000D01*
X192864488Y-103121000D01*
X192864488Y-103101000D01*
X192870488Y-103101000D01*
X192870488Y-103121000D01*
X192890488Y-103121000D01*
X192890488Y-103127000D01*
X192870488Y-103127000D01*
X192870488Y-104148250D01*
X193060238Y-104338000D01*
X193628462Y-104338000D01*
X193907427Y-104222449D01*
X193967628Y-104162248D01*
X194160128Y-104293777D01*
X194462000Y-104354908D01*
X195682000Y-104354908D01*
X195964009Y-104301844D01*
X196078256Y-104228329D01*
X196343026Y-104338000D01*
X196911250Y-104338000D01*
X197101000Y-104148250D01*
X197101000Y-103127000D01*
X197081000Y-103127000D01*
X197081000Y-103121000D01*
X197101000Y-103121000D01*
X197101000Y-103101000D01*
X197107000Y-103101000D01*
X197107000Y-103121000D01*
X197127000Y-103121000D01*
X197127000Y-103127000D01*
X197107000Y-103127000D01*
X197107000Y-104148250D01*
X197296750Y-104338000D01*
X197423271Y-104338000D01*
X197492089Y-104440993D01*
X197819007Y-104767911D01*
X198107095Y-104960405D01*
X198446918Y-105028000D01*
X200152000Y-105028000D01*
X200491823Y-104960405D01*
X200779911Y-104767911D01*
X200972405Y-104479823D01*
X201006914Y-104306336D01*
X201165000Y-104148250D01*
X201165000Y-103127000D01*
X201145000Y-103127000D01*
X201145000Y-103121000D01*
X201165000Y-103121000D01*
X201165000Y-103101000D01*
X201171000Y-103101000D01*
X201171000Y-103121000D01*
X201191000Y-103121000D01*
X201191000Y-103127000D01*
X201171000Y-103127000D01*
X201171000Y-104148250D01*
X201360750Y-104338000D01*
X201538464Y-104338000D01*
X201628168Y-104472252D01*
X201696746Y-104540829D01*
X201696748Y-104540832D01*
X201878079Y-104661993D01*
X201980716Y-104730573D01*
X202315679Y-104797202D01*
X202315684Y-104797201D01*
X204307094Y-104797201D01*
X204307099Y-104797202D01*
X204642062Y-104730573D01*
X204926030Y-104540832D01*
X205088928Y-104377933D01*
X205088931Y-104377931D01*
X205278672Y-104093963D01*
X205285619Y-104059037D01*
X205345301Y-103759000D01*
X205345300Y-103758995D01*
X205345300Y-101807600D01*
X205278672Y-101472637D01*
X205088931Y-101188669D01*
X205088928Y-101188667D01*
X204519239Y-100618977D01*
X204524777Y-100610872D01*
X204585908Y-100309000D01*
X204585908Y-99399000D01*
X204532844Y-99116991D01*
X204366177Y-98857982D01*
X204111872Y-98684223D01*
X203875674Y-98636391D01*
X203818931Y-98551469D01*
X203818928Y-98551467D01*
X203814141Y-98546680D01*
X204065025Y-98650600D01*
X205039250Y-98650600D01*
X205229000Y-98460850D01*
X205229000Y-97031000D01*
X203646750Y-97031000D01*
X203457000Y-97220750D01*
X203457000Y-98042574D01*
X203560920Y-98293459D01*
X197358531Y-92091069D01*
X197074563Y-91901328D01*
X196739600Y-91834699D01*
X196739595Y-91834700D01*
X196065851Y-91834700D01*
X195973736Y-91742424D01*
X195554154Y-91568199D01*
X195441049Y-91568100D01*
X195444000Y-91560975D01*
X195444000Y-91002750D01*
X195254250Y-90813000D01*
X194313000Y-90813000D01*
X194313000Y-90833000D01*
X194307000Y-90833000D01*
X194307000Y-90813000D01*
X193043000Y-90813000D01*
X193043000Y-90833000D01*
X193037000Y-90833000D01*
X193037000Y-90813000D01*
X191773000Y-90813000D01*
X191773000Y-90833000D01*
X191767000Y-90833000D01*
X191767000Y-90813000D01*
X190503000Y-90813000D01*
X190503000Y-90833000D01*
X190497000Y-90833000D01*
X190497000Y-90813000D01*
X190477000Y-90813000D01*
X190477000Y-90807000D01*
X190497000Y-90807000D01*
X190497000Y-88903000D01*
X190503000Y-88903000D01*
X190503000Y-90807000D01*
X191767000Y-90807000D01*
X191767000Y-88903000D01*
X191773000Y-88903000D01*
X191773000Y-90807000D01*
X193037000Y-90807000D01*
X193037000Y-88903000D01*
X191773000Y-88903000D01*
X191767000Y-88903000D01*
X190503000Y-88903000D01*
X190497000Y-88903000D01*
X190477000Y-88903000D01*
X190477000Y-88897000D01*
X190497000Y-88897000D01*
X190497000Y-88877000D01*
X190503000Y-88877000D01*
X190503000Y-88897000D01*
G36*
X167894947Y-95944887D02*
X167894802Y-96111161D01*
X168068295Y-96531046D01*
X168389264Y-96852576D01*
X168808846Y-97026801D01*
X169246894Y-97027184D01*
X169246894Y-99874340D01*
X169314489Y-100214163D01*
X169506983Y-100502251D01*
X171126431Y-102121699D01*
X166004405Y-102121699D01*
X165941705Y-101969954D01*
X165620736Y-101648424D01*
X165201154Y-101474199D01*
X164746839Y-101473802D01*
X164326954Y-101647295D01*
X164005424Y-101968264D01*
X163831199Y-102387846D01*
X163830802Y-102842161D01*
X163948495Y-103127000D01*
X151635800Y-103127000D01*
X151635800Y-100522750D01*
X152461000Y-100522750D01*
X152461000Y-101080975D01*
X152576551Y-101359939D01*
X152790061Y-101573449D01*
X153069026Y-101689000D01*
X153477250Y-101689000D01*
X153667000Y-101499250D01*
X153667000Y-100333000D01*
X152650750Y-100333000D01*
X152461000Y-100522750D01*
X151635800Y-100522750D01*
X151635800Y-97530000D01*
X152444092Y-97530000D01*
X152444092Y-98730000D01*
X152497156Y-99012009D01*
X152641024Y-99235588D01*
X152576551Y-99300061D01*
X152461000Y-99579025D01*
X152461000Y-100137250D01*
X152650750Y-100327000D01*
X153667000Y-100327000D01*
X153667000Y-100307000D01*
X153673000Y-100307000D01*
X153673000Y-100327000D01*
X153693000Y-100327000D01*
X153693000Y-100333000D01*
X153673000Y-100333000D01*
X153673000Y-101499250D01*
X153862750Y-101689000D01*
X154270974Y-101689000D01*
X154417826Y-101628172D01*
X154442128Y-101644777D01*
X154744000Y-101705908D01*
X155644000Y-101705908D01*
X155926009Y-101652844D01*
X156185018Y-101486177D01*
X156194789Y-101471876D01*
X156563161Y-101472198D01*
X156983046Y-101298705D01*
X157304576Y-100977736D01*
X157478801Y-100558154D01*
X157479198Y-100103839D01*
X157305705Y-99683954D01*
X157027854Y-99405617D01*
X157364046Y-99266705D01*
X157685576Y-98945736D01*
X157833245Y-98590107D01*
X158644092Y-99400953D01*
X158644092Y-99689000D01*
X158697156Y-99971009D01*
X158863823Y-100230018D01*
X159118128Y-100403777D01*
X159416667Y-100464233D01*
X159419030Y-100467770D01*
X159860016Y-100908756D01*
X159940295Y-101103046D01*
X160261264Y-101424576D01*
X160680846Y-101598801D01*
X161135161Y-101599198D01*
X161555046Y-101425705D01*
X161876576Y-101104736D01*
X162050801Y-100685154D01*
X162051062Y-100386312D01*
X162112750Y-100448000D01*
X162670975Y-100448000D01*
X162949939Y-100332449D01*
X163163449Y-100118939D01*
X163279000Y-99839974D01*
X163279000Y-99506750D01*
X163089250Y-99317000D01*
X161923000Y-99317000D01*
X161923000Y-99337000D01*
X161917000Y-99337000D01*
X161917000Y-99317000D01*
X161897000Y-99317000D01*
X161897000Y-99311000D01*
X161917000Y-99311000D01*
X161917000Y-97793000D01*
X161923000Y-97793000D01*
X161923000Y-99311000D01*
X163089250Y-99311000D01*
X163279000Y-99121250D01*
X163279000Y-98788026D01*
X163181235Y-98552000D01*
X163279000Y-98315974D01*
X163279000Y-97982750D01*
X163089250Y-97793000D01*
X161923000Y-97793000D01*
X161917000Y-97793000D01*
X161897000Y-97793000D01*
X161897000Y-97787000D01*
X161917000Y-97787000D01*
X161917000Y-96269000D01*
X161923000Y-96269000D01*
X161923000Y-97787000D01*
X163089250Y-97787000D01*
X163279000Y-97597250D01*
X163279000Y-97264026D01*
X163181235Y-97028000D01*
X163279000Y-96791974D01*
X163279000Y-96458750D01*
X163089250Y-96269000D01*
X161923000Y-96269000D01*
X161917000Y-96269000D01*
X161897000Y-96269000D01*
X161897000Y-96263000D01*
X161917000Y-96263000D01*
X161917000Y-95321750D01*
X161923000Y-95321750D01*
X161923000Y-96263000D01*
X163089250Y-96263000D01*
X163279000Y-96073250D01*
X163279000Y-95740026D01*
X163163449Y-95461061D01*
X162949939Y-95247551D01*
X162670975Y-95132000D01*
X162112750Y-95132000D01*
X161923000Y-95321750D01*
X161917000Y-95321750D01*
X161727250Y-95132000D01*
X161169025Y-95132000D01*
X160974858Y-95212427D01*
X160921872Y-95176223D01*
X160895300Y-95170842D01*
X160895300Y-94719851D01*
X160987576Y-94627736D01*
X161161801Y-94208154D01*
X161162198Y-93753839D01*
X160988705Y-93333954D01*
X160667736Y-93012424D01*
X160248154Y-92838199D01*
X159793839Y-92837802D01*
X159384511Y-93006933D01*
X158978154Y-92838199D01*
X158523839Y-92837802D01*
X158103954Y-93011295D01*
X157782424Y-93332264D01*
X157608199Y-93751846D01*
X157607802Y-94206161D01*
X157781295Y-94626046D01*
X157874700Y-94719614D01*
X157874700Y-96204158D01*
X157736351Y-96111716D01*
X157401388Y-96045087D01*
X157401383Y-96045088D01*
X156049227Y-96045088D01*
X155957112Y-95952812D01*
X155537530Y-95778587D01*
X155083215Y-95778190D01*
X154663330Y-95951683D01*
X154341800Y-96272652D01*
X154167575Y-96692234D01*
X154167513Y-96763714D01*
X154120000Y-96754092D01*
X153220000Y-96754092D01*
X152937991Y-96807156D01*
X152678982Y-96973823D01*
X152505223Y-97228128D01*
X152444092Y-97530000D01*
X151635800Y-97530000D01*
X151635800Y-90853600D01*
X154101800Y-90853600D01*
X154182555Y-90837537D01*
X154264895Y-90837537D01*
X155552816Y-90581354D01*
X155659171Y-90537300D01*
X155854178Y-90456526D01*
X156946025Y-89726977D01*
X157176677Y-89496325D01*
X157519100Y-88983852D01*
X157519100Y-90168145D01*
X157387030Y-90300215D01*
X157202795Y-90575942D01*
X157194290Y-90618702D01*
X157020424Y-90792264D01*
X156846199Y-91211846D01*
X156845802Y-91666161D01*
X157019295Y-92086046D01*
X157340264Y-92407576D01*
X157759846Y-92581801D01*
X158214161Y-92582198D01*
X158634046Y-92408705D01*
X158955576Y-92087736D01*
X159129801Y-91668154D01*
X159130198Y-91213839D01*
X159045312Y-91008398D01*
X159154205Y-90845428D01*
X159218900Y-90520185D01*
X159218900Y-87268840D01*
X167894947Y-95944887D01*
X167894947Y-95944887D01*
G37*
X167894947Y-95944887D02*
X167894802Y-96111161D01*
X168068295Y-96531046D01*
X168389264Y-96852576D01*
X168808846Y-97026801D01*
X169246894Y-97027184D01*
X169246894Y-99874340D01*
X169314489Y-100214163D01*
X169506983Y-100502251D01*
X171126431Y-102121699D01*
X166004405Y-102121699D01*
X165941705Y-101969954D01*
X165620736Y-101648424D01*
X165201154Y-101474199D01*
X164746839Y-101473802D01*
X164326954Y-101647295D01*
X164005424Y-101968264D01*
X163831199Y-102387846D01*
X163830802Y-102842161D01*
X163948495Y-103127000D01*
X151635800Y-103127000D01*
X151635800Y-100522750D01*
X152461000Y-100522750D01*
X152461000Y-101080975D01*
X152576551Y-101359939D01*
X152790061Y-101573449D01*
X153069026Y-101689000D01*
X153477250Y-101689000D01*
X153667000Y-101499250D01*
X153667000Y-100333000D01*
X152650750Y-100333000D01*
X152461000Y-100522750D01*
X151635800Y-100522750D01*
X151635800Y-97530000D01*
X152444092Y-97530000D01*
X152444092Y-98730000D01*
X152497156Y-99012009D01*
X152641024Y-99235588D01*
X152576551Y-99300061D01*
X152461000Y-99579025D01*
X152461000Y-100137250D01*
X152650750Y-100327000D01*
X153667000Y-100327000D01*
X153667000Y-100307000D01*
X153673000Y-100307000D01*
X153673000Y-100327000D01*
X153693000Y-100327000D01*
X153693000Y-100333000D01*
X153673000Y-100333000D01*
X153673000Y-101499250D01*
X153862750Y-101689000D01*
X154270974Y-101689000D01*
X154417826Y-101628172D01*
X154442128Y-101644777D01*
X154744000Y-101705908D01*
X155644000Y-101705908D01*
X155926009Y-101652844D01*
X156185018Y-101486177D01*
X156194789Y-101471876D01*
X156563161Y-101472198D01*
X156983046Y-101298705D01*
X157304576Y-100977736D01*
X157478801Y-100558154D01*
X157479198Y-100103839D01*
X157305705Y-99683954D01*
X157027854Y-99405617D01*
X157364046Y-99266705D01*
X157685576Y-98945736D01*
X157833245Y-98590107D01*
X158644092Y-99400953D01*
X158644092Y-99689000D01*
X158697156Y-99971009D01*
X158863823Y-100230018D01*
X159118128Y-100403777D01*
X159416667Y-100464233D01*
X159419030Y-100467770D01*
X159860016Y-100908756D01*
X159940295Y-101103046D01*
X160261264Y-101424576D01*
X160680846Y-101598801D01*
X161135161Y-101599198D01*
X161555046Y-101425705D01*
X161876576Y-101104736D01*
X162050801Y-100685154D01*
X162051062Y-100386312D01*
X162112750Y-100448000D01*
X162670975Y-100448000D01*
X162949939Y-100332449D01*
X163163449Y-100118939D01*
X163279000Y-99839974D01*
X163279000Y-99506750D01*
X163089250Y-99317000D01*
X161923000Y-99317000D01*
X161923000Y-99337000D01*
X161917000Y-99337000D01*
X161917000Y-99317000D01*
X161897000Y-99317000D01*
X161897000Y-99311000D01*
X161917000Y-99311000D01*
X161917000Y-97793000D01*
X161923000Y-97793000D01*
X161923000Y-99311000D01*
X163089250Y-99311000D01*
X163279000Y-99121250D01*
X163279000Y-98788026D01*
X163181235Y-98552000D01*
X163279000Y-98315974D01*
X163279000Y-97982750D01*
X163089250Y-97793000D01*
X161923000Y-97793000D01*
X161917000Y-97793000D01*
X161897000Y-97793000D01*
X161897000Y-97787000D01*
X161917000Y-97787000D01*
X161917000Y-96269000D01*
X161923000Y-96269000D01*
X161923000Y-97787000D01*
X163089250Y-97787000D01*
X163279000Y-97597250D01*
X163279000Y-97264026D01*
X163181235Y-97028000D01*
X163279000Y-96791974D01*
X163279000Y-96458750D01*
X163089250Y-96269000D01*
X161923000Y-96269000D01*
X161917000Y-96269000D01*
X161897000Y-96269000D01*
X161897000Y-96263000D01*
X161917000Y-96263000D01*
X161917000Y-95321750D01*
X161923000Y-95321750D01*
X161923000Y-96263000D01*
X163089250Y-96263000D01*
X163279000Y-96073250D01*
X163279000Y-95740026D01*
X163163449Y-95461061D01*
X162949939Y-95247551D01*
X162670975Y-95132000D01*
X162112750Y-95132000D01*
X161923000Y-95321750D01*
X161917000Y-95321750D01*
X161727250Y-95132000D01*
X161169025Y-95132000D01*
X160974858Y-95212427D01*
X160921872Y-95176223D01*
X160895300Y-95170842D01*
X160895300Y-94719851D01*
X160987576Y-94627736D01*
X161161801Y-94208154D01*
X161162198Y-93753839D01*
X160988705Y-93333954D01*
X160667736Y-93012424D01*
X160248154Y-92838199D01*
X159793839Y-92837802D01*
X159384511Y-93006933D01*
X158978154Y-92838199D01*
X158523839Y-92837802D01*
X158103954Y-93011295D01*
X157782424Y-93332264D01*
X157608199Y-93751846D01*
X157607802Y-94206161D01*
X157781295Y-94626046D01*
X157874700Y-94719614D01*
X157874700Y-96204158D01*
X157736351Y-96111716D01*
X157401388Y-96045087D01*
X157401383Y-96045088D01*
X156049227Y-96045088D01*
X155957112Y-95952812D01*
X155537530Y-95778587D01*
X155083215Y-95778190D01*
X154663330Y-95951683D01*
X154341800Y-96272652D01*
X154167575Y-96692234D01*
X154167513Y-96763714D01*
X154120000Y-96754092D01*
X153220000Y-96754092D01*
X152937991Y-96807156D01*
X152678982Y-96973823D01*
X152505223Y-97228128D01*
X152444092Y-97530000D01*
X151635800Y-97530000D01*
X151635800Y-90853600D01*
X154101800Y-90853600D01*
X154182555Y-90837537D01*
X154264895Y-90837537D01*
X155552816Y-90581354D01*
X155659171Y-90537300D01*
X155854178Y-90456526D01*
X156946025Y-89726977D01*
X157176677Y-89496325D01*
X157519100Y-88983852D01*
X157519100Y-90168145D01*
X157387030Y-90300215D01*
X157202795Y-90575942D01*
X157194290Y-90618702D01*
X157020424Y-90792264D01*
X156846199Y-91211846D01*
X156845802Y-91666161D01*
X157019295Y-92086046D01*
X157340264Y-92407576D01*
X157759846Y-92581801D01*
X158214161Y-92582198D01*
X158634046Y-92408705D01*
X158955576Y-92087736D01*
X159129801Y-91668154D01*
X159130198Y-91213839D01*
X159045312Y-91008398D01*
X159154205Y-90845428D01*
X159218900Y-90520185D01*
X159218900Y-87268840D01*
X167894947Y-95944887D01*
G36*
X194160128Y-101023777D02*
X194462000Y-101084908D01*
X195079086Y-101084908D01*
X195939394Y-101945216D01*
X195682000Y-101893092D01*
X194923953Y-101893092D01*
X193943989Y-100913127D01*
X193971900Y-100895167D01*
X194160128Y-101023777D01*
X194160128Y-101023777D01*
G37*
X194160128Y-101023777D02*
X194462000Y-101084908D01*
X195079086Y-101084908D01*
X195939394Y-101945216D01*
X195682000Y-101893092D01*
X194923953Y-101893092D01*
X193943989Y-100913127D01*
X193971900Y-100895167D01*
X194160128Y-101023777D01*
G36*
X172723000Y-100327000D02*
X172743000Y-100327000D01*
X172743000Y-100333000D01*
X172723000Y-100333000D01*
X172723000Y-100353000D01*
X172717000Y-100353000D01*
X172717000Y-100333000D01*
X172697000Y-100333000D01*
X172697000Y-100327000D01*
X172717000Y-100327000D01*
X172717000Y-100307000D01*
X172723000Y-100307000D01*
X172723000Y-100327000D01*
X172723000Y-100327000D01*
G37*
X172723000Y-100327000D02*
X172743000Y-100327000D01*
X172743000Y-100333000D01*
X172723000Y-100333000D01*
X172723000Y-100353000D01*
X172717000Y-100353000D01*
X172717000Y-100333000D01*
X172697000Y-100333000D01*
X172697000Y-100327000D01*
X172717000Y-100327000D01*
X172717000Y-100307000D01*
X172723000Y-100307000D01*
X172723000Y-100327000D01*
G36*
X197211000Y-66397000D02*
X197211000Y-66672000D01*
X198467000Y-66672000D01*
X198467000Y-66652000D01*
X198473000Y-66652000D01*
X198473000Y-66672000D01*
X198493000Y-66672000D01*
X198493000Y-66678000D01*
X198473000Y-66678000D01*
X198473000Y-68019246D01*
X198669913Y-68193026D01*
X198949027Y-68114313D01*
X199306099Y-67876954D01*
X199337156Y-68042009D01*
X199400855Y-68141000D01*
X199317000Y-68141000D01*
X198844997Y-68236081D01*
X198445309Y-68504552D01*
X198178785Y-68905541D01*
X198101666Y-69178997D01*
X198275754Y-69372000D01*
X199467000Y-69372000D01*
X199467000Y-69352000D01*
X199473000Y-69352000D01*
X199473000Y-69372000D01*
X200664246Y-69372000D01*
X200838334Y-69178997D01*
X200761215Y-68905541D01*
X200515532Y-68535908D01*
X201260000Y-68535908D01*
X201542009Y-68482844D01*
X201765588Y-68338976D01*
X201830061Y-68403449D01*
X202109025Y-68519000D01*
X202667250Y-68519000D01*
X202857000Y-68329250D01*
X202857000Y-67313000D01*
X202863000Y-67313000D01*
X202863000Y-68329250D01*
X203052750Y-68519000D01*
X203435706Y-68519000D01*
X203178785Y-68905541D01*
X203101666Y-69178997D01*
X203275754Y-69372000D01*
X204467000Y-69372000D01*
X204467000Y-68141000D01*
X204473000Y-68141000D01*
X204473000Y-69372000D01*
X205664246Y-69372000D01*
X205838334Y-69178997D01*
X205761215Y-68905541D01*
X205494691Y-68504552D01*
X205095003Y-68236081D01*
X204623000Y-68141000D01*
X204473000Y-68141000D01*
X204467000Y-68141000D01*
X204317000Y-68141000D01*
X204106125Y-68183479D01*
X204219000Y-67910974D01*
X204219000Y-67502750D01*
X204029250Y-67313000D01*
X202863000Y-67313000D01*
X202857000Y-67313000D01*
X202837000Y-67313000D01*
X202837000Y-67307000D01*
X202857000Y-67307000D01*
X202857000Y-66290750D01*
X202863000Y-66290750D01*
X202863000Y-67307000D01*
X204029250Y-67307000D01*
X204219000Y-67117250D01*
X204219000Y-66992724D01*
X204307984Y-67434570D01*
X204581874Y-67842369D01*
X204990973Y-68114313D01*
X205270087Y-68193026D01*
X205467000Y-68019246D01*
X205467000Y-66678000D01*
X204211000Y-66678000D01*
X204211000Y-66689712D01*
X204103449Y-66430061D01*
X203889939Y-66216551D01*
X203610975Y-66101000D01*
X203052750Y-66101000D01*
X202863000Y-66290750D01*
X202857000Y-66290750D01*
X202667250Y-66101000D01*
X202109025Y-66101000D01*
X201830061Y-66216551D01*
X201763573Y-66283039D01*
X201708949Y-66245716D01*
X201591555Y-65961600D01*
X204298686Y-65961600D01*
X204211000Y-66397000D01*
X204211000Y-66672000D01*
X205467000Y-66672000D01*
X205467000Y-66652000D01*
X205473000Y-66652000D01*
X205473000Y-66672000D01*
X205493000Y-66672000D01*
X205493000Y-66678000D01*
X205473000Y-66678000D01*
X205473000Y-68019246D01*
X205669913Y-68193026D01*
X205949027Y-68114313D01*
X206351800Y-67846574D01*
X206351800Y-82450600D01*
X203885800Y-82450600D01*
X203805045Y-82466663D01*
X202434784Y-82722846D01*
X202133423Y-82847674D01*
X202133422Y-82847675D01*
X201041575Y-83577223D01*
X200810923Y-83807875D01*
X200081374Y-84899722D01*
X199993108Y-85112817D01*
X199956546Y-85201084D01*
X199700363Y-86489005D01*
X199700364Y-86652100D01*
X199700363Y-86815195D01*
X199956546Y-88103116D01*
X199978108Y-88155171D01*
X200081374Y-88404478D01*
X200810923Y-89496325D01*
X201041575Y-89726977D01*
X201154903Y-89802700D01*
X201026942Y-89802700D01*
X198068204Y-86843961D01*
X198068204Y-85813909D01*
X198068205Y-85813904D01*
X198001576Y-85478941D01*
X197987116Y-85457300D01*
X197811835Y-85194973D01*
X197811832Y-85194971D01*
X196849084Y-84232222D01*
X196849198Y-84101839D01*
X196675705Y-83681954D01*
X196354736Y-83360424D01*
X195935154Y-83186199D01*
X195480839Y-83185802D01*
X195060954Y-83359295D01*
X194836600Y-83583258D01*
X194690038Y-83522401D01*
X194690198Y-83339839D01*
X194516705Y-82919954D01*
X194195736Y-82598424D01*
X193776154Y-82424199D01*
X193643945Y-82424083D01*
X193531239Y-82311377D01*
X193567572Y-82311409D01*
X194435652Y-81952726D01*
X195100392Y-81289145D01*
X195460590Y-80421692D01*
X195461409Y-79482428D01*
X195102726Y-78614348D01*
X194439145Y-77949608D01*
X194360015Y-77916750D01*
X199301000Y-77916750D01*
X199301000Y-78249974D01*
X199416551Y-78528939D01*
X199630061Y-78742449D01*
X199909025Y-78858000D01*
X200467250Y-78858000D01*
X200657000Y-78668250D01*
X200657000Y-77727000D01*
X199490750Y-77727000D01*
X199301000Y-77916750D01*
X194360015Y-77916750D01*
X193571692Y-77589410D01*
X192632428Y-77588591D01*
X191764348Y-77947274D01*
X191099608Y-78610855D01*
X190739410Y-79478308D01*
X190739403Y-79486340D01*
X190474154Y-79376199D01*
X190105300Y-79375877D01*
X190105300Y-76962000D01*
X190038672Y-76627037D01*
X190005908Y-76578002D01*
X190005908Y-76392750D01*
X199301000Y-76392750D01*
X199301000Y-76725974D01*
X199398765Y-76962000D01*
X199301000Y-77198026D01*
X199301000Y-77531250D01*
X199490750Y-77721000D01*
X200657000Y-77721000D01*
X200657000Y-76203000D01*
X199490750Y-76203000D01*
X199301000Y-76392750D01*
X190005908Y-76392750D01*
X190005908Y-76136500D01*
X189952844Y-75854491D01*
X189786177Y-75595482D01*
X189535645Y-75424301D01*
X198104595Y-75424301D01*
X198167295Y-75576046D01*
X198488264Y-75897576D01*
X198907846Y-76071801D01*
X199362161Y-76072198D01*
X199364841Y-76071091D01*
X199490750Y-76197000D01*
X200657000Y-76197000D01*
X200657000Y-74679000D01*
X200637000Y-74679000D01*
X200637000Y-74673000D01*
X200657000Y-74673000D01*
X200657000Y-74653000D01*
X200663000Y-74653000D01*
X200663000Y-74673000D01*
X200683000Y-74673000D01*
X200683000Y-74679000D01*
X200663000Y-74679000D01*
X200663000Y-76197000D01*
X200683000Y-76197000D01*
X200683000Y-76203000D01*
X200663000Y-76203000D01*
X200663000Y-77721000D01*
X200683000Y-77721000D01*
X200683000Y-77727000D01*
X200663000Y-77727000D01*
X200663000Y-78668250D01*
X200852750Y-78858000D01*
X201295897Y-78858000D01*
X201295802Y-78966161D01*
X201469295Y-79386046D01*
X201790264Y-79707576D01*
X202209846Y-79881801D01*
X202664161Y-79882198D01*
X203084046Y-79708705D01*
X203405576Y-79387736D01*
X203579801Y-78968154D01*
X203580006Y-78733045D01*
X203701018Y-78655177D01*
X203874777Y-78400872D01*
X203935908Y-78099000D01*
X203935908Y-77349000D01*
X203882844Y-77066991D01*
X203815928Y-76963000D01*
X203874777Y-76876872D01*
X203935908Y-76575000D01*
X203935908Y-75825000D01*
X203882844Y-75542991D01*
X203815928Y-75439000D01*
X203874777Y-75352872D01*
X203935908Y-75051000D01*
X203935908Y-74301000D01*
X203882844Y-74018991D01*
X203716177Y-73759982D01*
X203461872Y-73586223D01*
X203237239Y-73540733D01*
X203178931Y-73453469D01*
X203178928Y-73453467D01*
X202895661Y-73170200D01*
X204072928Y-71992933D01*
X204072931Y-71992931D01*
X204262672Y-71708963D01*
X204271756Y-71663295D01*
X204421576Y-71513736D01*
X204595801Y-71094154D01*
X204596198Y-70639839D01*
X204583456Y-70609000D01*
X204623000Y-70609000D01*
X205095003Y-70513919D01*
X205494691Y-70245448D01*
X205761215Y-69844459D01*
X205838334Y-69571003D01*
X205664246Y-69378000D01*
X204473000Y-69378000D01*
X204473000Y-69398000D01*
X204467000Y-69398000D01*
X204467000Y-69378000D01*
X203275754Y-69378000D01*
X203101666Y-69571003D01*
X203153429Y-69754548D01*
X202807954Y-69897295D01*
X202486424Y-70218264D01*
X202312199Y-70637846D01*
X202311802Y-71092161D01*
X202366236Y-71223902D01*
X201580222Y-72009916D01*
X201449839Y-72009802D01*
X201029954Y-72183295D01*
X200708424Y-72504264D01*
X200534199Y-72923846D01*
X200533802Y-73378161D01*
X200656998Y-73676319D01*
X200656998Y-73731748D01*
X200467250Y-73542000D01*
X199909025Y-73542000D01*
X199630061Y-73657551D01*
X199459728Y-73827884D01*
X199364154Y-73788199D01*
X199161341Y-73788022D01*
X199089964Y-73740329D01*
X198755001Y-73673700D01*
X198754996Y-73673701D01*
X188087004Y-73673701D01*
X188086999Y-73673700D01*
X187766575Y-73737437D01*
X187752036Y-73740329D01*
X187468068Y-73930070D01*
X187468066Y-73930073D01*
X187366480Y-74031658D01*
X187366478Y-74031661D01*
X187356139Y-74042000D01*
X184150000Y-74042000D01*
X183810177Y-74109595D01*
X183522089Y-74302089D01*
X182760089Y-75064089D01*
X182567595Y-75352177D01*
X182500000Y-75692000D01*
X182500000Y-77216000D01*
X182567595Y-77555823D01*
X182760089Y-77843911D01*
X183522089Y-78605911D01*
X183810177Y-78798405D01*
X184057848Y-78847670D01*
X184578089Y-79367911D01*
X184824287Y-79532415D01*
X184903823Y-79656018D01*
X185127398Y-79808780D01*
X183914178Y-81022000D01*
X183719989Y-81022000D01*
X183678553Y-80957606D01*
X183760000Y-80760975D01*
X183760000Y-80202750D01*
X183570250Y-80013000D01*
X182629000Y-80013000D01*
X182629000Y-80033000D01*
X182623000Y-80033000D01*
X182623000Y-80013000D01*
X181105000Y-80013000D01*
X181105000Y-80033000D01*
X181099000Y-80033000D01*
X181099000Y-80013000D01*
X181079000Y-80013000D01*
X181079000Y-80007000D01*
X181099000Y-80007000D01*
X181099000Y-78840750D01*
X181105000Y-78840750D01*
X181105000Y-80007000D01*
X182623000Y-80007000D01*
X182623000Y-78840750D01*
X182629000Y-78840750D01*
X182629000Y-80007000D01*
X183570250Y-80007000D01*
X183760000Y-79817250D01*
X183760000Y-79259025D01*
X183644449Y-78980061D01*
X183430939Y-78766551D01*
X183151974Y-78651000D01*
X182818750Y-78651000D01*
X182629000Y-78840750D01*
X182623000Y-78840750D01*
X182433250Y-78651000D01*
X182100026Y-78651000D01*
X181864000Y-78748765D01*
X181627974Y-78651000D01*
X181294750Y-78651000D01*
X181105000Y-78840750D01*
X181099000Y-78840750D01*
X180909250Y-78651000D01*
X180576026Y-78651000D01*
X180424268Y-78713860D01*
X180445908Y-78607000D01*
X180445908Y-77857000D01*
X180392844Y-77574991D01*
X180226177Y-77315982D01*
X179971872Y-77142223D01*
X179670000Y-77081092D01*
X178470000Y-77081092D01*
X178187991Y-77134156D01*
X178117606Y-77179447D01*
X177920975Y-77098000D01*
X177362750Y-77098000D01*
X177173000Y-77287750D01*
X177173000Y-78229000D01*
X177193000Y-78229000D01*
X177193000Y-78235000D01*
X177173000Y-78235000D01*
X177173000Y-78255000D01*
X177167000Y-78255000D01*
X177167000Y-78235000D01*
X177147000Y-78235000D01*
X177147000Y-78229000D01*
X177167000Y-78229000D01*
X177167000Y-77287750D01*
X176977250Y-77098000D01*
X176419025Y-77098000D01*
X176389300Y-77110313D01*
X176389300Y-76998756D01*
X176402078Y-77007487D01*
X176703950Y-77068618D01*
X177504050Y-77068618D01*
X177786059Y-77015554D01*
X178045068Y-76848887D01*
X178061983Y-76824131D01*
X178174011Y-76936159D01*
X178452975Y-77051710D01*
X178811250Y-77051710D01*
X179001000Y-76861960D01*
X179001000Y-75395280D01*
X179007000Y-75395280D01*
X179007000Y-76861960D01*
X179196750Y-77051710D01*
X179555025Y-77051710D01*
X179833989Y-76936159D01*
X180047499Y-76722649D01*
X180163050Y-76443684D01*
X180163050Y-75585030D01*
X179973300Y-75395280D01*
X179007000Y-75395280D01*
X179001000Y-75395280D01*
X178981000Y-75395280D01*
X178981000Y-75389280D01*
X179001000Y-75389280D01*
X179001000Y-75369280D01*
X179007000Y-75369280D01*
X179007000Y-75389280D01*
X179973300Y-75389280D01*
X180163050Y-75199530D01*
X180163050Y-74340876D01*
X180047499Y-74061911D01*
X179833989Y-73848401D01*
X179555025Y-73732850D01*
X179196750Y-73732850D01*
X179007002Y-73922598D01*
X179007002Y-73829141D01*
X179160151Y-73605000D01*
X179685699Y-73605000D01*
X179692264Y-73611576D01*
X180111846Y-73785801D01*
X180566161Y-73786198D01*
X180720322Y-73722500D01*
X180721400Y-73722500D01*
X180873846Y-73785801D01*
X181328161Y-73786198D01*
X181748046Y-73612705D01*
X182069576Y-73291736D01*
X182243801Y-72872154D01*
X182244198Y-72417839D01*
X182070705Y-71997954D01*
X181749736Y-71676424D01*
X181330154Y-71502199D01*
X180875839Y-71501802D01*
X180721678Y-71565500D01*
X180720600Y-71565500D01*
X180568154Y-71502199D01*
X180113839Y-71501802D01*
X179693954Y-71675295D01*
X179686236Y-71683000D01*
X179229958Y-71683000D01*
X179229958Y-71489570D01*
X179176894Y-71207561D01*
X179010227Y-70948552D01*
X178755922Y-70774793D01*
X178454050Y-70713662D01*
X178237102Y-70713662D01*
X177963910Y-70440470D01*
X177840484Y-70358000D01*
X177652139Y-70232152D01*
X177590816Y-70219954D01*
X177284380Y-70158999D01*
X177284375Y-70159000D01*
X175152301Y-70159000D01*
X175145736Y-70152424D01*
X174726154Y-69978199D01*
X174271839Y-69977802D01*
X174117138Y-70041723D01*
X173964154Y-69978199D01*
X173509839Y-69977802D01*
X173089954Y-70151295D01*
X172768424Y-70472264D01*
X172594199Y-70891846D01*
X172593802Y-71346161D01*
X172767295Y-71766046D01*
X173088264Y-72087576D01*
X173507846Y-72261801D01*
X173962161Y-72262198D01*
X174116862Y-72198277D01*
X174269846Y-72261801D01*
X174724161Y-72262198D01*
X175144046Y-72088705D01*
X175151764Y-72081000D01*
X176878042Y-72081000D01*
X176878042Y-73290430D01*
X176931106Y-73572439D01*
X177023447Y-73715942D01*
X176703950Y-73715942D01*
X176421941Y-73769006D01*
X176162932Y-73935673D01*
X175989173Y-74189978D01*
X175928042Y-74491850D01*
X175928042Y-74725492D01*
X175856419Y-74773349D01*
X175856417Y-74773352D01*
X174895069Y-75734699D01*
X174705328Y-76018667D01*
X174638699Y-76353630D01*
X174638700Y-76353635D01*
X174638700Y-78993995D01*
X174638699Y-78994000D01*
X174705328Y-79328963D01*
X174895069Y-79612931D01*
X175911069Y-80628931D01*
X176110957Y-80762492D01*
X176122156Y-80822009D01*
X176288823Y-81081018D01*
X176294700Y-81085034D01*
X176294700Y-81137408D01*
X176130223Y-81378128D01*
X176069092Y-81680000D01*
X176069092Y-82740000D01*
X176122156Y-83022009D01*
X176185574Y-83120564D01*
X176150982Y-83142823D01*
X175977223Y-83397128D01*
X175916092Y-83699000D01*
X175916092Y-84449000D01*
X175969156Y-84731009D01*
X176135823Y-84990018D01*
X176390128Y-85163777D01*
X176692000Y-85224908D01*
X177892000Y-85224908D01*
X178174009Y-85171844D01*
X178244394Y-85126553D01*
X178441025Y-85208000D01*
X178999250Y-85208000D01*
X179188998Y-85018252D01*
X179188998Y-85039062D01*
X178590960Y-85637100D01*
X177419000Y-85637100D01*
X177093757Y-85701795D01*
X176903928Y-85828635D01*
X176818030Y-85886030D01*
X174913030Y-87791030D01*
X174728795Y-88066757D01*
X174664100Y-88392000D01*
X174664100Y-90928793D01*
X174546424Y-91046264D01*
X174372199Y-91465846D01*
X174371802Y-91920161D01*
X174545295Y-92340046D01*
X174660967Y-92455921D01*
X174546424Y-92570264D01*
X174372199Y-92989846D01*
X174371802Y-93444161D01*
X174545295Y-93864046D01*
X174866264Y-94185576D01*
X175285846Y-94359801D01*
X175740161Y-94360198D01*
X176160046Y-94186705D01*
X176481576Y-93865736D01*
X176655801Y-93446154D01*
X176656198Y-92991839D01*
X176482705Y-92571954D01*
X176367033Y-92456079D01*
X176481576Y-92341736D01*
X176655801Y-91922154D01*
X176656198Y-91467839D01*
X176482705Y-91047954D01*
X176363900Y-90928941D01*
X176363900Y-89346750D01*
X181375000Y-89346750D01*
X181375000Y-90304975D01*
X181490551Y-90583939D01*
X181704061Y-90797449D01*
X181983026Y-90913000D01*
X182941250Y-90913000D01*
X183131000Y-90723250D01*
X183131000Y-89157000D01*
X181564750Y-89157000D01*
X181375000Y-89346750D01*
X176363900Y-89346750D01*
X176363900Y-88744040D01*
X177771040Y-87336900D01*
X178943000Y-87336900D01*
X179268243Y-87272205D01*
X179543970Y-87087970D01*
X179960171Y-86671769D01*
X179959802Y-87094161D01*
X180133295Y-87514046D01*
X180454264Y-87835576D01*
X180873846Y-88009801D01*
X181006055Y-88009917D01*
X181266225Y-88270086D01*
X181266227Y-88270089D01*
X181375000Y-88342769D01*
X181375000Y-88961250D01*
X181564750Y-89151000D01*
X183131000Y-89151000D01*
X183131000Y-89131000D01*
X183137000Y-89131000D01*
X183137000Y-89151000D01*
X183157000Y-89151000D01*
X183157000Y-89157000D01*
X183137000Y-89157000D01*
X183137000Y-90723250D01*
X183326750Y-90913000D01*
X184284974Y-90913000D01*
X184563939Y-90797449D01*
X184703565Y-90657823D01*
X185322179Y-90914694D01*
X186022748Y-90915305D01*
X186670223Y-90647774D01*
X187166033Y-90152829D01*
X187434694Y-89505821D01*
X187435305Y-88805252D01*
X187320110Y-88526458D01*
X187745100Y-88526458D01*
X187745100Y-91736400D01*
X187809795Y-92061643D01*
X187994030Y-92337370D01*
X188341947Y-92685287D01*
X188341802Y-92851561D01*
X188354743Y-92882881D01*
X188324931Y-92853069D01*
X188040963Y-92663328D01*
X187706000Y-92596699D01*
X187705995Y-92596700D01*
X186921851Y-92596700D01*
X186829736Y-92504424D01*
X186410154Y-92330199D01*
X185955839Y-92329802D01*
X185535954Y-92503295D01*
X185214424Y-92824264D01*
X185040199Y-93243846D01*
X185039802Y-93698161D01*
X185213295Y-94118046D01*
X185534264Y-94439576D01*
X185953846Y-94613801D01*
X186408161Y-94614198D01*
X186828046Y-94440705D01*
X186921614Y-94347300D01*
X187343438Y-94347300D01*
X188120056Y-95123918D01*
X187987839Y-95123802D01*
X187567954Y-95297295D01*
X187246424Y-95618264D01*
X187072199Y-96037846D01*
X187071802Y-96492161D01*
X187245295Y-96912046D01*
X187338700Y-97005614D01*
X187338700Y-97674492D01*
X186080400Y-97674492D01*
X185798391Y-97727556D01*
X185539382Y-97894223D01*
X185365623Y-98148528D01*
X185304492Y-98450400D01*
X185304492Y-99784855D01*
X180854621Y-99784855D01*
X180937000Y-99585974D01*
X180937000Y-99252750D01*
X180747250Y-99063000D01*
X179581000Y-99063000D01*
X179581000Y-99083000D01*
X179575000Y-99083000D01*
X179575000Y-99063000D01*
X179555000Y-99063000D01*
X179555000Y-99057000D01*
X179575000Y-99057000D01*
X179575000Y-97539000D01*
X179581000Y-97539000D01*
X179581000Y-99057000D01*
X180747250Y-99057000D01*
X180937000Y-98867250D01*
X180937000Y-98534026D01*
X180839235Y-98298000D01*
X180937000Y-98061974D01*
X180937000Y-97728750D01*
X180747250Y-97539000D01*
X179581000Y-97539000D01*
X179575000Y-97539000D01*
X179555000Y-97539000D01*
X179555000Y-97533000D01*
X179575000Y-97533000D01*
X179575000Y-96015000D01*
X179581000Y-96015000D01*
X179581000Y-97533000D01*
X180747250Y-97533000D01*
X180937000Y-97343250D01*
X180937000Y-97010026D01*
X180839235Y-96774000D01*
X180937000Y-96537974D01*
X180937000Y-96204750D01*
X180747250Y-96015000D01*
X179581000Y-96015000D01*
X179575000Y-96015000D01*
X179555000Y-96015000D01*
X179555000Y-96009000D01*
X179575000Y-96009000D01*
X179575000Y-95989000D01*
X179581000Y-95989000D01*
X179581000Y-96009000D01*
X180747250Y-96009000D01*
X180937000Y-95819250D01*
X180937000Y-95486026D01*
X180821449Y-95207061D01*
X180607939Y-94993551D01*
X180328975Y-94878000D01*
X179786889Y-94878000D01*
X180037576Y-94627750D01*
X180211801Y-94208168D01*
X180212198Y-93753853D01*
X180038705Y-93333968D01*
X179717736Y-93012438D01*
X179298154Y-92838213D01*
X178843839Y-92837816D01*
X178434528Y-93006940D01*
X178028154Y-92838199D01*
X177573839Y-92837802D01*
X177153954Y-93011295D01*
X176832424Y-93332264D01*
X176658199Y-93751846D01*
X176658083Y-93884055D01*
X175911069Y-94631069D01*
X175721328Y-94915037D01*
X175654699Y-95250000D01*
X175654700Y-95250005D01*
X175654700Y-96023838D01*
X175531931Y-95901069D01*
X175247963Y-95711328D01*
X174913000Y-95644699D01*
X174912995Y-95644700D01*
X174729851Y-95644700D01*
X174637736Y-95552424D01*
X174218154Y-95378199D01*
X173763839Y-95377802D01*
X173343954Y-95551295D01*
X173022424Y-95872264D01*
X172848199Y-96291846D01*
X172847802Y-96746161D01*
X172851079Y-96754092D01*
X172270000Y-96754092D01*
X171987991Y-96807156D01*
X171728982Y-96973823D01*
X171683295Y-97040688D01*
X171683295Y-94644897D01*
X171654620Y-94500736D01*
X171618601Y-94319655D01*
X171434365Y-94043927D01*
X171293668Y-93903230D01*
X171402009Y-93882844D01*
X171625588Y-93738976D01*
X171690061Y-93803449D01*
X171969025Y-93919000D01*
X172527250Y-93919000D01*
X172717000Y-93729250D01*
X172717000Y-92713000D01*
X172723000Y-92713000D01*
X172723000Y-93729250D01*
X172912750Y-93919000D01*
X173470975Y-93919000D01*
X173749939Y-93803449D01*
X173963449Y-93589939D01*
X174079000Y-93310974D01*
X174079000Y-92902750D01*
X173889250Y-92713000D01*
X172723000Y-92713000D01*
X172717000Y-92713000D01*
X172697000Y-92713000D01*
X172697000Y-92707000D01*
X172717000Y-92707000D01*
X172717000Y-92687000D01*
X172723000Y-92687000D01*
X172723000Y-92707000D01*
X173889250Y-92707000D01*
X174079000Y-92517250D01*
X174079000Y-92109026D01*
X173963449Y-91830061D01*
X173749939Y-91616551D01*
X173470975Y-91501000D01*
X173029652Y-91501000D01*
X173052576Y-91478116D01*
X173226801Y-91058534D01*
X173227198Y-90604219D01*
X173053705Y-90184334D01*
X172732736Y-89862804D01*
X172313154Y-89688579D01*
X171858839Y-89688182D01*
X171438954Y-89861675D01*
X171117424Y-90182644D01*
X170943199Y-90602226D01*
X170942802Y-91056541D01*
X170995056Y-91183004D01*
X170693968Y-91484092D01*
X169920000Y-91484092D01*
X169637991Y-91537156D01*
X169378982Y-91703823D01*
X169263409Y-91872971D01*
X162266900Y-84876462D01*
X162266900Y-80417572D01*
X162738591Y-80417572D01*
X163097274Y-81285652D01*
X163760855Y-81950392D01*
X164628308Y-82310590D01*
X165567572Y-82311409D01*
X166435652Y-81952726D01*
X167100392Y-81289145D01*
X167460590Y-80421692D01*
X167460727Y-80264000D01*
X169658092Y-80264000D01*
X169658092Y-82296000D01*
X169711156Y-82578009D01*
X169877823Y-82837018D01*
X170132128Y-83010777D01*
X170434000Y-83071908D01*
X172466000Y-83071908D01*
X172748009Y-83018844D01*
X173007018Y-82852177D01*
X173053017Y-82784855D01*
X173309972Y-82956547D01*
X173990000Y-83091813D01*
X174670028Y-82956547D01*
X175246529Y-82571342D01*
X175631734Y-81994841D01*
X175767000Y-81314813D01*
X175767000Y-81245187D01*
X175631734Y-80565159D01*
X175246529Y-79988658D01*
X174670028Y-79603453D01*
X173990000Y-79468187D01*
X173309972Y-79603453D01*
X173054923Y-79773871D01*
X173022177Y-79722982D01*
X172767872Y-79549223D01*
X172466000Y-79488092D01*
X170434000Y-79488092D01*
X170151991Y-79541156D01*
X169892982Y-79707823D01*
X169719223Y-79962128D01*
X169658092Y-80264000D01*
X167460727Y-80264000D01*
X167461409Y-79482428D01*
X167102726Y-78614348D01*
X166439145Y-77949608D01*
X165571692Y-77589410D01*
X164632428Y-77588591D01*
X163764348Y-77947274D01*
X163099608Y-78610855D01*
X162739410Y-79478308D01*
X162738591Y-80417572D01*
X162266900Y-80417572D01*
X162266900Y-78362207D01*
X162384576Y-78244736D01*
X162558801Y-77825154D01*
X162559198Y-77370839D01*
X162385705Y-76950954D01*
X162064736Y-76629424D01*
X161645154Y-76455199D01*
X161190839Y-76454802D01*
X160770954Y-76628295D01*
X160449424Y-76949264D01*
X160275199Y-77368846D01*
X160274802Y-77823161D01*
X160448295Y-78243046D01*
X160567100Y-78362059D01*
X160567100Y-82240046D01*
X160480705Y-82030954D01*
X160159736Y-81709424D01*
X159740154Y-81535199D01*
X159285839Y-81534802D01*
X158865954Y-81708295D01*
X158550465Y-82023233D01*
X158448705Y-81776954D01*
X158127736Y-81455424D01*
X157708154Y-81281199D01*
X157253839Y-81280802D01*
X156833954Y-81454295D01*
X156512424Y-81775264D01*
X156338199Y-82194846D01*
X156337802Y-82649161D01*
X156511295Y-83069046D01*
X156832264Y-83390576D01*
X157251846Y-83564801D01*
X157420008Y-83564948D01*
X157519100Y-83664040D01*
X157519100Y-84320348D01*
X157176677Y-83807875D01*
X156946025Y-83577223D01*
X155854178Y-82847674D01*
X155631832Y-82755576D01*
X155552816Y-82722846D01*
X154264895Y-82466663D01*
X154182555Y-82466663D01*
X154101800Y-82450600D01*
X151635800Y-82450600D01*
X151635800Y-69786500D01*
X184136092Y-69786500D01*
X184136092Y-70929500D01*
X184189156Y-71211509D01*
X184355823Y-71470518D01*
X184610128Y-71644277D01*
X184912000Y-71705408D01*
X185294154Y-71705408D01*
X185293802Y-72108161D01*
X185467295Y-72528046D01*
X185788264Y-72849576D01*
X186207846Y-73023801D01*
X186662161Y-73024198D01*
X187082046Y-72850705D01*
X187268493Y-72664584D01*
X187307537Y-72690672D01*
X187642500Y-72757301D01*
X187642505Y-72757300D01*
X190014149Y-72757300D01*
X190106264Y-72849576D01*
X190525846Y-73023801D01*
X190980161Y-73024198D01*
X191400046Y-72850705D01*
X191721576Y-72529736D01*
X191895801Y-72110154D01*
X191896198Y-71655839D01*
X191722705Y-71235954D01*
X191401736Y-70914424D01*
X190982154Y-70740199D01*
X190527839Y-70739802D01*
X190107954Y-70913295D01*
X190014386Y-71006700D01*
X189989000Y-71006700D01*
X189989000Y-70550750D01*
X189799250Y-70361000D01*
X188979000Y-70361000D01*
X188979000Y-70381000D01*
X188973000Y-70381000D01*
X188973000Y-70361000D01*
X188953000Y-70361000D01*
X188953000Y-70355000D01*
X188973000Y-70355000D01*
X188973000Y-70335000D01*
X188979000Y-70335000D01*
X188979000Y-70355000D01*
X189799250Y-70355000D01*
X189989000Y-70165250D01*
X189989000Y-69635526D01*
X189873449Y-69356561D01*
X189705727Y-69188839D01*
X189863801Y-68808154D01*
X189864035Y-68540900D01*
X190528960Y-68540900D01*
X194725030Y-72736970D01*
X195000757Y-72921205D01*
X195326000Y-72985900D01*
X198370793Y-72985900D01*
X198488264Y-73103576D01*
X198907846Y-73277801D01*
X199362161Y-73278198D01*
X199782046Y-73104705D01*
X200103576Y-72783736D01*
X200277801Y-72364154D01*
X200278198Y-71909839D01*
X200104705Y-71489954D01*
X199783736Y-71168424D01*
X199364154Y-70994199D01*
X198909839Y-70993802D01*
X198489954Y-71167295D01*
X198370941Y-71286100D01*
X195678040Y-71286100D01*
X193962943Y-69571003D01*
X198101666Y-69571003D01*
X198178785Y-69844459D01*
X198445309Y-70245448D01*
X198844997Y-70513919D01*
X199317000Y-70609000D01*
X199467000Y-70609000D01*
X199467000Y-69378000D01*
X199473000Y-69378000D01*
X199473000Y-70609000D01*
X199623000Y-70609000D01*
X200095003Y-70513919D01*
X200494691Y-70245448D01*
X200761215Y-69844459D01*
X200838334Y-69571003D01*
X200664246Y-69378000D01*
X199473000Y-69378000D01*
X199467000Y-69378000D01*
X198275754Y-69378000D01*
X198101666Y-69571003D01*
X193962943Y-69571003D01*
X191481970Y-67090030D01*
X191206243Y-66905795D01*
X190881000Y-66841100D01*
X187515500Y-66841100D01*
X187190257Y-66905795D01*
X186914530Y-67090030D01*
X184993968Y-69010592D01*
X184912000Y-69010592D01*
X184629991Y-69063656D01*
X184370982Y-69230323D01*
X184197223Y-69484628D01*
X184136092Y-69786500D01*
X151635800Y-69786500D01*
X151635800Y-66678000D01*
X197211000Y-66678000D01*
X197211000Y-66953000D01*
X197307984Y-67434570D01*
X197581874Y-67842369D01*
X197990973Y-68114313D01*
X198270087Y-68193026D01*
X198467000Y-68019246D01*
X198467000Y-66678000D01*
X197211000Y-66678000D01*
X151635800Y-66678000D01*
X151635800Y-65961600D01*
X197298686Y-65961600D01*
X197211000Y-66397000D01*
X197211000Y-66397000D01*
G37*
X197211000Y-66397000D02*
X197211000Y-66672000D01*
X198467000Y-66672000D01*
X198467000Y-66652000D01*
X198473000Y-66652000D01*
X198473000Y-66672000D01*
X198493000Y-66672000D01*
X198493000Y-66678000D01*
X198473000Y-66678000D01*
X198473000Y-68019246D01*
X198669913Y-68193026D01*
X198949027Y-68114313D01*
X199306099Y-67876954D01*
X199337156Y-68042009D01*
X199400855Y-68141000D01*
X199317000Y-68141000D01*
X198844997Y-68236081D01*
X198445309Y-68504552D01*
X198178785Y-68905541D01*
X198101666Y-69178997D01*
X198275754Y-69372000D01*
X199467000Y-69372000D01*
X199467000Y-69352000D01*
X199473000Y-69352000D01*
X199473000Y-69372000D01*
X200664246Y-69372000D01*
X200838334Y-69178997D01*
X200761215Y-68905541D01*
X200515532Y-68535908D01*
X201260000Y-68535908D01*
X201542009Y-68482844D01*
X201765588Y-68338976D01*
X201830061Y-68403449D01*
X202109025Y-68519000D01*
X202667250Y-68519000D01*
X202857000Y-68329250D01*
X202857000Y-67313000D01*
X202863000Y-67313000D01*
X202863000Y-68329250D01*
X203052750Y-68519000D01*
X203435706Y-68519000D01*
X203178785Y-68905541D01*
X203101666Y-69178997D01*
X203275754Y-69372000D01*
X204467000Y-69372000D01*
X204467000Y-68141000D01*
X204473000Y-68141000D01*
X204473000Y-69372000D01*
X205664246Y-69372000D01*
X205838334Y-69178997D01*
X205761215Y-68905541D01*
X205494691Y-68504552D01*
X205095003Y-68236081D01*
X204623000Y-68141000D01*
X204473000Y-68141000D01*
X204467000Y-68141000D01*
X204317000Y-68141000D01*
X204106125Y-68183479D01*
X204219000Y-67910974D01*
X204219000Y-67502750D01*
X204029250Y-67313000D01*
X202863000Y-67313000D01*
X202857000Y-67313000D01*
X202837000Y-67313000D01*
X202837000Y-67307000D01*
X202857000Y-67307000D01*
X202857000Y-66290750D01*
X202863000Y-66290750D01*
X202863000Y-67307000D01*
X204029250Y-67307000D01*
X204219000Y-67117250D01*
X204219000Y-66992724D01*
X204307984Y-67434570D01*
X204581874Y-67842369D01*
X204990973Y-68114313D01*
X205270087Y-68193026D01*
X205467000Y-68019246D01*
X205467000Y-66678000D01*
X204211000Y-66678000D01*
X204211000Y-66689712D01*
X204103449Y-66430061D01*
X203889939Y-66216551D01*
X203610975Y-66101000D01*
X203052750Y-66101000D01*
X202863000Y-66290750D01*
X202857000Y-66290750D01*
X202667250Y-66101000D01*
X202109025Y-66101000D01*
X201830061Y-66216551D01*
X201763573Y-66283039D01*
X201708949Y-66245716D01*
X201591555Y-65961600D01*
X204298686Y-65961600D01*
X204211000Y-66397000D01*
X204211000Y-66672000D01*
X205467000Y-66672000D01*
X205467000Y-66652000D01*
X205473000Y-66652000D01*
X205473000Y-66672000D01*
X205493000Y-66672000D01*
X205493000Y-66678000D01*
X205473000Y-66678000D01*
X205473000Y-68019246D01*
X205669913Y-68193026D01*
X205949027Y-68114313D01*
X206351800Y-67846574D01*
X206351800Y-82450600D01*
X203885800Y-82450600D01*
X203805045Y-82466663D01*
X202434784Y-82722846D01*
X202133423Y-82847674D01*
X202133422Y-82847675D01*
X201041575Y-83577223D01*
X200810923Y-83807875D01*
X200081374Y-84899722D01*
X199993108Y-85112817D01*
X199956546Y-85201084D01*
X199700363Y-86489005D01*
X199700364Y-86652100D01*
X199700363Y-86815195D01*
X199956546Y-88103116D01*
X199978108Y-88155171D01*
X200081374Y-88404478D01*
X200810923Y-89496325D01*
X201041575Y-89726977D01*
X201154903Y-89802700D01*
X201026942Y-89802700D01*
X198068204Y-86843961D01*
X198068204Y-85813909D01*
X198068205Y-85813904D01*
X198001576Y-85478941D01*
X197987116Y-85457300D01*
X197811835Y-85194973D01*
X197811832Y-85194971D01*
X196849084Y-84232222D01*
X196849198Y-84101839D01*
X196675705Y-83681954D01*
X196354736Y-83360424D01*
X195935154Y-83186199D01*
X195480839Y-83185802D01*
X195060954Y-83359295D01*
X194836600Y-83583258D01*
X194690038Y-83522401D01*
X194690198Y-83339839D01*
X194516705Y-82919954D01*
X194195736Y-82598424D01*
X193776154Y-82424199D01*
X193643945Y-82424083D01*
X193531239Y-82311377D01*
X193567572Y-82311409D01*
X194435652Y-81952726D01*
X195100392Y-81289145D01*
X195460590Y-80421692D01*
X195461409Y-79482428D01*
X195102726Y-78614348D01*
X194439145Y-77949608D01*
X194360015Y-77916750D01*
X199301000Y-77916750D01*
X199301000Y-78249974D01*
X199416551Y-78528939D01*
X199630061Y-78742449D01*
X199909025Y-78858000D01*
X200467250Y-78858000D01*
X200657000Y-78668250D01*
X200657000Y-77727000D01*
X199490750Y-77727000D01*
X199301000Y-77916750D01*
X194360015Y-77916750D01*
X193571692Y-77589410D01*
X192632428Y-77588591D01*
X191764348Y-77947274D01*
X191099608Y-78610855D01*
X190739410Y-79478308D01*
X190739403Y-79486340D01*
X190474154Y-79376199D01*
X190105300Y-79375877D01*
X190105300Y-76962000D01*
X190038672Y-76627037D01*
X190005908Y-76578002D01*
X190005908Y-76392750D01*
X199301000Y-76392750D01*
X199301000Y-76725974D01*
X199398765Y-76962000D01*
X199301000Y-77198026D01*
X199301000Y-77531250D01*
X199490750Y-77721000D01*
X200657000Y-77721000D01*
X200657000Y-76203000D01*
X199490750Y-76203000D01*
X199301000Y-76392750D01*
X190005908Y-76392750D01*
X190005908Y-76136500D01*
X189952844Y-75854491D01*
X189786177Y-75595482D01*
X189535645Y-75424301D01*
X198104595Y-75424301D01*
X198167295Y-75576046D01*
X198488264Y-75897576D01*
X198907846Y-76071801D01*
X199362161Y-76072198D01*
X199364841Y-76071091D01*
X199490750Y-76197000D01*
X200657000Y-76197000D01*
X200657000Y-74679000D01*
X200637000Y-74679000D01*
X200637000Y-74673000D01*
X200657000Y-74673000D01*
X200657000Y-74653000D01*
X200663000Y-74653000D01*
X200663000Y-74673000D01*
X200683000Y-74673000D01*
X200683000Y-74679000D01*
X200663000Y-74679000D01*
X200663000Y-76197000D01*
X200683000Y-76197000D01*
X200683000Y-76203000D01*
X200663000Y-76203000D01*
X200663000Y-77721000D01*
X200683000Y-77721000D01*
X200683000Y-77727000D01*
X200663000Y-77727000D01*
X200663000Y-78668250D01*
X200852750Y-78858000D01*
X201295897Y-78858000D01*
X201295802Y-78966161D01*
X201469295Y-79386046D01*
X201790264Y-79707576D01*
X202209846Y-79881801D01*
X202664161Y-79882198D01*
X203084046Y-79708705D01*
X203405576Y-79387736D01*
X203579801Y-78968154D01*
X203580006Y-78733045D01*
X203701018Y-78655177D01*
X203874777Y-78400872D01*
X203935908Y-78099000D01*
X203935908Y-77349000D01*
X203882844Y-77066991D01*
X203815928Y-76963000D01*
X203874777Y-76876872D01*
X203935908Y-76575000D01*
X203935908Y-75825000D01*
X203882844Y-75542991D01*
X203815928Y-75439000D01*
X203874777Y-75352872D01*
X203935908Y-75051000D01*
X203935908Y-74301000D01*
X203882844Y-74018991D01*
X203716177Y-73759982D01*
X203461872Y-73586223D01*
X203237239Y-73540733D01*
X203178931Y-73453469D01*
X203178928Y-73453467D01*
X202895661Y-73170200D01*
X204072928Y-71992933D01*
X204072931Y-71992931D01*
X204262672Y-71708963D01*
X204271756Y-71663295D01*
X204421576Y-71513736D01*
X204595801Y-71094154D01*
X204596198Y-70639839D01*
X204583456Y-70609000D01*
X204623000Y-70609000D01*
X205095003Y-70513919D01*
X205494691Y-70245448D01*
X205761215Y-69844459D01*
X205838334Y-69571003D01*
X205664246Y-69378000D01*
X204473000Y-69378000D01*
X204473000Y-69398000D01*
X204467000Y-69398000D01*
X204467000Y-69378000D01*
X203275754Y-69378000D01*
X203101666Y-69571003D01*
X203153429Y-69754548D01*
X202807954Y-69897295D01*
X202486424Y-70218264D01*
X202312199Y-70637846D01*
X202311802Y-71092161D01*
X202366236Y-71223902D01*
X201580222Y-72009916D01*
X201449839Y-72009802D01*
X201029954Y-72183295D01*
X200708424Y-72504264D01*
X200534199Y-72923846D01*
X200533802Y-73378161D01*
X200656998Y-73676319D01*
X200656998Y-73731748D01*
X200467250Y-73542000D01*
X199909025Y-73542000D01*
X199630061Y-73657551D01*
X199459728Y-73827884D01*
X199364154Y-73788199D01*
X199161341Y-73788022D01*
X199089964Y-73740329D01*
X198755001Y-73673700D01*
X198754996Y-73673701D01*
X188087004Y-73673701D01*
X188086999Y-73673700D01*
X187766575Y-73737437D01*
X187752036Y-73740329D01*
X187468068Y-73930070D01*
X187468066Y-73930073D01*
X187366480Y-74031658D01*
X187366478Y-74031661D01*
X187356139Y-74042000D01*
X184150000Y-74042000D01*
X183810177Y-74109595D01*
X183522089Y-74302089D01*
X182760089Y-75064089D01*
X182567595Y-75352177D01*
X182500000Y-75692000D01*
X182500000Y-77216000D01*
X182567595Y-77555823D01*
X182760089Y-77843911D01*
X183522089Y-78605911D01*
X183810177Y-78798405D01*
X184057848Y-78847670D01*
X184578089Y-79367911D01*
X184824287Y-79532415D01*
X184903823Y-79656018D01*
X185127398Y-79808780D01*
X183914178Y-81022000D01*
X183719989Y-81022000D01*
X183678553Y-80957606D01*
X183760000Y-80760975D01*
X183760000Y-80202750D01*
X183570250Y-80013000D01*
X182629000Y-80013000D01*
X182629000Y-80033000D01*
X182623000Y-80033000D01*
X182623000Y-80013000D01*
X181105000Y-80013000D01*
X181105000Y-80033000D01*
X181099000Y-80033000D01*
X181099000Y-80013000D01*
X181079000Y-80013000D01*
X181079000Y-80007000D01*
X181099000Y-80007000D01*
X181099000Y-78840750D01*
X181105000Y-78840750D01*
X181105000Y-80007000D01*
X182623000Y-80007000D01*
X182623000Y-78840750D01*
X182629000Y-78840750D01*
X182629000Y-80007000D01*
X183570250Y-80007000D01*
X183760000Y-79817250D01*
X183760000Y-79259025D01*
X183644449Y-78980061D01*
X183430939Y-78766551D01*
X183151974Y-78651000D01*
X182818750Y-78651000D01*
X182629000Y-78840750D01*
X182623000Y-78840750D01*
X182433250Y-78651000D01*
X182100026Y-78651000D01*
X181864000Y-78748765D01*
X181627974Y-78651000D01*
X181294750Y-78651000D01*
X181105000Y-78840750D01*
X181099000Y-78840750D01*
X180909250Y-78651000D01*
X180576026Y-78651000D01*
X180424268Y-78713860D01*
X180445908Y-78607000D01*
X180445908Y-77857000D01*
X180392844Y-77574991D01*
X180226177Y-77315982D01*
X179971872Y-77142223D01*
X179670000Y-77081092D01*
X178470000Y-77081092D01*
X178187991Y-77134156D01*
X178117606Y-77179447D01*
X177920975Y-77098000D01*
X177362750Y-77098000D01*
X177173000Y-77287750D01*
X177173000Y-78229000D01*
X177193000Y-78229000D01*
X177193000Y-78235000D01*
X177173000Y-78235000D01*
X177173000Y-78255000D01*
X177167000Y-78255000D01*
X177167000Y-78235000D01*
X177147000Y-78235000D01*
X177147000Y-78229000D01*
X177167000Y-78229000D01*
X177167000Y-77287750D01*
X176977250Y-77098000D01*
X176419025Y-77098000D01*
X176389300Y-77110313D01*
X176389300Y-76998756D01*
X176402078Y-77007487D01*
X176703950Y-77068618D01*
X177504050Y-77068618D01*
X177786059Y-77015554D01*
X178045068Y-76848887D01*
X178061983Y-76824131D01*
X178174011Y-76936159D01*
X178452975Y-77051710D01*
X178811250Y-77051710D01*
X179001000Y-76861960D01*
X179001000Y-75395280D01*
X179007000Y-75395280D01*
X179007000Y-76861960D01*
X179196750Y-77051710D01*
X179555025Y-77051710D01*
X179833989Y-76936159D01*
X180047499Y-76722649D01*
X180163050Y-76443684D01*
X180163050Y-75585030D01*
X179973300Y-75395280D01*
X179007000Y-75395280D01*
X179001000Y-75395280D01*
X178981000Y-75395280D01*
X178981000Y-75389280D01*
X179001000Y-75389280D01*
X179001000Y-75369280D01*
X179007000Y-75369280D01*
X179007000Y-75389280D01*
X179973300Y-75389280D01*
X180163050Y-75199530D01*
X180163050Y-74340876D01*
X180047499Y-74061911D01*
X179833989Y-73848401D01*
X179555025Y-73732850D01*
X179196750Y-73732850D01*
X179007002Y-73922598D01*
X179007002Y-73829141D01*
X179160151Y-73605000D01*
X179685699Y-73605000D01*
X179692264Y-73611576D01*
X180111846Y-73785801D01*
X180566161Y-73786198D01*
X180720322Y-73722500D01*
X180721400Y-73722500D01*
X180873846Y-73785801D01*
X181328161Y-73786198D01*
X181748046Y-73612705D01*
X182069576Y-73291736D01*
X182243801Y-72872154D01*
X182244198Y-72417839D01*
X182070705Y-71997954D01*
X181749736Y-71676424D01*
X181330154Y-71502199D01*
X180875839Y-71501802D01*
X180721678Y-71565500D01*
X180720600Y-71565500D01*
X180568154Y-71502199D01*
X180113839Y-71501802D01*
X179693954Y-71675295D01*
X179686236Y-71683000D01*
X179229958Y-71683000D01*
X179229958Y-71489570D01*
X179176894Y-71207561D01*
X179010227Y-70948552D01*
X178755922Y-70774793D01*
X178454050Y-70713662D01*
X178237102Y-70713662D01*
X177963910Y-70440470D01*
X177840484Y-70358000D01*
X177652139Y-70232152D01*
X177590816Y-70219954D01*
X177284380Y-70158999D01*
X177284375Y-70159000D01*
X175152301Y-70159000D01*
X175145736Y-70152424D01*
X174726154Y-69978199D01*
X174271839Y-69977802D01*
X174117138Y-70041723D01*
X173964154Y-69978199D01*
X173509839Y-69977802D01*
X173089954Y-70151295D01*
X172768424Y-70472264D01*
X172594199Y-70891846D01*
X172593802Y-71346161D01*
X172767295Y-71766046D01*
X173088264Y-72087576D01*
X173507846Y-72261801D01*
X173962161Y-72262198D01*
X174116862Y-72198277D01*
X174269846Y-72261801D01*
X174724161Y-72262198D01*
X175144046Y-72088705D01*
X175151764Y-72081000D01*
X176878042Y-72081000D01*
X176878042Y-73290430D01*
X176931106Y-73572439D01*
X177023447Y-73715942D01*
X176703950Y-73715942D01*
X176421941Y-73769006D01*
X176162932Y-73935673D01*
X175989173Y-74189978D01*
X175928042Y-74491850D01*
X175928042Y-74725492D01*
X175856419Y-74773349D01*
X175856417Y-74773352D01*
X174895069Y-75734699D01*
X174705328Y-76018667D01*
X174638699Y-76353630D01*
X174638700Y-76353635D01*
X174638700Y-78993995D01*
X174638699Y-78994000D01*
X174705328Y-79328963D01*
X174895069Y-79612931D01*
X175911069Y-80628931D01*
X176110957Y-80762492D01*
X176122156Y-80822009D01*
X176288823Y-81081018D01*
X176294700Y-81085034D01*
X176294700Y-81137408D01*
X176130223Y-81378128D01*
X176069092Y-81680000D01*
X176069092Y-82740000D01*
X176122156Y-83022009D01*
X176185574Y-83120564D01*
X176150982Y-83142823D01*
X175977223Y-83397128D01*
X175916092Y-83699000D01*
X175916092Y-84449000D01*
X175969156Y-84731009D01*
X176135823Y-84990018D01*
X176390128Y-85163777D01*
X176692000Y-85224908D01*
X177892000Y-85224908D01*
X178174009Y-85171844D01*
X178244394Y-85126553D01*
X178441025Y-85208000D01*
X178999250Y-85208000D01*
X179188998Y-85018252D01*
X179188998Y-85039062D01*
X178590960Y-85637100D01*
X177419000Y-85637100D01*
X177093757Y-85701795D01*
X176903928Y-85828635D01*
X176818030Y-85886030D01*
X174913030Y-87791030D01*
X174728795Y-88066757D01*
X174664100Y-88392000D01*
X174664100Y-90928793D01*
X174546424Y-91046264D01*
X174372199Y-91465846D01*
X174371802Y-91920161D01*
X174545295Y-92340046D01*
X174660967Y-92455921D01*
X174546424Y-92570264D01*
X174372199Y-92989846D01*
X174371802Y-93444161D01*
X174545295Y-93864046D01*
X174866264Y-94185576D01*
X175285846Y-94359801D01*
X175740161Y-94360198D01*
X176160046Y-94186705D01*
X176481576Y-93865736D01*
X176655801Y-93446154D01*
X176656198Y-92991839D01*
X176482705Y-92571954D01*
X176367033Y-92456079D01*
X176481576Y-92341736D01*
X176655801Y-91922154D01*
X176656198Y-91467839D01*
X176482705Y-91047954D01*
X176363900Y-90928941D01*
X176363900Y-89346750D01*
X181375000Y-89346750D01*
X181375000Y-90304975D01*
X181490551Y-90583939D01*
X181704061Y-90797449D01*
X181983026Y-90913000D01*
X182941250Y-90913000D01*
X183131000Y-90723250D01*
X183131000Y-89157000D01*
X181564750Y-89157000D01*
X181375000Y-89346750D01*
X176363900Y-89346750D01*
X176363900Y-88744040D01*
X177771040Y-87336900D01*
X178943000Y-87336900D01*
X179268243Y-87272205D01*
X179543970Y-87087970D01*
X179960171Y-86671769D01*
X179959802Y-87094161D01*
X180133295Y-87514046D01*
X180454264Y-87835576D01*
X180873846Y-88009801D01*
X181006055Y-88009917D01*
X181266225Y-88270086D01*
X181266227Y-88270089D01*
X181375000Y-88342769D01*
X181375000Y-88961250D01*
X181564750Y-89151000D01*
X183131000Y-89151000D01*
X183131000Y-89131000D01*
X183137000Y-89131000D01*
X183137000Y-89151000D01*
X183157000Y-89151000D01*
X183157000Y-89157000D01*
X183137000Y-89157000D01*
X183137000Y-90723250D01*
X183326750Y-90913000D01*
X184284974Y-90913000D01*
X184563939Y-90797449D01*
X184703565Y-90657823D01*
X185322179Y-90914694D01*
X186022748Y-90915305D01*
X186670223Y-90647774D01*
X187166033Y-90152829D01*
X187434694Y-89505821D01*
X187435305Y-88805252D01*
X187320110Y-88526458D01*
X187745100Y-88526458D01*
X187745100Y-91736400D01*
X187809795Y-92061643D01*
X187994030Y-92337370D01*
X188341947Y-92685287D01*
X188341802Y-92851561D01*
X188354743Y-92882881D01*
X188324931Y-92853069D01*
X188040963Y-92663328D01*
X187706000Y-92596699D01*
X187705995Y-92596700D01*
X186921851Y-92596700D01*
X186829736Y-92504424D01*
X186410154Y-92330199D01*
X185955839Y-92329802D01*
X185535954Y-92503295D01*
X185214424Y-92824264D01*
X185040199Y-93243846D01*
X185039802Y-93698161D01*
X185213295Y-94118046D01*
X185534264Y-94439576D01*
X185953846Y-94613801D01*
X186408161Y-94614198D01*
X186828046Y-94440705D01*
X186921614Y-94347300D01*
X187343438Y-94347300D01*
X188120056Y-95123918D01*
X187987839Y-95123802D01*
X187567954Y-95297295D01*
X187246424Y-95618264D01*
X187072199Y-96037846D01*
X187071802Y-96492161D01*
X187245295Y-96912046D01*
X187338700Y-97005614D01*
X187338700Y-97674492D01*
X186080400Y-97674492D01*
X185798391Y-97727556D01*
X185539382Y-97894223D01*
X185365623Y-98148528D01*
X185304492Y-98450400D01*
X185304492Y-99784855D01*
X180854621Y-99784855D01*
X180937000Y-99585974D01*
X180937000Y-99252750D01*
X180747250Y-99063000D01*
X179581000Y-99063000D01*
X179581000Y-99083000D01*
X179575000Y-99083000D01*
X179575000Y-99063000D01*
X179555000Y-99063000D01*
X179555000Y-99057000D01*
X179575000Y-99057000D01*
X179575000Y-97539000D01*
X179581000Y-97539000D01*
X179581000Y-99057000D01*
X180747250Y-99057000D01*
X180937000Y-98867250D01*
X180937000Y-98534026D01*
X180839235Y-98298000D01*
X180937000Y-98061974D01*
X180937000Y-97728750D01*
X180747250Y-97539000D01*
X179581000Y-97539000D01*
X179575000Y-97539000D01*
X179555000Y-97539000D01*
X179555000Y-97533000D01*
X179575000Y-97533000D01*
X179575000Y-96015000D01*
X179581000Y-96015000D01*
X179581000Y-97533000D01*
X180747250Y-97533000D01*
X180937000Y-97343250D01*
X180937000Y-97010026D01*
X180839235Y-96774000D01*
X180937000Y-96537974D01*
X180937000Y-96204750D01*
X180747250Y-96015000D01*
X179581000Y-96015000D01*
X179575000Y-96015000D01*
X179555000Y-96015000D01*
X179555000Y-96009000D01*
X179575000Y-96009000D01*
X179575000Y-95989000D01*
X179581000Y-95989000D01*
X179581000Y-96009000D01*
X180747250Y-96009000D01*
X180937000Y-95819250D01*
X180937000Y-95486026D01*
X180821449Y-95207061D01*
X180607939Y-94993551D01*
X180328975Y-94878000D01*
X179786889Y-94878000D01*
X180037576Y-94627750D01*
X180211801Y-94208168D01*
X180212198Y-93753853D01*
X180038705Y-93333968D01*
X179717736Y-93012438D01*
X179298154Y-92838213D01*
X178843839Y-92837816D01*
X178434528Y-93006940D01*
X178028154Y-92838199D01*
X177573839Y-92837802D01*
X177153954Y-93011295D01*
X176832424Y-93332264D01*
X176658199Y-93751846D01*
X176658083Y-93884055D01*
X175911069Y-94631069D01*
X175721328Y-94915037D01*
X175654699Y-95250000D01*
X175654700Y-95250005D01*
X175654700Y-96023838D01*
X175531931Y-95901069D01*
X175247963Y-95711328D01*
X174913000Y-95644699D01*
X174912995Y-95644700D01*
X174729851Y-95644700D01*
X174637736Y-95552424D01*
X174218154Y-95378199D01*
X173763839Y-95377802D01*
X173343954Y-95551295D01*
X173022424Y-95872264D01*
X172848199Y-96291846D01*
X172847802Y-96746161D01*
X172851079Y-96754092D01*
X172270000Y-96754092D01*
X171987991Y-96807156D01*
X171728982Y-96973823D01*
X171683295Y-97040688D01*
X171683295Y-94644897D01*
X171654620Y-94500736D01*
X171618601Y-94319655D01*
X171434365Y-94043927D01*
X171293668Y-93903230D01*
X171402009Y-93882844D01*
X171625588Y-93738976D01*
X171690061Y-93803449D01*
X171969025Y-93919000D01*
X172527250Y-93919000D01*
X172717000Y-93729250D01*
X172717000Y-92713000D01*
X172723000Y-92713000D01*
X172723000Y-93729250D01*
X172912750Y-93919000D01*
X173470975Y-93919000D01*
X173749939Y-93803449D01*
X173963449Y-93589939D01*
X174079000Y-93310974D01*
X174079000Y-92902750D01*
X173889250Y-92713000D01*
X172723000Y-92713000D01*
X172717000Y-92713000D01*
X172697000Y-92713000D01*
X172697000Y-92707000D01*
X172717000Y-92707000D01*
X172717000Y-92687000D01*
X172723000Y-92687000D01*
X172723000Y-92707000D01*
X173889250Y-92707000D01*
X174079000Y-92517250D01*
X174079000Y-92109026D01*
X173963449Y-91830061D01*
X173749939Y-91616551D01*
X173470975Y-91501000D01*
X173029652Y-91501000D01*
X173052576Y-91478116D01*
X173226801Y-91058534D01*
X173227198Y-90604219D01*
X173053705Y-90184334D01*
X172732736Y-89862804D01*
X172313154Y-89688579D01*
X171858839Y-89688182D01*
X171438954Y-89861675D01*
X171117424Y-90182644D01*
X170943199Y-90602226D01*
X170942802Y-91056541D01*
X170995056Y-91183004D01*
X170693968Y-91484092D01*
X169920000Y-91484092D01*
X169637991Y-91537156D01*
X169378982Y-91703823D01*
X169263409Y-91872971D01*
X162266900Y-84876462D01*
X162266900Y-80417572D01*
X162738591Y-80417572D01*
X163097274Y-81285652D01*
X163760855Y-81950392D01*
X164628308Y-82310590D01*
X165567572Y-82311409D01*
X166435652Y-81952726D01*
X167100392Y-81289145D01*
X167460590Y-80421692D01*
X167460727Y-80264000D01*
X169658092Y-80264000D01*
X169658092Y-82296000D01*
X169711156Y-82578009D01*
X169877823Y-82837018D01*
X170132128Y-83010777D01*
X170434000Y-83071908D01*
X172466000Y-83071908D01*
X172748009Y-83018844D01*
X173007018Y-82852177D01*
X173053017Y-82784855D01*
X173309972Y-82956547D01*
X173990000Y-83091813D01*
X174670028Y-82956547D01*
X175246529Y-82571342D01*
X175631734Y-81994841D01*
X175767000Y-81314813D01*
X175767000Y-81245187D01*
X175631734Y-80565159D01*
X175246529Y-79988658D01*
X174670028Y-79603453D01*
X173990000Y-79468187D01*
X173309972Y-79603453D01*
X173054923Y-79773871D01*
X173022177Y-79722982D01*
X172767872Y-79549223D01*
X172466000Y-79488092D01*
X170434000Y-79488092D01*
X170151991Y-79541156D01*
X169892982Y-79707823D01*
X169719223Y-79962128D01*
X169658092Y-80264000D01*
X167460727Y-80264000D01*
X167461409Y-79482428D01*
X167102726Y-78614348D01*
X166439145Y-77949608D01*
X165571692Y-77589410D01*
X164632428Y-77588591D01*
X163764348Y-77947274D01*
X163099608Y-78610855D01*
X162739410Y-79478308D01*
X162738591Y-80417572D01*
X162266900Y-80417572D01*
X162266900Y-78362207D01*
X162384576Y-78244736D01*
X162558801Y-77825154D01*
X162559198Y-77370839D01*
X162385705Y-76950954D01*
X162064736Y-76629424D01*
X161645154Y-76455199D01*
X161190839Y-76454802D01*
X160770954Y-76628295D01*
X160449424Y-76949264D01*
X160275199Y-77368846D01*
X160274802Y-77823161D01*
X160448295Y-78243046D01*
X160567100Y-78362059D01*
X160567100Y-82240046D01*
X160480705Y-82030954D01*
X160159736Y-81709424D01*
X159740154Y-81535199D01*
X159285839Y-81534802D01*
X158865954Y-81708295D01*
X158550465Y-82023233D01*
X158448705Y-81776954D01*
X158127736Y-81455424D01*
X157708154Y-81281199D01*
X157253839Y-81280802D01*
X156833954Y-81454295D01*
X156512424Y-81775264D01*
X156338199Y-82194846D01*
X156337802Y-82649161D01*
X156511295Y-83069046D01*
X156832264Y-83390576D01*
X157251846Y-83564801D01*
X157420008Y-83564948D01*
X157519100Y-83664040D01*
X157519100Y-84320348D01*
X157176677Y-83807875D01*
X156946025Y-83577223D01*
X155854178Y-82847674D01*
X155631832Y-82755576D01*
X155552816Y-82722846D01*
X154264895Y-82466663D01*
X154182555Y-82466663D01*
X154101800Y-82450600D01*
X151635800Y-82450600D01*
X151635800Y-69786500D01*
X184136092Y-69786500D01*
X184136092Y-70929500D01*
X184189156Y-71211509D01*
X184355823Y-71470518D01*
X184610128Y-71644277D01*
X184912000Y-71705408D01*
X185294154Y-71705408D01*
X185293802Y-72108161D01*
X185467295Y-72528046D01*
X185788264Y-72849576D01*
X186207846Y-73023801D01*
X186662161Y-73024198D01*
X187082046Y-72850705D01*
X187268493Y-72664584D01*
X187307537Y-72690672D01*
X187642500Y-72757301D01*
X187642505Y-72757300D01*
X190014149Y-72757300D01*
X190106264Y-72849576D01*
X190525846Y-73023801D01*
X190980161Y-73024198D01*
X191400046Y-72850705D01*
X191721576Y-72529736D01*
X191895801Y-72110154D01*
X191896198Y-71655839D01*
X191722705Y-71235954D01*
X191401736Y-70914424D01*
X190982154Y-70740199D01*
X190527839Y-70739802D01*
X190107954Y-70913295D01*
X190014386Y-71006700D01*
X189989000Y-71006700D01*
X189989000Y-70550750D01*
X189799250Y-70361000D01*
X188979000Y-70361000D01*
X188979000Y-70381000D01*
X188973000Y-70381000D01*
X188973000Y-70361000D01*
X188953000Y-70361000D01*
X188953000Y-70355000D01*
X188973000Y-70355000D01*
X188973000Y-70335000D01*
X188979000Y-70335000D01*
X188979000Y-70355000D01*
X189799250Y-70355000D01*
X189989000Y-70165250D01*
X189989000Y-69635526D01*
X189873449Y-69356561D01*
X189705727Y-69188839D01*
X189863801Y-68808154D01*
X189864035Y-68540900D01*
X190528960Y-68540900D01*
X194725030Y-72736970D01*
X195000757Y-72921205D01*
X195326000Y-72985900D01*
X198370793Y-72985900D01*
X198488264Y-73103576D01*
X198907846Y-73277801D01*
X199362161Y-73278198D01*
X199782046Y-73104705D01*
X200103576Y-72783736D01*
X200277801Y-72364154D01*
X200278198Y-71909839D01*
X200104705Y-71489954D01*
X199783736Y-71168424D01*
X199364154Y-70994199D01*
X198909839Y-70993802D01*
X198489954Y-71167295D01*
X198370941Y-71286100D01*
X195678040Y-71286100D01*
X193962943Y-69571003D01*
X198101666Y-69571003D01*
X198178785Y-69844459D01*
X198445309Y-70245448D01*
X198844997Y-70513919D01*
X199317000Y-70609000D01*
X199467000Y-70609000D01*
X199467000Y-69378000D01*
X199473000Y-69378000D01*
X199473000Y-70609000D01*
X199623000Y-70609000D01*
X200095003Y-70513919D01*
X200494691Y-70245448D01*
X200761215Y-69844459D01*
X200838334Y-69571003D01*
X200664246Y-69378000D01*
X199473000Y-69378000D01*
X199467000Y-69378000D01*
X198275754Y-69378000D01*
X198101666Y-69571003D01*
X193962943Y-69571003D01*
X191481970Y-67090030D01*
X191206243Y-66905795D01*
X190881000Y-66841100D01*
X187515500Y-66841100D01*
X187190257Y-66905795D01*
X186914530Y-67090030D01*
X184993968Y-69010592D01*
X184912000Y-69010592D01*
X184629991Y-69063656D01*
X184370982Y-69230323D01*
X184197223Y-69484628D01*
X184136092Y-69786500D01*
X151635800Y-69786500D01*
X151635800Y-66678000D01*
X197211000Y-66678000D01*
X197211000Y-66953000D01*
X197307984Y-67434570D01*
X197581874Y-67842369D01*
X197990973Y-68114313D01*
X198270087Y-68193026D01*
X198467000Y-68019246D01*
X198467000Y-66678000D01*
X197211000Y-66678000D01*
X151635800Y-66678000D01*
X151635800Y-65961600D01*
X197298686Y-65961600D01*
X197211000Y-66397000D01*
G36*
X187963000Y-78737000D02*
X187983000Y-78737000D01*
X187983000Y-78743000D01*
X187963000Y-78743000D01*
X187963000Y-79684250D01*
X188152750Y-79874000D01*
X188354700Y-79874000D01*
X188354700Y-81810149D01*
X188262424Y-81902264D01*
X188088199Y-82321846D01*
X188087802Y-82776161D01*
X188261295Y-83196046D01*
X188582264Y-83517576D01*
X189001846Y-83691801D01*
X189456161Y-83692198D01*
X189876046Y-83518705D01*
X190197576Y-83197736D01*
X190262212Y-83042074D01*
X192421067Y-85200928D01*
X192421069Y-85200931D01*
X192611137Y-85327930D01*
X192705037Y-85390672D01*
X193040000Y-85457301D01*
X193040005Y-85457300D01*
X193524069Y-85457300D01*
X193616184Y-85549576D01*
X193839098Y-85642137D01*
X193665455Y-85674811D01*
X193415000Y-85624092D01*
X192665000Y-85624092D01*
X192395455Y-85674811D01*
X192145000Y-85624092D01*
X191395000Y-85624092D01*
X191125455Y-85674811D01*
X190875000Y-85624092D01*
X190125000Y-85624092D01*
X189842991Y-85677156D01*
X189583982Y-85843823D01*
X189410223Y-86098128D01*
X189349092Y-86400000D01*
X189349092Y-86509071D01*
X189221844Y-86508960D01*
X188801959Y-86682453D01*
X188708391Y-86775858D01*
X182247719Y-86775858D01*
X182244084Y-86772223D01*
X182244198Y-86641839D01*
X182224845Y-86595000D01*
X182941250Y-86595000D01*
X183131000Y-86405250D01*
X183131000Y-84839000D01*
X183111000Y-84839000D01*
X183111000Y-84833000D01*
X183131000Y-84833000D01*
X183131000Y-84813000D01*
X183137000Y-84813000D01*
X183137000Y-84833000D01*
X183157000Y-84833000D01*
X183157000Y-84839000D01*
X183137000Y-84839000D01*
X183137000Y-86405250D01*
X183326750Y-86595000D01*
X184284974Y-86595000D01*
X184563939Y-86479449D01*
X184703565Y-86339823D01*
X185322179Y-86596694D01*
X186022748Y-86597305D01*
X186670223Y-86329774D01*
X187166033Y-85834829D01*
X187434694Y-85187821D01*
X187435305Y-84487252D01*
X187167774Y-83839777D01*
X186672829Y-83343967D01*
X186025821Y-83075306D01*
X185325252Y-83074695D01*
X184703136Y-83331748D01*
X184563939Y-83192551D01*
X184284974Y-83077000D01*
X183525199Y-83077000D01*
X183542018Y-83066177D01*
X183715777Y-82811872D01*
X183718586Y-82798000D01*
X184282000Y-82798000D01*
X184621823Y-82730405D01*
X184909911Y-82537911D01*
X186687911Y-80759911D01*
X186880405Y-80471823D01*
X186948000Y-80132000D01*
X186948000Y-79833989D01*
X187012394Y-79792553D01*
X187209025Y-79874000D01*
X187767250Y-79874000D01*
X187957000Y-79684250D01*
X187957000Y-78743000D01*
X187937000Y-78743000D01*
X187937000Y-78737000D01*
X187957000Y-78737000D01*
X187957000Y-78717000D01*
X187963000Y-78717000D01*
X187963000Y-78737000D01*
X187963000Y-78737000D01*
G37*
X187963000Y-78737000D02*
X187983000Y-78737000D01*
X187983000Y-78743000D01*
X187963000Y-78743000D01*
X187963000Y-79684250D01*
X188152750Y-79874000D01*
X188354700Y-79874000D01*
X188354700Y-81810149D01*
X188262424Y-81902264D01*
X188088199Y-82321846D01*
X188087802Y-82776161D01*
X188261295Y-83196046D01*
X188582264Y-83517576D01*
X189001846Y-83691801D01*
X189456161Y-83692198D01*
X189876046Y-83518705D01*
X190197576Y-83197736D01*
X190262212Y-83042074D01*
X192421067Y-85200928D01*
X192421069Y-85200931D01*
X192611137Y-85327930D01*
X192705037Y-85390672D01*
X193040000Y-85457301D01*
X193040005Y-85457300D01*
X193524069Y-85457300D01*
X193616184Y-85549576D01*
X193839098Y-85642137D01*
X193665455Y-85674811D01*
X193415000Y-85624092D01*
X192665000Y-85624092D01*
X192395455Y-85674811D01*
X192145000Y-85624092D01*
X191395000Y-85624092D01*
X191125455Y-85674811D01*
X190875000Y-85624092D01*
X190125000Y-85624092D01*
X189842991Y-85677156D01*
X189583982Y-85843823D01*
X189410223Y-86098128D01*
X189349092Y-86400000D01*
X189349092Y-86509071D01*
X189221844Y-86508960D01*
X188801959Y-86682453D01*
X188708391Y-86775858D01*
X182247719Y-86775858D01*
X182244084Y-86772223D01*
X182244198Y-86641839D01*
X182224845Y-86595000D01*
X182941250Y-86595000D01*
X183131000Y-86405250D01*
X183131000Y-84839000D01*
X183111000Y-84839000D01*
X183111000Y-84833000D01*
X183131000Y-84833000D01*
X183131000Y-84813000D01*
X183137000Y-84813000D01*
X183137000Y-84833000D01*
X183157000Y-84833000D01*
X183157000Y-84839000D01*
X183137000Y-84839000D01*
X183137000Y-86405250D01*
X183326750Y-86595000D01*
X184284974Y-86595000D01*
X184563939Y-86479449D01*
X184703565Y-86339823D01*
X185322179Y-86596694D01*
X186022748Y-86597305D01*
X186670223Y-86329774D01*
X187166033Y-85834829D01*
X187434694Y-85187821D01*
X187435305Y-84487252D01*
X187167774Y-83839777D01*
X186672829Y-83343967D01*
X186025821Y-83075306D01*
X185325252Y-83074695D01*
X184703136Y-83331748D01*
X184563939Y-83192551D01*
X184284974Y-83077000D01*
X183525199Y-83077000D01*
X183542018Y-83066177D01*
X183715777Y-82811872D01*
X183718586Y-82798000D01*
X184282000Y-82798000D01*
X184621823Y-82730405D01*
X184909911Y-82537911D01*
X186687911Y-80759911D01*
X186880405Y-80471823D01*
X186948000Y-80132000D01*
X186948000Y-79833989D01*
X187012394Y-79792553D01*
X187209025Y-79874000D01*
X187767250Y-79874000D01*
X187957000Y-79684250D01*
X187957000Y-78743000D01*
X187937000Y-78743000D01*
X187937000Y-78737000D01*
X187957000Y-78737000D01*
X187957000Y-78717000D01*
X187963000Y-78717000D01*
X187963000Y-78737000D01*
G36*
X179195000Y-84071000D02*
X179215000Y-84071000D01*
X179215000Y-84077000D01*
X179195000Y-84077000D01*
X179195000Y-84097000D01*
X179189000Y-84097000D01*
X179189000Y-84077000D01*
X179169000Y-84077000D01*
X179169000Y-84071000D01*
X179189000Y-84071000D01*
X179189000Y-84051000D01*
X179195000Y-84051000D01*
X179195000Y-84071000D01*
X179195000Y-84071000D01*
G37*
X179195000Y-84071000D02*
X179215000Y-84071000D01*
X179215000Y-84077000D01*
X179195000Y-84077000D01*
X179195000Y-84097000D01*
X179189000Y-84097000D01*
X179189000Y-84077000D01*
X179169000Y-84077000D01*
X179169000Y-84071000D01*
X179189000Y-84071000D01*
X179189000Y-84051000D01*
X179195000Y-84051000D01*
X179195000Y-84071000D01*
G36*
X187709000Y-76705000D02*
X187729000Y-76705000D01*
X187729000Y-76711000D01*
X187709000Y-76711000D01*
X187709000Y-76731000D01*
X187703000Y-76731000D01*
X187703000Y-76711000D01*
X187683000Y-76711000D01*
X187683000Y-76705000D01*
X187703000Y-76705000D01*
X187703000Y-76685000D01*
X187709000Y-76685000D01*
X187709000Y-76705000D01*
X187709000Y-76705000D01*
G37*
X187709000Y-76705000D02*
X187729000Y-76705000D01*
X187729000Y-76711000D01*
X187709000Y-76711000D01*
X187709000Y-76731000D01*
X187703000Y-76731000D01*
X187703000Y-76711000D01*
X187683000Y-76711000D01*
X187683000Y-76705000D01*
X187703000Y-76705000D01*
X187703000Y-76685000D01*
X187709000Y-76685000D01*
X187709000Y-76705000D01*
M02*
